<?xml version="1.0" encoding="UTF-8"?>
<svg xmlns="http://www.w3.org/2000/svg" id="Layer_1" data-name="Layer 1" viewBox="0 0 24 24">
  <path d="m17,10c-3.859,0-7,3.141-7,7s3.141,7,7,7,7-3.141,7-7-3.141-7-7-7Zm0,12c-2.757,0-5-2.243-5-5s2.243-5,5-5,5,2.243,5,5-2.243,5-5,5Zm1-6h2v2h-2v2h-2v-2h-2v-2h2v-2h2v2Zm-8.482,6H3c-.552,0-1-.448-1-1s.448-1,1-1h5.523c-.226-.638-.388-1.306-.464-2h-2.059V2h12v6.058c.695.077,1.362.239,2,.464V2c0-1.103-.898-2-2-2H3C1.346,0,0,1.346,0,3v18c0,1.654,1.346,3,3,3h8.349c-.706-.571-1.325-1.244-1.831-2ZM2,3c0-.552.448-1,1-1h1v16h-1c-.352,0-.686.072-1,.184V3Z"/>
</svg>
