<?xml version="1.0" encoding="UTF-8"?>
<svg xmlns="http://www.w3.org/2000/svg" id="Layer_1" data-name="Layer 1" viewBox="0 0 24 24">
  <path d="m20.5,17c-1.93,0-3.5,1.57-3.5,3.5s1.57,3.5,3.5,3.5,3.5-1.57,3.5-3.5-1.57-3.5-3.5-3.5Zm0,5c-.827,0-1.5-.673-1.5-1.5s.673-1.5,1.5-1.5,1.5.673,1.5,1.5-.673,1.5-1.5,1.5Zm-6.372-10.714L23.948,1.465,22.534.051l-9.82,9.82-1.853-1.853-1.595,3.19c-.47-.137-.963-.209-1.467-.209-1.389,0-2.694.541-3.677,1.523-1.757,1.757-3.307,8.439-3.6,9.761l-.339,1.532,1.531-.339c1.322-.293,8.004-1.842,9.761-3.6.982-.982,1.523-2.288,1.523-3.677,0-.504-.071-.996-.209-1.467l3.19-1.595-1.853-1.853Zm-4.066,7.177c-.869.87-4.412,1.978-7.213,2.688.709-2.8,1.817-6.343,2.688-7.213.604-.604,1.408-.937,2.263-.937s1.658.333,2.263.937c.604.604.938,1.408.938,2.263s-.333,1.658-.938,2.263Z"/>
</svg>
