<?xml version="1.0" encoding="UTF-8"?>
<svg xmlns="http://www.w3.org/2000/svg" id="Layer_1" data-name="Layer 1" viewBox="0 0 24 24" width="512" height="512"><path d="M14,9.5c0-.828,.672-1.5,1.5-1.5s1.5,.672,1.5,1.5-.672,1.5-1.5,1.5-1.5-.672-1.5-1.5Zm-5.5,1.5c.828,0,1.5-.672,1.5-1.5s-.672-1.5-1.5-1.5-1.5,.672-1.5,1.5,.672,1.5,1.5,1.5Zm5.5,5c0,1.105,.895,2,2,2s2-.895,2-2c0-1.59-2-3.6-2-3.6,0,0-2,1.969-2,3.6Zm-6.336-1.748l-1.33,1.493c.103,.092,2.559,2.254,5.666,2.254,.184,0,.36-.018,.537-.035-.332-.583-.537-1.247-.537-1.965-2.331,0-4.316-1.73-4.336-1.748Zm16.336-2.252c0,6.617-5.383,12-12,12S0,18.617,0,12,5.383,0,12,0s12,5.383,12,12Zm-2,0c0-5.514-4.486-10-10-10S2,6.486,2,12s4.486,10,10,10,10-4.486,10-10Z"/></svg>
