<?xml version="1.0" encoding="UTF-8"?>
<svg xmlns="http://www.w3.org/2000/svg" id="Layer_1" data-name="Layer 1" viewBox="0 0 24 24" width="512" height="512"><path d="m17,6.333V2h2V0H5v2h2v4.291C2.725,8.158,0,12.179,0,16.714c0,2.506.841,4.894,2.431,6.906l.3.38h18.539l.3-.38c1.59-2.012,2.431-4.399,2.431-6.906,0-4.401-2.785-8.492-7-10.382Zm-8.651,1.57l.651-.242V2h6v5.688l.643.246c2.711,1.036,4.788,3.128,5.757,5.62-.898.504-2.85,1.446-4.899,1.446-1.652,0-2.865-.455-4.148-.937-1.395-.523-2.837-1.063-4.852-1.063-1.922,0-3.87.811-5.238,1.544.734-2.987,2.962-5.478,6.087-6.642Zm11.938,14.098H3.714c-1.062-1.486-1.648-3.193-1.708-4.977.936-.614,3.32-2.023,5.494-2.023,1.652,0,2.865.455,4.148.937,1.395.523,2.837,1.063,4.852,1.063,2.195,0,4.22-.835,5.419-1.453.053.385.081.775.081,1.167,0,1.896-.591,3.714-1.714,5.286Z"/></svg>
