<?xml version="1.0" encoding="UTF-8"?>
<svg xmlns="http://www.w3.org/2000/svg" id="Layer_1" data-name="Layer 1" viewBox="0 0 24 24" width="512" height="512"><path d="m21,4h-3v-1c0-1.654-1.346-3-3-3H3C1.346,0,0,1.346,0,3v14.854c0,.794.435,1.52,1.134,1.894.318.171.667.255,1.015.255.416,0,.831-.121,1.19-.36l2.661-1.774v3.131h10.697l3.964,2.643c.36.24.774.361,1.19.361.348,0,.696-.085,1.015-.256.7-.374,1.134-1.1,1.134-1.894V7c0-1.654-1.346-3-3-3ZM2.23,17.979c-.019.012-.075.048-.152.007-.079-.042-.079-.109-.079-.131V3c0-.552.449-1,1-1h12c.551,0,1,.448,1,1v12H6.697l-4.467,2.979Zm19.77,3.876c0,.021,0,.089-.079.131-.079.041-.133.005-.151-.007l-4.467-2.979h-9.303v-2h10V6h3c.551,0,1,.448,1,1v14.854Z"/></svg>
