<?xml version="1.0" encoding="UTF-8"?>
<svg xmlns="http://www.w3.org/2000/svg" id="Layer_1" data-name="Layer 1" viewBox="0 0 24 24" width="512" height="512"><path d="M23.99,7.12c-.06-1.95-.89-3.77-2.36-5.14C20.17,.63,18.26-.07,16.28,0c-1.99,.08-3.84,.92-5.19,2.38-.68,.73-1.98,2.52-6.05,10C2.84,16.41,.56,20.49,.56,20.49l-.5,.9,5.09,2.64,.47-.85s2.27-4.06,4.45-8.06c4.14-7.59,5.12-8.73,5.22-8.84,.65-.7,1.75-.75,2.44-.1,.66,.62,.67,1.65,.02,2.35l-1,1.39,4.81,3.28,.58-.74c1.26-1.63,1.9-3.47,1.85-5.34Zm-13.62-.12h2.02c-.45,.73-1.03,1.71-1.77,3h-1.99c.65-1.16,1.23-2.15,1.73-3Zm-2.84,5h1.98c-.37,.66-.76,1.38-1.19,2.16-.15,.28-.3,.56-.46,.84h-1.97c.3-.55,.6-1.1,.91-1.66,.25-.46,.5-.91,.73-1.34Zm-3.18,9.36l-1.53-.8c.45-.8,1.16-2.08,1.97-3.56h1.97c-1,1.82-1.9,3.43-2.42,4.36ZM13.82,4.92s-.05,.05-.07,.08h-2.13c.39-.59,.7-1,.94-1.26,.91-.98,2.12-1.58,3.44-1.72v1.74c-.81,.12-1.58,.51-2.18,1.15Zm4.18-.91v-1.82c.84,.23,1.61,.65,2.27,1.26,.49,.46,.88,.98,1.17,1.55h-2.07c-.09-.1-.18-.19-.27-.28-.33-.3-.7-.54-1.09-.7Zm3.09,6.45l-1.51-1.03c.51-.74,.72-1.6,.64-2.43h1.76c0,.06,0,.12,0,.18,.03,1.12-.28,2.23-.9,3.28Z"/></svg>
