<?xml version="1.0" encoding="UTF-8"?>
<svg xmlns="http://www.w3.org/2000/svg" id="Layer_1" data-name="Layer 1" viewBox="0 0 24 24" width="512" height="512"><path d="M20.5,3H3.5c-1.93,0-3.5,1.57-3.5,3.5,0,1.37,.8,2.59,2,3.16v11.34H22V9.66c1.2-.57,2-1.79,2-3.16,0-1.93-1.57-3.5-3.5-3.5ZM3.2,7.97c-.69-.14-1.2-.76-1.2-1.47,0-.83,.67-1.5,1.5-1.5H13.5c.83,0,1.5,.67,1.5,1.5,0,.71-.5,1.33-1.2,1.47l-.8,.16v10.87H4V8.13l-.8-.16Zm17.6,0l-.8,.16v10.87h-5V9.66c1.2-.57,2-1.79,2-3.16,0-.54-.12-1.05-.34-1.5h3.84c.83,0,1.5,.67,1.5,1.5,0,.71-.5,1.33-1.2,1.47Z"/></svg>
