<?xml version="1.0" encoding="UTF-8"?>
<svg xmlns="http://www.w3.org/2000/svg" id="Layer_1" data-name="Layer 1" viewBox="0 0 24 24">
  <path d="m1.5,9c-.539,0-1.044.132-1.5.35v-3.35c0-1.654,1.346-3,3-3h18c1.654,0,3,1.346,3,3h-2c0-.551-.448-1-1-1H3c-.551,0-1,.449-1,1v3.05c-.165-.024-.329-.05-.5-.05Zm20.5,10H2v-3.05c-.165.024-.329.05-.5.05-.539,0-1.044-.132-1.5-.35v5.35h24v-3h-2v1ZM5,8v8h4v-2h-2v-6h-2Zm15,8h4v-2h-2v-1h2v-2h-2v-1h2v-2h-4v8Zm-8,0v-8h-2v8h2Zm1-8v.5l2.115,7.5h1.783l2.065-7.225.038-.775h-2v.36l-1,3.5-1-3.5v-.36h-2ZM1.5,14c.828,0,1.5-.672,1.5-1.5s-.672-1.5-1.5-1.5-1.5.672-1.5,1.5.672,1.5,1.5,1.5Z"/>
</svg>
