<?xml version="1.0" encoding="UTF-8"?>
<svg xmlns="http://www.w3.org/2000/svg" id="Layer_1" data-name="Layer 1" viewBox="0 0 24 24">
  <path d="m23.97,0h-9.091l-2.883,5.826L9.122,0H.02l4.752,9.63c-1.119,1.5-1.782,3.359-1.782,5.37,0,4.963,4.037,9,9,9s9-4.037,9-9c0-2.012-.664-3.872-1.783-5.372L23.97,0Zm-7.849,2h4.628l-3.01,6.082c-1.06-.883-2.325-1.527-3.713-1.849l2.095-4.233Zm-8.243,0l2.087,4.23c-1.393.321-2.664.968-3.728,1.854L3.236,2h4.642Zm4.111,20c-3.859,0-7-3.141-7-7s3.141-7,7-7,7,3.141,7,7-3.141,7-7,7Zm.347-5.273c-.14.093-.277.184-.408.273h3.072v2h-6v-1c0-1.466,1.187-2.25,2.233-2.941,1.1-.727,1.767-1.228,1.767-2.059,0-.552-.448-1-1-1s-1,.448-1,1h-2c0-1.654,1.346-3,3-3s3,1.346,3,3c0,1.967-1.54,2.984-2.664,3.727Z"/>
</svg>
