<?xml version="1.0" encoding="UTF-8"?>
<svg xmlns="http://www.w3.org/2000/svg" id="Layer_1" data-name="Layer 1" viewBox="0 0 24 24">
  <path d="m19,11.994l3.535-3.458c1.95-1.95,1.95-5.122,0-7.071-.944-.944-2.2-1.464-3.535-1.464s-2.591.52-3.536,1.464c-1.949,1.95-1.949,5.122.008,7.079l3.528,3.45Zm-2.122-9.115c.567-.567,1.32-.879,2.122-.879s1.555.312,2.121.878c1.17,1.17,1.17,3.073.008,4.235l-2.129,2.082-2.122-2.074c-1.169-1.17-1.169-3.073,0-4.243ZM4,22c0,1.105-.895,2-2,2s-2-.895-2-2,.895-2,2-2,2,.895,2,2Zm8.5-8c1.105,0,2,.895,2,2s-.895,2-2,2-2-.895-2-2,.895-2,2-2Zm11.5,5c0,2.206-1.794,4-4,4H5.874c.082-.32.126-.655.126-1s-.044-.68-.126-1h14.126c1.103,0,2-.897,2-2s-.897-2-2-2h-3.626c.082-.32.126-.655.126-1s-.044-.68-.126-1h3.626c2.206,0,4,1.794,4,4ZM2,13c0-2.206,1.794-4,4-4h7.26c.237.342.508.668.814.973l1.05,1.027H6c-1.103,0-2,.897-2,2s.897,2,2,2h2.626c-.082.32-.126.655-.126,1s.044.68.126,1h-2.626c-2.206,0-4-1.794-4-4Z"/>
  <circle cx="19.001" cy="4.787" r="1"/>
</svg>
