<?xml version="1.0" encoding="UTF-8"?>
<svg xmlns="http://www.w3.org/2000/svg" id="Layer_1" data-name="Layer 1" viewBox="0 0 24 24">
  <path d="m7,12c3.309,0,6-2.691,6-6h2v-2h-2.343C11.831,1.672,9.608,0,7,0,3.691,0,1,2.691,1,6s2.691,6,6,6Zm0-2c-2.206,0-4-1.794-4-4h8c0,2.206-1.794,4-4,4Zm0-8c1.478,0,2.771.805,3.463,2H3.537c.693-1.195,1.985-2,3.463-2Zm5,16h2v6h-2v-6ZM24,2.462l-4,2.538v5.469l-6.638,5.531H4.5c-1.379,0-2.5,1.121-2.5,2.5v5.5H0v-5.5c0-2.481,2.019-4.5,4.5-4.5h8.138l5.362-4.469V0h2l4,2.462Z"/>
</svg>
