<?xml version="1.0" encoding="UTF-8"?>
<svg xmlns="http://www.w3.org/2000/svg" id="Layer_1" data-name="Layer 1" viewBox="0 0 24 24">
  <path d="m16.5,14H7.5c-2.481,0-4.5,2.019-4.5,4.5v5.5h2v-5.5c0-1.071.68-1.979,1.628-2.335.955,1.712,3.018,5.136,5.18,7.835h2.605c-.396-.46-.787-.939-1.168-1.428,2.385-3.138,3.69-5.675,4.056-6.429.985.336,1.699,1.259,1.699,2.357v5.5h2v-5.5c0-2.481-2.019-4.5-4.5-4.5Zm-7.664,2h6.29c-.545,1.019-1.578,2.804-3.126,4.898-1.305-1.83-2.424-3.631-3.164-4.898Zm6.164-10.5c0,.828-.672,1.5-1.5,1.5h-3c-.828,0-1.5-.672-1.5-1.5s.672-1.5,1.5-1.5h3c.828,0,1.5.672,1.5,1.5Zm5.812.517c-.42-.296-.943-.443-1.449-.517.506-.074,1.029-.222,1.449-.517,1.219-.859,1.565-2.916,1.565-2.916,0,0-2.093-.34-3.312.518-.643.453-1.039,1.234-1.273,1.876-.682-2.564-3.017-4.461-5.793-4.461-3.309,0-6,2.691-6,6s2.691,6,6,6c3.011,0,5.504-2.232,5.929-5.127.243.562.602,1.166,1.137,1.542,1.219.859,3.312.518,3.312.518,0,0-.346-2.057-1.565-2.916Zm-8.813,3.983c-2.206,0-4-1.794-4-4s1.794-4,4-4,4,1.794,4,4-1.794,4-4,4Z"/>
</svg>
