<?xml version="1.0" encoding="UTF-8"?>
<svg xmlns="http://www.w3.org/2000/svg" id="Layer_1" data-name="Layer 1" viewBox="0 0 24 24" width="512" height="512"><path d="m12.021,12c3.309,0,6-2.691,6-6S15.33,0,12.021,0s-6,2.691-6,6,2.691,6,6,6Zm0-10c2.206,0,4,1.794,4,4s-1.794,4-4,4-4-1.794-4-4,1.794-4,4-4Zm9.979,17v5h-2v-5c0-1.654-1.346-3-3-3h-1v2.172c1.164.413,2,1.524,2,2.828v3h-2v-3c0-.552-.448-1-1-1s-1,.448-1,1v3h-2v-3c0-1.304.836-2.415,2-2.828v-2.172h-5.021v2.268c.598.346,1,.992,1,1.732,0,1.105-.895,2-2,2s-2-.895-2-2c0-.74.402-1.386,1-1.732v-2.268c-1.644.012-2.979,1.352-2.979,2.999v5h-2v-5c0-2.757,2.243-5,5-5h10c2.757,0,5,2.243,5,5Z"/></svg>
