<?xml version="1.0" encoding="UTF-8"?>
<svg xmlns="http://www.w3.org/2000/svg" id="Layer_1" data-name="Layer 1" viewBox="0 0 24 24">
  <path d="m18,6h2v7.736l-2.105,4.211-1.789-.895,1.895-3.789v-7.264Zm-2,6c0,3.309-2.691,6-6,6s-6-2.691-6-6,2.691-6,6-6,6,2.691,6,6Zm-2,0c0-2.206-1.794-4-4-4s-4,1.794-4,4,1.794,4,4,4,4-1.794,4-4Zm10-7v17H0V5c0-1.654,1.346-3,3-3h18c1.654,0,3,1.346,3,3Zm-2,0c0-.552-.449-1-1-1H3c-.551,0-1,.448-1,1v15h20V5Zm-12,5.5c-.828,0-1.5.672-1.5,1.5s.672,1.5,1.5,1.5,1.5-.672,1.5-1.5-.672-1.5-1.5-1.5Z"/>
</svg>
