<?xml version="1.0" encoding="UTF-8"?>
<svg xmlns="http://www.w3.org/2000/svg" id="Layer_1" data-name="Layer 1" viewBox="0 0 24 24">
  <path d="m13.873,12.459l2.353,2.353-1.414,1.414-2.353-2.353,1.414-1.414Zm8.66,11.488l-2.952-2.952c-.95.654-2.061.994-3.18.994-1.289,0-2.579-.438-3.618-1.325-4.432-3.781-7.834-6.852-10.111-9.129L.065,8.928l1.414-1.414,1.391,1.391,1.043-1.043-1.354-1.387,1.432-1.396,1.337,1.37,1.086-1.086-1.354-1.387,1.432-1.396,1.337,1.37,1.077-1.077-1.391-1.391L8.928.065l2.607,2.607c2.277,2.277,5.349,5.679,9.129,10.111,1.657,1.941,1.743,4.758.335,6.801l2.948,2.948-1.414,1.414Zm-13.039-14.453c.756-.756,1.172-1.76,1.172-2.829,0-.762-.212-1.492-.607-2.122l-5.514,5.514c1.545.965,3.61.778,4.949-.563Zm9.452,9.452c1.315-1.315,1.401-3.452.196-4.865-2.483-2.911-4.646-5.36-6.48-7.339-.02,1.574-.638,3.051-1.754,4.166-1.151,1.152-2.66,1.73-4.172,1.748,1.981,1.835,4.432,4.001,7.346,6.487,1.412,1.207,3.55,1.119,4.864-.197Z"/>
</svg>
