<?xml version="1.0" encoding="UTF-8"?>
<svg xmlns="http://www.w3.org/2000/svg" id="Layer_1" data-name="Layer 1" viewBox="0 0 24 24">
  <path d="m13.414,12l-3,3-1.414-1.414,3-3-1.414-1.414-3,3-2.379-2.379-1.414,1.414.852.852-1.439,1.439c-1.605,1.606-1.605,4.22,0,5.825l.028.028L.05,22.536l1.414,1.414,3.185-3.185.028.028c.803.803,1.857,1.204,2.912,1.204s2.109-.401,2.913-1.204l1.439-1.439.852.852,1.414-1.414-2.379-2.379,3-3-1.414-1.414Zm-4.326,7.38c-.824.826-2.169.827-2.997,0l-1.471-1.471c-.826-.826-.826-2.171,0-2.997l1.439-1.439,4.467,4.467-1.439,1.439Zm11.678-14.731l3.191-3.191L22.543.043l-3.191,3.191-.028-.028c-1.605-1.605-4.218-1.605-5.825,0l-1.439,1.439-.852-.852-1.414,1.414,9,9,1.414-1.414-.852-.852,1.439-1.439c1.605-1.606,1.605-4.22,0-5.825l-.028-.028Zm-1.386,4.439l-1.439,1.439-4.467-4.467,1.439-1.439c.826-.825,2.171-.826,2.997,0l1.471,1.471c.826.826.826,2.171,0,2.997Z"/>
</svg>
