<?xml version="1.0" encoding="UTF-8"?>
<svg xmlns="http://www.w3.org/2000/svg" id="Layer_1" data-name="Layer 1" viewBox="0 0 24 24">
  <path d="m8.043,9.543l2.043-2.043-2.043-2.043,1.414-1.414,2.043,2.043,2.043-2.043,1.414,1.414-2.043,2.043,2.043,2.043-1.414,1.414-2.043-2.043-2.043,2.043-1.414-1.414ZM1.457,6.957l2.043-2.043,2.043,2.043,1.414-1.414-2.043-2.043,2.043-2.043L5.543.043l-2.043,2.043L1.457.043.043,1.457l2.043,2.043L.043,5.543l1.414,1.414Zm18.086,10.086l-2.043,2.043-2.043-2.043-1.414,1.414,2.043,2.043-2.043,2.043,1.414,1.414,2.043-2.043,2.043,2.043,1.414-1.414-2.043-2.043,2.043-2.043-1.414-1.414Zm4.447-13.879l-1.414,1.415-1.576-1.575v8.996c0,1.654-1.346,3-3,3H5.508c-.551,0-.999.448-1,.999l-.005,1.165c1.439.435,2.497,1.757,2.497,3.336,0,1.93-1.57,3.5-3.5,3.5s-3.5-1.57-3.5-3.5c0-1.581,1.061-2.905,2.503-3.338l.005-1.169c.003-1.649,1.349-2.993,3-2.993h12.492c.552,0,1-.449,1-1V2.994l-1.576,1.584-1.414-1.415,2.584-2.582c.775-.774,2.037-.774,2.812,0l2.584,2.582ZM3.5,19c-.827,0-1.5.673-1.5,1.5s.673,1.5,1.5,1.5,1.5-.673,1.5-1.5-.673-1.5-1.5-1.5Z"/>
</svg>
