<?xml version="1.0" encoding="UTF-8"?>
<svg xmlns="http://www.w3.org/2000/svg" id="Layer_1" data-name="Layer 1" viewBox="0 0 24 24" width="512" height="512"><path d="M24,12c0,3.368-1.396,6.416-3.638,8.597,.672-1.195,.787-2.626,.468-3.909,.746-1.399,1.17-2.995,1.17-4.689,0,0,0-.001,0-.002,0-5.513-4.486-9.998-10-9.998S2,6.486,2,12s4.483,9.997,9.995,10c.002,0,.003,0,.005,0,.381,0,.757-.022,1.127-.064,.919,.674,2.018,1.065,3.118,1.065,.218,0,.435-.016,.65-.046-1.496,.671-3.152,1.044-4.894,1.044h0c-6.617,0-12-5.383-12-12S5.383,0,12,0s12,5.383,12,12h0Zm-16-3c.321,0,1,.946,1,2h2c0-1.892-1.232-4-3-4s-3,2.108-3,4h2c0-1.054,.679-2,1-2Zm8-2c-1.768,0-3,2.108-3,4h2c0-1.054,.679-2,1-2s1,.946,1,2h2c0-1.892-1.232-4-3-4Zm2.471,9.17c.408,.674,.598,1.524,.505,2.306-.108,.922-.581,1.679-1.329,2.131-.434,.262-.916,.395-1.413,.395-.36,0-.728-.069-1.091-.209-.735-.282-1.399-.844-1.822-1.544l-.767-1.269c-.182,.013-.367,.02-.555,.02-3.107,0-5.563-2.162-5.666-2.254l.666-.746,.664-.748c.02,.018,2.005,1.748,4.336,1.748,2.346,0,4.164-1.474,4.182-1.488l.92-.756,1.369,2.415Zm-1.726,1.01l-.263-.464c-.474,.278-1.103,.593-1.846,.841l.397,.657c.194,.322,.503,.587,.826,.711,.285,.109,.539,.1,.753-.03,.215-.13,.342-.35,.378-.653,.041-.344-.051-.741-.246-1.062Z"/></svg>
