<?xml version="1.0" encoding="UTF-8"?>
<svg xmlns="http://www.w3.org/2000/svg" id="Layer_1" data-name="Layer 1" viewBox="0 0 24 24" width="512" height="512"><path d="m23.332,2.35c-.129-.064-3.194-1.581-6.991-2.124-3.799-.542-7.165.056-7.307.081l-.709.129-.666,4.661C3.897,5.649.873,7.145.745,7.209l-.645.322,1.38,9.656c.613,4.294,7.721,6.449,8.53,6.681l.437.125.382-.247c.168-.109,4.117-2.687,5.756-5.658,2.383-1.033,5.608-2.934,6.012-5.763l1.38-9.653-.645-.322Zm-13.212,19.459c-2.011-.66-6.322-2.538-6.66-4.905l-1.171-8.199c.953-.407,2.858-1.138,5.074-1.534l-.417,2.917c-.011.078-.02.155-.026.233-.233-.107-.479-.15-.729-.114-.837.121-1.393,1.078-1.45,2.227l2.378-.34c.205.686.545,1.35.963,1.978-1.456.671-2.36,2.245-2.42,3.975,1.449-1.139,2.695-1.779,4.067-1.994,1.533,1.541,3.186,2.616,3.532,2.835l.164.103c-1.2,1.282-2.635,2.347-3.304,2.818Zm10.497-9.767c-.34,2.383-4.584,4.23-6.667,4.906-1.809-1.231-5.366-4.194-5.025-6.577l1.171-8.196c1.129-.136,3.47-.324,5.961.031,2.492.356,4.686,1.193,5.731,1.64l-1.171,8.197Zm-1.645-1.801c-.77,1.857-2.533,3.118-4.447,2.847-1.917-.271-3.253-1.98-3.472-3.979,2.765,1.857,4.745,2.14,7.92,1.132Zm-3.104-3.022c.376-1.087,1.177-1.854,2.015-1.732.837.121,1.393,1.078,1.449,2.227l-3.465-.495Zm-.99-.141l-3.465-.495c.376-1.087,1.177-1.854,2.015-1.732.837.121,1.393,1.078,1.449,2.227Z"/></svg>
