<?xml version="1.0" encoding="UTF-8"?>
<svg xmlns="http://www.w3.org/2000/svg" id="Layer_1" data-name="Layer 1" viewBox="0 0 24 24">
  <path d="m19,7h-7v-.5c0-1.077-.372-2.054-1-2.821v-.679c0-1.657-1.343-3-3-3v2.041c-.047-.006-.642-.041-.642-.041v.019c-.439.026-1.044.086-1.437.211l-3.667,1.324c-.864.311-1.556.939-1.948,1.77-.392.831-.436,1.764-.125,2.628.312.871.975,1.566,1.916,2.011.622.293,1.983.57,2.903.735v13.303h7v-4h5v3.998l6.976.015.024-12.013c0-2.757-2.243-5-5-5Zm-16.05,1.153c-.314-.148-.722-.421-.887-.878-.129-.361-.111-.752.053-1.099.164-.348.453-.61.816-.741l3.631-1.312c.142-.045.613-.096,1.01-.115,1.377.101,2.426,1.159,2.426,2.492v2.5h9c1.654,0,3,1.346,3,2.998v.03c-.686-.098-1.398.113-1.974.633l-1.319,1.194c-.212.191-.394.193-.605,0l-1.321-1.196c-.968-.875-2.32-.874-3.289,0l-1.319,1.194c-.212.193-.393.193-.605,0l-1.321-1.196c-.955-.861-2.282-.873-3.248-.035v-3.63l-.846-.132c-1.052-.164-2.742-.492-3.204-.71Zm16.05,13.849v-4.002h-9v4h-3v-6.678l1.3-1.178c.213-.191.395-.192.605,0l1.321,1.196c.484.438,1.063.655,1.644.655s1.161-.219,1.645-.656l1.32-1.194c.213-.192.394-.192.605,0l1.321,1.196c.969.873,2.32.874,3.289,0l1.319-1.194c.213-.193.394-.193.606,0l.022-.024-.016,7.888-2.98-.007Z"/>
</svg>
