<?xml version="1.0" encoding="UTF-8"?>
<svg xmlns="http://www.w3.org/2000/svg" id="Layer_1" data-name="Layer 1" viewBox="0 0 24 24" width="512" height="512"><path d="M22.943,5.699c-.671-.571-1.56-.815-2.439-.674-1.428,.232-2.504,1.55-2.504,3.067v.939L10.782,1.813c-.568-.568-1.346-.856-2.154-.792-.801,.065-1.532,.479-2.005,1.137-.06,.083-.114,.17-.162,.258-.543-.44-1.234-.656-1.942-.601-.801,.064-1.532,.479-2.006,1.137-.43,.596-.571,1.339-.444,2.049-.555,.178-1.045,.53-1.395,1.016-.771,1.069-.616,2.611,.359,3.586l.344,.344c-.344,.194-.646,.463-.884,.793-.769,1.069-.615,2.611,.35,3.576l6.723,6.918c1.71,1.76,4.003,2.741,6.457,2.763,.028,0,.056,0,.084,0,2.422,0,4.7-.938,6.421-2.647l.815-.81c1.689-1.677,2.658-4.005,2.658-6.386V7.984c0-.881-.385-1.714-1.057-2.286Zm-.943,8.456c0,1.852-.753,3.662-2.067,4.967l-.815,.81c-1.359,1.35-3.193,2.069-5.078,2.066-1.916-.017-3.706-.783-5.041-2.157L2.267,12.912c-.285-.285-.351-.726-.151-1.003,.179-.248,.417-.302,.544-.312,.215-.016,.426,.06,.579,.212l4.291,4.291,1.414-1.414L2.447,8.189c-.284-.285-.35-.725-.15-1.003,.179-.249,.417-.303,.544-.313,.206-.018,.426,.06,.578,.212l6.562,6.562,1.414-1.414L4.286,5.124c-.284-.285-.35-.725-.15-1.003,.179-.248,.417-.302,.543-.312,.22-.016,.427,.06,.579,.212l7.175,7.175,1.414-1.414-5.451-5.451c-.285-.285-.351-.726-.15-1.003,.179-.248,.417-.302,.543-.312,.215-.014,.426,.06,.579,.212l10.632,10.632v-5.768c0-.538,.362-1.018,.825-1.093,.302-.047,.595,.031,.823,.224,.224,.19,.353,.468,.353,.762v6.17ZM13.719,1.959L14.281,.041c2.123,.622,3.528,2.025,4.176,4.17l-1.915,.578c-.446-1.478-1.37-2.403-2.824-2.83ZM4.781,20.963l-.562,1.92c-2.124-.622-3.529-2.025-4.177-4.171l1.915-.578c.446,1.479,1.37,2.404,2.823,2.829Z"/></svg>
