<?xml version="1.0" encoding="UTF-8"?>
<svg xmlns="http://www.w3.org/2000/svg" id="Layer_1" data-name="Layer 1" viewBox="0 0 24 24">
  <path d="m20.529,9.525l-1.529,1.112v-5.354L12,.032l-7,5.25v5.354l-1.529-1.112-3.471,2.777v11.698h24v-11.698l-3.471-2.777ZM12,2.532l5,3.75v15.718h-2v-4c0-1.654-1.346-3-3-3s-3,1.346-3,3v4h-2V6.282l5-3.75Zm1,19.468h-2v-4c0-.551.449-1,1-1s1,.449,1,1v4ZM2,13.263l1.529-1.223,1.471,1.07v8.891h-3v-8.737Zm20,8.737h-3v-8.891l1.471-1.07,1.529,1.223v8.737Zm-13-10.269l1.05-1.75-1.05-1.75h2.1l.9-1.5.9,1.5h2.1l-1.05,1.75,1.05,1.75h-2.1l-.9,1.5-.9-1.5h-2.1Z"/>
</svg>
