<?xml version="1.0" encoding="UTF-8"?>
<svg xmlns="http://www.w3.org/2000/svg" id="Layer_1" data-name="Layer 1" viewBox="0 0 24 24" width="512" height="512"><path d="m16,4.836v-1.836h-2.271c.17-.294.268-.636.268-1,0-1.105-.895-2-2-2s-2,.895-2,2c0,.364.098.706.268,1h-2.266v1.836c-3.529,1.546-6,5.072-6,9.164,0,5.514,4.486,10,10,10s10-4.486,10-10c0-4.093-2.471-7.618-6-9.164Zm-4,1.164c4.411,0,8,3.589,8,8,0,.185-.007.367-.019.549l-3.963-3.963-4.038,4.039-3.846-3.846-4.086,4.086c-.031-.284-.047-.573-.047-.865,0-4.411,3.589-8,8-8Zm0,16c-3.309,0-6.155-2.019-7.371-4.89l3.504-3.504,3.846,3.846,4.038-4.039,3.451,3.451c-1.155,3-4.067,5.135-7.469,5.135Z"/></svg>
