<?xml version="1.0" encoding="UTF-8"?>
<svg xmlns="http://www.w3.org/2000/svg" id="Layer_1" data-name="Layer 1" viewBox="0 0 24 24">
  <path d="m21,1H3C1.346,1,0,2.346,0,4v19h24V4c0-1.654-1.346-3-3-3Zm1,20H2V4c0-.551.449-1,1-1h18c.551,0,1,.449,1,1v17ZM10,6h9v2h-9v-2Zm-2,1c0,.828-.672,1.5-1.5,1.5s-1.5-.672-1.5-1.5.672-1.5,1.5-1.5,1.5.672,1.5,1.5Zm2,4h9v2h-9v-2Zm-2,1c0,.828-.672,1.5-1.5,1.5s-1.5-.672-1.5-1.5.672-1.5,1.5-1.5,1.5.672,1.5,1.5Zm2,4h9v2h-9v-2Zm-2,1c0,.828-.672,1.5-1.5,1.5s-1.5-.672-1.5-1.5.672-1.5,1.5-1.5,1.5.672,1.5,1.5Z"/>
</svg>
