<?xml version="1.0" encoding="UTF-8"?>
<svg xmlns="http://www.w3.org/2000/svg" id="Layer_1" data-name="Layer 1" viewBox="0 0 24 24">
  <path d="m23.238,1.924l-1.162-1.162c-.872-.875-2.252-1.01-3.31-.305l-8.94,6.66c-2.363.47-4.23,2.332-4.707,4.693L-.021,16.95l7.07,7.071,5.14-5.14c2.361-.477,4.222-2.344,4.693-4.707l6.68-8.97c.685-1.027.548-2.407-.325-3.28ZM2.808,16.95l2.402-2.402c.553,2.065,2.178,3.69,4.242,4.243l-2.402,2.402-4.242-4.243Zm8.192.05c-2.206,0-4-1.794-4-4s1.794-4,4-4,4,1.794,4,4-1.794,4-4,4Zm10.92-12.935l-5.201,7.122c-.589-1.853-2.054-3.318-3.908-3.906l7.094-5.18c.236-.158.556-.126.757.075l1.162,1.162c.201.202.233.52.096.727Z"/>
  <polygon points="12 10 10 10 10 12 8 12 8 14 10 14 10 16 12 16 12 14 14 14 14 12 12 12 12 10"/>
</svg>
