<?xml version="1.0" encoding="UTF-8"?>
<svg xmlns="http://www.w3.org/2000/svg" id="Layer_1" data-name="Layer 1" viewBox="0 0 24 24" width="512" height="512"><path d="M12,23.994l-7.063-6.908c-3.906-3.907-3.906-10.251-.008-14.15C6.818,1.046,9.329,.006,12,.006s5.182,1.04,7.071,2.929h0c3.898,3.899,3.898,10.243,0,14.142l-7.071,6.916Zm0-21.987c-2.137,0-4.146,.832-5.657,2.343-3.119,3.119-3.119,8.194,0,11.314l5.657,5.532,5.665-5.54c3.111-3.111,3.11-8.187-.008-11.306-1.512-1.511-3.521-2.343-5.657-2.343Zm-.094,11.413l5.793-5.707-1.404-1.425-5.809,5.701-2.793-2.707-1.393,1.437,2.782,2.696c.391,.391,.903,.585,1.416,.585s1.021-.193,1.407-.58Z"/></svg>
