<?xml version="1.0" encoding="UTF-8"?>
<svg xmlns="http://www.w3.org/2000/svg" id="Layer_1" data-name="Layer 1" viewBox="0 0 24 24">
  <path d="m20.703,9.067c.183-.49.297-1.014.297-1.567,0-2.481-2.019-4.5-4.5-4.5s-4.5,2.019-4.5,4.5c0,.171.032.334.051.5h-5.051C3.14,8,0,11.141,0,15v2C0,20.859,3.14,24,7,24h10c3.86,0,7-3.141,7-7v-2c0-2.426-1.272-4.665-3.297-5.933Zm-4.203-4.067c1.378,0,2.5,1.121,2.5,2.5s-1.122,2.5-2.5,2.5-2.5-1.121-2.5-2.5,1.122-2.5,2.5-2.5Zm5.5,12c0,2.757-2.243,5-5,5H7c-2.757,0-5-2.243-5-5v-2c0-2.757,2.243-5,5-5h5.762c.808,1.205,2.182,2,3.738,2,1.206,0,2.298-.483,3.107-1.259,1.468.901,2.393,2.511,2.393,4.259v2Zm-14-4h6.5v2h-6.5c-.551,0-1,.448-1,1s.449,1,1,1v2c-1.654,0-3-1.346-3-3s1.346-3,3-3Zm-2-10.5C6,1.119,7.119,0,8.5,0s2.5,1.119,2.5,2.5-1.119,2.5-2.5,2.5-2.5-1.119-2.5-2.5Zm15-1C21,.672,21.672,0,22.5,0s1.5.672,1.5,1.5-.672,1.5-1.5,1.5-1.5-.672-1.5-1.5Z"/>
</svg>
