<?xml version="1.0" encoding="UTF-8"?>
<svg xmlns="http://www.w3.org/2000/svg" id="Layer_1" data-name="Layer 1" viewBox="0 0 24 24">
  <path d="m22,3c-1.45,5.017-5.278,7.114-8,7.706v-1.706h-2v1.985c-.106.007-.205.011-.296.015h-1.704v-2h-2v2h-2v-2h-2v2H0v2h3.003c-.629.836-1.003,1.875-1.003,3,0,2.757,2.243,5,5,5h4c2.757,0,5-2.243,5-5,0-.817-.197-1.588-.546-2.27,2.496.875,5.351,3.14,6.546,7.27h2V3h-2Zm-11,16h-4c-1.654,0-3-1.346-3-3s1.346-3,3-3c0,0,4.042.002,4.093.002,1.611.05,2.907,1.375,2.907,2.998,0,1.654-1.346,3-3,3Zm11-2.909c-1.555-2.126-3.592-3.367-5.494-4.09,1.901-.723,3.938-1.965,5.494-4.092v8.181Z"/>
</svg>
