<?xml version="1.0" encoding="UTF-8"?>
<svg xmlns="http://www.w3.org/2000/svg" id="Layer_1" data-name="Layer 1" viewBox="0 0 24 24" width="512" height="512"><path d="M8.196,.02l-.196-.02c-1.654,0-3,1.346-3,3v1.581L.879,8.636c-.566,.567-.879,1.32-.879,2.122s.312,1.555,.854,2.095l5.146,5.541v5.607h15v-6.808l1.642-4.105c.238-.593,.358-1.218,.358-1.858V2.98L8.196,.02Zm12.804,11.21c0,.384-.072,.759-.215,1.114l-1.785,4.464v5.192H8v-4.393L2.293,11.464c-.189-.188-.293-.439-.293-.707s.104-.518,.287-.701l2.713-2.669v3.613h2V3c0-.524,.404-.955,.918-.997l13.082,2.616v6.61Z"/></svg>
