<?xml version="1.0" encoding="UTF-8"?>
<svg xmlns="http://www.w3.org/2000/svg" id="Layer_1" data-name="Layer 1" viewBox="0 0 24 24">
  <path d="m15,16.5c0-.828.672-1.5,1.5-1.5s1.5.672,1.5,1.5-.672,1.5-1.5,1.5-1.5-.672-1.5-1.5Zm-1.5-5.5c-.828,0-1.5.672-1.5,1.5s.672,1.5,1.5,1.5,1.5-.672,1.5-1.5-.672-1.5-1.5-1.5Zm6.5,1.5c0-.828-.672-1.5-1.5-1.5s-1.5.672-1.5,1.5.672,1.5,1.5,1.5,1.5-.672,1.5-1.5Zm-9-5.5c0-2.816-1.095-5.127-1.565-5.99L11.19.052c.303.556.695,1.386,1.039,2.406.169-.244.358-.48.577-.699C14.775-.21,17.932,0,18.066.011l.859.063.063.859c.01.133.221,3.291-1.749,5.259-1.667,1.667-4.224,1.807-5.038,1.807-.144,0-1.147-.055-1.147-.055l-.055-.945Zm2.055-1.055c.827-.102,1.991-.386,2.771-1.166.78-.78,1.046-1.929,1.133-2.739-.811.087-1.959.354-2.739,1.133-.78.781-1.064,1.944-1.166,2.771Zm7.661-2.185c-.162.683-.414,1.419-.799,2.137,1.305,1.69,2.083,3.807,2.083,6.102,0,5.514-4.486,10-10,10S2,17.514,2,12c0-4.125,2.51-7.674,6.083-9.201-.154-.354-.298-.636-.404-.831l-.517-.948C2.948,2.884,0,7.104,0,12c0,6.617,5.383,12,12,12s12-5.383,12-12c0-3.187-1.25-6.088-3.284-8.239Z"/>
</svg>
