<?xml version="1.0" encoding="UTF-8"?>
<svg xmlns="http://www.w3.org/2000/svg" id="Layer_1" data-name="Layer 1" viewBox="0 0 24 24">
  <path d="m8.5,2.5c0,1.381-1.119,2.5-2.5,2.5s-2.5-1.119-2.5-2.5S4.619,0,6,0s2.5,1.119,2.5,2.5Zm3.5,7.5c1.381,0,2.5-1.119,2.5-2.5s-1.119-2.5-2.5-2.5-2.5,1.119-2.5,2.5,1.119,2.5,2.5,2.5Zm4,4v6h-1v4h-2v-4h-2v4h-2v-4h-1v-6c0-1.654,1.346-3,3-3h2c1.654,0,3,1.346,3,3Zm-6,4h4v-4c0-.552-.448-1-1-1h-2c-.551,0-1,.448-1,1v4ZM20.5,2.5c0-1.381-1.119-2.5-2.5-2.5s-2.5,1.119-2.5,2.5,1.119,2.5,2.5,2.5,2.5-1.119,2.5-2.5Zm-13.766,3.5h-1.469c-1.51,0-2.79,1.13-2.977,2.628l-1.422,11.372h2.133v4h2v-4h1v-2h-2.867l1.141-9.124c.062-.499.489-.876.992-.876h2.262c-.018-.164-.028-.331-.028-.5,0-.466.071-.916.203-1.339-.305-.104-.631-.161-.968-.161Zm16.398,14l-1.422-11.372c-.187-1.498-1.467-2.628-2.977-2.628h-1.469c-.337,0-.663.057-.968.161.132.423.203.873.203,1.339,0,.169-.01.336-.028.5h2.262c.503,0,.93.377.992.876l1.141,9.124h-2.867v2h1v4h2v-4h2.133Z"/>
</svg>
