<?xml version="1.0" encoding="UTF-8"?>
<svg xmlns="http://www.w3.org/2000/svg" id="Layer_1" data-name="Layer 1" viewBox="0 0 24 24">
  <path d="m16.5,2.5c0-1.381,1.119-2.5,2.5-2.5s2.5,1.119,2.5,2.5-1.119,2.5-2.5,2.5-2.5-1.119-2.5-2.5Zm7.5,6.5c0-1.654-1.346-3-3-3h-4c-.352,0-.686.072-1,.184v2.816c0-.551.448-1,1-1h4c.552,0,1,.449,1,1v6h-4.091c.378,1.015.167,2.202-.646,3.017l-1.263,1.263v4.721h2v-7h2v7h2v-7h2v-8ZM5,5c1.381,0,2.5-1.119,2.5-2.5S6.381,0,5,0s-2.5,1.119-2.5,2.5,1.119,2.5,2.5,2.5Zm-3,4c0-.551.448-1,1-1h3.839l1.61-1.61c-.432-.241-.921-.39-1.449-.39H3c-1.654,0-3,1.346-3,3v8h2v7h2v-7h2v7h2v-9H2v-6Zm9,2h3v-2h-3v-2.333l-2.75,2.75c-.322.322-.322.844,0,1.166l2.75,2.75v-2.333Zm4.848,4.397l-2.848-2.848v2.451h-3v2h3v2.451l2.848-2.848c.333-.333.333-.874,0-1.207Z"/>
</svg>
