<?xml version="1.0" encoding="UTF-8"?>
<svg xmlns="http://www.w3.org/2000/svg" id="Layer_1" data-name="Layer 1" viewBox="0 0 24 24" width="512" height="512"><path d="m22.975,5.975c.661-.661,1.025-1.54,1.025-2.475s-.364-1.814-1.025-2.475c-1.322-1.322-3.563-1.393-5.013.07l-6.53,7.904H0v1c0,3.898,1.911,7.568,5.112,9.818,0,0,.888.541.888,1.182,0,.551-.448,1-1,1v2h14v-2c-.552,0-1-.449-1-1,0-.769.888-1.182.888-1.182,3.201-2.25,5.112-5.92,5.112-9.818v-1h-4.683l3.657-3.025Zm-3.535-3.536c.584-.585,1.537-.584,2.121,0,.283.283.439.66.439,1.06s-.156.777-.369.997l-5.451,4.503h-2.156l5.416-6.561Zm-3.267,19.561H7.828c.111-.313.172-.649.172-1,0-.341-.075-.679-.202-1h8.405c-.128.321-.202.659-.202,1,0,.351.061.687.172,1Zm1.816-4H6.012c-2.249-1.687-3.681-4.234-3.961-7h19.898c-.28,2.766-1.712,5.313-3.961,7Z"/></svg>
