<?xml version="1.0" encoding="UTF-8"?>
<svg xmlns="http://www.w3.org/2000/svg" id="Layer_1" data-name="Layer 1" viewBox="0 0 24 24">
  <path d="m22.784,7.084c.784-.783,1.216-1.825,1.216-2.934s-.432-2.151-1.216-2.935c-.783-.784-1.825-1.216-2.935-1.216s-2.15.432-2.929,1.21l-.164.162c-.787-.759-1.792-1.372-3.207-1.372-2.288,0-4.149,1.862-4.149,4.15v.095c-.3-.025-.611-.045-.869-.045-2.396,0-4.349,1.934-4.381,4.322-1.807.448-3.15,2.084-3.15,4.027,0,1.617,1.925,4.661,2.92,6.125L.019,22.576l1.414,1.414,3.903-3.903c1.469.997,4.501,2.913,6.115,2.913,1.943,0,3.579-1.344,4.027-3.15,2.389-.032,4.322-1.985,4.322-4.381,0-.258-.02-.569-.045-.869h.095c2.288,0,4.15-1.861,4.15-4.149,0-1.415-.613-2.42-1.372-3.207l.156-.159Zm-2.232.97c.917.754,1.448,1.388,1.448,2.396,0,1.186-.965,2.149-2.15,2.149-.536,0-1.24.021-1.24.021l-1.111.033.151,1.103c.041.306.15,1.21.15,1.713,0,1.312-1.068,2.381-2.381,2.381-.173,0-.359-.026-.585-.084l-1.277-.322s.039,1.418.043,1.406c0,1.186-.964,2.15-2.149,2.15-.741,0-2.817-1.126-4.673-2.354l8.437-8.436-1.414-1.414-8.438,8.438c-1.231-1.859-2.361-3.941-2.361-4.684,0-1.186.965-2.149,2.075-2.153l1.481.047-.322-1.277c-.058-.226-.084-.412-.084-.585,0-1.312,1.068-2.381,2.381-2.381.503,0,1.407.109,1.713.15l1.103.152.033-1.112s.021-.704.021-1.24c0-1.186.964-2.15,2.149-2.15,1.009,0,1.643.531,2.396,1.448l.694.846,1.689-1.664c.813-.813,2.228-.812,3.04,0,.406.406.63.945.63,1.521s-.224,1.113-.636,1.524l-1.658,1.685.846.694Z"/>
</svg>
