<?xml version="1.0" encoding="UTF-8"?>
<svg xmlns="http://www.w3.org/2000/svg" id="Layer_1" data-name="Layer 1" viewBox="0 0 24 24">
  <path d="m12,14c-1.654,0-3,1.346-3,3s1.346,3,3,3,3-1.346,3-3-1.346-3-3-3Zm0,4c-.552,0-1-.448-1-1s.448-1,1-1,1,.448,1,1-.448,1-1,1Zm5-5.889v-7.111c0-2.757-2.243-5-5-5s-5,2.243-5,5v7.111c-1.276,1.305-2,3.063-2,4.889,0,3.859,3.141,7,7,7s7-3.141,7-7c0-1.826-.724-3.584-2-4.889Zm-5,9.889c-2.757,0-5-2.243-5-5,0-1.412.608-2.768,1.668-3.719l.332-.298v-7.983c0-1.654,1.346-3,3-3s3,1.346,3,3v7.983l.332.298c1.06.951,1.668,2.307,1.668,3.719,0,2.757-2.243,5-5,5Z"/>
</svg>
