<?xml version="1.0" encoding="UTF-8"?>
<svg xmlns="http://www.w3.org/2000/svg" id="Layer_1" data-name="Layer 1" viewBox="0 0 24 24" width="512" height="512"><path d="M8.496,11c-.828,0-1.5-.672-1.5-1.5s.672-1.5,1.5-1.5,1.5,.672,1.5,1.5-.672,1.5-1.5,1.5Zm8.5-1.5c0-.828-.672-1.5-1.5-1.5s-1.5,.672-1.5,1.5,.672,1.5,1.5,1.5,1.5-.672,1.5-1.5Zm3.681-.994l-6.593,5.806c-.644-.189-1.348-.312-2.089-.312-3.107,0-5.563,2.162-5.666,2.254l1.33,1.493c.02-.018,2.005-1.748,4.336-1.748s4.316,1.73,4.336,1.748l.013-.014,.025,.036,1.793-1.718-1.262-1.433,1.5-1.322,1.263,1.434,1.646-1.45-1.277-1.45,1.5-1.322,1.277,1.451,.512-.451c.828-.73,.909-1.994,.179-2.823-.731-.83-1.993-.91-2.823-.179Zm-8.681,13.494h0c-5.514,0-10-4.486-10-10S6.482,2,11.996,2h0c3.446,0,6.491,1.752,8.289,4.412,.667-.318,1.394-.444,2.111-.373C20.324,2.437,16.443,0,11.996,0h0C5.379,0-.004,5.383-.004,12s5.383,12,12,12h0c6.039,0,11.036-4.489,11.866-10.302l-2.775,2.444c-1.579,3.451-5.055,5.858-9.091,5.858Z"/></svg>
