<?xml version="1.0" encoding="UTF-8"?>
<svg xmlns="http://www.w3.org/2000/svg" id="Layer_1" data-name="Layer 1" viewBox="0 0 24 24" width="512" height="512"><path d="M12,0C5.383,0,0,5.383,0,12s5.383,12,12,12,12-5.383,12-12S18.617,0,12,0Zm9,9v2c0,.552-.448,1-1,1h-4c-.552,0-1-.448-1-1v-2c0-.552,.448-1,1-1h4c.552,0,1,.448,1,1ZM12,2c3.264,0,6.168,1.573,7.995,4h-3.995c-1.304,0-2.415,.836-2.828,2h-2.344c-.413-1.164-1.524-2-2.828-2h-3.995c1.826-2.427,4.73-4,7.995-4ZM3,9c0-.552,.448-1,1-1h4c.552,0,1,.448,1,1v2c0,.552-.448,1-1,1H4c-.552,0-1-.448-1-1v-2Zm9,13c-5.07,0-9.272-3.794-9.914-8.692,.52,.432,1.187,.692,1.914,.692h4c1.654,0,3-1.346,3-3v-1h2v1c0,1.654,1.346,3,3,3h4c.727,0,1.395-.26,1.914-.692-.643,4.898-4.844,8.692-9.914,8.692Zm4.336-6.747l1.33,1.493c-.103,.092-2.559,2.254-5.666,2.254s-5.563-2.162-5.666-2.254l1.33-1.493c.02,.017,2.005,1.747,4.336,1.747s4.316-1.73,4.336-1.747Zm1.164-4.253c-.552,0-1-.448-1-1s.448-1,1-1,1,.448,1,1-.448,1-1,1Zm-11,0c-.552,0-1-.448-1-1s.448-1,1-1,1,.448,1,1-.448,1-1,1Z"/></svg>
