<?xml version="1.0" encoding="UTF-8"?>
<svg xmlns="http://www.w3.org/2000/svg" id="Layer_1" data-name="Layer 1" viewBox="0 0 24 24" width="512" height="512"><path d="m12,0C5.383,0,0,5.383,0,12s5.383,12,12,12,12-5.383,12-12S18.617,0,12,0Zm0,22c-5.514,0-10-4.486-10-10S6.486,2,12,2s10,4.486,10,10-4.486,10-10,10Zm5-8.75v-2.5c0-2.757-2.243-5-5-5s-5,2.243-5,5v2.5c0,2.757,2.243,5,5,5,1.082,0,2.085-.346,2.904-.932l1.139,1.139,1.414-1.414-1.19-1.19c.465-.759.733-1.65.733-2.603Zm-5,3c-1.654,0-3-1.346-3-3v-2.5c0-1.654,1.346-3,3-3s3,1.346,3,3v2.5c0,.395-.078.773-.217,1.119l-1.576-1.576-1.414,1.414,1.664,1.664c-.432.241-.929.379-1.457.379Z"/></svg>
