<?xml version="1.0" encoding="UTF-8"?>
<svg xmlns="http://www.w3.org/2000/svg" id="Layer_1" data-name="Layer 1" viewBox="0 0 24 24" width="512" height="512"><path d="M24,12c0,3.075-1.173,5.874-3.081,8h-2.919v-.019c2.423-1.827,4-4.719,4-7.981,0-5.514-4.486-10-10-10S2,6.486,2,12c0,1.44,.322,2.801,.874,4.038-.125-.013-.246-.038-.374-.038-.597,0-1.151,.164-1.643,.427-.55-1.37-.857-2.862-.857-4.427C0,5.383,5.383,0,12,0s12,5.383,12,12Zm-7.625-5.781l-3.476,2.781,3.476,2.781,1.249-1.562-1.524-1.219,1.524-1.219-1.249-1.562ZM7.625,11.781l3.476-2.781-3.476-2.781-1.249,1.562,1.524,1.219-1.524,1.219,1.249,1.562Zm10.375,10.219h1v2H5v-2h1c1.103,0,2-.897,2-2v-3.369c-.775,.566-1.282,1.065-1.294,1.077l-1.413-1.415c.134-.135,3.332-3.293,6.707-3.293s6.573,3.158,6.707,3.293l-1.413,1.415c-.012-.012-.519-.51-1.294-1.077v3.369c0,1.103,.897,2,2,2Zm-3.463,0c-.341-.589-.537-1.272-.537-2v-4.537c-.644-.276-1.328-.463-2-.463s-1.356,.187-2,.463v4.537c0,.728-.195,1.411-.537,2h5.073ZM2.5,18c-.828,0-1.5,.672-1.5,1.5s.672,1.5,1.5,1.5,1.5-.672,1.5-1.5-.672-1.5-1.5-1.5Zm20,3c-.828,0-1.5,.672-1.5,1.5s.672,1.5,1.5,1.5,1.5-.672,1.5-1.5-.672-1.5-1.5-1.5Z"/></svg>
