<?xml version="1.0" encoding="UTF-8"?>
<svg xmlns="http://www.w3.org/2000/svg" id="Layer_1" data-name="Layer 1" viewBox="0 0 24 24">
  <path d="m22.934,6.184c.726-.726,1.113-1.73,1.062-2.756-.051-1.025-.538-1.988-1.337-2.641-1.427-1.167-3.613-1.01-4.979.356l-1.393,1.393-.717-.717c-1.171-1.17-3.074-1.169-4.243,0l-4.047,4.047L1.457.043.043,1.457l22.5,22.5,1.414-1.414-8.691-8.691,7.667-7.668Zm-9.082,6.254l-2.32-2.32,4.755-4.755,2.32,2.319-4.755,4.755Zm5.242-9.881c.648-.648,1.658-.745,2.298-.222.367.301.583.725.606,1.193.023.462-.151.915-.479,1.242l-1.499,1.499-2.319-2.319,1.392-1.392Zm-6.353.676c.392-.39,1.025-.388,1.415,0l.717.717-4.755,4.755-1.424-1.424,4.047-4.047Zm-1.847,12.162l1.414,1.414-3.734,3.735c-1.081,1.081-4.023,1.486-5.35,1.616l-1.767,1.767L.043,22.514l1.767-1.767c.131-1.327.535-4.269,1.616-5.35l3.766-3.765,1.414,1.414-3.766,3.765c-.359.36-.722,1.792-.932,3.251,1.461-.211,2.893-.573,3.252-.932l3.734-3.735Z"/>
</svg>
