<?xml version="1.0" encoding="UTF-8"?>
<svg xmlns="http://www.w3.org/2000/svg" id="Layer_1" data-name="Layer 1" viewBox="0 0 24 24">
  <path d="m23.27,4.875c-1.114-1.002-2.68-1.816-4.395-2.301-.407-1.482-1.766-2.574-3.375-2.574-1.493,0-2.771.94-3.273,2.26C2.514,6.921.229,13.83.034,18.833c-.053,1.354.438,2.641,1.384,3.624.943.98,2.263,1.542,3.622,1.542h9.96v-2h-1.987l.035-2.714c0-.245-.015-.486-.042-.724.033-1.314.203-2.791.392-4.074l6.054,9.513h3.549v-2h-2.451l-6.392-10.044c3.059-.227,6.949-1.359,9.275-3.993.798-.903.725-2.288-.163-3.087Zm-7.77-2.875c.827,0,1.5.673,1.5,1.5s-.673,1.5-1.5,1.5-1.5-.673-1.5-1.5.673-1.5,1.5-1.5Zm6.434,4.638c-2.192,2.481-6.182,3.362-8.934,3.362h-.807l-.17.789c-.026.121-.42,1.961-.711,4.163-1.146-1.202-2.761-1.952-4.549-1.952h-1.207c-.359.64-.655,1.307-.89,2h1.836c2.485,0,4.5,2.015,4.5,4.5v2.5h-5.96c-.83,0-1.604-.33-2.181-.929-.564-.587-.858-1.354-.827-2.159.238-6.074,3.73-11.021,10.124-14.379.442,1.427,1.774,2.467,3.344,2.467,1.529,0,2.833-.987,3.308-2.356,1.232.406,2.331,1.005,3.124,1.718.076.068.076.192.001.276Z"/>
</svg>
