<?xml version="1.0" encoding="UTF-8"?>
<svg xmlns="http://www.w3.org/2000/svg" id="Layer_1" data-name="Layer 1" viewBox="0 0 24 24" width="512" height="512"><path d="M12,18v2c-4.41,0-8-3.59-8-8S7.59,4,12,4c3.75,0,6.89,2.59,7.76,6.08-.25-.04-.5-.08-.76-.08-.45,0-.87,.08-1.28,.19-.77-2.42-3.04-4.19-5.72-4.19-3.31,0-6,2.69-6,6s2.69,6,6,6ZM21,0H3C1.35,0,0,1.35,0,3V24H12v-2H2V3c0-.55,.45-1,1-1H21c.55,0,1,.45,1,1V11.03c1.21,.91,2,2.35,2,3.97V3c0-1.65-1.35-3-3-3Zm0,19h-4c-1.65,0-3,1.35-3,3v2h2v-2c0-.55,.45-1,1-1h4c.55,0,1,.45,1,1v2h2v-2c0-1.65-1.35-3-3-3ZM12,10.5c-.83,0-1.5,.67-1.5,1.5s.67,1.5,1.5,1.5,1.5-.67,1.5-1.5-.67-1.5-1.5-1.5Zm7,1.5c1.65,0,3,1.35,3,3s-1.35,3-3,3-3-1.35-3-3,1.35-3,3-3Z"/></svg>
