<?xml version="1.0" encoding="UTF-8"?>
<svg xmlns="http://www.w3.org/2000/svg" id="Layer_1" data-name="Layer 1" viewBox="0 0 24 24">
  <path d="m23.679,16.697c-.451.804-1.312,1.303-2.247,1.303h-.846l-1.321-2h2.167c.311,0,.456-.197.503-.282.052-.092.119-.277-.009-.488L14,3.608l-1.483,2.175-1.191-1.803L14,.059l9.606,14.087c.501.821.519,1.759.073,2.552Zm-4.064,3.461c.493.809.51,1.746.064,2.539-.451.804-1.312,1.303-2.247,1.303H2.568c-.935,0-1.795-.499-2.247-1.303-.446-.793-.429-1.73.045-2.509L10,5.603l9.614,14.556Zm-8.17,1.842l-1.444-2.186-1.444,2.186h2.888Zm6.482-.771l-7.926-11.998-7.933,12.01c-.119.206-.053.387-.002.477.047.085.192.282.503.282h3.592l3.841-5.814,3.841,5.814h3.592c.311,0,.456-.197.503-.282.052-.092.119-.277-.009-.488Z"/>
</svg>
