<?xml version="1.0" encoding="UTF-8"?>
<svg xmlns="http://www.w3.org/2000/svg" id="Layer_1" data-name="Layer 1" viewBox="0 0 24 24">
  <path d="m22.536,1.465c-1.949-1.949-5.122-1.949-7.071,0L4.228,12.701c-1.597,1.596-1.281,5.22-1.067,6.724L.033,22.553l1.414,1.414,3.128-3.128c.572.081,1.451.178,2.408.178,1.559,0,3.327-.255,4.316-1.245l11.236-11.236c.944-.944,1.464-2.199,1.464-3.535s-.52-2.591-1.464-3.535Zm-1.414,5.656l-11.236,11.236c-.719.719-3.019.75-4.777.534-.209-1.731-.178-4.065.534-4.776l1.247-1.247,2.262,2.262,1.414-1.414-2.262-2.262,2.227-2.227,2.262,2.263,1.414-1.414-2.262-2.263,2.288-2.288,2.262,2.262,1.414-1.414-2.262-2.262,1.232-1.232c1.17-1.17,3.073-1.17,4.243,0,.566.566.878,1.319.878,2.121s-.312,1.555-.878,2.121Z"/>
</svg>
