<?xml version="1.0" encoding="UTF-8"?>
<svg xmlns="http://www.w3.org/2000/svg" id="Layer_1" data-name="Layer 1" viewBox="0 0 24 24">
  <path d="m11.998,6.787L2.365,20.188c-.475.777-.491,1.716-.046,2.509.451.804,1.312,1.303,2.247,1.303h14.864c.935,0,1.796-.499,2.247-1.303.445-.793.429-1.731-.088-2.572L11.998,6.787Zm-1.441,15.213l1.443-2.186,1.443,2.186h-2.887Zm9.377-.282c-.047.085-.191.282-.503.282h-3.59l-3.841-5.814-3.841,5.814h-3.593c-.312,0-.456-.197-.503-.282-.05-.088-.114-.263-.005-.464l7.939-11.042,7.927,11.017c.128.211.061.396.009.488Zm3.486-15.312l-3.3,3.299-1.414-1.414,2.291-2.291H2.992l2.302,2.291-1.414,1.414L.581,6.406c-.774-.775-.774-2.037,0-2.812L3.88.295l1.414,1.414-2.291,2.291h18.005l-2.302-2.291,1.414-1.414,3.299,3.298c.774.775.774,2.037,0,2.812Z"/>
</svg>
