<?xml version="1.0" encoding="UTF-8"?>
<svg xmlns="http://www.w3.org/2000/svg" id="Layer_1" data-name="Layer 1" viewBox="0 0 24 24">
  <path d="m23.176,13.271c.048.236.074.48.074.728,0,1.41-.791,2.672-2,3.308-.023,1.509-.945,2.8-2.25,3.373v3.319h-4v-2.236c-.398.144-.817.236-1.25.236-.768,0-1.505-.237-2.125-.671-.619.434-1.356.671-2.125.671-.17,0-.334-.029-.5-.052v2.052h-4v-3.076c-1.692-.345-2.973-1.831-3-3.617C.79,16.671,0,15.41,0,14s.79-2.671,2-3.308c.031-2.041,1.701-3.692,3.75-3.692.36,0,.714.052,1.057.157.699-.728,1.67-1.156,2.692-1.157,0,0,.001,0,.002,0,.525,0,1.032.118,1.5.327v2.515l-.151-.186c-.338-.417-.83-.655-1.349-.655,0,0,0,0,0,0h0c-.624,0-1.188.33-1.506.883l-.502.869-.867-.504c-.281-.164-.576-.247-.875-.247-.965,0-1.75.785-1.75,1.75,0,.117.015.242.045.382l.206.942-.934.24c-.775.199-1.317.893-1.317,1.686s.541,1.487,1.316,1.686l.935.24-.206.942c-.03.14-.045.265-.045.382,0,.965.785,1.75,1.75,1.75.299,0,.593-.083.875-.247l.868-.505.501.87c.318.552.882.882,1.506.882.519,0,1.011-.239,1.349-.655l.775-.954.776.954c.34.417.831.656,1.35.656.624,0,1.188-.33,1.507-.883l.503-.869.867.506c.28.164.574.246.873.247,0,0,0,0,0,0,.965,0,1.75-.785,1.75-1.75,0-.119-.253-1.324-.253-1.324,0,0,1.095-.31,1.175-.344,1.313-.451,2.343-1.251,3.004-2.31ZM14.342,3.303c.125-.124.268-.228.407-.336-.249-.498-.742-.966-1.749-.966V0c1.879,0,2.985.982,3.542,2.109.309-.067.629-.108.958-.108s.648.04.958.108c.557-1.127,1.663-2.109,3.542-2.109v2c-1.007,0-1.5.468-1.749.966.139.109.282.213.407.336,1.927.294,3.342.697,3.342.697-.262,1.062-1.062,1.84-2.036,2.14.01.121.036.237.036.361v3.769c0,2.301-1.725,3.731-4.5,3.731s-4.5-1.43-4.5-3.731v-3.769c0-.124.027-.24.036-.361-.974-.3-1.775-1.078-2.036-2.14,0,0,1.414-.403,3.342-.697Zm5.658,3.199c0-1.378-1.121-2.5-2.5-2.5s-2.5,1.122-2.5,2.5v3.769c0,1.148.841,1.731,2.5,1.731s2.5-.583,2.5-1.731v-3.769Z"/>
</svg>
