<?xml version="1.0" encoding="UTF-8"?>
<svg xmlns="http://www.w3.org/2000/svg" id="Layer_1" data-name="Layer 1" viewBox="0 0 24 24" width="512" height="512"><path d="M7,17c-.552,0-1-.449-1-1V3c0-1.654-1.346-3-3-3H0V2H3c.552,0,1,.449,1,1v13c0,1.439,1.018,2.643,2.371,2.933-.237,.472-.371,1.004-.371,1.567,0,1.93,1.57,3.5,3.5,3.5s3.5-1.57,3.5-3.5c0-.536-.122-1.045-.338-1.5h4.677c-.217,.455-.338,.964-.338,1.5,0,1.93,1.57,3.5,3.5,3.5s3.5-1.57,3.5-3.5c0-.536-.122-1.045-.338-1.5h.338v-2H7Zm4,3.5c0,.827-.673,1.5-1.5,1.5s-1.5-.673-1.5-1.5,.673-1.5,1.5-1.5,1.5,.673,1.5,1.5Zm11,0c0,.827-.673,1.5-1.5,1.5s-1.5-.673-1.5-1.5,.673-1.5,1.5-1.5,1.5,.673,1.5,1.5Zm-1-16.5h-1V2c0-1.103-.897-2-2-2h-4c-1.103,0-2,.897-2,2v2h-1c-1.654,0-3,1.346-3,3V15H24V7c0-1.654-1.346-3-3-3Zm-7-2h4v2h-4V2Zm4,4v7h-4V6h4Zm-8,1c0-.551,.448-1,1-1h1v7h-2V7Zm12,6h-2V6h1c.552,0,1,.449,1,1v6Z"/></svg>
