<?xml version="1.0" encoding="UTF-8"?>
<svg xmlns="http://www.w3.org/2000/svg" id="Layer_1" data-name="Layer 1" viewBox="0 0 24 24">
  <path d="m22.548,23.962l-6.219-6.219c-1.782,1.462-3.995,2.257-6.329,2.257C4.486,20,0,15.514,0,10S4.486,0,10,0c2.292,0,4.4.783,6.088,2.085l-1.308,1.515c-1.335-1-2.987-1.6-4.78-1.6C5.589,2,2,5.589,2,10c0,1.167.257,2.274.709,3.274l5.218-6.262,3.514,3.514L20.237.34l1.514,1.308-10.203,11.814-3.486-3.486-4.245,5.094c1.468,1.788,3.695,2.931,6.183,2.931,2.137,0,4.146-.832,5.657-2.343s2.343-3.52,2.343-5.657c0-.301-.02-.596-.052-.888l1.647-1.907c.259.888.405,1.825.405,2.796,0,2.334-.795,4.547-2.257,6.329l6.219,6.219-1.414,1.414Z"/>
</svg>
