<?xml version="1.0" encoding="UTF-8"?>
<svg xmlns="http://www.w3.org/2000/svg" id="Layer_1" data-name="Layer 1" viewBox="0 0 24 24">
  <path d="m15,19.5c0,.83-.67,1.5-1.5,1.5s-1.5-.67-1.5-1.5.67-1.5,1.5-1.5,1.5.67,1.5,1.5Zm-5.5-1.5c-.83,0-1.5.67-1.5,1.5s.67,1.5,1.5,1.5,1.5-.67,1.5-1.5-.67-1.5-1.5-1.5Zm14.5-8v6h-4v-6h1V3c0-.552-.448-1-1-1h-9c-.551,0-1,.448-1,1v1h5c1.654,0,3,1.346,3,3v17H0V7c0-1.654,1.346-3,3-3h5v-1c0-1.654,1.346-3,3-3h9c1.654,0,3,1.346,3,3v7h1Zm-8,12v-5H2v5h14ZM3,6c-.551,0-1,.448-1,1v8h14V7c0-.552-.448-1-1-1H3Z"/>
</svg>
