<?xml version="1.0" encoding="UTF-8"?>
<svg xmlns="http://www.w3.org/2000/svg" id="Layer_1" data-name="Layer 1" viewBox="0 0 24 24">
  <path d="m15.941,8c.036-.329.059-.662.059-1s-.022-.671-.059-1h1.559c.534,0,1.034.13,1.485.347-.678.256-1.304.644-1.831,1.171l-.482.482h-.731Zm3.059,14H5v-6.231c-.702-.16-1.371-.403-2-.716v8.947h18v-5.672l-2,2v1.672Zm4.068-8.568l-6.569,6.568h-4.5v-4.5l6.568-6.568c1.24-1.24,3.259-1.24,4.5,0,1.24,1.24,1.24,3.26,0,4.5Zm-1.415-3.086c-.46-.461-1.21-.461-1.671,0l-5.982,5.982v1.672h1.671l5.982-5.982c.46-.461.46-1.211,0-1.672Zm-14.653,3.654c-3.86,0-7-3.141-7-7S3.14,0,7,0s7,3.141,7,7-3.14,7-7,7Zm0-2c2.757,0,5-2.243,5-5s-2.243-5-5-5S2,4.243,2,7s2.243,5,5,5Zm3.992-5.882l-1.402-1.426-3.229,3.175-1.63-1.58-1.393,1.436,1.846,1.789c.315.315.733.488,1.179.488s.864-.174,1.172-.482l3.457-3.399Z"/>
</svg>
