<?xml version="1.0" encoding="UTF-8"?>
<svg xmlns="http://www.w3.org/2000/svg" id="Layer_1" data-name="Layer 1" viewBox="0 0 24 24">
  <path d="m19,0H5c-1.654,0-3,1.346-3,3v21h20V3c0-1.654-1.346-3-3-3Zm1,22H4V3c0-.551.448-1,1-1h14c.552,0,1,.449,1,1v19ZM6.5,6c-.828,0-1.5-.672-1.5-1.5s.672-1.5,1.5-1.5,1.5.672,1.5,1.5-.672,1.5-1.5,1.5Zm2.5-1.5c0-.828.672-1.5,1.5-1.5s1.5.672,1.5,1.5-.672,1.5-1.5,1.5-1.5-.672-1.5-1.5Zm3,3.5c-3.309,0-6,2.691-6,6s2.691,6,6,6,6-2.691,6-6-2.691-6-6-6Zm0,2c2.06,0,3.741,1.571,3.957,3.574-.274.193-.708.426-1.229.426-.839,0-1.828-.583-2.136-.807-.167-.122-1.675-1.193-3.319-1.193-.271,0-.522.035-.762.084.681-1.235,1.981-2.084,3.489-2.084Zm0,8c-2.06,0-3.741-1.571-3.957-3.574.274-.193.708-.426,1.229-.426.839,0,1.828.583,2.136.807.167.122,1.675,1.193,3.319,1.193.271,0,.522-.035.762-.084-.681,1.235-1.981,2.084-3.489,2.084Z"/>
</svg>
