<?xml version="1.0" encoding="UTF-8"?>
<svg xmlns="http://www.w3.org/2000/svg" id="Layer_1" data-name="Layer 1" viewBox="0 0 24 24">
  <path d="m24,11v2h-2v2h-2v-2h-2v-2h2v-2h2v2h2Zm-10,4h-3v2h3c1.654,0,3-1.346,3-3,0-.911-.416-1.718-1.059-2.268.349-.49.559-1.086.559-1.732,0-1.654-1.346-3-3-3h-2.5v2h2.5c.552,0,1,.448,1,1s-.448,1-1,1h-1.5v2h2c.552,0,1,.448,1,1s-.448,1-1,1Zm-5,2V7h-1.487l-2.517,2.776,1.482,1.344.521-.576v6.456h2Zm3,5c-5.514,0-10-4.486-10-10S6.486,2,12,2c3.691,0,6.914,2.016,8.647,5h2.248C20.994,2.876,16.831,0,12,0,5.383,0,0,5.383,0,12s5.383,12,12,12c4.831,0,8.994-2.876,10.895-7h-2.248c-1.732,2.984-4.955,5-8.647,5Z"/>
</svg>
