<?xml version="1.0" encoding="UTF-8"?>
<svg xmlns="http://www.w3.org/2000/svg" id="Layer_1" data-name="Layer 1" viewBox="0 0 24 24">
  <path d="m24,11.996c0-2.5-.5-4-.5-4l-2.657,2.362c-.773-4.183-4.44-7.363-8.844-7.363S3.929,6.174,3.156,10.357L.499,7.996s-.499,1.5-.499,4,.499,4,.499,4l2.657-2.361c.774,4.182,4.441,7.361,8.843,7.361s8.07-3.18,8.843-7.362l2.658,2.362s.5-1.5.5-4Zm-19.001,0c0-3.859,3.141-7,7-7,.776,0,1.521.132,2.22.367L5.366,14.215c-.234-.698-.367-1.443-.367-2.219h0s0-.002,0-.002Zm1.329,4.087l9.758-9.758c.61.441,1.145.976,1.586,1.586l-9.758,9.758c-.61-.441-1.145-.976-1.586-1.586Zm5.671,2.914c-.776,0-1.52-.132-2.219-.366l8.852-8.852c.234.698.366,1.443.366,2.219,0,3.859-3.141,7-7,7Z"/>
</svg>
