<?xml version="1.0" encoding="UTF-8"?>
<svg xmlns="http://www.w3.org/2000/svg" id="Layer_1" data-name="Layer 1" viewBox="0 0 24 24" width="512" height="512"><path d="m16.5,2.5c0-1.381,1.119-2.5,2.5-2.5s2.5,1.119,2.5,2.5-1.119,2.5-2.5,2.5-2.5-1.119-2.5-2.5Zm5.5,18.5v3h-2v-3h-2v3h-2v-3h-1.985l1.604-12.255c.205-1.565,1.602-2.745,3.247-2.745h.268c1.646,0,3.042,1.18,3.247,2.744l1.604,12.256h-1.985Zm-5.706-2h5.412l-1.308-9.995c-.077-.582-.608-1.005-1.265-1.005h-.268c-.656,0-1.188.423-1.265,1.006l-1.308,9.994ZM4,5c1.381,0,2.5-1.119,2.5-2.5S5.381,0,4,0,1.5,1.119,1.5,2.5s1.119,2.5,2.5,2.5Zm4,4v9h-1v6h-2v-6h-2v6H1v-6H0v-9c0-1.654,1.346-3,3-3h2c1.654,0,3,1.346,3,3Zm-6,7h4v-7c0-.552-.448-1-1-1h-2c-.552,0-1,.448-1,1v7Zm8,8h2V0h-2v24Z"/></svg>
