<?xml version="1.0" encoding="UTF-8"?>
<svg xmlns="http://www.w3.org/2000/svg" id="Layer_1" data-name="Layer 1" viewBox="0 0 24 24" width="512" height="512"><path d="M21.94,1.71c-.67-.57-1.56-.82-2.44-.67-1.43,.23-2.5,1.55-2.5,3.07v4.07c-.31-.11-.65-.17-1-.17-.77,0-1.47,.29-2,.77-.53-.48-1.23-.77-2-.77-.35,0-.69,.06-1,.17V3.11C11,1.59,9.92,.27,8.5,.04c-.88-.14-1.77,.1-2.44,.67-.67,.57-1.06,1.4-1.06,2.29V11.52l-3.12,3.11c-.57,.57-.88,1.32-.88,2.12s.31,1.55,.88,2.12l5.12,5.12H23V4c0-.88-.39-1.71-1.06-2.29Zm-5.94,8.29c.55,0,1,.45,1,1v2c0,.55-.45,1-1,1s-1-.45-1-1v-2c0-.55,.45-1,1-1Zm-4,0c.55,0,1,.45,1,1v2c0,.55-.45,1-1,1s-1-.45-1-1v-2c0-.55,.45-1,1-1ZM7.35,2.24c.23-.19,.52-.27,.82-.22,.46,.08,.82,.56,.82,1.09v7.97c-.58-.41-1.3-.58-2-.53V3c0-.29,.13-.57,.35-.76Zm13.65,19.76H7.83l-4.54-4.54c-.19-.19-.29-.44-.29-.71s.1-.52,.29-.71l3.25-3.24c.38-.38,1.04-.38,1.41,0,.19,.19,.29,.44,.29,.71s-.1,.52-.29,.71l-2.21,2.21,1.41,1.41,2.21-2.21c.18-.17,.33-.37,.45-.57,.55,.58,1.32,.94,2.18,.94,.77,0,1.47-.29,2-.77,.53,.48,1.23,.77,2,.77,1.65,0,3-1.35,3-3V4.11c0-.54,.36-1.02,.82-1.09,.3-.05,.6,.03,.82,.22,.22,.19,.35,.47,.35,.76V22Z"/></svg>
