<?xml version="1.0" encoding="UTF-8"?>
<svg xmlns="http://www.w3.org/2000/svg" id="Layer_1" data-name="Layer 1" viewBox="0 0 24 24">
  <path d="m16.867,15.981l5.222-8h1.911l-5.222,8h-1.911Zm-4.867,6.019h0c-5.514,0-10-4.487-10-10S6.485,2,11.999,2c0,0,0,0,0,0,3.27,0,6.17,1.585,7.995,4.019h2.393C20.312,2.428,16.438,0,12,0h0c-6.617,0-12,5.383-12,12s5.383,11.999,11.999,12c0,0,0,0,.001,0,4.422,0,8.283-2.411,10.365-5.981h-2.398c-1.827,2.413-4.714,3.981-7.967,3.981Zm7.5-12.769c0-.69-.56-1.25-1.25-1.25s-1.25.56-1.25,1.25.56,1.25,1.25,1.25,1.25-.56,1.25-1.25Zm-6-1.231c1.381,0,2.5,1.119,2.5,2.5v3c0,1.381-1.119,2.5-2.5,2.5s-2.5-1.119-2.5-2.5v-3c0-1.381,1.119-2.5,2.5-2.5Zm0,1.6c-.496,0-.9.404-.9.9v3c0,.496.404.9.9.9s.9-.404.9-.9v-3c0-.496-.404-.9-.9-.9Zm-6.9.9v.674c.28-.108.582-.174.9-.174,1.466,0,2.637,1.261,2.487,2.758-.13,1.301-1.322,2.242-2.63,2.242s-2.357-1.055-2.357-2.357v-3.143c0-1.381,1.119-2.5,2.5-2.5h2v1.6h-2c-.497,0-.9.403-.9.9Zm0,3c0,.372.227.692.55.829.108.046.226.071.35.071.496,0,.9-.404.9-.9s-.404-.9-.9-.9-.9.404-.9.9Zm16.15-.019c-.69,0-1.25.56-1.25,1.25s.56,1.25,1.25,1.25,1.25-.56,1.25-1.25-.56-1.25-1.25-1.25Z"/>
</svg>
