<?xml version="1.0" encoding="UTF-8"?>
<svg xmlns="http://www.w3.org/2000/svg" id="Layer_1" data-name="Layer 1" viewBox="0 0 24 24">
  <path d="m19.979.793l-.707-.707L.086,19.272l.707.707c2.645,2.645,6.119,3.967,9.593,3.967s6.948-1.322,9.593-3.967c2.562-2.562,3.974-5.969,3.974-9.593s-1.411-7.03-3.974-9.593Zm-8.979,11.621l6.823,6.824c-1.977,1.664-4.383,2.559-6.823,2.687v-9.511Zm1.414-1.414h9.508c-.132,2.525-1.062,4.898-2.685,6.823l-6.823-6.823Zm9.446-2h-8.675l6.055-6.056c1.458,1.728,2.354,3.82,2.619,6.056Zm-12.86,4.186v8.67c-2.173-.26-4.287-1.126-6.056-2.614l6.056-6.056Z"/>
</svg>
