<?xml version="1.0" encoding="UTF-8"?>
<svg xmlns="http://www.w3.org/2000/svg" id="Layer_1" data-name="Layer 1" viewBox="0 0 24 24">
  <path d="m17,10.5c0,.828-.672,1.5-1.5,1.5s-1.5-.672-1.5-1.5.672-1.5,1.5-1.5,1.5.672,1.5,1.5Zm-8.5-1.5c-.828,0-1.5.672-1.5,1.5s.672,1.5,1.5,1.5,1.5-.672,1.5-1.5-.672-1.5-1.5-1.5Zm10.938-4.019l2.328,6.174c.672,1.917-.183,4.023-1.979,4.922l-1.928.683-1.552,7.241H7.691l-1.552-7.241-1.928-.683c-1.796-.898-2.65-3.005-1.986-4.899l2.337-6.196C2.009,4.758,0,2.609,0,0h2c0,1.654,1.346,3,3,3h14c1.654,0,3-1.346,3-3h2c0,2.609-2.009,4.758-4.562,4.981Zm.448,6.856l-2.578-6.837H6.691l-2.587,6.859c-.317.907.087,1.938.951,2.401l2.805.98,1.448,6.759h5.383l1.448-6.759,2.805-.98c.863-.463,1.269-1.494.942-2.424Z"/>
</svg>
