<?xml version="1.0" encoding="UTF-8"?>
<svg xmlns="http://www.w3.org/2000/svg" id="Layer_1" data-name="Layer 1" viewBox="0 0 24 24">
  <path d="m20,13.33v-3.33h2v-2c-2.718,0-3.989-5.896-4-5.949V0h-2v2h-8s0-2,0-2h-2v2.016c-.011.052-1.205,5.984-4,5.984v2h2v3.075c-.154,1.744-1.799,5.925-4,5.925v2h2v3h2v-3h4v3h2v-3h4v3h2v-3h4v3h2v-3h2v-2c-2.208,0-3.641-3.782-4-5.67ZM7.576,4h8.848c.291.976.907,2.662,1.955,4H5.622c1.048-1.338,1.663-3.024,1.955-4Zm10.424,6v3H6v-3h12ZM3.625,19c1.051-1.338,1.67-3.025,1.962-4h12.78c.3.973.932,2.661,1.994,4H3.625Z"/>
</svg>
