<?xml version="1.0" encoding="UTF-8"?>
<svg xmlns="http://www.w3.org/2000/svg" id="Layer_1" data-name="Layer 1" viewBox="0 0 24 24" width="512" height="512"><path d="m23.122.867c-1.134-1.133-3.11-1.133-4.243,0L0,19.746v2.223s2.809.028,3.04.019c3.603-.143,7.189-1.825,9.751-4.387l.758-2.92,9.572-9.571c1.17-1.17,1.17-3.072,0-4.242Zm-12.128,15.698c-2.182,2.091-5.024,3.305-8.033,3.424-.112.004-.243.007-.384.009l7.037-7.036,1.865,1.74-.484,1.863ZM21.707,3.695l-9.216,9.216-1.463-1.364L20.293,2.281c.377-.379,1.036-.379,1.414,0,.39.39.39,1.024,0,1.414Zm-7.707,18.305h4v2h-4v-2Zm-6,0h4v2h-4v-2Zm16,0v2h-4v-2h4Z"/></svg>
