<?xml version="1.0" encoding="UTF-8"?>
<svg xmlns="http://www.w3.org/2000/svg" id="Layer_1" data-name="Layer 1" viewBox="0 0 24 24">
  <path d="m22.586,6.664c-1.787-.858-2.914-2.172-3.347-3.907l-.239-.757V0c-1.426,0-2.618.995-2.924,2.328-3.168,1.039-4.076,4.3-4.076,6.172v.5h-4.006c-1.259,0-2.385.586-3.119,1.5-2.67,1.141-4.875,2.817-4.875,8.5h2c0-2.796.671-4.748,1.997-5.83.048,1.495.691,3.047,1.261,4.422.224.54.438,1.054.582,1.492l-.68,4.916h6.006l.615-4h1.219v4h6v-5.395l.384-1.811c.417-1.46.616-2.416.616-3.896v-2.016l4-.5v-1.467c0-.956-.555-1.84-1.414-2.251Zm-12.586,11.759l-.55,3.577h-1.994l.425-3.076s-.495-1.423-.775-2.098c-.521-1.257-1.112-2.681-1.112-3.83.002-1.101.899-1.996,2-1.996h.006v2c0,1.304.836,2.415,2,2.828v2.595Zm1-4.423c-.551,0-1-.449-1-1v-2h2v2c0,.551-.449,1-1,1Zm7-4.883v3.782c0,1.25-.166,2.042-.555,3.412l-.423,1.98-.022,3.709h-2v-4h-3v-2.172c1.164-.413,2-1.524,2-2.828v-4.5c0-.172.043-3.991,3.545-4.454.706,1.924,2.136,3.442,4.176,4.421.078.038.143.094.19.162l-3.911.489Z"/>
</svg>
