<?xml version="1.0" encoding="UTF-8"?>
<svg xmlns="http://www.w3.org/2000/svg" id="Layer_1" data-name="Layer 1" viewBox="0 0 24 24">
  <path d="m21,11.538c1.719-.584,3-1.737,3-3.538,0-2.446-2.337-6-6-6-.102,0-.203.003-.303.009-.935-.325-6.06-2.009-11.697-2.009v2c2.963,0,5.825.511,7.908,1.009-.115.053-.23.107-.346.161-1.835.857-3.914,1.83-7.562,1.83v2c3.296,0,5.489-.726,7.223-1.478-.145.467-.223.964-.223,1.478,0,.571.097,1.12.274,1.632C5.154,10.764,3.453,17.618,3.098,20.329c-.315-.208-.692-.329-1.098-.329-1.105,0-2,.895-2,2s.895,2,2,2h22v-2h-3v-10.462Zm1-3.538c0,1.468-2.392,2-4,2-1.654,0-3-1.346-3-3s1.346-3,3-3c2.481,0,4,2.59,4,4Zm-7.638,2.426c.912.968,2.206,1.574,3.638,1.574.334,0,.669-.016,1-.047v10.047h-2v-1c0-3.309-2.691-6-6-6v2c2.206,0,4,1.794,4,4v1H5.002l.002-.548c.001-.37.146-8.981,9.358-11.026Z"/>
</svg>
