<?xml version="1.0" encoding="UTF-8"?>
<svg xmlns="http://www.w3.org/2000/svg" id="Layer_1" data-name="Layer 1" viewBox="0 0 24 24" width="512" height="512"><path d="M23.017,8.785c-.595-.542-1.362-.815-2.168-.782-.804,.038-1.544,.387-2.086,.981l-3.216,3.534c-.551-.909-1.55-1.519-2.689-1.519H3c-1.654,0-3,1.346-3,3v7c0,1.654,1.346,3,3,3H13.448l9.788-10.985c1.093-1.227,.994-3.124-.219-4.229Zm-1.274,2.899l-9.191,10.315H3c-.551,0-1-.448-1-1v-7c0-.552,.449-1,1-1H12.858c.63,0,1.142,.513,1.142,1.143,0,.564-.421,1.051-.981,1.13l-5.161,.737,.283,1.98,5.16-.737c1.175-.168,2.13-.987,2.515-2.059l4.426-4.864c.182-.199,.43-.316,.7-.329,.272-.011,.528,.081,.728,.263,.407,.371,.44,1.009,.073,1.421Zm-13.243-2.688c.935,0,1.814-.364,2.475-1.025h0c1.365-1.365,1.364-3.586-.008-4.958L8.5,.602l-2.475,2.42c-1.365,1.364-1.365,3.586,0,4.95,.661,.661,1.54,1.025,2.475,1.025Zm-1.068-4.554l1.068-1.045,1.061,1.037c.585,.585,.585,1.537,0,2.122h0c-.565,.566-1.554,.566-2.121,0-.585-.585-.585-1.537-.008-2.114Z"/></svg>
