<?xml version="1.0" encoding="UTF-8"?>
<svg xmlns="http://www.w3.org/2000/svg" id="Layer_1" data-name="Layer 1" viewBox="0 0 24 24">
  <path d="m20.637,3.223L17.406-.008,6.571,0l-3.209,3.223L0,5.465v18.535h9.172l-2-2H2V6.535l1.873-1.248,6.075,6.075-1.918,8.582,3.971,3.971,3.971-3.971-1.918-8.582,6.075-6.075,1.873,1.248v15.465h-5.172l-2,2h9.172V5.465l-3.363-2.242Zm-6.055-1.229l-2.583,2.591-2.594-2.587,5.178-.004ZM5.413,3.999l1.577-1.583,3.793,3.783-1.057,2.114L5.413,3.999Zm6.587,17.087l-1.779-1.779,1.779-7.959,1.779,7.959-1.779,1.779Zm2.274-12.774l-1.058-2.116,3.777-3.789,1.593,1.592-4.312,4.312Z"/>
</svg>
