<?xml version="1.0" encoding="UTF-8"?>
<svg xmlns="http://www.w3.org/2000/svg" id="Layer_1" data-name="Layer 1" viewBox="0 0 24 24">
  <path d="m20.161,11.234l3.83-3.83-1.414-1.414-4.13,4.13c-.725-.423-1.492-.798-2.165-.987l7.676-7.676L22.543.043l-7.676,7.676c-.191-.681-.573-1.458-1.002-2.19l4.125-4.125L16.576-.01l-3.826,3.826c-.179-.252-.341-.476-.451-.622l-.799-1.063-.799,1.063c-.484.643-1.8,2.471-2.396,4.008-.002-.002-.004-.006-.006-.008l-.799-1.063-.799,1.063c-.484.643-1.8,2.471-2.396,4.008-.002-.002-.004-.006-.006-.008l-.799-1.063-.799,1.063c-.634.842-2.701,3.715-2.701,5.306,0,1.24,1.083,3.249,1.736,4.35L.043,22.543l1.414,1.414,1.693-1.693c1.101.653,3.11,1.736,4.35,1.736,1.591,0,4.464-2.067,5.306-2.701l1.063-.799-1.063-.799s-.006-.004-.008-.006c1.537-.596,3.365-1.912,4.008-2.396l1.063-.799-1.063-.799s-.006-.004-.008-.006c1.537-.596,3.365-1.912,4.008-2.396l1.063-.799-1.063-.799c-.151-.113-.383-.282-.645-.467Zm-8.661-5.705c.815,1.229,1.5,2.497,1.5,2.971,0,.515-.199,1.077-.581,1.667l-1.219,1.219c-.651-1.162-1.2-2.379-1.2-2.886,0-.474.685-1.741,1.5-2.971Zm-4,4c.815,1.229,1.5,2.497,1.5,2.971,0,.515-.199,1.077-.581,1.667l-1.219,1.219c-.651-1.162-1.2-2.379-1.2-2.886,0-.474.685-1.741,1.5-2.971Zm-5.5,6.971c0-.474.685-1.741,1.5-2.971.815,1.229,1.5,2.497,1.5,2.971,0,.515-.199,1.077-.581,1.667l-1.219,1.219c-.651-1.162-1.2-2.379-1.2-2.886Zm5.5,5.5c-.507,0-1.724-.549-2.886-1.2l1.219-1.219c.59-.382,1.152-.581,1.667-.581.474,0,1.741.685,2.971,1.5-1.229.815-2.497,1.5-2.971,1.5Zm4-4c-.507,0-1.724-.549-2.886-1.2l1.219-1.219c.59-.382,1.152-.581,1.667-.581.474,0,1.741.685,2.971,1.5-1.229.815-2.497,1.5-2.971,1.5Zm4-4c-.507,0-1.724-.549-2.886-1.2l1.219-1.219c.59-.382,1.152-.581,1.667-.581.474,0,1.741.685,2.971,1.5-1.229.815-2.497,1.5-2.971,1.5Z"/>
</svg>
