<?xml version="1.0" encoding="UTF-8"?>
<svg xmlns="http://www.w3.org/2000/svg" id="Layer_1" data-name="Layer 1" viewBox="0 0 24 24">
  <path d="m14,6c0-3.309-2.691-6-6-6S2,2.691,2,6s2.691,6,6,6,6-2.691,6-6Zm-6,4c-2.206,0-4-1.794-4-4s1.794-4,4-4,4,1.794,4,4-1.794,4-4,4Zm-3.5,4h2.5v2h-2.5c-1.378,0-2.5,1.122-2.5,2.5v5.5H0v-5.5c0-2.481,2.019-4.5,4.5-4.5Zm15,3.4h-.9v-1.8h.9c.496,0,.9.404.9.9s-.404.9-.9.9Zm1.5-5.4h-9c-1.657,0-3,1.343-3,3v9h15v-9c0-1.657-1.343-3-3-3Zm-5,10h-1.6v-3.205h-1.8v3.205h-1.6v-8h1.6v3.195h1.8v-3.195h1.6v8Zm4.988-3.491c-.018.012-.018.012-.042.029l1.054,3.462h-1.744l-.872-3h-.784v3h-1.6v-8h2.5c1.381,0,2.5,1.119,2.5,2.5,0,.846-.423,1.592-1.067,2.044.024-.014.036-.023.055-.035Z"/>
</svg>
