<?xml version="1.0" encoding="UTF-8"?>
<svg xmlns="http://www.w3.org/2000/svg" id="Layer_1" data-name="Layer 1" viewBox="0 0 24 24" width="512" height="512"><path d="m3,13H0v-2h3v-3h2v3h3v2h-3v3h-2v-3Zm14.158,10.973l-2.158-10.623v10.65H3v-6h2v4h3v-7h2v2h3V7h-3v2h-2V2h-2c-.552,0-1,.449-1,1v3h-2v-3c0-1.654,1.346-3,3-3h6c.821,0,1.565.331,2.107.867.367-.298.802-.507,1.279-.607l.979-.204c1.62-.339,3.211.705,3.549,2.325l4.097,20.164-6.853,1.428Zm4.497-2.98l-.555-2.734-2.937.612.556,2.734,2.937-.612Zm-2.9-14.275l-2.938.612,1.947,9.581,2.937-.612-1.946-9.581Zm-3.594-4.069c-.096.146-.238.447-.143.752l.4,1.969,2.938-.612-.401-1.974c-.098-.467-.515-.792-.978-.792-.068,0-1.185.226-1.185.226-.262.054-.486.208-.633.431Zm-2.161,2.351v-2c0-.551-.448-1-1-1h-2v3h3Zm0,17v-3h-3v3h3Z"/></svg>
