<?xml version="1.0" encoding="UTF-8"?>
<svg xmlns="http://www.w3.org/2000/svg" id="Layer_1" data-name="Layer 1" viewBox="0 0 24 24">
  <path d="m13,6v5.312l4.163,2.553-1.045,1.705-5.118-3.139v-6.432h2Zm-1,16c-5.514,0-10-4.486-10-10S6.486,2,12,2c3.191,0,6.112,1.506,7.982,4h-3.982v2h5c1.103,0,2-.897,2-2V1h-2v3.065C18.754,1.51,15.51,0,12,0,5.383,0,0,5.383,0,12s5.383,12,12,12c.465,0,.935-.027,1.397-.081l-.23-1.986c-.387.045-.779.067-1.167.067Zm8.551-4.812l1.711,1.037c.378-.624.7-1.283.957-1.957l-1.869-.713c-.214.562-.482,1.112-.799,1.633Zm1.449-5.188c0,.607-.055,1.216-.163,1.81l1.967.359c.13-.711.196-1.441.196-2.169h-2Zm-3.853,7.888l1.229,1.578c.571-.445,1.106-.946,1.59-1.489l-1.494-1.33c-.403.453-.849.871-1.324,1.241Zm-3.205,1.673l.588,1.912c.692-.213,1.371-.491,2.016-.828l-.926-1.773c-.537.281-1.102.513-1.678.689Z"/>
</svg>
