<?xml version="1.0" encoding="UTF-8"?>
<svg xmlns="http://www.w3.org/2000/svg" id="Layer_1" data-name="Layer 1" viewBox="0 0 24 24" width="512" height="512"><path d="m24,11v2h-3.565l-2.277-3.782-1.952,4.737-1.716-1.085,2.006-4.869h-1.88l-2.064,5.033c-.185.449-.02.964.392,1.225l5.047,3.191v6.551h-2v-5.449l-4.117-2.604c-1.232-.78-1.725-2.325-1.172-3.674l1.753-4.273h-1.836l-1.724,3.447-1.789-.895,2.276-4.553h7.478c1.046,0,2.031.557,2.57,1.453l2.135,3.547h2.435Zm-6-6c1.381,0,2.5-1.119,2.5-2.5s-1.119-2.5-2.5-2.5-2.5,1.119-2.5,2.5,1.119,2.5,2.5,2.5Zm-8.175,11.801l-.494,1.199H3.671c-.193,1.568-.442,2.706-.671,3.393-.46-1.373-1-4.546-1-9.393s.54-8.022,1-9.394c.46,1.372,1,4.545,1,9.394,0,1.494-.051,2.828-.136,4h2.01c.099-1.519.126-2.96.126-4,0-3.608-.292-12-3-12S0,8.392,0,12s.292,12,3,12c1.237,0,1.966-1.754,2.396-4h5.273l.8-1.942-.665-.421c-.374-.236-.691-.526-.98-.837Z"/></svg>
