<?xml version="1.0" encoding="UTF-8"?>
<svg xmlns="http://www.w3.org/2000/svg" id="Layer_1" data-name="Layer 1" viewBox="0 0 24 24" width="512" height="512"><path d="m23.361,2.152c-.492-.632-1.202-1.034-1.998-1.132-.616-.075-1.23.039-1.77.325-.468-.707-1.229-1.213-2.135-1.325-1.647-.198-3.142.971-3.344,2.609l-.388,3.106-1.13-3.558c-.455-1.591-2.119-2.519-3.708-2.062-1.002.286-1.738,1.052-2.031,1.986-.529-.158-1.104-.178-1.672-.015-1.591.454-2.516,2.117-2.049,3.751l2.508,7.493-.6-.524c-1.207-1.127-3.108-1.062-4.236.144-1.129,1.208-1.066,3.11.129,4.231l7.072,6.818h13.97l1.993-19.634c.099-.796-.119-1.582-.612-2.214Zm-3.188,19.848h-11.356l-6.5-6.267c-.403-.377-.424-1.013-.047-1.417.375-.4,1.007-.423,1.436-.024l4.192,3.551.921-1.333-3.771-11.263c-.151-.531.157-1.085.688-1.236.528-.154,1.084.157,1.252.74l2.163,6.25h2.12l-2.518-7.725c-.151-.531.157-1.085.688-1.236.525-.152,1.085.155,1.244.715l2.613,8.246h1.775l1.029-8.125c.067-.546.55-.946,1.115-.87.547.067.938.568.87,1.115l-.973,7.88h2.015l.888-7.193c.046-.237.175-.447.367-.597.211-.165.469-.24.737-.205.265.033.502.167.666.377s.236.473.201.759l-1.812,17.858Z"/></svg>
