<?xml version="1.0" encoding="UTF-8"?>
<svg xmlns="http://www.w3.org/2000/svg" id="Layer_1" data-name="Layer 1" viewBox="0 0 24 24" width="512" height="512"><path d="m.912,6.031C.252,5.27-.059,4.336.009,3.37c.069-.967.509-1.847,1.24-2.48C1.981.256,2.909-.052,3.881.015c.965.069,1.846.509,2.479,1.24l3.843,4.574-1.419,1.419-3.945-4.696c-.273-.315-.667-.512-1.1-.542-.438-.028-.853.107-1.179.39-.328.284-.525.679-.556,1.111-.031.434.108.852.391,1.178l4.338,4.609-1.414,1.414L.912,6.031Zm23.135,17.969h-6.352c-2.168,0-4.688-1.966-4.688-4.5,0-2.355,2.145-4.5,4.5-4.5,4.276,0,5.643,5.435,6.227,7.756l.313,1.244Zm-2.587-2c-.766-2.637-1.881-5-3.953-5-1.132,0-2.5,1.115-2.5,2.5,0,1.323,1.503,2.5,2.688,2.5h3.764Zm1.487-15.816L5.13,24H.007v-5.124L17.823,1.06c1.367-1.367,3.758-1.366,5.123,0h.001c.683.685,1.059,1.594,1.059,2.562s-.376,1.879-1.061,2.562Zm-5.402,2.573l-2.296-2.296L2.007,19.705v2.295h2.295l13.242-13.242Zm4.462-5.135c0-.434-.168-.842-.474-1.148-.612-.611-1.684-.611-2.295,0l-2.574,2.574,2.296,2.296,2.574-2.574c.306-.306.474-.713.474-1.147Z"/></svg>
