<?xml version="1.0" encoding="UTF-8"?>
<svg xmlns="http://www.w3.org/2000/svg" id="Layer_1" data-name="Layer 1" viewBox="0 0 24 24" width="512" height="512"><path d="m12,0C5.383,0,0,5.383,0,12s5.383,12,12,12,12-5.383,12-12S18.617,0,12,0Zm0,22c-5.514,0-10-4.486-10-10S6.486,2,12,2s10,4.486,10,10-4.486,10-10,10Zm3.516-10.816c.308-.532.484-1.15.484-1.809,0-1.999-1.626-3.625-3.625-3.625h-2.875c-1.378,0-2.5,1.122-2.5,2.5v7.5c0,1.378,1.122,2.5,2.5,2.5h4.875c1.999,0,3.625-1.626,3.625-3.625,0-1.601-1.043-2.962-2.484-3.441Zm-6.516-2.934c0-.276.224-.5.5-.5h2.875c.896,0,1.625.729,1.625,1.625s-.729,1.625-1.625,1.625h-3.375v-2.75Zm5.375,8h-4.875c-.276,0-.5-.224-.5-.5v-2.75h5.375c.896,0,1.625.729,1.625,1.625s-.729,1.625-1.625,1.625Z"/></svg>
