<?xml version="1.0" encoding="UTF-8"?>
<svg xmlns="http://www.w3.org/2000/svg" id="Layer_1" data-name="Layer 1" viewBox="0 0 24 24">
  <path d="m21,0H3C1.346,0,0,1.346,0,3v17h6.923l3.749,3.156c.382.34.861.509,1.337.508.468,0,.931-.162,1.292-.484l3.847-3.18h6.853V3c0-1.654-1.346-3-3-3Zm1,18h-5.571l-4.448,3.645-4.327-3.645H2V3c0-.552.448-1,1-1h18c.552,0,1,.448,1,1v15ZM12.876,4.18c-1.313-.55-2.651.221-2.937,1.458l-2.439,10.362h2.053l.706-3h3.481l.706,3h2.053l-2.422-10.291c-.154-.662-.575-1.266-1.202-1.528Zm-2.145,6.82l1.156-4.91c.012-.053.059-.09.113-.09s.101.037.113.09l1.156,4.91h-2.539Z"/>
</svg>
