<?xml version="1.0" encoding="UTF-8"?>
<svg xmlns="http://www.w3.org/2000/svg" id="Layer_1" data-name="Layer 1" viewBox="0 0 24 24" width="512" height="512"><path d="M23.854,22.479l-4.541-7.431c1.092-.628,2.12-1.408,3.052-2.34l-1.414-1.414c-.818,.818-1.722,1.499-2.682,2.046l-3.042-4.977c.486-.662,.774-1.479,.774-2.362,0-1.86-1.276-3.428-3-3.873V0h-2V2.127c-1.724,.445-3,2.013-3,3.873,0,.883,.288,1.699,.774,2.362l-3.042,4.977c-.96-.547-1.864-1.228-2.682-2.046l-1.414,1.414c.932,.932,1.96,1.712,3.052,2.34L.146,22.479l1.707,1.043,4.642-7.595c1.761,.711,3.633,1.066,5.505,1.066s3.744-.355,5.505-1.066l4.642,7.595,1.707-1.043ZM12,4c1.103,0,2,.897,2,2s-.897,2-2,2-2-.897-2-2,.897-2,2-2ZM7.555,14.192l2.783-4.554c.506,.232,1.069,.362,1.662,.362s1.156-.13,1.662-.362l2.783,4.554c-2.86,1.068-6.031,1.068-8.89,0Z"/></svg>
