<?xml version="1.0" encoding="UTF-8"?>
<svg xmlns="http://www.w3.org/2000/svg" id="Layer_1" data-name="Layer 1" viewBox="0 0 24 24" width="512" height="512"><path d="m20.905,3.095c-.458-2.106-2.482-3.095-3.905-3.095-1.178,0-2,.78-2,1.898v5.111c-1.069.018-2.067.067-3,.149v-3.196h-1c-3.228,0-5.794.986-7.378,1.813-1.001.523-1.622,1.544-1.622,2.666v3.675c-1.438,2.471-2,5.99-2,10.885v1h1c8.074,0,12.412-1.522,14.459-6h1.833c1.194,0,2.227-.842,2.455-2.003.194-.993.292-2.001.29-2.999l-.002-.998h-3.193c.082-.933.131-1.931.149-3h5.111c1.118,0,1.898-.822,1.898-2,0-1.423-.989-3.448-3.095-3.905ZM4.548,7.547c1.004-.524,2.957-1.362,5.452-1.548v1.402c-2.553.411-4.516,1.165-6,2.365v-1.325c0-.374.21-.716.548-.893Zm-2.54,14.445c.163-10.081,2.903-12.821,12.984-12.984-.163,10.081-2.903,12.821-12.984,12.984Zm15.993-7.992c-.04.539-.112,1.078-.217,1.611-.044.225-.251.389-.492.389h-1.121c.17-.623.314-1.287.428-2h1.402Zm-1.001-7l.002-5c.067.003,1.998.141,1.998,2v1h1c1.883,0,2,1.98,2,2h-5Zm-7.207,11.207l-4-4,1.414-1.414,4,4-1.414,1.414Zm2.417-3.583l-2.834-2.835,1.414-1.414,2.834,2.835-1.414,1.414Zm-8.834,3.165l1.414-1.414,2.834,2.835-1.414,1.414-2.834-2.835Z"/></svg>
