<?xml version="1.0" encoding="UTF-8"?>
<svg xmlns="http://www.w3.org/2000/svg" id="Layer_1" data-name="Layer 1" viewBox="0 0 24 24" width="512" height="512"><path d="M3,4h2.18c.41,1.16,1.51,2,2.82,2h2c1.3,0,2.4-.84,2.82-2h2.18c.55,0,1,.45,1,1v2h2v-2c0-1.65-1.35-3-3-3h-2.17c-.41-1.16-1.52-2-2.83-2h-2c-1.3,0-2.42,.84-2.83,2H3C1.35,2,0,3.35,0,5V24H9v-2H2V5c0-.55,.45-1,1-1Zm5-2h2c.55,0,1,.45,1,1s-.45,1-1,1h-2c-.55,0-1-.45-1-1s.45-1,1-1Zm13,7h-7c-1.65,0-3,1.35-3,3v12h13V12c0-1.65-1.35-3-3-3Zm1,13H13V12c0-.55,.45-1,1-1h7c.55,0,1,.45,1,1v10Zm-7-9h5v2h-5v-2Zm0,4h5v2h-5v-2Z"/></svg>
