<?xml version="1.0" encoding="UTF-8"?>
<svg xmlns="http://www.w3.org/2000/svg" id="Layer_1" data-name="Layer 1" viewBox="0 0 24 24" width="512" height="512"><path d="M12,23.32l-.57-.4c-.47-.32-11.43-8-11.43-14.92C0,4.14,2.92,1,6.5,1c2.31,0,4.35,1.31,5.5,3.27,1.15-1.96,3.19-3.27,5.5-3.27,3.58,0,6.5,3.14,6.5,7,0,6.92-10.96,14.6-11.43,14.92l-.57,.4ZM6.5,3c-2.44,0-4.5,2.29-4.5,5,0,4.59,6.75,10.49,10,12.87,3.25-2.38,10-8.29,10-12.87,0-2.71-2.06-5-4.5-5s-4.5,2.29-4.5,5v.41l-1.59,1.59,4,4-3.71,3.71-1.41-1.41,2.29-2.29-4-4,2.4-2.4c-.19-2.53-2.17-4.6-4.49-4.6Z"/></svg>
