<?xml version="1.0" encoding="UTF-8"?>
<svg xmlns="http://www.w3.org/2000/svg" id="Layer_1" data-name="Layer 1" viewBox="0 0 24 24" width="512" height="512"><path d="m9.518,22H3c-.551,0-1-.448-1-1s.449-1,1-1h5.523c-.226-.638-.388-1.305-.464-2h-2.059V2h12v6.059c.695.077,1.362.239,2,.464V2c0-1.103-.897-2-2-2H3C1.346,0,0,1.346,0,3v18c0,1.654,1.346,3,3,3h8.349c-.706-.571-1.325-1.244-1.831-2ZM3,2h1v16h-1c-.351,0-.687.061-1,.172V3c0-.551.449-1,1-1Zm14,8c-3.86,0-7,3.141-7,7s3.14,7,7,7,7-3.141,7-7-3.14-7-7-7Zm0,12c-2.757,0-5-2.243-5-5s2.243-5,5-5,5,2.243,5,5-2.243,5-5,5Zm2.687-5.766c.417.417.417,1.093,0,1.51l-2.687,2.688v-2.431h-3v-2h3v-2.454l2.687,2.687Z"/></svg>
