<?xml version="1.0" encoding="UTF-8"?>
<svg xmlns="http://www.w3.org/2000/svg" id="Layer_1" data-name="Layer 1" viewBox="0 0 24 24">
  <path d="m12,0C5.383,0,0,5.383,0,12s5.383,12,12,12,12-5.383,12-12S18.617,0,12,0Zm0,22c-5.514,0-10-4.486-10-10S6.486,2,12,2s10,4.486,10,10-4.486,10-10,10Zm-6.75-9h13.5l-5.689,5.561c-.586.586-1.535.586-2.121,0l-5.69-5.561Zm7.647-7.561c-.293-.293-.677-.439-1.061-.439s-.768.146-1.061.439l-5.604,5.561h13.328l-5.603-5.561Zm-1.061,1.765l2.313,2.296h-4.627l2.314-2.296Z"/>
</svg>
