<?xml version="1.0" encoding="UTF-8"?>
<svg xmlns="http://www.w3.org/2000/svg" id="Layer_1" data-name="Layer 1" viewBox="0 0 24 24" width="512" height="512"><path d="m18,8.833c-3.309,0-6,3.439-6,7.667s2.691,7.667,6,7.667,6-3.439,6-7.667-2.691-7.667-6-7.667Zm-4,7.667c0-2.823,1.466-5.163,3.374-5.591.352.662,1.024,2.48-.274,5.154-1.146,2.36-1.087,4.277-.758,5.588-1.38-.895-2.343-2.865-2.343-5.152Zm4.626,5.591c-.352-.662-1.024-2.48.274-5.154,1.146-2.36,1.087-4.278.758-5.588,1.38.895,2.343,2.865,2.343,5.152,0,2.823-1.466,5.163-3.374,5.591ZM12.507,1.493C11.317.303,9.609-.201,7.707.07c-1.799.257-3.58,1.188-5.014,2.623C-.343,5.729-.882,10.132,1.493,12.507c.979.979,2.307,1.495,3.809,1.495.323,0,.654-.024.991-.072,1.799-.257,3.58-1.188,5.014-2.623,3.036-3.036,3.575-7.438,1.2-9.813Zm-8.399,2.614c1.13-1.13,2.509-1.86,3.882-2.057.239-.034.472-.052.698-.052.727,0,1.379.175,1.91.512-.217.723-1.036,2.542-3.926,3.543-2.547.883-3.885,2.325-4.583,3.51-.374-1.65.352-3.791,2.018-5.457Zm5.785,5.785c-1.13,1.13-2.509,1.86-3.882,2.057-1.012.144-1.911-.024-2.606-.466.219-.726,1.041-2.539,3.924-3.538,2.547-.883,3.885-2.325,4.583-3.51.374,1.65-.352,3.791-2.018,5.457Z"/></svg>
