<?xml version="1.0" encoding="UTF-8"?>
<svg xmlns="http://www.w3.org/2000/svg" id="Layer_1" data-name="Layer 1" viewBox="0 0 24 24">
  <path d="m22.038,14.009l-3.385-1.27,5.342-3.652-2.833-2.411,1.919-5.757-5.761,1.92L14.911.045l-3.648,5.307-1.271-3.389-3.362,2.262L4,.003v4.997H.009l2.898,7.449-1.887,3.774,4.46.892L.021,22.575l1.414,1.414,5.453-5.453.889,4.444,3.775-1.888,7.448,2.876v-3.968h4.952l-4.175-2.641,2.261-3.351Zm-4.996,3.828l-.042,3.215-5.552-2.144-2.224,1.112-.637-3.184,3.202-3.202-1.414-1.414-3.196,3.196-3.199-.64,1.113-2.226-2.16-5.551,3.159-.003,2.916-1.961,1.729,4.611,4.352-6.332,1.591,1.845,3.239-1.08-1.081,3.243,1.867,1.589-6.358,4.348,4.615,1.73-1.92,2.845Z"/>
</svg>
