<?xml version="1.0" encoding="UTF-8"?>
<svg xmlns="http://www.w3.org/2000/svg" id="Layer_1" data-name="Layer 1" viewBox="0 0 24 24">
  <path d="m19,0H5c-1.654,0-3,1.346-3,3v21h20V3c0-1.654-1.346-3-3-3ZM5,2h14c.552,0,1,.449,1,1v5H4V3c0-.551.449-1,1-1Zm-1,20v-12h16v12H4Zm2-2h12v-8H6v8Zm2-6h8v4h-8v-4Zm2.5-9c0-.828.672-1.5,1.5-1.5s1.5.672,1.5,1.5-.672,1.5-1.5,1.5-1.5-.672-1.5-1.5Zm4.5,0c0-.828.672-1.5,1.5-1.5s1.5.672,1.5,1.5-.672,1.5-1.5,1.5-1.5-.672-1.5-1.5Zm-9,0c0-.828.672-1.5,1.5-1.5s1.5.672,1.5,1.5-.672,1.5-1.5,1.5-1.5-.672-1.5-1.5Z"/>
</svg>
