<?xml version="1.0" encoding="UTF-8"?>
<svg xmlns="http://www.w3.org/2000/svg" id="Layer_1" data-name="Layer 1" viewBox="0 0 24 24">
  <path d="m20.578,9l3.396-5.891L20.891.025l-5.891,3.396v4.164l-5.01,5.01-1.411-1.398L.898,18.879c-1.168,1.17-1.168,3.072,0,4.242.566.566,1.32.879,2.122.879s1.555-.312,2.121-.879l7.701-7.701-1.431-1.417,5.003-5.003h4.164ZM3.727,21.707c-.377.379-1.037.377-1.414,0-.39-.39-.39-1.024,0-1.414l6.273-6.272,1.421,1.407-6.28,6.279ZM17,4.577l3.561-2.054.916.916-2.054,3.561h-2.423v-2.423Z"/>
</svg>
