<?xml version="1.0" encoding="UTF-8"?>
<svg xmlns="http://www.w3.org/2000/svg" id="Layer_1" data-name="Layer 1" viewBox="0 0 24 24" width="512" height="512"><path d="m11,16h2v2h-2v-2Zm13.021-4l-3.521,3.521v4.979h-4.979l-3.521,3.521-3.521-3.521H3.5v-4.979L-.021,12l3.521-3.521V3.5h4.979L12-.021l3.521,3.521h4.979v4.979l3.521,3.521Zm-2.828,0l-2.692-2.692v-3.808h-3.808l-2.692-2.692-2.692,2.692h-3.808v3.808l-2.692,2.692,2.692,2.692v3.808h3.808l2.692,2.692,2.692-2.692h3.808v-3.808l2.692-2.692Zm-8.657-4.952c-.885-.161-1.783.081-2.463.653-.682.572-1.072,1.41-1.072,2.299h2c0-.297.13-.576.358-.767.23-.194.526-.272.832-.216.391.068.725.401.793.793.093.531-.212.907-.502,1.066-.845.465-1.481,1.595-1.481,2.628v.495h2v-.495c0-.312.26-.773.447-.876,1.124-.621,1.729-1.892,1.506-3.164-.213-1.212-1.208-2.206-2.417-2.417Z"/></svg>
