<?xml version="1.0" encoding="UTF-8"?>
<svg xmlns="http://www.w3.org/2000/svg" id="Layer_1" data-name="Layer 1" viewBox="0 0 24 24">
  <path d="m8,12c3.309,0,6-2.691,6-6S11.309,0,8,0,2,2.691,2,6s2.691,6,6,6Zm0-10c2.206,0,4,1.794,4,4s-1.794,4-4,4-4-1.794-4-4,1.794-4,4-4Zm-3,12h5v2h-5c-1.654,0-3,1.346-3,3v5H0v-5c0-2.757,2.243-5,5-5Zm14,6h-2v-2h2v2Zm-3-6v-1c0-1.103.897-2,2-2,.737,0,1.375.405,1.722,1h2.136c-.447-1.72-1.999-3-3.858-3-2.206,0-4,1.794-4,4v1h-2v7c0,1.654,1.346,3,3,3h6c1.654,0,3-1.346,3-3v-7h-8Zm6,7c0,.551-.448,1-1,1h-6c-.552,0-1-.449-1-1v-5h8v5Z"/>
</svg>
