<?xml version="1.0" encoding="UTF-8"?>
<svg xmlns="http://www.w3.org/2000/svg" id="Layer_1" data-name="Layer 1" viewBox="0 0 24 24">
  <path d="m18,16c0-2.757-2.243-5-5-5h-6c-2.757,0-5,2.243-5,5v3H0v2h1v3h2v-3h14v3h2v-3h1v-2h-2v-3Zm-2,0v3h-4.25l-.93-3.713,1.524-2.287h.656c1.654,0,3,1.346,3,3Zm-12,0c0-1.654,1.346-3,3-3h.656l1.524,2.287-.93,3.713h-4.25v-3Zm6-6c2.757,0,5-2.243,5-5S12.757,0,10,0s-5,2.243-5,5,2.243,5,5,5Zm0-8c1.654,0,3,1.346,3,3s-1.346,3-3,3-3-1.346-3-3,1.346-3,3-3Zm14,0h-1v6.5l-2.5-2.5-2.5,2.5V2h-1V0h7v2Z"/>
</svg>
