<?xml version="1.0" encoding="UTF-8"?>
<svg xmlns="http://www.w3.org/2000/svg" id="Layer_1" data-name="Layer 1" viewBox="0 0 24 24">
  <path d="m13.178,0c-1.142,0-2.215.444-3.022,1.252-1.02,1.02-1.401,2.594-.997,4.108l.662,2.482c-.567.417-1.12.885-1.646,1.41l-4.084,4.138c-.479.479-1.254.479-1.732,0-.477-.478-.477-1.255,0-1.732l2.691-2.695-1.416-1.414-2.69,2.695c-1.256,1.258-1.256,3.303,0,4.561,1.16,1.16,2.991,1.248,4.259.264l1.181,1.181-3.588,3.588,1.414,1.414,3.588-3.588,1.198,1.198c-.931,1.261-.826,3.053.316,4.194.629.629,1.455.942,2.28.942s1.651-.314,2.279-.941l2.696-2.691-1.412-1.416-2.697,2.692c-.477.477-1.256.477-1.732,0s-.478-1.255.006-1.738l4.02-4.083c.524-.524.99-1.076,1.406-1.64l2.482.662c.399.106.803.159,1.199.159,1.106,0,2.158-.405,2.909-1.156.808-.808,1.252-1.881,1.252-3.022V0h-10.822Zm.154,14.412l-2.955,3.002-3.748-3.748,2.965-3.004c2.502-2.502,5.854-3.537,7.681-3.937-.4,1.827-1.437,5.181-3.942,7.687Zm8.668-3.59c0,.607-.236,1.179-.666,1.608-.517.518-1.351.699-2.179.479l-1.869-.498c1.854-3.358,2.191-6.633,2.209-6.816l.116-1.207-1.207.116c-.183.017-3.456.355-6.816,2.209l-.499-1.87c-.221-.827-.037-1.662.479-2.179.43-.43,1.001-.666,1.608-.666h8.822v8.822Z"/>
</svg>
