<?xml version="1.0" encoding="UTF-8"?>
<svg xmlns="http://www.w3.org/2000/svg" id="Layer_1" data-name="Layer 1" viewBox="0 0 24 24" width="512" height="512"><path d="M16,15h-2.33l-.45,3.39c-.2,1.49-1.48,2.61-2.97,2.61h-2.25v3H0v-2H6v-3h4.25c.5,0,.93-.37,.99-.87l.68-5.13h1.99c-.16-.35-.31-.71-.46-1.06-1.07-2.46-2.19-5.01-3.22-6.29C8.2,2.95,5.04,1.64,1.73,2.09c0,0,0,0,0,0-.59,.08-1.16,.24-1.73,.44V.41C.48,.28,.96,.17,1.45,.11c0,0,0,0,0,0C5.5-.45,9.36,1.17,11.8,4.42c1.18,1.46,2.3,4.01,3.48,6.72l.72,1.65v2.21Zm1,2c-.55,0-1,.45-1,1s.45,1,1,1,1-.45,1-1-.45-1-1-1Zm3-2c-.55,0-1,.45-1,1s.45,1,1,1,1-.45,1-1-.45-1-1-1Zm0,4c-.55,0-1,.45-1,1s.45,1,1,1,1-.45,1-1-.45-1-1-1Zm3-2c-.55,0-1,.45-1,1s.45,1,1,1,1-.45,1-1-.45-1-1-1Zm0-2c.55,0,1-.45,1-1s-.45-1-1-1-1,.45-1,1,.45,1,1,1Zm0,6c-.55,0-1,.45-1,1s.45,1,1,1,1-.45,1-1-.45-1-1-1Z"/></svg>
