<?xml version="1.0" encoding="UTF-8"?>
<svg xmlns="http://www.w3.org/2000/svg" id="Layer_1" data-name="Layer 1" viewBox="0 0 24 24" width="512" height="512"><path d="M22,15h2v7h-7v-2h5v-5Zm2-10v6.731l-2-1.976v-.755H7v11h4.738c.033,.036,.057,.078,.092,.113l1.887,1.887H0V5c0-1.654,1.346-3,3-3H21c1.654,0,3,1.346,3,3ZM2,5v2h3v-3H3c-.551,0-1,.448-1,1Zm3,4H2v11h3V9Zm17-2v-2c0-.552-.448-1-1-1H7v3h15Zm-9.715,9.292c-.38,.391-.38,1.025,0,1.416l2.715,2.792v-2.5h2c1.654,0,3-1.346,3-3v-2.023h2.455l-2.756-2.711c-.386-.386-1.012-.386-1.398,0l-2.756,2.711h2.455v2.023c0,.552-.448,1-1,1h-2v-2.5l-2.715,2.792Z"/></svg>
