<?xml version="1.0" encoding="UTF-8"?>
<svg xmlns="http://www.w3.org/2000/svg" id="Layer_1" data-name="Layer 1" viewBox="0 0 24 24">
  <path d="m21.618,5c-.309,0-.586-.171-.724-.447-.479-.958-1.442-1.553-2.512-1.553h-1.382V0c-1.657,0-3,1.343-3,3v1.668l-1.202,3.331-6.797.004c-.827,0-1.616.249-2.281.713-.482-.332-1.72-1.411-1.72-3.716H0c0,2.962,1.531,4.557,2.413,5.231-.27.545-.412,1.148-.412,1.774l.003,12h5.996v-5l5-.003v5h6.003v-6.395l1.191-5.605h.805c1.654,0,3-1.346,3-3v-4h-2.382Zm.382,4c0,.551-.449,1-1,1h-2.425l-1.549,7.292-.022,4.708h-2.003v-5l-9,.005v5h-1.997l-.002-10c0-.534.208-1.037.585-1.415.378-.378.88-.586,1.415-.586l8.201-.005,1.804-4.999h2.375c.309,0,.586.171.724.447.479.958,1.442,1.553,2.512,1.553h.382v2Z"/>
</svg>
