<?xml version="1.0" encoding="UTF-8"?>
<svg xmlns="http://www.w3.org/2000/svg" id="Layer_1" data-name="Layer 1" viewBox="0 0 24 24">
  <path d="m23,14v-1.526c0-1.032-.563-1.979-1.469-2.474,0,0-8.412-4.578-8.531-4.624v-1.349l3-1.944L11,0v5.376c-.119.045-8.531,4.624-8.531,4.624-.906.493-1.469,1.441-1.469,2.474v1.526h2v8H1v2h22v-2h-2v-8h2ZM3.426,11.756l8.182-4.463c.245-.135.538-.135.783,0l8.183,4.463c.111.061.204.145.274.244H3.151c.071-.1.164-.184.275-.244Zm7.574,2.244v8h-2v-8h2Zm2,0h2v8h-2v-8Zm-8,0h2v8h-2v-8Zm14,8h-2v-8h2v8Z"/>
</svg>
