<?xml version="1.0" encoding="UTF-8"?>
<svg xmlns="http://www.w3.org/2000/svg" id="Layer_1" data-name="Layer 1" viewBox="0 0 24 24">
  <path d="m21,2H3c-1.654,0-3,1.346-3,3v17h24V5c0-1.654-1.346-3-3-3Zm1,18H2V5c0-.551.448-1,1-1h18c.552,0,1,.449,1,1v15Zm-5.5-13h-3.5v10h3.5c1.93,0,3.5-1.57,3.5-3.5v-3c0-1.93-1.57-3.5-3.5-3.5Zm1.5,6.5c0,.827-.673,1.5-1.5,1.5h-1.5v-6h1.5c.827,0,1.5.673,1.5,1.5v3Zm-12-3.5c0,.378.271.698.644.76l3.041.507c1.342.223,2.315,1.373,2.315,2.733,0,1.654-1.346,3-3,3h-2c-1.654,0-3-1.346-3-3h2c0,.551.448,1,1,1h2c.552,0,1-.449,1-1,0-.378-.271-.698-.644-.76l-3.041-.507c-1.342-.223-2.315-1.373-2.315-2.733,0-1.654,1.346-3,3-3h2c1.654,0,3,1.346,3,3h-2c0-.551-.448-1-1-1h-2c-.552,0-1,.449-1,1Z"/>
</svg>
