<?xml version="1.0" encoding="UTF-8"?>
<svg xmlns="http://www.w3.org/2000/svg" id="Layer_1" data-name="Layer 1" viewBox="0 0 24 24" width="512" height="512"><path d="M17.693,16.271l-1.416-1.413,4.246-4.253c.952-.952,1.477-2.218,1.477-3.564s-.524-2.612-1.477-3.564-2.218-1.476-3.563-1.476-2.612,.524-3.565,1.477l-4.253,4.246-1.412-1.415L11.981,2.062C13.312,.732,15.079,0,16.96,0s3.648,.732,4.978,2.062c1.33,1.33,2.062,3.098,2.062,4.979s-.732,3.648-2.062,4.978l-4.245,4.253ZM.043,1.457L22.543,23.957l1.414-1.414L13.413,11.999l2.859-2.859-1.414-1.414-2.859,2.859L1.457,.043,.043,1.457ZM0,16.943c0,1.88,.732,3.648,2.063,4.978,1.33,1.331,3.096,2.069,4.973,2.079,1.87,0,3.663-.726,4.983-2.045l2.824-2.832-1.416-1.412-2.823,2.831c-.941,.941-2.269,1.458-3.604,1.458-1.347-.007-2.568-.538-3.523-1.493-.952-.952-1.477-2.218-1.477-3.564,0-1.347,.524-2.612,1.477-3.564l2.812-2.805-1.412-1.416-2.813,2.806C.732,13.294,0,15.062,0,16.943Zm10.558-2.088l-1.414-1.414-1.416,1.416,1.414,1.414,1.416-1.416Z"/></svg>
