<?xml version="1.0" encoding="UTF-8"?>
<svg xmlns="http://www.w3.org/2000/svg" id="Layer_1" data-name="Layer 1" viewBox="0 0 24 24">
  <path d="m22,8.25c0-1.271-.472-2.423-1.227-3.332,1.951-.38,2.877-2.128,3.1-3.108l.127-.558-.568-.065c-.336-.039-.658-.058-.965-.058-1.224,0-2.22.305-2.971.911-.507.409-.804.884-.984,1.287-.553-.199-1.141-.326-1.762-.326-2.108,0-3.918,1.257-4.752,3.053l-.573-1.3c-.282-.64-.425-1.318-.425-2.017v-.736h1V0H3v2h1v.736c0,.698-.143,1.377-.425,2.017l-.896,2.033c-.41.927-.626,1.909-.664,2.919l-2.016-1.038v12.332c0,1.654,1.346,3,3,3h18c1.654,0,3-1.346,3-3v-12.332l-2.26,1.163c.161-.509.26-1.039.26-1.581Zm-5.25-3.25c1.792,0,3.25,1.458,3.25,3.25,0,.638-.197,1.253-.544,1.78l-1.943-1.208-2.756,1.713-.635-.394c-.396-.55-.622-1.208-.622-1.891,0-1.792,1.458-3.25,3.25-3.25Zm-12.24,2.593l.896-2.033c.395-.896.595-1.846.595-2.823v-.736h3v.736c0,.978.2,1.927.595,2.823l.896,2.033c.263.597.423,1.224.481,1.869l-1.729,1.073-2.756-1.713-2.487,1.546v-.356c0-.839.172-1.653.51-2.42Zm-2.51,13.407v-9.053l1.776.914,2.711-1.684,2.756,1.711,2.757-1.712.74.46s.005.008.008.011l.004-.004,1.248.775v8.581c0,.352.072.686.184,1H3c-.552,0-1-.448-1-1Zm20,0c0,.552-.448,1-1,1h-4c-.552,0-1-.448-1-1v-8.883l1.513-.939,2.711,1.684,1.776-.914v9.053Z"/>
</svg>
