<?xml version="1.0" encoding="UTF-8"?>
<svg xmlns="http://www.w3.org/2000/svg" id="Layer_1" data-name="Layer 1" viewBox="0 0 24 24">
  <path d="m13.339,7.724l1.393-1.437,1.63,1.58,3.228-3.174,1.402,1.426-3.456,3.399c-.308.309-.727.482-1.173.482s-.864-.174-1.179-.489l-1.845-1.788Zm-3.339-.724c0-3.86,3.141-7,7-7s7,3.14,7,7-3.141,7-7,7-7-3.14-7-7Zm2,0c0,2.757,2.243,5,5,5s5-2.243,5-5-2.243-5-5-5-5,2.243-5,5Zm8,10h3.5v3.5c0,1.93-1.57,3.5-3.5,3.5h-11.5c-1.93,0-3.5-1.57-3.5-3.5V7H0v-3.5C0,1.57,1.57,0,3.5,0h7.844c-.705.57-1.322,1.245-1.828,2h-2.854c.217.455.338.964.338,1.5v17c0,.827.673,1.5,1.5,1.5s1.5-.673,1.5-1.5v-3.5h8v-1.056c.694-.077,1.363-.232,2-.457v1.513ZM5,3.5c0-.827-.673-1.5-1.5-1.5s-1.5.673-1.5,1.5v1.5h3v-1.5Zm7,15.5v1.5c0,.537-.121,1.045-.338,1.5h8.338c.827,0,1.5-.673,1.5-1.5v-1.5h-9.5Z"/>
</svg>
