<?xml version="1.0" encoding="UTF-8"?>
<svg xmlns="http://www.w3.org/2000/svg" id="Layer_1" data-name="Layer 1" viewBox="0 0 24 24">
  <path d="m23.018,8.785c-.596-.543-1.375-.812-2.169-.782-.804.038-1.544.387-2.085.981l-3.217,3.534c-.551-.909-1.551-1.519-2.689-1.519H3c-1.654,0-3,1.346-3,3v7c0,1.654,1.346,3,3,3h10.448l9.787-10.984c1.094-1.227.996-3.124-.218-4.23Zm-1.275,2.899l-9.19,10.315H3c-.552,0-1-.448-1-1v-7c0-.552.448-1,1-1h9.857c.63,0,1.143.513,1.143,1.143,0,.564-.421,1.051-.98,1.13l-5.161.737.283,1.98,5.161-.737c1.175-.168,2.129-.988,2.514-2.059l4.426-4.864c.182-.199.431-.316.7-.329.269-.02.528.081.728.263.408.371.44,1.009.072,1.421ZM6,2.5c0-1.381,1.119-2.5,2.5-2.5s2.5,1.119,2.5,2.5-1.119,2.5-2.5,2.5-2.5-1.119-2.5-2.5Zm0,6.5h-2v-.5c0-1.379,1.121-2.5,2.5-2.5h4c1.379,0,2.5,1.121,2.5,2.5v.5h-2v-.5c0-.275-.225-.5-.5-.5h-4c-.275,0-.5.225-.5.5v.5Z"/>
</svg>
