<?xml version="1.0" encoding="UTF-8"?>
<svg xmlns="http://www.w3.org/2000/svg" id="Layer_1" data-name="Layer 1" viewBox="0 0 24 24">
  <path d="m19.062,6.921L12,.014l-7.071,6.915c-3.899,3.899-3.899,10.243,0,14.143,1.89,1.889,4.4,2.929,7.071,2.929s5.182-1.04,7.07-2.929,2.93-4.4,2.93-7.071-1.04-5.183-2.938-7.079Zm-1.406,12.736c-1.511,1.511-3.52,2.343-5.656,2.343s-4.146-.832-5.657-2.343c-3.119-3.119-3.119-8.195-.008-11.307l5.665-5.54,5.656,5.532c1.512,1.511,2.344,3.521,2.344,5.657s-.832,4.146-2.344,5.657Zm-5.656-11.65l-3.535,3.458c-.944.943-1.465,2.199-1.465,3.535s.521,2.592,1.464,3.535,2.2,1.465,3.536,1.465,2.591-.521,3.535-1.465,1.465-2.199,1.465-3.535-.521-2.592-1.473-3.543l-3.527-3.45Zm2.121,9.114c-1.134,1.133-3.11,1.135-4.242,0-.566-.566-.879-1.319-.879-2.121s.312-1.555.871-2.113l2.129-2.083,2.121,2.075c.566.566.879,1.319.879,2.121s-.313,1.555-.879,2.121Z"/>
</svg>
