<?xml version="1.0" encoding="UTF-8"?>
<svg xmlns="http://www.w3.org/2000/svg" id="Layer_1" data-name="Layer 1" viewBox="0 0 24 24">
  <path d="m21,0h-9c-1.444,0-2.652,1.025-2.936,2.386-.473-.239-.999-.386-1.564-.386-1.93,0-3.5,1.57-3.5,3.5,0,.539.133,1.044.351,1.5h-2.351V0H0v24h2v-3h20v3h2V3c0-1.654-1.346-3-3-3ZM7.5,4c.827,0,1.5.673,1.5,1.5s-.673,1.5-1.5,1.5-1.5-.673-1.5-1.5.673-1.5,1.5-1.5Zm0,15c-.827,0-1.5-.673-1.5-1.5s.673-1.5,1.5-1.5,1.5.673,1.5,1.5-.673,1.5-1.5,1.5Zm14.5,0h-11v-4c0-.551.449-1,1-1h10v5Zm0-7h-10c-1.444,0-2.652,1.025-2.936,2.386-.473-.239-.999-.386-1.564-.386-1.93,0-3.5,1.57-3.5,3.5,0,.539.133,1.044.351,1.5h-2.351v-10h20v3Zm0-5h-11V3c0-.551.449-1,1-1h9c.551,0,1,.449,1,1v4Z"/>
</svg>
