<?xml version="1.0" encoding="UTF-8"?>
<svg xmlns="http://www.w3.org/2000/svg" id="Layer_1" data-name="Layer 1" viewBox="0 0 24 24" width="512" height="512"><path d="m4.034.282C2.981-.22,1.748-.037.893.749.054,1.521-.22,2.657.18,3.717l4.528,8.288L.264,20.288c-.396,1.061-.121,2.196.719,2.966.524.479,1.19.734,1.887.734.441,0,.895-.102,1.332-.312l19.769-11.678L4.034.282Zm-2.002,2.676c-.114-.381.108-.64.214-.736.095-.087.433-.348.895-.149l15.185,8.928H6.438L2.032,2.958Zm1.229,18.954c-.472.228-.829-.044-.928-.134-.105-.097-.329-.355-.214-.737l4.324-8.041h11.898L3.261,21.912Z"/></svg>
