<?xml version="1.0" encoding="UTF-8"?>
<svg xmlns="http://www.w3.org/2000/svg" id="Layer_1" data-name="Layer 1" viewBox="0 0 24 24">
  <path d="m22.819,4.395l1.188-2.52L21.346.03l-.898.749c-.945.787-2.143,1.221-3.373,1.221H6.925c-1.23,0-2.428-.434-3.373-1.221L2.651.028-.006,1.876l1.173,2.486c.624,1.455,1.615,2.626,2.833,3.429v3.209h-2v2h2v11h2v-11h12v11h2v-11h2v-2h-2v-3.206c1.216-.799,2.203-1.961,2.819-3.399Zm-11.819,6.605h-5v-2.293c.653.187,1.338.293,2.046.293h2.954v2Zm7,0h-5v-2h2.954c.709,0,1.393-.106,2.046-.293v2.293Zm-2.046-4h-7.907c-2.204,0-4.136-1.312-5.056-3.458l-.466-.989.024-.018c1.257.947,2.797,1.465,4.376,1.465h10.15c1.578,0,3.118-.518,4.375-1.464l.026.018-.48,1.021c-.906,2.113-2.837,3.426-5.042,3.426Z"/>
</svg>
