<?xml version="1.0" encoding="UTF-8"?>
<svg xmlns="http://www.w3.org/2000/svg" id="Layer_1" data-name="Layer 1" viewBox="0 0 24 24">
  <path d="m18.879,1.879c-1.134-1.134-3.104-1.14-4.249.006l-2.982,3.03-7.975-1.838c-.858-.197-1.756-.01-2.465.517C.501,4.12.062,4.932.004,5.82c-.094,1.443.949,2.788,2.425,3.128l2.387.553-2.386.552C.953,10.393-.09,11.738.004,13.181c.058.889.497,1.7,1.204,2.227.708.526,1.609.714,2.461.517l5.065-1.148,1.445,7.224h13.82V7l-5.121-5.121Zm3.121,18.121h-10.18l-1.526-7.628-7.07,1.603c-.285.067-.585.003-.822-.172-.239-.178-.382-.445-.402-.752-.031-.467.355-.928.88-1.049l10.803-2.502L2.88,6.999c-.524-.121-.91-.581-.879-1.049.02-.307.163-.574.402-.751.236-.175.537-.239.822-.172l13.128,3.025.449-1.949-2.866-.66,2.115-2.149c.377-.378,1.036-.378,1.414,0l4.536,4.535v12.172Z"/>
</svg>
