<?xml version="1.0" encoding="UTF-8"?>
<svg xmlns="http://www.w3.org/2000/svg" id="Layer_1" data-name="Layer 1" viewBox="0 0 24 24" width="512" height="512"><path d="M19.5,24H4.5c-2.481,0-4.5-2.019-4.5-4.5,0-2.249,1.612-4.09,3.771-4.435,1.054-1.88,3.046-3.065,5.229-3.065,1.059,0,2.083,.282,3,.822,.917-.54,1.942-.822,3-.822,2.183,0,4.175,1.185,5.229,3.065,2.158,.345,3.771,2.186,3.771,4.435,0,2.481-2.019,4.5-4.5,4.5ZM9,14c-1.59,0-3.028,.945-3.665,2.407l-.255,.585-.638,.015c-1.369,.033-2.442,1.127-2.442,2.492,0,1.378,1.122,2.5,2.5,2.5h15c1.378,0,2.5-1.122,2.5-2.5,0-1.365-1.072-2.459-2.441-2.492l-.638-.015-.255-.585c-.637-1.462-2.075-2.407-3.666-2.407-.858,0-1.687,.284-2.397,.821l-.603,.456-.603-.456c-.71-.537-1.539-.82-2.397-.82ZM12,0s-1,1.284-1,2.284c0,1.5,1,1.954,1,2.954,0,.828-.462,1.75-1.741,1.75s-1.759-.922-1.759-1.75c0-1,1-2.75,1-2.75,0,0-4.5,1.532-4.5,6.512,0,.67,.1,1.315,.276,1.929,.596-.315,1.23-.555,1.892-.712-.099-.392-.168-.795-.168-1.217,0-.558,.077-1.055,.208-1.496,.621,.872,1.645,1.484,3.051,1.484,2.167,0,3.741-1.577,3.741-3.75,0-.792-.266-1.403-.517-1.858,.892,.645,3.51,2.781,3.517,5.621,0,.418-.068,.822-.167,1.217,.661,.156,1.296,.397,1.892,.712,.176-.613,.276-1.259,.275-1.929-.009-4.167-3.895-6.957-4.675-7.47l-2.325-1.53"/></svg>
