<?xml version="1.0" encoding="UTF-8"?>
<svg xmlns="http://www.w3.org/2000/svg" id="Layer_1" data-name="Layer 1" viewBox="0 0 24 24">
  <path d="m22,18v-2c0-1.657-1.343-3-3-3h-.763c-.651.811-1.454,1.492-2.369,2h3.132c.552,0,1,.448,1,1v2H4v-2c0-.552.448-1,1-1h3.132c-.915-.508-1.718-1.189-2.369-2h-.763c-1.657,0-3,1.343-3,3v2H0v6h24v-6h-2Zm-15,4H2v-2h5v2Zm4,0h-2v-2h2v2Zm4,0h-2v-2h2v2Zm7,0h-5v-2h5v2Zm-10-7.988c3,0,6-2.774,6-6.01,0-2.702-2.345-4.676-4.057-6.116-.467-.394-.908-.765-1.236-1.093l-.76-.76-.703.812c-.844.974-1.167,2.134-1.426,3.065-.046.163-.101.361-.158.546-.009-.031-.017-.062-.024-.093l-.426-1.77-1.265,1.306c-.835.862-1.945,2.225-1.945,4.102,0,3.236,3,6.01,6,6.01Zm.707-2.292c-.165.165-.495.282-.707.282s-.542-.117-.707-.282c-.391-.39-.391-1.025,0-1.415l.708-.708.706.708c.189.189.294.44.294.708s-.104.519-.293.707Zm-4.265-5.237c.268.306.613.518,1.058.518,1.534,0,1.945-1.476,2.245-2.553.127-.456.264-.949.467-1.406.145.123.293.248.443.375,1.49,1.254,3.345,2.814,3.345,4.586,0,1.025-.398,1.951-1.034,2.66-.078-.667-.362-1.288-.845-1.771l-2.121-2.122-2.123,2.122c-.495.496-.767,1.124-.842,1.771-.636-.708-1.035-1.635-1.035-2.66,0-.511.141-1.005.442-1.52Z"/>
</svg>
