<?xml version="1.0" encoding="UTF-8"?>
<svg xmlns="http://www.w3.org/2000/svg" id="Layer_1" data-name="Layer 1" viewBox="0 0 24 24">
  <path d="m14.75,13c-2.547,0-6.014,2.909-6.4,3.241l-.961.824,1.023.744c.123.09,3.051,2.191,6.338,2.191,1.93,0,3.5-1.57,3.5-3.5s-1.57-3.5-3.5-3.5Zm0,5c-1.521,0-3.002-.6-3.985-1.109,1.292-.93,2.957-1.891,3.985-1.891.827,0,1.5.673,1.5,1.5s-.673,1.5-1.5,1.5Zm9.25-11v-1.5l-3.251-1.219c-.741-2.473-3.037-4.281-5.749-4.281-3.309,0-6,2.691-6,6,0,1.338.44,2.575,1.184,3.574-1.513,1.52-4.011,3.426-5.184,3.426-1.128,0-3.156-3.364-3.156-3.364l-.71,1.465c-1.535,3.171-1.498,6.585.099,9.133,1.501,2.394,4.204,3.766,7.417,3.766h6.943c3.591,0,7.406-2.559,7.406-7.3,0-2.615-2.02-5.531-3.326-6.941.355-.441.65-.933.87-1.463l3.457-1.297ZM15,2c2.206,0,4,1.794,4,4s-1.794,4-4,4-4-1.794-4-4,1.794-4,4-4Zm.593,20h-6.943c-2.547,0-4.579-1.004-5.722-2.829-.974-1.553-1.175-3.563-.608-5.589.602.76,1.374,1.418,2.681,1.418,2.022,0,4.915-2.316,6.619-4.046.963.659,2.128,1.046,3.381,1.046,1.167,0,2.257-.335,3.179-.914,1.12,1.182,2.82,3.668,2.82,5.614,0,3.888-3.233,5.3-5.406,5.3Z"/>
</svg>
