<?xml version="1.0" encoding="UTF-8"?>
<svg xmlns="http://www.w3.org/2000/svg" id="Layer_1" data-name="Layer 1" viewBox="0 0 24 24">
  <path d="m23.772,19.45l-2.772-2.95v2.5h-.5c-.956,0-1.954-1.876-2.756-3.383-.99-1.86-1.925-3.617-3.494-3.617s-2.504,1.757-3.494,3.617c-.802,1.507-1.8,3.383-2.756,3.383h-.754c.613-1.295,1.175-3.208,1.884-5.716.687-2.43,1.959-6.93,2.869-7.274.571.211,1.284,2.057,1.906,4.01.114-.009.226-.02.345-.02.716,0,1.338.176,1.888.469-1.212-4.057-2.255-6.469-4.138-6.469-2.213,0-3.264,3.321-4.795,8.74-.616,2.181-1.527,5.401-2.205,6.164V3h2.5L4.55.228c-.304-.304-.796-.304-1.1,0L.5,3h2.5v18h18v2.5l2.772-2.95c.304-.304.304-.796,0-1.1Zm-11.251-2.893c.46-.864,1.315-2.471,1.721-2.557.421.086,1.276,1.693,1.736,2.557.44.828.908,1.693,1.442,2.443h-6.341c.534-.75,1.001-1.616,1.442-2.443Z"/>
</svg>
