<?xml version="1.0" encoding="UTF-8"?>
<svg xmlns="http://www.w3.org/2000/svg" id="Layer_1" data-name="Layer 1" viewBox="0 0 24 24" width="512" height="512"><path d="M22.588,.73c-.027,.013-2.835,1.27-5.587,1.27-1.36,0-3.07-.489-4.726-.961-1.786-.511-3.635-1.039-5.274-1.039C3.736,0,.577,2.079,.444,2.168L0,2.465V24H1.999V15.563c.892-.509,2.981-1.563,5.002-1.563,1.36,0,3.07,.489,4.726,.961,1.786,.511,3.635,1.039,5.274,1.039,3.18,0,6.282-1.389,6.413-1.449l.587-.266V.09l-1.413,.64Zm-.587,6.238c-.641,.243-1.746,.616-3,.841V3.836c1.157-.18,2.212-.479,3-.744v3.876Zm-5,1.032h0c-1.162,0-2.58-.357-4-.756V3.319c1.375,.373,2.749,.681,4.001,.681v4Zm-4.001,1.319c1.375,.373,2.749,.681,4.001,.681h0v4c-1.163,0-2.581-.357-4.001-.756v-3.925Zm-1.999-6.564v3.925c-1.375-.373-2.748-.68-4-.68h0V2h.001c1.162,0,2.579,.357,3.999,.755Zm-6-.461v3.94c-1.149,.256-2.199,.681-3.001,1.069V3.563c.594-.339,1.719-.919,3.001-1.27ZM1.999,9.563c.594-.339,1.719-.92,3-1.27v3.941c-1.148,.256-2.198,.682-3,1.069v-3.74Zm5,2.437v-4h0c1.162,0,2.579,.357,3.999,.755v3.925c-1.374-.373-2.747-.68-3.998-.68h-.002Zm12.001,1.809v-3.973c1.158-.18,2.213-.48,3.001-.744v3.876c-.641,.243-1.747,.616-3.001,.841Z"/></svg>
