<?xml version="1.0" encoding="UTF-8"?>
<svg xmlns="http://www.w3.org/2000/svg" id="Layer_1" data-name="Layer 1" viewBox="0 0 24 24" width="512" height="512"><path d="m21.5,19c-.321,0-.627.066-.909.177l-1.566-1.566c.538-.672.981-1.422,1.311-2.232l2.894.813.541-1.926-2.899-.814c.077-.474.128-.957.128-1.452s-.051-.979-.128-1.453l2.899-.814-.541-1.926-2.894.813c-.329-.809-.773-1.559-1.311-2.231l1.566-1.566c.282.111.587.177.909.177,1.379,0,2.5-1.121,2.5-2.5s-1.121-2.5-2.5-2.5-2.5,1.121-2.5,2.5c0,.321.066.626.177.909l-1.566,1.566c-.672-.538-1.422-.981-2.231-1.31l.813-2.894-1.926-.541-.814,2.899c-.474-.077-.957-.128-1.453-.128s-.979.051-1.453.128l-.814-2.899-1.926.541.813,2.894c-.809.329-1.558.772-2.231,1.31l-1.566-1.566c.111-.283.177-.588.177-.909,0-1.379-1.121-2.5-2.5-2.5S0,1.121,0,2.5s1.121,2.5,2.5,2.5c.321,0,.626-.066.909-.177l1.566,1.566c-.538.672-.981,1.422-1.311,2.231l-2.894-.813-.541,1.926,2.899.814c-.078.474-.128.957-.128,1.453s.051.978.128,1.452l-2.899.814.541,1.926,2.894-.813c.329.809.772,1.559,1.311,2.231l-1.566,1.566c-.283-.111-.588-.177-.909-.177-1.379,0-2.5,1.121-2.5,2.5s1.121,2.5,2.5,2.5,2.5-1.121,2.5-2.5c0-.321-.066-.626-.177-.909l1.566-1.566c.672.538,1.422.981,2.231,1.311l-.813,2.894,1.926.541.814-2.899c.474.078.957.128,1.453.128s.979-.051,1.453-.128l.814,2.899,1.926-.541-.813-2.894c.809-.329,1.559-.773,2.231-1.31l1.566,1.566c-.111.282-.177.587-.177.909,0,1.379,1.121,2.5,2.5,2.5s2.5-1.121,2.5-2.5-1.121-2.5-2.5-2.5ZM5,12c0-3.859,3.14-7,7-7s7,3.141,7,7-3.14,7-7,7-7-3.141-7-7Zm8.061,2.474c.586.586.586,1.536,0,2.121s-1.536.586-2.121,0-.586-1.536,0-2.121c.586-.586,1.536-.586,2.121,0Zm3.536-1.414c-.586.586-1.536.586-2.121,0-.586-.586-.586-1.536,0-2.121.586-.586,1.536-.586,2.121,0,.586.586.586,1.536,0,2.121Zm-3.536-5.657c.586.586.586,1.536,0,2.121-.586.586-1.536.586-2.121,0-.586-.586-.586-1.536,0-2.121.586-.586,1.536-.586,2.121,0Zm-3.536,3.536c.586.586.586,1.536,0,2.121-.586.586-1.536.586-2.121,0s-.586-1.536,0-2.121,1.536-.586,2.121,0Z"/></svg>
