<?xml version="1.0" encoding="UTF-8"?>
<svg xmlns="http://www.w3.org/2000/svg" id="Layer_1" data-name="Layer 1" viewBox="0 0 24 24">
  <path d="m19,4.418V0H5v4.418c-1.764.773-3,2.536-3,4.582v12c0,1.654,1.346,3,3,3h14c1.654,0,3-1.346,3-3v-12c0-2.046-1.236-3.809-3-4.582ZM7,2h10v2H7v-2Zm13,19c0,.551-.448,1-1,1h-2.954c.139-.097.257-.192.345-.28.721-.721,1.109-3.72,1.109-3.72,0,0-2.999.388-3.72,1.109-.439.439-.668,1.025-.783,1.61h0s0-2.594,0-2.594c.483-.2,2.673-1.13,3.327-1.784.736-.736,1.176-3.841,1.176-3.841,0,0-3.062.396-3.798,1.132-.349.349-.568.79-.704,1.251v-2.279c.552-.712,1.127-1.591,1.127-2.167,0-1.108-2.125-4.437-2.125-4.437,0,0-2.125,3.329-2.125,4.437,0,.576.573,1.453,1.124,2.165v2.605c-.117-.583-.346-1.166-.783-1.602-.721-.721-3.716-1.104-3.716-1.104,0,0,.382,2.995,1.104,3.716.709.709,3.304,1.79,3.394,1.828v2.674s-.004-.006-.004-.006c-.115-.585-.345-1.171-.783-1.61-.721-.721-3.714-1.103-3.714-1.103,0,0,.382,2.993,1.103,3.714.09.09.212.187.354.286h-2.954c-.552,0-1-.449-1-1v-12c0-1.654,1.346-3,3-3h10c1.654,0,3,1.346,3,3v12Z"/>
</svg>
