<?xml version="1.0" encoding="UTF-8"?>
<svg xmlns="http://www.w3.org/2000/svg" id="Layer_1" data-name="Layer 1" viewBox="0 0 24 24">
  <path d="m10,2c0-1.105.895-2,2-2s2,.895,2,2c0,.738-.405,1.376-1,1.723v4.475l-1,.571-1-.571V3.723c-.595-.346-1-.984-1-1.723Zm10.5,13c-.363,0-.699.104-.992.273l-3.441-2.151-1.015.544-.047,1.151,3.496,2.185c.001,1.104.896,1.998,2,1.998s2-.895,2-2-.895-2-2-2Zm-11.504-.183l-.047-1.151-1.015-.544-3.441,2.151c-.293-.169-.629-.273-.992-.273-1.105,0-2,.895-2,2s.895,2,2,2,1.999-.894,2-1.998l3.496-2.185ZM15.973,2.27c-.048.711-.268,1.375-.641,1.937l4.143,2.371-7.474,4.271-7.477-4.273,4.145-2.37c-.373-.561-.592-1.225-.641-1.935L1.5,6v7.556c.591-.344,1.268-.556,2-.556v-4.705l7.5,4.285v8.546l-3.976-2.273c-.326.616-.797,1.14-1.382,1.514l6.358,3.633,6.358-3.633c-.586-.374-1.057-.898-1.383-1.516l-3.975,2.273v-8.544l7.5-4.285v4.705c.732,0,1.409.212,2,.556v-7.556l-6.527-3.73Z"/>
</svg>
