<?xml version="1.0" encoding="UTF-8"?>
<svg xmlns="http://www.w3.org/2000/svg" id="Layer_1" data-name="Layer 1" viewBox="0 0 24 24" width="512" height="512"><path d="m17.048,5h2.029l-2.223,12.828c-.115.605-.583,1.059-1.189,1.154-.609.093-1.204-.208-1.473-.693l-2.19-4.993-2.137,4.879c-.323.599-.922.905-1.526.808-.608-.096-1.076-.549-1.191-1.146l-2.223-12.836h2.029l1.843,10.631,3.204-7.315,3.208,7.31,1.841-10.625Zm6.952-2v21H0V3C0,1.346,1.346,0,3,0h18c1.654,0,3,1.346,3,3Zm-2,0c0-.552-.448-1-1-1H3c-.552,0-1,.448-1,1v19h20V3Z"/></svg>
