<?xml version="1.0" encoding="UTF-8"?>
<svg xmlns="http://www.w3.org/2000/svg" id="Layer_1" data-name="Layer 1" viewBox="0 0 24 24" width="512" height="512"><path d="m7.581,14.406c-.774-.775-.774-2.037,0-2.812l3.3-3.299,1.414,1.414-2.291,2.291h2.997c1.654,0,3,1.346,3,3v4h-2v-4c0-.551-.448-1-1-1h-3.008l2.302,2.291-1.414,1.414-3.299-3.298Zm15.419-8.406h-1.682l-1.703,15.331c-.17,1.522-1.452,2.669-2.982,2.669H7.328c-1.531,0-2.812-1.147-2.981-2.669l-1.704-15.331h-1.643v-2h6v-2c0-1.103.897-2,2-2h6c1.103,0,2,.897,2,2v2h6v2Zm-14-2h6v-2h-6v2Zm10.305,2H4.656l1.679,15.11c.056.507.483.89.993.89h9.305c.51,0,.938-.383.994-.891l1.678-15.109Z"/></svg>
