<?xml version="1.0" encoding="UTF-8"?>
<svg xmlns="http://www.w3.org/2000/svg" id="Layer_1" data-name="Layer 1" viewBox="0 0 24 24">
  <path d="m4,18c0,2.78,2.779,4.03,2.897,4.082l-.792,1.837c-.167-.071-4.106-1.807-4.106-5.919s5.399-6.337,5.628-6.429l.744,1.856c-1.216.491-4.373,2.269-4.373,4.572Zm19,1.439c-.021-1.424-.78-2.975-2.258-4.61-1.452-1.606-2.898-4.765-3.955-7.071l-.419-.909c-1.077-2.318-1.368-3.433-1.368-6.849h-2c0,3.532.291,4.97,1.555,7.69l.414.9c1.11,2.425,2.631,5.744,4.289,7.579,1.14,1.262,1.742,2.413,1.742,3.33,0,.007.093.919-.447,1.541-.511.589-1.488.906-2.807.944-1.162-.075-1.853-.648-2.705-1.367-.496-.42-1.008-.854-1.652-1.219-1.033-.586-1.812-.466-2.282-.259-.549.239-.812.646-.88.766s-.282.554-.205,1.148c.065.509.36,1.238,1.394,1.824,1.846,1.047,3.746,1.115,6.084,1.12h0c.006.001.01,0,.016,0,.161,0,.319.001.484.001,1.816-.087,3.197-.648,4.064-1.648,1.024-1.182.972-2.542.936-2.912Z"/>
</svg>
