<?xml version="1.0" encoding="UTF-8"?>
<svg xmlns="http://www.w3.org/2000/svg" id="Layer_1" data-name="Layer 1" viewBox="0 0 24 24">
  <path d="m23.494,21.953c-.713,1.281-2.014,2.047-3.48,2.047H3.986c-1.466,0-2.767-.766-3.48-2.047-.712-1.281-.676-2.791.098-4.036L8.704,4.881c.551-.887,1.359-1.493,2.296-1.747V0h2v3.135c.94.255,1.746.86,2.296,1.745h0s0,0,0,0l.54.869-1.177,1.895-1.061-1.708h0c-.378-.608-.933-.933-1.604-.936-.659.004-1.213.328-1.592.937L2.303,18.972c-.385.62-.403,1.371-.049,2.01.355.638,1.002,1.019,1.732,1.019h16.027c.73,0,1.377-.381,1.732-1.019.354-.639.336-1.39-.049-2.01l-3.506-5.642,1.177-1.895,4.028,6.482c.774,1.245.81,2.755.098,4.036Zm-9.913-8.782l6.241-10.046,1.699,1.055-6.293,10.13c.483.6.772,1.362.772,2.19,0,1.93-1.57,3.5-3.5,3.5s-3.5-1.57-3.5-3.5,1.57-3.5,3.5-3.5c.377,0,.74.06,1.081.171Zm.419,3.329c0-.827-.673-1.5-1.5-1.5s-1.5.673-1.5,1.5.673,1.5,1.5,1.5,1.5-.673,1.5-1.5Z"/>
</svg>
