<?xml version="1.0" encoding="UTF-8"?>
<svg xmlns="http://www.w3.org/2000/svg" id="Layer_1" data-name="Layer 1" viewBox="0 0 24 24">
  <path d="m18,15c0-2.226.957-4.27,2.626-5.608l.971-.779-.97-.78c-1.018-.818-2.17-1.366-3.39-1.636.001-.001.002-.002.003-.003,1.969-1.97,1.758-5.125,1.748-5.259l-.063-.859-.859-.063c-.134-.011-3.289-.222-5.259,1.748-.219.219-.408.455-.577.698-.344-1.02-.736-1.85-1.039-2.406l-1.756.957c.414.759,1.308,2.635,1.519,4.99h-2.453c-1.862,0-3.635.634-5.126,1.832l-.971.78.972.779c1.668,1.338,2.625,3.383,2.625,5.608s-.957,4.271-2.625,5.608l-.972.779.971.78c1.492,1.198,3.264,1.832,5.126,1.832,1.204,0,2.403-.275,3.5-.8,1.096.524,2.295.8,3.5.8,1.862,0,3.636-.634,5.127-1.832l.97-.78-.971-.779c-1.669-1.339-2.626-3.383-2.626-5.608Zm-3.779-11.826c.78-.779,1.928-1.046,2.738-1.133-.087.811-.354,1.958-1.133,2.738-.781.78-1.944,1.064-2.771,1.166.102-.827.386-1.99,1.166-2.771Zm-1.729,18.028l-.492-.277-.491.277c-1.842,1.038-4.08,1.05-5.909.057,1.539-1.668,2.4-3.886,2.4-6.259s-.861-4.591-2.4-6.259c.897-.487,1.882-.741,2.9-.741h7c1.019,0,2.003.254,2.899.741-1.538,1.668-2.399,3.886-2.399,6.259s.861,4.591,2.399,6.259c-1.829.993-4.069.981-5.908-.057Z"/>
</svg>
