<?xml version="1.0" encoding="UTF-8"?>
<svg xmlns="http://www.w3.org/2000/svg" id="Layer_1" data-name="Layer 1" viewBox="0 0 24 24">
  <path d="m10,6h1.026c-.442.584-.773,1.257-.924,2h-.101c-.552,0-1,.449-1,1v5.742c-.721-.123-1.389-.28-2-.456v-5.286c0-1.654,1.346-3,3-3Zm-6,7.13v-4.13c0-.551.448-1,1-1h.101c.152-.743.482-1.416.924-2h-1.026c-1.654,0-3,1.346-3,3v2.859l.972.698s.365.242,1.028.573Zm11-7.13c-1.654,0-3,1.346-3,3v6c.698,0,1.365-.043,2-.115v-5.885c0-.551.448-1,1-1h4c.552,0,1,.449,1,1v4.117c.659-.332,1.024-.576,1.035-.584l.965-.657v-2.877c0-1.654-1.346-3-3-3h-4Zm-1,18h2v-3.333c-.636.106-1.305.186-2,.243v3.09Zm4,0h2v-4.357c-.613.216-1.278.423-2,.607v3.75Zm-14,0h2v-3.751c-.721-.184-1.387-.39-2-.605v4.356Zm5,0h2v-3.027c-.693-.028-1.359-.085-2-.165v3.192ZM17,5c1.381,0,2.5-1.119,2.5-2.5s-1.119-2.5-2.5-2.5-2.5,1.119-2.5,2.5,1.119,2.5,2.5,2.5Zm-5,0c.403,0,.778-.104,1.115-.273-.381-.659-.615-1.412-.615-2.227s.234-1.568.614-2.227c-.337-.169-.711-.273-1.114-.273-1.381,0-2.5,1.119-2.5,2.5s1.119,2.5,2.5,2.5Zm-5,0c.403,0,.778-.104,1.115-.273-.381-.659-.615-1.412-.615-2.227s.234-1.568.614-2.227c-.337-.169-.711-.273-1.114-.273-1.381,0-2.5,1.119-2.5,2.5s1.119,2.5,2.5,2.5Zm15.426,9.001l-.258.181c-.041.028-4.093,2.818-10.168,2.818S1.844,14.209,1.806,14.182l-.259-.182H0v10h2v-7.392c1.815.943,5.357,2.392,10,2.392s8.197-1.459,10-2.403v7.403h2v-10h-1.574Z"/>
</svg>
