<?xml version="1.0" encoding="UTF-8"?>
<svg xmlns="http://www.w3.org/2000/svg" id="Layer_1" data-name="Layer 1" viewBox="0 0 24 24" width="512" height="512"><path d="M24,12c0,3.542-1.552,6.721-4,8.919v-2.945c1.25-1.669,2-3.733,2-5.974,0-5.514-4.486-10-10-10S2,6.486,2,12c0,4.829,3.441,8.869,8,9.798v2.021C4.334,22.863,0,17.934,0,12,0,5.383,5.383,0,12,0s12,5.383,12,12Zm-14.107-2.985l-.784-1.84c-1.674,.714-3.042,1.852-3.953,3.29l1.689,1.07c.684-1.079,1.766-1.975,3.048-2.521Zm4.999-1.84l-.784,1.84c1.282,.546,2.364,1.441,3.048,2.521l1.689-1.07c-.912-1.438-2.279-2.576-3.953-3.29Zm1.52,7.376c-.02,.015-2.027,1.449-4.411,1.449-2.331,0-4.316-1.73-4.336-1.747l-1.33,1.493c.103,.092,2.559,2.254,5.666,2.254v3c0,.552,.448,1,1,1s1-.448,1-1v-3.25c.759-.179,1.444-.428,2-.683v5.934c0,.552,.448,1,1,1s1-.448,1-1l-.002-9.599-1.586,1.149Z"/></svg>
