<?xml version="1.0" encoding="UTF-8"?>
<svg xmlns="http://www.w3.org/2000/svg" id="Layer_1" data-name="Layer 1" viewBox="0 0 24 24">
  <path d="m22,7h-.062c-.448-3.623-3.327-7-8.438-7-2.004,0-4.135.486-6.012,1.608C5.99.906,3.953.248,1.313.004.394-.081-.451,1.127.273,1.699c1.591,1.259,2.661,2.666,3.379,3.936-1.025,1.889-1.651,4.314-1.651,7.365,0,2.432.611,4.698,1.076,6.07-1.822.904-3.076,2.792-3.076,4.959,4.173,0,5.5-2.776,5.5-2.776,0,0,1.378,2.776,5.5,2.776,0-2.306-1.419-4.295-3.431-5.12.206-1.705.859-3.544,1.754-4.842.809-1.173,1.865-1.917,2.977-2.378.487.851,1.042,2.166,1.7,3.81.989-1.978,1.454-3.407,1.636-4.491.158-.006,8.364-.009,8.364-.009v-2c0-1.103-.897-2-2-2Zm-2,2h-3.899c-3.737,0-6.65,1.359-8.424,3.933-1.052,1.525-1.807,3.593-2.072,5.571-.035,0-.436.007-.598.021-.417-1.215-1.006-3.319-1.006-5.525C4,2.53,11.914,2,13.5,2c4.466,0,6.5,3.11,6.5,6v1Z"/>
</svg>
