<?xml version="1.0" encoding="UTF-8"?>
<svg xmlns="http://www.w3.org/2000/svg" id="Layer_1" data-name="Layer 1" viewBox="0 0 24 24" width="512" height="512"><path d="M7,11h-2c0-1.892,1.232-4,3-4s3,2.108,3,4h-2c0-1.054-.68-2-1-2s-1,.946-1,2Zm6,0h2c0-1.054,.68-2,1-2s1,.946,1,2h2c0-1.892-1.232-4-3-4s-3,2.108-3,4Zm4.666,4.746l-1.33-1.493c-.02,.018-2.005,1.748-4.336,1.748s-4.316-1.73-4.336-1.748l-1.33,1.493c.103,.092,2.559,2.254,5.666,2.254s5.563-2.162,5.666-2.254Zm2.964-9.468s3.43-2.389,3.369-4.481c-.029-.99-.836-1.794-1.802-1.794-.966,0-1.726,.802-1.697,1.792-.029-.99-.835-1.794-1.802-1.795-.966,0-1.726,.802-1.697,1.792,.061,2.092,3.63,4.486,3.63,4.486ZM5.197,17.002c-.966,0-1.726,.802-1.697,1.792-.029-.99-.835-1.794-1.802-1.795-.966,0-1.726,.802-1.697,1.792,.061,2.092,3.63,4.486,3.63,4.486,0,0,3.43-2.389,3.369-4.481-.029-.99-.836-1.794-1.802-1.794Zm-3.5-2.002h.002c.273,0,.538,.036,.796,.093-.318-.975-.495-2.013-.495-3.093C2,6.486,6.486,2,12,2c1.075,0,2.108,.175,3.079,.49-.041-.211-.071-.424-.077-.641-.014-.486,.068-.955,.227-1.396-1.029-.288-2.109-.454-3.229-.454C5.383,0,0,5.383,0,12c0,1.12,.166,2.2,.454,3.229,.395-.142,.81-.229,1.243-.229ZM22.912,7.036c-.466,.398-.877,.702-1.137,.883l-.503,.351c.466,1.154,.729,2.411,.729,3.731,0,5.514-4.486,10-10,10-1.312,0-2.562-.261-3.71-.722-.342,.603-.774,1.157-1.225,1.647,1.508,.684,3.175,1.074,4.935,1.074,6.617,0,12-5.383,12-12,0-1.772-.396-3.449-1.088-4.964Z"/></svg>
