<?xml version="1.0" encoding="UTF-8"?>
<svg xmlns="http://www.w3.org/2000/svg" id="Layer_1" data-name="Layer 1" viewBox="0 0 24 24" width="512" height="512"><path d="M24,14v7c0,1.65-1.35,3-3,3H3c-1.65,0-3-1.35-3-3v-7H5.35l1.74,2H2v5c0,.55,.45,1,1,1H21c.55,0,1-.45,1-1v-5h-5.09l1.73-2h5.36Zm0-11v7H13v4h3l-3.16,3.65c-.44,.49-1.22,.49-1.66,0l-3.18-3.65h3v-4H0V3C0,1.35,1.35,0,3,0H21c1.65,0,3,1.35,3,3Zm-3-1h-1.59l-6,6h3.17l5.35-5.35c-.14-.38-.51-.65-.94-.65Zm-4.41,0h-3.17l-6,6h3.17l6-6ZM2,3v1.59l2.59-2.59h-1.59c-.55,0-1,.45-1,1Zm0,5h2.59L10.59,2h-3.17L2,7.41v.59Zm20,0v-2.59l-2.59,2.59h2.59Z"/></svg>
