<?xml version="1.0" encoding="UTF-8"?>
<svg xmlns="http://www.w3.org/2000/svg" id="Layer_1" data-name="Layer 1" viewBox="0 0 24 24" width="512" height="512"><path d="m21.03,2.98C17.831-.219,13.556-.959,11.3,1.298c-4.659,4.659-5.273,12.306-5.297,12.629l-.034.456,1.117,1.117-4.279,4.278c-.256-.462-.742-.778-1.307-.778-.828,0-1.5.672-1.5,1.5s.672,1.5,1.5,1.5c.237,0,.459-.06.658-.158-.098.199-.158.421-.158.658,0,.828.672,1.5,1.5,1.5s1.5-.672,1.5-1.5c0-.565-.317-1.052-.779-1.308l4.279-4.278,1.116,1.116.456-.033c.324-.023,7.981-.627,12.64-5.287,2.256-2.256,1.518-6.53-1.682-9.73Zm-10.66,12.976l-2.326-2.326c.139-1.146.642-4.324,2.156-7.341.387,1.608,1.327,3.284,2.782,4.739s3.122,2.394,4.725,2.784c-3.014,1.504-6.192,2.005-7.337,2.144Zm10.928-4.66c-1.414,1.415-4.575.644-6.902-1.683-1.198-1.198-2.011-2.618-2.29-3.998-.25-1.231-.033-2.263.608-2.904.481-.481,1.165-.709,1.949-.709,1.52,0,3.418.858,4.953,2.392,2.326,2.327,3.097,5.487,1.682,6.902Zm-3.567-5.017c.725.725.988,1.637.587,2.038s-1.313.138-2.038-.587-.988-1.637-.587-2.038,1.313-.138,2.038.587Z"/></svg>
