<?xml version="1.0" encoding="UTF-8"?>
<svg xmlns="http://www.w3.org/2000/svg" id="Layer_1" data-name="Layer 1" viewBox="0 0 24 24">
  <path d="m21.841,10h-1.351c-.131.372-.288.734-.467,1.086l.832,4.914h-5.186l-.929.909.639,5.091h-6.756l.638-5.09-.93-.91H3.146l.874-4.841c-.196-.375-.365-.761-.505-1.159h-1.356L.015,22.329l-.015,1.671h24v-1.5l-2.159-12.5Zm-15.232,12H2.102l.696-4h4.272l-.462,4Zm10.782,0l-.462-4h4.273l.696,4h-4.507Zm-5.391-5.209l4.949-4.841c1.322-1.322,2.051-3.08,2.051-4.95s-.729-3.627-2.051-4.95c-1.321-1.322-3.079-2.05-4.949-2.05s-3.627.728-4.95,2.05c-2.729,2.729-2.729,7.17.008,9.907l4.942,4.833Zm-3.536-13.327c.944-.944,2.2-1.464,3.536-1.464s2.591.52,3.535,1.464,1.465,2.2,1.465,3.536-.521,2.591-1.457,3.528l-3.543,3.466-3.536-3.458c-1.949-1.95-1.949-5.122,0-7.071Zm.535,3.526c0-1.657,1.343-3,3-3s3,1.343,3,3-1.343,3-3,3-3-1.343-3-3Z"/>
</svg>
