<?xml version="1.0" encoding="UTF-8"?>
<svg xmlns="http://www.w3.org/2000/svg" id="Layer_1" data-name="Layer 1" viewBox="0 0 24 24" width="512" height="512"><path d="M8.5,14c-.828,0-1.5-.672-1.5-1.5s.672-1.5,1.5-1.5,1.5,.672,1.5,1.5-.672,1.5-1.5,1.5Zm7-3c-.828,0-1.5,.672-1.5,1.5s.672,1.5,1.5,1.5,1.5-.672,1.5-1.5-.672-1.5-1.5-1.5Zm-3.501,9c2.778-.003,4.488-2.101,5.001-4,0-.001-2.501,1-5,1s-5-1.001-5-1c.512,1.899,2.221,3.997,4.999,4Zm0-10C4.675,10,.208,5.688,.021,5.505l.701-.713,.699-.715c.021,.02,1.047,1.002,2.879,1.979,.371-.923,1.092-2.705,1.421-3.457C6.665,.451,8.24,0,9.395,0c.903,0,1.886,.385,2.597,1.006,.7-.621,1.667-1.006,2.556-1.006,1.621,0,3.016,.972,3.729,2.598,.328,.75,1.045,2.521,1.417,3.448,1.806-.972,2.813-1.945,2.833-1.964l1.408,1.42c-.185,.184-4.607,4.499-11.936,4.499Zm-5.878-3.109c1.612,.627,3.595,1.109,5.878,1.109s4.27-.485,5.877-1.114c-.356-.886-1.106-2.743-1.431-3.485-.185-.421-.74-1.401-1.897-1.401-.718,0-1.548,.605-1.548,1h-2c0-.38-.896-1-1.605-1-.605,0-1.298,.167-1.84,1.402-.325,.742-1.078,2.604-1.433,3.488Zm13.12,3.75c.477,1.024,.758,2.157,.758,3.359,0,4.411-3.589,8-8,8s-8-3.589-8-8c0-1.2,.28-2.332,.756-3.354-.658-.253-1.269-.523-1.829-.803-.585,1.269-.927,2.671-.927,4.157,0,5.514,4.486,10,10,10s10-4.486,10-10c0-1.49-.343-2.896-.931-4.167-.559,.281-1.169,.553-1.827,.807Z"/></svg>
