<?xml version="1.0" encoding="UTF-8"?>
<svg xmlns="http://www.w3.org/2000/svg" id="Layer_1" data-name="Layer 1" viewBox="0 0 24 24">
  <path d="m17,9.04V2h2V0H5v2h2v7.04c-1.497,1.311-7,6.427-7,10.817,0,3.035,2.927,4.102,3.044,4.143h17.912c.117-.042,3.044-1.108,3.044-4.143,0-4.39-5.503-9.506-7-10.817Zm3.585,12.96H3.415c-.396-.186-1.415-.796-1.415-2.143,0-.9.347-1.899.89-2.908h15.768c-.434-.656-.958-1.337-1.524-2H4.188c1.513-2.019,3.43-3.833,4.45-4.679l.362-.3V2h6v7.97l.362.3c1.846,1.529,6.638,6.232,6.638,9.587,0,1.347-1.019,1.957-1.415,2.143Z"/>
</svg>
