<?xml version="1.0" encoding="UTF-8"?>
<svg xmlns="http://www.w3.org/2000/svg" id="Layer_1" data-name="Layer 1" viewBox="0 0 24 24" width="512" height="512"><path d="M21,4h-3v-1c0-1.65-1.35-3-3-3H3C1.35,0,0,1.35,0,3v14.86c0,.79,.43,1.52,1.13,1.89,.32,.17,.67,.25,1.01,.25,.42,0,.83-.12,1.19-.36l2.66-1.77v3.13h10.7l3.96,2.64c.36,.24,.77,.36,1.19,.36,.35,0,.7-.08,1.01-.25,.7-.37,1.13-1.1,1.13-1.89V7c0-1.65-1.35-3-3-3ZM2.23,17.98s-.07,.05-.15,0c-.08-.04-.08-.11-.08-.13V3c0-.55,.45-1,1-1H15c.55,0,1,.45,1,1V15H6.7l-4.47,2.98Zm19.77,3.88s0,.09-.08,.13c-.08,.04-.13,0-.15,0l-4.47-2.98H8v-2h10V6h3c.55,0,1,.45,1,1v14.86ZM8,13c-1.65,0-3-1.35-3-3h2c0,.55,.45,1,1,1h2.38c.34,0,.62-.28,.62-.62,0-.31-.22-.57-.52-.62l-3.29-.55c-1.27-.21-2.19-1.3-2.19-2.59,0-1.45,1.18-2.62,2.62-2.62h.38v-1h2v1c1.65,0,3,1.35,3,3h-2c0-.55-.45-1-1-1h-2.38c-.34,0-.62,.28-.62,.62,0,.31,.22,.56,.52,.62l3.28,.55c1.27,.21,2.19,1.3,2.19,2.59,0,1.45-1.18,2.62-2.62,2.62h-.38v1h-2v-1Z"/></svg>
