<?xml version="1.0" encoding="UTF-8"?>
<svg xmlns="http://www.w3.org/2000/svg" id="Layer_1" data-name="Layer 1" viewBox="0 0 24 24">
  <path d="m15,9.198V3.107c0-1.516-1.076-2.835-2.503-3.067-.877-.142-1.768.102-2.439.674-.672.571-1.058,1.404-1.058,2.286v11.565l-.955-.758c-1.207-1.128-3.108-1.063-4.236.144-1.13,1.208-1.066,3.11.13,4.23l6.034,5.818h14.027v-12.802l-9-2Zm7,12.802h-11.219l-5.464-5.268c-.403-.378-.424-1.013-.047-1.416.375-.401,1.008-.423,1.47.004l4.26,3.392V3c0-.294.129-.572.353-.763.227-.193.516-.273.822-.223.462.075.825.555.825,1.093v7.694l9,2v9.198ZM4.032,10.014c-.456,0-.912-.174-1.259-.521L.012,6.732l1.414-1.414,1.574,1.573V0h2v6.957l1.639-1.639,1.414,1.414-2.761,2.761c-.348.347-.804.521-1.26.521Z"/>
</svg>
