<?xml version="1.0" encoding="UTF-8"?>
<svg xmlns="http://www.w3.org/2000/svg" id="Layer_1" data-name="Layer 1" viewBox="0 0 24 24">
  <path d="m19,0H5c-1.654,0-3,1.346-3,3v21h20V3c0-1.654-1.346-3-3-3Zm1,22H4V3c0-.551.448-1,1-1h14c.552,0,1,.449,1,1v19ZM6.5,6c-.828,0-1.5-.672-1.5-1.5s.672-1.5,1.5-1.5,1.5.672,1.5,1.5-.672,1.5-1.5,1.5Zm2.5-1.5c0-.828.672-1.5,1.5-1.5s1.5.672,1.5,1.5-.672,1.5-1.5,1.5-1.5-.672-1.5-1.5Zm3,3.5c-3.309,0-6,2.691-6,6s2.691,6,6,6,6-2.691,6-6-2.691-6-6-6Zm-1.629,7.73c.1.522.783.858.79.862l-.828,1.82c-.166-.075-1.635-.775-1.927-2.31-.167-.881.283-1.796.718-2.585.492-.892.517-1.169.505-1.247-.1-.522-.783-.858-.79-.862l.828-1.82c.166.075,1.635.775,1.927,2.31.167.881-.283,1.796-.718,2.585-.492.892-.517,1.169-.505,1.247Zm4,0c.1.522.783.858.79.862l-.828,1.82c-.166-.075-1.635-.775-1.927-2.31-.167-.881.283-1.796.718-2.585.492-.892.517-1.169.505-1.247-.1-.522-.783-.858-.79-.862l.828-1.82c.166.075,1.635.775,1.927,2.31.167.881-.283,1.796-.718,2.585-.492.892-.517,1.169-.505,1.247Z"/>
</svg>
