<?xml version="1.0" encoding="UTF-8"?>
<svg xmlns="http://www.w3.org/2000/svg" id="Layer_1" data-name="Layer 1" viewBox="0 0 24 24">
  <path d="m23.997,18.993l-1.366.005h-.011c-.997,0-1.991-.121-2.96-.361l-.9-.223c-1.128-.279-2.285-.42-3.446-.42h-.013l-4.8.004c-.829,0-1.501-.671-1.501-1.499s.671-1.499,1.499-1.499h6.501v-2h-2.002l4.933-5.487,4.069,1.795v-2.05l-2.728-1.254c.464-.55.729-1.231.729-1.958,0-.817-.318-1.584-.896-2.162-1.155-1.155-3.125-1.203-4.368.047l-1.593,1.814-9.613,3.756-.03-.002L.513,13.618c-.75.937-.669,2.289.186,3.131.296.292.652.476,1.024.578l1.442-1.704-.931-.23c-.09-.027-.122-.059-.133-.07-.125-.123-.137-.32-.039-.443l4.666-5.725,5.685-2.303L2,18.714v4.286h4.373l2.803-3.311c.452.194.944.311,1.461.311h.006l4.66-.005c1.009.037,2.002.12,2.974.36l.897.222c1.128.279,2.286.421,3.449.421h.013l1.369-.005-.007-2Zm-5.801-15.695c.398-.399,1.095-.4,1.495,0,.2.199.31.465.31.747s-.11.548-.347.786l-7.345,8.168-2.293.01c-.152.022-.296.068-.441.109L18.196,3.298ZM5.445,21h-1.445v-1.532l3.052-3.476c-.051.359-.063.727,0,1.097.084.494.289.944.568,1.343l-2.174,2.568Z"/>
</svg>
