<?xml version="1.0" encoding="UTF-8"?>
<svg xmlns="http://www.w3.org/2000/svg" id="Layer_1" data-name="Layer 1" viewBox="0 0 24 24">
  <path d="m23.7,19.214l-4.293,4.207c-.385.385-.894.579-1.404.579s-1.026-.195-1.417-.586l-4.25-4.25,1.414-1.414,3.252,3.252L17.026,0l2,.002-.024,21.017,3.298-3.232,1.399,1.429ZM15,1.353c-1.473-.855-3.178-1.353-5-1.353C4.486,0,0,4.486,0,10s4.486,10,10,10v-2c-4.411,0-8-3.589-8-8S5.589,2,10,2c1.891,0,3.629.663,5,1.765V1.353ZM4,10c0,3.309,2.691,6,6,6v-2c-2.206,0-4-1.794-4-4s1.794-4,4-4v-2c-3.309,0-6,2.691-6,6Z"/>
</svg>
