<?xml version="1.0" encoding="UTF-8"?>
<svg xmlns="http://www.w3.org/2000/svg" id="Layer_1" data-name="Layer 1" viewBox="0 0 24 24">
  <path d="m24,3c0-1.654-1.346-3-3-3H6.5c-1.93,0-3.5,1.57-3.5,3.5v4.5h2V3.5c0-.827.673-1.5,1.5-1.5s1.5.673,1.5,1.5v2.5h11v15c0,.551-.449,1-1,1h-5v2h5c1.654,0,3-1.346,3-3V6h3v-3Zm-2,1h-12v-.5c0-.537-.122-1.045-.338-1.5h11.338c.551,0,1,.449,1,1v1Zm-13.5,6H2.5c-1.378,0-2.5,1.122-2.5,2.5v11.5h11v-11.5c0-1.378-1.122-2.5-2.5-2.5Zm.5,12H2v-9.5c0-.276.224-.5.5-.5h6c.276,0,.5.224.5.5v9.5ZM3,13h5v2H3v-2Zm3,3h2v2h-2v-2Zm-3,0h2v2h-2v-2Zm3,3h2v2h-2v-2Zm-3,0h2v2h-2v-2Z"/>
</svg>
