<?xml version="1.0" encoding="UTF-8"?>
<svg xmlns="http://www.w3.org/2000/svg" id="Layer_1" data-name="Layer 1" viewBox="0 0 24 24">
  <path d="m23.114.886c-1.178-1.179-3.095-1.178-4.275,0l-3.408,3.407c-1.337,1.338-3.462,1.368-4.837.07l-1.393,1.435,2.025,2.025L2.025,17.025c-1.119,1.119-1.32,2.813-.604,4.139l-1.422,1.422,1.414,1.414,1.42-1.42c.506.274,1.074.42,1.666.42.935,0,1.814-.364,2.475-1.025l9.202-9.202,2.025,2.025,1.435-1.394c-1.297-1.375-1.266-3.499.071-4.836l3.407-3.407c.571-.57.886-1.33.886-2.138s-.314-1.567-.886-2.138ZM5.56,20.561c-.565.566-1.554.566-2.121,0-.584-.585-.584-1.536,0-2.121l2.439-2.439h4.242l-4.561,4.561Zm6.561-6.561h-4.242l4.762-4.763,2.121,2.121-2.642,2.641ZM21.7,3.747l-3.407,3.407c-.934.934-1.463,2.11-1.586,3.32l-3.182-3.182c1.21-.123,2.387-.652,3.321-1.586l3.408-3.407c.4-.398,1.049-.398,1.447,0,.193.193.3.45.3.724s-.106.53-.3.724Z"/>
</svg>
