<?xml version="1.0" encoding="UTF-8"?>
<svg xmlns="http://www.w3.org/2000/svg" id="Layer_1" data-name="Layer 1" viewBox="0 0 24 24">
  <path d="m3,9c0,1.687.716,3.305,1.964,4.44,1.106,1.006,2.557,1.559,4.049,1.559.19,0,.382-.009.573-.027,3.036-.289,5.414-3.007,5.414-6.187v-.785h1v-2h-1v-.5c0-3.032-2.467-5.5-5.5-5.5h-1C5.467,0,3,2.468,3,5.5v.5h-1v2h1v1Zm10-.215c0,2.16-1.583,4.003-3.604,4.196-1.146.106-2.243-.253-3.086-1.021-.833-.758-1.31-1.836-1.31-2.961v-1h8v.785Zm-8-3.285c0-1.758,1.308-3.204,3-3.449v2.949h2v-2.949c1.692.245,3,1.691,3,3.449v.5H5v-.5Zm8,12.5H5c-1.654,0-3,1.346-3,3v3H0v-3c0-2.757,2.243-5,5-5h8v2Zm6,3h5v3h-5v-3Zm5-10v3h-5v-3h5Zm-12,10h5v3h-5v-3Zm3-5h5v3h-5v-3Zm7,0h2v3h-2v-3Z"/>
</svg>
