<?xml version="1.0" encoding="UTF-8"?>
<svg xmlns="http://www.w3.org/2000/svg" id="Layer_1" data-name="Layer 1" viewBox="0 0 24 24">
  <path d="m8,12c3.309,0,6-2.691,6-6S11.309,0,8,0,2,2.691,2,6s2.691,6,6,6Zm0-10c2.206,0,4,1.794,4,4s-1.794,4-4,4-4-1.794-4-4,1.794-4,4-4Zm-3,12h5v2h-5c-1.654,0-3,1.346-3,3v5H0v-5c0-2.757,2.243-5,5-5Zm17,0v-1c0-2.206-1.794-4-4-4s-4,1.794-4,4v1h-2v7c0,1.654,1.346,3,3,3h6c1.654,0,3-1.346,3-3v-7h-2Zm-6-1c0-1.103.897-2,2-2s2,.897,2,2v1h-4v-1Zm6,8c0,.551-.449,1-1,1h-6c-.551,0-1-.449-1-1v-5h8v5Zm-3-1h-2v-2h2v2Z"/>
</svg>
