<?xml version="1.0" encoding="UTF-8"?>
<svg xmlns="http://www.w3.org/2000/svg" id="Layer_1" data-name="Layer 1" viewBox="0 0 24 24" width="512" height="512"><path d="M9.758,14h-.758v5h-2v-7.758l2.758,2.758ZM24,3V24H0V3C0,1.346,1.346,0,3,0H21c1.654,0,3,1.346,3,3Zm-3-1H3.414L7.607,6.193c.548-.724,1.417-1.193,2.393-1.193h3.5c2.481,0,4.5,2.019,4.5,4.5,0,1.913-1.199,3.55-2.886,4.2l6.886,6.886V3c0-.551-.448-1-1-1Zm-7.5,10c1.379,0,2.5-1.122,2.5-2.5s-1.121-2.5-2.5-2.5h-3.5c-.428,0-.794,.271-.936,.649l4.351,4.351h.086ZM2,22H20.586L2,3.414V22Z"/></svg>
