<?xml version="1.0" encoding="UTF-8"?>
<svg xmlns="http://www.w3.org/2000/svg" id="Layer_1" data-name="Layer 1" viewBox="0 0 24 24" width="512" height="512"><path d="m9.371,12.736l2.676-2.676.815.815,1.414-1.414-.903-.903c.294-.484.484-1.015.57-1.558h2.056v-2h-2.206c-.104-.328-.249-.646-.434-.945l1.476-1.475-1.414-1.414-1.475,1.475c-.297-.184-.614-.33-.946-.436V0h-2v2.054c-.554.088-1.082.282-1.558.572l-1.506-1.507-1.414,1.414,1.42,1.42-1.988,1.988-1.42-1.42-1.414,1.414,1.506,1.506c-.29.476-.484,1.004-.572,1.558H0v2h2.204c.106.332.252.649.436.946l-1.474,1.475,1.414,1.414,1.475-1.475c.3.185.618.329.946.434v2.206h2v-2.056c.868-.138,1.702-.541,2.37-1.208Zm-1.326-8.057c.438-.438,1.02-.679,1.639-.679s1.201.241,1.639.679c.903.903.903,2.374,0,3.277l-3.365,3.365c-.903.904-2.374.903-3.277,0-.438-.438-.679-1.02-.679-1.639s.241-1.201.679-1.639l3.365-3.365Zm15.956,10.321v-2h-2.206c-.104-.328-.249-.646-.434-.945l1.476-1.475-1.414-1.414-1.475,1.475c-.297-.184-.614-.33-.946-.436v-2.204h-2v2.054c-.894.141-1.718.559-2.37,1.211l-2.677,2.677-.832-.832-1.414,1.414.918.918c-.29.476-.484,1.004-.572,1.558h-2.053v2h2.204c.106.332.252.649.436.946l-1.474,1.475,1.414,1.414,1.475-1.475c.3.185.618.329.946.434v2.206h2v-2.056c.543-.086,1.073-.276,1.558-.57l1.512,1.511,1.414-1.414-1.424-1.424,1.987-1.987,1.424,1.424,1.414-1.414-1.511-1.511c.294-.484.484-1.015.57-1.558h2.056Zm-8.043,4.322c-.904.904-2.375.903-3.277,0-.438-.438-.679-1.02-.679-1.639s.241-1.201.679-1.639l3.365-3.365c.438-.438,1.02-.679,1.639-.679s1.201.241,1.639.679c.903.903.903,2.374,0,3.277l-3.365,3.365Zm-7.956-12.322c0-.552.448-1,1-1s1,.448,1,1-.448,1-1,1-1-.448-1-1Zm8,10c0,.552-.448,1-1,1s-1-.448-1-1,.448-1,1-1,1,.448,1,1Z"/></svg>
