<?xml version="1.0" encoding="UTF-8"?>
<svg xmlns="http://www.w3.org/2000/svg" id="Layer_1" data-name="Layer 1" viewBox="0 0 24 24" width="512" height="512"><path d="M6,15v-2h2.947c.363-.729,.82-1.4,1.359-2H2.861c.139-.485,.283-.97,.457-1.447L5.461,3.658c.143-.394,.521-.658,.939-.658h11.199c.419,0,.796,.265,.939,.658l1.816,4.995c.989,.398,1.887,.968,2.665,1.671-.143-.487-.284-.975-.459-1.455l-2.144-5.895c-.429-1.181-1.562-1.975-2.818-1.975H6.401c-1.257,0-2.39,.793-2.819,1.975L1.438,8.869c-.954,2.624-1.438,5.371-1.438,8.163v1.968H2v4h6v-6H2c.002-1.349,.136-2.685,.382-4h1.618v2h2Zm0,6h-2v-2h2v2Zm11-11c-3.859,0-7,3.14-7,7s3.141,7,7,7,7-3.14,7-7-3.141-7-7-7Zm-5,7c0-2.453,1.777-4.5,4.111-4.921l-2.041,3.839c-.147,.487-.054,1.021,.249,1.43,.304,.409,.788,.652,1.297,.652h2.129l-1.964,3.849c-2.169-.546-3.78-2.513-3.78-4.849Zm6,4.9l1.77-3.469c.291-.484,.308-1.085,.038-1.585-.279-.521-.82-.845-1.412-.845h-2.122l2.055-3.821c2.114,.583,3.672,2.523,3.672,4.821,0,2.415-1.721,4.435-4,4.9Z"/></svg>
