<?xml version="1.0" encoding="UTF-8"?>
<svg xmlns="http://www.w3.org/2000/svg" id="Layer_1" data-name="Layer 1" viewBox="0 0 24 24">
  <path d="m21,6h-11.943L21.323,1.959l-.626-1.899L2.571,6.031c-1.452.209-2.571,1.46-2.571,2.969v15h24v-15c0-1.654-1.346-3-3-3Zm1,16H2v-13c0-.552.441-1,.994-1,3.908,0,18.006,0,18.006,0,.551,0,1,.449,1,1v13ZM4,14h5v2h-5v-2Zm0,4h5v2h-5v-2Zm0-8h5v2h-5v-2Zm11.5.5c-2.481,0-4.5,2.019-4.5,4.5s2.019,4.5,4.5,4.5,4.5-2.019,4.5-4.5-2.019-4.5-4.5-4.5Zm0,7c-1.378,0-2.5-1.122-2.5-2.5s1.122-2.5,2.5-2.5,2.5,1.122,2.5,2.5-1.122,2.5-2.5,2.5Z"/>
</svg>
