<?xml version="1.0" encoding="UTF-8"?>
<svg xmlns="http://www.w3.org/2000/svg" id="Layer_1" data-name="Layer 1" viewBox="0 0 24 24">
  <path d="m22.813,7.635l-.813-.637V2h-2v3.431L13.907.658c-1.123-.881-2.692-.879-3.815,0L1.188,7.635c-.755.591-1.188,1.479-1.188,2.439v13.926h24v-13.926c0-.959-.433-1.848-1.187-2.439Zm-.813,14.365H2v-11.926c0-.341.153-.655.421-.865L11.326,2.232c.396-.311.952-.311,1.349,0l8.905,6.977c.268.21.421.525.421.865v11.926Zm-7.77-13c-.89,0-1.674.318-2.25.852-.575-.533-1.36-.852-2.25-.852-1.792,0-3.25,1.538-3.25,3.43,0,2.981,4.425,6.141,4.93,6.491l.57.396.57-.396c.504-.351,4.929-3.51,4.929-6.491,0-1.892-1.458-3.43-3.25-3.43Zm-2.248,7.857c-1.415-1.1-3.501-3.095-3.501-4.428,0-.788.561-1.43,1.25-1.43.622,0,1.25.374,1.25,1.209h.019v.791h2v-1h-.005c.096-.689.668-1,1.235-1,.689,0,1.25.642,1.25,1.43,0,1.238-1.891,3.187-3.498,4.428Z"/>
</svg>
