<?xml version="1.0" encoding="UTF-8"?>
<svg xmlns="http://www.w3.org/2000/svg" id="Layer_1" data-name="Layer 1" viewBox="0 0 24 24">
  <path d="m5,14h5.76c-.392.585-.651,1.266-.732,2h-5.028c-1.654,0-3,1.346-3,3v5H0v-5c0-2.757,2.243-5,5-5Zm19,2.5v7.5h-12v-7.5c0-1.378,1.122-2.5,2.5-2.5h.5v-.5c0-.827.673-1.5,1.5-1.5h3c.827,0,1.5.673,1.5,1.5v.5h.5c1.378,0,2.5,1.122,2.5,2.5Zm-10,0v1.5h8v-1.5c0-.276-.224-.5-.5-.5h-7c-.276,0-.5.224-.5.5Zm8,5.5v-2h-3v1h-2v-1h-3v2h8ZM2.962,12.454c-.879.322-1.689.804-2.388,1.417.876-3.728,2.106-8.945,2.224-9.32C3.565,2.106,5.658.394,8.144.068c.28-.04.565-.068.856-.068,2.854,0,5.347,1.829,6.202,4.55.08.254.669,2.724,1.313,5.45h-.015c-.703,0-1.358.208-1.907.566-.67-2.84-1.225-5.165-1.3-5.421-.313-.995-.949-1.81-1.766-2.364-.527,1.317-1.448,2.434-2.675,3.198-1.081.674-2.303,1.021-3.546,1.021-.055,0-.111-.008-.167-.01.444,1.725,1.999,3.009,3.861,3.009,1.229,0,2.331-.557,3.065-1.433.158.666.337,1.42.529,2.234-1.002.752-2.247,1.198-3.594,1.198-2.232,0-4.18-1.228-5.213-3.041-.252,1.062-.535,2.261-.825,3.495ZM9,2c-1.857,0-3.409,1.279-3.857,2.998.929.032,1.846-.212,2.651-.715.856-.534,1.491-1.314,1.863-2.23-.215-.031-.434-.052-.657-.052Z"/>
</svg>
