<?xml version="1.0" encoding="UTF-8"?>
<svg xmlns="http://www.w3.org/2000/svg" id="Layer_1" data-name="Layer 1" viewBox="0 0 24 24">
  <path d="m7.757,8c-.757,0-1.281.587-1.385,1.167l-1.372,6.833h1.469l.275-1.474h2.006l.262,1.474h1.488l-1.397-6.807c-.12-.668-.589-1.192-1.346-1.192Zm-.645,5l.624-3.295.638,3.295h-1.261Zm5.488-2.507v3c0,.496.404.9.9.9.458,0,.823-.349.878-.793h-.878v-1.6h2.5v1.6h-.011c-.057,1.33-1.145,2.393-2.489,2.393-1.381,0-2.5-1.119-2.5-2.5v-3c0-1.381,1.119-2.5,2.5-2.5s2.5,1.119,2.5,2.5h-1.6c0-.496-.404-.9-.9-.9s-.9.404-.9.9Zm6-.893v1.801h1.9v1.6h-1.9v1.4h1.9v1.6h-3.5v-8h3.5v1.6h-1.9Zm4.777,8.4c-2.079,3.581-5.946,6-10.376,6-6.617,0-12-5.383-12-12S6.383,0,13,0c2.528,0,4.968.799,7,2.261V0h2v4c0,1.103-.897,2-2,2h-4v-2h2.997c-1.724-1.294-3.822-2-5.997-2C7.486,2,3,6.486,3,12s4.486,10,10,10c3.262,0,6.154-1.577,7.981-4h2.395Z"/>
</svg>
