<?xml version="1.0" encoding="UTF-8"?>
<svg xmlns="http://www.w3.org/2000/svg" id="Layer_1" data-name="Layer 1" viewBox="0 0 24 24">
  <path d="m21,0H3C1.346,0,0,1.346,0,3v4l1.08,13h1.92v.5c0,1.93,1.57,3.5,3.5,3.5s3.5-1.57,3.5-3.5v-.5h4v.5c0,1.93,1.57,3.5,3.5,3.5s3.5-1.57,3.5-3.5v-.5h1.92l1.08-13V3c0-1.654-1.346-3-3-3Zm1,3l.003,3h-4.003V2h3c.552,0,1,.448,1,1Zm-14,3V2h3v4h-3Zm5-4h3v4h-3V2Zm-10,0h3v4H2v-3c0-.552.449-1,1-1Zm5,18.5c0,.827-.673,1.5-1.5,1.5s-1.5-.673-1.5-1.5v-.5h3v.5Zm11,0c0,.827-.673,1.5-1.5,1.5s-1.5-.673-1.5-1.5v-.5h3v.5Zm-16.08-2.5l-.833-10h19.827l-.834,10H2.92Z"/>
</svg>
