<?xml version="1.0" encoding="UTF-8"?>
<svg xmlns="http://www.w3.org/2000/svg" id="Layer_1" data-name="Layer 1" viewBox="0 0 24 24" width="512" height="512"><path d="M4,8l-1.333-2.667L0,4l2.667-1.333L4,0l1.333,2.667,2.667,1.333-2.667,1.333-1.333,2.667Zm17.824,1.41l-1.71,1.711c.582,1.211,.886,2.538,.886,3.879,0,4.962-4.038,9-9,9S3,19.962,3,15,7.038,6,12,6c1.337,0,2.66,.303,3.869,.881l1.713-1.713,4.242,4.242Zm-2.824,5.59c0-1.243-.338-2.472-.978-3.553l-.395-.668,1.369-1.369-1.414-1.414-1.37,1.37-.667-.394c-1.079-.636-2.305-.972-3.545-.972-3.86,0-7,3.14-7,7s3.14,7,7,7,7-3.14,7-7ZM22.034,1.62C20.976,.562,19.527-.013,18.037,.034c-5.128,.175-9.068,.953-9.233,.986l.392,1.961c.039-.008,3.954-.779,8.909-.948,.937-.033,1.847,.334,2.515,1.001,.532,.533,.532,1.399,0,1.932l-.327,.327,1.414,1.414,.327-.327c1.312-1.312,1.312-3.448,0-4.76Z"/></svg>
