<?xml version="1.0" encoding="UTF-8"?>
<svg xmlns="http://www.w3.org/2000/svg" id="Layer_1" data-name="Layer 1" viewBox="0 0 24 24" width="512" height="512"><path d="M14.41,0H5c-1.65,0-3,1.35-3,3V24H22V7.59L14.41,0Zm.59,3.41l3.59,3.59h-3.59V3.41Zm5,18.59H4V3c0-.55,.45-1,1-1H13v7h7v13ZM9.5,11c-1.93,0-3.5,1.57-3.5,3.5v2c0,1.93,1.57,3.5,3.5,3.5s3.5-1.57,3.5-3.5v-2c0-1.93-1.57-3.5-3.5-3.5Zm1.5,5.5c0,.83-.67,1.5-1.5,1.5s-1.5-.67-1.5-1.5v-2c0-.83,.67-1.5,1.5-1.5s1.5,.67,1.5,1.5v2Zm4.41-1.53l-1.43-1.4,2.51-2.57h1.51v9h-2v-5.63l-.59,.61Z"/></svg>
