<?xml version="1.0" encoding="UTF-8"?>
<svg xmlns="http://www.w3.org/2000/svg" id="Layer_1" data-name="Layer 1" viewBox="0 0 24 24">
  <path d="m24,3v12h-5.294c-.215-.723-.544-1.396-.966-2h4.26V3c0-.551-.448-1-1-1H3c-.552,0-1,.449-1,1v10h4.26c-.422.604-.751,1.277-.966,2H0V3C0,1.346,1.346,0,3,0h18c1.654,0,3,1.346,3,3Zm-7.833,16.753l2.792,2.792-1.414,1.414-2.792-2.792c-.791.524-1.736.833-2.753.833-2.757,0-5-2.243-5-5s2.243-5,5-5,5,2.243,5,5c0,1.017-.309,1.962-.833,2.753Zm-1.167-2.753c0-1.654-1.346-3-3-3s-3,1.346-3,3,1.346,3,3,3,3-1.346,3-3Zm-7.568-7c.368,0,.675-.339.706-.779l.363-4.221h-1.044l-.247,3.158-1.209-2.327-1.209,2.327-.249-3.158h-1.042l.363,4.221c.031.44.337.779.706.779.244,0,.471-.151.601-.4l.831-1.6.831,1.6c.129.249.356.4.601.4Zm3.136,0c.244,0,.471-.151.601-.4l.831-1.6.831,1.6c.129.249.356.4.601.4.368,0,.675-.339.706-.779l.363-4.221h-1.044l-.247,3.158-1.209-2.327-1.209,2.327-.249-3.158h-1.042l.363,4.221c.031.44.337.779.706.779Zm6,0c.244,0,.471-.151.601-.4l.831-1.6.831,1.6c.129.249.356.4.601.4.368,0,.675-.339.706-.779l.363-4.221h-1.044l-.247,3.158-1.209-2.327-1.209,2.327-.249-3.158h-1.042l.363,4.221c.031.44.337.779.706.779Z"/>
</svg>
