<?xml version="1.0" encoding="UTF-8"?>
<svg xmlns="http://www.w3.org/2000/svg" id="Layer_1" data-name="Layer 1" viewBox="0 0 24 24">
  <path d="m21,15h-4.5v-5h-2v5H3c-1.654,0-3,1.346-3,3v6h24v-6c0-1.654-1.346-3-3-3Zm1,7H2v-4c0-.552.449-1,1-1h18c.552,0,1,.448,1,1v4ZM15.5,5c1.817,0,3.526.708,4.812,1.993l-1.414,1.414c-.907-.908-2.114-1.407-3.397-1.407s-2.489.5-3.397,1.407l-1.414-1.414c1.285-1.285,2.994-1.993,4.811-1.993Zm-7.019-.093l-1.414-1.414C9.32,1.241,12.314,0,15.5,0s6.18,1.241,8.433,3.493l-1.414,1.414c-1.875-1.875-4.368-2.907-7.019-2.907s-5.144,1.033-7.019,2.907Zm-2.481,14.593c0,.828-.672,1.5-1.5,1.5s-1.5-.672-1.5-1.5.672-1.5,1.5-1.5,1.5.672,1.5,1.5Zm4,0c0,.828-.672,1.5-1.5,1.5s-1.5-.672-1.5-1.5.672-1.5,1.5-1.5,1.5.672,1.5,1.5Z"/>
</svg>
