<?xml version="1.0" encoding="UTF-8"?>
<svg xmlns="http://www.w3.org/2000/svg" id="Layer_1" data-name="Layer 1" viewBox="0 0 24 24">
  <path d="m17,1.5c0-.828.672-1.5,1.5-1.5s1.5.672,1.5,1.5-.672,1.5-1.5,1.5-1.5-.672-1.5-1.5Zm.928,5.986c1.295,1.604,2.072,3.644,2.072,5.862,0,.645-.086,1.312-.256,1.983l-.192.76-.784-.005c-1.285.006-2.477.484-3.38,1.388-1.129,1.128-1.611,2.737-1.291,4.305l.15.733-.661.351c-1.404.744-2.87,1.138-4.238,1.138-2.218,0-4.257-.777-5.862-2.072l-2.036,2.036L.036,22.55l2.036-2.036c-1.295-1.604-2.072-3.644-2.072-5.862,0-1.352.385-2.801,1.112-4.19l.334-.639.711.115c1.506.244,3.039-.253,4.112-1.326.888-.888,1.38-2.067,1.388-3.322l.005-.748.718-.207c.771-.223,1.535-.335,2.272-.335,2.218,0,4.257.777,5.862,2.072L22.575.011l1.414,1.414-6.061,6.061Zm-1.424,1.424l-6.797,6.797-1.414-1.414,6.797-6.797c-1.234-.938-2.772-1.496-4.438-1.496-.339,0-.689.033-1.046.098-.184,1.483-.851,2.856-1.923,3.929-1.345,1.346-3.208,2.053-5.087,1.965-.392.908-.597,1.817-.597,2.661,0,1.666.558,3.204,1.496,4.438l2.297-2.297,1.414,1.414-2.297,2.297c1.234.938,2.772,1.496,4.438,1.496.849,0,1.764-.207,2.677-.604-.169-1.971.532-3.921,1.949-5.337,1.085-1.085,2.472-1.754,3.971-1.928.037-.267.056-.529.056-.784,0-1.666-.558-3.204-1.496-4.438Zm5.996-4.91c-.828,0-1.5.672-1.5,1.5s.672,1.5,1.5,1.5,1.5-.672,1.5-1.5-.672-1.5-1.5-1.5Z"/>
</svg>
