<?xml version="1.0" encoding="UTF-8"?>
<svg xmlns="http://www.w3.org/2000/svg" id="Layer_1" data-name="Layer 1" viewBox="0 0 24 24" width="512" height="512"><path d="M18.71,17.29l2.15-5.74,3.08-3.08-1.41-1.41-2.52,2.52-5.59-5.59,2.52-2.52L15.52,.06l-3.08,3.08-5.74,2.15L1.46,.04,.04,1.46,22.54,23.96l1.41-1.41-5.25-5.25ZM12.75,5.16l6.09,6.09-1.68,4.49L8.26,6.85l4.49-1.68Zm1.6,13.43l1.66,1.66L-.01,24.01,3.74,7.98l1.66,1.66-2.3,9.84,3.97-3.97c-.04-.16-.07-.33-.07-.51,0-1.03,.78-1.87,1.78-1.98l2.2,2.2c-.11,1-.95,1.78-1.98,1.78-.18,0-.35-.03-.51-.07l-3.97,3.97,9.84-2.3Z"/></svg>
