<?xml version="1.0" encoding="UTF-8"?>
<svg xmlns="http://www.w3.org/2000/svg" id="Layer_1" data-name="Layer 1" viewBox="0 0 24 24">
  <path d="m21.488,2c.317-.591.512-1.268.512-2h-2c0,1.103-.753,2-1.679,2h-2.643c-.926,0-1.679-.897-1.679-2h-2c0,.732.195,1.409.512,2h-2.512c0,1.437,1.012,2.635,2.362,2.929l.409,2.071h-7.77c-.854,0-1.652.369-2.222,1.001l-.004-.004L.022,10.584l1.369,1.457.609-.573v12.531h6v-1.602c1.887-.385,3.373-1.82,3.836-3.398h2.164v5h6v-8h-2v6h-2v-5H6v5h-2v-11.07c.633.656,1.514,1.07,2.5,1.07,1.762,0,3.205-1.306,3.45-3h3.216l.334,1.69c-.307.352-.5.806-.5,1.31,0,1.105.895,2,2,2h4c1.105,0,2-.895,2-2,0-.504-.193-.958-.5-1.31l1.139-5.762c1.349-.293,2.361-1.491,2.361-2.928h0s-2.512,0-2.512,0Zm-5.809,2h2.643c.55,0,1.067-.141,1.536-.377l-1.26,6.377h-3.194l-1.26-6.377c.469.236.986.377,1.536.377Z"/>
</svg>
