<?xml version="1.0" encoding="UTF-8"?>
<svg xmlns="http://www.w3.org/2000/svg" id="Layer_1" data-name="Layer 1" viewBox="0 0 24 24" width="512" height="512"><path d="m22,0h-10.5c-1.93,0-3.5,1.57-3.5,3.5v12c0,1.93,1.57,3.5,3.5,3.5h12.5V2c0-1.103-.897-2-2-2Zm-10.5,2h10.5v10h-10.5c-.536,0-1.045.122-1.5.338V3.5c0-.827.673-1.5,1.5-1.5Zm0,15c-.827,0-1.5-.673-1.5-1.5s.673-1.5,1.5-1.5h10.5v3h-10.5Zm2.5,4h2v3H3.5c-1.93,0-3.5-1.57-3.5-3.5v-12c0-1.93,1.57-3.5,3.5-3.5h2.5v2h-2.5c-.827,0-1.5.673-1.5,1.5v8.838c.455-.217.964-.338,1.5-.338h2.713c.211.741.569,1.421,1.048,2h-3.761c-.827,0-1.5.673-1.5,1.5s.673,1.5,1.5,1.5h10.5v-1Z"/></svg>
