<?xml version="1.0" encoding="UTF-8"?>
<svg xmlns="http://www.w3.org/2000/svg" id="Layer_1" data-name="Layer 1" viewBox="0 0 24 24">
  <path d="m4.557,8.37c-1.308,0-4.557-2.369-4.557-2.369,0,0,3.249-2.369,4.557-2.369.722,0,1.849.722,2.712,1.369h3.253s-.004-.002-.004-.002c-.649-.128-1.3-.383-1.787-.87-.8-.801-1.232-4.13-1.232-4.13,0,0,3.377.478,4.177,1.278s1.982,3.722,1.982,3.722l-.005.003h3.37s-.006-.003-.006-.003c-.649-.128-1.3-.383-1.787-.87-.8-.801-1.232-4.13-1.232-4.13,0,0,3.377.478,4.177,1.278s1.982,3.722,1.982,3.722l-.008.005h3.848v2.001h-3.841c-.051.122-1.246,2.984-2.03,3.768-.802.802-4.129,1.226-4.129,1.226,0,0,.425-3.328,1.226-4.129.483-.483,1.127-.738,1.771-.867h-3.337c-.044.105-1.244,2.983-2.031,3.77-.802.802-4.129,1.226-4.129,1.226,0,0,.425-3.328,1.226-4.129.485-.485,1.131-.739,1.777-.868h-3.235c-.864.646-1.989,1.368-2.712,1.368Zm19.231,8.386c-1.12,2.705-3.863,5.372-7.339,7.135l-.213.108H7.764l-.213-.108c-3.476-1.763-6.219-4.43-7.339-7.134H.212c-.355-.861-.261-1.834.256-2.606.481-.721,1.271-1.151,2.111-1.151h18.842c.84,0,1.63.43,2.111,1.151.517.771.611,1.745.256,2.605Zm-1.918-1.494c-.065-.098-.211-.263-.449-.263H2.579c-.238,0-.384.165-.449.263-.144.215-.17.488-.07.729.921,2.224,3.225,4.458,6.186,6.008h7.51c2.961-1.551,5.265-3.784,6.186-6.008.1-.241.073-.514-.07-.729Z"/>
</svg>
