<?xml version="1.0" encoding="UTF-8"?>
<svg xmlns="http://www.w3.org/2000/svg" id="Layer_1" data-name="Layer 1" viewBox="0 0 24 24" width="512" height="512"><path d="m4.842,15.203c.658.165,1.349.292,2.051.403l-3.393,8.394H1.286l3.556-8.797Zm12.158.403l3.393,8.394h2.214l-3.556-8.797c-.658.165-1.349.292-2.051.403Zm7-6.273c0,3.063-6.037,4.667-12,4.667S0,12.396,0,9.333c0-1.85,2.189-3.322,6.05-4.106.38-2.945,2.904-5.227,5.95-5.227s5.57,2.282,5.95,5.227c3.861.785,6.05,2.257,6.05,4.106Zm-16-2.986c.5.239,1.694.653,4,.653,2.29,0,3.484-.408,4-.658v-.342c0-2.206-1.794-4-4-4s-4,1.794-4,4v.347Zm14,2.986c0-.399-1.04-1.378-4-2.051v.02l-.293.293c-.234.234-1.612,1.404-5.707,1.404s-5.473-1.17-5.707-1.404l-.293-.293v-.02c-2.96.673-4,1.652-4,2.051,0,.94,3.796,2.667,10,2.667s10-1.727,10-2.667Z"/></svg>
