<?xml version="1.0" encoding="UTF-8"?>
<svg xmlns="http://www.w3.org/2000/svg" id="Layer_1" data-name="Layer 1" viewBox="0 0 24 24" width="512" height="512"><path d="M22.66,.78c-1.43-1.17-3.61-1.01-4.98,.36l-1.39,1.39-.72-.72c-1.17-1.17-3.07-1.17-4.24,0L6.47,6.67l1.41,1.41L12.74,3.23c.39-.39,1.02-.39,1.41,0l.72,.72L3.43,15.39c-1.08,1.08-1.49,4.02-1.62,5.35L.04,22.51l1.41,1.41,1.77-1.77c1.33-.13,4.27-.53,5.35-1.62L22.93,6.18c.73-.73,1.11-1.73,1.06-2.76-.05-1.02-.54-1.99-1.34-2.64ZM7.16,19.12c-.36,.36-1.79,.72-3.25,.93,.21-1.46,.57-2.89,.93-3.25L16.29,5.36l2.32,2.32L7.16,19.12ZM21.52,4.76l-1.5,1.5-2.32-2.32,1.39-1.39c.37-.37,.85-.56,1.32-.56,.36,0,.7,.11,.98,.34,.37,.3,.58,.72,.61,1.19,.02,.46-.15,.92-.48,1.24Z"/></svg>
