<?xml version="1.0" encoding="UTF-8"?>
<svg xmlns="http://www.w3.org/2000/svg" id="Layer_1" data-name="Layer 1" viewBox="0 0 24 24">
  <path d="m24,7c0-1.957-1.16-3.003-2.093-3.529-.165-1.052-.724-1.998-1.59-2.66C19.273.013,17.93-.244,16.632.111c-1.205.327-2.211,1.225-2.694,2.401-.143.347-.239.703-.288,1.055-.19,1.362-.676,2.455-1.505,3.318L.052,22.017l1.562,1.248,1.809-2.265h5.438l1.5,3h2.236l-1.531-3.062c.855-.093,1.684-.29,2.476-.576l1.819,3.638h2.236l-2.243-4.487c3.341-1.949,5.645-5.604,5.645-9.685,0,0,.002-2.795.005-2.828h2.995Zm-11,2.011v.551c0,2.812-2.091,5.133-4.761,5.41l4.761-5.961Zm6.551-3.634c-.361.499-.551,1.095-.551,1.723v2.728c0,4.972-4.156,9.172-9.076,9.172h-4.903l1.656-2.073c.338.049.681.073,1.025.073,4.024,0,7.298-3.337,7.298-7.438v-3.408c.302-.696.512-1.468.63-2.313.026-.188.079-.379.158-.571.244-.596.769-1.067,1.369-1.23.701-.191,1.393-.064,1.946.359.544.416.856,1.046.856,1.729,0,.449-.141.88-.407,1.249Z"/>
</svg>
