<?xml version="1.0" encoding="UTF-8"?>
<svg xmlns="http://www.w3.org/2000/svg" id="Layer_1" data-name="Layer 1" viewBox="0 0 24 24">
  <path d="m21.5,16h-4c-.171,0-.338.017-.5.05v-4.55c0-1.378-1.121-2.5-2.5-2.5h-5c-1.379,0-2.5,1.122-2.5,2.5v1.55c-.162-.033-.329-.05-.5-.05H2.5c-1.379,0-2.5,1.122-2.5,2.5v8.5h24v-5.5c0-1.378-1.121-2.5-2.5-2.5Zm-12.5-4.5c0-.276.225-.5.5-.5h5c.275,0,.5.224.5.5v10.5h-6v-10.5Zm-7,4c0-.276.225-.5.5-.5h4c.275,0,.5.224.5.5v6.5H2v-6.5Zm20,6.5h-5v-3.5c0-.276.225-.5.5-.5h4c.275,0,.5.224.5.5v3.5ZM10.213,4.847l-2.212-1.231v-.615h2.899l.784-3h.648l.784,3h2.883v.611l-2.197,1.273.884,2.686-.504.349-2.173-1.68-2.183,1.687-.48-.362.869-2.717Z"/>
</svg>
