<?xml version="1.0" encoding="UTF-8"?>
<svg xmlns="http://www.w3.org/2000/svg" id="Layer_1" data-name="Layer 1" viewBox="0 0 24 24">
  <path d="m9.921,9.715c-.444.171-.917.285-1.421.285-1.862,0-3.417-1.284-3.861-3.009.051.001.103.009.155.009,2.717,0,5.201-1.666,6.228-4.213.223.153.436.319.629.51-.413.813-.651,1.73-.651,2.703,0,3.309,2.691,6,6,6s6-2.691,6-6S20.309,0,17,0c-1.615,0-3.081.645-4.161,1.687-1.161-1.054-2.681-1.687-4.339-1.687-.291,0-.576.028-.856.068C5.158.394,3.065,2.106,2.298,4.55c-.118.375-1.348,5.592-2.224,9.32.699-.613,1.509-1.095,2.388-1.417.29-1.233.573-2.432.825-3.495,1.033,1.813,2.981,3.041,5.213,3.041.936,0,1.816-.227,2.605-.61-.462-.505-.863-1.064-1.184-1.674Zm7.079-7.715c2.206,0,4,1.794,4,4s-1.794,4-4,4-4-1.794-4-4,1.794-4,4-4Zm-7.842.051c-.372.917-1.008,1.698-1.864,2.231-.806.503-1.723.747-2.651.715.448-1.719,2-2.998,3.857-2.998.223,0,.442.02.657.051Zm14.842,16.449v5.5h-2v-5.5c0-1.061-.686-1.991-1.661-2.339l-3.333,3.863-3.381-3.854c-.966.354-1.625,1.267-1.625,2.331v5.5h-2v-5.5c0-2.235,1.609-4.101,3.827-4.436l.541-.082,2.626,2.994,2.583-2.993.539.074c2.215.306,3.885,2.216,3.885,4.442ZM5.433,14l2.567,2.959v3.032l-3.454-3.938h-.468c-1.189.212-2.078,1.252-2.078,2.446v5.5H0v-5.5C0,16.303,1.654,14.396,3.848,14.064l.652-.064h.933Z"/>
</svg>
