<?xml version="1.0" encoding="UTF-8"?>
<svg xmlns="http://www.w3.org/2000/svg" id="Layer_1" data-name="Layer 1" viewBox="0 0 24 24" width="512" height="512"><path d="M17.57,16.15c.12-.13,.23-.28,.36-.39,1.95-1.71,3.07-4.17,3.07-6.76s-1.1-5.01-3.01-6.71C16.09,.58,13.52-.23,10.96,.06c-2.38,.27-4.57,1.53-6.05,3.43L1.46,.04,.04,1.45,22.54,23.95l1.41-1.41-6.38-6.38ZM11.18,2.05c2.03-.23,3.98,.39,5.48,1.73,1.49,1.33,2.34,3.23,2.34,5.22s-.87,3.93-2.39,5.26c-.16,.14-.32,.3-.47,.46L6.33,4.91c1.15-1.59,2.92-2.65,4.85-2.86Zm-1.5,15.95c-.42-1.43-1.25-2.77-2.45-3.88-1.38-1.29-2.15-3.01-2.21-4.87l-1.86-1.86c-.03,.14-.06,.29-.08,.43-.37,2.93,.64,5.76,2.79,7.76,1.38,1.28,2.13,2.9,2.13,4.57v3.85h8v-3.69s0-.05,0-.07l-2.24-2.24h-4.09Zm4.32,2.31v1.69h-4v-1.85c0-.05,0-.1,0-.15h4.03c0,.11-.02,.21-.02,.31Z"/></svg>
