<?xml version="1.0" encoding="UTF-8"?>
<svg xmlns="http://www.w3.org/2000/svg" id="Layer_1" data-name="Layer 1" viewBox="0 0 24 24">
  <path d="m1.075,6.264C-.355,4.833-.355,2.505,1.075,1.074s3.757-1.43,5.188,0l4.331,4.331-1.414,1.414L4.85,2.488c-.649-.65-1.709-.65-2.36,0-.651.651-.651,1.71,0,2.361l4.33,4.331-1.414,1.414L1.075,6.264Zm10.895,10.966c.081,1.507-.453,3.042-1.602,4.19-1.929,1.928-8.023,2.422-9.226,2.501l-1.139.075.075-1.139c.079-1.202.573-7.297,2.501-9.226,1.154-1.154,2.697-1.687,4.211-1.6L17.736,1.086c1.43-1.432,3.76-1.432,5.189,0,1.431,1.431,1.431,3.758,0,5.188l-10.956,10.955Zm-2.958-4.591c.489.253.947.584,1.356.993.413.413.746.877,1.001,1.371l10.143-10.142c.315-.315.488-.734.488-1.18s-.173-.865-.488-1.181c-.65-.65-1.711-.65-2.361,0l-10.138,10.138Zm-.058,2.407c-.684-.684-1.582-1.024-2.479-1.024s-1.797.341-2.48,1.024c-.932.933-1.555,4.272-1.818,6.778,2.506-.264,5.846-.887,6.778-1.818,1.366-1.367,1.366-3.593,0-4.96Zm9.641-1.641l-1.414,1.414,4.819,4.82v2.36h-2.36l-4.82-4.819-1.414,1.414,5.406,5.405h5.188v-5.188l-5.405-5.406Z"/>
</svg>
