<?xml version="1.0" encoding="UTF-8"?>
<svg xmlns="http://www.w3.org/2000/svg" id="Layer_1" data-name="Layer 1" viewBox="0 0 24 24">
  <path d="m23.7,19.214l-4.293,4.207c-.386.385-.895.579-1.404.579-.513,0-1.026-.195-1.417-.586l-4.25-4.25,1.414-1.414,3.252,3.252L17.025,0l2,.002-.023,21.017,3.298-3.232,1.4,1.429ZM2,10C2,5.589,5.589,2,10,2c1.891,0,3.629.663,5,1.765V1.353c-1.473-.855-3.178-1.353-5-1.353C4.486,0,0,4.486,0,10s4.486,10,10,10v-2c-4.411,0-8-3.589-8-8Zm12,2c0-1.36-.974-2.51-2.315-2.733l-3.042-.507c-.373-.062-.644-.382-.644-.76,0-.551.449-1,1-1h2c.551,0,1,.449,1,1h2c0-1.654-1.346-3-3-3v-1h-2v1c-1.654,0-3,1.346-3,3,0,1.36.974,2.51,2.315,2.733l3.042.507c.373.062.644.382.644.76,0,.551-.449,1-1,1h-2c-.551,0-1-.449-1-1h-2c0,1.654,1.346,3,3,3v1h2v-1c1.654,0,3-1.346,3-3Z"/>
</svg>
