<?xml version="1.0" encoding="UTF-8"?>
<svg xmlns="http://www.w3.org/2000/svg" id="Layer_1" data-name="Layer 1" viewBox="0 0 24 24" width="512" height="512"><path d="M20.943,8.714c-.671-.571-1.562-.819-2.439-.674-.568,.092-1.079,.357-1.49,.737-.533-.483-1.239-.778-2.013-.778-.768,0-1.469,.29-2,.766-.531-.476-1.232-.766-2-.766V3.107C11,1.591,9.924,.273,8.497,.041c-.878-.144-1.769,.103-2.439,.674-.672,.571-1.057,1.404-1.057,2.286v1H1l2,2-2,2H5v3.531c-.042,.038-3.121,3.105-3.121,3.105-.567,.567-.879,1.32-.879,2.122s.312,1.555,.879,2.121l5.121,5.122h15V11c0-.881-.385-1.714-1.057-2.286Zm-6.943,2.286c0-.551,.449-1,1-1s1,.449,1,1v2c0,.551-.449,1-1,1s-1-.449-1-1v-2Zm-4,0c0-.551,.449-1,1-1s1,.449,1,1v2c0,.551-.449,1-1,1s-1-.449-1-1v-2ZM7,3c0-.552,.448-1,1-1s1,.448,1,1v1h-2v-1Zm0,5h2v.766c-.601,.538-.983,1.314-.999,2.179-.323-.114-.662-.172-1.001-.173v-2.772Zm13,14H7.828l-4.535-4.536c-.189-.188-.293-.439-.293-.707s.104-.518,.292-.706l2.996-2.987c.389-.39,1.024-.391,1.415,0,.39,.39,.39,1.024,0,1.414l-2.256,2.251,1.413,1.416,2.256-2.252c.11-.11,.209-.226,.298-.347,.46,.288,1.004,.455,1.585,.455,.768,0,1.469-.29,2-.766,.531,.476,1.232,.766,2,.766s1.469-.29,2-.766c.531,.476,1.232,.766,2,.766,.351,0,.687-.061,1-.171v6.171Zm0-9c0,.551-.449,1-1,1s-1-.449-1-1v-2c0-.552,.448-1,1-1s1,.448,1,1v2Z"/></svg>
