<?xml version="1.0" encoding="UTF-8"?>
<svg xmlns="http://www.w3.org/2000/svg" id="Layer_1" data-name="Layer 1" viewBox="0 0 24 24" width="512" height="512"><path d="m23.298,11.078c-.575-.681-1.414-1.07-2.303-1.07h-8.99v-3.001h11.995v-2h-11.995v-1.929l11.978-.572-.096-1.998L2.951,1.508l.096,1.998,1.959-.094v1.595h-2.007v2h2.007v3.001h-1.991c-.889,0-1.729.391-2.304,1.07-.568.672-.81,1.553-.664,2.415.778,4.601,3.866,8.689,7.733,10.515h8.45c3.867-1.826,6.955-5.914,7.733-10.515.146-.863-.096-1.743-.665-2.415ZM7.005,3.317l3-.143v1.833h-3v-1.69Zm0,3.69h3v3.001h-3v-3.001Zm14.986,6.152c-.647,3.826-3.077,7.273-6.216,8.849h-7.541c-3.14-1.574-5.568-5.021-6.216-8.849-.065-.384.11-.66.22-.79.194-.229.477-.361.776-.361h17.981c.299,0,.582.132.776.361.11.13.285.406.22.79Z"/></svg>
