<?xml version="1.0" encoding="UTF-8"?>
<svg xmlns="http://www.w3.org/2000/svg" id="Layer_1" data-name="Layer 1" viewBox="0 0 24 24" width="512" height="512"><path d="M24.01,22.59l-1.41,1.41-7.24-7.24c-1.4-.55-2.35-1.98-2.35-3.76v-2c0-2.28,1.56-4,3.62-4h.29c1.4,0,2.69,.96,3.28,2.45l-1.86,.74c-.29-.72-.85-1.19-1.42-1.19h-.29c-.96,0-1.62,.82-1.62,2v2c0,1.18,.67,2,1.62,2h.29c.57,0,1.11-.44,1.41-1.16l1.85,.77c-.42,1.02-1.15,1.77-2.01,2.13l2.25,2.25h1.59V6c0-.55-.45-1-1-1H6.41l2.05,2.05c1.18,.21,2.22,1.11,2.73,2.4l-1.86,.74c-.29-.72-.85-1.19-1.42-1.19h-.29c-.96,0-1.62,.82-1.62,2v2c0,1.18,.67,2,1.62,2h.29c.57,0,1.11-.44,1.41-1.16l1.85,.77c-.61,1.47-1.86,2.39-3.26,2.39h-.29c-2.07,0-3.62-1.72-3.62-4v-2c0-1.62,.79-2.96,1.99-3.6L0,1.41,1.41,0l3.01,3.01H21c1.65,0,3,1.35,3,3v15h-1.59l1.59,1.59ZM2,19V6.24L.36,4.6c-.22,.42-.36,.89-.36,1.4v15H16.76l-2-2H2Z"/></svg>
