<?xml version="1.0" encoding="UTF-8"?>
<svg xmlns="http://www.w3.org/2000/svg" id="Layer_1" data-name="Layer 1" viewBox="0 0 24 24" width="512" height="512"><path d="M16.336,10.253l1.33,1.493c-.066,.059-1.11,.968-2.666,1.613v-2.209c.809-.44,1.326-.888,1.336-.897Zm-10.002,1.493c.066,.059,1.11,.968,2.666,1.613v-2.209c-.809-.44-1.326-.888-1.336-.897l-1.33,1.493ZM12,0C5.383,0,0,5.383,0,12c0,5.213,3.347,9.647,8,11.3v-2.141c-3.527-1.547-6-5.068-6-9.159C2,6.486,6.486,2,12,2s10,4.486,10,10c0,2.129-.676,4.098-1.815,5.719l1.656,1.104c1.354-1.938,2.159-4.284,2.159-6.824C24,5.383,18.617,0,12,0Zm3.5,5c-.828,0-1.5,.672-1.5,1.5s.672,1.5,1.5,1.5,1.5-.672,1.5-1.5-.672-1.5-1.5-1.5Zm-7,0c-.828,0-1.5,.672-1.5,1.5s.672,1.5,1.5,1.5,1.5-.672,1.5-1.5-.672-1.5-1.5-1.5Zm3.5,5h0c-.552,0-1,.448-1,1v5h2v-5c0-.552-.448-1-1-1Zm5.7,11.256c-.38,.471-.953,.744-1.558,.744h-4.142v-3h3v1c0,.552,.448,1,1,1h0c.552,0,1-.448,1-1v-1c0-1.105-.895-2-2-2h-3c-1.105,0-2,.895-2,2v5h6.142c1.209,0,2.354-.547,3.113-1.487l.894-1.107c.347-.43,.28-1.059-.15-1.406h0c-.429-.347-1.059-.28-1.406,.149l-.894,1.107Z"/></svg>
