<?xml version="1.0" encoding="UTF-8"?>
<svg xmlns="http://www.w3.org/2000/svg" id="Layer_1" data-name="Layer 1" viewBox="0 0 24 24">
  <path d="m16.5,14H7.5c-2.481,0-4.5,2.019-4.5,4.5v2.5c0,1.654,1.346,3,3,3h9v-2h-2.22l-1.5-6h5.22c1.379,0,2.5,1.121,2.5,2.5v5.5h2v-5.5c0-2.481-2.019-4.5-4.5-4.5Zm-5.78,8h-4.72c-.552,0-1-.448-1-1v-2.5c0-1.379,1.121-2.5,2.5-2.5h1.72l1.5,6ZM6,6c0-3.309,2.691-6,6-6,1.212,0,2.339.364,3.283.984l-7.283,5.016c0,2.209,1.791,4,4,4s4-1.791,4-4h-4.635l5.397-3.636c.773,1.01,1.238,2.268,1.238,3.636,0,3.309-2.691,6-6,6s-6-2.691-6-6Z"/>
</svg>
