<?xml version="1.0" encoding="UTF-8"?>
<svg xmlns="http://www.w3.org/2000/svg" id="Layer_1" data-name="Layer 1" viewBox="0 0 24 24">
  <path d="m24,11v12H0v-12c0-1.654,1.346-3,3-3h7v2H3c-.552,0-1,.449-1,1v10h20v-10c0-.53-.418-.956-.941-.988l1.541-1.541c.839.532,1.401,1.464,1.401,2.529ZM5,15.5c0,.828.672,1.5,1.5,1.5s1.5-.672,1.5-1.5-.672-1.5-1.5-1.5-1.5.672-1.5,1.5Zm6.5,1.5c.828,0,1.5-.672,1.5-1.5s-.672-1.5-1.5-1.5-1.5.672-1.5,1.5.672,1.5,1.5,1.5Zm4.742-5h-4.242v-4.243L18.879.879c1.17-1.17,3.072-1.17,4.242,0,.566.566.879,1.32.879,2.121s-.313,1.555-.879,2.122l-6.879,6.878Zm-.828-2l6.293-6.293c.189-.189.293-.44.293-.707s-.104-.518-.293-.707c-.391-.391-1.023-.39-1.414,0l-6.293,6.292v1.415h1.414Z"/>
</svg>
