<?xml version="1.0" encoding="UTF-8"?>
<svg xmlns="http://www.w3.org/2000/svg" id="Layer_1" data-name="Layer 1" viewBox="0 0 24 24">
  <path d="m23,5h-8.493l.376-3h5.117V0h-6.883l-.627,5H1v2h1.611l1.694,14.352c.179,1.509,1.459,2.648,2.979,2.648h9.431c1.52,0,2.801-1.139,2.979-2.648l1.694-14.352h1.611v-2Zm-6.285,17H7.285c-.507,0-.934-.38-.993-.883l-.672-5.696c.836-.574,2.299-1.422,3.381-1.422.764,0,1.633.435,2.553.895,1.087.543,2.211,1.105,3.447,1.105,1.198,0,2.462-.547,3.442-1.101l-.734,6.218c-.06.503-.486.883-.993.883Zm2.032-9.684c-.688.522-2.479,1.684-3.747,1.684-.764,0-1.633-.435-2.553-.895-1.087-.543-2.211-1.105-3.447-1.105-1.283,0-2.637.627-3.641,1.218l-.734-6.218h14.75l-.628,5.316Z"/>
</svg>
