<?xml version="1.0" encoding="UTF-8"?>
<svg xmlns="http://www.w3.org/2000/svg" id="Layer_1" data-name="Layer 1" viewBox="0 0 24 24">
  <path d="m17,11h2v8h-2v-8Zm2.75-2.5l1.417-2.833,2.833-1.417-2.833-1.417L19.75,0l-1.417,2.833-2.833,1.417,2.833,1.417,1.417,2.833Zm-8.17-1.783l3.42,12.283h-2.05l-.847-3h-5.206l-.847,3h-2.05l3.439-12.362c.141-.608.541-1.12,1.098-1.405.568-.292,1.22-.31,1.839-.05.587.246,1.037.817,1.204,1.535Zm-.042,7.283l-1.929-6.835c-.029-.114-.191-.114-.219,0l-1.929,6.835h4.077Zm10.461,8H2V3c0-.551.449-1,1-1h11V0H3C1.345,0,0,1.346,0,3v21h24v-15h-2v13Z"/>
</svg>
