<?xml version="1.0" encoding="UTF-8"?>
<svg xmlns="http://www.w3.org/2000/svg" id="Layer_1" data-name="Layer 1" viewBox="0 0 24 24" width="512" height="512"><path d="M20.621,1.427c-.974,.398-2.159,.606-3.403,.584-1.844-.033-3.469-.562-4.575-1.489L12-.018l-.643,.539c-1.106,.927-2.731,1.457-4.575,1.489-1.239,.013-2.43-.186-3.403-.584l-1.379-.564V11.974c0,6.565,7.006,10.577,9.151,11.649l.806,.403,.836-.336c2.16-.869,9.207-4.283,9.207-11.717V.862l-1.379,.564ZM6.817,4.011c1.98-.036,3.789-.556,5.183-1.478,1.394,.922,3.202,1.442,5.183,1.478,.949,.011,1.926-.086,2.817-.296v4.291H4V3.714c.892,.21,1.871,.309,2.817,.296Zm5.229,17.825h0c-1.888-.944-8.047-4.443-8.047-9.861v-1.969H20v1.969c0,6.18-6.088,9.11-7.953,9.861Z"/></svg>
