<?xml version="1.0" encoding="UTF-8"?>
<svg xmlns="http://www.w3.org/2000/svg" id="Layer_1" data-name="Layer 1" viewBox="0 0 24 24">
  <path d="m10.988,9.116c.292.259.658.387,1.021.387.354,0,.705-.123.977-.365l1.375-1.138h2.688V2.048c0-1.129-.918-2.048-2.048-2.048h-5.905c-1.129,0-2.047.918-2.047,2.048v5.952h2.592l1.348,1.116Zm-1.893-7.116l5.953.048v3.952h-1.408l-1.639,1.358-1.64-1.358h-1.303l.038-4Zm9.405,4.5c0-1.381,1.119-2.5,2.5-2.5s2.5,1.119,2.5,2.5-1.119,2.5-2.5,2.5-2.5-1.119-2.5-2.5Zm-10.5,6.5h8v2h-8v-2Zm-2,0c0-1.654-1.346-3-3-3s-3,1.346-3,3v4c0,1.654,1.346,3,3,3h4v4h2v-6h-3v-5Zm-2,5h-1c-.551,0-1-.449-1-1v-4c0-.551.449-1,1-1s1,.449,1,1v5Zm15,4h5v2h-5v-2Zm2-12c-1.654,0-3,1.346-3,3v5h-3v6h2v-4h4c1.654,0,3-1.346,3-3v-4c0-1.654-1.346-3-3-3Zm1,7c0,.551-.449,1-1,1h-1v-5c0-.551.449-1,1-1s1,.449,1,1v4ZM0,22h5v2H0v-2ZM.5,6.5c0-1.381,1.119-2.5,2.5-2.5s2.5,1.119,2.5,2.5-1.119,2.5-2.5,2.5S.5,7.881.5,6.5Z"/>
</svg>
