<?xml version="1.0" encoding="UTF-8"?>
<svg xmlns="http://www.w3.org/2000/svg" id="Layer_1" data-name="Layer 1" viewBox="0 0 24 24" width="512" height="512"><path d="M15.119,16.705l-1.414-1.414,3.299-3.299-3.299-3.283,1.414-1.414,3.299,3.298c.376,.375,.583,.875,.583,1.406s-.207,1.031-.583,1.407l-3.299,3.298Zm-4.825-1.414l-3.298-3.283,3.298-3.298-1.414-1.414-3.298,3.298c-.775,.775-.775,2.037,0,2.812l3.298,3.299,1.414-1.414ZM24,5c0-1.654-1.346-3-3-3H3C1.346,2,0,3.346,0,5V22H24V5ZM2,5c0-.551,.449-1,1-1H21c.552,0,1,.449,1,1v15H2V5Z"/></svg>
