<?xml version="1.0" encoding="UTF-8"?>
<svg xmlns="http://www.w3.org/2000/svg" id="Layer_1" data-name="Layer 1" viewBox="0 0 24 24" width="512" height="512"><path d="M24,13v-2h-2.049c-.226-2.293-1.229-4.42-2.88-6.071-1.651-1.651-3.778-2.653-6.071-2.88V0h-2V2.049c-1.963,.194-3.804,.956-5.329,2.208L1.457,.043,.043,1.457,22.543,23.957l1.414-1.414-4.214-4.214c1.251-1.525,2.014-3.366,2.207-5.329h2.049Zm-9.292,.294l-4.001-4.001c1.115-.531,2.492-.337,3.414,.586,.566,.566,.878,1.319,.878,2.121,0,.456-.101,.895-.292,1.294Zm3.612,3.612l-2.148-2.148c.539-.811,.828-1.762,.828-2.758,0-1.336-.52-2.591-1.464-3.535-1.707-1.707-4.353-1.919-6.293-.636l-2.149-2.149c3.136-2.438,7.683-2.217,10.563,.663,1.511,1.511,2.343,3.521,2.343,5.657,0,1.8-.59,3.509-1.68,4.906Zm-6.32,.091c-1.28,0-2.561-.487-3.536-1.462-.944-.944-1.464-2.199-1.464-3.535,0-.234,.036-.462,.067-.69l5.621,5.621c-.229,.032-.458,.066-.689,.066Zm4.625,3.87c-1.121,.586-2.347,.956-3.625,1.083v2.05h-2v-2.049c-2.293-.226-4.42-1.229-6.071-2.88-1.651-1.651-2.654-3.778-2.88-6.071H0v-2H2.05c.127-1.278,.496-2.503,1.083-3.625l1.501,1.501c-.414,.976-.634,2.033-.634,3.124,0,2.137,.832,4.146,2.343,5.657,2.369,2.369,5.865,2.934,8.776,1.705l1.505,1.505Z"/></svg>
