<?xml version="1.0" encoding="UTF-8"?>
<svg xmlns="http://www.w3.org/2000/svg" id="Layer_1" data-name="Layer 1" viewBox="0 0 24 24">
  <path d="m21.952,2.048C20.113.208,17.329-.424,14.113.272c-3.057.661-6.175,2.458-8.778,5.062C-.152,10.823-1.627,18.277,2.048,21.952c1.352,1.352,3.213,2.051,5.381,2.051.782,0,1.605-.091,2.458-.276,3.057-.661,6.175-2.458,8.778-5.062,5.487-5.488,6.962-12.942,3.287-16.617ZM6.749,6.749c2.336-2.335,5.101-3.941,7.787-4.522.687-.149,1.345-.224,1.966-.228.201.121.385.264.547.426.975.975,1.212,2.629.669,4.659-.595,2.222-2.035,4.559-4.055,6.579-3.964,3.964-9.108,5.514-11.239,3.385-.171-.17-.319-.364-.443-.576.024-2.996,1.716-6.67,4.769-9.723Zm10.502,10.502c-2.336,2.335-5.101,3.941-7.787,4.522-2.529.545-4.66.107-6.002-1.235-.287-.287-.531-.608-.733-.955.721.285,1.526.424,2.385.424,3.043,0,6.776-1.743,9.963-4.93,2.265-2.264,3.889-4.919,4.572-7.476.496-1.853.466-3.52-.066-4.869.351.202.671.446.955.73,2.895,2.896,1.42,9.081-3.287,13.789Z"/>
</svg>
