<?xml version="1.0" encoding="UTF-8"?>
<svg xmlns="http://www.w3.org/2000/svg" id="Layer_1" data-name="Layer 1" viewBox="0 0 24 24">
  <path d="m23.973,22.559l-6.229-6.229c1.412-1.725,2.262-3.927,2.262-6.324C20.006,4.492,15.52.006,10.006.006S.006,4.492.006,10.006s4.486,10,10,10c2.398,0,4.6-.85,6.324-2.262l6.229,6.229,1.414-1.414Zm-13.967-4.553c-4.411,0-8-3.589-8-8S5.595,2.006,10.006,2.006s8,3.589,8,8-3.589,8-8,8Zm3.951-10.549l-2.543,2.543,2.543,2.543-1.414,1.414-2.543-2.543-2.543,2.543-1.414-1.414,2.543-2.543-2.543-2.543,1.414-1.414,2.543,2.543,2.543-2.543,1.414,1.414Z"/>
</svg>
