<?xml version="1.0" encoding="UTF-8"?>
<svg xmlns="http://www.w3.org/2000/svg" id="Layer_1" data-name="Layer 1" viewBox="0 0 24 24">
  <path d="m17.994,2.286C16.086.581,13.524-.229,10.956.059,6.904.517,3.59,3.782,3.075,7.822c-.374,2.931.644,5.76,2.793,7.761,1.375,1.279,2.132,2.9,2.132,4.566v3.851h8v-3.685c0-1.816.704-3.475,1.932-4.552,1.95-1.708,3.068-4.173,3.068-6.763,0-2.56-1.096-5.007-3.006-6.714Zm-3.994,19.714h-4v-1.851c0-.05-.007-.099-.008-.149h4.024c-.004.105-.016.209-.016.315v1.685Zm2.613-7.741c-1.105.969-1.888,2.274-2.293,3.741h-4.641c-.421-1.43-1.248-2.765-2.448-3.881-1.671-1.556-2.463-3.759-2.171-6.043.399-3.138,2.974-5.673,6.121-6.029,2.027-.227,3.974.386,5.48,1.731,1.486,1.328,2.339,3.231,2.339,5.222,0,2.013-.87,3.93-2.387,5.259Zm-.779-8.622l-1.436.827c-.391-.37-.869-.642-1.398-.801v-1.663h-2v1.663c-.529.159-1.007.431-1.398.801l-1.436-.827-.998,1.733,1.434.826c-.061.259-.102.526-.102.803s.041.544.102.803l-1.434.826.998,1.733,1.436-.827c.391.37.869.642,1.398.801v1.663h2v-1.663c.529-.159,1.007-.431,1.398-.801l1.436.827.998-1.733-1.434-.826c.061-.259.102-.526.102-.803s-.041-.544-.102-.803l1.434-.826-.998-1.733Zm-3.834,4.862c-.827,0-1.5-.673-1.5-1.5s.673-1.5,1.5-1.5,1.5.673,1.5,1.5-.673,1.5-1.5,1.5Z"/>
</svg>
