<?xml version="1.0" encoding="UTF-8"?>
<svg xmlns="http://www.w3.org/2000/svg" id="Layer_1" data-name="Layer 1" viewBox="0 0 24 24" width="512" height="512"><path d="M2.055,10H10.126c.445,1.724,2.013,3,3.874,3h10V5h-3.772c-.149-.22-.292-.415-.427-.581C17.363,1.164,13.486-.451,9.453,.106,4.457,.793,.501,4.946,.046,9.983c-.265,2.935,.622,5.792,2.497,8.046,.295,.353,.457,.801,.457,1.262v4.709h13v-3h2.247c1.5,0,2.778-1.121,2.974-2.606l.449-3.394h-2.017l-.415,3.132c-.065,.495-.491,.868-.991,.868h-4.247v3H5v-2.709c0-.928-.327-1.831-.92-2.542-1.534-1.843-2.26-4.182-2.042-6.586,.005-.055,.011-.109,.017-.163Zm19.945,1H14c-1.103,0-2-.897-2-2s.897-2,2-2h8v4ZM9.725,2.088c3.025-.42,5.946,.656,7.967,2.912h-3.692c-1.861,0-3.429,1.276-3.874,3H2.513c1.101-3.097,3.872-5.454,7.211-5.912Z"/></svg>
