<?xml version="1.0" encoding="UTF-8"?>
<svg xmlns="http://www.w3.org/2000/svg" id="Layer_1" data-name="Layer 1" viewBox="0 0 24 24">
  <path d="m9,12c3.309,0,6-2.691,6-6S12.309,0,9,0,3,2.691,3,6s2.691,6,6,6Zm0-10c2.206,0,4,1.794,4,4s-1.794,4-4,4-4-1.794-4-4,1.794-4,4-4Zm-4,12h5.76c-.392.585-.651,1.266-.732,2h-5.028c-1.654,0-3,1.346-3,3v5H0v-5c0-2.757,2.243-5,5-5Zm16.5,0h-.5v-.5c0-.827-.673-1.5-1.5-1.5h-3c-.827,0-1.5.673-1.5,1.5v.5h-.5c-1.378,0-2.5,1.122-2.5,2.5v7.5h12v-7.5c0-1.378-1.122-2.5-2.5-2.5Zm-7,2h7c.276,0,.5.224.5.5v1.5h-8v-1.5c0-.276.224-.5.5-.5Zm-.5,6v-2h3v1h2v-1h3v2h-8Z"/>
</svg>
