<?xml version="1.0" encoding="UTF-8"?>
<svg xmlns="http://www.w3.org/2000/svg" id="Layer_1" data-name="Layer 1" viewBox="0 0 24 24">
  <path d="m8.641,13.528c-.678,1.049-.766,2.16-.254,3.214.385.79,1.109,1.533,2.154,2.208,1.162.75,2.123,1.031,2.91,1.031,1.4,0,2.253-.887,2.71-1.594,1.043-1.614,1.612-6.945,1.769-8.634L23.609,1.439l-1.652-1.128-5.624,8.233c-1.45.707-6.608,3.306-7.693,4.984Zm1.545,2.339c-.144-.295-.239-.675.135-1.253h0c.362-.56,1.866-1.545,3.565-2.514l-3.036,4.578c-.305-.275-.537-.549-.664-.811Zm4.296,1.435c-.239.37-.663.983-1.945.45l2.932-4.421c-.283,1.801-.633,3.424-.987,3.971Zm9.477-3.815c-.779,4.601-3.664,8.593-7.53,10.418l-.202.096H7.774l-.202-.096C3.706,22.08.821,18.088.042,13.487c-.146-.862.096-1.743.663-2.415.355-.42.817-.713,1.324-.888-.008-.106-.029-.209-.029-.316,0-1.5.767-2.852,2.007-3.629-.005-.08-.008-.159-.008-.238,0-2.352,2.083-4.251,4.437-3.975.742-1.24,2.083-2.026,3.564-2.026s2.822.786,3.563,2.026c.884-.104,1.728.105,2.441.526l-1.132,1.658c-.265-.13-.558-.209-.873-.209-.208,0-.427.042-.666.126l-.963.341-.32-.97c-.296-.896-1.12-1.498-2.051-1.498s-1.755.602-2.052,1.498l-.321.969s-1.127-.467-1.628-.467c-1.103,0-2,.897-2,2,0,.5.325,1.4.325,1.4l-.844.327c-.899.349-1.468,1.323-1.468,2.274h5.653c-.987.674-1.82,1.354-2.368,2H3.01c-.3,0-.583.132-.776.361-.11.13-.284.406-.219.79.647,3.827,3.076,7.274,6.215,8.849h7.541c3.139-1.575,5.567-5.022,6.215-8.849.065-.385-.108-.66-.219-.791-.193-.229-.477-.361-.776-.361h-1.291c.064-.524.123-1.044.172-1.544l1.797-2.63c.213.511.331,1.067.331,1.644,0,.236-.027.469-.065.701.521.173.996.47,1.36.9.567.672.809,1.553.663,2.416Z"/>
</svg>
