<?xml version="1.0" encoding="UTF-8"?>
<svg xmlns="http://www.w3.org/2000/svg" id="Layer_1" data-name="Layer 1" viewBox="0 0 24 24">
  <path d="m5.5,11c1.93,0,3.5-1.57,3.5-3.5s-1.57-3.5-3.5-3.5-3.5,1.57-3.5,3.5,1.57,3.5,3.5,3.5Zm0-5c.827,0,1.5.673,1.5,1.5s-.673,1.5-1.5,1.5-1.5-.673-1.5-1.5.673-1.5,1.5-1.5Zm10,1c1.93,0,3.5-1.57,3.5-3.5s-1.57-3.5-3.5-3.5-3.5,1.57-3.5,3.5,1.57,3.5,3.5,3.5Zm0-5c.827,0,1.5.673,1.5,1.5s-.673,1.5-1.5,1.5-1.5-.673-1.5-1.5.673-1.5,1.5-1.5Zm1.5,8c-3.859,0-7,3.141-7,7s3.141,7,7,7,7-3.141,7-7-3.141-7-7-7Zm0,12c-2.757,0-5-2.243-5-5s2.243-5,5-5,5,2.243,5,5-2.243,5-5,5Zm3.991-5.882l-3.456,3.399c-.308.309-.727.482-1.173.482s-.864-.174-1.179-.489l-1.845-1.788,1.393-1.436,1.63,1.58,3.228-3.175,1.402,1.426Zm-12.991-4.118c.477,0,.922.122,1.323.321-.347.567-.634,1.174-.849,1.815-.143-.079-.299-.136-.473-.136H3c-.552,0-1,.448-1,1v3H0v-3c0-1.654,1.346-3,3-3h5Zm2-.651v-.349c0-1.654,1.346-3,3-3h4c-2.829,0-5.35,1.308-7,3.349Z"/>
</svg>
