<?xml version="1.0" encoding="UTF-8"?>
<svg xmlns="http://www.w3.org/2000/svg" id="Layer_1" data-name="Layer 1" viewBox="0 0 24 24">
  <path d="m5.779,6.66c-.008.059-.013.206.13.302.016,0,.614.263,1.272.506,1.223.451,1.529,1.336,1.408,2.014-.16.899-1.019,1.552-2.04,1.552-.826,0-1.603-.333-2.13-.914l-.42-.462.926-.84.42.463c.286.315.736.504,1.204.504.448,0,.764-.265.81-.521.062-.345-.451-.562-.61-.621-.752-.277-1.43-.58-1.43-.58-.6-.382-.864-.969-.777-1.579.094-.649.568-1.178,1.239-1.38,1.317-.397,2.407.499,2.452.537l.479.402-.805.957-.476-.399c-.025-.021-.633-.495-1.29-.299-.293.088-.351.282-.362.361Zm10.591,2.643h.682c-.109.273-.38.474-.696.479-.402-.007-.725-.333-.724-.736,0-.138-.007-1.929-.008-2.024-.001-.403.322-.729.724-.736.408.007.75.338.75.733v.015s1.25,0,1.25,0v-.015c0-1.094-.902-1.985-2.012-1.985-1.086,0-1.967.881-1.967,1.967l.008,2.066c0,1.086.881,1.967,1.967,1.967,1.109,0,2.026-.891,2.026-1.985v-1.048h-2v1.302Zm-4.937-.987l-.826-3.282h-1.252l1.511,6h1.25l1.252-6h-1.252l-.684,3.282Zm12.567-5.315v15.414l-5.586,5.586H0V3C0,1.346,1.346,0,3,0h18c1.654,0,3,1.346,3,3Zm-2.414,15h-3.586v3.586l3.586-3.586Zm.414-15c0-.551-.448-1-1-1H3c-.552,0-1,.449-1,1v19h14v-6h6V3Z"/>
</svg>
