<?xml version="1.0" encoding="UTF-8"?>
<svg xmlns="http://www.w3.org/2000/svg" id="Layer_1" data-name="Layer 1" viewBox="0 0 24 24">
  <path d="m2,9h8.023c.717-.949,1.758-1.634,2.961-1.888v-.112H2v-2c0-.551.449-1,1-1h15c.552,0,1,.449,1,1v2h-3.992v.111c1.206.252,2.25.938,2.969,1.889h1.023v6.765l2,.747V5c0-1.654-1.346-3-3-3h-2V0h-2v2h-7V0h-2v2h-2c-1.654,0-3,1.346-3,3v15h3.116c.146-.712.456-1.391.916-2h-2.032v-9Z"/>
  <path d="m17,17.152v-5.045c0-1.516-1.076-2.834-2.504-3.066-.88-.144-1.768.103-2.439.674-.672.571-1.057,1.404-1.057,2.286v7.563l-1.014-.808-.003.004c-1.21-1.072-3.064-.997-4.174.191-1.13,1.208-1.066,3.11.13,4.23l.849.818h2.881l-2.352-2.268c-.403-.378-.424-1.013-.046-1.416.375-.402,1.008-.421,1.41-.048.02.019,4.32,3.443,4.32,3.443v-11.712c0-.294.129-.572.353-.762.228-.193.52-.271.822-.224.463.076.825.556.825,1.093v6.433l7,2.615v2.845h2v-4.232l-7-2.615Z"/>
</svg>
