<?xml version="1.0" encoding="UTF-8"?>
<svg xmlns="http://www.w3.org/2000/svg" id="Layer_1" data-name="Layer 1" viewBox="0 0 24 24">
  <path d="m13.207,6.207l-1.414-1.414,3-3,1.414,1.414-3,3Zm-7-1.414L3.207,1.793l-1.414,1.414,3,3,1.414-1.414ZM10,0h-2v5h2V0Zm10.331,18.445l-3.446-5.167,4.17-4.17c1.054-1.053,1.222-2.718.391-3.871-.511-.71-1.3-1.158-2.163-1.228-.854-.065-1.712.241-2.324.854l-7.933,7.933-.13-1.125c-.026-.787-.357-1.516-.933-2.053-.575-.538-1.352-.813-2.11-.792-1.625.055-2.904,1.421-2.852,3.013v9.248S.086,24,.086,24h2.828l2.086-2.086v-10.108c-.017-.523.396-.964.919-.981.273-.013.494.082.679.254.185.173.291.407.306.739l.604,5.324,10.864-10.864c.197-.197.483-.299.748-.274.282.022.532.166.702.402.26.36.18.926-.182,1.288l-5.33,5.33,4.357,6.531s0,0,0,.001l.545.816-3.627,3.627h2.829l3.373-3.373-1.455-2.182s0,0,0,0Z"/>
</svg>
