<?xml version="1.0" encoding="UTF-8"?>
<svg xmlns="http://www.w3.org/2000/svg" id="Layer_1" data-name="Layer 1" viewBox="0 0 24 24">
  <path d="m22.947,3.714c-.671-.571-1.562-.815-2.438-.674-.216.035-.421.102-.618.184-.344-1.277-1.501-2.224-2.886-2.224-.537,0-1.034.153-1.471.401C15.002.562,14.07,0,13.005,0,11.621,0,10.464.948,10.119,2.225c-.197-.082-.402-.149-.618-.184-.877-.146-1.769.102-2.439.673-.672.571-1.057,1.404-1.057,2.286v8.565l-.955-.758c-1.207-1.129-3.107-1.063-4.236.143-1.129,1.208-1.066,3.111.13,4.231l3.193,3.079c2.5,2.411,5.792,3.739,9.266,3.739h1.665c4.928,0,8.937-4.009,8.937-8.937V6c0-.881-.385-1.715-1.058-2.286Zm-.942,11.349c0,3.825-3.112,6.937-6.937,6.937h-1.665c-2.954,0-5.751-1.129-7.877-3.179l-3.204-3.089c-.403-.377-.424-1.012-.047-1.416.375-.403,1.007-.424,1.47.004l4.26,3.391V5c0-.294.128-.572.353-.763.227-.193.518-.273.823-.223.462.075.824.555.824,1.092v5.893h2V3c0-.551.449-1,1-1s1,.449,1,1v8h2v-7c0-.551.449-1,1-1s1,.449,1,1v7h2v-4.893c0-.538.362-1.018.825-1.093.305-.046.596.03.822.223.225.191.353.469.353.763v9.063Z"/>
</svg>
