<?xml version="1.0" encoding="UTF-8"?>
<svg xmlns="http://www.w3.org/2000/svg" id="Layer_1" data-name="Layer 1" viewBox="0 0 24 24">
  <path d="m23.377,7.447c-.788-.807-1.698-1.739-3.023-2.47,1.004-.826,1.646-2.078,1.646-3.477v-.5h-2v.5c0,1.378-1.121,2.5-2.5,2.5s-2.5-1.122-2.5-2.5V0h-2v1.5c0,.924.28,1.784.76,2.5h-1.26c-1.379,0-2.5-1.122-2.5-2.5V0h-2v1.5c0,2.481,2.019,4.5,4.5,4.5h1.308c-.616.942-.808,1.988-.808,2.586v1.414h-7.106c-1.273,0-2.438.596-3.21,1.511l-.005-.004L.003,14.547l1.502,1.321.35-.398c.153.771.419,1.386.679,1.987.171.394.332.768.466,1.191v5.352h6v-4h3v4h6v-5.115c.627-.746,2-2.695,2-5.485v-2.017l2.1-.263c1.083-.136,1.9-1.061,1.9-2.153,0-.568-.221-1.107-.623-1.521Zm-1.525,1.689l-3.852.481v3.782c0,2.669-1.684,4.37-1.697,4.384l-.303.294v3.923h-2v-4h-7v4h-2v-3.5s-.436-1.389-.63-1.838c-.364-.839-.651-1.503-.646-2.6.006-1.099,1.02-2.062,2.169-2.062h9.106v-3.414c0-.26.077-2.5,2.713-2.584,2.181.74,3.044,1.624,4.129,2.735,0,0,.158.187.158.229,0,.085-.063.158-.148.168Z"/>
</svg>
