<?xml version="1.0" encoding="UTF-8"?>
<svg xmlns="http://www.w3.org/2000/svg" id="Layer_1" data-name="Layer 1" viewBox="0 0 24 24">
  <path d="m23.188,20.087l-.776,1.034c-1.369,1.825-3.548,2.914-5.829,2.914H7.417c-2.281,0-4.46-1.089-5.829-2.913l-.775-1.034c-1.152-1.535-.999-3.709.349-4.948.387-.356.842-.621,1.331-.782l-1.793-2.6c-.557-.74-.801-1.693-.664-2.65.137-.957.638-1.804,1.411-2.384,1.093-.82,2.503-.926,3.667-.399.111-.561.299-1.097.555-1.597-.947-1.132-.89-2.82.174-3.883,1.125-1.125,2.949-1.125,4.074,0,.133.133.23.256.297.371.57-.14,1.169-.215,1.786-.215.613,0,1.208.074,1.775.212.05-.074.11-.151.182-.233,1.05-1.195,2.871-1.312,4.066-.262,1.177,1.035,1.308,2.815.308,4.011.257.503.446,1.041.556,1.605,1.171-.532,2.575-.425,3.665.39.774.58,1.275,1.427,1.412,2.384.137.958-.107,1.911-.688,2.685l-1.771,2.569c.49.16.946.424,1.334.781,1.347,1.238,1.501,3.411.349,4.946ZM12,3c-2.757,0-5,2.019-5,4.5s2.243,4.5,5,4.5,5-2.019,5-4.5-2.243-4.5-5-4.5Zm-4.107,19.035c-.297-1.777-1.274-3.099-1.286-3.114l-1.671-2.065c-.296-.395-.748-.677-1.322-.677-.406,0-.792.151-1.099.434-.601.552-.646,1.552-.103,2.276l.775,1.033c.993,1.323,2.574,2.113,4.229,2.113h.476Zm7.942-4.617l1.714-1.867c.356-.479.873-.867,1.469-1.107l2.635-3.821c.283-.379.392-.805.331-1.233-.062-.429-.286-.807-.631-1.066-.716-.532-1.731-.389-2.267.324l-.284.417-.006-.004c-.755,2.833-3.515,4.94-6.796,4.94s-6.035-2.102-6.793-4.93l-.313-.45c-.514-.687-1.532-.831-2.246-.296-.714.536-.859,1.553-.324,2.267l2.66,3.857c.602.246,1.133.651,1.53,1.18l1.671,2.065c.083.11,1.417,1.914,1.729,4.343h4.121c.221-3.002,1.441-4.298,1.8-4.617Zm5.65-.805c-.345-.318-.787-.461-1.253-.428-.461.043-.869.271-1.147.642l-1.939,2.099s-.898.817-1.105,3.109h.542c1.655,0,3.236-.79,4.229-2.114l.776-1.034c.542-.724.497-1.722-.103-2.273Zm-10.985-7.613c0-.967.672-1.75,1.5-1.75s1.5.783,1.5,1.75h-3Z"/>
</svg>
