<?xml version="1.0" encoding="UTF-8"?>
<svg xmlns="http://www.w3.org/2000/svg" id="Layer_1" data-name="Layer 1" viewBox="0 0 24 24" width="512" height="512"><path d="M22.115,8.884L14.121,.89c-1.17-1.17-3.072-1.17-4.242,0L1.885,8.884c-.566,.566-.879,1.32-.879,2.121s.312,1.556,.879,2.121l10.115,10.116,10.115-10.115c.566-.566,.879-1.32,.879-2.122s-.312-1.555-.879-2.121Zm-1.414,2.828l-8.701,8.702L3.299,11.711c-.189-.188-.293-.438-.293-.706s.104-.518,.293-.707L11.293,2.304c.195-.195,.451-.292,.707-.292s.512,.097,.707,.292l7.994,7.994c.188,.189,.293,.44,.293,.707s-.104,.518-.293,.707Zm-4.236-3.003c.345,.344,.535,.803,.535,1.291s-.19,.947-.536,1.292l-2.757,2.758-1.414-1.414,1.635-1.636h-2.928c-.552,0-1,.448-1,1v3.586l-2-2v-1.585c0-1.654,1.346-3,3-3h2.928l-1.635-1.636,1.414-1.414,2.758,2.759Z"/></svg>
