<?xml version="1.0" encoding="UTF-8"?>
<svg xmlns="http://www.w3.org/2000/svg" id="Layer_1" data-name="Layer 1" viewBox="0 0 24 24">
  <path d="m2,2.5c0-1.381,1.119-2.5,2.5-2.5s2.5,1.119,2.5,2.5-1.119,2.5-2.5,2.5-2.5-1.119-2.5-2.5Zm4,12.5H2v-6c0-.552.449-1,1-1h12v-2H3c-1.654,0-3,1.346-3,3v8h2v7h2v-7h2v7h2v-14h-2v5Zm18,3.5v5.5h-14v-5.5c0-1.379,1.122-2.5,2.5-2.5h.5v-3.5c0-1.379,1.122-2.5,2.5-2.5h3c1.378,0,2.5,1.121,2.5,2.5v3.5h.5c1.378,0,2.5,1.121,2.5,2.5Zm-9-2.5h4v-3.5c0-.275-.224-.5-.5-.5h-3c-.276,0-.5.225-.5.5v3.5Zm1,2.5c0-.275-.224-.5-.5-.5h-3c-.276,0-.5.225-.5.5v3.5h4v-3.5Zm6,0c0-.275-.224-.5-.5-.5h-3c-.276,0-.5.225-.5.5v3.5h4v-3.5Z"/>
</svg>
