<?xml version="1.0" encoding="UTF-8"?>
<svg xmlns="http://www.w3.org/2000/svg" id="Layer_1" data-name="Layer 1" viewBox="0 0 24 24">
  <path d="m12,15.008c-1.214,1.402-.188,3.991-2,3.991-.855,0-.67-1.725-.67-1.725-.664.685-1.33,1.574-1.33,2.725,0,2.209,1.791,4,4,4s4-1.791,4-4c0-2.316-2.737-3.728-4-4.991Zm1.01,7.522c-.558.558-1.462.558-2.02,0-.558-.558-.558-1.463,0-2.021l1.01-1.01,1.01,1.01h0c.558.558.558,1.463,0,2.021Zm9.99-.531V5.238l.842-1.675.077-.207c.203-.812.024-1.657-.491-2.317-.516-.66-1.292-1.039-2.13-1.039H2.702C1.864,0,1.088.379.573,1.039.058,1.699-.122,2.544.082,3.356l.918,1.865v16.778H0v2h7v-11.463c.816-.501,2.771-1.537,5-1.537s4.185,1.037,5,1.537v11.463h7v-2h-1ZM2.149,2.27c.079-.101.255-.27.553-.27h18.595c.298,0,.475.169.553.27.07.09.175.27.144.515l-.611,1.215H2.617l-.611-1.215c-.031-.245.073-.425.144-.515Zm16.851,19.73v-10.503l-.403-.3c-.121-.09-2.994-2.197-6.597-2.197s-6.477,2.107-6.597,2.197l-.403.3v10.503h-2V6h18v16h-2Z"/>
</svg>
