<?xml version="1.0" encoding="UTF-8"?>
<svg xmlns="http://www.w3.org/2000/svg" id="Layer_1" data-name="Layer 1" viewBox="0 0 24 24">
  <path d="m20.806,13.299l1.063-.799-1.063-.799c-.151-.113-.383-.282-.645-.467l3.83-3.83-1.414-1.414-4.13,4.13c-.725-.423-1.492-.798-2.165-.987l7.676-7.676L22.543.043l-7.676,7.676c-.191-.681-.573-1.458-1.002-2.19l4.125-4.125L16.576-.01l-3.826,3.826c-.179-.252-.341-.476-.451-.622l-.799-1.063-.799,1.063c-.461.613-1.675,2.3-2.306,3.787L1.457.043.043,1.457l22.5,22.5,1.414-1.414-6.939-6.939c1.487-.63,3.174-1.844,3.787-2.306Zm-5.306-2.299c.474,0,1.741.685,2.971,1.5-1.229.815-2.497,1.5-2.971,1.5v.086l-2.086-2.086.419-.419c.59-.382,1.152-.581,1.667-.581Zm-5.5-2.5c0-.474.685-1.741,1.5-2.971.815,1.229,1.5,2.497,1.5,2.971,0,.515-.199,1.077-.581,1.667l-.419.419-2.086-2.086h.086Zm3.099,8.842c-.706.394-1.306.658-1.599.658-.507,0-1.724-.549-2.886-1.2l1.219-1.219c.355-.23.697-.385,1.027-.478l-1.963-1.963c-.094.33-.249.673-.478,1.027l-1.219,1.219c-.651-1.162-1.2-2.379-1.2-2.886,0-.294.264-.893.658-1.599l-1.465-1.465c-.346.582-.661,1.195-.885,1.772-.003-.003-.007-.009-.009-.013l-.799-1.063-.799,1.063c-.634.842-2.701,3.715-2.701,5.306,0,1.24,1.083,3.249,1.736,4.35L.043,22.543l1.414,1.414,1.693-1.693c1.101.653,3.11,1.736,4.35,1.736,1.591,0,4.464-2.067,5.306-2.701l1.063-.799-1.063-.799s-.009-.007-.013-.009c.576-.224,1.19-.539,1.772-.885l-1.465-1.465Zm-11.099-.842c0-.474.685-1.741,1.5-2.971.815,1.229,1.5,2.497,1.5,2.971,0,.515-.199,1.077-.581,1.667l-1.219,1.219c-.651-1.162-1.2-2.379-1.2-2.886Zm5.5,5.5c-.507,0-1.724-.549-2.886-1.2l1.219-1.219c.59-.382,1.152-.581,1.667-.581.474,0,1.741.685,2.971,1.5-1.229.815-2.497,1.5-2.971,1.5Z"/>
</svg>
