<?xml version="1.0" encoding="UTF-8"?>
<svg xmlns="http://www.w3.org/2000/svg" id="Layer_1" data-name="Layer 1" viewBox="0 0 24 24" width="512" height="512"><path d="M12,2V0c6.273,0,11.428,4.839,11.948,10.98-.62-.456-1.345-.768-2.137-.898-.898-4.599-4.954-8.082-9.811-8.082Zm0,20c-5.514,0-10-4.486-10-10H0c0,6.617,5.383,12,12,12,3.546,0,6.727-1.555,8.926-4.007-.81-.012-1.562-.229-2.235-.582-1.774,1.604-4.117,2.59-6.691,2.59ZM6.28,9.334l-1.406,1.422c.792,.784,1.913,1.265,3.073,1.265,1.044,0,2.12-.39,3.019-1.297l-1.422-1.406c-1.19,1.202-2.604,.67-3.264,.017Zm9.993,.67c-.646,.038-1.228-.196-1.731-.707l-1.424,1.406c.838,.848,1.9,1.306,3.017,1.306,.09,0,.181-.003,.271-.009,1.036-.069,2.056-.528,2.798-1.262l-1.406-1.422c-.398,.394-.968,.65-1.523,.688Zm-15.169-.004L-.004-.004,10,1.104v.896c0,3.589-4.411,8-8,8h-.896ZM2.26,2.26l.621,5.608c2.045-.576,4.411-2.942,4.987-4.987l-5.608-.621ZM21,12c-.811,0-1.598,.335-2.16,.918l1.439,1.389c.19-.198,.446-.307,.721-.307,.552,0,1,.448,1,1s-.448,1-1,1h-6.086c.055-.156,.086-.325,.086-.5,0-.828-.672-1.5-1.5-1.5h-3.5v2h2v2h-2v2h3.5c.828,0,1.5-.672,1.5-1.5,0-.175-.03-.344-.086-.5h6.086c1.654,0,3-1.346,3-3s-1.346-3-3-3Z"/></svg>
