<?xml version="1.0" encoding="UTF-8"?>
<svg xmlns="http://www.w3.org/2000/svg" id="Layer_1" data-name="Layer 1" viewBox="0 0 24 24">
  <path d="m22.785,13.064l-4.333-3.392c-1.149-.898-2.754-.898-3.903,0l-4.333,3.391c-.772.604-1.216,1.513-1.216,2.494v8.442h15v-8.442c0-.981-.443-1.891-1.215-2.493Zm-.785,8.936h-11v-6.442c0-.356.167-.699.448-.919l4.333-3.391c.424-.331,1.015-.331,1.438,0l4.333,3.392c.28.219.447.562.447.918v6.442Zm-7-6h3v3h-3v-3Zm-6.408-4.597c-.784.38-1.661.597-2.592.597-3.314,0-6-2.686-6-6S2.686,0,6,0c.93,0,1.807.217,2.591.597-2.544.483-4.468,2.718-4.468,5.403s1.924,4.921,4.469,5.403Zm3.742-6.737l-2.333-1.167,2.333-1.167,1.167-2.333,1.167,2.333,2.333,1.167-2.333,1.167-1.167,2.333-1.167-2.333Zm-7.833,12.833l2,1-2,1-1,2-1-2-2-1,2-1,1-2,1,2ZM20.667,7.333l-1.667-.833,1.667-.833.833-1.667.833,1.667,1.667.833-1.667.833-.833,1.667-.833-1.667Z"/>
</svg>
