<?xml version="1.0" encoding="UTF-8"?>
<svg xmlns="http://www.w3.org/2000/svg" id="Layer_1" data-name="Layer 1" viewBox="0 0 24 24">
  <path d="m12,14c-1.105,0-2-.895-2-2s.895-2,2-2c.167,0,.328.027.483.065l3.814-3.776,1.406,1.421-3.786,3.749c.049.173.083.352.083.541,0,1.105-.895,2-2,2Zm3.997,4.5c0,1.381-1.119,2.5-2.5,2.5h-.5v3h-1.6v-8h2.1c1.381,0,2.5,1.119,2.5,2.5Zm-1.6,0c0-.496-.404-.9-.9-.9h-.5v1.8h.5c.496,0,.9-.404.9-.9Zm2.603,5.5h1.6v-8h-1.6v8Zm-6.5-8h-1.861l-1.685,2.867h-.354v-2.867h-1.6v8h1.6v-3.533h.612l1.593,3.533h1.758l-1.997-4.565,1.934-3.435Zm1.5-9s0,0,0,0l1.765-1.766c-.565-.148-1.155-.234-1.766-.234-3.86,0-7,3.141-7,7h2c0-2.761,2.239-5,5-5Zm9,12.911c1.861-2.115,3-4.879,3-7.911C24,5.383,18.617,0,12,0S0,5.383,0,12c0,3.032,1.139,5.796,3,7.911v-3.581c-.634-1.312-1-2.777-1-4.33C2,6.486,6.486,2,12,2s10,4.486,10,10c0,1.552-.366,3.017-1,4.33v3.581Z"/>
</svg>
