<?xml version="1.0" encoding="UTF-8"?>
<svg xmlns="http://www.w3.org/2000/svg" id="Layer_1" data-name="Layer 1" viewBox="0 0 24 24">
  <path d="m6,4.5c0,.828-.672,1.5-1.5,1.5s-1.5-.672-1.5-1.5.672-1.5,1.5-1.5,1.5.672,1.5,1.5Zm2.5-1.5c-.828,0-1.5.672-1.5,1.5s.672,1.5,1.5,1.5,1.5-.672,1.5-1.5-.672-1.5-1.5-1.5Zm15.5,0v19h-5.755c.482-.602.879-1.274,1.173-2h2.582v-11H2v11h2.582c.294.726.691,1.398,1.173,2H0V3C0,1.346,1.346,0,3,0h18c1.654,0,3,1.346,3,3Zm-2,4V3c0-.552-.449-1-1-1H3c-.551,0-1,.448-1,1v4h20Zm-7.599,4.506l-1.401-.613v4.107c0,.552-.449,1-1,1s-1-.448-1-1v-4.107l-1.401.613c-2.187.957-3.599,3.113-3.599,5.494,0,2.159,1.158,4.133,3,5.197v1.803h2v-3.07l-.599-.262c-1.458-.639-2.401-2.078-2.401-3.668,0-.991.368-1.924,1-2.641v.641c0,1.654,1.346,3,3,3s3-1.346,3-3v-.641c.632.717,1,1.649,1,2.641,0,1.59-.942,3.029-2.401,3.668l-.599.262v3.07h2v-1.803c1.842-1.064,3-3.038,3-5.197,0-2.381-1.413-4.537-3.599-5.494Z"/>
</svg>
