<?xml version="1.0" encoding="UTF-8"?>
<svg xmlns="http://www.w3.org/2000/svg" id="Layer_1" data-name="Layer 1" viewBox="0 0 24 24" width="512" height="512"><path d="M24,13c0,1.654-1.346,3-3,3h-7v-2h7c.551,0,1-.448,1-1s-.449-1-1-1h-7v-2h7c1.654,0,3,1.346,3,3Zm-4.019,5c-1.827,2.423-4.719,4-7.981,4-5.514,0-10-4.486-10-10S6.486,2,12,2c4.098,0,7.625,2.48,9.167,6.017,.863,.029,1.664,.281,2.364,.695C22.097,3.691,17.476,0,12,0,5.383,0,0,5.383,0,12s5.383,12,12,12c4.542,0,8.502-2.537,10.539-6.268-.488,.159-.999,.268-1.539,.268h-1.019Zm-12.317-.253c.02-.017,2.005-1.747,4.336-1.747v-2c-3.107,0-5.563,2.162-5.666,2.254l1.33,1.493ZM14,7.5c0,.828,.672,1.5,1.5,1.5s1.5-.672,1.5-1.5-.672-1.5-1.5-1.5-1.5,.672-1.5,1.5Zm-4,0c0-.828-.672-1.5-1.5-1.5s-1.5,.672-1.5,1.5,.672,1.5,1.5,1.5,1.5-.672,1.5-1.5Z"/></svg>
