<?xml version="1.0" encoding="UTF-8"?>
<svg xmlns="http://www.w3.org/2000/svg" id="Layer_1" data-name="Layer 1" viewBox="0 0 24 24">
  <path d="m24,6v12.231c0,.742-.273,1.455-.772,2.01l-3.391,3.759h-2.693l4.599-5.098c.166-.185.258-.423.258-.671V6c0-.551-.449-1-1-1s-1,.449-1,1v8h-.005c0,.684-.232,1.369-.696,1.922l-2.578,2.684-1.441-1.386,2.533-2.634c.13-.157.192-.369.188-.586-.018-.212-.101-.498-.254-.669-.367-.409-.998-.444-1.406-.077l-2.908,2.676c.366.507.568,1.122.568,1.756v6.314h-2v-6.314c0-.279-.118-.547-.323-.735l-4.026-3.705c-.398-.357-1.03-.324-1.397.086-.328.367-.337.928-.021,1.305l2.57,2.671-1.441,1.386-2.616-2.721c-.488-.579-.73-1.279-.735-1.972h-.011V6c0-.551-.449-1-1-1s-1,.449-1,1v12.231c0,.248.092.486.258.671l4.599,5.098h-2.693l-3.391-3.759c-.499-.555-.772-1.268-.772-2.01V6c0-1.654,1.346-3,3-3s3,1.346,3,3v5.171c.998-.35,2.153-.161,2.996.594l3.004,2.764,2.995-2.756c.85-.761,2.006-.952,3.005-.602v-5.171c0-1.654,1.346-3,3-3s3,1.346,3,3ZM6.981,3.16c0-1.743,1.346-3.16,3-3.16.782,0,1.477.27,2,.727.523-.457,1.218-.727,2-.727,1.654,0,3,1.417,3,3.16,0,2.651-3.69,5.348-4.43,5.861l-.57.396-.57-.396c-.74-.514-4.43-3.21-4.43-5.861Zm2,0c0,1.052,1.604,2.71,3,3.797,1.395-1.089,3-2.75,3-3.797,0-.64-.449-1.16-1-1.16-.498,0-1,.309-1,1h-2c0-.691-.502-1-1-1-.551,0-1,.521-1,1.16Z"/>
</svg>
