<?xml version="1.0" encoding="UTF-8"?>
<svg xmlns="http://www.w3.org/2000/svg" id="Layer_1" data-name="Layer 1" viewBox="0 0 24 24">
  <path d="m15.829,2c-.413-1.164-1.525-2-2.829-2h-2c-1.304,0-2.416.836-2.829,2H3v19c0,1.654,1.346,3,3,3h12c1.654,0,3-1.346,3-3V2h-5.171Zm3.171,19c0,.551-.448,1-1,1H6c-.552,0-1-.449-1-1V4h5v-1c0-.551.448-1,1-1h2c.552,0,1,.449,1,1v1h5v17ZM7.442,11.511l-1.43-1.354,1.375-1.452,1.28,1.213,2.548-2.547,1.414,1.414-2.692,2.692c-.351.352-.808.528-1.265.528-.44,0-.882-.164-1.23-.494Zm5.188,3.273l-2.692,2.692c-.351.352-.808.528-1.265.528-.44,0-.882-.164-1.23-.494l-1.43-1.354,1.375-1.452,1.28,1.213,2.548-2.547,1.414,1.414Zm-.63-2.784l2.042-2h2.958v2h-5Zm2.042,4h2.958v2h-5l2.042-2Z"/>
</svg>
