<?xml version="1.0" encoding="UTF-8"?>
<svg xmlns="http://www.w3.org/2000/svg" id="Layer_1" data-name="Layer 1" viewBox="0 0 24 24" width="512" height="512"><path d="M7,14c2.21,0,4-1.79,4-4s-1.79-4-4-4-4,1.79-4,4,1.79,4,4,4Zm0-6c1.1,0,2,.9,2,2s-.9,2-2,2-2-.9-2-2,.9-2,2-2Zm7,11v5h-2v-5c0-.55-.45-1-1-1H3c-.55,0-1,.45-1,1v5H0v-5c0-1.65,1.35-3,3-3H11c1.65,0,3,1.35,3,3ZM24,3v15H15.9c-.15-.74-.48-1.42-.92-2h7.02V3c0-.55-.45-1-1-1H8c-.55,0-1,.45-1,1v1c-.7,0-1.37,.13-2,.35v-1.35c0-1.65,1.35-3,3-3h13c1.65,0,3,1.35,3,3Zm-6,6.41l-4,4-1.37-1.37c.23-.64,.37-1.33,.37-2.05,0-.15-.01-.29-.02-.44l1.02,1.02,2.59-2.59h-2.59v-2h4c1.1,0,2,.9,2,2v4h-2v-2.59Z"/></svg>
