<?xml version="1.0" encoding="UTF-8"?>
<svg xmlns="http://www.w3.org/2000/svg" id="Layer_1" data-name="Layer 1" viewBox="0 0 24 24">
  <path d="m12,0C5.383,0,0,5.383,0,12s5.383,12,12,12c3.076,0,5.876-1.173,8-3.084v-.916h-2.026c-1.669,1.25-3.733,2-5.974,2-5.157,0-9.415-3.924-9.944-8.944.224.071.434.181.623.328.511.396,1.158.615,1.821.615s1.311-.219,1.821-.615c.234-.182.499-.307.782-.371.47,2.273,2.487,3.987,4.897,3.987s4.435-1.721,4.899-4h.101c.538,0,.976.434,1,.99v4.01h2v-4.002c.02-.56.459-.998,1-.998.551,0,1,.448,1,1v7h2v-9C24,5.383,18.617,0,12,0Zm0,15c-1.654,0-3-1.346-3-3s1.346-3,3-3,3,1.346,3,3-1.346,3-3,3Zm9-4c-.768,0-1.468.288-1.998.77-.531-.48-1.232-.77-2.002-.77h-.101c-.465-2.279-2.485-4-4.899-4s-4.428,1.715-4.897,3.988c-.732.082-1.419.36-2.009.817-.322.251-.863.253-1.188,0-.548-.425-1.182-.696-1.857-.797C2.549,5.958,6.821,2,12,2c5.231,0,9.536,4.038,9.964,9.16-.303-.103-.627-.16-.964-.16Z"/>
</svg>
