<?xml version="1.0" encoding="UTF-8"?>
<svg xmlns="http://www.w3.org/2000/svg" id="Layer_1" data-name="Layer 1" viewBox="0 0 24 24">
  <path d="m20.036,13.891s-.001-.007-.002-.011c0,0,.001.006.003.011h0Zm-5.036-5.892c0-1.654-1.346-3-3-3s-3,1.346-3,3h2c0-.552.448-1,1-1s1,.448,1,1c0,.831-.667,1.332-1.767,2.059-1.047.691-2.233,1.476-2.233,2.941v1h6v-2h-3.072c.131-.09.269-.181.408-.273,1.124-.742,2.664-1.76,2.664-3.727Zm8.551,12.042c-.351.437-.849.711-1.404.771l-1.199.133-.132,1.192c-.047.469-.261.921-.603,1.26-.216.218-.491.391-.789.494-.225.081-.459.12-.691.12-.548,0-1.089-.218-1.485-.623l-3.724-3.723c-.477.231-1,.346-1.523.346-.519,0-1.037-.114-1.512-.342l-3.727,3.726c-.388.398-.924.614-1.473.614-.237,0-.477-.04-.708-.124-.285-.099-.559-.27-.779-.491-.34-.34-.554-.791-.602-1.269l-.131-1.182-1.2-.133c-.554-.061-1.053-.335-1.403-.771-.35-.437-.509-.982-.447-1.538.051-.469.263-.913.598-1.248l3.345-3.345c-.002.011-.004.021,0,0h0c.002-.008.004-.016.003-.011.058-.283-.051-.715-.316-.885-.499-.322-.903-.759-1.201-1.297-.285-.514-.435-1.104-.432-1.71-.003-.595.146-1.186.431-1.7.3-.54.705-.977,1.204-1.298.267-.173.403-.48.339-.765-.135-.59-.115-1.198.06-1.805.329-1.147,1.246-2.064,2.395-2.394.604-.175,1.212-.195,1.806-.059.281.061.59-.074.762-.341.324-.5.76-.904,1.298-1.202,1.045-.578,2.342-.578,3.387,0,.538.298.974.702,1.297,1.201.173.269.48.407.765.341.59-.134,1.197-.115,1.805.06,1.147.329,2.064,1.246,2.394,2.395.175.605.194,1.214.059,1.806-.063.282.073.59.342.763.499.322.902.759,1.201,1.297h0c.284.516.434,1.106.431,1.711.003.596-.146,1.187-.432,1.7-.298.537-.701.974-1.199,1.296-.267.173-.38.584-.321.868,0,0,0,.002.002.011.004.018.003.01,0,0l3.364,3.364c.334.336.545.778.598,1.248.061.557-.099,1.103-.448,1.538Zm-14.57-1.707c-.177-.241-.469-.36-.736-.299-.591.134-1.198.115-1.805-.06-.882-.252-1.629-.854-2.076-1.641l-2.335,2.335-.004.121,2.854.345.314,2.784.064.087,3.723-3.672Zm7.216-2.25c.264.061.535.05.811-.03.484-.139.886-.54,1.024-1.023.08-.277.09-.551.031-.81-.25-1.103.235-2.262,1.207-2.889.218-.141.399-.339.537-.587.118-.214.181-.467.18-.729,0-.272-.062-.525-.181-.741-.138-.247-.318-.444-.536-.586-.972-.626-1.457-1.786-1.208-2.887.06-.261.05-.533-.03-.811-.139-.483-.541-.886-1.023-1.024-.278-.08-.55-.089-.81-.031-1.1.25-2.263-.235-2.889-1.206-.141-.219-.338-.399-.585-.536-.441-.244-1.008-.244-1.449,0-.247.137-.444.317-.586.537-.624.969-1.784,1.453-2.886,1.206-.262-.06-.534-.049-.811.03-.483.139-.886.541-1.024,1.023-.08.278-.09.551-.031.81.25,1.103-.235,2.262-1.205,2.889-.221.142-.401.339-.539.587-.118.215-.181.468-.18.73,0,.272.062.525.18.739.138.248.319.445.539.588.97.626,1.454,1.786,1.206,2.886-.06.261-.05.534.03.812.139.483.54.885,1.022,1.022.281.082.552.089.811.032.192-.044.387-.065.58-.065.911,0,1.791.471,2.308,1.271.142.22.339.4.586.537.441.246,1.009.245,1.448,0,.248-.138.445-.318.587-.538.627-.971,1.791-1.448,2.886-1.206Zm5.814,2.638l-2.372-2.391c-.448.79-1.196,1.393-2.081,1.646-.604.173-1.211.194-1.805.058-.265-.056-.556.06-.733.3l3.649,3.649.006-.002.095.021.058-.084.31-2.782,2.791-.311c.045-.005.088-.059.083-.103Z"/>
</svg>
