<?xml version="1.0" encoding="UTF-8"?>
<svg xmlns="http://www.w3.org/2000/svg" id="Layer_1" data-name="Layer 1" viewBox="0 0 24 24">
  <path d="m23.452,5.325l-2.66,2.66-1.414-1.414,1.57-1.571h-8.948c-3.86,0-7,3.14-7,7,0,1.075.251,2.09.687,3h-2.151c-.335-.941-.536-1.945-.536-3C3,7.038,7.038,3,12,3h8.948l-1.57-1.571L20.792.015l2.659,2.659c.729.731.729,1.92,0,2.65Zm-12.252,1.675v1.2h-.327c-1.198,0-2.173.975-2.173,2.173,0,1.033.734,1.929,1.747,2.131l2.791.559c.268.054.462.291.462.563,0,.316-.258.574-.574.574h-2.126c-.316,0-.585-.211-.671-.5h-1.62c.102,1.175,1.09,2.1,2.291,2.1h.2v1.2h1.6v-1.2h.326c1.199,0,2.174-.975,2.174-2.173,0-1.033-.734-1.929-1.747-2.131l-2.792-.559c-.267-.054-.461-.291-.461-.562,0-.316.257-.574.573-.574h2.127c.316,0,.585.211.671.5h1.62c-.102-1.175-1.09-2.1-2.291-2.1h-.2v-1.2h-1.6Zm7.113,2c.436.91.687,1.925.687,3,0,3.86-3.141,7-7,7H3.052l1.571-1.571-1.414-1.414-2.659,2.659c-.731.731-.731,1.92,0,2.651l2.659,2.659,1.414-1.414-1.571-1.571h8.948c4.963,0,9-4.038,9-9,0-1.055-.2-2.059-.536-3h-2.151Z"/>
</svg>
