<?xml version="1.0" encoding="UTF-8"?>
<svg xmlns="http://www.w3.org/2000/svg" id="Layer_1" data-name="Layer 1" viewBox="0 0 24 24" width="512" height="512"><path d="M22,24H2V3C2,1.346,3.346,0,5,0h14c1.654,0,3,1.346,3,3V24Zm-18-2H20V3c0-.551-.448-1-1-1H5c-.552,0-1,.449-1,1V22ZM13,11c-.107,2.564-.607,4.23-.977,4.829-.37-.599-.87-2.265-.977-4.829h1.954Zm1.998-2h2.935c-.348-2.062-1.755-3.759-3.635-4.537,.485,1.519,.648,3.384,.7,4.537Zm-3.952,0h1.954c-.107-2.564-.607-4.23-.977-4.829-.37,.599-.87,2.265-.977,4.829Zm-1.298-4.537c-1.88,.778-3.287,2.475-3.635,4.537h2.935c.052-1.153,.215-3.018,.7-4.537Zm4.549,11.074c1.88-.778,3.287-2.475,3.635-4.537h-2.935c-.052,1.153-.215,3.018-.7,4.537Zm-5.249-4.537h-2.935c.348,2.062,1.755,3.759,3.635,4.537-.485-1.519-.648-3.384-.7-4.537Zm7.952,7H7v2h10v-2Z"/></svg>
