<?xml version="1.0" encoding="UTF-8"?>
<svg xmlns="http://www.w3.org/2000/svg" id="Layer_1" data-name="Layer 1" viewBox="0 0 24 24">
  <path d="m7.456,13h1.044l-.363,4.221c-.031.44-.337.779-.706.779-.244,0-.471-.151-.601-.4l-.831-1.6-.831,1.6c-.129.249-.356.4-.601.4-.368,0-.675-.339-.706-.779l-.363-4.221h1.042l.249,3.158,1.209-2.327,1.209,2.327.247-3.158Zm5.753,3.158l-1.209-2.327-1.209,2.327-.249-3.158h-1.042l.363,4.221c.031.44.337.779.706.779.244,0,.471-.151.601-.4l.831-1.6.831,1.6c.129.249.356.4.601.4.368,0,.675-.339.706-.779l.363-4.221h-1.044l-.247,3.158Zm6,0l-1.209-2.327-1.209,2.327-.249-3.158h-1.042l.363,4.221c.031.44.337.779.706.779.244,0,.471-.151.601-.4l.831-1.6.831,1.6c.129.249.356.4.601.4.368,0,.675-.339.706-.779l.363-4.221h-1.044l-.247,3.158ZM4.5,7c.828,0,1.5-.672,1.5-1.5s-.672-1.5-1.5-1.5-1.5.672-1.5,1.5.672,1.5,1.5,1.5Zm4,0c.828,0,1.5-.672,1.5-1.5s-.672-1.5-1.5-1.5-1.5.672-1.5,1.5.672,1.5,1.5,1.5Zm15.5-3v19H0V4C0,2.346,1.346,1,3,1h18c1.654,0,3,1.346,3,3Zm-22,0v4h20v-4c0-.551-.449-1-1-1H3c-.551,0-1,.449-1,1Zm20,17v-11H2v11h20Z"/>
</svg>
