<?xml version="1.0" encoding="UTF-8"?>
<svg xmlns="http://www.w3.org/2000/svg" id="Layer_1" data-name="Layer 1" viewBox="0 0 24 24">
  <path d="m24,6h-2.101c-.465-2.279-2.485-4-4.899-4H5V0h-2v2H0v10h2.493L.108,20.333c-.245.878-.07,1.798.48,2.524.552.727,1.391,1.143,2.302,1.143,1.29,0,2.435-.868,2.781-2.105l1.112-3.895h3.216v2h2v-6h-2v2h-2.645l1.142-4h8.503c2.414,0,4.435-1.721,4.899-4h2.101v-2ZM3.747,21.351c-.107.382-.459.649-.856.649-.284,0-.536-.125-.708-.351-.172-.228-.225-.504-.15-.772l2.54-8.877h1.844l-2.669,9.351Zm13.253-11.351H2v-6h15c1.654,0,3,1.346,3,3s-1.346,3-3,3ZM4,6h9v2H4v-2Z"/>
</svg>
