<?xml version="1.0" encoding="UTF-8"?>
<svg xmlns="http://www.w3.org/2000/svg" id="Layer_1" data-name="Layer 1" viewBox="0 0 24 24" width="512" height="512"><path d="m16.481,6.907l-3.093,3.093,3.093,3.093-1.414,1.414-3.093-3.093-3.093,3.093-1.414-1.414,3.093-3.093-3.093-3.093,1.414-1.414,3.093,3.093,3.093-3.093,1.414,1.414Zm7.519-3.907v17h-6.852l-3.847,3.18c-.362.322-.826.484-1.293.484-.476,0-.955-.168-1.337-.507l-3.748-3.157H0V3C0,1.346,1.346,0,3,0h18c1.654,0,3,1.346,3,3Zm-2,0c0-.551-.449-1-1-1H3c-.551,0-1,.449-1,1v15h5.654l4.326,3.645,4.449-3.645h5.571V3Z"/></svg>
