<?xml version="1.0" encoding="UTF-8"?>
<svg xmlns="http://www.w3.org/2000/svg" id="Layer_1" data-name="Layer 1" viewBox="0 0 24 24" width="512" height="512"><path d="M10,19.5c0,.83-.67,1.5-1.5,1.5s-1.5-.67-1.5-1.5,.67-1.5,1.5-1.5,1.5,.67,1.5,1.5Zm2-3.5c-2.21,0-4-1.79-4-4s1.79-4,4-4,4,1.79,4,4-1.79,4-4,4Zm2-4c0-1.1-.9-2-2-2s-2,.9-2,2,.9,2,2,2,2-.9,2-2ZM24,3v6h-4v15H4V9H0V3C0,1.35,1.35,0,3,0H21c1.65,0,3,1.35,3,3Zm-2,4V3c0-.55-.45-1-1-1H3c-.55,0-1,.45-1,1V7h2v-3h2V22h12V4h2v3h2Zm-6.5,11c-.83,0-1.5,.67-1.5,1.5s.67,1.5,1.5,1.5,1.5-.67,1.5-1.5-.67-1.5-1.5-1.5Z"/></svg>
