<?xml version="1.0" encoding="UTF-8"?>
<svg xmlns="http://www.w3.org/2000/svg" id="Layer_1" data-name="Layer 1" viewBox="0 0 24 24">
  <path d="m12,6.787L2.366,20.188c-.474.778-.491,1.716-.045,2.509.451.804,1.312,1.303,2.247,1.303h14.865c.935,0,1.795-.499,2.246-1.302.445-.793.43-1.731-.087-2.573L12,6.787Zm-1.444,15.213l1.444-2.186,1.443,2.186h-2.887Zm9.379-.282c-.048.085-.192.282-.503.282h-3.592l-3.841-5.814-3.841,5.814h-3.592c-.311,0-.456-.197-.503-.282-.05-.088-.114-.263-.005-.464l7.94-11.042,7.926,11.016c.129.212.062.397.01.489Zm4.064-11.718v3h-2v-3c0-2.206-1.794-4-4-4H2.994l2.302,2.291-1.414,1.414L.583,6.406c-.775-.775-.775-2.037,0-2.812L3.881.295l1.414,1.414-2.291,2.291h14.995c3.309,0,6,2.691,6,6Z"/>
</svg>
