<?xml version="1.0" encoding="UTF-8"?>
<svg xmlns="http://www.w3.org/2000/svg" id="Layer_1" data-name="Layer 1" viewBox="0 0 24 24" width="512" height="512"><path d="M17.07,10c-3.86,0-7,3.14-7,7s3.14,7,7,7,7-3.14,7-7-3.14-7-7-7Zm0,12c-2.76,0-5-2.24-5-5s2.24-5,5-5,5,2.24,5,5-2.24,5-5,5ZM5.07,13v11H3.07v-7.63l-1.58,1.63L.05,16.6l3.51-3.6h1.51Zm16.16,3.16l-3.3,3.3c-.36,.36-.83,.55-1.33,.55-.01,0-.02,0-.03,0-.51,0-.99-.22-1.34-.6l-1.99-2.08,1.44-1.39,1.93,2.02,3.22-3.22,1.41,1.41ZM15.07,0V8.23c-.7,.16-1.37,.4-2,.72V3.37l-1.58,1.63-1.43-1.4L13.56,0h1.51ZM4.07,0C1.86,0,.07,1.79,.07,4v3c0,2.21,1.79,4,4,4s4-1.79,4-4v-3C8.07,1.79,6.28,0,4.07,0Zm2,7c0,1.1-.9,2-2,2s-2-.9-2-2v-3c0-1.1,.9-2,2-2s2,.9,2,2v3Z"/></svg>
