<?xml version="1.0" encoding="UTF-8"?>
<svg xmlns="http://www.w3.org/2000/svg" id="Layer_1" data-name="Layer 1" viewBox="0 0 24 24" width="512" height="512"><path d="m9.311,7.897c1.689-1.324,2.202-3.751,1.112-5.679-.583-1.029-1.526-1.764-2.657-2.069C6.647-.153,5.476.004,4.471.591,1.175,2.52,0,5.683,0,8,0,10.128.141,11.457.905,12.81c.791,1.398,2.205,2.182,3.709,2.182.741,0,1.503-.19,2.223-.591,1.258-.736,2.017-2.017,2.149-3.39.009.077.014.154.014.233v12.757h2v-12.757c0-1.068-.416-2.073-1.172-2.829l-.517-.517Zm-1.498-1.395c-1.572.856-1.511,2.093-1.086,2.927.589,1.154.186,2.61-.943,3.27-1.128.628-2.506.243-3.138-.874-.501-.886-.646-1.744-.646-3.825,0-1.762.915-4.181,3.48-5.682.36-.21.759-.318,1.163-.318.201,0,.403.027.602.08.61.165,1.12.563,1.437,1.123.654,1.157.265,2.637-.869,3.3ZM19.529.591c-1.004-.587-2.176-.744-3.295-.443-1.131.305-2.075,1.04-2.657,2.069-1.09,1.928-.577,4.355,1.112,5.679l-.517.517c-.756.755-1.172,1.76-1.172,2.829v12.757h2v-12.757c0-.078.005-.155.014-.232.131,1.372.889,2.652,2.142,3.386.681.378,1.499.609,2.214.609,1.494,0,2.927-.786,3.725-2.196.765-1.353.905-2.681.905-4.81,0-2.317-1.174-5.48-4.471-7.409Zm1.825,11.234c-.632,1.116-2.01,1.501-3.181.849-1.085-.635-1.489-2.09-.899-3.245.425-.833.486-2.07-1.086-2.926-1.133-.664-1.523-2.144-.869-3.301.316-.56.827-.958,1.437-1.123.599-.161,1.226-.077,1.765.238,2.566,1.501,3.48,3.92,3.48,5.682,0,2.081-.145,2.939-.646,3.825Z"/></svg>
