<?xml version="1.0" encoding="UTF-8"?>
<svg xmlns="http://www.w3.org/2000/svg" id="Layer_1" data-name="Layer 1" viewBox="0 0 24 24" width="512" height="512"><path d="M21,13c-1.139,0-2.223-.239-3.204-.67,1.97-1.828,3.204-4.438,3.204-7.33,0-2.757-2.243-5-5-5s-5,2.243-5,5c0,2.893,1.234,5.502,3.204,7.33-.981,.431-2.065,.67-3.204,.67-4.411,0-8-3.589-8-8H1V24H3V10.993c.571,.76,1.247,1.436,2.007,2.007h-.007v11h2V14.164c.635,.278,1.304,.493,2,.635v9.201h2V15c.685,0,1.354-.069,2-.201v9.201h2V14.165c.344-.151,.678-.32,1-.507,.322,.187,.656,.356,1,.507v9.835h2V14.799c.646,.132,1.315,.201,2,.201v9h2V13h-2Zm-5-1.759c-1.828-1.468-3-3.721-3-6.241,0-1.654,1.346-3,3-3s3,1.346,3,3c0,2.521-1.172,4.773-3,6.241Z"/></svg>
