<?xml version="1.0" encoding="UTF-8"?>
<svg xmlns="http://www.w3.org/2000/svg" id="Layer_1" data-name="Layer 1" viewBox="0 0 24 24" width="512" height="512"><path d="M2,12H0c0-1.1,.15-2.19,.44-3.24l1.93,.54c-.24,.87-.37,1.78-.37,2.7ZM6.95,3.37l-1.01-1.72c-1.77,1.04-3.26,2.53-4.3,4.3l1.73,1.01c.87-1.48,2.11-2.72,3.58-3.59Zm5.05-1.37V0c-1.1,0-2.19,.15-3.24,.44l.54,1.93c.87-.24,1.78-.37,2.7-.37Zm0,20c-.92,0-1.83-.12-2.7-.37l-.54,1.93c1.05,.29,2.14,.44,3.24,.44v-2Zm-5.05-1.37c-1.48-.87-2.72-2.11-3.59-3.58l-1.72,1.01c1.04,1.77,2.53,3.26,4.3,4.3l1.01-1.73ZM2.37,14.7c-.24-.87-.37-1.78-.37-2.7H0c0,1.1,.15,2.19,.44,3.24l1.93-.54Zm21.63-2.7h-2c0,.92-.12,1.83-.37,2.7l1.93,.54c.29-1.05,.44-2.14,.44-3.24Zm-1.64,6.06l-1.73-1.01c-.87,1.48-2.11,2.72-3.58,3.59l1.01,1.72c1.77-1.04,3.26-2.53,4.3-4.3Zm-7.12,5.5l-.54-1.93c-.87,.24-1.78,.37-2.7,.37v2c1.1,0,2.19-.15,3.24-.44ZM15.24,.44c-1.05-.29-2.14-.44-3.24-.44V2c.92,0,1.83,.12,2.7,.37l.54-1.93Zm7.12,5.5c-1.04-1.77-2.53-3.26-4.3-4.3l-1.01,1.73c1.48,.87,2.72,2.11,3.59,3.58l1.72-1.01Zm1.2,2.82l-1.93,.54c.24,.87,.37,1.78,.37,2.7h2c0-1.1-.15-2.19-.44-3.24Z"/></svg>
