<?xml version="1.0" encoding="UTF-8"?>
<svg xmlns="http://www.w3.org/2000/svg" id="Layer_1" data-name="Layer 1" viewBox="0 0 24 24" width="512" height="512"><path d="M23.12,11.88c-1.13-1.13-3.11-1.13-4.24,0l-7.88,7.88v4.24h4.24l7.88-7.88c.57-.57,.88-1.32,.88-2.12s-.31-1.55-.88-2.12Zm-1.41,2.83l-7.29,7.29h-1.41v-1.41l7.29-7.29c.38-.38,1.04-.38,1.41,0,.19,.19,.29,.44,.29,.71s-.1,.52-.29,.71ZM2,3c0-.55,.45-1,1-1h7v6h6v3.93l2-2v-3.34L11.41,0H3C1.35,0,0,1.35,0,3V22H9v-2H2V3Zm10,.41l2.59,2.59h-2.59V3.41Zm1.95,10.57c.02-.16,.05-.31,.05-.48,0-.83-.67-1.5-1.5-1.5s-1.5,.67-1.5,1.5h0c0,.46,.06,.87,.16,1.23-.52,.25-1.05,.27-1.17,.27-.51,0-1.02-.17-1.5-.45,.92-1.1,1.5-2.42,1.5-3.55,0-1.65-1.35-3-3-3s-3,1.35-3,3c0,1.14,.58,2.45,1.5,3.55-.48,.28-.99,.45-1.5,.45v2c1.05,0,2.09-.41,3-1.05,.91,.64,1.95,1.05,3,1.05,.3,0,.67-.04,1.05-.12l2.9-2.9Zm-6.95-.74c-.61-.76-1-1.61-1-2.24,0-.55,.45-1,1-1s1,.45,1,1c0,.63-.39,1.48-1,2.24Z"/></svg>
