<?xml version="1.0" encoding="UTF-8"?>
<svg xmlns="http://www.w3.org/2000/svg" id="Layer_1" data-name="Layer 1" viewBox="0 0 24 24">
  <path d="m13.5,12c0,2.206,1.794,4,4,4s4-1.794,4-4-1.794-4-4-4-4,1.794-4,4Zm4-2c1.103,0,2,.897,2,2s-.897,2-2,2-2-.897-2-2,.897-2,2-2Zm-5.5-2c2.206,0,4-1.794,4-4S14.206,0,12,0s-4,1.794-4,4,1.794,4,4,4Zm0-6c1.103,0,2,.897,2,2s-.897,2-2,2-2-.897-2-2,.897-2,2-2Zm-5.5,14c2.206,0,4-1.794,4-4s-1.794-4-4-4-4,1.794-4,4,1.794,4,4,4Zm0-6c1.103,0,2,.897,2,2s-.897,2-2,2-2-.897-2-2,.897-2,2-2Zm17.5,11v3h-2v-3c0-.938-.636-1.717-1.511-1.934l-2.983,3.457-3.023-3.447c-.859.227-1.483,1.002-1.483,1.923v3h-2v-3c0-.938-.636-1.717-1.51-1.934l-2.984,3.457-3.023-3.447c-.859.227-1.483,1.002-1.483,1.923v3H0v-3c0-2.148,1.686-3.899,3.839-3.987l.478-.02,2.178,2.483,2.141-2.481.474.013c1.166.032,2.186.557,2.893,1.362.697-.791,1.697-1.312,2.836-1.358l.478-.02,2.178,2.483,2.141-2.481.474.013c2.182.06,3.891,1.813,3.891,3.991Z"/>
</svg>
