<?xml version="1.0" encoding="UTF-8"?>
<svg xmlns="http://www.w3.org/2000/svg" id="Layer_1" data-name="Layer 1" viewBox="0 0 24 24">
  <path d="m6.75,9h3.5c1.517,0,2.75-1.31,2.75-2.919,0-1.78-1.807-3.724-3.46-4.363.486-.453.96-1.063.96-1.717h-4c0,.654.474,1.264.96,1.717-1.653.64-3.46,2.584-3.46,4.363,0,1.61,1.233,2.919,2.75,2.919Zm1.75-5.5c.745,0,2.5,1.527,2.5,2.581,0,.507-.336.919-.75.919h-3.5c-.414,0-.75-.413-.75-.919,0-1.054,1.755-2.581,2.5-2.581Zm14.518,5.285c-.595-.542-1.356-.82-2.169-.782-.804.037-1.545.386-2.085.981l-3.217,3.534c-.551-.91-1.55-1.519-2.689-1.519H3c-1.654,0-3,1.346-3,3v7c0,1.654,1.346,3,3,3h10.448l9.787-10.984c1.094-1.226.996-3.123-.218-4.23Zm-1.275,2.899l-9.19,10.316H3c-.551,0-1-.448-1-1v-7c0-.552.449-1,1-1h9.858c.629,0,1.142.513,1.142,1.143,0,.564-.421,1.051-.98,1.13l-5.161.737.283,1.98,5.161-.737c1.175-.168,2.129-.988,2.514-2.059l4.427-4.864c.181-.2.43-.316.699-.329.272-.008.529.082.728.262.407.372.44,1.009.072,1.421Zm-6.492-6.934l-1.414-1.414,2.75-2.75c.779-.78,2.049-.78,2.828,0l2.752,2.752-1.414,1.414-1.752-1.752v3.422c-.644.279-1.231.682-1.716,1.216l-.284.312V3l-1.75,1.75Z"/>
</svg>
