<?xml version="1.0" encoding="UTF-8"?>
<svg xmlns="http://www.w3.org/2000/svg" id="Layer_1" data-name="Layer 1" viewBox="0 0 24 24" width="512" height="512"><path d="M23.91,16.51l-1.73-8.3c-.87-3.12-3.44-5.43-6.53-6.05-1.56-1.4-3.56-2.17-5.65-2.17C5.99,0,2.58,2.73,1.71,6.66L.07,14.6c-.18,.83,.02,1.69,.55,2.36,.53,.67,1.33,1.05,2.18,1.05h1.33c.1,.34,.26,.67,.49,.95,.53,.67,1.33,1.05,2.18,1.05h2.75c.25,2.24,2.14,4,4.45,4s4.2-1.76,4.45-4h2.75c.83,0,1.6-.36,2.13-.98l.1-.12c.53-.7,.7-1.59,.48-2.38Zm-19.72-.51h-1.39c-.25,0-.47-.11-.62-.3s-.21-.44-.16-.69l1.64-7.93c.67-2.99,3.27-5.08,6.33-5.08,.63,0,1.25,.09,1.85,.27-3.03,.78-5.43,3.19-6.14,6.39l-1.52,7.34Zm9.81,6c-1.21,0-2.22-.86-2.45-2h4.9c-.23,1.14-1.24,2-2.45,2Zm7.86-4.34l-.02,.02c-.16,.2-.38,.32-.64,.32H6.8c-.24,0-.47-.11-.62-.3-.15-.19-.21-.44-.15-.69l1.64-7.93c.67-2.99,3.27-5.08,6.33-5.08,2.9,0,5.48,1.95,6.24,4.69l1.73,8.3c.07,.24,.02,.48-.12,.68Z"/></svg>
