<?xml version="1.0" encoding="UTF-8"?>
<svg xmlns="http://www.w3.org/2000/svg" id="Layer_1" data-name="Layer 1" viewBox="0 0 24 24">
  <path d="m21,21v3h-2v-3c0-1.654-1.346-3-3-3h-5v6h-2v-6h-1c-1.654,0-3,1.346-3,3v3h-2v-3c0-2.757,2.243-5,5-5h8c2.757,0,5,2.243,5,5Zm-6.5-1c-.828,0-1.5.672-1.5,1.5s.672,1.5,1.5,1.5,1.5-.672,1.5-1.5-.672-1.5-1.5-1.5ZM4,3c0-1.654,1.346-3,3-3,.64,0,1.407.206,2.095.553.619-.22,1.747-.553,2.905-.553s2.286.333,2.904.553c.688-.347,1.455-.553,2.096-.553,1.654,0,3,1.346,3,3,0,1.305-.837,2.417-2.001,2.829,0,.547,0,1.169,0,1.17v2.001c0,3.314-2.686,6-6,6s-6-2.686-6-6v-2.001s0-.623.001-1.17c-1.165-.412-2.001-1.524-2.001-2.829Zm12,5h-8v1c0,1.125.478,2.203,1.31,2.961.843.768,1.939,1.128,3.086,1.021,2.021-.193,3.604-2.036,3.604-4.196v-.785ZM6,3c0,.552.449,1,1,1h.415l.293.293c.248.248.288.289.292,1.707h8c.004-1.418.045-1.459.292-1.707l.293-.293h.415c.552,0,1-.448,1-1s-.448-1-1-1c-.345,0-.963.172-1.479.5l-.449.286-.49-.215c-.014-.006-1.321-.571-2.582-.571s-2.569.565-2.582.571l-.488.214-.451-.285c-.516-.328-1.135-.5-1.479-.5-.551,0-1,.448-1,1Z"/>
</svg>
