<?xml version="1.0" encoding="UTF-8"?>
<svg xmlns="http://www.w3.org/2000/svg" id="Layer_1" data-name="Layer 1" viewBox="0 0 24 24" width="512" height="512"><path d="M22.943,3.714c-.673-.572-1.561-.817-2.439-.674-.212,.034-.416,.093-.609,.172-.347-1.273-1.513-2.213-2.894-2.213-.535,0-1.037,.141-1.472,.388-.534-.833-1.467-1.388-2.528-1.388-1.382,0-2.548,.94-2.895,2.213-.194-.079-.398-.138-.609-.173-.88-.143-1.768,.103-2.439,.674-.672,.571-1.057,1.404-1.057,2.286V13.566l-.955-.758c-1.207-1.129-3.106-1.064-4.235,.143-1.129,1.208-1.066,3.11,.129,4.231l7.072,6.818h15.989V6c0-.881-.385-1.714-1.057-2.286Zm-.943,18.286H8.817L2.317,15.733c-.403-.377-.424-1.013-.047-1.417,.182-.194,.429-.306,.694-.315,.292,.003,.521,.087,.774,.32l4.261,3.392V5c0-.294,.129-.572,.353-.762,.228-.193,.52-.272,.822-.224,.463,.076,.825,.556,.825,1.093v5.893h2V3c0-.551,.448-1,1-1s1,.449,1,1V11h2V4c0-.551,.448-1,1-1s1,.449,1,1v7h2V6.107c0-.538,.362-1.018,.824-1.093,.302-.048,.596,.031,.823,.224,.224,.19,.353,.468,.353,.762V22Zm-7-7.5c0,.828-.672,1.5-1.5,1.5s-1.5-.672-1.5-1.5,.672-1.5,1.5-1.5,1.5,.672,1.5,1.5Zm5,0c0,.828-.672,1.5-1.5,1.5s-1.5-.672-1.5-1.5,.672-1.5,1.5-1.5,1.5,.672,1.5,1.5Zm-2,4c0,.828-.672,1.5-1.5,1.5s-1.5-.672-1.5-1.5,.672-1.5,1.5-1.5,1.5,.672,1.5,1.5Zm-5,0c0,.828-.672,1.5-1.5,1.5s-1.5-.672-1.5-1.5,.672-1.5,1.5-1.5,1.5,.672,1.5,1.5Z"/></svg>
