<?xml version="1.0" encoding="UTF-8"?>
<svg xmlns="http://www.w3.org/2000/svg" id="Layer_1" data-name="Layer 1" viewBox="0 0 24 24">
  <path d="m14.928,9h3.072V2.048c0-1.129-.919-2.048-2.048-2.048h-7.904c-1.129,0-2.048.918-2.048,2.048v6.952h3.202l1.834,1.617c.29.256.653.384,1.016.384.358,0,.716-.126.998-.376l1.878-1.624Zm-2.877-.156l-2.093-1.844h-1.95l.04-5,7.952.048v4.952h-1.816l-2.133,1.844Zm-1.051,13.156v2h-2v-2c0-.551-.448-1-1-1H3c-.552,0-1,.449-1,1v2H0v-2c0-1.654,1.346-3,3-3h5c1.654,0,3,1.346,3,3Zm13,0v2h-2v-2c0-.551-.448-1-1-1h-5c-.552,0-1,.449-1,1v2h-2v-2c0-1.654,1.346-3,3-3h5c1.654,0,3,1.346,3,3Zm-18.5-4c1.93,0,3.5-1.57,3.5-3.5s-1.57-3.5-3.5-3.5-3.5,1.57-3.5,3.5,1.57,3.5,3.5,3.5Zm0-5c.827,0,1.5.673,1.5,1.5s-.673,1.5-1.5,1.5-1.5-.673-1.5-1.5.673-1.5,1.5-1.5Zm9.5,1.5c0,1.93,1.57,3.5,3.5,3.5s3.5-1.57,3.5-3.5-1.57-3.5-3.5-3.5-3.5,1.57-3.5,3.5Zm3.5-1.5c.827,0,1.5.673,1.5,1.5s-.673,1.5-1.5,1.5-1.5-.673-1.5-1.5.673-1.5,1.5-1.5Z"/>
</svg>
