<?xml version="1.0" encoding="UTF-8"?>
<svg xmlns="http://www.w3.org/2000/svg" id="Layer_1" data-name="Layer 1" viewBox="0 0 24 24">
  <path d="m20.684,15.224l-6.13-3.065c-.341-.17-.553-.513-.553-.895V3c0-.939-.385-1.766-1.085-2.327-.72-.578-1.686-.803-2.558-.608L0,2.075v21.925h9v-3.32l2.78,2.224c.883.707,1.992,1.096,3.124,1.096h9.097v-3.41c0-2.288-1.271-4.344-3.316-5.367ZM2,22v-2h5v2H2Zm20,0h-7.097c-.679,0-1.344-.233-1.874-.657l-2.809-2.247c-.883-.707-1.992-1.096-3.124-1.096H2V3.724l4-.777v9.053h2V2.559l2.764-.537c.305-.069.656.016.9.211.223.179.336.437.336.767v8.264c0,1.144.636,2.172,1.659,2.684l6.13,3.065c1.364.682,2.211,2.052,2.211,3.578v1.41Z"/>
</svg>
