<?xml version="1.0" encoding="UTF-8"?>
<svg xmlns="http://www.w3.org/2000/svg" id="Layer_1" data-name="Layer 1" viewBox="0 0 24 24">
  <path d="m10.5,6h3c1.103,0,2-.897,2-2v-2c0-1.103-.897-2-2-2h-3c-1.103,0-2,.897-2,2v2c0,1.103.897,2,2,2Zm0-4h3v2h-3v-2Zm3,16h-3c-1.103,0-2,.897-2,2v2c0,1.103.897,2,2,2h3c1.103,0,2-.897,2-2v-2c0-1.103-.897-2-2-2Zm0,4h-3v-2h3v2Zm8.5-4h-3c-1.103,0-2,.897-2,2v2c0,1.103.897,2,2,2h3c1.103,0,2-.897,2-2v-2c0-1.103-.897-2-2-2Zm0,4h-3v-2h3v2Zm-17-4h-3c-1.103,0-2,.897-2,2v2c0,1.103.897,2,2,2h3c1.103,0,2-.897,2-2v-2c0-1.103-.897-2-2-2Zm0,4h-3v-2h3v2Zm-.5-6h-2v-2.5c0-1.379,1.122-2.5,2.5-2.5h6v-3h2v3h6c1.379,0,2.5,1.121,2.5,2.5v2.5h-2v-2.5c0-.275-.225-.5-.5-.5h-6v3h-2v-3h-6c-.276,0-.5.225-.5.5v2.5Z"/>
</svg>
