<?xml version="1.0" encoding="UTF-8"?>
<svg xmlns="http://www.w3.org/2000/svg" id="Layer_1" data-name="Layer 1" viewBox="0 0 24 24">
  <path d="m14.03.476c-1.255-.638-2.875-.637-4.125,0L.052,5.5l4.948,2.523v5.811c.629.094,1.303.188,2,.276v-5.067l2.904,1.481c.626.32,1.345.48,2.063.48s1.437-.16,2.064-.48l2.969-1.513v5.1c.697-.088,1.371-.183,2-.276v-5.844l3-1.529v6.884c.266-.047.432-.078.442-.08l1.558-.295v-7.469L14.03.476Zm-.907,8.266c-.681.346-1.63.348-2.31,0l-6.357-3.241,6.357-3.241c.68-.347,1.63-.346,2.311,0l6.357,3.242-6.358,3.241Zm-1.123,7.759c-4.047,0-10.747-1.258-10.814-1.271l-1.186-.225v8.991l1.186-.225c.067-.013,6.764-1.271,10.814-1.271s10.747,1.258,10.814,1.271l1.186.225v-8.991l-1.186.225c-.067.013-6.764,1.271-10.814,1.271Zm-10,.906c1.944.334,5.884.952,9,1.072v2.044c-3.116.12-7.056.738-9,1.072v-4.188Zm20,4.188c-1.944-.334-5.884-.952-9-1.072v-2.044c3.116-.12,7.056-.738,9-1.072v4.188Z"/>
</svg>
