<?xml version="1.0" encoding="UTF-8"?>
<svg xmlns="http://www.w3.org/2000/svg" id="Layer_1" data-name="Layer 1" viewBox="0 0 24 24" width="512" height="512"><path d="M12.021,12l-2.305-3.294c-.749-1.068-1.974-1.706-3.277-1.706h-1.438c-1.654,0-3,1.346-3,3v2H0v9c0,1.654,1.346,3,3,3H21c1.654,0,3-1.346,3-3V12H12.021Zm-3.021,2v8h-2V14h2Zm2,0h2v8h-2V14Zm4,0h2v8h-2V14ZM4,10c0-.551,.449-1,1-1h1.438c.652,0,1.265,.319,1.639,.853l1.503,2.147H4v-2Zm-2,11v-7h3v8H3c-.551,0-1-.449-1-1Zm20,0c0,.551-.449,1-1,1h-2V14h3v7ZM3,2.5C3,1.12,4.119,0,5.5,0s2.5,1.119,2.5,2.5-1.119,2.5-2.5,2.5-2.5-1.119-2.5-2.5Zm13.292,2.207c-.833-.833-1.292-1.942-1.292-3.121V0h2V1.586c0,.645,.251,1.251,.707,1.707,.834,.834,1.293,1.943,1.293,3.122v1.585h-2v-1.585c0-.645-.251-1.251-.708-1.708Zm4-1c-.833-.833-1.292-1.942-1.292-3.121V0h2V.586c0,.645,.251,1.251,.707,1.707,.834,.834,1.293,1.943,1.293,3.122v1.585h-2v-1.585c0-.645-.251-1.251-.708-1.708Z"/></svg>
