<?xml version="1.0" encoding="UTF-8"?>
<svg xmlns="http://www.w3.org/2000/svg" id="Layer_1" data-name="Layer 1" viewBox="0 0 24 24" width="512" height="512"><path d="m2.5,0h6.262c-.391.583-.629,1.268-.711,2H2.5c-.275,0-.5.224-.5.5v19.5h6v2H0V2.5C0,1.122,1.121,0,2.5,0Zm2.5,7c0,1.105.895,2,2,2,.366,0,.705-.106,1-.277v-3.445c-.295-.172-.634-.277-1-.277-1.105,0-2,.895-2,2Zm-1,9c0,1.654,1.346,3,3,3,.352,0,.686-.072,1-.184v-5.631c-.314-.112-.648-.184-1-.184-1.654,0-3,1.346-3,3ZM24,2.5v21.5h-14V2.5c0-1.378,1.121-2.5,2.5-2.5h9c1.379,0,2.5,1.122,2.5,2.5Zm-2,0c0-.276-.225-.5-.5-.5h-9c-.275,0-.5.224-.5.5v19.5h10V2.5Zm-2,13.5c0,1.654-1.346,3-3,3s-3-1.346-3-3,1.346-3,3-3,3,1.346,3,3Zm-3-7c1.105,0,2-.895,2-2s-.895-2-2-2-2,.895-2,2,.895,2,2,2Z"/></svg>
