<?xml version="1.0" encoding="UTF-8"?>
<svg xmlns="http://www.w3.org/2000/svg" id="Layer_1" data-name="Layer 1" viewBox="0 0 24 24">
  <path d="m24,17.032c0-2.793-.483-5.54-1.438-8.163l-2.144-5.895c-.429-1.181-1.562-1.975-2.818-1.975H6.4c-1.257,0-2.39.793-2.818,1.975l-2.144,5.895c-.955,2.623-1.438,5.369-1.438,8.163v1.968h2v4h6v-4h8v4h6v-4h2v-1.968ZM5.461,3.658c.144-.394.521-.658.939-.658h11.199c.419,0,.796.265.939.658l1.579,4.342H3.882l1.579-4.342Zm.539,17.342h-2v-2h2v2Zm14,0h-2v-2h2v2Zm-4-4v-2h-8v2H2c.002-1.009.092-2.009.23-3h2.77v-2h-2.396c.159-.674.348-1.341.572-2h17.647c.224.659.412,1.326.572,2h-2.396v2h2.77c.139.991.229,1.991.23,3h-6Z"/>
</svg>
