<?xml version="1.0" encoding="UTF-8"?>
<svg xmlns="http://www.w3.org/2000/svg" id="Layer_1" data-name="Layer 1" viewBox="0 0 24 24">
  <path d="m24,8c0-2.375-1.971-8-5.078-8-3.062,0-4.922,5.557-4.922,8,0,2.414,1.721,4.434,4,4.899v11.101h2v-11.101c2.279-.465,4-2.484,4-4.899Zm-5,3c-1.654,0-3-1.346-3-3,0-2.172,1.689-6,2.922-6,1.269,0,3.078,3.881,3.078,6,0,1.654-1.346,3-3,3Zm-10-4h2v5.414l-3.293,3.293-1.414-1.414,2.707-2.707v-4.586Zm7,10.274v2.707c-1.674,1.262-3.748,2.019-6,2.019C4.486,22,0,17.514,0,12S4.486,2,10,2c1.167,0,2.284.211,3.326.581-.281.617-.519,1.249-.708,1.868-.822-.286-1.7-.449-2.618-.449-4.411,0-8,3.589-8,8s3.589,8,8,8c2.39,0,4.533-1.059,6-2.726Z"/>
</svg>
