<?xml version="1.0" encoding="UTF-8"?>
<svg xmlns="http://www.w3.org/2000/svg" id="Layer_1" data-name="Layer 1" viewBox="0 0 24 24">
  <path d="m9,0h-2c-1.304,0-2.416.836-2.829,2H0v19c0,1.654,1.346,3,3,3h10c1.654,0,3-1.346,3-3V2h-4.171c-.413-1.164-1.525-2-2.829-2Zm5,21c0,.552-.448,1-1,1H3c-.552,0-1-.448-1-1V4h4v-1c0-.552.448-1,1-1h2c.552,0,1,.448,1,1v1h4v17ZM21,0c-1.654,0-3,1.346-3,3v17.914l3,3,3-3V3c0-1.654-1.346-3-3-3Zm1,20.086l-1,1-1-1V3c0-.552.448-1,1-1s1,.448,1,1v17.086ZM8.602,6.293l1.414,1.414-2.827,2.827c-.31.31-.717.465-1.124.465s-.814-.155-1.124-.465l-1.647-1.647,1.414-1.414,1.357,1.357,2.537-2.537Zm0,6l1.414,1.414-2.827,2.827c-.31.31-.717.465-1.124.465s-.814-.155-1.124-.465l-1.647-1.647,1.414-1.414,1.357,1.357,2.537-2.537Z"/>
</svg>
