<?xml version="1.0" encoding="UTF-8"?>
<svg xmlns="http://www.w3.org/2000/svg" id="Layer_1" data-name="Layer 1" viewBox="0 0 24 24" width="512" height="512"><path d="M12,8.18V3.107C12,1.591,10.924,.273,9.497,.041c-.879-.142-1.768,.103-2.439,.674-.672,.571-1.057,1.404-1.057,2.286v1H2l2,2-2,2H6v2.581L1.879,14.636c-.567,.567-.879,1.32-.879,2.122s.312,1.555,.879,2.121l5.121,5.122h15V10.18l-10-2ZM8,3c0-.294,.128-.572,.353-.762,.228-.193,.518-.273,.823-.224,.462,.076,.825,.556,.825,1.093v.893h-2v-1Zm12,19H7.828l-4.535-4.536c-.189-.188-.293-.439-.293-.707s.104-.518,.287-.701l2.713-2.669v3.613h2V8h2v1.82l10,2v10.18Z"/></svg>
