<?xml version="1.0" encoding="UTF-8"?>
<svg xmlns="http://www.w3.org/2000/svg" id="Layer_1" data-name="Layer 1" viewBox="0 0 24 24" width="512" height="512"><path d="m20.5,17c-.502,0-.977.11-1.408.301l-2.668-3.387c.362-.551.576-1.208.576-1.915s-.215-1.365-.577-1.916l2.643-3.399c.439.199.922.316,1.435.316,1.93,0,3.5-1.57,3.5-3.5s-1.57-3.5-3.5-3.5c-1.391,0-2.585.822-3.149,2H6.649c-.564-1.178-1.758-2-3.149-2C1.57,0,0,1.57,0,3.5c0,1.391.822,2.585,2,3.149v10.702c-1.178.564-2,1.758-2,3.149,0,1.93,1.57,3.5,3.5,3.5,1.391,0,2.585-.822,3.149-2h10.702c.564,1.178,1.758,2,3.149,2,1.93,0,3.5-1.57,3.5-3.5s-1.57-3.5-3.5-3.5Zm-16.5.051V6.949c1.527-.221,2.728-1.423,2.949-2.949h10.101c.072.499.243.964.503,1.372l-2.66,3.421c-.428-.187-.898-.293-1.393-.293-1.93,0-3.5,1.57-3.5,3.5s1.57,3.5,3.5,3.5c.496,0,.967-.107,1.396-.294l2.673,3.393c-.27.414-.444.891-.518,1.401H6.949c-.221-1.527-1.423-2.728-2.949-2.949Zm9.5-3.551c-.827,0-1.5-.673-1.5-1.5s.673-1.5,1.5-1.5,1.5.673,1.5,1.5-.673,1.5-1.5,1.5Zm7-11.5c.827,0,1.5.673,1.5,1.5s-.673,1.5-1.5,1.5-1.5-.673-1.5-1.5.673-1.5,1.5-1.5ZM3.5,2c.827,0,1.5.673,1.5,1.5s-.673,1.5-1.5,1.5-1.5-.673-1.5-1.5.673-1.5,1.5-1.5Zm0,20c-.827,0-1.5-.673-1.5-1.5s.673-1.5,1.5-1.5,1.5.673,1.5,1.5-.673,1.5-1.5,1.5Zm17,0c-.827,0-1.5-.673-1.5-1.5s.673-1.5,1.5-1.5,1.5.673,1.5,1.5-.673,1.5-1.5,1.5Z"/></svg>
