<?xml version="1.0" encoding="UTF-8"?>
<svg xmlns="http://www.w3.org/2000/svg" id="Layer_1" data-name="Layer 1" viewBox="0 0 24 24">
  <path d="m21,0H3C1.346,0,0,1.346,0,3l.004,4.083,1.076,12.917h1.92v.5c0,1.93,1.57,3.5,3.5,3.5s3.5-1.57,3.5-3.5v-2.5H2.92l-.836-10h19.83l-.217,2.601c.592.52,1.242,1.114,1.855,1.791l.448-5.392V3c0-1.654-1.346-3-3-3ZM5,20h3v.5c0,.827-.673,1.5-1.5,1.5s-1.5-.673-1.5-1.5v-.5ZM13,2h3v4h-3V2Zm-2,4h-3V2h3v4ZM3,2h3v4H2v-3c0-.551.448-1,1-1Zm19,4h-4V2h3c.552,0,1,.449,1,1v3Zm-1.953,5.815c-.411-.358-.797-.692-1.114-1.01l-.855-.856-.679,1.001c-.688,1.015-.941,2.06-1.144,2.899-.077.317-.196.81-.308,1.031-.114-.265-.236-.679-.299-1.039l-.334-1.94-1.369,1.413c-.967.997-1.945,2.927-1.945,4.685,0,3.309,2.691,6,6,6s6-2.691,6-6c0-2.742-2.285-4.732-3.953-6.185Zm-.173,9.697c.257-.708.107-1.53-.46-2.097l-1.414-1.415-1.415,1.415c-.567.567-.717,1.389-.46,2.097-1.258-.675-2.125-1.987-2.125-3.512,0-.558.167-1.186.415-1.763.312.446.738.763,1.32.763,1.815,0,2.189-1.549,2.463-2.68.095-.39.19-.786.328-1.177.068.06.137.12.207.181,1.531,1.333,3.267,2.844,3.267,4.676,0,1.525-.867,2.838-2.126,3.512Z"/>
</svg>
