<?xml version="1.0" encoding="UTF-8"?>
<svg xmlns="http://www.w3.org/2000/svg" id="Layer_1" data-name="Layer 1" viewBox="0 0 24 24">
  <path d="m14,5.478l6-1.15v2.037l-6,1.15v-2.037Zm0,10.085l6-1.15v-2.037l-6,1.15v2.037Zm0-4l6-1.15v-2.037l-6,1.15v2.037ZM24,2.909v19.017l-12.675,2.104-5.298-2.878-4.705,2.848H.043l-.043-1V4.365c0-1.149.641-2.18,1.671-2.689L4.229.413C5.337-.134,6.663-.134,7.771.413l3.047,1.505L20.57.047c.85-.151,1.721.075,2.385.63.664.554,1.045,1.368,1.045,2.232Zm-17-.647v17.143l3,1.629V3.744l-3-1.482ZM2,21.252l3-1.816V2.262l-2.443,1.206c-.338.167-.557.52-.557.896v16.887ZM22,2.909c0-.369-.204-.596-.326-.697s-.383-.264-.742-.197l-8.932,1.712v18.164l10-1.66V2.909Zm-8,16.654l4-.767v-2.037l-4,.767v2.037Z"/>
</svg>
