<?xml version="1.0" encoding="UTF-8"?>
<svg xmlns="http://www.w3.org/2000/svg" id="Layer_1" data-name="Layer 1" viewBox="0 0 24 24" width="512" height="512"><path d="M22.067,15.504c-.232-1.428-1.55-2.504-3.067-2.504H10.841l-.82-3h8.978v-2H9.475l-1.549-5.668C7.52,.784,6.076-.214,4.564,.008c-.844,.124-1.598,.603-2.067,1.313-.469,.71-.615,1.59-.396,2.421l3.334,12.304c.252,.929,.821,1.708,1.572,2.232l-.69,1.38c-.468,.938-.419,2.028,.132,2.919s1.504,1.423,2.552,1.423h12v-2H9c-.503,0-.762-.332-.851-.474-.088-.144-.269-.523-.044-.974l.787-1.574c.133,.013,.267,.021,.403,.021h9.812c.881,0,1.715-.386,2.286-1.058s.816-1.561,.674-2.438Zm-2.197,1.144c-.191,.224-.469,.353-.763,.353H9.295c-.901,0-1.695-.607-1.93-1.478L4.033,3.227c-.073-.278-.026-.563,.133-.803,.158-.24,.464-.446,.812-.446,.45,0,.881,.357,1.016,.872l3.319,12.15h9.686c.538,0,1.018,.362,1.093,.825,.049,.303-.03,.595-.223,.822Z"/></svg>
