<?xml version="1.0" encoding="UTF-8"?>
<svg xmlns="http://www.w3.org/2000/svg" id="Layer_1" data-name="Layer 1" viewBox="0 0 24 24" width="512" height="512"><path d="M12,10H3c-1.654,0-3,1.346-3,3v4H2v2H0v2H2v3h2v-3h7v3h2v-3h2v-2h-2v-2h2v-4c0-1.654-1.346-3-3-3Zm-1,9H4v-2h7v2Zm2-4H2v-2c0-.552,.449-1,1-1H12c.551,0,1,.448,1,1v2Zm10.455-5c.355,.606,.545,1.295,.545,2,0,2.206-1.794,4-4,4-.379,0-.712-.042-1-.104v8.104h-2V13.462h1c.298,0,.526,.115,.728,.217,.269,.136,.637,.321,1.272,.321,1.103,0,2-.897,2-2,0-.485-.185-.957-.521-1.331l-.603-.669,.603-.669c.336-.374,.521-.846,.521-1.331,0-.894-.609-1.684-1.481-1.92l-1.086-.294,.42-1.044c.098-.243,.147-.493,.147-.742,0-1.103-.897-2-2-2s-2,.897-2,2c0,.249,.05,.499,.147,.742l.42,1.044-1.086,.294c-.873,.236-1.481,1.026-1.481,1.92,0,.155,.026,.308,.062,.458-.631-.288-1.325-.458-2.062-.458,0-1.457,.802-2.775,2.036-3.472-.024-.175-.036-.352-.036-.528,0-2.206,1.794-4,4-4s4,1.794,4,4c0,.177-.012,.354-.036,.528,1.234,.696,2.036,2.015,2.036,3.472,0,.705-.19,1.394-.545,2Z"/></svg>
