<?xml version="1.0" encoding="UTF-8"?>
<svg xmlns="http://www.w3.org/2000/svg" id="Layer_1" data-name="Layer 1" viewBox="0 0 24 24" width="512" height="512"><path d="M12,0C5.383,0,0,5.383,0,12v12H9v-7c0-1.654,1.346-3,3-3s3,1.346,3,3v7h9V12C24,5.383,18.617,0,12,0Zm10,12v3h-4v-6h3.54c.299,.947,.46,1.955,.46,3Zm-1.342-5h-7.658V2.05c3.272,.326,6.084,2.236,7.658,4.95ZM11,2.05V7H3.342c1.573-2.714,4.386-4.624,7.658-4.95ZM2.46,9h3.54v6H2v-3c0-1.045,.161-2.053,.46-3Zm4.54,13H2v-5H7v5Zm5-10c-1.634,0-3.087,.788-4,2.003v-5.003h8v5.003c-.913-1.216-2.366-2.003-4-2.003Zm5,10v-5h5v5h-5Z"/></svg>
