<?xml version="1.0" encoding="UTF-8"?>
<svg xmlns="http://www.w3.org/2000/svg" id="Layer_1" data-name="Layer 1" viewBox="0 0 24 24">
  <path d="m13,7.5c0,.828-.672,1.5-1.5,1.5s-1.5-.672-1.5-1.5.672-1.5,1.5-1.5,1.5.672,1.5,1.5ZM5.5,3c.828,0,1.5-.672,1.5-1.5s-.672-1.5-1.5-1.5-1.5.672-1.5,1.5.672,1.5,1.5,1.5Zm1.32,6L12.654,0h-2.474l-5.833,9h2.474Zm16.415,4.015l-9.788,10.985H3c-1.654,0-3-1.346-3-3v-7c0-1.654,1.346-3,3-3h9.858c1.139,0,2.138.609,2.689,1.519l3.216-3.534c.542-.595,1.282-.944,2.086-.981.808-.042,1.574.24,2.168.782,1.214,1.107,1.312,3.004.219,4.229Zm-1.566-2.751c-.199-.182-.459-.267-.728-.262-.27.013-.518.129-.7.329l-4.426,4.864c-.385,1.071-1.339,1.891-2.514,2.059l-5.161.737-.283-1.979,5.161-.737c.559-.08.981-.566.981-1.131,0-.63-.512-1.142-1.142-1.142H3c-.551,0-1,.449-1,1v7c0,.551.449,1,1,1h9.552l9.191-10.316c.367-.412.334-1.049-.073-1.421Z"/>
</svg>
