<?xml version="1.0" encoding="UTF-8"?>
<svg xmlns="http://www.w3.org/2000/svg" id="Layer_1" data-name="Layer 1" viewBox="0 0 24 24" width="512" height="512"><path d="M20.943,8.714c-.673-.571-1.562-.819-2.44-.674-.567,.092-1.079,.357-1.49,.737-.533-.483-1.239-.778-2.013-.778-1.081,0-2.031,.575-2.559,1.435l-.059-.122,2.421-5.096c.357-.806,.343-1.724-.04-2.518-.384-.794-1.098-1.379-1.96-1.604-1.396-.362-2.916,.405-3.515,1.759l-.259,.533-.239-.492C8.182,.507,6.667-.265,5.266,.094c-.862,.222-1.577,.805-1.963,1.598s-.403,1.711-.038,2.542l2.396,5.081-1.464,3.01-2.318,2.311c-.566,.567-.879,1.32-.879,2.122s.312,1.555,.879,2.121l5.121,5.122h15V11c0-.881-.385-1.714-1.057-2.286Zm-6.943,2.286c0-.551,.448-1,1-1s1,.449,1,1v2c0,.551-.448,1-1,1s-1-.449-1-1v-2ZM11.103,2.697c.218-.493,.747-.785,1.196-.666,.298,.078,.533,.269,.663,.537,.127,.265,.133,.571,.024,.815l-3.91,8.227c-.534-.514-1.213-.792-1.903-.832L11.103,2.697Zm-6.018,.708c-.118-.269-.112-.575,.017-.84,.13-.268,.366-.458,.663-.535,.457-.118,.979,.177,1.21,.704l.941,1.944-1.133,2.329-1.699-3.601Zm2.743,18.595l-4.535-4.536c-.189-.188-.293-.439-.293-.707s.104-.518,.292-.706l2.996-2.987c.39-.39,1.024-.39,1.414,0,.391,.39,.391,1.025,.002,1.414l-2.256,2.251,1.412,1.416,2.258-2.252c.381-.381,.636-.84,.769-1.326l1.394-2.935,.722,1.491c.064,1.598,1.383,2.878,2.997,2.878,.768,0,1.469-.29,2-.766,.531,.476,1.232,.766,2,.766,.351,0,.687-.061,1-.172v6.172H7.828Zm11.172-8c-.552,0-1-.449-1-1v-1.893c0-.537,.362-1.017,.824-1.093,.302-.047,.596,.03,.823,.224,.224,.19,.353,.468,.353,.762v2c0,.551-.448,1-1,1Z"/></svg>
