<?xml version="1.0" encoding="UTF-8"?>
<svg xmlns="http://www.w3.org/2000/svg" id="Layer_1" data-name="Layer 1" viewBox="0 0 24 24">
  <path d="m21,3H3c-1.654,0-3,1.346-3,3v13h6.923l3.749,3.157c.382.339.861.507,1.337.507.468,0,.931-.163,1.292-.484l3.848-3.18h6.852V6c0-1.654-1.346-3-3-3Zm1,14h-5.571l-4.448,3.645-4.327-3.645H2v-6.487l1.844,1.026-.724,2.265.4.302,1.82-1.407,1.811,1.401.421-.291-.737-2.239,1.832-1.061v.004l1.844,1.026-.724,2.265.4.302,1.82-1.407,1.811,1.401.421-.291-.737-2.239,1.832-1.061v.004l1.844,1.026-.724,2.265.4.302,1.82-1.407,1.811,1.401.421-.291-.737-2.239,1.832-1.061v6.491Zm0-7h-2.403l-.653-2.501h-.54l-.654,2.501h-4.82l-.653-2.501h-.54l-.654,2.501h-4.82l-.653-2.501h-.54l-.654,2.501h-2.416v-4c0-.551.448-1,1-1h18c.552,0,1,.449,1,1v4Z"/>
</svg>
