<?xml version="1.0" encoding="UTF-8"?>
<svg xmlns="http://www.w3.org/2000/svg" id="Layer_1" data-name="Layer 1" viewBox="0 0 24 24" width="512" height="512"><path d="M19.66,10.57l-.78-.52c.69-.65,1.11-1.56,1.11-2.56,0-1.93-1.57-3.5-3.5-3.5-.54,0-1.05,.12-1.5,.34V2h1V0H8V2h1V7.46l-4.66,3.11c-.84,.56-1.34,1.49-1.34,2.5v10.93H21V13.07c0-1-.5-1.94-1.34-2.5Zm-3.16-4.57c.83,0,1.5,.67,1.5,1.5,0,.6-.36,1.14-.89,1.37l-2.11-1.41c.02-.81,.68-1.47,1.5-1.47Zm2.5,16H5v-7h12v-2H5c.02-.31,.18-.59,.44-.76l5.55-3.7V2h2v6.54l5.55,3.7c.28,.19,.45,.5,.45,.83v8.93Z"/></svg>
