<?xml version="1.0" encoding="UTF-8"?>
<svg xmlns="http://www.w3.org/2000/svg" id="Layer_1" data-name="Layer 1" viewBox="0 0 24 24" width="512" height="512"><path d="M23.3,8c.445,1.253,.7,2.596,.7,4,0,6.617-5.383,12-12,12S0,18.617,0,12C0,6.066,4.334,1.137,10,.181V2.202C5.441,3.131,2,7.171,2,12c0,5.514,4.486,10,10,10s10-4.486,10-10c0-1.422-.303-2.774-.841-4h2.141Zm.7-8h-5V2h2.086l-2.086,2.086v1.914h5v-2h-2.086l2.086-2.086V0Zm-7,6h-2.086l2.086-2.086v-1.914h-5v2h2.086l-2.086,2.086v1.914h5v-2ZM6.203,11.289l-1.406,1.422c.792,.784,1.913,1.265,3.073,1.265,1.044,0,2.12-.389,3.019-1.296l-1.422-1.407c-1.189,1.205-2.604,.669-3.264,.017Zm8.299-.021l-1.422,1.406c.897,.908,1.973,1.297,3.017,1.297,1.158,0,2.277-.479,3.068-1.261l-1.406-1.423c-.658,.652-2.067,1.183-3.257-.02Zm-4.502,6.732c0,1.105,.895,2,2,2s2-.895,2-2-.895-2-2-2-2,.895-2,2Z"/></svg>
