<?xml version="1.0" encoding="UTF-8"?>
<svg xmlns="http://www.w3.org/2000/svg" id="Layer_1" data-name="Layer 1" viewBox="0 0 24 24" width="512" height="512"><path d="m14.199,16.262c-2.96-1.282-5.08-3.407-6.453-6.469l3.405-3.406L4.887.122,1.717,3.292c-1.107,1.104-1.717,2.599-1.717,4.208,0,7.248,9.252,16.5,16.5,16.5,1.608,0,3.103-.609,4.207-1.715l3.171-3.171-6.265-6.265-3.414,3.414Zm5.093,4.609c-.727.728-1.718,1.129-2.792,1.129-6.233,0-14.5-8.266-14.5-14.5,0-1.074.401-2.066,1.13-2.793l1.757-1.757,3.437,3.437-2.935,2.936.246.613c1.64,4.085,4.481,6.924,8.446,8.437l.605.231,2.927-2.927,3.437,3.437-1.758,1.758Zm4.708-16.871v2h-4v4h-2v-4h-4v-2h4V0h2v4h4Z"/></svg>
