<?xml version="1.0" encoding="UTF-8"?>
<svg xmlns="http://www.w3.org/2000/svg" id="Layer_1" data-name="Layer 1" viewBox="0 0 24 24">
  <path d="m11.088,22c.437.751.984,1.429,1.633,2h-7.721v-3.851c0-1.666-.757-3.288-2.132-4.567C.719,13.583-.298,10.754.075,7.822.59,3.782,3.904.517,7.956.059c2.565-.289,5.13.522,7.039,2.227,1.91,1.707,3.006,4.154,3.006,6.714,0,.337-.021.672-.058,1.003-.718.005-1.41.11-2.071.292.08-.424.129-.857.129-1.295,0-1.991-.853-3.895-2.339-5.222-1.505-1.345-3.454-1.959-5.481-1.731-3.147.355-5.721,2.891-6.121,6.029-.292,2.285.5,4.488,2.17,6.043,1.2,1.116,2.027,2.451,2.448,3.881h1.322v-7.184c-1.161-.414-2-1.514-2-2.816h2c0,.551.449,1,1,1s1-.449,1-1h2c0,1.302-.839,2.402-2,2.816v9.184h-3.008c0,.05.008.099.008.149v1.851h4.088Zm11.194-2.687l1.416.816-.998,1.733-1.411-.813c-.605.652-1.393,1.125-2.289,1.33v1.621h-2v-1.621c-.896-.205-1.685-.678-2.289-1.33l-1.411.813-.998-1.733,1.416-.816c-.129-.418-.218-.853-.218-1.313s.089-.895.218-1.313l-1.416-.816.998-1.733,1.411.813c.605-.652,1.393-1.125,2.289-1.33v-1.621h2v1.621c.896.205,1.685.678,2.289,1.33l1.411-.813.998,1.733-1.416.816c.129.418.218.853.218,1.313s-.089.895-.218,1.313Zm-1.782-1.313c0-1.378-1.121-2.5-2.5-2.5s-2.5,1.122-2.5,2.5,1.121,2.5,2.5,2.5,2.5-1.122,2.5-2.5Z"/>
</svg>
