<?xml version="1.0" encoding="UTF-8"?>
<svg xmlns="http://www.w3.org/2000/svg" id="Layer_1" data-name="Layer 1" viewBox="0 0 24 24">
  <path d="m23.994,8c-.193-4.434-5.499-8-11.994-8S.199,3.566.006,8h-.006v7.667c0,4.595,5.383,8.333,12,8.333s12-3.738,12-8.333v-7.667h-.006ZM12,2c1.368,0,2.683.183,3.883.51-.09.182-.177.359-.261.53-1.58,3.204-2.014,3.96-3.622,3.96s-2.042-.756-3.622-3.96c-.084-.172-.171-.348-.261-.53,1.201-.327,2.515-.51,3.883-.51Zm6.674,10.859c-1.785,1.014-4.137,1.641-6.674,1.641s-4.889-.627-6.674-1.641c1.464-.249,3.136-.896,4.126-2.469.285-.592.492-1.25.534-1.813.558.277,1.211.422,2.014.422s1.456-.145,2.014-.422c.042.563.248,1.221.534,1.813.99,1.573,2.662,2.22,4.126,2.469ZM6.074,3.254l.226.466c1.604,3.278,2.052,4.312,1.429,5.652-1.1,1.671-3.742,1.67-4.685,1.611-.667-.831-1.045-1.76-1.045-2.733,0-2.015,1.62-3.844,4.074-4.996Zm15.926,12.413c0,3.492-4.486,6.333-10,6.333s-10-2.841-10-6.333v-2.862c2.151,2.225,5.83,3.695,10,3.695s7.849-1.47,10-3.695v2.862Zm-1.044-4.685c-.941.055-3.594.048-4.686-1.609-.623-1.341-.175-2.374,1.429-5.652l.226-.466c2.454,1.151,4.074,2.981,4.074,4.996,0,.972-.378,1.901-1.044,2.732Z"/>
</svg>
