<?xml version="1.0" encoding="UTF-8"?>
<svg xmlns="http://www.w3.org/2000/svg" id="Layer_1" data-name="Layer 1" viewBox="0 0 24 24">
  <path d="m22.587,6.664c-1.788-.857-2.914-2.171-3.348-3.906l-.239-.758V0c-1.426,0-2.618.995-2.924,2.328-3.167,1.039-4.076,4.3-4.076,6.172v.5h-4.006c-1.259,0-2.385.586-3.119,1.5-2.516.91-4.875,2.817-4.875,8.5h2c0-2.795.671-4.747,1.997-5.829.043,1.597.649,3.333,1.139,4.737.146.417.284.812.396,1.172l-.681,4.92h6.031l.5-4h1.617v4h6v-5.395l.385-1.811c.417-1.46.615-2.416.615-3.896v-2.016l4-.5v-1.467c0-.956-.555-1.839-1.413-2.252Zm-4.587,2.454v3.782c0,1.25-.166,2.042-.555,3.412l-.423,1.98-.022,3.709h-2v-4h-5.383l-.5,4h-1.969l.425-3.076s-.363-1.146-.549-1.676c-.483-1.382-1.03-2.948-1.03-4.252.002-1.101.899-1.996,2-1.996h6.006v-2.497c.003-.432.134-4.014,3.546-4.458.705,1.924,2.135,3.442,4.176,4.421.076.037.141.093.188.162l-3.91.489Z"/>
</svg>
