<?xml version="1.0" encoding="UTF-8"?>
<svg xmlns="http://www.w3.org/2000/svg" id="Layer_1" data-name="Layer 1" viewBox="0 0 24 24" width="512" height="512"><path d="m19.039,0H4.039c-1.103,0-2,.897-2,2v22h17c1.654,0,3-1.346,3-3V3c0-1.654-1.346-3-3-3Zm0,2c.551,0,1,.449,1,1v15.184c-.314-.112-.648-.184-1-.184H4.039V2h15Zm0,20H4.039v-2h15c.551,0,1,.449,1,1s-.449,1-1,1Z"/><path d="m7.758,9.993l-2.133,3.502h4.268l2.107,3.455,2.107-3.455h4.268l-2.133-3.502,2.133-3.498h-4.264l-2.112-3.467-2.112,3.467h-4.264l2.133,3.498Zm-.352,2.502l.938-1.541.94,1.541h-1.878Zm1.524-2.502l1.521-2.498h3.099l1.521,2.498-1.526,2.502h-3.091l-1.526-2.502Zm3.071,5.036l-.936-1.534h1.871l-.936,1.534Zm4.595-2.534h-1.878l.94-1.541.938,1.541Zm0-5l-.937,1.537-.936-1.537h1.874Zm-4.594-2.544l.94,1.544h-1.881l.94-1.544Zm-3.657,4.081l-.937-1.537h1.874l-.936,1.537Z"/></svg>
