<?xml version="1.0" encoding="UTF-8"?>
<svg xmlns="http://www.w3.org/2000/svg" id="Layer_1" data-name="Layer 1" viewBox="0 0 24 24">
  <path d="m4,8C4,3.589,7.589,0,12,0s8,3.589,8,8v1h-2v-1c0-3.309-2.691-6-6-6s-6,2.691-6,6v1h-2v-1Zm12,1v-1c0-2.206-1.794-4-4-4s-4,1.794-4,4v1h2v-1c0-1.103.897-2,2-2s2,.897,2,2v1h2Zm1.303,9h.404l.519-1.778,1.773-.525v-.404l-1.774-.518-.518-1.774h-.404l-.525,1.773-1.778.519v.404l1.777.526.526,1.777Zm-10.596-7h-.404l-.525,1.773-1.778.519v.404l1.777.526.526,1.777h.404l.519-1.778,1.773-.525v-.404l-1.774-.518-.518-1.774ZM22.922,1.67c-.684-.571-1.578-.807-2.458-.648l-1.129.205c.504.546.949,1.145,1.323,1.792l.163-.03c.406-.071.686.104.819.216.135.112.359.361.359.768v15.165l-9,1.636v-9.774h-2v9.774l-9-1.636V3.973c0-.407.225-.656.359-.768.134-.112.415-.289.819-.216l.163.03c.374-.647.819-1.247,1.323-1.792l-1.129-.205c-.88-.161-1.774.077-2.458.648-.686.571-1.078,1.411-1.078,2.303v16.834l12,2.182,12-2.182V3.973c0-.892-.393-1.732-1.078-2.303Z"/>
</svg>
