<?xml version="1.0" encoding="UTF-8"?>
<svg xmlns="http://www.w3.org/2000/svg" id="Layer_1" data-name="Layer 1" viewBox="0 0 24 24">
  <path d="m11.5,3c1.381,0,2.5,1.119,2.5,2.5s-1.119,2.5-2.5,2.5-2.5-1.119-2.5-2.5,1.119-2.5,2.5-2.5Zm5.304,11.106l-1.432-3.106h1.989l1.349,2.919,1.815-.838-1.885-4.081h-4.709c-.865,0-1.688.373-2.257,1.023l-1.729,2.977h-3.943v2h5.102l1.087-1.895,1.667,3.615-2.832,2.306v4.975h2v-4.025l2.683-2.191c1.191-.789,1.661-2.309,1.099-3.677Zm1.196-11.106v4h2V3c0-1.654-1.346-3-3-3H4.002C2.348,0,1.002,1.346,1.002,3l-.002,21h2l.002-21c0-.552.449-1,1-1h12.998c.551,0,1,.448,1,1Zm0,16l-.132-.321c-.258.256-.54.493-.856.697l-.914.648.402.976h5.5v-2h-4Z"/>
</svg>
