<?xml version="1.0" encoding="UTF-8"?>
<svg xmlns="http://www.w3.org/2000/svg" id="Layer_1" data-name="Layer 1" viewBox="0 0 24 24">
  <path d="m19,2c0-1.105.895-2,2-2s2,.895,2,2-.895,2-2,2-2-.895-2-2ZM3,4c1.105,0,2-.895,2-2S4.105,0,3,0,1,.895,1,2s.895,2,2,2Zm19.5,1h-2.569c.041.328.069.661.069,1,0,.692-.097,1.36-.262,2h4.262v-1.5c0-.828-.672-1.5-1.5-1.5Zm-18.5,1c0-.339.028-.672.069-1H1.5c-.828,0-1.5.672-1.5,1.5v1.5h4.262c-.165-.64-.262-1.308-.262-2Zm8,0c.828,0,1.5-.672,1.5-1.5s-.672-1.5-1.5-1.5-1.5.672-1.5,1.5.672,1.5,1.5,1.5Zm2.949,11.39l7,2.615v3.995h-2v-2.607l-7-2.615v-5.67c0-.537-.362-1.017-.825-1.093-.304-.049-.596.03-.823.224-.224.19-.353.468-.353.762v10.712s-4.3-3.425-4.32-3.443c-.402-.373-1.034-.354-1.41.048-.377.403-.356,1.038.046,1.416l2.352,2.268h-2.881l-.849-.818c-1.196-1.12-1.26-3.022-.13-4.23,1.114-1.193,2.98-1.269,4.19-.185l1.001.797v-6.563c0-.569.161-1.118.455-1.589-2.062-.987-3.404-3.08-3.404-5.411,0-3.309,2.691-6,6-6s6,2.691,6,6c0,2.386-1.383,4.497-3.509,5.461.29.482.458,1.048.458,1.646v4.283Zm-6.949-11.39c0,1,.37,1.934,1,2.648v-.148c0-.828.672-1.5,1.5-1.5h3c.828,0,1.5.672,1.5,1.5v.153c.63-.713,1-1.646,1-2.653,0-2.206-1.794-4-4-4s-4,1.794-4,4Z"/>
</svg>
