<?xml version="1.0" encoding="UTF-8"?>
<svg xmlns="http://www.w3.org/2000/svg" id="Layer_1" data-name="Layer 1" viewBox="0 0 24 24">
  <path d="m9,13h2.697c-.647.519-1.154,1.204-1.437,2h-1.26v-2Zm15,3.5v7.5h-12v-7.5c0-1.379,1.121-2.5,2.5-2.5h.5v-.5c0-.827.673-1.5,1.5-1.5h3c.827,0,1.5.673,1.5,1.5v.5h.5c1.379,0,2.5,1.121,2.5,2.5Zm-10,0v1.5h8v-1.5c0-.275-.225-.5-.5-.5h-7c-.275,0-.5.225-.5.5Zm8,5.5v-2h-3v1h-2v-1h-3v2h8ZM2,3c0-.552.448-1,1-1h10c.552,0,1,.448,1,1v8.065c.526-.54,1.219-.915,2-1.027V3c0-1.654-1.346-3-3-3H3C1.346,0,0,1.346,0,3v21h10v-2H2V3Zm5,10h-3v2h3v-2Zm-3,6h3v-2h-3v2Zm3-14h-3v2h3v-2Zm5,0h-3v2h3v-2Zm-5,4h-3v2h3v-2Zm2,2h3v-2h-3v2Z"/>
</svg>
