<?xml version="1.0" encoding="UTF-8"?>
<svg xmlns="http://www.w3.org/2000/svg" id="Layer_1" data-name="Layer 1" viewBox="0 0 24 24" width="512" height="512"><path d="m21.808,15.606l.608-.608c.028.002.055.002.083.002.828,0,1.5-.672,1.5-1.5s-.672-1.5-1.5-1.5-1.5.672-1.5,1.5c0,.028,0,.056.002.083l-.608.608c-.423-.267-.893-.465-1.394-.579v-1.612h-2v1.612c-.502.114-.972.313-1.394.579l-.608-.608c.002-.028.002-.055.002-.083,0-.828-.672-1.5-1.5-1.5s-1.5.672-1.5,1.5.672,1.5,1.5,1.5c.028,0,.056,0,.083-.002l.608.608c-.267.423-.465.893-.579,1.394h-1.612v2h1.612c.114.502.313.972.579,1.394l-.608.608c-.028-.002-.055-.002-.083-.002-.828,0-1.5.672-1.5,1.5s.672,1.5,1.5,1.5,1.5-.672,1.5-1.5c0-.028,0-.056-.002-.083l.608-.608c.423.267.893.465,1.394.579v1.612h2v-1.612c.502-.114.972-.313,1.394-.579l.608.608c-.002.028-.002.055-.002.083,0,.828.672,1.5,1.5,1.5s1.5-.672,1.5-1.5-.672-1.5-1.5-1.5c-.028,0-.056,0-.083.002l-.608-.608c.267-.423.465-.893.579-1.394h1.612v-2h-1.612c-.114-.502-.313-.972-.579-1.394Zm-3.808,4.894c-1.378,0-2.5-1.121-2.5-2.5s1.122-2.5,2.5-2.5,2.5,1.121,2.5,2.5-1.122,2.5-2.5,2.5Zm-6.101-12.5h2.101v-2h-2.101c-.13-.638-.382-1.231-.73-1.756l1.247-1.247c.028.002.055.002.083.002.828,0,1.5-.672,1.5-1.5s-.672-1.5-1.5-1.5-1.5.672-1.5,1.5c0,.028,0,.056.002.083l-1.247,1.247c-.525-.348-1.118-.6-1.756-.73V0h-2v2.101c-.638.13-1.231.382-1.756.73l-1.247-1.247c.002-.028.002-.055.002-.083,0-.828-.672-1.5-1.5-1.5S0,.672,0,1.5s.672,1.5,1.5,1.5c.028,0,.056,0,.083-.002l1.247,1.247c-.348.525-.6,1.118-.73,1.756H0v2h2.101c.13.638.382,1.231.73,1.756l-1.247,1.247c-.028-.002-.055-.002-.083-.002-.828,0-1.5.672-1.5,1.5s.672,1.5,1.5,1.5,1.5-.672,1.5-1.5c0-.028,0-.056-.002-.083l1.247-1.247c.525.348,1.118.6,1.756.73v2.101h2v-2.101c1.956-.399,3.501-1.943,3.899-3.899Zm-4.899,2c-1.654,0-3-1.346-3-3s1.346-3,3-3,3,1.346,3,3-1.346,3-3,3Z"/></svg>
