<?xml version="1.0" encoding="UTF-8"?>
<svg xmlns="http://www.w3.org/2000/svg" id="Layer_1" data-name="Layer 1" viewBox="0 0 24 24">
  <path d="m22.812,7.635l-.812-.637V2h-2v3.432L13.908.659c-1.123-.881-2.692-.881-3.815,0L1.188,7.635c-.755.591-1.188,1.48-1.188,2.439v13.926h24v-13.926c0-.959-.433-1.849-1.188-2.439Zm-6.812,14.365h-8v-3c0-.551.449-1,1-1h6c.551,0,1,.449,1,1v3Zm6,0h-4v-3c0-1.654-1.346-3-3-3h-6c-1.654,0-3,1.346-3,3v3H2v-11.926c0-.34.153-.655.421-.865L11.326,2.233c.397-.312.951-.311,1.349,0l8.905,6.977c.267.209.42.524.42.864v11.926ZM12,7c-2.206,0-4,1.794-4,4s1.794,4,4,4,4-1.794,4-4-1.794-4-4-4Zm0,6c-1.103,0-2-.897-2-2s.897-2,2-2,2,.897,2,2-.897,2-2,2Z"/>
</svg>
