<?xml version="1.0" encoding="UTF-8"?>
<svg xmlns="http://www.w3.org/2000/svg" id="Layer_1" data-name="Layer 1" viewBox="0 0 24 24">
  <path d="m14,17h6v2h-6v-2Zm0-4v2h2v-2h-2Zm6-9h-12v3.159c.716.113,1.387.284,2,.511v-1.67h8v2h-7.233c1.045.508,1.878,1.189,2.437,2h6.796v-6Zm1-4H7c-1.657,0-3,1.343-3,3v4.159c.634-.1,1.3-.159,2-.159V3c0-.552.448-1,1-1h14c.552,0,1,.448,1,1v19h-8.275c-.278.752-.76,1.428-1.417,2h11.692V3c0-1.657-1.343-3-3-3Zm-1,13h-2v2h2v-2Zm-8-.5v8c0,1.995-2.579,3.5-6,3.5s-6-1.505-6-3.5v-8c0-1.995,2.579-3.5,6-3.5s6,1.505,6,3.5Zm-2,8v-1.348c-1.046.533-2.435.848-4,.848s-2.954-.315-4-.848v1.348c0,.529,1.519,1.5,4,1.5s4-.971,4-1.5Zm0-4v-1.348c-1.046.533-2.435.848-4,.848s-2.954-.315-4-.848v1.348c0,.529,1.519,1.5,4,1.5s4-.971,4-1.5Zm0-4c0-.529-1.519-1.5-4-1.5s-4,.971-4,1.5,1.519,1.5,4,1.5,4-.971,4-1.5Z"/>
</svg>
