<?xml version="1.0" encoding="UTF-8"?>
<svg xmlns="http://www.w3.org/2000/svg" id="Layer_1" data-name="Layer 1" viewBox="0 0 24 24">
  <path d="m19.333,4c-1.45,0-2.796.795-3.666,1.986-.593-.812-1.41-1.432-2.328-1.75.351-1.468.893-2.616,1.226-3.227L12.81.053c-.406.745-1.085,2.179-1.485,4.016-1.214.178-2.269.82-2.991,1.746-.855-1.096-2.173-1.815-3.667-1.815C2.093,4,0,6.093,0,8.667c0,2.917,2.813,15.243,8.438,15.333,1.421,0,2.736-.675,3.562-1.706.825,1.032,2.139,1.703,3.56,1.703,5.725-.086,8.44-12.306,8.44-15.33,0-2.573-2.094-4.667-4.667-4.667Zm-3.833,18c-1.208,0-2.217-.86-2.449-2h-2.101c-.232,1.14-1.242,2-2.449,2-3.576,0-6.5-10.067-6.5-13.333,0-1.47,1.196-2.667,2.667-2.667s2.658,1.189,2.666,2.653c.096,1.253.994,4.96,1.745,7.347h2.085c-.73-2.095-1.732-5.737-1.828-7.333,0-1.47,1.196-2.667,2.667-2.667,1.396,0,2.667,1.43,2.667,3h2c0-1.57,1.271-3,2.666-3,1.471,0,2.667,1.196,2.667,2.667,0,3.124-2.771,13.333-6.5,13.333Z"/>
</svg>
