<?xml version="1.0" encoding="UTF-8"?>
<svg xmlns="http://www.w3.org/2000/svg" id="Layer_1" data-name="Layer 1" viewBox="0 0 24 24" width="512" height="512"><path d="m12,13.716c-.723,1.089-1.799,1.938-3.103,2.372l-2.581.86-.633-1.897,2.581-.86c1.636-.545,2.735-2.07,2.735-3.795V0h2v10.396c0,1.725,1.1,3.25,2.735,3.795l2.581.86-.633,1.897-2.581-.86c-1.304-.434-2.38-1.284-3.103-2.372Zm11.525,2.112l-1.835-7.953c-.527-2.282-2.53-3.875-4.872-3.875h-1.818v2h1.818c1.405,0,2.607.956,2.923,2.325l1.835,7.953c.281,1.217.424,2.468.424,3.719,0,.535-.207,1.037-.583,1.412-.376.375-.891.591-1.412.591-.256-.01-.428-.035-.637-.105l-1.627-.542s-.004-.002-.006-.002c-1.435-.479-2.457-1.712-2.686-3.172l-.58-.193c-.523-.174-1.006-.414-1.47-.682v.253c0,2.587,1.648,4.875,4.103,5.692h0,0s1.633.544,1.633.544c.412.138.872.234,1.269.208,1.049,0,2.078-.428,2.826-1.176.755-.753,1.17-1.757,1.17-2.827,0-1.402-.16-2.805-.475-4.169Zm-14.575,2.35c-.229,1.46-1.251,2.693-2.686,3.172-.002,0-.004.002-.006.002l-1.627.542c-.209.07-.408.075-.637.105-.521,0-1.036-.215-1.412-.591-.376-.375-.583-.876-.583-1.412,0-1.251.143-2.502.424-3.72l1.835-7.952c.315-1.37,1.518-2.326,2.923-2.326h1.818v-2h-1.818c-2.342,0-4.345,1.594-4.872,3.876L.475,15.828c-.314,1.364-.475,2.767-.475,4.169,0,1.07.415,2.074,1.17,2.827.748.748,1.777,1.176,2.826,1.176h.006c.427,0,.853-.07,1.263-.208l1.633-.544h0s0,0,0,0c2.454-.818,4.103-3.105,4.103-5.692v-.253c-.463.268-.947.508-1.47.682l-.58.193Z"/></svg>
