<?xml version="1.0" encoding="UTF-8"?>
<svg xmlns="http://www.w3.org/2000/svg" id="Layer_1" data-name="Layer 1" viewBox="0 0 24 24">
  <path d="m17,12H7v9c0,1.654,1.346,3,3,3h7.5c1.378,0,2.5-1.121,2.5-2.5v-3.5h-3v-6Zm-2,10h-5c-.551,0-1-.448-1-1v-7h6v8Zm3-2v1.5c0,.275-.224.5-.5.5s-.5-.225-.5-.5v-1.5h1ZM7.79,9.386l-1.446-1.86c.41-.573.657-1.27.657-2.026,0-1.93-1.57-3.5-3.5-3.5S0,3.57,0,5.5s1.57,3.5,3.5,3.5c.447,0,.871-.092,1.264-.245l1.446,1.86,1.579-1.229Zm-5.79-3.886c0-.827.673-1.5,1.5-1.5s1.5.673,1.5,1.5-.673,1.5-1.5,1.5-1.5-.673-1.5-1.5Zm9,1.337v3.163h2v-3.163c1.441-.434,2.5-1.757,2.5-3.337,0-1.93-1.57-3.5-3.5-3.5s-3.5,1.57-3.5,3.5c0,1.58,1.059,2.903,2.5,3.337Zm1-4.837c.827,0,1.5.673,1.5,1.5s-.673,1.5-1.5,1.5-1.5-.673-1.5-1.5.673-1.5,1.5-1.5Zm8.5,0c-1.93,0-3.5,1.57-3.5,3.5,0,.756.247,1.453.657,2.026l-1.446,1.86,1.579,1.229,1.446-1.86c.393.153.817.245,1.264.245,1.93,0,3.5-1.57,3.5-3.5s-1.57-3.5-3.5-3.5Zm0,5c-.827,0-1.5-.673-1.5-1.5s.673-1.5,1.5-1.5,1.5.673,1.5,1.5-.673,1.5-1.5,1.5Z"/>
</svg>
