<?xml version="1.0" encoding="UTF-8"?>
<svg xmlns="http://www.w3.org/2000/svg" id="Layer_1" data-name="Layer 1" viewBox="0 0 24 24">
  <path d="m13.699,17.942l1.47,1.47-1.689,3.033c-.521.957-1.531,1.556-2.629,1.556h-3.667l2.5-9h-2.658l-1.085,1.653c-.559.845-1.494,1.347-2.503,1.347H.082l2.197-5.999L.065,6h1.692l.739.739,1.913,5.26-1.466,4.001h.495c.336,0,.648-.167.833-.447l1.676-2.553h2.81l2.784,2.784-1.727,6.216h1.036c.366,0,.703-.199.878-.521l1.97-3.538Zm3.493-2.163l6.764,6.764-1.414,1.414L.043,1.457,1.457.043l7.947,7.947L7.185,0h3.667c1.099,0,2.108.599,2.634,1.563l4.142,7.437h3.305c1.516,0,2.834,1.076,3.066,2.503.143.88-.103,1.769-.674,2.44-.571.671-1.404,1.057-2.286,1.057h-3.412l-.434.779Zm-4.915-4.915l3.445,3.445.728-1.308h4.588c.293,0,.571-.129.762-.353.193-.228.272-.52.224-.823-.076-.462-.556-.824-1.093-.824h-4.481L11.733,2.528c-.18-.329-.516-.528-.882-.528h-1.036l2.462,8.863Z"/>
</svg>
