<?xml version="1.0" encoding="UTF-8"?>
<svg xmlns="http://www.w3.org/2000/svg" id="Layer_1" data-name="Layer 1" viewBox="0 0 24 24">
  <path d="m7.482,13.769c.756-.747,1.518-1.753,1.518-2.769H3c0,1.016.762,2.021,1.518,2.769-2.552.927-4.518,4.083-4.518,6.743,0,1.923,1.57,3.488,3.5,3.488h5c1.93,0,3.5-1.565,3.5-3.488,0-2.66-1.966-5.816-4.518-6.743Zm1.018,8.231H3.5c-.827,0-1.5-.667-1.5-1.488,0-2.295,2.168-5.012,4-5.012s4,2.717,4,5.012c0,.821-.673,1.488-1.5,1.488ZM24,3c0-1.654-1.346-3-3-3H6.5c-1.93,0-3.5,1.57-3.5,3.5v5.5h2V3.5c0-.827.673-1.5,1.5-1.5s1.5.673,1.5,1.5v2.5h11v15c0,.551-.449,1-1,1h-4.211c-.21.741-.567,1.421-1.046,2h5.257c.017,0,.035,0,.052-.001,1.63-.028,2.948-1.362,2.948-2.999V6h3v-3Zm-2,1h-12v-.5c0-.537-.122-1.045-.338-1.5h11.338c.551,0,1,.449,1,1v1Z"/>
</svg>
