<?xml version="1.0" encoding="UTF-8"?>
<svg xmlns="http://www.w3.org/2000/svg" id="Layer_1" data-name="Layer 1" viewBox="0 0 24 24">
  <path d="m24,7v12.231c0,.742-.273,1.455-.772,2.01l-2.489,2.759h-2.693l3.697-4.098c.166-.185.258-.423.258-.671V7c0-.551-.449-1-1-1s-1,.449-1,1v8h-.005c0,.684-.232,1.369-.696,1.922l-2.578,2.684-1.441-1.386,2.533-2.634c.448-.471.087-1.084-.066-1.255-.366-.409-.998-.443-1.406-.077l-2.908,2.676c.366.507.568,1.122.568,1.756v5.314h-2v-5.314c0-.279-.118-.547-.323-.735l-4.026-3.705c-.398-.356-1.03-.324-1.397.086-.328.367-.337.928-.021,1.305l2.57,2.671-1.441,1.386-2.616-2.721c-.488-.579-.73-1.279-.735-1.972h-.011V7c0-.551-.449-1-1-1s-1,.449-1,1v12.231c0,.248.092.486.258.671l3.697,4.098h-2.693l-2.489-2.759c-.499-.555-.772-1.268-.772-2.01V7c0-1.654,1.346-3,3-3,1.053,0,1.98.546,2.516,1.369.263-.229.607-.369.984-.369h1.5c0,.618.147,1.198.401,1.717-.766.58-1.278,1.462-1.369,2.471v.815c-.346-.002-.692.031-1.032.1v2.068c.999-.35,2.153-.161,2.996.594l3.004,2.764,2.995-2.756c.849-.761,2.007-.951,3.005-.602v-2.065c-.34-.068-.687-.101-1.034-.098v-.842c-.096-1-.606-1.874-1.367-2.45.253-.519.401-1.099.401-1.717h1.5c.377,0,.721.139.984.369.535-.823,1.463-1.369,2.516-1.369,1.654,0,3,1.346,3,3Zm-10.5,1h-3c-.828,0-1.5.672-1.5,1.5v.919c.474.207.924.492,1.33.855l1.67,1.536,1.64-1.51c.416-.372.876-.663,1.36-.874v-.928c0-.828-.672-1.5-1.5-1.5Zm-5.5-4c1.105,0,2-.895,2-2s-.895-2-2-2-2,.895-2,2,.895,2,2,2Zm4,3c1.105,0,2-.895,2-2s-.895-2-2-2-2,.895-2,2,.895,2,2,2Zm4-3c1.105,0,2-.895,2-2s-.895-2-2-2-2,.895-2,2,.895,2,2,2Z"/>
</svg>
