<?xml version="1.0" encoding="UTF-8"?>
<svg xmlns="http://www.w3.org/2000/svg" id="Layer_1" data-name="Layer 1" viewBox="0 0 24 24">
  <path d="m15,9.198V3.107c0-1.516-1.076-2.835-2.503-3.067-.878-.142-1.768.102-2.439.674-.672.571-1.058,1.404-1.058,2.286v11.565l-.955-.758c-1.207-1.128-3.107-1.063-4.236.144-1.13,1.208-1.066,3.11.13,4.23l6.034,5.818h14.027v-12.802l-9-2Zm7,12.802h-11.219l-5.464-5.268c-.403-.378-.424-1.013-.047-1.416.376-.401,1.008-.423,1.47.004l4.26,3.392V3c0-.294.129-.572.353-.763.227-.193.517-.273.822-.223.462.075.825.555.825,1.093v7.694l9,2v9.198ZM3,10V3.109l-1.574,1.573L.012,3.268,2.773.507c.694-.692,1.824-.694,2.518,0l2.762,2.762-1.414,1.414-1.639-1.639v6.957h-2Z"/>
</svg>
