<?xml version="1.0" encoding="UTF-8"?>
<svg xmlns="http://www.w3.org/2000/svg" id="Layer_1" data-name="Layer 1" viewBox="0 0 24 24" width="512" height="512"><path d="M0,21c0,1.65,1.35,3,3,3H21c1.65,0,3-1.35,3-3v-7H0v7Zm2-5H22v5c0,.55-.45,1-1,1H3c-.55,0-1-.45-1-1v-5ZM14,5h4c.55,0,1,.45,1,1v2h-3l3.18,3.65c.44,.49,1.22,.49,1.66,0l3.16-3.65h-3v-2c0-1.65-1.35-3-3-3h-4c0-1.65-1.35-3-3-3H3C1.35,0,0,1.35,0,3v7H14V5Zm-2.53-2.88l-5.88,5.88H2.41L8.41,2h2.59c.17,0,.33,.04,.47,.12Zm-8.47-.12h2.59l-3.59,3.59V3c0-.55,.45-1,1-1Zm5.41,6l3.59-3.59v3.59h-3.59Z"/></svg>
