<?xml version="1.0" encoding="UTF-8"?>
<svg xmlns="http://www.w3.org/2000/svg" id="Layer_1" data-name="Layer 1" viewBox="0 0 24 24" width="512" height="512"><path d="m19,19v5h-2v-5c0-1.654-1.346-3-3-3h-1v2.172c1.164.413,2,1.524,2,2.828v3h-2v-3c0-.552-.448-1-1-1s-1,.448-1,1v3h-2v-3c0-1.304.836-2.415,2-2.828v-2.172h-4.021v2.268c.598.346,1,.992,1,1.732,0,1.105-.895,2-2,2s-2-.895-2-2c0-.74.402-1.386,1-1.732v-2.268c-1.644.012-2.979,1.352-2.979,2.999v5H0v-5c0-2.757,2.243-5,5-5h9c2.757,0,5,2.243,5,5Zm5-14c0,2.757-2.243,5-5,5h-5v-5c0-2.757,2.243-5,5-5s5,2.243,5,5Zm-2,0c0-1.654-1.346-3-3-3s-3,1.346-3,3v3h3c1.654,0,3-1.346,3-3Zm-13,7c1.084,0,2.1-.293,2.979-.799v-2.557c-.733.825-1.79,1.356-2.979,1.356-2.206,0-4-1.794-4-4s1.794-4,4-4c1.275,0,2.4.611,3.133,1.544.157-.737.434-1.429.803-2.061-1.055-.92-2.43-1.483-3.936-1.483C5.691,0,3,2.691,3,6s2.691,6,6,6Z"/></svg>
