<?xml version="1.0" encoding="UTF-8"?>
<svg xmlns="http://www.w3.org/2000/svg" id="Layer_1" data-name="Layer 1" viewBox="0 0 24 24" width="512" height="512"><path d="m23.418,21.222c-.004-.014-.446-1.405-.446-2.722,0-.605.359-1.886.586-2.552l.356-1.054-1.085-.245c-.016-.003-1.578-.365-2.543-1.335-.446-.447-.964-1.24-1.462-2.203.104-.355.177-.723.177-1.111,0-2.071-1.587-3.759-3.606-3.96.359-.599.578-1.292.578-2.04,0-2.206-1.794-4-4-4s-4,1.794-4,4c0,.75.22,1.445.581,2.045-1.993.226-3.553,1.902-3.553,3.955,0,.378.07.737.168,1.085-.507.986-1.032,1.779-1.481,2.23-.966.97-2.528,1.332-2.542,1.334l-1.092.24.361,1.059c.227.666.586,1.946.586,2.552,0,1.316-.441,2.708-.446,2.722l-.613,1.915,1.897-.665c.014-.005,1.36-.472,2.662-.472,1.197,0,2.336.652,2.345.657l1.183.693.3-1.339c.004-.017.392-1.708,1.361-2.681.64-.643,1.416-1.099,2.297-1.377.881.278,1.657.734,2.298,1.377.969.973,1.356,2.664,1.359,2.679l.296,1.335,1.185-.686c.012-.007,1.151-.659,2.348-.659,1.302,0,2.649.467,2.663.472l1.899.665-.615-1.915Zm-6.418-11.222c0,1.103-.897,2-2,2s-2-.897-2-2,.897-2,2-2,2,.897,2,2ZM11.972,2c1.103,0,2,.897,2,2s-.897,2-2,2-2-.897-2-2,.897-2,2-2Zm-2.972,6c1.103,0,2,.897,2,2s-.897,2-2,2-2-.897-2-2,.897-2,2-2Zm-.729,9.919c-.753.757-1.242,1.746-1.534,2.505-.604-.219-1.396-.425-2.237-.425-.576,0-1.147.068-1.649.158.084-.506.149-1.082.149-1.658,0-.652-.206-1.543-.394-2.222.733-.283,1.721-.771,2.498-1.553.423-.425.853-1.009,1.282-1.722.703.613,1.61.997,2.614.997.72,0,1.388-.207,1.972-.541v2.718c-1.024.384-1.93.968-2.701,1.742Zm12.85,2.239c-.502-.09-1.073-.158-1.649-.158-.841,0-1.633.206-2.237.424-.292-.76-.781-1.749-1.534-2.505-.771-.775-1.678-1.358-2.701-1.742v-2.734c.591.345,1.268.556,2,.556.994,0,1.893-.378,2.594-.98.375.622.805,1.235,1.274,1.706.777.781,1.765,1.27,2.498,1.553-.188.679-.394,1.57-.394,2.222,0,.577.064,1.152.149,1.658Z"/></svg>
