<?xml version="1.0" encoding="UTF-8"?>
<svg xmlns="http://www.w3.org/2000/svg" id="Layer_1" data-name="Layer 1" viewBox="0 0 24 24">
  <path d="m23.97.942l-.055-.957-.959.015c-6.707.104-9.661,4.231-10.956,7.605C10.705,4.231,7.751.104,1.044,0L.085-.015.03.942c-.219,3.798.749,6.791,2.874,8.893,2.632,2.603,6.301,3.085,8.096,3.155v11.01h2v-11.01c1.795-.07,5.463-.552,8.096-3.155,2.125-2.103,3.093-5.095,2.874-8.893ZM4.302,8.404c-1.514-1.502-2.285-3.636-2.302-6.353,6.838.62,8.489,6.479,8.882,8.927-1.562-.09-4.532-.542-6.58-2.575Zm8.816,2.575c.393-2.449,2.044-8.308,8.882-8.927-.017,2.717-.788,4.851-2.302,6.353-2.049,2.034-5.018,2.485-6.58,2.575Z"/>
</svg>
