<?xml version="1.0" encoding="UTF-8"?>
<svg xmlns="http://www.w3.org/2000/svg" id="Layer_1" data-name="Layer 1" viewBox="0 0 24 24" width="512" height="512"><path d="M5.5,7c1.93,0,3.5-1.57,3.5-3.5S7.43,0,5.5,0,2,1.57,2,3.5s1.57,3.5,3.5,3.5Zm0-5c.827,0,1.5,.673,1.5,1.5s-.673,1.5-1.5,1.5-1.5-.673-1.5-1.5,.673-1.5,1.5-1.5ZM14.5,7c1.93,0,3.5-1.57,3.5-3.5s-1.57-3.5-3.5-3.5-3.5,1.57-3.5,3.5,1.57,3.5,3.5,3.5Zm0-5c.827,0,1.5,.673,1.5,1.5s-.673,1.5-1.5,1.5-1.5-.673-1.5-1.5,.673-1.5,1.5-1.5Zm7.5,15c0-.552-.09-1.082-.256-1.579l1.82-1.049-.998-1.733-1.823,1.05c-.706-.797-1.662-1.368-2.743-1.589v-2.101h-2v2.101c-1.082,.221-2.037,.792-2.743,1.589l-1.823-1.05-.998,1.733,1.82,1.049c-.166,.497-.256,1.027-.256,1.579s.09,1.082,.256,1.579l-1.82,1.049,.998,1.733,1.823-1.05c.706,.797,1.662,1.368,2.743,1.589v2.101h2v-2.101c1.082-.221,2.037-.792,2.743-1.589l1.823,1.05,.998-1.733-1.82-1.049c.166-.497,.256-1.027,.256-1.579Zm-5,3c-1.654,0-3-1.346-3-3s1.346-3,3-3,3,1.346,3,3-1.346,3-3,3Zm-6.049-9.65c-.26-.215-.588-.35-.951-.35-.827,0-1.5,.673-1.5,1.5,0,.487,.237,.917,.598,1.191-.32,.586-.57,1.215-.755,1.871-1.094-.588-1.843-1.733-1.843-3.062,0-1.93,1.57-3.5,3.5-3.5,1.028,0,1.948,.452,2.587,1.161-.591,.334-1.138,.735-1.636,1.189Zm-.951,5.65c-.036,.329-.059,.662-.059,1s.022,.671,.059,1h-3c-.551,0-1,.449-1,1v3h-2v-3c0-1.654,1.346-3,3-3h3Zm-5.287-6h-1.713c-.552,0-1,.448-1,1v3H0v-3c0-1.654,1.346-3,3-3h2.761c-.479,.579-.837,1.259-1.047,2Z"/></svg>
