<?xml version="1.0" encoding="UTF-8"?>
<svg xmlns="http://www.w3.org/2000/svg" id="Layer_1" data-name="Layer 1" viewBox="0 0 24 24">
  <path d="m24,3.996h-2.996l-.004-1.004-2,.008.004.996h-3.004v2h3.012l.017,4.395c-2.024-1.488-4.49-2.323-7.028-2.323s-4.981.827-7,2.302v-4.373h3v-2h-3v-1h-2v1H0v2h3v7.987l.339.299c.485.427,1.28,1.07,2.299,1.701l-1.638,3.277v2.736h2v-2.264l1.403-2.806c1.35.612,2.917,1.07,4.597,1.07s3.247-.457,4.598-1.069l1.402,2.804v2.264h2v-2.736l-1.638-3.276c1.04-.645,1.851-1.304,2.342-1.74l.338-.3-.031-7.948h2.988v-2Zm-8.597,6.683l-1.317,1.317h-4.172l-1.317-1.317c1.074-.394,2.218-.611,3.403-.611s2.329.217,3.403.611Zm-3.403,5.317c-3.029,0-5.714-1.862-7-2.926v-.071c.524-.53,1.096-.99,1.707-1.382l2.379,2.379h5.828l2.379-2.379c.626.401,1.212.873,1.746,1.419v.003c-1.289,1.074-3.984,2.958-7.039,2.958Z"/>
</svg>
