<?xml version="1.0" encoding="UTF-8"?>
<svg xmlns="http://www.w3.org/2000/svg" id="Layer_1" data-name="Layer 1" viewBox="0 0 24 24">
  <path d="m24,19c0,2.757-2.243,5-5,5H0v-2h19c1.654,0,3-1.346,3-3h2Zm-5,1H0l.021-2.89L3.562-.002s9.601.028,10.27.028.893.324.893.324c.259.264.366.636.287.996l-1.731,8.238.68.219c2.925.613,5.041,3.214,5.041,6.208v3.988Zm-2-3.988c0-2.063-1.469-3.854-3.492-4.259l-2.354-.753h-3.154v-2h3.358l.421-2h-3.779v-2h4.199l.626-2.977-7.637-.021-3.188,15.413v.585h15v-1.988Zm-11.5-3.012c-.828,0-1.5.672-1.5,1.5s.672,1.5,1.5,1.5,1.5-.672,1.5-1.5-.672-1.5-1.5-1.5Z"/>
</svg>
