<?xml version="1.0" encoding="UTF-8"?>
<svg xmlns="http://www.w3.org/2000/svg" id="Layer_1" data-name="Layer 1" viewBox="0 0 24 24">
  <path d="m12,7.051V3c0-1.654-1.346-3-3-3h-2c-1.654,0-3,1.346-3,3v4.051c-2.244.252-4,2.139-4,4.449v12.5h16v-12.5c0-2.31-1.756-4.197-4-4.449ZM6,3c0-.552.449-1,1-1h2c.551,0,1,.448,1,1v4h-4V3Zm8,19H2v-10.5c0-1.379,1.122-2.5,2.5-2.5h7c1.378,0,2.5,1.121,2.5,2.5v10.5Zm-6-10c-2.206,0-4,1.794-4,4s1.794,4,4,4,4-1.794,4-4-1.794-4-4-4Zm0,6c-1.103,0-2-.897-2-2s.897-2,2-2,2,.897,2,2-.897,2-2,2ZM19,2.5l-1.667.833-.833,1.667-.833-1.667-1.667-.833,1.667-.833.833-1.667.833,1.667,1.667.833Zm0,3l1.667-.833.833-1.667.833,1.667,1.667.833-1.667.833-.833,1.667-.833-1.667-1.667-.833Zm2.333,5.167l1.667.833-1.667.833-.833,1.667-.833-1.667-1.667-.833,1.667-.833.833-1.667.833,1.667Z"/>
</svg>
