<?xml version="1.0" encoding="UTF-8"?>
<svg xmlns="http://www.w3.org/2000/svg" id="Layer_1" data-name="Layer 1" viewBox="0 0 24 24" width="512" height="512"><path d="m15,3h-7c-.552,0-1-.448-1-1V0h-2v2c0,1.654,1.346,3,3,3h1v9c0,1.95-2.58,2.832-3.137,3h-.863c-1.654,0-3,1.346-3,3v4h2v-4c0-.552.448-1,1-1h.721c.272.166.534.331.79.494,2.012,1.275,3.911,2.479,8.487,2.505h.04c1.835,0,3.568-.72,4.886-2.029,1.338-1.331,2.075-3.096,2.075-4.97v-5c0-3.859-3.141-7-7-7Zm0,2c2.757,0,5,2.243,5,5v1.314c-.539-.181-1.205-.314-2-.314-1.185,0-1.971.301-2.664.566-.608.232-1.134.434-1.949.434-1.05,0-1.907-.335-2.387-.575v-6.425h4Zm3.515,13.552c-.939.934-2.173,1.447-3.477,1.447h-.027c-3.58-.021-5.167-.789-6.832-1.818,1.318-.731,2.821-2.035,2.821-4.181v-.41c.646.225,1.46.41,2.387.41,1.185,0,1.971-.301,2.664-.566.608-.232,1.134-.434,1.949-.434.986,0,1.65.291,2,.5v1.5c0,1.338-.527,2.599-1.485,3.552Z"/></svg>
