<?xml version="1.0" encoding="UTF-8"?>
<svg xmlns="http://www.w3.org/2000/svg" id="Layer_1" data-name="Layer 1" viewBox="0 0 24 24">
  <path d="m12.5,16h-3.5v-2h3.5c.552,0,1-.448,1-1s-.448-1-1-1h-2v-2h1.333c.552,0,1-.448,1-1s-.448-1-1-1h-2.833v-2h2.833c1.654,0,3,1.346,3,3,0,.604-.18,1.166-.488,1.637.702.55,1.155,1.404,1.155,2.363,0,1.654-1.346,3-3,3Zm4.102,3.01s0,0,0,0c.01-.011.019-.022,0,0Zm-9.226,0s0,0,0,0c-.019-.022-.01-.011,0,0Zm13.682-1.404c.654.569.962,1.025.987,1.063l.434.655-.534.576c-.067.073-1.418,1.506-3.55,2.034.123.283.184.46.192.486l.355,1.044-1.073.252c-.091.021-1.228.28-2.659.28-1.015,0-2.179-.131-3.222-.569-1.044.438-2.207.569-3.222.569-1.431,0-2.567-.259-2.658-.28l-1.073-.252.355-1.044c.008-.025.07-.203.192-.486-2.132-.528-3.483-1.961-3.551-2.034l-.534-.576.434-.655c.025-.038.331-.49.979-1.055C.884,16.309.254,14.488.223,14.394l-.265-.791.731-.401c.023-.013.195-.106.485-.236-.304-.316-.554-.681-.712-1.091-.954-2.482-.136-5.635-.101-5.768l.28-1.054,1.025.37c.024.009.134.049.307.129-.003-.49.09-.989.323-1.476C3.396,1.78,6.146.524,6.263.473l.963-.433.38.985c.063.166,1.422,3.812-.796,7.431-.136.909-.198,1.788-.188,2.628.002.007.004.013.006.02l-.006.002c.035,2.618.772,4.86,2.156,6.468,1.081,1.257,2.312,1.836,3.212,1.992.9-.157,2.131-.736,3.212-1.992,1.384-1.608,2.121-3.85,2.156-6.468l-.006-.002c.002-.007.004-.013.006-.02.01-.84-.052-1.719-.188-2.628-2.219-3.619-.86-7.266-.796-7.431l.38-.985.963.433c.117.052,2.866,1.307,3.966,3.604.233.487.326.986.323,1.476.173-.08.283-.12.307-.129l1.025-.37.28,1.054c.035.133.854,3.285-.102,5.768-.159.413-.411.78-.718,1.098.281.127.447.217.47.229l.731.401-.265.791c-.031.095-.659,1.908-2.676,3.213ZM4.873,7.765c1.265-1.812,1.298-3.68,1.138-4.847-.674.457-1.492,1.149-1.909,2.021-.408.853.227,2.062.771,2.825Zm-2.544,3.392c.164.426.705.821,1.228,1.034.347-.074.716-.135,1.101-.177-.014-.199-.024-.4-.03-.602-.6-1.821-1.718-2.908-2.558-3.502-.108.934-.14,2.208.26,3.247Zm2.47,5.206c.233-.116.481-.228.745-.334-.258-.641-.464-1.321-.615-2.033-.951.095-1.786.342-2.376.563.392.563,1.088,1.303,2.245,1.804Zm2.577,2.648c-.287-.334-.668-.82-.909-1.194-1.067.397-1.8.91-2.258,1.313.545.382,1.373.832,2.375.962.227-.347.491-.712.793-1.08.01.011.019.022,0,0Zm4.033,2.486c-.862-.183-1.731-.577-2.541-1.15-.464.576-.816,1.143-1.069,1.608,1.098.095,2.55.064,3.61-.459Zm7.694-13.734c.543-.766,1.178-1.978.773-2.822-.415-.866-1.234-1.561-1.91-2.02-.159,1.166-.126,3.032,1.137,4.842Zm-2.923,14.195c-.253-.466-.605-1.034-1.07-1.61-.81.572-1.68.967-2.542,1.15,1.065.529,2.518.56,3.612.461Zm3.589-2.829c-.457-.401-1.19-.914-2.258-1.312-.242.374-.622.86-.909,1.194-.019.022-.009.011,0,0,.302.368.565.733.793,1.08,1.001-.13,1.828-.58,2.375-.963Zm1.631-4.567c-.588-.219-1.417-.466-2.353-.563-.151.712-.356,1.39-.614,2.031.261.104.506.214.736.329,1.147-.5,1.84-1.235,2.231-1.797Zm.51-6.652c-.84.593-1.958,1.681-2.559,3.503-.006.203-.016.405-.03.605.383.042.749.104,1.093.177.524-.212,1.069-.609,1.234-1.037.384-.996.371-2.268.262-3.248Z"/>
</svg>
