<?xml version="1.0" encoding="UTF-8"?>
<svg xmlns="http://www.w3.org/2000/svg" id="Layer_1" data-name="Layer 1" viewBox="0 0 24 24">
  <path d="m18.614,13.516c-.667-1.498-1.561-2.87-2.633-4.084l1.414-1.414c1.275,1.424,2.335,3.042,3.109,4.817l-1.89.68Zm-2.633-6.912c-1.424-1.275-3.041-2.335-4.817-3.109l-.68,1.89c1.498.667,2.87,1.561,4.084,2.633l1.414-1.414Zm4.019,13.395h2c0-1.841-.28-3.617-.796-5.291l-1.888.68c.441,1.461.684,3.008.684,4.611ZM9.29,2.796c-1.674-.516-3.45-.796-5.29-.796v2c1.603,0,3.149.243,4.611.684l.68-1.888ZM3,22c-.551,0-1-.448-1-1V0H0v21c0,1.654,1.346,3,3,3h21v-2H3Z"/>
</svg>
