<?xml version="1.0" encoding="UTF-8"?>
<svg xmlns="http://www.w3.org/2000/svg" id="Layer_1" data-name="Layer 1" viewBox="0 0 24 24">
  <path d="m22.5,6.5c-.317,0-.611.099-.854.267-.633-.636-1.367-1.341-2.186-1.88.943-.825,1.54-2.038,1.54-3.387v-.5h-2v.5c0,1.379-1.122,2.5-2.5,2.5s-2.5-1.121-2.5-2.5V0h-2v1.5c0,.924.28,1.784.76,2.5h-1.26c-1.378,0-2.5-1.121-2.5-2.5V0h-2v1.5c0,2.481,2.019,4.5,4.5,4.5h1.308c-.616.942-.808,1.988-.808,2.586v1.414h-6.106c-1.273,0-2.437.595-3.21,1.51l-.004-.004L.003,14.547l1.501,1.322.351-.399c.153.771.419,1.386.679,1.988.17.394.332.767.465,1.19v5.352h6v-4h2v4h6v-5.115c.627-.746,2-2.695,2-5.485v-2.027l1.6-.219c.914-.115,1.638-.791,1.842-1.655.019,0,.039.001.058.001.828,0,1.5-.672,1.5-1.5s-.672-1.5-1.5-1.5Zm-2.16,2.67l-3.34.458v3.771c0,2.669-1.684,4.37-1.697,4.384l-.303.294v3.923h-2v-4h-6v4h-2v-3.5s-.436-1.388-.63-1.837c-.364-.84-.651-1.503-.646-2.601.006-1.099,1.019-2.062,2.169-2.062h8.106v-3.414c0-.265.081-2.586,2.867-2.586,1.183,0,2.546,1.351,3.567,2.385.034.13.066.391.066.615,0,.086-.064.158-.16.17Z"/>
</svg>
