<?xml version="1.0" encoding="UTF-8"?>
<svg xmlns="http://www.w3.org/2000/svg" id="Layer_1" data-name="Layer 1" viewBox="0 0 24 24" width="512" height="512"><path d="m21,18.5v5.5h-2v-5.5c0-1.379-1.121-2.5-2.5-2.5H7.5c-1.379,0-2.5,1.121-2.5,2.5v5.5h-2v-5.5c0-2.481,2.019-4.5,4.5-4.5h9c2.481,0,4.5,2.019,4.5,4.5Zm-6.043.5c-.629.623-1.143,1.415-1.471,2.386-.229.719-.414,1.583-.486,2.614,0,.024,1.5-1.5,2.286-1.5.593,0,1.367.587,1.714,1-.1-.863-.257-1.515-.586-2.294-.329-.803-.836-1.591-1.457-2.206ZM5,7v-2c0-.552.448-1,1-1h.35c.826-2.327,3.043-4,5.65-4s4.824,1.673,5.65,4h.35c.552,0,1,.448,1,1v2c0,.552-.448,1-1,1h-.35c-.826,2.327-3.043,4-5.65,4s-4.824-1.673-5.65-4h-.35c-.552,0-1-.448-1-1Zm10.444,1h-6.888c.694,1.19,1.97,2,3.444,2s2.75-.81,3.444-2Zm-6.888-4h6.888c-.694-1.19-1.97-2-3.444-2s-2.75.81-3.444,2Z"/></svg>
