<?xml version="1.0" encoding="UTF-8"?>
<svg xmlns="http://www.w3.org/2000/svg" id="Layer_1" data-name="Layer 1" viewBox="0 0 24 24">
  <path d="m10,14h4.242l8.879-8.879c1.17-1.17,1.17-3.072,0-4.242s-3.072-1.17-4.242,0l-8.879,8.879v4.242ZM20.293,2.293c.391-.391,1.023-.391,1.414,0s.39,1.024,0,1.414l-.896.896-1.414-1.414.896-.896Zm-8.293,8.293l5.983-5.983,1.414,1.414-5.983,5.983h-1.414v-1.414Zm8.847,3.039l3.052,1.756-2.991,5.201-3.051-1.754c-.841.721-1.81,1.279-2.856,1.649v3.522h-6v-3.522c-1.047-.37-2.016-.929-2.856-1.649l-3.051,1.754L.102,15.381l3.052-1.755c-.102-.544-.153-1.088-.153-1.626s.052-1.082.153-1.626L.102,8.619,3.093,3.418l3.051,1.754c.841-.721,1.81-1.279,2.856-1.649V0h6v1.93l-2,2v-1.93h-2v3.036l-.75.193c-1.237.32-2.361.969-3.25,1.877l-.542.554-2.629-1.512-.997,1.734,2.632,1.514-.206.746c-.171.621-.258,1.246-.258,1.857s.087,1.236.258,1.857l.206.746-2.632,1.514.997,1.734,2.629-1.512.542.554c.889.908,2.013,1.557,3.25,1.877l.75.193v3.036h2v-3.036l.75-.193c1.237-.32,2.361-.969,3.25-1.877l.542-.554,2.629,1.512.997-1.734-.643-.369h0s-1.99-1.144-1.99-1.144l.206-.747c.164-.596.246-1.194.253-1.782l1.83-1.83c.102.544.176,1.216.176,1.754s-.052,1.082-.153,1.625Z"/>
</svg>
