<?xml version="1.0" encoding="UTF-8"?>
<svg xmlns="http://www.w3.org/2000/svg" id="Layer_1" data-name="Layer 1" viewBox="0 0 24 24">
  <path d="m24,18.5c0,3.032-2.468,5.5-5.5,5.5h-3.864l1.452-2h2.412c1.93,0,3.5-1.57,3.5-3.5,0-1.256-.695-2.422-1.813-3.044l-.792-.439.359-.832c.163-.377.246-.775.246-1.185,0-1.12-.63-2.139-1.645-2.657l-.82-.42.351-.852c.076-.184.114-.376.114-.571,0-.827-.673-1.5-1.5-1.5h-1.5v-1c0-1.211-1.008-2.984-2.101-3.691-.577,3.595-3.603,4.646-3.737,4.691h-1.662c-.827,0-1.5.673-1.5,1.5,0,.195.038.388.114.571l.351.852-.82.42c-1.015.519-1.645,1.537-1.645,2.657,0,.409.083.808.246,1.185l.359.832-.792.439c-1.118.622-1.813,1.788-1.813,3.044,0,1.93,1.57,3.5,3.5,3.5h2.11l-.487,2h-1.623c-3.032,0-5.5-2.468-5.5-5.5,0-1.701.803-3.296,2.14-4.329-.093-.382-.14-.773-.14-1.171,0-1.6.763-3.073,2.035-4.007-.023-.163-.035-.327-.035-.493,0-1.93,1.57-3.5,3.5-3.5h1.306c.482-.222,2.194-1.208,2.194-4V0h1c2.401,0,4.408,2.747,4.89,5.022,1.747.195,3.11,1.68,3.11,3.478,0,.166-.012.33-.035.493,1.272.934,2.035,2.407,2.035,4.007,0,.397-.047.789-.14,1.171,1.337,1.033,2.14,2.628,2.14,4.329Zm-6.72-1.542l-5.116,7.042h-2.982l.973-4h-1.927c-.615,0-1.178-.283-1.545-.777-.365-.494-.474-1.114-.295-1.703l2.597-7.52h6.471l-1.536,4h1.774c.703,0,1.347.385,1.679,1.005.332.619.297,1.368-.092,1.953Zm-1.739-1.007l-4.532.049,1.536-4h-2.135l-2.084,6.031,3.101-.031h1.272l-.681,2.798,3.522-4.847Z"/>
</svg>
