<?xml version="1.0" encoding="UTF-8"?>
<svg xmlns="http://www.w3.org/2000/svg" id="Layer_1" data-name="Layer 1" viewBox="0 0 24 24">
  <path d="m21,4h-2.5L15.5,0h-7l-3,4h-2.5c-1.654,0-3,1.346-3,3v17h24V7c0-1.654-1.346-3-3-3Zm-11.5-2h5l1.5,2H8l1.5-2Zm12.5,20H2V7c0-.552.449-1,1-1h18c.551,0,1,.448,1,1v15Zm-6.043-7h2.043c-.477,2.834-2.948,5-5.916,5-1.661,0-3.188-.67-4.289-1.795l-1.795,1.795v-5h5l-1.789,1.789c.735.758,1.759,1.211,2.873,1.211,1.86,0,3.428-1.276,3.873-3Zm.248-5.205l1.795-1.795v5h-5l1.789-1.789c-.735-.758-1.759-1.211-2.873-1.211-1.86,0-3.428,1.276-3.873,3h-2.043c.477-2.834,2.948-5,5.916-5,1.661,0,3.188.67,4.289,1.795Z"/>
</svg>
