<?xml version="1.0" encoding="UTF-8"?>
<svg xmlns="http://www.w3.org/2000/svg" id="Layer_1" data-name="Layer 1" viewBox="0 0 24 24">
  <path d="m16,10.111l-7,3.889v-7.778l7,3.889Zm8,7.889c0,3.309-2.691,6-6,6s-6-2.691-6-6,2.691-6,6-6,6,2.691,6,6Zm-2,0c0-2.206-1.794-4-4-4s-4,1.794-4,4,1.794,4,4,4,4-1.794,4-4Zm-3-3h-2v3.423l2.079,2.019,1.393-1.435-1.472-1.43v-2.577ZM21,0H3C1.346,0,0,1.346,0,3v17h10.262c-.165-.64-.262-1.308-.262-2H2V3c0-.551.448-1,1-1h18c.552,0,1,.449,1,1v8.079c.754.437,1.428.992,2,1.642V3c0-1.654-1.346-3-3-3Z"/>
</svg>
