<?xml version="1.0" encoding="UTF-8"?>
<svg xmlns="http://www.w3.org/2000/svg" id="Layer_1" data-name="Layer 1" viewBox="0 0 24 24">
  <path d="m9.5,2.5c0-1.381,1.119-2.5,2.5-2.5s2.5,1.119,2.5,2.5-1.119,2.5-2.5,2.5-2.5-1.119-2.5-2.5Zm11.5.5c-1.654,0-3,1.346-3,3v5.17c-.265-.093-.544-.149-.832-.165-.793-.042-1.567.226-2.173.769l-2.995,2.756-3.005-2.765c-.597-.534-1.374-.801-2.163-.76-.288.016-.567.072-.832.165v-5.17c0-1.654-1.346-3-3-3S0,4.346,0,6v12.231c0,.742.273,1.455.772,2.01l3.391,3.759h2.693l-4.599-5.098c-.166-.185-.258-.423-.258-.671V6c0-.551.448-1,1-1s1,.449,1,1v8h.011c.005.693.247,1.393.735,1.973l2.616,2.721,1.441-1.387-2.571-2.67c-.316-.377-.307-.938.022-1.305.177-.198.421-.315.687-.33.263-.018.521.075.71.244l4.026,3.705c.205.188.322.457.322.736v6.314h2v-6.314c0-.634-.203-1.249-.568-1.756l2.907-2.675c.198-.178.455-.271.72-.253.266.015.521.123.687.33.268.335.255.668.255.668h.004c.004.218-.061.429-.192.586l-2.533,2.634,1.441,1.387,2.578-2.685c.465-.553.695-1.238.696-1.922h.005V6c0-.551.448-1,1-1s1,.449,1,1v12.231c0,.248-.092.486-.258.671l-4.599,5.098h2.693l3.391-3.759c.499-.555.772-1.268.772-2.01V6c0-1.654-1.346-3-3-3Zm-11,5.5c0-.276.225-.5.5-.5h3c.275,0,.5.224.5.5v1.508c.598-.445,1.283-.753,2-.903v-.606c0-1.378-1.121-2.5-2.5-2.5h-3c-1.379,0-2.5,1.122-2.5,2.5v.603c.724.147,1.404.452,2,.902v-1.504Z"/>
</svg>
