<?xml version="1.0" encoding="UTF-8"?>
<svg xmlns="http://www.w3.org/2000/svg" id="Layer_1" data-name="Layer 1" viewBox="0 0 24 24">
  <path d="m9.986,11.578l6.014-3.454v2.138c.64-.165,1.308-.262,2-.262v-4.874L9-.018,0,5.126v11.716l9,5.143,1-.571-.014-9.836Zm5.605-5.526l-6.608,3.795-6.622-3.768,6.639-3.794,6.591,3.766ZM2,15.681v-7.506l5.986,3.406.012,7.527-5.998-3.428Zm20.5,2.319c0-.46-.089-.895-.218-1.313l1.416-.816-.998-1.733-1.411.813c-.605-.652-1.393-1.125-2.289-1.33v-1.621h-2v1.621c-.896.205-1.685.678-2.289,1.33l-1.411-.813-.998,1.733,1.416.816c-.129.418-.218.853-.218,1.313s.089.895.218,1.313l-1.416.816.998,1.733,1.411-.813c.605.652,1.393,1.125,2.289,1.33v1.621h2v-1.621c.896-.205,1.685-.678,2.289-1.33l1.411.813.998-1.733-1.416-.816c.129-.418.218-.853.218-1.313Zm-4.5,2.5c-1.379,0-2.5-1.122-2.5-2.5s1.121-2.5,2.5-2.5,2.5,1.122,2.5,2.5-1.121,2.5-2.5,2.5Z"/>
</svg>
