<?xml version="1.0" encoding="UTF-8"?>
<svg xmlns="http://www.w3.org/2000/svg" id="Layer_1" data-name="Layer 1" viewBox="0 0 24 24">
  <path d="m11,10.5v3c0,1.381,1.119,2.5,2.5,2.5s2.5-1.119,2.5-2.5v-3c0-1.381-1.119-2.5-2.5-2.5s-2.5,1.119-2.5,2.5Zm3.4,0v3c0,.496-.404.9-.9.9s-.9-.404-.9-.9v-3c0-.496.404-.9.9-.9s.9.404.9.9Zm9.6,4.231c0,.69-.56,1.25-1.25,1.25s-1.25-.56-1.25-1.25.56-1.25,1.25-1.25,1.25.56,1.25,1.25Zm-5.75-4.25c-.69,0-1.25-.56-1.25-1.25s.56-1.25,1.25-1.25,1.25.56,1.25,1.25-.56,1.25-1.25,1.25Zm-1.383,5.5l5.222-8h1.911l-5.222,8h-1.911Zm-11.866-2.48c0,1.38,1.119,2.499,2.499,2.499s2.499-1.119,2.499-2.499c0-.714-.303-1.355-.784-1.81.329-.391.535-.889.535-1.44,0-1.243-1.007-2.25-2.25-2.25s-2.25,1.007-2.25,2.25c0,.551.206,1.049.535,1.44-.481.456-.784,1.096-.784,1.81Zm2.499.899c-.496,0-.899-.403-.899-.899s.403-.899.899-.899.899.403.899.899-.403.899-.899.899Zm0-4.8c.358,0,.65.292.65.65s-.292.65-.65.65-.65-.292-.65-.65.292-.65.65-.65Zm12.467,8.419h2.398c-2.082,3.57-5.943,5.981-10.365,5.981,0,0,0,0-.001,0-6.617,0-11.999-5.383-11.999-12S5.383,0,12,0h0c4.438,0,8.312,2.428,10.388,6.019h-2.393c-1.826-2.434-4.725-4.019-7.995-4.019,0,0,0,0,0,0-5.513,0-9.999,4.486-9.999,10s4.486,10,10,10h0c3.253,0,6.139-1.568,7.967-3.981Z"/>
</svg>
