<?xml version="1.0" encoding="UTF-8"?>
<svg xmlns="http://www.w3.org/2000/svg" id="Layer_1" data-name="Layer 1" viewBox="0 0 24 24" width="512" height="512"><path d="m21,0H3C1.346,0,0,1.346,0,3v21h24V3c0-1.654-1.346-3-3-3Zm1,22H2V3c0-.551.448-1,1-1h18c.552,0,1,.449,1,1v19Zm-11-6v-4.005l-3.804-2.897,1.213-1.591,3.591,2.735,3.591-2.735,1.213,1.591-3.804,2.897v4.004h-2Zm5,0c0,2.206-1.794,4-4,4s-4-1.794-4-4c0-1.474.81-2.75,2-3.444v3.444c0,1.103.897,2,2,2s2-.897,2-2v-3.444c1.19.694,2,1.97,2,3.444Zm-7.013-4.287c-1.438.569-3.142.275-4.304-.886-1.56-1.56-1.56-4.097,0-5.657s4.097-1.56,5.657,0c.94.94,1.303,2.235,1.11,3.458-1.215-.945-2.248-1.768-2.524-2.043-.78-.78-2.048-.78-2.828,0-.78.78-.78,2.049,0,2.828.295.295,1.503,1.241,2.889,2.301Zm10.344-6.543c1.56,1.56,1.56,4.097,0,5.657-1.162,1.162-2.865,1.455-4.304.886,1.386-1.06,2.594-2.005,2.889-2.301.78-.78.78-2.048,0-2.828-.78-.78-2.049-.78-2.828,0-.276.276-1.309,1.098-2.524,2.043-.194-1.223.169-2.517,1.11-3.458,1.56-1.56,4.097-1.56,5.657,0Z"/></svg>
