<?xml version="1.0" encoding="UTF-8"?>
<svg xmlns="http://www.w3.org/2000/svg" id="Layer_1" data-name="Layer 1" viewBox="0 0 24 24" width="512" height="512"><path d="m6.082,18.481c-.057.033-.138.062-.209.092-1.231-1.148-2.137-2.633-2.574-4.31.084-.067.167-.134.245-.179.517-.3,1.111-.393,1.697-.29.34,1.279,1.031,2.414,1.968,3.296-.197.585-.586,1.079-1.127,1.391Zm3.379-15.045c0,.705.29,1.343.755,1.803.571-.151,1.166-.239,1.784-.239s1.213.088,1.784.239c.465-.46.755-1.098.755-1.803,0-.02-.006-.047-.007-.067-.804-.236-1.652-.369-2.531-.369s-1.727.132-2.531.369c0,.02-.007.048-.007.067Zm11.243,10.811c-.075-.059-.152-.122-.223-.163-.525-.304-1.13-.395-1.725-.285-.338,1.268-1.02,2.393-1.945,3.271.195.595.586,1.096,1.13,1.41.054.031.129.058.193.085,1.23-1.151,2.135-2.639,2.569-4.319Zm2.869-2.888c-.573-.757-1.265-1.372-2.056-1.829-.994-.575-2.179-.93-3.413-1.039.579-1.167.896-2.44.896-3.671,0-.912-.187-1.818-.555-2.695l-.331-.613h-1.34c.148.473.25.966.25,1.487,0,2.761-2.239,5-5,5s-5-2.239-5-5c0-.522.102-1.015.25-1.487h-1.464l-.257.613c-.368.877-.555,1.783-.555,2.695,0,1.251.324,2.537.917,3.714-1.229.079-2.41.418-3.407.996-.791.456-1.482,1.072-2.056,1.829l-.364.592.713,1.236c.281-.304.589-.587.952-.822,2.322-1.495,5.416-.824,6.911,1.497s.824,5.416-1.497,6.911c-.505.325-1.049.529-1.603.655l.683,1.173.657-.083c.942-.12,1.821-.412,2.611-.869.962-.556,1.816-1.332,2.498-2.254.694.93,1.548,1.706,2.497,2.254.791.457,1.669.749,2.611.869l.694.02.646-1.11c-.554-.126-1.098-.33-1.603-.655-2.322-1.495-2.992-4.589-1.497-6.911s4.589-2.992,6.911-1.497c.364.234.672.518.953.822l.75-1.3-.401-.529Zm-11.573,2.641c-1.105,0-2-.895-2-2s.895-2,2-2,2,.895,2,2-.895,2-2,2Z"/></svg>
