<?xml version="1.0" encoding="UTF-8"?>
<svg xmlns="http://www.w3.org/2000/svg" id="Layer_1" data-name="Layer 1" viewBox="0 0 24 24">
  <path d="m16.5,0c-4.275,0-7.5,1.72-7.5,4v4.231c2.203.501,4.096,1.807,5.357,3.595.679.102,1.386.174,2.143.174,2.22,0,4.151-.466,5.5-1.231v1.231c0,.796-2.193,2-5.5,2-.363,0-.706-.02-1.04-.047.232.643.397,1.316.477,2.017.19.007.369.03.563.03,2.22,0,4.151-.466,5.5-1.231v1.231c0,.796-2.193,2-5.5,2-.193,0-.369-.017-.555-.025-.074.684-.23,1.342-.449,1.972.332.022.657.053,1.004.053,2.22,0,4.151-.466,5.5-1.231v.981c0,.917-2.143,2.25-5.5,2.25-.699,0-1.331-.068-1.916-.168-.409.641-.897,1.224-1.451,1.741,1.003.272,2.139.427,3.366.427,4.275,0,7.5-1.827,7.5-4.25V4c0-2.28-3.225-4-7.5-4Zm0,2c3.307,0,5.5,1.204,5.5,2s-2.193,2-5.5,2-5.5-1.204-5.5-2,2.193-2,5.5-2Zm0,8c-3.307,0-5.5-1.204-5.5-2v-1.226c1.349.763,3.283,1.226,5.5,1.226s4.151-.463,5.5-1.226v1.226c0,.796-2.193,2-5.5,2Zm-6.069,7h-2.431v3h-2v-3h-2.454l2.687-2.687c.417-.417,1.093-.417,1.51,0l2.688,2.687Zm-3.431-7c-3.859,0-7,3.14-7,7s3.141,7,7,7,7-3.14,7-7-3.141-7-7-7Zm0,12c-2.757,0-5-2.243-5-5s2.243-5,5-5,5,2.243,5,5-2.243,5-5,5Z"/>
</svg>
