<?xml version="1.0" encoding="UTF-8"?>
<svg xmlns="http://www.w3.org/2000/svg" id="Layer_1" data-name="Layer 1" viewBox="0 0 24 24">
  <path d="m20.66,8.003c.218-.456.34-.966.34-1.503,0-1.93-1.57-3.5-3.5-3.5h-1.74c-.897-1.572-2.528-3-4.26-3h-1v1c0,.772-.12,1.442-.357,2h-3.643c-1.93,0-3.5,1.57-3.5,3.5,0,.538.122,1.048.34,1.503-1.856.084-3.34,1.621-3.34,3.497,0,1.639,1.137,3.008,2.661,3.387l.842,2.127c1.845,3.077,4.648,3.038,7.497,2.996v1.99h-4v2h10v-2h-4v-1.99c.326.005.767.01,1.088.01,2.48,0,4.775-.281,6.409-3.006l.839-2.126c1.526-.377,2.664-1.748,2.664-3.388,0-1.876-1.484-3.412-3.34-3.497Zm-1.922,8.052c-1.19,1.932-2.661,2-5.591,1.955-.74-.011-1.554-.011-2.294,0-2.926.045-4.4-.023-5.591-1.955l-.411-1.056h14.298l-.411,1.056Zm1.762-3.056H3.5c-.827,0-1.5-.673-1.5-1.5s.673-1.5,1.5-1.5h9.5v-2h-6.5c-.827,0-1.5-.673-1.5-1.5s.673-1.5,1.5-1.5h4.799l.294-.469c.406-.647.677-1.399.81-2.244.707.41,1.429,1.216,1.83,2.118l.264.595h3.003c.827,0,1.5.673,1.5,1.5s-.673,1.5-1.5,1.5h-.5v2h3.5c.827,0,1.5.673,1.5,1.5s-.673,1.5-1.5,1.5Z"/>
</svg>
