<?xml version="1.0" encoding="UTF-8"?>
<svg xmlns="http://www.w3.org/2000/svg" id="Layer_1" data-name="Layer 1" viewBox="0 0 24 24">
  <path d="m15.536,8.068c1.004,2.04.313,4.377-1.606,5.437-.521.287-.93.944-.93,1.495h-2c0-1.274.808-2.609,1.963-3.247.844-.465,1.382-1.576.778-2.802-.145-.295-.397-.547-.692-.692-.991-.487-1.743-.183-2.104.041-.592.369-.945,1.004-.945,1.7h-2c0-1.392.706-2.662,1.889-3.398,1.213-.755,2.688-.805,4.042-.138.693.341,1.264.91,1.605,1.604Zm-4.536,10.932h2v-2h-2v2ZM24,3v21H0V3C0,1.346,1.346,0,3,0h18c1.654,0,3,1.346,3,3Zm-2,0c0-.552-.448-1-1-1H3c-.552,0-1,.448-1,1v19h20V3ZM5.5,17c-.828,0-1.5.672-1.5,1.5s.672,1.5,1.5,1.5,1.5-.672,1.5-1.5-.672-1.5-1.5-1.5Zm0-13c-.828,0-1.5.672-1.5,1.5s.672,1.5,1.5,1.5,1.5-.672,1.5-1.5-.672-1.5-1.5-1.5Zm13,0c-.828,0-1.5.672-1.5,1.5s.672,1.5,1.5,1.5,1.5-.672,1.5-1.5-.672-1.5-1.5-1.5Zm0,13c-.828,0-1.5.672-1.5,1.5s.672,1.5,1.5,1.5,1.5-.672,1.5-1.5-.672-1.5-1.5-1.5Z"/>
</svg>
