<?xml version="1.0" encoding="UTF-8"?>
<svg xmlns="http://www.w3.org/2000/svg" id="Layer_1" data-name="Layer 1" viewBox="0 0 24 24">
  <path d="m24,3.978v16.828l-12,2.182L0,20.807V3.973h0C0,3.081.393,2.241,1.078,1.67c.685-.572,1.582-.809,2.459-.648l.463.084v2.033l-.821-.149c-.405-.073-.686.104-.82.216-.134.112-.359.36-.359.768,0,0,0,.005,0,.005v15.159l9,1.636v-4.774h2v4.774l9-1.636V3.973h0c0-.407-.225-.656-.359-.768-.134-.111-.417-.288-.82-.216l-.821.149V1.106l.463-.084c.878-.159,1.774.077,2.459.648.685.572,1.078,1.411,1.078,2.303,0,0,0,.005,0,.005Zm-11-.978h-2v2h2v-2Zm0,3h-2v3h2v-3Zm-7,3V3c0-1.654,1.346-3,3-3h6c1.654,0,3,1.346,3,3v6c0,1.654-1.346,3-3,3h-.383l-1.587,1.571c-.29.284-.668.426-1.045.426-.381,0-.761-.145-1.049-.432l-1.556-1.565h-.379c-1.654,0-3-1.346-3-3Zm2,0c0,.551.449,1,1,1h1.211l1.777,1.788,1.807-1.788h1.206c.551,0,1-.449,1-1V3c0-.551-.449-1-1-1h-6c-.551,0-1,.449-1,1v6Z"/>
</svg>
