<?xml version="1.0" encoding="UTF-8"?>
<svg xmlns="http://www.w3.org/2000/svg" id="Layer_1" data-name="Layer 1" viewBox="0 0 24 24" width="512" height="512"><path d="m.452,19.135l-.452.354v1.083l.455.295c.134.087,3.314,2.133,6.517,2.133h17.029v-6H6.971c-3.223,0-6.386,2.047-6.519,2.135Zm2.608.862c1.045-.48,2.497-.997,3.911-.997h.615l2,2h-2.615c-1.401,0-2.86-.52-3.911-1.003Zm7.354-.997h4.172l2,2h-4.172l-2-2Zm11.586,2h-2.586l-2-2h4.586v2ZM13,5.856v-2.856h2v2.856c0,1.047.558,2.033,1.457,2.573l1.602.961c1.198.718,1.942,2.033,1.942,3.43v2.18h-2v-2.18c0-.699-.372-1.355-.971-1.715l-1.602-.961c-1.497-.899-2.427-2.542-2.427-4.288Zm11,5.408v1.735h-2v-1.735c0-1.048-.558-2.033-1.457-2.572l-2.087-1.252c-.898-.539-1.457-1.524-1.457-2.572V1h2v3.868c0,.349.186.678.485.857l2.087,1.252c1.497.898,2.427,2.541,2.427,4.287Z"/></svg>
