<?xml version="1.0" encoding="UTF-8"?>
<svg xmlns="http://www.w3.org/2000/svg" id="Layer_1" data-name="Layer 1" viewBox="0 0 24 24">
  <path d="m5.249,17.914c-2.046-1.705-3.249-4.238-3.249-6.914C2,6.039,6.036,2.002,10.997,2c.002,0,.004.001.005.001,4.718,0,8.593,3.646,8.973,8.267.717.183,1.396.46,2.022.823.002-.028.016-.051.016-.079C22.013,4.941,17.073.001,11.002.001c0,0-.001,0-.002,0v-.002C4.935,0,0,4.935,0,11c0,3.573,1.752,6.938,4.686,9l.613.43,3.324-2.648-1.246-1.564-2.128,1.696Z"/>
  <path d="m13,11c0-.738-.405-1.376-1-1.723v-5.277h-2v5.277c-.595.346-1,.984-1,1.723,0,1.105.895,2,2,2s2-.895,2-2Z"/>
  <path d="m18,12c-3.314,0-6,2.686-6,6s2.686,6,6,6,6-2.686,6-6-2.686-6-6-6Zm2.731,7.492l-2.385,3.451-1.659-1.117,1.963-2.824h-2.035c-.509,0-.994-.244-1.297-.652-.303-.409-.462-.969-.249-1.431.48-1.04,2.478-3.854,2.478-3.854l1.664,1.109-1.845,2.828h2.029c.592,0,1.133.324,1.413.846s.25,1.151-.077,1.645Z"/>
</svg>
