<?xml version="1.0" encoding="UTF-8"?>
<svg xmlns="http://www.w3.org/2000/svg" id="Layer_1" data-name="Layer 1" viewBox="0 0 24 24">
  <path d="m12,7c-2.757,0-5,2.243-5,5s2.243,5,5,5,5-2.243,5-5-2.243-5-5-5Zm0,8c-1.654,0-3-1.346-3-3s1.346-3,3-3,3,1.346,3,3-1.346,3-3,3Zm11.999-2.998h0c0,.69-.172,1.369-.501,1.962-.348.627-.816,1.134-1.396,1.508-.407.263-.613.734-.514,1.174.156.684.133,1.389-.068,2.096-.358,1.245-1.313,2.246-2.521,2.685,0-.015,0-.808,0-.808.004-.47.007-.965-.047-1.454.3-.26.536-.593.646-.974.107-.377.121-.748.041-1.102-.285-1.258.27-2.582,1.38-3.298.299-.192.545-.461.73-.796.165-.298.252-.641.251-.993,0-.001,0-.003,0-.004h0c0-.352-.086-.694-.251-.992-.186-.336-.431-.604-.729-.796-1.111-.718-1.666-2.042-1.382-3.296.081-.355.067-.728-.041-1.106-.19-.662-.742-1.214-1.406-1.404-.376-.106-.745-.12-1.101-.041-1.257.288-2.582-.27-3.298-1.38-.193-.3-.461-.545-.796-.73-.604-.336-1.386-.336-1.989,0-.336.186-.604.432-.797.73-.716,1.11-2.042,1.668-3.295,1.381-.356-.082-.727-.067-1.103.04-.664.19-1.216.742-1.406,1.406-.108.377-.123.748-.042,1.104.286,1.254-.269,2.578-1.378,3.296-.3.193-.546.461-.732.797-.165.297-.251.64-.251.994s.087.698.251.995c.186.335.432.604.731.797,1.11.716,1.665,2.041,1.379,3.296-.081.354-.066.726.042,1.104.109.379.343.711.641.97-.054.49-.051.986-.047,1.457,0,0,0,.791,0,.806-1.206-.439-2.16-1.441-2.516-2.682-.203-.706-.226-1.412-.07-2.099.1-.439-.106-.91-.513-1.172-.579-.374-1.049-.882-1.396-1.508C.174,13.371,0,12.692,0,12s.174-1.372.502-1.964c.348-.628.818-1.135,1.397-1.508.405-.263.612-.733.512-1.172-.156-.688-.133-1.395.069-2.099.382-1.331,1.447-2.396,2.778-2.776.704-.203,1.41-.225,2.098-.068.436.097.909-.108,1.171-.515.374-.58.881-1.049,1.508-1.396,1.21-.67,2.716-.672,3.927,0,.628.348,1.135.818,1.508,1.397.263.405.737.613,1.174.513.686-.156,1.391-.134,2.096.069,1.33.381,2.395,1.444,2.777,2.775.202.708.225,1.414.068,2.101-.099.438.108.909.515,1.172.579.372,1.049.88,1.396,1.509.328.59.5,1.267.501,1.956,0,.001,0,.003,0,.004v.004Zm-7.003,8.998c0,1.657.157,3-1.5,3-1.03,0-2.519-1.16-3.498-2.037-.979.877-2.468,2.037-3.498,2.037-1.657,0-1.5-1.343-1.5-3s-.157-3,1.5-3c1.03,0,2.519,1.16,3.498,2.037.979-.877,2.468-2.037,3.498-2.037,1.657,0,1.5,1.343,1.5,3Z"/>
</svg>
