<?xml version="1.0" encoding="UTF-8"?>
<svg xmlns="http://www.w3.org/2000/svg" id="Layer_1" data-name="Layer 1" viewBox="0 0 24 24">
  <path d="m23,20.086v-8.275c0-1.066-.341-2.103-.972-2.962l-5.569-7.569c-.948-1.355-2.822-1.688-4.177-.738-.103.072-.19.158-.281.24-.092-.082-.179-.169-.281-.24-1.356-.947-3.229-.617-4.164.719L1.972,8.851c-.631.858-.972,1.896-.972,2.962v8.273l-1,1v2.828l3-3v-9.102c0-.639.204-1.262.583-1.777l5.597-7.609c.315-.451.941-.561,1.393-.246.219.153.365.382.411.646.047.263-.012.528-.149.725,0,0-4.263,5.726-4.351,5.865-.268.378-.484.798-.484,1.444v6.14h2v-6c0-.552.448-1,1-1s1,.448,1,1v6.612c0,2.492-1.128,4.821-3.094,6.388h2.822c1.46-1.794,2.272-4.03,2.272-6.388,0,2.357.812,4.593,2.272,6.388h2.822c-1.966-1.566-3.094-3.896-3.094-6.388v-6.612c0-.552.448-1,1-1s1,.448,1,1v6h2v-6.14c0-.65-.22-1.071-.486-1.446-.087-.14-4.333-5.841-4.333-5.841-.153-.219-.212-.484-.165-.747.046-.264.192-.492.411-.646.454-.314,1.078-.205,1.407.266l5.583,7.588c.379.515.583,1.138.583,1.778v9.102l3,3v-2.828l-1-1Zm-8.918-11.941c-.372.119-.721.311-1.024.569-.672.571-1.058,1.404-1.058,2.286,0-.882-.385-1.715-1.058-2.286-.304-.259-.653-.45-1.025-.569l2.082-2.807,2.082,2.807Z"/>
</svg>
