<?xml version="1.0" encoding="UTF-8"?>
<svg xmlns="http://www.w3.org/2000/svg" id="Layer_1" data-name="Layer 1" viewBox="0 0 24 24">
  <path d="m21.988,18.727l-4.729-4.69.392-.393c3.116-3.116,3.116-8.187,0-11.303-1.51-1.51-3.517-2.341-5.651-2.341s-4.142.831-5.651,2.341c-3.116,3.116-3.116,8.187,0,11.303l.32.32-4.673,4.633,5.352,5.352,4.652-4.653,4.634,4.634,5.354-5.202Zm-3.996-10.734c0,1.601-.623,3.105-1.756,4.237l-.397.398-2.342-2.323c1.335-1.149,3.503-3.322,3.503-5.304,0-.111-.004-.222-.011-.331.653.976,1.003,2.123,1.003,3.323Zm-2.992-2.992c0,1.024-1.599,2.769-3,3.95-1.401-1.182-3-2.926-3-3.95,0-1.654,1.346-3,3-3s3,1.346,3,3Zm-8.992,2.992c0-1.201.351-2.347,1.003-3.323-.007.109-.011.22-.011.331,0,2.531,3.536,5.373,4.356,5.998l7.777,7.713-2.479,2.409L7.763,12.229c-1.132-1.132-1.755-2.637-1.755-4.237Zm1.34,13.128l-2.518-2.518,3.253-3.225,2.503,2.503-3.238,3.239Z"/>
</svg>
