<?xml version="1.0" encoding="UTF-8"?>
<svg xmlns="http://www.w3.org/2000/svg" id="Layer_1" data-name="Layer 1" viewBox="0 0 24 24" width="512" height="512"><path d="m24,9.5c0-1.209-.859-2.218-2-2.45V0h-2c0,2.729-3.878,4-6.5,4H3c-1.654,0-3,1.346-3,3v5c0,1.485,1.085,2.721,2.503,2.958l3.297,9.042h2.448c.935,0,1.796-.468,2.307-1.252.509-.784.586-1.762.229-2.562l-1.946-5.187h4.662c2.622,0,6.5,1.271,6.5,4h2v-7.05c1.141-.232,2-1.24,2-2.45ZM2,12v-5c0-.551.449-1,1-1h4v7H3c-.551,0-1-.449-1-1Zm6.934,8.943c.104.234.083.501-.056.715-.139.214-.375.342-.629.342h-1.049l-2.552-7h2.055l2.231,5.943Zm4.566-7.943h-4.5v-7h4.5c2.402,0,4.852-.742,6.5-2.086v11.173c-1.648-1.344-4.098-2.086-6.5-2.086Z"/></svg>
