<?xml version="1.0" encoding="UTF-8"?>
<svg xmlns="http://www.w3.org/2000/svg" id="Layer_1" data-name="Layer 1" viewBox="0 0 24 24">
  <path d="m15.067,19.006l8.837,3.048-.652,1.891-11.251-3.881L.749,23.945l-.652-1.891,8.837-3.048L.097,15.958l.652-1.891,11.251,3.881,11.251-3.881.652,1.891-8.837,3.048ZM5,9c0-2.181,1.3-3.774,2.277-4.783l1.152-1.189.516,1.575c.128.389.306.81.463,1.115.091-.292.186-.74.256-1.073.245-1.163.551-2.611,1.58-3.799l.703-.812.76.76c.432.432,1.021.902,1.644,1.4,2.071,1.655,4.649,3.716,4.649,6.807,0,3.86-3.141,7-7,7s-7-3.14-7-7Zm8.06,2.451l-1.06-1.061-1.062,1.061c-.584.585-.584,1.537,0,2.123.584.584,1.535.584,2.121,0,.584-.584.584-1.537,0-2.123Zm-6.06-2.451c0,1.394.582,2.649,1.506,3.557-.011-.911.326-1.826,1.019-2.52l2.476-2.476,2.475,2.476c.695.695,1.031,1.612,1.018,2.525.926-.908,1.507-2.166,1.507-3.563,0-2.129-2.071-3.785-3.898-5.245-.309-.247-.609-.487-.895-.725-.294.644-.446,1.366-.586,2.028-.263,1.242-.621,2.942-2.339,2.942-.248,0-.878,0-1.561-1.187-.493.744-.722,1.448-.722,2.186Z"/>
</svg>
