<?xml version="1.0" encoding="UTF-8"?>
<svg xmlns="http://www.w3.org/2000/svg" id="Layer_1" data-name="Layer 1" viewBox="0 0 24 24" width="512" height="512"><path d="M18,2.5c0-1.38,1.12-2.5,2.5-2.5s2.5,1.12,2.5,2.5-1.12,2.5-2.5,2.5-2.5-1.12-2.5-2.5Zm4.79,15.39l-2.9,5.57-1.77-.92,2.89-5.55h-3.07c-.49,3.95-3.86,7.01-7.94,7.01-4.41,0-8-3.59-8-8,0-3.28,1.99-6.1,4.83-7.33l-2.25,4.8c-.36,.77-.57,1.63-.57,2.53,0,3.31,2.69,6,6,6,2.97,0,5.44-2.17,5.92-5h-2.18c-.94,0-1.81-.47-2.32-1.27s-.57-1.78-.18-2.63l2.83-6.1h-2l-2.18,4.44-1.79-.88,2.73-5.56h6.3c.97,0,1.87,.49,2.39,1.31,.52,.82,.59,1.84,.18,2.72l-2.76,5.97h4.06c.7,0,1.33,.35,1.7,.95s.4,1.32,.09,1.95Zm-9.05-2.89h1l3.15-6.81c.17-.38,.02-.69-.05-.8s-.29-.39-.71-.39h-.84l-3.22,6.94c-.16,.33-.02,.61,.05,.72,.07,.1,.26,.35,.63,.35Z"/></svg>
