<?xml version="1.0" encoding="UTF-8"?>
<svg xmlns="http://www.w3.org/2000/svg" id="Layer_1" data-name="Layer 1" viewBox="0 0 24 24" width="512" height="512"><path d="M24,18c0-1.294-.241-1.842-.605-2.671-.072-.165-1.459-3.483-1.459-3.483-.467-1.121-1.554-1.846-2.769-1.846h-.386l-.216-.863c-.167-.669-.766-1.137-1.455-1.137h-2.219c-.689,0-1.288,.468-1.455,1.137l-.216,.863h-.386c-1.215,0-2.302,.725-2.769,1.846l-1.218,2.924c-.562,1.347-.847,2.771-.847,4.23v3h2v2h4v-2h4v2h4v-2h2v-4Zm-11.167-6h6.334c.404,0,.767,.241,.923,.615l.993,2.385H10.917l.993-2.385c.156-.374,.519-.615,.923-.615Zm9.167,8H10v-1c0-.678,.076-1.347,.225-2h1.775v1c0,.553,.447,1,1,1s1-.447,1-1v-1h4v1c0,.553,.447,1,1,1s1-.447,1-1v-1h1.899c.072,.27,.101,.553,.101,1v2ZM7.417,13s.828-1.973,.84-2H4V6h5v3.79c.535-.641,1.226-1.125,2-1.43v-2.36h7v-1.816c0-1.148-.664-2.209-1.691-2.7-1.41-.677-3.65-1.483-6.309-1.483S5.102,.807,3.692,1.482c-1.028,.492-1.692,1.553-1.692,2.701v4.816H0v2c0,1.105,.895,2,2,2v6h2v2h2v-4h-2v-4h3.417ZM4.557,3.286c1.224-.587,3.161-1.286,5.443-1.286s4.22,.699,5.444,1.287c.282,.135,.481,.404,.539,.713H4.017c.058-.309,.257-.578,.54-.714Z"/></svg>
