<?xml version="1.0" encoding="UTF-8"?>
<svg xmlns="http://www.w3.org/2000/svg" id="Layer_1" data-name="Layer 1" viewBox="0 0 24 24">
  <path d="m8.955,13.141l.082-2.141H-.036l.036,2.142c.315,2.199,2.276,3.858,4.5,3.858s4.141-1.659,4.455-3.859Zm-6.904-.141h4.9c-.232,1.15-1.262,2-2.45,2s-2.215-.85-2.45-2Zm12.914,1l.082,2.142c.315,2.199,2.23,3.858,4.454,3.858s4.141-1.659,4.455-3.859l.082-2.141h-9.072Zm4.536,4c-1.187,0-2.215-.85-2.45-2h4.9c-.232,1.15-1.262,2-2.45,2Zm-6.5,4h7v2H4v-2h7V4.802L2.783,2.976l.434-1.952,7.783,1.73V0h2v3.198l8.217,1.826-.434,1.952-7.783-1.73v16.754ZM1.793,8.793l1.293-1.293-1.293-1.293,1.414-1.414,1.293,1.293,1.293-1.293,1.414,1.414-1.293,1.293,1.293,1.293-1.414,1.414-1.293-1.293-1.293,1.293-1.414-1.414Zm17.502,1.613l2.67-2.67,1.414,1.414-4.098,4.099-2.649-2.702,1.428-1.4,1.235,1.26Z"/>
</svg>
