<?xml version="1.0" encoding="UTF-8"?>
<svg xmlns="http://www.w3.org/2000/svg" id="Layer_1" data-name="Layer 1" viewBox="0 0 24 24" width="512" height="512"><path d="m12,6c-3.859,0-7,3.14-7,7,0,5.498,6.119,10.397,6.38,10.603l.62.49.62-.49c.261-.206,6.38-5.105,6.38-10.603,0-3.86-3.141-7-7-7Zm0,15.499c-1.462-1.321-5-4.89-5-8.499,0-2.757,2.243-5,5-5s5,2.243,5,5c0,3.609-3.538,7.178-5,8.499Zm9.202.477h2.798v2h-6.611l1.13-1.581c2.683-3.756,3.657-6.811,3.462-10.87h-.018c-.079-1.708-.469-3.127-1.156-4.216-.557-.883-.835-1.812-.806-2.688.031-.962.317-1.892.626-2.629-1.719-.008-7.361.016-7.361.016-.693.005-1.305.01-1.771.033-5.04.247-9.193,4.377-9.455,9.403-.214,4.1.756,7.17,3.457,10.952l1.13,1.581H0v-2h2.813C.65,18.486-.163,15.292.042,11.339.356,5.301,5.345.338,11.397.041c.487-.024,1.127-.029,1.854-.035l10.892.007-1.044,1.546c-.01.014-1.048,1.583-1.1,3.127-.016.468.162,1.02.499,1.555.861,1.364,1.352,3.079,1.458,5.097h.018c.205,3.953-.608,7.147-2.771,10.637Z"/></svg>
