<?xml version="1.0" encoding="UTF-8"?>
<svg xmlns="http://www.w3.org/2000/svg" id="Layer_1" data-name="Layer 1" viewBox="0 0 24 24">
  <path d="m16.298,8.288l1.404,1.425-5.793,5.707c-.386.387-.896.58-1.407.58s-1.025-.195-1.416-.585l-2.782-2.696,1.392-1.437,2.793,2.707,5.809-5.701Zm7.339,5.163l-4.252,7.962c-.522.979-1.536,1.587-2.646,1.587H7.281c-1.107,0-2.121-.606-2.644-1.582L.366,13.46c-.489-.912-.489-2,0-2.911L4.638,2.582c.523-.976,1.536-1.582,2.644-1.582h9.457c1.11,0,2.124.608,2.646,1.587l4.252,7.962c.485.908.485,1.993,0,2.901Zm-1.764-1.958l-4.252-7.963c-.175-.327-.513-.529-.883-.529H7.282c-.369,0-.707.202-.881.527l-4.273,7.967c-.171.319-.171.7,0,1.02l4.271,7.958c.175.326.512.527.881.527h9.457c.37,0,.708-.203.883-.529h0s4.252-7.963,4.252-7.963c.17-.318.17-.698,0-1.015Z"/>
</svg>
