<?xml version="1.0" encoding="UTF-8"?>
<svg xmlns="http://www.w3.org/2000/svg" id="Layer_1" data-name="Layer 1" viewBox="0 0 24 24">
  <path d="m6.5,19c0,.828-.672,1.5-1.5,1.5s-1.5-.672-1.5-1.5.672-1.5,1.5-1.5,1.5.672,1.5,1.5ZM24,7c0,1.178-.78,2-1.898,2h-4.976l1.437,1.438-1.414,1.414-1.793-1.793-1.269,1.269,2.543,2.543-1.414,1.414-2.543-2.543-1.4,1.4,3.293,3.293-1.414,1.414-3.293-3.293-1.061,1.061c1.156,1.375,1.997,3.022,2.408,4.826l.186.814-.769.327c-2.27.966-5.328,1.416-9.622,1.416H0v-1c0-4.294.45-7.352,1.415-9.622l.327-.769.815.186c1.804.411,3.451,1.251,4.826,2.407l1.062-1.062-3.293-3.293,1.414-1.414,3.293,3.293,1.4-1.4-2.543-2.543,1.414-1.414,2.543,2.543,1.269-1.269-1.793-1.793,1.415-1.414,1.437,1.437V1.898c0-1.118.822-1.898,2-1.898,1.423,0,3.447.989,3.905,3.095,2.105.458,3.095,2.482,3.095,3.905Zm-14.976,14.051c-.938-2.862-3.213-5.137-6.076-6.075-.582,1.749-.886,4.021-.94,7.016,2.996-.055,5.267-.358,7.016-.94Zm12.976-14.051c0-.02-.117-2-2-2h-1v-1c0-1.858-1.931-1.997-1.998-2l-.002,5h5Z"/>
</svg>
