<?xml version="1.0" encoding="UTF-8"?>
<svg xmlns="http://www.w3.org/2000/svg" id="Layer_1" data-name="Layer 1" viewBox="0 0 24 24" width="512" height="512"><path d="m20,0H5c-1.654,0-3,1.346-3,3v18c0,1.654,1.346,3,3,3h17V2c0-1.103-.897-2-2-2Zm0,18h-12V2h12v16ZM5,2h1v16h-1c-.351,0-.687.061-1,.172V3c0-.551.448-1,1-1Zm0,20c-.552,0-1-.449-1-1s.448-1,1-1h15v2H5Zm5-7v-1.5c0-1.378,1.121-2.5,2.5-2.5h3c1.379,0,2.5,1.122,2.5,2.5v1.5h-2v-1.5c0-.276-.225-.5-.5-.5h-3c-.275,0-.5.224-.5.5v1.5h-2Zm4-5c1.379,0,2.5-1.121,2.5-2.5s-1.121-2.5-2.5-2.5-2.5,1.121-2.5,2.5,1.121,2.5,2.5,2.5Z"/></svg>
