<?xml version="1.0" encoding="UTF-8"?>
<svg xmlns="http://www.w3.org/2000/svg" id="Layer_1" data-name="Layer 1" viewBox="0 0 24 24" width="512" height="512"><path d="M12,0C5.38,0,0,5.38,0,12s5.38,12,12,12,12-5.38,12-12S18.62,0,12,0ZM2,12C2,6.59,6.33,2.16,11.7,2c2.39,.11,4.3,2.08,4.3,4.5s-1.8,4.3-4.09,4.5c-3.31,.3-5.91,3.15-5.91,6.5,0,1.08,.27,2.1,.73,3-2.84-1.77-4.73-4.91-4.73-8.5Zm10.3,10c-2.39-.11-4.3-2.08-4.3-4.5s1.8-4.3,4.09-4.5c3.31-.3,5.91-3.15,5.91-6.5,0-1.08-.27-2.1-.73-3,2.84,1.77,4.73,4.91,4.73,8.5,0,5.41-4.33,9.84-9.7,10Zm-2.3-15.5c0-.83,.67-1.5,1.5-1.5s1.5,.67,1.5,1.5-.67,1.5-1.5,1.5-1.5-.67-1.5-1.5Zm4,11c0,.83-.67,1.5-1.5,1.5s-1.5-.67-1.5-1.5,.67-1.5,1.5-1.5,1.5,.67,1.5,1.5Z"/></svg>
