<?xml version="1.0" encoding="UTF-8"?>
<svg xmlns="http://www.w3.org/2000/svg" id="Layer_1" data-name="Layer 1" viewBox="0 0 24 24">
  <path d="m23.999,11.405c-.06-4.02-2.597-7.484-6.351-8.647-1.485-.46-3.702-.758-5.647-.758s-4.162.298-5.647.758C2.598,3.921.062,7.385.001,11.405h-.001v5.095c0,3.779,2.333,5.5,4.5,5.5.978,0,1.864-.404,2.5-1.053.636.65,1.522,1.053,2.5,1.053s1.864-.404,2.5-1.053c.636.65,1.522,1.053,2.5,1.053s1.864-.404,2.5-1.053c.636.65,1.522,1.053,2.5,1.053,2.167,0,4.5-1.721,4.5-5.5v-5.095h-.001Zm-1.999,5.095c0,3.331-2.083,3.5-2.5,3.5-.827,0-1.5-.673-1.5-1.5v-.5h-2v.5c0,.827-.673,1.5-1.5,1.5s-1.5-.673-1.5-1.5v-.5h-2v.5c0,.827-.673,1.5-1.5,1.5s-1.5-.673-1.5-1.5v-.5h-2v.5c0,.827-.673,1.5-1.5,1.5-.417,0-2.5-.169-2.5-3.5v-1.808c.443.204.918.307,1.395.307.509,0,1.02-.117,1.495-.354,1.603-.795,4.312-1.646,7.11-1.646s5.508.85,7.11,1.646c.921.458,1.973.469,2.89.047v1.807Zm-.68-3.708c-.409.253-.891.276-1.321.062-.876-.435-4.041-1.854-7.999-1.854s-7.123,1.419-7.999,1.854c-.432.214-.912.19-1.321-.062-.426-.264-.68-.728-.68-1.24,0-.787.127-1.555.363-2.277l1.037,1.65c.42-.197,1.063-.474,1.886-.758l-1.861-2.961c.454-.619,1.004-1.163,1.629-1.604l2.465,3.922c.659-.152,1.372-.283,2.126-.377l-2.796-4.449c.613-.19,1.489-.381,2.325-.497l3.02,4.806c.868.009,1.698.08,2.482.19l-3.261-5.188c.197-.006.392-.01.584-.01.682,0,1.41.042,2.121.116l3.608,5.74c1.372.404,2.54.899,3.094,1.164l-4.043-6.432c2.911.902,5.22,3.813,5.22,6.964,0,.513-.254.977-.68,1.24Z"/>
</svg>
