<?xml version="1.0" encoding="UTF-8"?>
<svg xmlns="http://www.w3.org/2000/svg" id="Layer_1" data-name="Layer 1" viewBox="0 0 24 24">
  <path d="m24,11.068v-.068s-1.593-1.055-4-1.632v-4.064l-.651-.242c-.117-.043-2.912-1.062-7.349-1.062s-7.231,1.019-7.349,1.062l-.651.242v4.064c-2.407.576-4,1.632-4,1.632v.068c1.5.932,3,2.932,3,2.932,0,0-1.808,2.038-3,4.932v.068c2.5-1,5.184-1.822,7-2v-2.462c1.246-.257,3.049-.538,5-.538s3.752.282,5,.539v2.461c1.816.178,4.5,1,7,2v-.068c-1.192-2.893-3-4.932-3-4.932,0,0,1.5-2,3-2.932Zm-18,1.639v-5.968c1.011-.275,3.138-.739,6-.739s4.99.464,6,.739v5.968c-1.33-.306-3.546-.707-6-.707s-4.67.401-6,.707Z"/>
</svg>
