<?xml version="1.0" encoding="UTF-8"?>
<svg xmlns="http://www.w3.org/2000/svg" id="Layer_1" data-name="Layer 1" viewBox="0 0 24 24">
  <path d="m5,17V3c0-1.654-1.346-3-3-3H0v2h2c.551,0,1,.448,1,1v14c0,1.654,1.346,3,3,3v.5c0,1.93,1.57,3.5,3.5,3.5s3.5-1.57,3.5-3.5v-.5h3v.5c0,1.93,1.57,3.5,3.5,3.5s3.5-1.57,3.5-3.5v-.5h1v-2H6c-.551,0-1-.448-1-1Zm6,3.5c0,.827-.673,1.5-1.5,1.5s-1.5-.673-1.5-1.5v-.5h3v.5Zm10,0c0,.827-.673,1.5-1.5,1.5s-1.5-.673-1.5-1.5v-.5h3v.5Zm-14-4.5h17v-7H7v7Zm2-5h13v3h-13v-3ZM14,0h-7v7h7V0Zm-2,5h-3v-3h3v3Zm4-4v6h8V1h-8Zm6,4h-4v-2h4v2Z"/>
</svg>
