<?xml version="1.0" encoding="UTF-8"?>
<svg xmlns="http://www.w3.org/2000/svg" id="Layer_1" data-name="Layer 1" viewBox="0 0 24 24" width="512" height="512"><path d="M22,14v-1c0-2.21-1.79-4-4-4s-4,1.79-4,4v1h-2v7c0,1.65,1.35,3,3,3h6c1.65,0,3-1.35,3-3v-7h-2Zm-6-1c0-1.1,.9-2,2-2s2,.9,2,2v1h-4v-1Zm6,8c0,.55-.45,1-1,1h-6c-.55,0-1-.45-1-1v-5h8v5Zm-3-1h-2v-2h2v2Zm-9,1c0,.34,.04,.68,.1,1H0V3C0,1.35,1.35,0,3,0H19c1.65,0,3,1.35,3,3v5.54c-.58-.52-1.25-.93-2-1.19V3c0-.55-.45-1-1-1H3c-.55,0-1,.45-1,1V20H10v1ZM6,7.09v8.91h4v2H4V4h5.23l-3.23,3.09Zm10,.26v-1.35h-3.59l-2.41,2.41v5.59h-2V7.59l3.59-3.59h6.41v3c-.7,0-1.37,.13-2,.35Z"/></svg>
