<?xml version="1.0" encoding="UTF-8"?>
<svg xmlns="http://www.w3.org/2000/svg" id="Layer_1" data-name="Layer 1" viewBox="0 0 24 24" width="512" height="512"><path d="m19,3h-7V1h-2v2h-3V0h-2v3c-1.654,0-3,1.346-3,3v6.448c0,.905.311,1.792.876,2.499l1.124,1.404v7.649h16v-7.649l1.124-1.404c.565-.707.876-1.594.876-2.499v-6.448c0-1.654-1.346-3-3-3Zm1,9.448c0,.453-.156.896-.438,1.25l-1.562,1.952v6.351H6v-6.351l-1.562-1.952c-.282-.354-.438-.797-.438-1.25v-6.448c0-.551.449-1,1-1h14c.551,0,1,.449,1,1v6.448Zm-14,.552h12v-6H6v6Zm2-4h8v2h-8v-2Z"/></svg>
