<?xml version="1.0" encoding="UTF-8"?>
<svg xmlns="http://www.w3.org/2000/svg" id="Layer_1" data-name="Layer 1" viewBox="0 0 24 24">
  <path d="m14.199,16.262c-2.96-1.282-5.079-3.407-6.453-6.469l3.406-3.406L4.887.122,1.716,3.292c-1.106,1.104-1.716,2.599-1.716,4.208,0,7.248,9.252,16.5,16.5,16.5,1.609,0,3.104-.609,4.207-1.716l3.172-3.171-6.266-6.265-3.414,3.413Zm5.092,4.609c-.726.728-1.718,1.129-2.792,1.129-6.233,0-14.5-8.266-14.5-14.5,0-1.074.401-2.066,1.129-2.793l1.757-1.757,3.437,3.437-2.936,2.936.247.613c1.641,4.085,4.482,6.924,8.446,8.438l.605.23,2.927-2.927,3.437,3.437-1.758,1.758Zm-1.292-8.871c3.309,0,6-2.691,6-6S21.309,0,18,0s-6,2.691-6,6,2.691,6,6,6Zm0-10c2.206,0,4,1.794,4,4s-1.794,4-4,4-4-1.794-4-4,1.794-4,4-4Zm1.079,6.441l-2.079-2.019v-3.423h2v2.577l1.473,1.43-1.394,1.435Z"/>
</svg>
