<?xml version="1.0" encoding="UTF-8"?>
<svg xmlns="http://www.w3.org/2000/svg" id="Layer_1" data-name="Layer 1" viewBox="0 0 24 24">
  <path d="m14,16.769l8,3v4.231h-2v-2.846l-8-3v-6.047c0-.537-.362-1.017-.825-1.093-.302-.05-.596.03-.823.224-.224.19-.353.468-.353.762v11.712s-4.301-3.425-4.32-3.443c-.402-.373-1.034-.354-1.41.048-.377.403-.356,1.038.046,1.416l2.352,2.268h-2.881l-.849-.818c-1.196-1.12-1.26-3.022-.13-4.23,1.115-1.195,2.986-1.269,4.196-.18l.996.792v-7.563c0-.881.385-1.714,1.057-2.286.672-.571,1.562-.815,2.439-.674,1.428.233,2.504,1.551,2.504,3.067v4.662ZM21,0H3C1.346,0,0,1.346,0,3v9h6c0-.712.154-1.387.422-2H2V3c0-.551.449-1,1-1h18c.551,0,1,.449,1,1v7h-6.422c.268.613.422,1.288.422,2h8V3c0-1.654-1.346-3-3-3ZM4.368,8.695l1.638-1.266,1.63,1.261.378-.262-.663-2.015,1.648-.955v.003l1.66.924-.652,2.039.36.272,1.638-1.266,1.63,1.261.378-.262-.663-2.015,1.648-.955v.003l1.66.924-.652,2.039.36.272,1.638-1.266,1.63,1.261.378-.262-.663-2.015,1.648-.955v-.458h-2.163l-.588-2.251h-.486l-.588,2.251h-4.338l-.588-2.251h-.486l-.588,2.251h-4.338l-.588-2.251h-.486l-.588,2.251h-2.175v.462l1.66.924-.652,2.039.36.272Z"/>
</svg>
