<?xml version="1.0" encoding="UTF-8"?>
<svg xmlns="http://www.w3.org/2000/svg" id="Layer_1" data-name="Layer 1" viewBox="0 0 24 24">
  <path d="m20.391,1.007l-.7-.685-.7.685c-1.712,1.676-3.809,2.697-5.992,2.938v-1.944h-2v1.944c-2.183-.24-4.28-1.262-5.992-2.938l-.7-.685-.7.685C1.383,3.187,0,6.634,0,10.004c0,3.298,1.349,6.588,3.609,8.8l.7.685.7-.685c1.614-1.58,3.713-2.54,5.992-2.757v7.952h2v-7.952c2.279.217,4.378,1.177,5.992,2.757l.7.685.7-.685c2.26-2.212,3.609-5.502,3.609-8.8,0-3.371-1.383-6.818-3.609-8.997ZM4.375,16.688c-1.5-1.805-2.375-4.238-2.375-6.684,0-2.47.914-5.065,2.376-6.872,1.943,1.63,4.239,2.608,6.624,2.822v8.085c-2.459.196-4.756,1.114-6.625,2.648Zm15.249,0c-1.869-1.534-4.165-2.452-6.625-2.648V5.955c2.384-.215,4.681-1.193,6.624-2.822,1.463,1.807,2.376,4.402,2.376,6.872,0,2.445-.875,4.878-2.375,6.684Z"/>
</svg>
