<?xml version="1.0" encoding="UTF-8"?>
<svg xmlns="http://www.w3.org/2000/svg" id="Layer_1" data-name="Layer 1" viewBox="0 0 24 24" width="512" height="512"><path d="M7,0L1.879,5.121c-.567,.567-.879,1.32-.879,2.122s.312,1.555,.885,2.127l4.115,4.049v7.581c0,.881,.385,1.714,1.057,2.286,.546,.465,1.236,.714,1.948,.714,.163,0,.328-.013,.492-.04,1.427-.232,2.503-1.551,2.503-3.066v-5.073l10-2V0H7Zm13,12.18l-10,2v6.713c0,.537-.362,1.017-.825,1.093-.301,.048-.595-.03-.823-.224-.224-.19-.353-.468-.353-.762V7h-2v3.613l-2.707-2.664c-.189-.188-.293-.439-.293-.707s.104-.518,.293-.707L7.828,2h12.172V12.18Z"/></svg>
