<?xml version="1.0" encoding="UTF-8"?>
<svg xmlns="http://www.w3.org/2000/svg" id="Layer_1" data-name="Layer 1" viewBox="0 0 24 24" width="512" height="512"><path d="m23.876,11.518c-2.227-4.049-5.105-6.849-6.894-8.017-1.216-.793-2.844-.622-3.875.408l-1.107,1.107-1.107-1.108c-1.032-1.031-2.661-1.201-3.875-.407C5.143,4.726,2.286,7.667.129,11.478l-.129.27v.529l.132.23c.175.306,4.374,7.492,11.868,7.492s11.692-7.176,11.868-7.482l.132-.252v-.523l-.124-.225Zm-15.766-6.342c.427-.28,1.001-.218,1.368.147l2.521,2.522,2.521-2.522c.364-.364.939-.427,1.368-.147,1.454.949,3.531,3.018,5.297,5.739-1.451-.26-5.482-.915-9.186-.915-3.722,0-7.714.643-9.173.902,1.814-2.741,3.915-4.832,5.284-5.726Zm3.889,12.824c-4.28,0-7.393-2.945-8.968-4.866,1.601.278,5.408.866,8.968.866s7.373-.587,8.972-.864c-1.574,1.919-4.688,4.864-8.972,4.864Z"/></svg>
