<?xml version="1.0" encoding="UTF-8"?>
<svg xmlns="http://www.w3.org/2000/svg" id="Layer_1" data-name="Layer 1" viewBox="0 0 24 24">
  <path d="m20,17V4c0-2.209-1.791-4-4-4H3.5C1.567,0,0,1.567,0,3.5v3.5h5v13.5c0,1.933,1.567,3.5,3.5,3.5h12c1.933,0,3.5-1.567,3.5-3.5v-3.5h-4ZM5,5h-3v-1.5c0-.827.673-1.5,1.5-1.5s1.5.673,1.5,1.5v1.5Zm5,15.5c0,.827-.673,1.5-1.5,1.5s-1.5-.673-1.5-1.5V3.5c0-.536-.122-1.045-.338-1.5h9.338c1.105,0,2,.895,2,2v13h-8v3.5Zm12,0c0,.827-.673,1.5-1.5,1.5h-8.838c.216-.455.338-.963.338-1.5v-1.5h10v1.5Z"/>
</svg>
