<?xml version="1.0" encoding="UTF-8"?>
<svg xmlns="http://www.w3.org/2000/svg" id="Layer_1" data-name="Layer 1" viewBox="0 0 24 24">
  <path d="m17,8.537V3.756L12,.006l-5,3.75v4.74L0,13.798v10.202h24v-10.463l-7-5Zm-8,.954v-4.734l3-2.25,3,2.25v4.81l2,1.429v11.005h-2v-4c0-1.654-1.346-3-3-3s-3,1.346-3,3v4h-2v-10.995l2-1.515Zm4,12.509h-2v-4c0-.551.448-1,1-1s1,.449,1,1v4ZM2,14.792l3-2.272v9.48h-3v-7.208Zm20,7.208h-3v-9.577l3,2.143v7.434Zm-11.5-10.5c0-.828.672-1.5,1.5-1.5s1.5.672,1.5,1.5-.672,1.5-1.5,1.5-1.5-.672-1.5-1.5Z"/>
</svg>
