<?xml version="1.0" encoding="UTF-8"?>
<svg xmlns="http://www.w3.org/2000/svg" id="Layer_1" data-name="Layer 1" viewBox="0 0 24 24" width="512" height="512"><path d="M12,0C5.383,0,0,5.383,0,12s5.383,12,12,12,12-5.383,12-12S18.617,0,12,0Zm0,22c-5.514,0-10-4.486-10-10S6.486,2,12,2s10,4.486,10,10-4.486,10-10,10Zm-3.107-15.376c-1.3,.554-2.354,1.426-3.048,2.521l-1.689-1.07c.912-1.439,2.278-2.577,3.952-3.291l.785,1.84Zm10.871,1.325l-1.668,1.103c-.695-1.051-1.729-1.89-2.988-2.428l.785-1.84c1.621,.692,2.96,1.786,3.871,3.165Zm-11.264,2.051c.828,0,1.5,.672,1.5,1.5s-.672,1.5-1.5,1.5-1.5-.672-1.5-1.5,.672-1.5,1.5-1.5Zm8.5,1.5c0,.828-.672,1.5-1.5,1.5s-1.5-.672-1.5-1.5,.672-1.5,1.5-1.5,1.5,.672,1.5,1.5Zm0,7.5s-2.501-1-5-1-5,1.001-5,1c.512-1.899,2.221-3.997,4.999-4,2.778,.003,4.488,2.101,5.001,4Z"/></svg>
