<?xml version="1.0" encoding="UTF-8"?>
<svg xmlns="http://www.w3.org/2000/svg" id="Layer_1" data-name="Layer 1" viewBox="0 0 24 24">
  <path d="m19,4c-1.129,0-2.204.442-2.947,1.213-.374.387-.654.845-.831,1.342l-.499-.582c-.466-.544-.723-1.237-.723-1.953v-2.021h1V0H6v2h1v2.021c0,.715-.256,1.409-.722,1.952l-4.074,4.753c-.776.906-1.204,2.062-1.204,3.253v10.021h19v-10.021c0-.035,0-.07-.001-.106,1.724-.445,3.001-2.013,3.001-3.874v-2c0-2.206-1.794-4-4-4ZM3,15h11v3H3v-3Zm15,7H3v-2h13v-7H3.165c.122-.354.31-.684.557-.973l4.074-4.753c.776-.906,1.204-2.062,1.204-3.253v-2.021h3v2.021c0,1.192.427,2.348,1.204,3.254l4.073,4.752c.466.544.723,1.237.723,1.953v8.021Zm3-12c0,.91-.611,1.679-1.444,1.921-.194-.429-.449-.832-.76-1.195l-1.796-2.096v-.665c-.019-.538.151-1.009.493-1.362.368-.383.918-.602,1.508-.602,1.103,0,2,.897,2,2v2Z"/>
</svg>
