<?xml version="1.0" encoding="UTF-8"?>
<svg xmlns="http://www.w3.org/2000/svg" id="Layer_1" data-name="Layer 1" viewBox="0 0 24 24" width="512" height="512"><path d="M22.849,7.68l-.869-.68h.021V2h-2v3.451L13.849,.637c-1.088-.852-2.609-.852-3.697,0L1.151,7.68c-.731,.572-1.151,1.434-1.151,2.363v13.957H10.287l2.306-6h-4.511l3.973-6.043-1.231,4.043,5.155-.031-2.774,8.031h10.796V10.043c0-.929-.42-1.791-1.151-2.363Zm-.849,14.32h-5.989l1.906-5.521c.178-.588,.069-1.209-.297-1.703-.366-.493-.929-.776-1.543-.776h-2.555l1.827-6h-3.088l-5.942,9.041c-.389,.586-.424,1.334-.092,1.954,.332,.62,.976,1.005,1.679,1.005h1.774l-.769,2H2V10.043c0-.31,.14-.597,.384-.788L11.384,2.212c.363-.284,.869-.284,1.232,0l9,7.043c.244,.191,.384,.478,.384,.788v11.957Z"/></svg>
