<?xml version="1.0" encoding="UTF-8"?>
<svg xmlns="http://www.w3.org/2000/svg" id="Layer_1" data-name="Layer 1" viewBox="0 0 24 24" width="512" height="512"><path d="m19,0H4c-1.103,0-2,.897-2,2v22h17c1.654,0,3-1.346,3-3V3c0-1.654-1.346-3-3-3Zm0,2c.551,0,1,.449,1,1v15.172c-.313-.111-.649-.172-1-.172H4V2h15Zm0,20H4v-2h15c.551,0,1,.449,1,1s-.449,1-1,1ZM7,10c0-2.761,2.239-5,5-5,.591,0,1.153.113,1.678.303-1.943.686-3.344,2.519-3.344,4.697s1.4,4.01,3.341,4.696c-.524.19-1.084.304-1.675.304-2.761,0-5-2.239-5-5Zm5-1h1.812l.491-1.875h.404l.49,1.875h1.802v.382l-1.375.796.552,1.679-.312.218-1.359-1.051-1.364,1.055-.301-.226.543-1.698-1.384-.77v-.384Z"/></svg>
