<?xml version="1.0" encoding="UTF-8"?>
<svg xmlns="http://www.w3.org/2000/svg" id="Layer_1" data-name="Layer 1" viewBox="0 0 24 24">
  <path d="m12,6.787L2.366,20.188c-.474.778-.491,1.716-.045,2.509.451.804,1.312,1.303,2.247,1.303h14.864c.935,0,1.795-.499,2.247-1.303.446-.793.429-1.73-.087-2.572L12,6.787Zm-1.444,15.213l1.444-2.186,1.444,2.186h-2.888Zm9.379-.282c-.047.085-.192.282-.503.282h-3.592l-3.841-5.814-3.841,5.814h-3.592c-.311,0-.456-.197-.503-.282-.05-.088-.114-.263-.005-.464l7.94-11.042,7.926,11.017c.128.211.061.396.009.488ZM3.594,8.417L.295,5.119l1.414-1.414,2.291,2.291V0h2v6.006l2.291-2.302,1.414,1.414-3.298,3.299c-.388.388-.897.582-1.406.582s-1.019-.194-1.406-.582Zm14,0l-3.298-3.299,1.414-1.414,2.291,2.291V0h2v6.006l2.291-2.302,1.414,1.414-3.298,3.299c-.388.388-.897.582-1.406.582s-1.019-.194-1.406-.582Z"/>
</svg>
