<?xml version="1.0" encoding="UTF-8"?>
<svg xmlns="http://www.w3.org/2000/svg" id="Layer_1" data-name="Layer 1" viewBox="0 0 24 24">
  <path d="m13,11v-4h2v2.339l-1.609,1.661h-.391Zm-1.939,10.952c-5.075-.475-9.061-4.756-9.061-9.952C2,6.486,6.486,2,12,2c5.101,0,9.315,3.843,9.918,8.784.662.588,1.385,1.269,2.039,2.06.02-.28.043-.559.043-.844C24,5.383,18.617,0,12,0S0,5.383,0,12s5.383,12,12,12c.237,0,.468-.022.701-.036-.649-.576-1.205-1.254-1.64-2.012Zm-4.061-10.952v-4h-2v4h2Zm4,0v-4h-2v4h2Zm13,6.987c0,3.309-2.691,6-6,6s-6-2.691-6-6c0-1.759.979-3.688,1.945-4.686l1.369-1.413.334,1.941c.062.359.185.773.299,1.038.111-.222.23-.714.308-1.031.202-.839.455-1.884,1.144-2.898l.679-1.001.855.855c.317.316.702.651,1.113,1.009,1.669,1.453,3.954,3.442,3.954,6.186Zm-2,0c0-1.832-1.736-3.344-3.268-4.678-.069-.061-.139-.12-.206-.18-.138.392-.233.788-.328,1.178-.273,1.131-.647,2.68-2.463,2.68-.582,0-1.009-.317-1.32-.763-.248.577-.415,1.205-.415,1.763,0,1.53.863,2.862,2.128,3.534-.268-.713-.116-1.547.457-2.12l1.415-1.415,1.414,1.415c.573.573.725,1.408.457,2.12,1.265-.672,2.129-2.004,2.129-3.535Z"/>
</svg>
