<?xml version="1.0" encoding="UTF-8"?>
<svg xmlns="http://www.w3.org/2000/svg" id="Layer_1" data-name="Layer 1" viewBox="0 0 24 24" width="512" height="512"><path d="M23.018,8.785c-.595-.542-1.356-.821-2.169-.782-.804,.037-1.545,.386-2.085,.981l-3.217,3.534c-.551-.91-1.551-1.519-2.689-1.519H3c-1.654,0-3,1.346-3,3v7c0,1.654,1.346,3,3,3H13.448l9.787-10.985c1.094-1.225,.996-3.123-.218-4.23Zm-1.275,2.899l-9.19,10.316H3c-.552,0-1-.449-1-1v-7c0-.551,.448-1,1-1H12.857c.63,0,1.143,.512,1.143,1.142,0,.564-.422,1.051-.98,1.131l-5.161,.737,.283,1.979,5.161-.737c1.175-.168,2.129-.988,2.514-2.059l4.427-4.864c.181-.2,.43-.316,.699-.329,.271-.005,.528,.082,.728,.262,.407,.372,.44,1.009,.072,1.421Zm-15.742-2.684h4v-2h2v-3c0-2.206-1.794-4-4-4S4,1.794,4,4v3h2v2Zm3-6h2v2h-2V3Zm-4,2V3h2v2h-2Z"/></svg>
