<?xml version="1.0" encoding="UTF-8"?>
<svg xmlns="http://www.w3.org/2000/svg" id="Layer_1" data-name="Layer 1" viewBox="0 0 24 24">
  <path d="m22,18.5c0,4.035-4.485,5.5-7.5,5.5h-2C6.425,24,0,18.089,0,12.5c0-2.054.424-4.745,2.076-7.5H0C1.893,2.714,4.07.762,5.962,0c.186,3.226-.464,5.795-.962,8l-1.317-2.48c-1.183,1.98-1.683,4.48-1.683,6.98,0,3.969,5.527,8,9.5,8,1.21,0,3.5-.313,3.5-1.5,0-.612-.721-1.223-1.662-1.853l-3.838.853,1.257-2.514c-.226-.156-.451-.318-.671-.486h-4.086l2.057-2.057c-.215-.314-.404-.648-.561-1.006l-3.495-.437,3.003-2.145c.039-1.177.549-2.273,1.246-3.165.501.432,1.034.817,1.594,1.152-.47.637-.843,1.303-.843,2.157,0,2.565,2.202,3.94,4.332,5.271,1.887,1.178,3.668,2.29,3.668,4.229,0,1.536-1.006,2.483-2.382,2.999,1.52-.034,5.382-.716,5.382-3.499,0-2.408-1.382-4.069-3.341-5.521-.712-.529-1.688-1.463-2.361-2.163.555-.311,1.238-.628,1.774-.757.277.233.453.462.731.668,2.193,1.627,5.196,3.854,5.196,7.772Zm-2.001-13.5h4.001v-2h-4.463c-.471-.607-1.219-1-2.037-1h-.663c-1.029-.804-1.837-1.844-1.837-2,0,.923.057,1.712.18,2.381-1.71-.815-3.18-2.169-3.18-2.381,0,1.175.348,2.629,1.171,3.811-2.562-.286-5.151-.798-5.171-.811.111.074,1.667,2.625,5.144,3.614-.794,1.021-1.144,2.34-1.144,3.386.072-.203,2.674-2,4.5-2,3.434,0,5.151,2.043,5.224,2.13l1.558-1.255c-.079-.098-1.664-2.034-4.759-2.672.181-1.182,1.435-1.202,1.477-1.203Z"/>
</svg>
