<?xml version="1.0" encoding="UTF-8"?>
<svg xmlns="http://www.w3.org/2000/svg" id="Layer_1" data-name="Layer 1" viewBox="0 0 24 24">
  <path d="m2,22h6v2H0V3C0,1.346,1.346,0,3,0h9v2H3c-.552,0-1,.448-1,1v19ZM12,4H4v4h8v-4Zm-6,6h-2v2h2v-2Zm0,4h-2v2h2v-2Zm4-2v-2h-2v2h2Zm0,2h-2v2h2v-2Zm-6,6h2v-2h-2v2Zm15.235-7.003c-.534-.597-1.269-.949-2.067-.993-.798-.043-1.567.227-2.207.803l-3.515,3.552c-.933.942-1.446,2.191-1.446,3.517v4.125h2v-4.125c0-.795.309-1.544.868-2.11l3.472-3.511c.197-.178.456-.268.719-.253.266.015.509.132.688.331.328.366.338.927.066,1.254l-2.616,2.721,1.441,1.387,2.661-2.771c.953-1.135.926-2.822-.063-3.925ZM22,0h-6c-1.105,0-2,.895-2,2v9.04c.61-.458,1.292-.771,2.015-.92V2h6v10h-1.04c.455.605.771,1.284.914,2h.11c1.105,0,2-.895,2-2V2c0-1.105-.895-2-2-2Zm0,19.231c0,.248-.092.486-.258.671l-3.596,4.098h2.684l2.396-2.759c.499-.555.772-1.268.772-2.01v-3.788c-.591.344-1.268.556-2,.556v3.231Z"/>
</svg>
