<?xml version="1.0" encoding="UTF-8"?>
<svg xmlns="http://www.w3.org/2000/svg" id="Layer_1" data-name="Layer 1" viewBox="0 0 24 24">
  <path d="m15.623,10.909c1.571,0,2.993-1.827,3.236-4.158.121-1.16-.081-2.224-.569-2.998-.101-.16-.213-.306-.336-.438-.008-2.04-2.506-3.315-2.506-3.315,0,0,.544,1.215.501,2.46-1.594.036-2.828,1.504-3.054,3.669-.123,1.174.076,2.356.544,3.244.475.901,1.292,1.537,2.184,1.537Zm-.739-4.573c.114-1.087.589-1.877,1.13-1.877.264,0,.432.103.584.363.196.409.344,1.016.271,1.721-.166,1.593-1.013,2.354-1.25,2.366-.06-.006-.242-.15-.411-.47-.284-.539-.405-1.325-.324-2.103ZM6.003,3.542h0s0-.002,0-.003c0,0,0,.002,0,.003Zm0-.003s0-.001,0,0h0Zm5.997,9.461c-4.038,0-8,3.887-8,7.847,0,1.438.553,3.153,3.188,3.153.74,0,1.434-.226,2.167-.464.811-.264,1.649-.536,2.645-.536s1.834.272,2.645.536c.734.238,1.427.464,2.167.464,2.634,0,3.188-1.715,3.188-3.153,0-3.96-3.962-7.847-8-7.847Zm4.812,9c-.423,0-.945-.169-1.549-.366-.869-.282-1.95-.634-3.263-.634s-2.395.352-3.263.634c-.604.197-1.126.366-1.549.366-.977,0-1.188-.205-1.188-1.153,0-2.896,3.028-5.847,6-5.847s6,2.951,6,5.847c0,.949-.211,1.153-1.188,1.153Zm-8.299-11.078c.909,0,1.708-.636,2.184-1.537.469-.889.667-2.071.544-3.244-.229-2.194-1.483-3.669-3.119-3.669-.041,0-.082.001-.123.003-.048-1.25.501-2.475.501-2.475,0,0-2.646,1.394-2.497,3.542,0,.007,0,.004,0,0-.055.072-.107.146-.156.224-.489.772-.691,1.837-.569,2.998.243,2.332,1.665,4.158,3.236,4.158Zm-.977-6.086c.153-.31.444-.364.585-.364.541,0,1.016.79,1.13,1.877.082.778-.039,1.563-.323,2.102-.169.32-.351.464-.414.47-.234-.012-1.082-.773-1.248-2.366-.074-.705.066-1.309.27-1.72Zm13.963.664s.557,1.242.5,2.5c-.006.13-.021.259-.046.388-.102-.025-.206-.043-.312-.055-1.613-.18-2.866,1.211-3.085,3.315-.111,1.065.068,2.138.494,2.944.432.818.95,1.395,1.981,1.395,1.425,0,2.715-1.658,2.936-3.773.082-.786,0-1.523-.23-2.139.172-.377.239-.736.263-1.075.15-2.148-2.5-3.5-2.5-3.5Zm.479,6.506c-.132,1.263-.748,1.931-.897,1.99-.037-.018-.15-.125-.262-.336-.242-.458-.344-1.132-.273-1.803.1-.962.506-1.537.841-1.537,0,0,.234.022.374.244.201.318.281.843.218,1.442Zm-17.019,2.583c.425-.807.605-1.882.494-2.949-.209-1.995-1.349-3.335-2.836-3.335-.084,0-.469.044-.575.07-.023-.125-.038-.25-.043-.375-.057-1.258.5-2.5.5-2.5,0,0-2.65,1.352-2.5,3.5.024.338.09.696.261,1.071-.229.615-.31,1.351-.228,2.136.222,2.12,1.514,3.78,2.942,3.78l.192-.01c.724-.076,1.361-.568,1.794-1.388Zm-1.769-.933c-.113.214-.228.321-.193.333-.224-.052-.844-.721-.976-1.99-.063-.602.036-1.077.218-1.448.097-.186.222-.246.378-.246.337,0,.746.578.847,1.543.07.673-.032,1.349-.274,1.808Z"/>
</svg>
