<?xml version="1.0" encoding="UTF-8"?>
<svg xmlns="http://www.w3.org/2000/svg" id="Layer_1" data-name="Layer 1" viewBox="0 0 24 24">
  <path d="m23.507,10.743c-.238-.33-.54-.599-.884-.793l.344-.344c.976-.975,1.13-2.517.359-3.586-.352-.489-.846-.841-1.404-1.018.127-.709-.005-1.451-.434-2.047-.474-.658-1.204-1.073-2.005-1.138-.708-.055-1.398.176-1.943.622-.051-.094-.099-.19-.162-.278-.474-.658-1.204-1.073-2.005-1.138-.799-.06-1.587.224-2.154.792l-7.218,7.218v-.94c0-1.516-1.076-2.834-2.503-3.066-.88-.143-1.769.103-2.439.674-.672.571-1.057,1.404-1.057,2.286v6.17c0,2.381.969,4.708,2.658,6.387l.815.81c1.721,1.709,3.999,2.647,6.422,2.647.027,0,.055,0,.083,0,2.454-.021,4.747-1.002,6.457-2.762l6.711-6.908c.977-.975,1.131-2.517.36-3.586Zm-1.783,2.182l-6.722,6.918c-1.335,1.374-3.125,2.14-5.041,2.157-1.96-.002-3.719-.717-5.078-2.067l-.815-.81c-1.314-1.305-2.067-3.115-2.067-4.967v-6.17c0-.294.128-.572.353-.762.228-.193.519-.271.823-.224.462.076.825.556.825,1.093v5.768L14.632,3.229c.153-.153.363-.226.579-.212.126.01.364.064.543.312.2.278.135.718-.149,1.002l-4.637,4.636,1.414,1.414,4.636-4.636h0s0,0,0,0l1.723-1.723c.153-.153.362-.23.579-.212.126.01.364.064.543.312.2.278.135.719-.15,1.003l-1.689,1.689h0s-4.605,4.604-4.605,4.604l1.414,1.414,5.747-5.747c.153-.153.367-.229.579-.212.126.01.364.064.543.312.2.278.135.719-.15,1.003l-2.661,2.661-3.02,3.019,1.414,1.414,2.618-2.618h0s.857-.857.857-.857c.153-.153.364-.227.579-.212.126.01.364.064.543.312.2.278.135.718-.16,1.013Zm-8.224,1.966c0,1.979-3.5,4.41-3.5,4.41,0,0-3.5-2.431-3.5-4.41,0-1.044.784-1.89,1.75-1.89s1.75.674,1.75,1.718c0-1.044.784-1.718,1.75-1.718s1.75.846,1.75,1.89Z"/>
</svg>
