<?xml version="1.0" encoding="UTF-8"?>
<svg xmlns="http://www.w3.org/2000/svg" id="Layer_1" data-name="Layer 1" viewBox="0 0 24 24" width="512" height="512"><path d="m13,2.468C13,1.087,14.119-.032,15.5-.032s2.5,1.119,2.5,2.5-1.119,2.5-2.5,2.5-2.5-1.119-2.5-2.5Zm-.732,14.336l2.455-5.963,1.932,2.71,5.604-3.736-1.109-1.664-3.995,2.664-1.816-2.534c-.486-.937-1.295-1.651-2.223-1.992-.683-.31-1.379-.372-2.074-.184-.873.235-1.601.835-2.023,1.701l-2.646,6.35c-.734,1.497-.4,2.787,1.041,3.961l5.047,3.883H4v2h12v-1.801l-7.344-5.65c-.835-.682-.729-1.019-.462-1.569l2.646-6.35c.144-.292.407-.509.724-.595.24-.065.47-.042.792.102.406.15.754.41,1.009.749l-2.74,6.654,1.643,1.264Z"/></svg>
