<?xml version="1.0" encoding="UTF-8"?>
<svg xmlns="http://www.w3.org/2000/svg" id="Layer_1" data-name="Layer 1" viewBox="0 0 24 24" width="512" height="512"><path d="M14.849,12.747l-5.448-4.264c-.824-.646-1.977-.646-2.801,0L1.151,12.746c-.731,.573-1.151,1.435-1.151,2.363v8.891H16V15.109c0-.929-.42-1.79-1.151-2.362Zm-.849,9.253H2v-6.891c0-.31,.14-.597,.384-.788l5.448-4.264c.099-.076,.237-.076,.336,0l5.448,4.265c.244,.19,.384,.478,.384,.787v6.891ZM6,15h4v4H6v-4ZM22,0V2h-2V0h-2V2h-2V0h-2V2h-2V0h-2V5.5c0,1.208,.86,2.217,2,2.45v.028l2,1.565v-1.543h6v14h-2v2h4V7.95c1.14-.232,2-1.242,2-2.45V0h-2Zm0,5.5c0,.275-.224,.5-.5,.5H12.5c-.276,0-.5-.225-.5-.5v-1.5h10v1.5Z"/></svg>
