<?xml version="1.0" encoding="UTF-8"?>
<svg xmlns="http://www.w3.org/2000/svg" id="Layer_1" data-name="Layer 1" viewBox="0 0 24 24">
  <path d="m8,0C4.691,0,2,2.691,2,6s2.691,6,6,6,6-2.691,6-6S11.309,0,8,0Zm0,10c-2.206,0-4-1.794-4-4s1.794-4,4-4,4,1.794,4,4-1.794,4-4,4Zm-3,4h6v2h-6c-1.654,0-3,1.346-3,3v5H0v-5c0-2.757,2.243-5,5-5Zm17.286-2.399l-3.786-1.255-3.786,1.255c-1.025.34-1.714,1.293-1.714,2.373v3.426c0,3.569,3.714,5.703,4.853,6.272l.604.302.627-.252c1.153-.464,4.917-2.292,4.917-6.322v-3.426c0-1.08-.688-2.033-1.714-2.373Zm-.286,5.799c0,2.582-2.424,3.925-3.455,4.379-.916-.491-3.545-2.099-3.545-4.379v-3.426c0-.216.138-.407.343-.475l3.157-1.046,3.157,1.046c.205.068.343.259.343.475v3.426Z"/>
</svg>
