<?xml version="1.0" encoding="UTF-8"?>
<svg xmlns="http://www.w3.org/2000/svg" id="Layer_1" data-name="Layer 1" viewBox="0 0 24 24" width="512" height="512"><path d="M23.577,10.352l-2.133-3.554-9.444,3.148L2.556,6.798,.442,10.319c-.475,.791-.563,1.741-.243,2.606,.31,.839,.963,1.488,1.801,1.793v5.934l10,3.333,10-3.333v-5.933c.846-.296,1.507-.946,1.818-1.788,.316-.856,.229-1.797-.241-2.58Zm-21.42,.997l1.287-2.146,7.057,2.353-1.533,2.555c-.243,.406-.729,.583-1.174,.435l-5.081-1.693c-.297-.1-.529-.325-.638-.618-.109-.294-.079-.616,.082-.884Zm1.843,4.038l3.161,1.054c.317,.106,.642,.157,.96,.157,1.029,0,2.005-.531,2.562-1.459l.317-.529v6.936l-7-2.334v-3.825Zm9,6.159v-6.936l.317,.529c.557,.928,1.533,1.459,2.562,1.459,.318,0,.642-.051,.96-.157l3.161-1.053v3.825l-7,2.334Zm8.942-9.307c-.105,.285-.331,.504-.619,.601l-5.117,1.705c-.45,.147-.931-.028-1.174-.435l-1.533-2.555,7.057-2.353,1.307,2.179c.156,.26,.186,.572,.08,.857ZM7.163,6.226l-2.121-.707L10.525,.036l2.749,2.749,1.199-1.199,4.071,4.071-2.121,.707-1.95-1.95-3.187,3.187-2.121-.707,2.694-2.694-1.335-1.335-3.362,3.362Z"/></svg>
