<?xml version="1.0" encoding="UTF-8"?>
<svg xmlns="http://www.w3.org/2000/svg" id="Layer_1" data-name="Layer 1" viewBox="0 0 24 24">
  <path d="m24,8h-2v-2c0-2.757-2.243-5-5-5H7c-2.757,0-5,2.243-5,5v2H0v13h2v2h2v-2h16v2h2v-2h2v-13Zm-13,11H2v-9h1c.552,0,1,.449,1,1v5h5c1.103,0,2,.897,2,2v1Zm1-3.643c-.733-.832-1.807-1.357-3-1.357h-3v-3c0-1.304-.836-2.415-2-2.828v-2.172c0-1.654,1.346-3,3-3h10c1.654,0,3,1.346,3,3v2.05c-1.14.232-2,1.242-2,2.45v3.5h-3c-1.193,0-2.267.525-3,1.357Zm10,3.643h-9v-1c0-1.103.897-2,2-2h5v-5.5c0-.276.225-.5.5-.5h1.5v9Z"/>
</svg>
