<?xml version="1.0" encoding="UTF-8"?>
<svg xmlns="http://www.w3.org/2000/svg" id="Layer_1" data-name="Layer 1" viewBox="0 0 24 24">
  <path d="m20.775,15.358c.758.253,1.482.619,2.151,1.087l1.146-1.639c-.827-.579-1.723-1.031-2.664-1.345-.843-.282-1.409-1.049-1.409-1.91v-1.097c2.108-.219,4-1.234,4-3.204,0-1.851-1.74-4.503-4.5-4.734V0c-1.657,0-3,1.343-3,3v.413c-.915.734-1.5,1.846-1.5,3.087,0,.617-1.683,1.71-3.035,2.588-2.911,1.89-6.886,4.473-6.963,8.95-1.897-3.414-3.002-7.786-3.002-12.038,0-2.206,1.794-4,4-4s4,1.794,4,4c0,1.042-.401,1.992-1.056,2.705.673-.476,2.617-1.739,3.016-2.011.026-.228.04-.459.04-.694,0-3.309-2.691-6-6-6S0,2.691,0,6c0,7.615,2.983,12.78,4.266,14.647,1.442,2.099,3.841,3.353,6.419,3.353h11.315v-2h-4.003c.629-.836,1.003-1.875,1.003-3,0-2.757-2.243-5-5-5v2c1.654,0,3,1.346,3,3s-1.346,3-3,3h-3.315c-.575,0-1.137-.084-1.672-.242-1.354-.789-2.013-1.963-2.013-3.587,0-3.473,3.216-5.562,6.054-7.405,1.056-.686,2.006-1.303,2.709-1.947.538.733,1.323,1.283,2.237,1.533v1.2c0,1.722,1.115,3.252,2.775,3.807Zm-3.775-8.858c0-1.103.947-2,2.111-2,1.764,0,2.889,1.806,2.889,2.75,0,.862-1.689,1.25-2.889,1.25-1.164,0-2.111-.897-2.111-2Z"/>
</svg>
