<?xml version="1.0" encoding="UTF-8"?>
<svg xmlns="http://www.w3.org/2000/svg" id="Layer_1" data-name="Layer 1" viewBox="0 0 24 24">
  <path d="m10,18c0,1.022.199,1.995.548,2.894l-7.881-5.894H0v-2h3.333l6.668,4.986s0,.009,0,.014ZM21.236,2l-2.949-1.475c-1.83-.914-4.154-.571-5.639.829l-.618.582-.7-.638c-.918-.837-2.109-1.298-3.39-1.298-.768,0-1.538.182-2.227.525l-2.949,1.475H0v2h3.236l3.37-1.686c1.028-.514,2.458-.374,3.376.462l.586.534-2.647,2.492c-1.072,1.072-1.244,2.765-.398,3.939.52.722,1.323,1.177,2.201,1.249.082.006.163.01.244.01.793,0,1.554-.312,2.104-.863l1.005-.962,1.896,1.422c.799-.327,1.665-.522,2.569-.573l-3-2.25,1.688-1.616-1.383-1.445-4.174,3.995c-.207.208-.496.317-.788.29-.297-.024-.56-.174-.739-.423-.274-.381-.19-.976.168-1.335l4.705-4.429c.888-.836,2.28-1.042,3.374-.495l3.371,1.686h3.236v-2h-2.764Zm2.764,16c0,3.309-2.691,6-6,6s-6-2.691-6-6,2.691-6,6-6,6,2.691,6,6Zm-2,0c0-2.206-1.794-4-4-4s-4,1.794-4,4,1.794,4,4,4,4-1.794,4-4Zm-4.562.323l-1.242-1.203-1.392,1.436,1.535,1.486c.293.296.684.458,1.1.458h0c.416,0,.807-.162,1.094-.449l2.661-2.612-1.401-1.428-2.355,2.312Z"/>
</svg>
