<?xml version="1.0" encoding="UTF-8"?>
<svg xmlns="http://www.w3.org/2000/svg" id="Layer_1" data-name="Layer 1" viewBox="0 0 24 24">
  <path d="m22.296,1.748c-.086.118-1.528,2.048-4.689,3.266-.71-2.443-2.216-5.014-3.177-5.014-.533,0-.865.312-1.085.52-.251.236-.51.48-1.345.48s-1.094-.244-1.345-.48c-.22-.207-.552-.52-1.085-.52-.961,0-2.466,2.57-3.177,5.013C3.242,3.795,1.81,1.869,1.724,1.751L.096,2.911c.104.148,1.926,2.647,5.904,4.087v1.002c0,3.309,2.691,6,6,6s6-2.691,6-6v-1c3.985-1.439,5.817-3.939,5.922-4.085l-1.625-1.166Zm-12.531.632c.442.311,1.125.62,2.234.62s1.792-.31,2.234-.62c.459.716,1.108,1.917,1.479,3.213-1.089.252-2.323.408-3.714.408s-2.625-.156-3.713-.408c.371-1.296,1.02-2.496,1.479-3.212Zm2.234,9.62c-2.206,0-4-1.794-4-4v-.423c1.186.263,2.517.423,4,.423s2.813-.16,4-.423v.423c0,2.206-1.794,4-4,4Zm9,8.5v3.5h-2v-3.5c0-1.379-1.122-2.5-2.5-2.5H7.5c-1.378,0-2.5,1.121-2.5,2.5v3.5h-2v-3.5c0-2.481,2.019-4.5,4.5-4.5h9c2.481,0,4.5,2.019,4.5,4.5Z"/>
</svg>
