<?xml version="1.0" encoding="UTF-8"?>
<svg xmlns="http://www.w3.org/2000/svg" id="Layer_1" data-name="Layer 1" viewBox="0 0 24 24">
  <path d="m12,15.5c0-.828.672-1.5,1.5-1.5h3c.828,0,1.5.672,1.5,1.5v1.5H6v-1.5c0-.828.672-1.5,1.5-1.5h3c.828,0,1.5.672,1.5,1.5Zm-3-2.5c1.105,0,2-.895,2-2s-.895-2-2-2-2,.895-2,2,.895,2,2,2Zm6,0c1.105,0,2-.895,2-2s-.895-2-2-2-2,.895-2,2,.895,2,2,2ZM24,2.048v5.952h-2.688l-1.375,1.138c-.272.243-.622.365-.977.365-.363,0-.729-.128-1.021-.388l-1.348-1.115h-2.592V2.048c0-1.129.918-2.048,2.048-2.048h5.904c1.129,0,2.048.918,2.048,2.048Zm-2,0l-5.952-.048-.038,4h1.303l1.64,1.358,1.639-1.358h1.408v-3.952Zm0,15.952h2v3c0,1.654-1.346,3-3,3H3c-1.654,0-3-1.346-3-3v-3h2V6h10v2H4v10h4.914l1,1h4.172l1-1h4.914v-6.711c.458-.14.88-.359,1.213-.658l.787-.651v8.02Zm0,2h-6.086l-1,1h-5.828l-1-1H2v1c0,.551.449,1,1,1h18c.551,0,1-.449,1-1v-1Z"/>
</svg>
