<?xml version="1.0" encoding="UTF-8"?>
<svg xmlns="http://www.w3.org/2000/svg" id="Layer_1" data-name="Layer 1" viewBox="0 0 24 24">
  <path d="m12,10c.351,0,.68-.026,1-.061v7.936c-.313.072-.637.126-1,.126s-.687-.054-1-.126v-7.936c.32.035.649.061,1,.061ZM0,18h3v-2H0v2ZM21,4v2h3v-2h-3ZM6,0h-2v9.066c.735.089,1.393.274,2,.5V0Zm14,0h-2v9.566c.607-.226,1.265-.411,2-.5V0Zm-4,8.063v-2.398c-1.26.721-2.364,1.335-4,1.335s-2.74-.614-4-1.335v2.398c1.096.521,2.366.937,4,.937s2.904-.416,4-.937Zm-3-2.189V0h-2v5.874c.313.072.637.126,1,.126s.687-.054,1-.126Zm-10-1.874H0v2h3v-2Zm18,14h3v-2h-3v2Zm-3-3.872v9.872h2v-10.835c-.602.181-1.188.5-1.939.93-.019.011-.042.023-.061.034Zm-1.926-2.505c-.537.308-1.045.594-1.574.828v2.194c1.193-.35,2.166-.905,3.064-1.419,1.197-.686,2.144-1.227,3.436-1.227h3v-2h-3c-2.09,0-3.597.862-4.926,1.623Zm-12.074,1.542v10.835h2v-9.872c-.019-.011-.042-.022-.061-.033-.752-.43-1.338-.749-1.939-.93Zm5.5-.714c-.529-.234-1.037-.52-1.574-.828-1.329-.761-2.836-1.623-4.926-1.623H0v2h3c1.292,0,2.239.541,3.436,1.227.898.514,1.871,1.069,3.064,1.419v-2.194Zm1.5,9.488v2.061h2v-2.061c-.32.035-.649.061-1,.061s-.68-.026-1-.061Zm-3-4.274v2.398c1.096.521,2.366.937,4,.937s2.904-.416,4-.937v-2.398c-1.26.721-2.364,1.335-4,1.335s-2.74-.614-4-1.335Z"/>
</svg>
