<?xml version="1.0" encoding="UTF-8"?>
<svg xmlns="http://www.w3.org/2000/svg" id="Layer_1" data-name="Layer 1" viewBox="0 0 24 24">
  <path d="m17,18h7v2h-7c-2.191,0-3.009,1.11-3.316,2h10.316v2H0v-2h10.316c-.307-.89-1.126-2-3.316-2H0v-2h7c2.85,0,4.321,1.404,5,2.858.679-1.454,2.15-2.858,5-2.858Zm-1.697-13h.404l.519-1.778,1.773-.525v-.404l-1.774-.518-.518-1.774h-.404l-.525,1.773-1.778.519v.404l1.777.526.526,1.777Zm-7,3h.404l.519-1.778,1.773-.525v-.404l-1.774-.518-.518-1.774h-.404l-.525,1.773-1.778.519v.404l1.777.526.526,1.777Zm1.697,3.697l1.777.526.526,1.777h.404l.519-1.778,1.773-.525v-.404l-1.774-.518-.518-1.774h-.404l-.525,1.773-1.778.519v.404Zm7,4.303h2v-2c0-1.427.508-1.887,1.277-2.583.542-.491,1.157-1.048,1.618-1.969.746-1.492.454-2.746.219-3.754-.131-.562-.244-1.047-.143-1.45.192-.77.572-1.258.974-1.774.495-.636,1.056-1.357,1.056-2.469h-2c0,.407-.206.69-.634,1.24-.464.596-1.041,1.337-1.336,2.517-.218.872-.03,1.678.136,2.389.203.872.363,1.56-.06,2.406-.292.585-.7.954-1.171,1.381-.862.781-1.934,1.752-1.934,4.066v2ZM2.03,4.243c.101.403-.012.888-.143,1.45-.235,1.008-.527,2.263.219,3.754.46.921,1.075,1.478,1.618,1.969.769.696,1.277,1.157,1.277,2.583v2h2v-2c0-2.314-1.072-3.285-1.934-4.066-.472-.427-.879-.796-1.171-1.381-.423-.846-.263-1.535-.06-2.406.166-.711.354-1.518.136-2.389-.295-1.18-.872-1.921-1.336-2.517-.428-.55-.634-.833-.634-1.24H0c0,1.112.561,1.833,1.056,2.469.402.516.781,1.004.974,1.774Z"/>
</svg>
