<?xml version="1.0" encoding="UTF-8"?>
<svg xmlns="http://www.w3.org/2000/svg" id="Layer_1" data-name="Layer 1" viewBox="0 0 24 24" width="512" height="512"><path d="M12,2C5.271,2,0,4.855,0,8.5v7c0,3.645,5.271,6.5,12,6.5s12-2.855,12-6.5v-7c0-3.645-5.271-6.5-12-6.5Zm0,2c5.893,0,10,2.372,10,4.5s-4.107,4.5-10,4.5S2,10.628,2,8.5,6.107,4,12,4ZM7,14.423v4.941c-.739-.203-1.406-.449-2-.723v-4.836c.624,.239,1.292,.446,2,.618Zm2,.372c.647,.087,1.313,.149,2,.179v5.001c-.697-.033-1.365-.099-2-.194v-4.986Zm4,.179c.687-.029,1.353-.091,2-.179v4.986c-.635,.095-1.303,.161-2,.194v-5.001Zm4-.55c.708-.172,1.376-.379,2-.618v4.836c-.594,.274-1.261,.52-2,.723v-4.941Zm-15,1.077v-3.362c.301,.246,.641,.475,1,.694v4.526c-.641-.597-1-1.238-1-1.859Zm19,1.859v-4.526c.359-.22,.699-.449,1-.694v3.362c0,.621-.359,1.261-1,1.859Z"/></svg>
