<?xml version="1.0" encoding="UTF-8"?>
<svg xmlns="http://www.w3.org/2000/svg" id="Layer_1" data-name="Layer 1" viewBox="0 0 24 24">
  <path d="m23.98,0h-9.09l-2.883,5.826L9.133,0H.031l4.751,9.63c-1.119,1.5-1.782,3.359-1.782,5.37,0,4.962,4.038,9,9,9s9-4.038,9-9c0-2.012-.664-3.871-1.783-5.371L23.98,0Zm-7.848,2h4.627l-3.01,6.082c-1.06-.883-2.325-1.527-3.712-1.849l2.095-4.233Zm-8.243,0l2.086,4.23c-1.393.321-2.663.967-3.727,1.853L3.248,2h4.642Zm4.11,20c-3.86,0-7-3.14-7-7s3.14-7,7-7,7,3.14,7,7-3.14,7-7,7Zm1.418-8.5h3.582v.742l-2.744,1.63,1.154,3.135-.635.443-2.762-2.136-2.773,2.145-.611-.46,1.074-3.175-2.702-1.578v-.747h3.602l.997-3.528h.822l.996,3.528Z"/>
</svg>
