<?xml version="1.0" encoding="UTF-8"?>
<svg xmlns="http://www.w3.org/2000/svg" id="Layer_1" data-name="Layer 1" viewBox="0 0 24 24">
  <path d="m11.516,10.226L22.631.014l1.354,1.473-11.115,10.212-1.354-1.473Zm12.484-.726v8c0,3.584-5.383,6.5-12,6.5S0,21.084,0,17.5v-8C0,5.855,5.271,3,12,3c1.42,0,2.775.128,4.03.363l-1.899,1.744c-.679-.07-1.391-.107-2.131-.107-5.894,0-10,2.371-10,4.5s4.106,4.5,10,4.5,10-2.371,10-4.5c0-.74-.496-1.509-1.391-2.197l1.485-1.364c1.209,1.017,1.906,2.237,1.906,3.561Zm-13,6.478c-1.424-.061-2.77-.251-4-.549v5.914c1.186.333,2.537.56,4,.631v-5.997Zm2,5.997c1.463-.072,2.814-.298,4-.631v-5.914c-1.23.298-2.576.488-4,.549v5.997Zm-8-1.36v-5.803c-1.181-.453-2.198-1.019-3-1.673v4.361c0,1.091,1.128,2.248,3,3.115Zm17-3.115v-4.361c-.802.654-1.819,1.22-3,1.673v5.803c1.872-.868,3-2.025,3-3.115Z"/>
</svg>
