<?xml version="1.0" encoding="UTF-8"?>
<svg xmlns="http://www.w3.org/2000/svg" id="Layer_1" data-name="Layer 1" viewBox="0 0 24 24">
  <path d="m9,13v-2c0-.552-.449-1-1-1H3c-.551,0-1,.448-1,1v2H0v-2c0-1.654,1.346-3,3-3h5c1.654,0,3,1.346,3,3v2h-2ZM2,3.5c0-1.93,1.57-3.5,3.5-3.5s3.5,1.57,3.5,3.5-1.57,3.5-3.5,3.5-3.5-1.57-3.5-3.5Zm2,0c0,.827.673,1.5,1.5,1.5s1.5-.673,1.5-1.5-.673-1.5-1.5-1.5-1.5.673-1.5,1.5Zm17,14.5h-7c-1.654,0-3,1.346-3,3v3h2v-3c0-.552.448-1,1-1h7c.552,0,1,.448,1,1v3h2v-3c0-1.654-1.346-3-3-3Zm-8-5.5c0-2.481,2.019-4.5,4.5-4.5s4.5,2.019,4.5,4.5-2.019,4.5-4.5,4.5-4.5-2.019-4.5-4.5Zm2,0c0,1.379,1.121,2.5,2.5,2.5s2.5-1.121,2.5-2.5-1.121-2.5-2.5-2.5-2.5,1.121-2.5,2.5Zm-9.087,3.588l-1.414,1.414,1.508,1.498h-3.006c-.551,0-1-.448-1-1v-3H0v3c0,1.654,1.346,3,3,3h2.997l-1.498,1.498,1.414,1.414,2.507-2.507c.773-.774.773-2.036,0-2.812l-2.506-2.506Z"/>
</svg>
