<?xml version="1.0" encoding="UTF-8"?>
<svg xmlns="http://www.w3.org/2000/svg" id="Layer_1" data-name="Layer 1" viewBox="0 0 24 24">
  <path d="m23.457,11.414c-.162-.293-.348-.556-.544-.804-.017-.171-.034-.342-.06-.538-.05-.378.029-.758.229-1.098.545-.936,2.104-4.224-.786-7.32-3.049-2.842-6.336-1.281-7.27-.736-.341.198-.717.277-1.098.229-.198-.026-.37-.043-.541-.06-.252-.199-.526-.39-.867-.576-3.246-1.499-5.508.657-6.124,1.353-.189.215-.441.36-.709.411-.858.162-1.378.335-1.836.487l-.227.075c-.969.313-1.755.986-2.213,1.896-.321.637-.453,1.348-.381,2.058.043.425-.061.828-.298,1.159-.115.159-.219.33-.309.511-.533,1.055-.563,2.285-.085,3.372.083.191.063.396.032.531C-.253,15.041-.01,22.708,0,23.033l.031.936.936.03c.145.005,1.743.056,3.71.056,2.451,0,5.474-.079,6.96-.425.136-.03.338-.052.53.033,1.087.477,2.319.445,3.373-.085.182-.092.353-.195.507-.307.335-.239.73-.349,1.164-.302.706.071,1.42-.061,2.057-.381.909-.458,1.583-1.244,1.896-2.212l.075-.228c.152-.459.325-.979.487-1.838.051-.271.192-.516.411-.709.695-.615,2.847-2.877,1.32-6.188Zm-7.424-8.768c.812-.475,2.917-1.376,4.85.421,1.848,1.982.945,4.087.472,4.899-.418.716-.59,1.556-.483,2.366.118.894.117,1.424.117,1.985v.31c.004.633-.24,1.228-.688,1.675-.31.31-.699.523-1.127.617-1.036.23-1.907.796-2.518,1.634-.073.1-.154.194-.246.285-.538.539-1.289.803-2.056.734-.678-.069-1.359.1-1.976.476-1.4.853-4.503,1.556-7.016,2.002l6.051-6.051h5.586v-2h-3.586l3.954-3.954-1.414-1.414-3.954,3.954v-3.586h-2v5.586l-6.051,6.051c.446-2.512,1.149-5.614,2.003-7.016.375-.616.54-1.299.476-1.975-.074-.769.194-1.519.735-2.059.089-.09.184-.171.282-.242.84-.613,1.406-1.485,1.635-2.521.094-.427.308-.816.618-1.126.443-.443,1.032-.688,1.66-.688h.323c.567,0,1.092,0,1.985.117.81.106,1.648-.065,2.366-.482ZM2.21,9.357c.042-.084.09-.163.146-.24.527-.738.757-1.612.664-2.529-.034-.329.028-.659.177-.955.216-.429.586-.745,1.044-.894l.241-.079c.438-.146.852-.283,1.577-.421.474-.088.921-.296,1.313-.584-.101.238-.188.483-.244.738-.122.552-.42,1.015-.862,1.338-.182.133-.355.28-.517.442-.963.963-1.441,2.298-1.311,3.662.029.307-.088.574-.192.744-1.079,1.771-1.851,5.329-2.294,7.881.019-2.217.11-4.536.368-5.645.144-.619.092-1.237-.149-1.787-.238-.54-.223-1.147.041-1.671Zm17.13,10.161l-.079.242c-.147.456-.465.826-.894,1.043-.295.148-.629.208-.956.176-.916-.086-1.791.138-2.532.668-.074.054-.153.101-.239.145-.521.261-1.128.275-1.668.04-.55-.241-1.168-.295-1.788-.149-1.109.258-3.431.35-5.649.369,2.552-.443,6.114-1.215,7.887-2.295.17-.104.438-.22.743-.192,1.365.135,2.699-.347,3.661-1.311.163-.163.311-.336.444-.519.322-.44.784-.739,1.337-.861.256-.056.5-.143.739-.244-.289.392-.496.839-.584,1.312-.138.726-.275,1.139-.421,1.577Z"/>
</svg>
