<?xml version="1.0" encoding="UTF-8"?>
<svg xmlns="http://www.w3.org/2000/svg" id="Layer_1" data-name="Layer 1" viewBox="0 0 24 24" width="512" height="512"><path d="M23.12,11.88c-1.17-1.17-3.07-1.17-4.24,0l-7.88,7.88v4.24h4.24l7.88-7.88c.57-.57,.88-1.32,.88-2.12s-.31-1.55-.88-2.12Zm-1.41,2.83l-7.29,7.29h-1.41v-1.41l7.29-7.29c.39-.39,1.02-.39,1.41,0,.19,.19,.29,.44,.29,.71s-.1,.52-.29,.71Zm-9.78,1.29l-2,2H4V4h5.23l-3.23,3.09v8.91h5.93Zm4.07-4.07V6h-3.59l-2.41,2.41v5.59h-2V7.59l3.59-3.59h6.41v6.03c-.18,.14-.37,.27-.54,.44l-1.46,1.46ZM2,20h7v2H0V3C0,1.35,1.35,0,3,0H19c1.65,0,3,1.35,3,3v6.11c-.66-.13-1.34-.13-2,0V3c0-.55-.45-1-1-1H3c-.55,0-1,.45-1,1V20Z"/></svg>
