<?xml version="1.0" encoding="UTF-8"?>
<svg xmlns="http://www.w3.org/2000/svg" id="Layer_1" data-name="Layer 1" viewBox="0 0 24 24" width="512" height="512"><path d="M15.42,8s.06,0,.08,0c.83,0,1.5-.67,1.5-1.5s-.67-1.5-1.5-1.5-1.5,.67-1.5,1.5c0,.03,0,.06,0,.08l-.61,.61c-.42-.27-.89-.47-1.39-.58v-1.61h-2v1.61c-.5,.11-.97,.31-1.39,.58l-.61-.61s0-.06,0-.08c0-.83-.67-1.5-1.5-1.5s-1.5,.67-1.5,1.5,.67,1.5,1.5,1.5c.03,0,.06,0,.08,0l.61,.61c-.27,.42-.47,.89-.58,1.39h-1.61v2h1.61c.11,.5,.31,.97,.58,1.39l-.61,.61s-.06,0-.08,0c-.83,0-1.5,.67-1.5,1.5s.67,1.5,1.5,1.5,1.5-.67,1.5-1.5c0-.03,0-.06,0-.08l.61-.61c.42,.27,.89,.47,1.39,.58v1.61h2v-1.61c.5-.11,.97-.31,1.39-.58l.61,.61s0,.06,0,.08c0,.83,.67,1.5,1.5,1.5s1.5-.67,1.5-1.5-.67-1.5-1.5-1.5c-.03,0-.06,0-.08,0l-.61-.61c.27-.42,.47-.89,.58-1.39h1.61v-2h-1.61c-.11-.5-.31-.97-.58-1.39l.61-.61Zm-4.42,5.5c-1.38,0-2.5-1.12-2.5-2.5s1.12-2.5,2.5-2.5,2.5,1.12,2.5,2.5-1.12,2.5-2.5,2.5Zm12.28-2.36c-1.18-2.71-2.29-5.26-3.48-6.72C17.36,1.16,13.49-.45,9.45,.11,4.46,.79,.5,4.95,.05,9.98c-.26,2.93,.62,5.79,2.5,8.05,.29,.35,.46,.8,.46,1.26v4.71h13v-3h2.25c1.5,0,2.78-1.12,2.97-2.61l.45-3.39h2.33v-2.21l-.72-1.65Zm-3.36,1.86l-.68,5.13c-.07,.5-.49,.87-.99,.87h-4.25v3H5v-2.71c0-.93-.33-1.83-.92-2.54-1.53-1.84-2.26-4.18-2.04-6.59,.37-4.12,3.6-7.51,7.69-8.08,3.3-.46,6.48,.86,8.5,3.56,1.03,1.28,2.15,3.83,3.22,6.29l.46,1.06h-1.99Z"/></svg>
