<?xml version="1.0" encoding="UTF-8"?>
<svg xmlns="http://www.w3.org/2000/svg" id="Layer_1" data-name="Layer 1" viewBox="0 0 24 24">
  <path d="m22.736,9.473c-1.342-1.371-4.464-2.078-7.639-2.345.257-.487.402-1.041.402-1.628,0-1.201-.608-2.263-1.533-2.893.449-.343,1.098-.607,2.033-.607V0c-1.953,0-3.225.81-4,1.752-.775-.943-2.047-1.752-4-1.752v2c.932,0,1.581.264,2.03.609-.923.631-1.53,1.692-1.53,2.891,0,.587.146,1.141.402,1.628-3.175.266-6.296.974-7.639,2.345-1.68,1.717-1.68,4.51,0,6.226.821.839,1.914,1.301,3.077,1.301,1.126,0,2.185-.432,2.996-1.219.979,3.874,3.765,7.128,3.907,7.292l.756.873.756-.873c.142-.164,2.928-3.419,3.907-7.292.811.787,1.87,1.219,2.996,1.219,1.163,0,2.256-.462,3.077-1.301,1.68-1.716,1.68-4.509,0-6.227Zm-11.261-5.378l.539-.093.471.078c.59.202,1.015.762,1.015,1.419,0,.827-.673,1.5-1.5,1.5s-1.5-.673-1.5-1.5c0-.643.406-1.192.975-1.405Zm.079,6.228c.151-.211.3-.418.445-.62.145.202.294.409.445.62.633.882,1.303,1.816,1.944,2.677h-4.778c.641-.861,1.311-1.794,1.944-2.677Zm-5.565,3.978c-.883.898-2.413.9-3.296,0-.925-.945-.925-2.483,0-3.429.762-.779,3.32-1.609,7.312-1.821-1.339,1.865-3.08,4.292-4.017,5.25Zm6.011,6.483c-.335-.466-.746-1.077-1.154-1.784h2.309c-.409.708-.819,1.318-1.154,1.784Zm2.15-3.784h-4.301c-.266-.641-.492-1.314-.644-2h5.589c-.152.686-.378,1.359-.644,2Zm7.156-2.699c-.883.901-2.413.899-3.296,0-.937-.957-2.678-3.384-4.017-5.25,3.992.212,6.551,1.042,7.312,1.82.925.946.925,2.484,0,3.429Z"/>
</svg>
