<?xml version="1.0" encoding="UTF-8"?>
<svg xmlns="http://www.w3.org/2000/svg" id="Layer_1" data-name="Layer 1" viewBox="0 0 24 24">
  <path d="m16,22h-6c-3.164,0-5.842-2.112-6.705-4.999,1.43,1.249,3.427,1.999,5.705,1.999v-2c-3.477,0-6-2.103-6-5v-.709c.398.124.812.209,1.25.209,1.303,0,2.47-.589,3.25-1.514.78.925,1.947,1.514,3.25,1.514.086,0,.166-.02.25-.025v.025c.495,0,2,0,2,4.5h2c0-2.65-.513-4.489-1.52-5.52.922-.78,1.52-1.931,1.52-3.23v-.833c0-1.289-.386-2.489-1.043-3.495.603-.194,1.043-.754,1.043-1.421C15,.672,14.328,0,13.5,0,12.832,0,12.273.44,12.079,1.043c-1.007-.657-2.206-1.043-3.496-1.043h-2.166c-1.289,0-2.489.386-3.495,1.043C2.727.44,2.168,0,1.5,0,.672,0,0,.672,0,1.5c0,.668.44,1.227,1.043,1.421C.386,3.928,0,5.128,0,6.417v.833C0,8.283.385,9.218,1,9.956v5.044c0,4.962,4.037,9,9,9h6c1.103,0,2-.897,2-2,0-1.925,0-3.197.832-4.445l-1.664-1.109c-1.168,1.752-1.168,3.514-1.168,5.555ZM6.417,2h2.166c1.937,0,3.569,1.262,4.163,3h-1.246c-.552,0-1,.448-1,1s.448,1,1,1h1.5v.25c0,1.241-1.01,2.25-2.25,2.25-1.051,0-1.929-.728-2.175-1.704.251-.182.425-.463.425-.796,0-.552-.448-1-1-1h-1c-.552,0-1,.448-1,1,0,.333.174.615.425.796-.246.976-1.124,1.704-2.175,1.704-1.24,0-2.25-1.009-2.25-2.25v-.25h1.5c.552,0,1-.448,1-1s-.448-1-1-1h-1.246c.594-1.739,2.226-3,4.163-3Zm17.583,13c0,3.135-1.614,5.898-4.052,7.51.022-.169.052-.335.052-.51,0-.997.008-1.676.089-2.208,1.181-1.254,1.911-2.938,1.911-4.792h0s0,0,0,0v-1.5c0-.33-.007-.646-.018-.955-1.09.933-2.563,1.455-3.981,1.455,0,0,0,0,0,0h-1.115c-.083-.747-.212-1.412-.38-2h1.495c1.686,0,3.465-1.101,3.632-2.756-.525-2.831-1.428-4.138-1.44-4.156l1.612-1.183c.066.089,1.208,1.685,1.818,5.095h.042c0,.059-.008.114-.01.171.207,1.216.346,2.651.346,4.329v1.5s0,0,0,0Z"/>
</svg>
