<?xml version="1.0" encoding="UTF-8"?>
<svg xmlns="http://www.w3.org/2000/svg" id="Layer_1" data-name="Layer 1" viewBox="0 0 24 24">
  <path d="m17,10c0-2.757-2.243-5-5-5s-5,2.243-5,5,2.243,5,5,5,5-2.243,5-5Zm-8,0c0-1.654,1.346-3,3-3s3,1.346,3,3-1.346,3-3,3-3-1.346-3-3Zm7.709,8.82c3.146-1.687,5.291-5.007,5.291-8.82C22,4.486,17.514,0,12,0S2,4.486,2,10c0,3.812,2.145,7.133,5.291,8.82-1.153,1.046-1.931,2.451-2.193,4.015l-.196,1.166h14.197l-.196-1.166c-.263-1.564-1.041-2.969-2.193-4.015ZM4,10c0-4.411,3.589-8,8-8s8,3.589,8,8-3.589,8-8,8-8-3.589-8-8Zm3.415,12c.419-.963,1.137-1.777,2.068-2.321.804.209,1.648.321,2.517.321s1.712-.112,2.517-.321c.931.544,1.649,1.358,2.068,2.321H7.415Z"/>
</svg>
