<?xml version="1.0" encoding="UTF-8"?>
<svg xmlns="http://www.w3.org/2000/svg" id="Layer_1" data-name="Layer 1" viewBox="0 0 24 24">
  <path d="m9.423,4.577l-1.414-1.414,2.577-2.577c.779-.78,2.049-.78,2.828,0l2.597,2.596-1.414,1.414-1.597-1.596v5h-2V3l-1.577,1.577Zm-4.009,1.009c-.779-.78-2.049-.78-2.828,0L.009,8.163l1.414,1.414,1.577-1.577v16h2V8l1.597,1.596,1.414-1.414-2.597-2.596Zm16,3c-.779-.78-2.049-.78-2.828,0l-2.577,2.577,1.414,1.414,1.577-1.577v13h2v-13l1.597,1.596,1.414-1.414-2.597-2.596Zm-10.414,5.414h2c.552,0,1,.449,1,1h2c0-1.654-1.346-3-3-3v-2h-2v2c-1.654,0-3,1.346-3,3,0,1.36.974,2.51,2.315,2.733l3.041.507c.373.062.644.382.644.76,0,.551-.448,1-1,1h-2c-.552,0-1-.449-1-1h-2c0,1.654,1.346,3,3,3v2h2v-2c1.654,0,3-1.346,3-3,0-1.36-.974-2.51-2.315-2.733l-3.041-.507c-.373-.062-.644-.382-.644-.76,0-.551.448-1,1-1Z"/>
</svg>
