<?xml version="1.0" encoding="UTF-8"?>
<svg xmlns="http://www.w3.org/2000/svg" id="Layer_1" data-name="Layer 1" viewBox="0 0 24 24">
  <path d="m22,3.5c-.126,0-.249.015-.369.037-.793-2.065-2.791-3.537-5.131-3.537s-4.339,1.472-5.131,3.537c-.12-.022-.242-.037-.369-.037-1.105,0-2,.895-2,2s.895,2,2,2c.126,0,.249-.015.368-.037.273.712.687,1.355,1.213,1.889-5.969,1.487-8.107,7.479-8.502,11.687-1.254-.909-2.079-2.376-2.079-4.039V6c0-2.467,1.533-4,4-4V0C2.411,0,0,2.411,0,6v11c0,3.86,3.14,7,7,7h15v-2h-2v-12.261c.725-.6,1.289-1.384,1.632-2.276.12.022.242.037.368.037,1.105,0,2-.895,2-2s-.895-2-2-2Zm-4,18.5h-3v-4.5c0-.827.673-1.5,1.5-1.5s1.5.673,1.5,1.5v4.5Zm0-7.649c-.456-.219-.961-.351-1.5-.351-1.93,0-3.5,1.57-3.5,3.5v4.5h-6c-.335,0-.661-.036-.977-.099.147-2.383,1.247-10.901,9.477-10.901h2.5v3.351Zm-1.5-5.351c-1.933,0-3.5-1.567-3.5-3.5s1.567-3.5,3.5-3.5,3.5,1.567,3.5,3.5-1.567,3.5-3.5,3.5Z"/>
</svg>
