<?xml version="1.0" encoding="UTF-8"?>
<svg xmlns="http://www.w3.org/2000/svg" id="Layer_1" data-name="Layer 1" viewBox="0 0 24 24">
  <path d="m22.778,9.852l-2.778-2.734V3c0-1.654-1.346-3-3-3H7c-1.654,0-3,1.346-3,3v4.074l-2.767,2.769C.451,10.594.002,11.647.002,12.731l-.002,11.269h24v-11.269c0-1.086-.448-2.139-1.222-2.879ZM6,3c0-.551.448-1,1-1h10c.552,0,1,.449,1,1v9.273l-3.849,3.848c-1.131,1.131-3.112,1.129-4.243,0l-3.908-3.909V3Zm16,19H2l.002-9.269c0-.449.162-.883.446-1.243l6.047,6.048c.943.942,2.199,1.46,3.536,1.46s2.592-.519,3.535-1.461l6.017-6.017c.264.346.418.771.418,1.213v9.269ZM9.5,7c-.828,0-1.5-.672-1.5-1.5s.672-1.5,1.5-1.5,1.5.672,1.5,1.5-.672,1.5-1.5,1.5Zm3.5-1.5c0-.828.672-1.5,1.5-1.5s1.5.672,1.5,1.5-.672,1.5-1.5,1.5-1.5-.672-1.5-1.5Zm-1,9.5c-1.657,0-3-1.343-3-3s1.343-3,3-3,3,1.343,3,3-1.343,3-3,3Z"/>
</svg>
