<?xml version="1.0" encoding="UTF-8"?>
<svg xmlns="http://www.w3.org/2000/svg" id="Layer_1" data-name="Layer 1" viewBox="0 0 24 24">
  <path d="m12,12h4.242l6.879-6.879c1.17-1.17,1.17-3.072,0-4.242s-3.072-1.17-4.242,0l-6.879,6.879v4.242Zm2-3.414l6.293-6.293c.391-.391,1.023-.391,1.414,0s.39,1.024,0,1.414l-6.293,6.293h-1.414v-1.414Zm6,8.414v-5.93l-2,2v3.93h-8v3.5c0,.827-.673,1.5-1.5,1.5s-1.5-.673-1.5-1.5V3.5c0-.539-.133-1.044-.351-1.5h8.281L16.89.039c-.13-.015-.257-.039-.39-.039H3.5C1.57,0,0,1.57,0,3.5v3.5h5v13.5c0,1.93,1.57,3.5,3.5,3.5h12c1.93,0,3.5-1.57,3.5-3.5v-3.5h-4ZM5,5h-3v-1.5c0-.827.673-1.5,1.5-1.5s1.5.673,1.5,1.5v1.5Zm17,15.5c0,.827-.673,1.5-1.5,1.5h-8.838c.217-.455.338-.964.338-1.5v-1.5h10v1.5Z"/>
</svg>
