<?xml version="1.0" encoding="UTF-8"?>
<svg xmlns="http://www.w3.org/2000/svg" id="Layer_1" data-name="Layer 1" viewBox="0 0 24 24">
  <path d="m20.5,10h-.042l-5.272-5.582c-.409.538-.95.969-1.575,1.244l4.097,4.338H6.292l4.097-4.338c-.625-.276-1.167-.707-1.575-1.244l-5.272,5.582h-.042c-1.93,0-3.5,1.57-3.5,3.5v10.5h24v-10.5c0-1.93-1.57-3.5-3.5-3.5Zm-14.512,7.509c-.018.012-.018.012-.042.029l1.054,3.462h-1.744l-.872-3h-.784v3h-1.6v-8h2.5c1.381,0,2.5,1.119,2.5,2.5,0,.846-.423,1.592-1.067,2.044.024-.014.036-.023.055-.035Zm5.012-2.909h-1.4v1.6h1.4v1.6h-1.4v1.6h1.4v1.6h-3v-8h3v1.6Zm6,6.4h-1.6l-1.8-4.054v4.054h-1.6v-8h1.6v.009l1.8,4.054v-4.063h1.6v8Zm5-6.4h-1.2v6.4h-1.6v-6.4h-1.2v-1.6h4v1.6Zm-16.6.9c0,.496-.404.9-.9.9h-.9v-1.8h.9c.496,0,.9.404.9.9ZM10,2c0-1.105.895-2,2-2s2,.895,2,2-.895,2-2,2-2-.895-2-2Z"/>
</svg>
