<?xml version="1.0" encoding="UTF-8"?>
<svg xmlns="http://www.w3.org/2000/svg" id="Layer_1" data-name="Layer 1" viewBox="0 0 24 24">
  <path d="m17,10c-3.859,0-7,3.141-7,7s3.141,7,7,7,7-3.141,7-7-3.141-7-7-7Zm0,12c-2.757,0-5-2.243-5-5s2.243-5,5-5,5,2.243,5,5-2.243,5-5,5Zm-1-9h2v5h-2v-5Zm0,6h2v2h-2v-2Zm6.576-13.01l1.414,1.414-2.063,2.063c-.585-.384-1.218-.701-1.887-.941l2.537-2.537ZM7.5,22c-.507,0-1.725-.549-2.886-1.2l1.23-1.23c.586-.378,1.144-.57,1.656-.57.17,0,.444.089.781.24-.184-.716-.281-1.467-.281-2.24,0-1.032.174-2.023.494-2.946-.021.034-1.294,1.332-1.294,1.332-.651-1.162-1.2-2.379-1.2-2.886,0-.474.685-1.741,1.5-2.971.815,1.229,1.5,2.497,1.5,2.971,0,.156-.018.315-.053.479.458-.916,1.069-1.744,1.798-2.449-.432-.861-.744-1.648-.744-2.03,0-.474.685-1.741,1.5-2.971.815,1.229,1.5,2.497,1.5,2.971,0,.15-.017.304-.05.461,1.217-.614,2.593-.961,4.05-.961.136,0,.27.004.405.009l6.552-6.552L22.543.043l-7.67,7.67c-.192-.678-.584-1.453-1.01-2.181l4.127-4.127L16.576-.01l-3.826,3.826c-.18-.254-.341-.474-.452-.622l-.799-1.063-.799,1.063c-.484.642-1.802,2.468-2.4,4.004,0-.001-.002-.002-.003-.004l-.799-1.063-.799,1.063c-.484.643-1.8,2.471-2.396,4.008-.002-.002-.004-.006-.006-.008l-.799-1.063-.799,1.063c-.634.842-2.701,3.715-2.701,5.306,0,1.24,1.083,3.249,1.736,4.35L.043,22.543l1.414,1.414,1.692-1.692c1.104.654,3.116,1.735,4.351,1.735.754,0,1.796-.465,2.774-1.021-.446-.501-.836-1.052-1.162-1.644-.711.398-1.316.665-1.612.665Zm-5.5-5.5c0-.474.685-1.741,1.5-2.971.815,1.229,1.5,2.497,1.5,2.971,0,.515-.199,1.077-.581,1.667l-1.219,1.219c-.651-1.162-1.2-2.379-1.2-2.886Z"/>
</svg>
