<?xml version="1.0" encoding="UTF-8"?>
<svg xmlns="http://www.w3.org/2000/svg" id="Layer_1" data-name="Layer 1" viewBox="0 0 24 24">
  <path d="m22,17V5h-3v2h1v10h-4.914l-1,1h-4.172l-1-1h-4.914V7h1v-2h-3v12H0v3c0,1.654,1.346,3,3,3h18c1.654,0,3-1.346,3-3v-3h-2Zm0,3c0,.552-.449,1-1,1H3c-.551,0-1-.448-1-1v-1h6.086l1,1h5.828l1-1h6.086v1ZM7.304,9.866l1.41-.814c.604.65,1.392,1.122,2.286,1.327v1.621h2v-1.621c.895-.204,1.682-.677,2.286-1.327l1.41.814,1-1.732-1.416-.817c.129-.419.219-.855.219-1.317s-.09-.897-.219-1.317l1.416-.817-1-1.732-1.41.814c-.604-.65-1.392-1.122-2.286-1.327V0h-2v1.621c-.895.204-1.682.677-2.286,1.327l-1.41-.814-1,1.732,1.416.817c-.129.419-.219.855-.219,1.317s.09.897.219,1.317l-1.416.817,1,1.732Zm4.696-6.366c1.378,0,2.5,1.121,2.5,2.5s-1.122,2.5-2.5,2.5-2.5-1.121-2.5-2.5,1.122-2.5,2.5-2.5Z"/>
</svg>
