<?xml version="1.0" encoding="UTF-8"?>
<svg xmlns="http://www.w3.org/2000/svg" id="Layer_1" data-name="Layer 1" viewBox="0 0 24 24">
  <path d="m21,15h-1v-4.5c0-1.379-1.121-2.5-2.5-2.5h-1V3.5c0-1.379-1.121-2.5-2.5-2.5h-4c-1.379,0-2.5,1.121-2.5,2.5v4.5h-1c-1.379,0-2.5,1.121-2.5,2.5v4.5h-1c-1.379,0-2.5,1.121-2.5,2.5v6.5h23v-6.5c0-1.379-1.121-2.5-2.5-2.5Zm-3.5-5c.275,0,.5.225.5.5v4.5h-5v-4.5c0-.275.225-.5.5-.5h4ZM9.5,3.5c0-.275.225-.5.5-.5h4c.275,0,.5.225.5.5v4.5h-5V3.5Zm-3.5,7c0-.275.225-.5.5-.5h4c.275,0,.5.225.5.5v4.5h-5v-4.5Zm1.5,11.5H2.5v-4.5c0-.275.225-.5.5-.5h4c.275,0,.5.225.5.5v4.5Zm7,0h-5v-4.5c0-.275.225-.5.5-.5h4c.275,0,.5.225.5.5v4.5Zm7,0h-5v-4.5c0-.275.225-.5.5-.5h4c.275,0,.5.225.5.5v4.5Z"/>
</svg>
