<?xml version="1.0" encoding="UTF-8"?>
<svg xmlns="http://www.w3.org/2000/svg" id="Layer_1" data-name="Layer 1" viewBox="0 0 24 24">
  <path d="m18,0c-2.573,0-4.797,1.622-5.637,4H0v1c0,1.32.561,2.587,1.538,3.477l7.462,6.784v6.739h-4v2h10v-2h-4v-6.739l4.299-3.908c.832.422,1.748.647,2.701.647,3.309,0,6-2.691,6-6S21.309,0,18,0ZM2.192,6h15.615c-.15.377-.385.719-.69.998l-7.117,6.469L2.884,6.998c-.306-.278-.54-.621-.691-.998Zm15.808,4c-.36,0-.709-.058-1.048-.15l1.51-1.373c.977-.889,1.537-2.156,1.537-3.477v-1h-5.454c.699-1.212,1.991-2,3.454-2,2.206,0,4,1.794,4,4s-1.794,4-4,4Z"/>
</svg>
