<?xml version="1.0" encoding="UTF-8"?>
<svg xmlns="http://www.w3.org/2000/svg" id="Layer_1" data-name="Layer 1" viewBox="0 0 24 24">
  <path d="m11,10.5v3c0,1.381,1.119,2.5,2.5,2.5s2.5-1.119,2.5-2.5v-3c0-1.381-1.119-2.5-2.5-2.5s-2.5,1.119-2.5,2.5Zm3.4,0v3c0,.496-.404.9-.9.9s-.9-.404-.9-.9v-3c0-.496.404-.9.9-.9s.9.404.9.9Zm9.6,4.231c0,.69-.56,1.25-1.25,1.25s-1.25-.56-1.25-1.25.56-1.25,1.25-1.25,1.25.56,1.25,1.25Zm-5.75-4.25c-.69,0-1.25-.56-1.25-1.25s.56-1.25,1.25-1.25,1.25.56,1.25,1.25-.56,1.25-1.25,1.25Zm-1.383,5.5l5.222-8h1.911l-5.222,8h-1.911Zm3.1,2.038h2.398c-2.082,3.57-5.943,5.981-10.365,5.981,0,0,0,0-.001,0-6.616,0-11.999-5.383-11.999-12S5.383,0,12,0h0c4.438,0,8.312,2.428,10.388,6.019h-2.393c-1.826-2.434-4.725-4.019-7.995-4.019,0,0,0,0,0,0-5.514,0-9.999,4.487-9.999,10s4.486,10,10,10h0c3.253,0,6.139-1.568,7.967-3.981Zm-12.467-3.619h-2v1.6h2c1.381,0,2.5-1.119,2.5-2.5v-3c0-1.381-1.119-2.5-2.5-2.5s-2.5,1.119-2.5,2.5,1.119,2.5,2.5,2.5c.318,0,.62-.065.9-.174v.674c0,.496-.404.9-.9.9Zm0-3c-.496,0-.9-.404-.9-.9s.404-.9.9-.9.9.404.9.9-.404.9-.9.9Z"/>
</svg>
