<?xml version="1.0" encoding="UTF-8"?>
<svg xmlns="http://www.w3.org/2000/svg" id="Layer_1" data-name="Layer 1" viewBox="0 0 24 24" width="512" height="512"><path d="m13.747,7h1.253v6h-1.253v-3.892l-1.747,1.892-1.748-1.894-.002,3.894h-1.25v-6h1.253l1.747,2,1.747-2Zm-8.317,1.298c.657-.196,1.265.279,1.29.299l.476.399.805-.957-.479-.402c-.045-.038-1.135-.934-2.452-.537-.671.202-1.146.731-1.239,1.38-.087.61.178,1.197.777,1.579,0,0,.678.303,1.43.58.159.059.672.276.61.621-.046.256-.361.521-.81.521-.468,0-.918-.188-1.204-.504l-.42-.463-.926.84.42.462c.527.581,1.304.914,2.13.914,1.021,0,1.88-.653,2.04-1.552.121-.678-.186-1.562-1.408-2.014-.658-.243-1.257-.506-1.272-.506-.143-.097-.138-.243-.13-.302.012-.079.069-.273.362-.361Zm12.712-.034c.657-.196,1.265.279,1.29.299l.476.399.805-.957-.479-.402c-.045-.038-1.135-.934-2.452-.537-.671.202-1.146.731-1.239,1.38-.087.61.178,1.197.777,1.579,0,0,.678.303,1.43.58.159.059.672.276.61.621-.046.256-.361.521-.81.521-.468,0-.918-.188-1.204-.504l-.42-.463-.926.84.42.462c.527.581,1.304.914,2.13.914,1.021,0,1.88-.653,2.04-1.552.121-.678-.186-1.562-1.408-2.014-.658-.243-1.257-.506-1.272-.506-.143-.097-.138-.243-.13-.302.012-.079.069-.273.362-.361Zm5.858-5.265v17h-6.852l-3.847,3.18c-.362.322-.825.485-1.292.485-.476,0-.956-.169-1.338-.509l-3.748-3.156H0V3C0,1.346,1.346,0,3,0h18c1.654,0,3,1.346,3,3Zm-2,0c0-.552-.449-1-1-1H3c-.551,0-1,.448-1,1v15h5.654l4.326,3.645,4.449-3.645h5.571V3Z"/></svg>
