<?xml version="1.0" encoding="UTF-8"?>
<svg xmlns="http://www.w3.org/2000/svg" id="Layer_1" data-name="Layer 1" viewBox="0 0 24 24" width="512" height="512"><path d="M3,11.874v9.126c0,.552,.448,1,1,1h6.078c.151,.744,.481,1.416,.922,2H4c-1.654,0-3-1.346-3-3V10.643c-.622-.705-1-1.631-1-2.643L2.246,0H21.754l2.246,8c0,.825-.251,1.592-.681,2.23-.348-.667-.818-1.258-1.38-1.748,.029-.115,.049-.233,.057-.355l-1.75-6.126h-3.246v3h-2V2h-6v3h-2V2H3.754l-1.75,6.126c.065,1.045,.936,1.874,1.996,1.874h1c1.103,0,2-.897,2-2h2c0,1.103,.897,2,2,2h1.809c-.352,.608-.599,1.282-.719,2h-1.09c-1.194,0-2.267-.525-3-1.357-.733,.832-1.806,1.357-3,1.357h-1c-.345,0-.68-.044-1-.126Zm16,6.126h-2v2h2v-2Zm3-4h2v7c0,1.654-1.346,3-3,3h-6c-1.654,0-3-1.346-3-3v-7h2v-1c0-2.206,1.794-4,4-4s4,1.794,4,4v1Zm-6,0h4v-1c0-1.103-.897-2-2-2s-2,.897-2,2v1Zm6,2H14v5c0,.552,.448,1,1,1h6c.552,0,1-.448,1-1v-5Z"/></svg>
