<?xml version="1.0" encoding="UTF-8"?>
<svg xmlns="http://www.w3.org/2000/svg" id="Layer_1" data-name="Layer 1" viewBox="0 0 24 24" width="512" height="512"><path d="m23.952,8.462l-1.414-1.414-2.524,2.524-5.586-5.586,2.524-2.524L15.538.048l-3.076,3.076-8.283,3.074L.01,23.99l17.792-4.169,3.074-8.283,3.076-3.076Zm-7.652,9.657l-11.761,2.756,4.943-4.943c.165.044.339.068.518.068,1.105,0,2-.895,2-2s-.895-2-2-2-2,.895-2,2c0,.179.024.353.068.518l-4.943,4.943,2.756-11.761,6.879-2.553,6.093,6.093-2.553,6.879Z"/></svg>
