<?xml version="1.0" encoding="UTF-8"?>
<svg xmlns="http://www.w3.org/2000/svg" id="Layer_1" data-name="Layer 1" viewBox="0 0 24 24">
  <path d="m24,11v2h-2v2h-2v-2h-2v-2h2v-2h2v2h2Zm-7,6V7h-1.488l-2.516,2.777,1.482,1.342.521-.575v6.456h2Zm-5-7c0-1.657-1.343-3-3-3s-3,1.343-3,3v.5h2v-.5c0-.552.448-1,1-1s1,.448,1,1c0,2.5-4,3.49-4,5.75v1.25h6v-2h-3.411c.863-.789,3.411-2.428,3.411-5Zm0,12c-5.514,0-10-4.486-10-10S6.486,2,12,2c3.691,0,6.914,2.016,8.647,5h2.248C20.994,2.876,16.831,0,12,0,5.383,0,0,5.383,0,12s5.383,12,12,12c4.831,0,8.994-2.876,10.895-7h-2.248c-1.732,2.984-4.955,5-8.647,5Z"/>
</svg>
