<?xml version="1.0" encoding="UTF-8"?>
<svg xmlns="http://www.w3.org/2000/svg" id="Layer_1" data-name="Layer 1" viewBox="0 0 24 24">
  <path d="m23.451,18.674c.73.731.73,1.92,0,2.651l-2.659,2.659-1.414-1.414,1.57-1.57h-2.948v-2h2.948l-1.57-1.571,1.414-1.414,2.659,2.659ZM3.208,7.984l1.414-1.414-1.57-1.57h2.948v-2h-2.948l1.57-1.571L3.208.015.549,2.675c-.73.731-.73,1.92,0,2.65l2.659,2.659Zm3.792.516C7,3.813,10.813,0,15.5,0s8.5,3.813,8.5,8.5-3.813,8.5-8.5,8.5-8.5-3.813-8.5-8.5Zm2,0c0,3.584,2.916,6.5,6.5,6.5s6.5-2.916,6.5-6.5-2.916-6.5-6.5-6.5-6.5,2.916-6.5,6.5Zm5.7,4.3h-1.952V4.2h1.952v-1.2h1.6v1.205c1.385.024,2.506,1.154,2.506,2.545,0,.629-.229,1.206-.608,1.651.49.465.795,1.122.795,1.849,0,1.406-1.144,2.55-2.55,2.55h-.143v1.2h-1.6v-1.2Zm-.352-5.1h1.908c.524,0,.95-.426.95-.95s-.426-.95-.95-.95h-1.908v1.9Zm0,3.5h2.094c.524,0,.95-.426.95-.95s-.426-.95-.95-.95h-2.094v1.9Zm-.667,7.632c-1.076,1.889-3.105,3.168-5.431,3.168-3.446,0-6.25-2.804-6.25-6.25,0-2.325,1.279-4.354,3.168-5.431-.104-.592-.168-1.198-.168-1.819,0-.114.013-.225.017-.339C2.071,9.421,0,12.348,0,15.75,0,20.299,3.701,24,8.25,24c3.402,0,6.328-2.071,7.589-5.017-.113.004-.224.017-.339.017-.622,0-1.227-.064-1.819-.168Z"/>
</svg>
