<?xml version="1.0" encoding="UTF-8"?>
<svg xmlns="http://www.w3.org/2000/svg" id="Layer_1" data-name="Layer 1" viewBox="0 0 24 24" width="512" height="512"><path d="M24,12c0,5.885-4.262,10.784-9.859,11.798,.756-.674,1.301-1.569,1.598-2.53,3.666-1.484,6.261-5.076,6.261-9.268,0-5.514-4.486-10-10-10S2,6.486,2,12c0,3.27,1.584,6.169,4.018,7.994,.076,1.034,.445,2.076,1.064,2.94C2.913,21.051,0,16.863,0,12,0,5.383,5.383,0,12,0s12,5.383,12,12Zm-10.002,7.701c-.046,1.606-1.184,3.299-2.998,3.299-1.853,0-3-1.765-3-3.4v-1.593c-.301-.28-.568-.576-.798-.876,0-.001,3.155-.214,5.93-1.353,2.775-1.139,5.177-3.207,5.177-3.206,.297,2.343-.568,5.634-3.652,6.904-.221,.09-.441,.165-.659,.225Zm-1.998-.101v-1.322c-.703,.201-1.384,.357-2,.476v.846c0,.662,.411,1.4,1,1.4s1-.738,1-1.4Zm-3-7.6c0,1.105-.895,2-2,2s-2-.895-2-2,.895-2,2-2,2,.895,2,2Zm5.5,0c-1.93,0-3.5-1.57-3.5-3.5s1.57-3.5,3.5-3.5,3.5,1.57,3.5,3.5-1.57,3.5-3.5,3.5Zm0-5c-.827,0-1.5,.673-1.5,1.5s.673,1.5,1.5,1.5,1.5-.673,1.5-1.5-.673-1.5-1.5-1.5Z"/></svg>
