<?xml version="1.0" encoding="UTF-8"?>
<svg xmlns="http://www.w3.org/2000/svg" id="Layer_1" data-name="Layer 1" viewBox="0 0 24 24" width="512" height="512"><path d="M19,15v-6.01c0-.88-.39-1.71-1.06-2.29-.67-.57-1.56-.82-2.44-.67-1.22,.2-2.18,1.19-2.44,2.42l-2.68-2.68c-.55-.55-1.32-.84-2.09-.77-.78,.06-1.49,.47-1.95,1.11-.05,.07-.09,.14-.13,.21-.52-.41-1.18-.61-1.85-.55-.78,.06-1.49,.47-1.95,1.11-.41,.57-.55,1.28-.44,1.96-.52,.18-.99,.51-1.32,.98-.75,1.04-.6,2.54,.35,3.49l.29,.29c-.31,.19-.59,.44-.81,.74-.75,1.04-.6,2.54,.35,3.49l4.13,4.13c1.38,1.38,3.19,2.07,5.01,2.07s3.63-.69,5.01-2.07l1.98-1.98c1.32-1.32,2.05-3.08,2.05-4.95Zm-5.44,5.51c-1.98,1.98-5.2,1.98-7.18,0l-4.13-4.13c-.26-.26-.32-.65-.14-.9,.16-.22,.38-.27,.49-.28,.19,0,.38,.05,.52,.19l2.1,2.1,1.41-1.41L2.42,11.86c-.26-.26-.32-.65-.14-.9,.16-.22,.38-.27,.49-.28,.19-.02,.38,.05,.52,.19l4.28,4.28,1.41-1.41-4.8-4.8c-.26-.26-.32-.65-.14-.9,.16-.22,.38-.27,.49-.28,.19-.02,.38,.05,.52,.19l4.86,4.86,1.41-1.41-3.22-3.22h0c-.26-.26-.32-.65-.14-.9,.16-.22,.38-.27,.49-.28,.19-.02,.38,.05,.52,.19l6.02,6.02v-4.11c0-.54,.36-1.02,.82-1.09,.3-.05,.6,.03,.82,.22,.22,.19,.35,.47,.35,.76v6.01c0,1.32-.53,2.6-1.46,3.54l-1.98,1.98ZM11.42,4l-1.41-1.41L12.29,.29l1.41,1.41-2.29,2.29Zm-6.88-.04L2.29,1.71,3.71,.29l2.25,2.25-1.41,1.41Zm4.46-.96h-2V0h2V3Zm15,5.99v6.01c0,1.87-.73,3.63-2.05,4.95l-1.98,1.98c-1.19,1.19-2.71,1.87-4.27,2.03,.24-.19,2.66-2.6,2.66-2.6,.7-.7,1.27-1.49,1.7-2.35l.47-.47c.93-.93,1.46-2.22,1.46-3.54v-6.01c0-.29-.13-.57-.35-.76-.21-.18-.47-.26-.75-.23-.14-.67-.41-1.31-.8-1.87,.13-.04,.27-.08,.4-.1,.88-.14,1.77,.1,2.44,.67,.67,.57,1.06,1.4,1.06,2.29Z"/></svg>
