<?xml version="1.0" encoding="UTF-8"?>
<svg xmlns="http://www.w3.org/2000/svg" id="Layer_1" data-name="Layer 1" viewBox="0 0 24 24" width="512" height="512"><path d="M23.28,8.46l.72-.21v-3.25c0-1.65-1.35-3-3-3H3C1.35,2,0,3.35,0,5v3.24s.71,.22,.71,.22c.13,.04,1.29,.43,1.29,1.54s-1.15,1.5-1.28,1.54l-.72,.21v10.25H24V11.76s-.71-.22-.71-.22c-.13-.04-1.29-.43-1.29-1.54s1.15-1.5,1.28-1.54ZM2,18h3v2H2v-2Zm15,2h-2v-2h2v2Zm-4,0h-2v-2h2v2Zm-4,0h-2v-2h2v2Zm10,0v-2h3v2h-3Zm3-13.16c-.92,.5-2,1.51-2,3.16s1.08,2.66,2,3.16v2.84H2v-2.84c.92-.5,2-1.51,2-3.16s-1.08-2.66-2-3.16v-1.84c0-.55,.45-1,1-1H21c.55,0,1,.45,1,1v1.84Zm-11-.84h2V14h-2V6Zm-5,0h2V14h-2V6Zm10,0h2V14h-2V6Z"/></svg>
