<?xml version="1.0" encoding="UTF-8"?>
<svg xmlns="http://www.w3.org/2000/svg" id="Layer_1" data-name="Layer 1" viewBox="0 0 24 24" width="512" height="512"><path d="M17.994,2.286C16.086,.582,13.524-.23,10.956,.059,6.904,.517,3.59,3.782,3.075,7.822c-.374,2.931,.644,5.76,2.793,7.761,1.375,1.279,2.132,2.9,2.132,4.566v3.851h8v-3.685c0-1.816,.704-3.475,1.932-4.552,1.95-1.708,3.068-4.173,3.068-6.763,0-2.56-1.096-5.007-3.006-6.714Zm-3.994,19.714h-4l-.008-2h4.024l-.016,2Zm2.613-7.741c-1.105,.969-1.888,2.274-2.293,3.741h-4.641c-.421-1.43-1.248-2.765-2.448-3.881-1.671-1.556-2.463-3.759-2.171-6.043,.399-3.138,2.974-5.673,6.121-6.029,2.027-.229,3.974,.386,5.48,1.731,1.486,1.328,2.339,3.231,2.339,5.222,0,2.013-.87,3.93-2.387,5.259Zm-6.613-6.259c0,.378,.271,.698,.644,.76l3.041,.507c1.342,.223,2.315,1.373,2.315,2.733,0,1.654-1.346,3-3,3v1h-2v-1c-1.654,0-3-1.346-3-3h2c0,.551,.448,1,1,1h2c.552,0,1-.449,1-1,0-.378-.271-.698-.644-.76l-3.041-.507c-1.342-.223-2.315-1.373-2.315-2.733,0-1.654,1.346-3,3-3v-1h2v1c1.654,0,3,1.346,3,3h-2c0-.551-.448-1-1-1h-2c-.552,0-1,.449-1,1Z"/></svg>
