<?xml version="1.0" encoding="UTF-8"?>
<svg xmlns="http://www.w3.org/2000/svg" id="Layer_1" data-name="Layer 1" viewBox="0 0 24 24">
  <path d="m19.967,18.019h2.398c-2.082,3.57-5.943,5.981-10.365,5.981,0,0,0,0-.001,0-6.617,0-11.999-5.384-11.999-12S5.383,0,12,0h0c4.438,0,8.312,2.428,10.388,6.019h-2.393c-1.826-2.434-4.725-4.019-7.995-4.019,0,0,0,0,0,0-5.513,0-9.999,4.486-9.999,10s4.486,10,10,10h0c3.253,0,6.139-1.568,7.967-3.981Zm-.467-8.788c0-.69-.56-1.25-1.25-1.25s-1.25.56-1.25,1.25.56,1.25,1.25,1.25,1.25-.56,1.25-1.25Zm-.722,6.75l5.222-8h-1.911l-5.222,8h1.911Zm3.972-2.5c-.69,0-1.25.56-1.25,1.25s.56,1.25,1.25,1.25,1.25-.56,1.25-1.25-.56-1.25-1.25-1.25Zm-12.75,2.519v-8h-1.6v4.4h-1.601c-.11,0-.2-.09-.2-.2v-4.2h-1.6v4.2c0,.993.807,1.8,1.8,1.8h1.601v2h1.6Zm3.5-8c1.381,0,2.5,1.119,2.5,2.5v3c0,1.381-1.119,2.5-2.5,2.5s-2.5-1.119-2.5-2.5v-3c0-1.381,1.119-2.5,2.5-2.5Zm0,1.6c-.496,0-.9.404-.9.9v3c0,.496.404.9.9.9s.9-.404.9-.9v-3c0-.496-.404-.9-.9-.9Z"/>
</svg>
