<?xml version="1.0" encoding="UTF-8"?>
<svg xmlns="http://www.w3.org/2000/svg" id="Layer_1" data-name="Layer 1" viewBox="0 0 24 24">
  <path d="m20.5,15c-1.93,0-3.5-1.57-3.5-3.5s1.57-3.5,3.5-3.5,3.5,1.57,3.5,3.5-1.57,3.5-3.5,3.5Zm0-5c-.827,0-1.5.673-1.5,1.5s.673,1.5,1.5,1.5,1.5-.673,1.5-1.5-.673-1.5-1.5-1.5Zm0,14c-1.93,0-3.5-1.57-3.5-3.5s1.57-3.5,3.5-3.5,3.5,1.57,3.5,3.5-1.57,3.5-3.5,3.5Zm0-5c-.827,0-1.5.673-1.5,1.5s.673,1.5,1.5,1.5,1.5-.673,1.5-1.5-.673-1.5-1.5-1.5Zm-5.5-11H0v2h15v-2Zm-3,4H0v2h12v-2Zm3,5H0v2h15v-2Zm-3,4H0v2h12v-2Zm12-15H0v-3C0,1.346,1.346,0,3,0h18c1.654,0,3,1.346,3,3v3ZM2,4h20v-1c0-.551-.448-1-1-1H3c-.552,0-1,.449-1,1v1Z"/>
</svg>
