<?xml version="1.0" encoding="UTF-8"?>
<svg xmlns="http://www.w3.org/2000/svg" id="Layer_1" data-name="Layer 1" viewBox="0 0 24 24">
  <path d="m4,11.89c-1.235-1.263-2-2.988-2-4.89C2,3.14,5.14,0,9,0s7,3.14,7,7c0,1.902-.765,3.627-2,4.89v-4.89c0-2.757-2.243-5-5-5s-5,2.243-5,5v4.89Zm8,1.291v-6.073c0-1.516-1.076-2.834-2.503-3.066-.879-.145-1.768.102-2.439.674-.672.571-1.057,1.404-1.057,2.286v11.566l-.955-.759c-1.208-1.127-3.107-1.062-4.237.144-1.128,1.208-1.065,3.11.131,4.231l1.885,1.818h2.881l-3.389-3.267c-.403-.378-.424-1.013-.047-1.417.375-.402,1.007-.424,1.47.004l4.26,3.392V7c0-.294.128-.572.353-.762.227-.193.518-.273.823-.224.462.076.825.556.825,1.093v7.713l10,2v7.18h2v-8.82l-10-2Z"/>
</svg>
