<?xml version="1.0" encoding="UTF-8"?>
<svg xmlns="http://www.w3.org/2000/svg" id="Layer_1" data-name="Layer 1" viewBox="0 0 24 24" width="512" height="512"><path d="M18.707,7.708l-.032-.032c-.293-.593-.772-1.073-1.365-1.365l-.017-.017-.005,.005c-.394-.19-.83-.306-1.296-.306l-7.992,.007c-.458,0-.887,.111-1.275,.295h-.001l-.004,.003c-1.013,.482-1.72,1.508-1.72,2.702v8l13.993-.008v-8c0-.458-.111-.887-.295-1.276l.009-.009Zm-3.114,.286l-2.597,2.597c-.527,.527-1.448,.527-1.976,0l-2.591-2.591,7.164-.006Zm1.4,7l-9.993,.006v-5.601l2.606,2.607c.642,.641,1.495,.995,2.402,.995s1.761-.354,2.401-.995l2.583-2.583v5.572ZM12,0C5.383,0,0,5.383,0,12s5.383,12,12,12,12-5.383,12-12S18.617,0,12,0Zm0,22c-5.514,0-10-4.486-10-10S6.486,2,12,2s10,4.486,10,10-4.486,10-10,10Z"/></svg>
