<?xml version="1.0" encoding="UTF-8"?>
<svg xmlns="http://www.w3.org/2000/svg" id="Layer_1" data-name="Layer 1" viewBox="0 0 24 24" width="512" height="512"><path d="M12,2C6.486,2,2,6.486,2,12H0C0,5.383,5.383,0,12,0s12,5.383,12,12h-2c0-5.514-4.486-10-10-10Zm5.398,4.201l-2.674,2.015c-.434,.263-.724,.74-.724,1.284,0,.828,.672,1.5,1.5,1.5s1.5-.672,1.5-1.5c0-.155-.023-.304-.067-.444l1.668-1.257-1.203-1.598Zm-8.123,2.015l-2.674-2.015-1.203,1.598,1.668,1.257c-.043,.14-.067,.289-.067,.444,0,.828,.672,1.5,1.5,1.5s1.5-.672,1.5-1.5c0-.545-.29-1.021-.724-1.284Zm-6.652,7.784h2.376c.552,0,1,.449,1,1h2c0-1.654-1.346-3-3-3v-1H3v1h-.376c-1.447,0-2.624,1.177-2.624,2.624,0,1.288,.923,2.377,2.193,2.588l3.285,.548c.302,.05,.521,.309,.521,.616,0,.344-.28,.624-.624,.624H3c-.552,0-1-.449-1-1H0c0,1.654,1.346,3,3,3v1h2v-1h.376c1.447,0,2.624-1.177,2.624-2.624,0-1.288-.923-2.377-2.193-2.588l-3.285-.548c-.302-.05-.521-.309-.521-.616,0-.344,.28-.624,.624-.624Zm7.376,4h2v-6h-2v6Zm12-4h2v2h-2v2h2v2h-2v2h-2v-2h-2v2h-2v-2h-2v-2h2v-2h-2v-2h2v-2h2v2h2v-2h2v2Zm-2,2h-2v2h2v-2Zm-10,6h2v-2h-2v2Z"/></svg>
