<?xml version="1.0" encoding="UTF-8"?>
<svg xmlns="http://www.w3.org/2000/svg" id="Layer_1" data-name="Layer 1" viewBox="0 0 24 24">
  <path d="m16.414,15l-2.482,2.482c.044.165.068.339.068.518,0,1.105-.895,2-2,2s-2-.895-2-2,.895-2,2-2c.179,0,.353.024.518.068l2.482-2.482v-2.586l3-3v4h4l-3,3h-2.586Zm-11.335,7h-3.079v-12h11.172l2-2H2v-3c0-.552.449-1,1-1h18c.551,0,1,.448,1,1l.012,3h-2.012v2h4.02l-.02-5.004h0c-.002-1.653-1.347-2.996-3-2.996h-3V0h-2v2h-8V0h-2v2h-3c-1.654,0-3,1.346-3,3v19h6.721c-.65-.572-1.205-1.246-1.642-2Zm12.711-5.548l-1.818,1.817c-.142,2.078-1.859,3.73-3.973,3.73-2.206,0-4-1.794-4-4,0-2.114,1.652-3.831,3.73-3.973l1.818-1.818c-.495-.132-1.012-.21-1.548-.21-3.309,0-6,2.691-6,6s2.691,6,6,6,6-2.691,6-6c0-.536-.077-1.053-.21-1.548Zm6.287,7.544l-.045-11.199-1.992,1.992.029,7.211h-3.148c-.437.754-.992,1.428-1.642,2h4.798v.004l2-.008Z"/>
</svg>
