<?xml version="1.0" encoding="UTF-8"?>
<svg xmlns="http://www.w3.org/2000/svg" id="Layer_1" data-name="Layer 1" viewBox="0 0 24 24" width="512" height="512"><path d="M12,0C5.383,0,0,5.383,0,12s5.383,12,12,12,12-5.383,12-12S18.617,0,12,0Zm0,2c3.711,0,6.956,2.032,8.682,5.041-.146-.027-.295-.041-.446-.041h-6.149l-1,1h-2.172l-1-1H3.765c-.151,0-.3,.015-.446,.041,1.726-3.01,4.971-5.041,8.682-5.041Zm0,20c-5.361,0-9.75-4.241-9.989-9.544,.512,.93,1.502,1.544,2.605,1.544h3.338c1.369,0,2.559-.928,2.891-2.257l.436-1.743h1.439l.436,1.743c.332,1.329,1.521,2.257,2.891,2.257h3.338c1.104,0,2.094-.614,2.605-1.544-.239,5.303-4.628,9.544-9.989,9.544Zm4.336-6.748l1.33,1.493c-.103,.092-2.559,2.254-5.666,2.254s-5.563-2.162-5.666-2.254l1.33-1.493c.02,.018,2.005,1.748,4.336,1.748s4.316-1.73,4.336-1.748Z"/></svg>
