<?xml version="1.0" encoding="UTF-8"?>
<svg xmlns="http://www.w3.org/2000/svg" id="Layer_1" data-name="Layer 1" viewBox="0 0 24 24">
  <path d="m12,3.107c0-1.516-1.076-2.835-2.503-3.067-.88-.142-1.768.102-2.439.674-.672.571-1.058,1.404-1.058,2.286v11.566l-.955-.759c-1.208-1.128-3.107-1.063-4.235.143-1.13,1.208-1.067,3.11.129,4.231l6.035,5.818h15.026v-12.819l-10-2V3.107Zm8,9.712v9.181H7.78l-5.464-5.268c-.402-.378-.424-1.013-.046-1.416.182-.194.429-.307.694-.315.267.004.521.085.774.319l4.261,3.392V3c0-.294.129-.572.353-.763.228-.193.52-.273.822-.223.463.075.825.555.825,1.093v7.712l10,2Zm4-9.819v2h-6.892l1.574,1.574-1.414,1.414-2.761-2.762c-.693-.693-.694-1.822,0-2.518L17.268-.053l1.414,1.414-1.638,1.639h6.956Z"/>
</svg>
