<?xml version="1.0" encoding="UTF-8"?>
<svg xmlns="http://www.w3.org/2000/svg" id="Layer_1" data-name="Layer 1" viewBox="0 0 24 24">
  <path d="m22.587,6.664c-1.215-.583-2.124-1.376-2.718-2.369l-.078-.161,4.209-3.469c-.201-.336-.166-.277-.367-.613l-4.633,1.603V0c-1.426,0-2.618.995-2.924,2.328-3.167,1.039-4.076,4.3-4.076,6.172v.5h-4.006c-1.259,0-2.385.586-3.119,1.5-2.388.859-4.875,2.817-4.875,8.5h2c0-2.796.671-4.747,1.997-5.829.043,1.598.649,3.332,1.139,4.736.146.418.284.812.396,1.173l-.681,4.92h6.031l.5-4h1.617v4h6v-5.396l.385-1.811c.417-1.46.615-2.415.615-3.895v-2.016l4-.5v-1.467c0-.956-.555-1.839-1.413-2.252Zm-4.587,2.454v3.782c0,1.25-.166,2.042-.555,3.412l-.423,1.98-.022,3.709h-2v-4h-5.383l-.5,4h-1.969l.425-3.075s-.363-1.146-.549-1.677c-.483-1.382-1.03-2.948-1.03-4.252.002-1.101.899-1.996,2-1.996h6.006v-2.497c.003-.432.134-4.014,3.546-4.458.705,1.924,2.135,3.442,4.176,4.421.076.037.141.093.188.162l-3.91.489Z"/>
</svg>
