<?xml version="1.0" encoding="UTF-8"?>
<svg xmlns="http://www.w3.org/2000/svg" id="Layer_1" data-name="Layer 1" viewBox="0 0 24 24" width="512" height="512"><path d="m16.575,12.025c2.193-1.988,4.425-4.995,4.425-9C21,1.371,19.654.025,18,.025H6c-1.654,0-3,1.346-3,3,0,4.006,2.24,7.012,4.442,9-2.202,1.988-4.442,4.995-4.442,9v3h18v-3c0-4.004-2.231-7.012-4.425-9Zm2.425,10H5v-1c0-3.774,2.508-6.551,4.612-8.216l.991-.784-.991-.784c-2.104-1.665-4.612-4.441-4.612-8.215,0-.551.449-1,1-1h12c.551,0,1,.448,1,1,0,3.774-2.497,6.552-4.592,8.217l-.984.783.984.783c2.095,1.666,4.592,4.444,4.592,8.217v1Zm-2.078-18H7.08c.506,3.157,3.298,5.414,4.934,6.487,1.62-1.058,4.407-3.304,4.908-6.487Zm-4.904,4.018c-.643-.52-1.371-1.206-1.95-2.018h3.893c-.561.801-1.274,1.481-1.943,2.018Z"/></svg>
