<?xml version="1.0" encoding="UTF-8"?>
<svg xmlns="http://www.w3.org/2000/svg" id="Layer_1" data-name="Layer 1" viewBox="0 0 24 24">
  <path d="m23,4h-6v-2c0-1.103-.897-2-2-2h-6c-1.103,0-2,.897-2,2v2H1v2h1.644l1.703,15.331c.169,1.521,1.451,2.669,2.982,2.669h9.304c1.53,0,2.812-1.147,2.982-2.669l1.703-15.331h1.682v-2Zm-14-2h6v2h-6v-2Zm8.627,19.109c-.057.508-.484.891-.994.891H7.329c-.51,0-.938-.383-.994-.89l-1.679-15.11h14.65l-1.678,15.109Zm-8.541-4.695l-2.498-2.411,1.39-1.439,2.51,2.424,5.401-5.29,1.402,1.426-5.383,5.297c-.386.386-.896.58-1.406.58s-1.025-.195-1.416-.586Z"/>
</svg>
