<?xml version="1.0" encoding="UTF-8"?>
<svg xmlns="http://www.w3.org/2000/svg" id="Layer_1" data-name="Layer 1" viewBox="0 0 24 24" width="512" height="512"><path d="m9,12c0-4.07,2.888-7.931,7.023-9.391l2.364-.834-2.29-1.021c-1.136-.507-2.476-.753-4.098-.753C5.383,0,0,5.383,0,12s5.383,12,12,12c1.616,0,2.835-.223,4.074-.747l2.376-1.004-2.433-.86c-4.132-1.461-7.018-5.322-7.018-9.389Zm3,10c-5.514,0-10-4.486-10-10S6.486,2,12,2c.239,0,.469.006.69.018-3.49,2.214-5.69,5.951-5.69,9.982s2.201,7.769,5.691,9.983c-.22.012-.449.017-.691.017Zm12-11.167l-2.545,1.736,1.059,3.319-.682.476-2.819-1.948-2.776,1.948-.656-.494.984-3.351-2.566-1.68v-.839h3.5l1.07-3.636h.882l1.069,3.636h3.478v.833Z"/></svg>
