<?xml version="1.0" encoding="UTF-8"?>
<svg xmlns="http://www.w3.org/2000/svg" id="Layer_1" data-name="Layer 1" viewBox="0 0 24 24">
  <path d="m24,0h-2c0,1.103-.897,2-2,2H4.5c-2.017,0-3.724,1.509-3.97,3.511l-.429,3.489h11.648c2.032,0,3.74-1.522,3.973-3.542l.168-1.458h2.089c-.205,3.696-2.628,9.671-6.971,14.042-1.355,1.373-1.34,3.594.033,4.95.681.672,1.57,1.007,2.458,1.007.904,0,1.808-.347,2.492-1.039,5.705-5.781,5.578-17.362,5.518-19.259,1.459-.597,2.491-2.028,2.491-3.7Zm-10.264,5.229c-.117,1.01-.971,1.771-1.987,1.771H2.362l.153-1.245c.123-1,.977-1.755,1.985-1.755h9.378l-.142,1.229Zm.832,16.325c-.582.589-1.534.595-2.122.014-.588-.581-.595-1.533-.016-2.12,3.605-3.628,5.964-8.208,6.987-12.029-.283,4.126-1.31,10.549-4.849,14.134Z"/>
</svg>
