<?xml version="1.0" encoding="UTF-8"?>
<svg xmlns="http://www.w3.org/2000/svg" id="Layer_1" data-name="Layer 1" viewBox="0 0 24 24">
  <path d="m23.121,6.151L17.849.879c-.567-.567-1.32-.879-2.121-.879h-7.456c-.801,0-1.554.312-2.121.879L.879,6.151c-.567.567-.879,1.32-.879,2.121v7.456c0,.801.312,1.554.879,2.121l5.272,5.272c.567.567,1.32.879,2.121.879h7.456c.801,0,1.554-.312,2.121-.879l5.272-5.272c.567-.567.879-1.32.879-2.121v-7.456c0-.801-.312-1.554-.879-2.121Zm-1.121,9.577c0,.263-.107.521-.293.707l-5.272,5.272c-.187.186-.444.293-.707.293h-7.456c-.263,0-.521-.107-.707-.293l-5.272-5.272c-.186-.187-.293-.444-.293-.707v-7.456c0-.263.107-.521.293-.707L7.565,2.293c.187-.186.444-.293.707-.293h7.456c.263,0,.521.107.707.293l5.272,5.272c.186.187.293.444.293.707v7.456Zm-15-4.728h10v2H7v-2Z"/>
</svg>
