<?xml version="1.0" encoding="UTF-8"?>
<svg xmlns="http://www.w3.org/2000/svg" id="Layer_1" data-name="Layer 1" viewBox="0 0 24 24">
  <path d="m12,0c-.051,0,.051-.001,0,0h0Zm0,18c-3.309,0-6,2.691-6,6h2c0-2.206,1.794-4,4-4s4,1.794,4,4h2c0-3.309-2.691-6-6-6Zm8.771-.011c-.671-2.349-2.846-3.989-5.289-3.989h-6.966c-2.442,0-4.617,1.64-5.289,3.989l-1.717,6.011h2.065l1.575-5.462c.427-1.495,1.811-2.538,3.366-2.538h6.966c1.554,0,2.938,1.044,3.365,2.538l1.712,5.462h1.929l-1.717-6.011Zm-.345-4.118c-.699-.613-1.509-1.096-2.388-1.417-.855-3.632-1.653-6.997-1.745-7.308-.312-.993-.941-1.814-1.756-2.369-.527,1.321-1.455,2.437-2.685,3.203-1.081.674-2.349,1.033-3.726,1.018.445,1.724,2.013,3.002,3.874,3.002,1.229,0,2.331-.557,3.065-1.433.158.666.337,1.42.529,2.234-1.002.752-2.247,1.198-3.594,1.198-2.231,0-4.181-1.224-5.215-3.035-.251,1.06-.534,2.259-.824,3.489-.879.322-1.689.804-2.388,1.417.876-3.728,2.106-8.945,2.224-9.32C6.637,1.879,9,0,12,0c2.854,0,5.347,1.829,6.202,4.55.118.375,1.349,5.592,2.224,9.32ZM12.673,2.05c-.22-.033-.445-.05-.673-.05-2,0-3.438,1.32-3.873,2.998.934.035,1.857-.209,2.667-.715.858-.535,1.508-1.312,1.879-2.232Z"/>
</svg>
