<?xml version="1.0" encoding="UTF-8"?>
<svg xmlns="http://www.w3.org/2000/svg" id="Layer_1" data-name="Layer 1" viewBox="0 0 24 24" width="512" height="512"><path d="m17.8,13c-.366-1.593-1.152-3.017-2.228-4.158l1.526-1.526c1.355,1.054,3.057,1.683,4.903,1.683v-2c-3.309,0-6-2.691-6-6h-2c0,1.846.629,3.548,1.683,4.903l-1.641,1.641c-1.185-.799-2.564-1.324-4.042-1.488v-2.056h-2v2.056C3.506,6.557,0,10.39,0,15.029v7.971h24v-10h-6.2Zm-6.8,5v3H2v-5.971c0-3.876,3.141-7.029,7-7.029,3.14,0,5.859,2.086,6.734,5.007-2.634.139-4.734,2.325-4.734,4.993Zm11,3h-9v-3c0-1.654,1.346-3,3-3h6v6ZM5,15h3v3h-3v-3Z"/></svg>
