<?xml version="1.0" encoding="UTF-8"?>
<svg xmlns="http://www.w3.org/2000/svg" id="Layer_1" data-name="Layer 1" viewBox="0 0 24 24" width="512" height="512"><path d="M8,11v5h8V8h-5c-1.65,0-3,1.35-3,3Zm2,0c0-.55,.45-1,1-1h3v4h-4v-3ZM2,14H6v2H0v-4H2v2ZM13,2h-1V0h1c1.65,0,3,1.35,3,3v3h-2V3c0-.55-.45-1-1-1Zm-3,0H6V0h4V2ZM2,4H0v-1C0,1.35,1.35,0,3,0h1V2h-1c-.55,0-1,.45-1,1v1Zm0,6H0V6H2v4Zm8,12h2v2h-4v-6h2v4Zm4,0h4v2h-4v-2Zm8-8h2v4h-2v-4Zm2-3v1h-2v-1c0-.55-.45-1-1-1h-3v-2h3c1.65,0,3,1.35,3,3Zm-2,9h2v4h-4v-2h2v-2Z"/></svg>
