<?xml version="1.0" encoding="UTF-8"?>
<svg xmlns="http://www.w3.org/2000/svg" id="Layer_1" data-name="Layer 1" viewBox="0 0 24 24">
  <path d="m22.6,16.358l-1.486-1.486c.694-1.447.998-3.06.848-4.708-.372-4.118-3.604-7.515-7.687-8.076-3.313-.452-6.479.867-8.475,3.531-1.058,1.309-2.17,3.858-3.245,6.323l-.464,1.059h1.99l.68,5.132c.065.495.491.868.991.868h4.247v3h9.758l1.242,1.242v.758h-13v-3h-2.247c-1.5,0-2.778-1.121-2.974-2.606l-.449-3.394H0v-2.212l.723-1.646c1.181-2.706,2.295-5.262,3.5-6.752C6.638,1.164,10.511-.443,14.547.105c4.996.688,8.952,4.841,9.407,9.878.203,2.25-.277,4.452-1.354,6.374Zm-3.6-5.358c0,1.294-.416,2.49-1.115,3.471l3.822,3.822-1.414,1.414-3.822-3.822c-.981.699-2.177,1.115-3.471,1.115-3.309,0-6-2.691-6-6s2.691-6,6-6,6,2.691,6,6Zm-6,4c2.206,0,4-1.794,4-4s-1.794-4-4-4-4,1.794-4,4,1.794,4,4,4Z"/>
</svg>
