<?xml version="1.0" encoding="UTF-8"?>
<svg xmlns="http://www.w3.org/2000/svg" id="Layer_1" data-name="Layer 1" viewBox="0 0 24 24">
  <path d="m2,2.5c0-1.381,1.119-2.5,2.5-2.5s2.5,1.119,2.5,2.5-1.119,2.5-2.5,2.5-2.5-1.119-2.5-2.5ZM14,0l4,2.5-4,2.5v3h-6v16h-2v-6h-2v6h-2v-6H0v-8.5c0-1.618,1.311-3.5,3-3.5h9V0h2ZM6,8h-3c-.404,0-1,.79-1,1.5v6.5h4v-8Zm9,6c1.381,0,2.5-1.119,2.5-2.5s-1.119-2.5-2.5-2.5-2.5,1.119-2.5,2.5,1.119,2.5,2.5,2.5Zm3,3.5v6.5h-2v-2h-2v2h-2v-6.5c0-1.379,1.121-2.5,2.5-2.5h1c1.379,0,2.5,1.121,2.5,2.5Zm-2,0c0-.275-.225-.5-.5-.5h-1c-.275,0-.5.225-.5.5v2.5h2v-2.5Zm7.5-10c0-1.381-1.119-2.5-2.5-2.5s-2.5,1.119-2.5,2.5,1.119,2.5,2.5,2.5,2.5-1.119,2.5-2.5Zm-2,3.5h-1c-.359,0-.7.077-1.009.213.006.095.009.19.009.287,0,.526-.091,1.031-.258,1.5h2.258c.275,0,.5.225.5.5v2.5h-2.257c.166.469.257.974.257,1.5v.5h2v2h2v-6.5c0-1.379-1.121-2.5-2.5-2.5Z"/>
</svg>
