<?xml version="1.0" encoding="UTF-8"?>
<svg xmlns="http://www.w3.org/2000/svg" id="Layer_1" data-name="Layer 1" viewBox="0 0 24 24">
  <path d="m23.291,9.289c-1.002-1.844-3.268-5.374-7.174-8.292-.89-.664-1.968-.991-3.081-.996-1.013.012-1.997.316-2.844.881L0,11.602v12.398h24v-11.881c0-.999-.245-1.978-.709-2.831ZM11.389,2.488c.504-.313,1.08-.481,1.67-.488.669-.016,1.326.199,1.86.598,3.601,2.691,5.689,5.945,6.614,7.646.287.527.441,1.132.459,1.756H2.378L11.389,2.488Zm10.611,11.512v3H2v-3h20ZM2,22v-3h20v3H2Z"/>
</svg>
