<?xml version="1.0" encoding="UTF-8"?>
<svg xmlns="http://www.w3.org/2000/svg" id="Layer_1" data-name="Layer 1" viewBox="0 0 24 24" width="512" height="512"><path d="M17.001,21c-1.64,0-3.488-.528-5.274-1.039-1.655-.473-3.365-.961-4.726-.961-2.731,0-5.55,1.303-5.577,1.315l-1.424,.666V7.158c0-1.128,.618-2.148,1.614-2.663,1.324-.683,3.333-1.496,5.387-1.496,1.662,0,3.266,.535,4.815,1.051,1.464,.488,2.846,.949,4.184,.949,1.386,0,2.517-.362,3.426-.653,.302-.097,.577-.185,.828-.251,.898-.239,1.835-.048,2.573,.52,.746,.574,1.174,1.443,1.174,2.384v12.285l-.587,.266c-.131,.06-3.233,1.449-6.413,1.449Zm-10-4c1.64,0,3.488,.528,5.274,1.039,1.655,.473,3.365,.961,4.726,.961,2,0,4.03-.665,5-1.032V7c0-.316-.144-.607-.394-.799-.143-.109-.441-.276-.842-.171-.221,.059-.464,.137-.73,.222-.986,.315-2.338,.748-4.035,.748-1.662,0-3.266-.535-4.815-1.051-1.464-.488-2.846-.949-4.184-.949-1.739,0-3.547,.798-4.47,1.273-.328,.169-.532,.509-.532,.885v10.782c1.23-.427,3.103-.94,5.002-.94ZM5,7c-.552,0-1,.448-1,1s.448,1,1,1,1-.448,1-1-.448-1-1-1Zm13,3c0,.552,.448,1,1,1s1-.448,1-1-.448-1-1-1-1,.448-1,1Zm-13,3c-.552,0-1,.448-1,1s.448,1,1,1,1-.448,1-1-.448-1-1-1Zm13,3c0,.552,.448,1,1,1s1-.448,1-1-.448-1-1-1-1,.448-1,1Zm-5.848-7.644l-2.869,2.946,1.434,1.396,1.283-1.318v4.505c.275,.077,.552,.153,.825,.231,.392,.112,.786,.224,1.175,.33v-7.642s-1.258-.272-1.848-.447Z"/></svg>
