<?xml version="1.0" encoding="UTF-8"?>
<svg xmlns="http://www.w3.org/2000/svg" id="Layer_1" data-name="Layer 1" viewBox="0 0 24 24">
  <path d="m24,20.5h0s0,.003,0,.004c0,1.381-1.119,2.5-2.5,2.5s-2.5-1.119-2.5-2.5,1.119-2.5,2.5-2.5c.171,0,.338.017.5.05v-5.054l-5,.714v7.79h0c0,1.381-1.119,2.5-2.5,2.5s-2.5-1.119-2.5-2.5,1.119-2.5,2.5-2.5c.171,0,.338.017.5.05v-5.34c0-.989.738-1.84,1.717-1.979l5-.714c.576-.08,1.156.089,1.594.469s.689.93.689,1.51v7.5ZM2,6C2,2.691,4.691,0,8,0s6,2.691,6,6-2.691,6-6,6-6-2.691-6-6Zm2,0c0,2.206,1.794,4,4,4s4-1.794,4-4-1.794-4-4-4-4,1.794-4,4Zm9,8H4.5c-2.481,0-4.5,2.019-4.5,4.5v5.5h2v-5.5c0-1.378,1.122-2.5,2.5-2.5h8.5v-2Z"/>
</svg>
