<?xml version="1.0" encoding="UTF-8"?>
<svg xmlns="http://www.w3.org/2000/svg" id="Layer_1" data-name="Layer 1" viewBox="0 0 24 24">
  <path d="m15,16.769l8,3v4.231h-2v-2.845l-8-3v-6.048c0-.538-.362-1.018-.825-1.093-.304-.052-.595.03-.822.223-.224.19-.353.469-.353.763v11.712l-4.261-3.392.008-.01c-.021-.017-.047-.023-.067-.042-.402-.373-1.034-.354-1.41.048-.377.403-.356,1.038.046,1.416l2.352,2.268h-2.881l-.849-.818c-1.196-1.12-1.26-3.022-.13-4.23,1.109-1.188,2.963-1.263,4.173-.192l.003-.004,1.015.808v-7.563c0-.882.386-1.715,1.058-2.286.672-.572,1.56-.815,2.439-.674,1.427.232,2.503,1.552,2.503,3.067v4.661ZM3.5,6c1.105,0,2-.895,2-2s-.895-2-2-2-2,.895-2,2,.895,2,2,2Zm1.5,4h2v-1c0-1.103-.897-2-2-2h-3c-1.103,0-2,.897-2,2v1h2v-1h3v1Zm15.5-4c1.105,0,2-.895,2-2s-.895-2-2-2-2,.895-2,2,.895,2,2,2Zm1.5,1h-3c-1.103,0-2,.897-2,2v1h2v-1h3v1h2v-1c0-1.103-.897-2-2-2Zm-10-3c1.105,0,2-.895,2-2s-.895-2-2-2-2,.895-2,2,.895,2,2,2Zm-1.5,3h3v1h2v-1c0-1.103-.897-2-2-2h-3c-1.103,0-2,.897-2,2v1h2v-1Z"/>
</svg>
