<?xml version="1.0" encoding="UTF-8"?>
<svg xmlns="http://www.w3.org/2000/svg" id="Layer_1" data-name="Layer 1" viewBox="0 0 24 24" width="512" height="512"><path d="m23.004,12c0-1.654-1.346-3-3-3h-1v-3h-1.56c.248-.34.387-.744.387-1.172,0-.535-.208-1.037-.586-1.414l-2.829-2.83c-.78-.78-2.049-.778-2.828,0l-.718.718C10.587.544,9.86,0,9.003,0h-4C3.899,0,3.002.896,3.002,2v4s0,0,0,0h-1.999v15c0,1.654,1.346,3,3,3h12c1.654,0,3-1.346,3-3v-2h4v-7ZM13.003,1.999l2.829,2.829-1.172,1.172h-3.312l-1.172-1.172,2.829-2.829Zm-8,0h4v1.172l-.242.242c-.378.377-.586.88-.586,1.415,0,.428.139.833.387,1.172h-3.559V2Zm12.001,19.001c0,.551-.449,1-1,1H4.004c-.551,0-1-.449-1-1v-13h14v13Zm4-4h-2v-6h1c.551,0,1,.449,1,1v5Z"/></svg>
