<?xml version="1.0" encoding="UTF-8"?>
<svg xmlns="http://www.w3.org/2000/svg" id="Layer_1" data-name="Layer 1" viewBox="0 0 24 24">
  <path d="m19,13h-10v-2h10v2Zm0-6h-7v2h7v-2Zm-10,10h4v-2h-4v2ZM2,9v-3.171c-1.164-.413-2-1.525-2-2.829C0,1.346,1.346,0,3,0c.488,0,.965.124,1.395.357C5.403-.113,6.597-.113,7.605.357c.429-.233.907-.357,1.395-.357,1.654,0,3,1.346,3,3,0,1.304-.836,2.416-2,2.829v3.171H2Zm0-6c0,.552.449,1,1,1h1v3h4v-3h1c.551,0,1-.448,1-1s-.449-1-1-1c-.302,0-.526.149-.661.274l-.599.557-.665-.476c-.649-.465-1.503-.465-2.152,0l-.665.476-.599-.557c-.134-.125-.358-.274-.661-.274-.551,0-1,.448-1,1Zm22,0v13.414l-7.586,7.586H4v-13h2v11h9v-7h7V3c0-.552-.448-1-1-1h-7V0h7c1.657,0,3,1.343,3,3Zm-7,17.586l3.586-3.586h-3.586v3.586Z"/>
</svg>
