<?xml version="1.0" encoding="UTF-8"?>
<svg xmlns="http://www.w3.org/2000/svg" id="Layer_1" data-name="Layer 1" viewBox="0 0 24 24" width="512" height="512"><path d="M21.59,15H6.65l.13,1.12c.06,.5,.49,.88,.99,.88h12.22v2H7.78c-1.52,0-2.8-1.14-2.98-2.65L3.21,2.88c-.06-.5-.49-.88-.99-.88H0V0H2.22c1.52,0,2.8,1.14,2.98,2.65l.04,.35h4.76v2H5.48l.94,8h13.54l1.6-8h-5.55V3h7.99l-2.4,12Zm-14.59,5c-1.1,0-2,.9-2,2s.9,2,2,2,2-.9,2-2-.9-2-2-2Zm10,0c-1.1,0-2,.9-2,2s.9,2,2,2,2-.9,2-2-.9-2-2-2ZM8.89,7.72l2.69,2.69c.39,.39,.9,.58,1.41,.58s1.02-.19,1.41-.58l2.68-2.68-1.41-1.41-1.68,1.68V0h-2V8l-1.69-1.69-1.41,1.41Z"/></svg>
