<?xml version="1.0" encoding="UTF-8"?>
<svg xmlns="http://www.w3.org/2000/svg" id="Layer_1" data-name="Layer 1" viewBox="0 0 24 24">
  <path d="m23.473,16.247l-2.862,2.863-1.414-1.414,1.696-1.696h-6.892v-2h6.956l-1.76-1.761,1.414-1.414,2.862,2.862c.706.706.706,1.854,0,2.56ZM6.5,11c-.828,0-1.5.672-1.5,1.5s.672,1.5,1.5,1.5,1.5-.672,1.5-1.5-.672-1.5-1.5-1.5Zm7.5,7h2v6H0V4.2C0,2.776,1.014,1.539,2.411,1.259L8.412.059c.888-.174,1.793.051,2.491.622.428.351.728.812.908,1.319h1.19c1.654,0,3,1.346,3,3v7h-2v-7c0-.552-.448-1-1-1h-1v18h2v-4ZM10,3.001c0-.301-.133-.583-.366-.773-.232-.19-.537-.265-.83-.208l-6,1.2c-.466.094-.804.506-.804.98v17.8h8V3.001Z"/>
</svg>
