<?xml version="1.0" encoding="UTF-8"?>
<svg xmlns="http://www.w3.org/2000/svg" id="Layer_1" data-name="Layer 1" viewBox="0 0 24 24" width="512" height="512"><path d="M2.679,11.829l17.852,8.519,1.218-2.779c.66-1.508-.024-3.271-1.524-3.941l-2.404-1.174-1.445-8.349c-.095-1.095-.779-2.048-1.791-2.491L11,.067V9.121l-3.161-1.544-1.19-3.047c-.235-.599-.688-1.07-1.275-1.326-.796-.348-1.685-.25-2.384,.262s-1.062,1.333-.97,2.195l.659,6.167ZM13,3.108l.787,.339c.335,.147,.562,.465,.605,.914l1.21,7.009-2.603-1.271V3.108Zm-8.829,1.972c.068-.052,.214-.126,.401-.043,.099,.042,.174,.122,.213,.222l1.476,3.773,13.14,6.417c.505,.221,.736,.812,.516,1.317l-.388,.886L4.548,10.505l-.54-5.056c-.021-.202,.093-.317,.163-.369ZM24,22v2H0v-2H24Z"/></svg>
