<?xml version="1.0" encoding="UTF-8"?>
<svg xmlns="http://www.w3.org/2000/svg" id="Layer_1" data-name="Layer 1" viewBox="0 0 24 24">
  <path d="m12,0C5.383,0,0,4.038,0,9v3c0,6.617,5.383,12,12,12s12-5.383,12-12v-3C24,4.038,18.617,0,12,0Zm0,2c5.514,0,10,3.14,10,7s-4.486,7-10,7S2,12.86,2,9,6.486,2,12,2Zm0,20c-4.744,0-8.718-3.323-9.738-7.762,2.18,2.273,5.728,3.762,9.738,3.762s7.558-1.489,9.738-3.762c-1.02,4.439-4.995,7.762-9.738,7.762Zm0-11s1,1.448,1,2-.448,1-1,1-1-.448-1-1,1-2,1-2Zm0-4s-1-1.448-1-2,.448-1,1-1,1,.448,1,1-1,2-1,2Zm-8,2c0-.552.448-1,1-1s2,1,2,1c0,0-1.448,1-2,1s-1-.448-1-1Zm13,0s1.448-1,2-1,1,.448,1,1-.448,1-1,1-2-1-2-1Zm.177-2.265c-.406.374-2.148.62-2.148.62,0,0,.387-1.716.793-2.091.406-.374,1.039-.348,1.413.058.374.406.348,1.039-.058,1.413Zm-10.355,0c-.406-.374-.432-1.007-.058-1.413.374-.406,1.007-.432,1.413-.058.406.374.793,2.091.793,2.091,0,0-1.742-.245-2.148-.62Zm9,6c-.406-.374-.793-2.091-.793-2.091,0,0,1.742.245,2.148.62.406.374.432,1.007.058,1.413-.374.406-1.007.432-1.413.058Zm-9-1.471c.406-.374,2.148-.62,2.148-.62,0,0-.387,1.716-.793,2.091-.406.374-1.039.348-1.413-.058-.374-.406-.348-1.039.058-1.413Zm2.177-2.264c0-.552,1.343-1,3-1s3,.448,3,1-1.343,1-3,1-3-.448-3-1Z"/>
</svg>
