<?xml version="1.0" encoding="UTF-8"?>
<svg xmlns="http://www.w3.org/2000/svg" id="Layer_1" data-name="Layer 1" viewBox="0 0 24 24">
  <path d="m24,10c0-2.757-2.243-5-5-5h-2v-1c0-1.654-1.346-3-3-3h-1.755c.482.602.879,1.274,1.173,2h.582c.552,0,1,.449,1,1v13H2v-4.071c-.753-.436-1.428-.99-2-1.639v7.709h2.037c-.024.165-.037.331-.037.5,0,1.93,1.57,3.5,3.5,3.5s3.5-1.57,3.5-3.5c0-.169-.013-.335-.037-.5h6.074c-.024.165-.037.331-.037.5,0,1.93,1.57,3.5,3.5,3.5s3.5-1.57,3.5-3.5c0-.169-.013-.335-.037-.5h2.037v-9ZM7,19.5c0,.827-.673,1.5-1.5,1.5s-1.5-.673-1.5-1.5c0-.189.037-.356.091-.5h2.819c.054.144.091.311.091.5Zm12-12.5c1.654,0,3,1.346,3,3v1h-5v-4h2Zm1,12.5c0,.827-.673,1.5-1.5,1.5s-1.5-.673-1.5-1.5c0-.189.037-.356.091-.5h2.819c.054.144.091.311.091.5Zm-3-2.5v-4h5v4h-5Zm-11-5c3.309,0,6-2.691,6-6S9.309,0,6,0,0,2.691,0,6s2.691,6,6,6Zm0-10c2.206,0,4,1.794,4,4s-1.794,4-4,4-4-1.794-4-4S3.794,2,6,2Zm1.043,6.457l-2.043-2.043v-3.414h2v2.586l1.457,1.457-1.414,1.414Z"/>
</svg>
