<?xml version="1.0" encoding="UTF-8"?>
<svg xmlns="http://www.w3.org/2000/svg" id="Layer_1" data-name="Layer 1" viewBox="0 0 24 24" width="512" height="512"><path d="m15.54,13.229c-.589.408-1.18.803-1.763,1.191.721.511,1.414,1.033,2.058,1.58h-7.673c1.319-1.119,2.84-2.134,4.392-3.168,4.644-3.096,9.445-6.297,9.445-12.832h-2c0,.71-.071,1.375-.203,2H4.202c-.132-.625-.202-1.29-.202-2h-2c0,5.12,2.95,8.191,6.46,10.771.589-.408,1.18-.803,1.763-1.191-.721-.511-1.414-1.033-2.058-1.58h7.673c-1.319,1.119-2.84,2.134-4.392,3.168-4.644,3.096-9.445,6.297-9.445,12.832h2c0-.71.071-1.375.203-2h15.595c.132.625.202,1.29.202,2h2c0-5.12-2.95-8.191-6.46-10.771ZM4.883,4h14.235c-.345.718-.78,1.38-1.285,2H6.168c-.505-.62-.94-1.282-1.285-2Zm0,16c.345-.718.78-1.38,1.285-2h11.664c.505.62.94,1.282,1.285,2H4.883Z"/></svg>
