<?xml version="1.0" encoding="UTF-8"?>
<svg xmlns="http://www.w3.org/2000/svg" id="Layer_1" data-name="Layer 1" viewBox="0 0 24 24">
  <path d="m24,14.5v.5h-2v-.5c0-.551-.449-1-1-1h-1c-.551,0-1,.449-1,1,0,.5.3.943.764,1.129l2.214.885c1.228.492,2.021,1.664,2.021,2.986,0,1.483-1.084,2.71-2.5,2.949v1.551h-2v-1.551c-1.416-.24-2.5-1.466-2.5-2.949v-.5h2v.5c0,.551.449,1,1,1h1c.551,0,1-.449,1-1,0-.5-.3-.943-.764-1.129l-2.214-.885c-1.228-.492-2.021-1.664-2.021-2.986,0-1.483,1.084-2.71,2.5-2.949v-1.551h2v1.551c1.416.24,2.5,1.466,2.5,2.949Zm-16.897-2.308l1.397,6.807h-1.488l-.262-1.474h-2.006l-.275,1.474h-1.469l1.372-6.833c.103-.58.628-1.167,1.385-1.167s1.226.524,1.346,1.192Zm-.729,3.808l-.638-3.295-.624,3.295h1.261Zm4.926-5c1.269,0,2.3,1.031,2.3,2.3v3.4c0,1.269-1.031,2.3-2.3,2.3h-2.3v-8h2.3Zm0,1.6c-.386,0-.7,0-.7,0v4.802s.314,0,.7,0,.7-.314.7-.7v-3.4c0-.386-.314-.7-.7-.7ZM4.5,3c-.828,0-1.5.672-1.5,1.5s.672,1.5,1.5,1.5,1.5-.672,1.5-1.5-.672-1.5-1.5-1.5Zm4,0c-.828,0-1.5.672-1.5,1.5s.672,1.5,1.5,1.5,1.5-.672,1.5-1.5-.672-1.5-1.5-1.5Zm15.5,0v6H2v11h13v2H0V3C0,1.346,1.346,0,3,0h18c1.654,0,3,1.346,3,3Zm-2,0c0-.551-.449-1-1-1H3c-.551,0-1,.449-1,1v4h20V3Z"/>
</svg>
