<?xml version="1.0" encoding="UTF-8"?>
<svg xmlns="http://www.w3.org/2000/svg" id="Layer_1" data-name="Layer 1" viewBox="0 0 24 24" width="512" height="512"><path d="m5.5,7c1.93,0,3.5-1.57,3.5-3.5S7.43,0,5.5,0s-3.5,1.57-3.5,3.5,1.57,3.5,3.5,3.5Zm0-5c.827,0,1.5.673,1.5,1.5s-.673,1.5-1.5,1.5-1.5-.673-1.5-1.5.673-1.5,1.5-1.5Zm10,5c1.93,0,3.5-1.57,3.5-3.5s-1.57-3.5-3.5-3.5-3.5,1.57-3.5,3.5,1.57,3.5,3.5,3.5Zm0-5c.827,0,1.5.673,1.5,1.5s-.673,1.5-1.5,1.5-1.5-.673-1.5-1.5.673-1.5,1.5-1.5Zm-5,6c-1.93,0-3.5,1.57-3.5,3.5s1.57,3.5,3.5,3.5,3.5-1.57,3.5-3.5-1.57-3.5-3.5-3.5Zm0,5c-.827,0-1.5-.673-1.5-1.5s.673-1.5,1.5-1.5,1.5.673,1.5,1.5-.673,1.5-1.5,1.5Zm13.5,7h-4v4h-2v-4h-4v-2h4v-4h2v4h4v2ZM5.212,10h-2.212c-.552,0-1,.448-1,1v3H0v-3c0-1.654,1.346-3,3-3h3.257c-.478.578-.835,1.258-1.045,2Zm12.788-2c1.654,0,3,1.346,3,3v1h-2v-1c0-.552-.448-1-1-1h-2.212c-.21-.742-.567-1.422-1.045-2h3.257Zm-10,8h4v2h-4c-.551,0-1,.449-1,1v3h-2v-3c0-1.654,1.346-3,3-3Z"/></svg>
