<?xml version="1.0" encoding="UTF-8"?>
<svg xmlns="http://www.w3.org/2000/svg" id="Layer_1" data-name="Layer 1" viewBox="0 0 24 24">
  <path d="m24,14.731c0,.69-.56,1.25-1.25,1.25s-1.25-.56-1.25-1.25.56-1.25,1.25-1.25,1.25.56,1.25,1.25Zm-4.5-5.5c0-.69-.56-1.25-1.25-1.25s-1.25.56-1.25,1.25.56,1.25,1.25,1.25,1.25-.56,1.25-1.25Zm-.722,6.75l5.222-8h-1.911l-5.222,8h1.911Zm-12.162.038l3.385-6.857v-1.163h-5v1.6h2.994l-2.81,5.705,1.432.715Zm6.885-8.019c1.381,0,2.5,1.119,2.5,2.5v3c0,1.381-1.119,2.5-2.5,2.5s-2.5-1.119-2.5-2.5v-3c0-1.381,1.119-2.5,2.5-2.5Zm0,1.6c-.496,0-.9.404-.9.9v3c0,.496.404.9.9.9s.9-.404.9-.9v-3c0-.496-.404-.9-.9-.9Zm-1.5,12.4h0c-5.514,0-10-4.487-10-10S6.485,2,11.999,2c0,0,0,0,0,0,3.27,0,6.17,1.585,7.995,4.019h2.393C20.312,2.428,16.438,0,12,0h0c-6.617,0-12,5.383-12,12s5.383,11.999,11.999,12c0,0,0,0,.001,0,4.422,0,8.283-2.411,10.365-5.981h-2.398c-1.827,2.413-4.714,3.981-7.967,3.981Z"/>
</svg>
