<?xml version="1.0" encoding="UTF-8"?>
<svg xmlns="http://www.w3.org/2000/svg" id="Layer_1" data-name="Layer 1" viewBox="0 0 24 24">
  <path d="m19.855,18.441c1.424-1.934,2.145-4.109,2.145-6.477v-5.755c0-1.727-1.102-3.253-2.741-3.797L12,.005l-7.259,2.407c-.222.074-.435.166-.638.276L1.457.043.043,1.457l22.5,22.5,1.414-1.414-4.102-4.102ZM12,2.112l6.629,2.198c.82.271,1.371,1.035,1.371,1.898v5.755c0,1.828-.531,3.52-1.579,5.043L5.636,4.222l6.364-2.11Zm3.602,17.732l1.427,1.427c-1.709,1.303-3.408,2.075-4.236,2.409l-.836.336-.806-.404c-2.146-1.071-9.151-5.082-9.151-11.648v-5.721l2,2v3.721c0,5.419,6.159,8.917,8.046,9.86h.001c.704-.283,2.115-.922,3.554-1.98Z"/>
</svg>
