<?xml version="1.0" encoding="UTF-8"?>
<svg xmlns="http://www.w3.org/2000/svg" id="Layer_1" data-name="Layer 1" viewBox="0 0 24 24" width="512" height="512"><path d="M18.778,17.364l.293-.287c1.889-1.889,2.929-4.399,2.929-7.07s-1.04-5.183-2.929-7.071C17.183,1.047,14.672,.007,12.001,.007h-.004C9.327,.007,6.817,1.047,4.93,2.935c-.097,.097-.192,.197-.284,.297L1.457,.043,.043,1.457,22.543,23.957l1.414-1.414-5.179-5.179ZM6.343,4.35c1.511-1.511,3.518-2.343,5.654-2.343h.003c2.137,0,4.146,.832,5.656,2.343,1.511,1.511,2.343,3.52,2.343,5.657s-.832,4.146-2.336,5.648l-.301,.294-2.844-2.844c.917-.746,1.48-1.88,1.48-3.106,0-2.206-1.794-4-4-4-1.227,0-2.36,.563-3.106,1.48l-2.833-2.833c.091-.101,.185-.2,.282-.297Zm6.748,7.327l-2.768-2.768c.363-.557,.991-.909,1.677-.909,1.103,0,2,.897,2,2,0,.685-.352,1.313-.909,1.677Zm1.413,7.07l1.414,1.414-3.918,3.833-7.063-6.908c-2.782-2.782-3.608-6.792-2.403-10.308l1.624,1.624c-.524,2.555,.218,5.295,2.185,7.263l5.657,5.532,2.504-2.449Z"/></svg>
