<?xml version="1.0" encoding="UTF-8"?>
<svg xmlns="http://www.w3.org/2000/svg" id="Layer_1" data-name="Layer 1" viewBox="0 0 24 24">
  <path d="m11.989,5.989c-2.206,0-4,1.794-4,4s1.794,4,4,4,4-1.794,4-4-1.794-4-4-4Zm0,6c-1.103,0-2-.897-2-2s.897-2,2-2,2,.897,2,2-.897,2-2,2Zm11.999,6.505c-.051-.469-.263-.912-.598-1.25l-3.364-3.363c.002.009.004.018,0,0h0c-.001-.006-.003-.013-.003-.01-.06-.284.053-.697.319-.868.499-.322.903-.759,1.201-1.297.285-.515.435-1.105.432-1.701.003-.604-.146-1.195-.432-1.709-.298-.538-.702-.975-1.202-1.297-.268-.173-.405-.48-.34-.765.134-.593.114-1.2-.06-1.805-.329-1.148-1.247-2.065-2.395-2.394-.605-.173-1.212-.195-1.804-.059-.285.063-.591-.073-.764-.34-.321-.499-.758-.903-1.297-1.202-1.044-.58-2.342-.58-3.387,0-.539.299-.975.703-1.296,1.201-.173.268-.478.405-.765.341-.591-.135-1.198-.115-1.803.059-1.148.329-2.066,1.247-2.395,2.394-.174.606-.194,1.213-.06,1.805.064.284-.072.591-.341.765-.499.323-.903.759-1.201,1.297-.285.515-.435,1.105-.432,1.701-.003.604.146,1.195.431,1.709.298.538.703.975,1.203,1.298.265.171.374.602.315.886,0,.002,0,.005-.002.011-.005.022-.003.012,0,0l-3.347,3.347c-.332.335-.543.778-.595,1.246-.126,1.146.704,2.182,1.851,2.31l1.2.133.131,1.181c.048.478.261.929.602,1.27.222.222.495.393.781.492.23.083.468.122.705.122.549,0,1.086-.215,1.475-.613l3.726-3.727c.475.227.994.341,1.513.341.523,0,1.045-.116,1.523-.347l3.723,3.723c.396.405.937.623,1.486.623.233,0,.468-.039.694-.12.295-.103.568-.273.79-.496.341-.342.554-.793.599-1.257l.133-1.192,1.2-.133c1.146-.127,1.977-1.163,1.851-2.309Zm-18.743,3.501l-.063-.087-.313-2.784-2.791-.31c-.051-.005-.089-.052-.06-.156l2.335-2.335c.447.787,1.194,1.389,2.078,1.642.605.173,1.213.194,1.804.059.268-.062.558.058.735.298l-3.725,3.672Zm8.054-4.714c-.141.219-.338.399-.586.537-.439.243-1.008.243-1.448,0-.247-.137-.444-.318-.585-.537-.518-.801-1.397-1.271-2.307-1.271-.193,0-.388.021-.581.065-.26.058-.533.048-.811-.032-.483-.138-.885-.54-1.023-1.023-.08-.278-.09-.551-.031-.811.25-1.1-.235-2.26-1.206-2.887-.22-.142-.401-.339-.538-.587-.119-.215-.182-.468-.181-.74-.001-.263.062-.516.181-.731.137-.247.317-.444.537-.586.972-.627,1.456-1.787,1.207-2.888-.059-.26-.048-.532.032-.811.138-.483.54-.884,1.023-1.022.278-.079.551-.09.81-.032,1.098.25,2.261-.234,2.888-1.207.141-.219.338-.399.585-.537.439-.243,1.008-.243,1.448,0,.248.138.445.318.586.537.627.972,1.788,1.455,2.887,1.206.261-.058.533-.047.811.032.483.138.885.54,1.024,1.023.08.278.09.551.031.811-.25,1.1.234,2.261,1.206,2.887.22.142.4.339.537.586h0c.119.216.182.469.181.74.001.263-.062.516-.181.731-.137.247-.317.445-.536.586-.972.627-1.457,1.788-1.207,2.887.059.261.049.534-.031.812-.139.483-.541.885-1.024,1.023-.275.08-.548.091-.809.032-1.098-.249-2.26.235-2.888,1.207Zm8.618,1.533l-2.791.31-.309,2.783-.059.085-.096-.021h-.004s-3.649-3.648-3.649-3.648c.177-.24.465-.361.736-.299.592.135,1.198.113,1.803-.059.885-.253,1.633-.857,2.08-1.645l2.372,2.392c.006.05-.032.097-.083.103ZM3.949,13.899h0c.002-.008.004-.016.003-.011,0,.004-.001.008-.002.011Z"/>
</svg>
