<?xml version="1.0" encoding="UTF-8"?>
<svg xmlns="http://www.w3.org/2000/svg" id="Layer_1" data-name="Layer 1" viewBox="0 0 24 24" width="512" height="512"><path d="M23.434,6.915c-.478-.581-1.183-.915-1.935-.915h-5.499V2h-3V0h-2V2h-3V6H2.501c-.752,0-1.457,.334-1.935,.915C.09,7.497-.099,8.253,.049,8.99l1.803,9.01h6.148v6h8v-6h6.148l1.803-9.01c.147-.737-.041-1.493-.518-2.075Zm-13.434,5.085v-4h4v4h-4Zm0-8h4v2h-4v-2ZM2.113,8.184c.057-.068,.182-.184,.388-.184h5.499v4H2.69l-.68-3.402c-.04-.201,.048-.346,.104-.414Zm11.887,13.816h-4v-4h4v4ZM3.49,16l-.4-2H20.91l-.4,2H3.49Zm18.5-7.402l-.68,3.402h-5.31v-4h5.499c.206,0,.331,.115,.388,.184,.056,.068,.144,.213,.104,.414Z"/></svg>
