<?xml version="1.0" encoding="UTF-8"?>
<svg xmlns="http://www.w3.org/2000/svg" id="Layer_1" data-name="Layer 1" viewBox="0 0 24 24">
  <path d="m8,22.5c0,.828-.672,1.5-1.5,1.5s-1.5-.672-1.5-1.5.672-1.5,1.5-1.5,1.5.672,1.5,1.5Zm9.5-1.5c-.828,0-1.5.672-1.5,1.5s.672,1.5,1.5,1.5,1.5-.672,1.5-1.5-.672-1.5-1.5-1.5ZM1.5,18c-.828,0-1.5.672-1.5,1.5s.672,1.5,1.5,1.5,1.5-.672,1.5-1.5-.672-1.5-1.5-1.5Zm10.5,0c-.828,0-1.5.672-1.5,1.5s.672,1.5,1.5,1.5,1.5-.672,1.5-1.5-.672-1.5-1.5-1.5Zm10.5,0c-.828,0-1.5.672-1.5,1.5s.672,1.5,1.5,1.5,1.5-.672,1.5-1.5-.672-1.5-1.5-1.5Zm-1.462-9h2.962v2h-2.458c.038.151.077.302.113.459.2.879.345,1.514.345,2.041,0,2.481-2.019,4.5-4.5,4.5s-4.5-2.019-4.5-4.5c0-.84.079-1.677.224-2.5h-2.586c.047.263.092.514.131.737.134.766.23,1.32.23,1.763,0,2.481-2.019,4.5-4.5,4.5s-4.5-2.019-4.5-4.5c0-.797.095-1.641.266-2.5H0v-2h2.803C4.391,4.426,8.325.012,14.5.012c-1.46.128-3.603,2.345-4.096,3.826-.468,1.403-.337,3.39-.09,5.162h3.432c1.314-3.755,4.474-6.916,10.255-8-1.437.622-3.077,2.308-3.205,4.231-.109,1.631.03,2.773.243,3.769Zm-12.038,4.5c0-.27-.291-1.925-.291-1.925-.358-2-.874-4.881-.475-7.256-2.785,2.375-4.234,6.146-4.234,9.181,0,1.378,1.122,2.5,2.5,2.5s2.5-1.122,2.5-2.5Zm11,0c0-.303-.473-2.312-.566-2.658-.374-1.39-.798-2.962-.645-5.575-3.187,2.416-3.789,5.93-3.789,8.234,0,1.378,1.122,2.5,2.5,2.5s2.5-1.122,2.5-2.5Z"/>
</svg>
