<?xml version="1.0" encoding="UTF-8"?>
<svg xmlns="http://www.w3.org/2000/svg" id="Layer_1" data-name="Layer 1" viewBox="0 0 24 24">
  <path d="m12,6c-3.309,0-6,2.691-6,6s2.691,6,6,6,6-2.691,6-6-2.691-6-6-6Zm0,10c-2.206,0-4-1.794-4-4s1.794-4,4-4,4,1.794,4,4-1.794,4-4,4Zm-9,6h4v2H3c-1.654,0-3-1.346-3-3v-4h2v4c0,.552.448,1,1,1Zm19-5h2v4c0,1.654-1.346,3-3,3h-4v-2h4c.552,0,1-.448,1-1v-4Zm2-14v4h-2V3c0-.552-.448-1-1-1h-4V0h4c1.654,0,3,1.346,3,3ZM2,7H0V3C0,1.346,1.346,0,3,0h4v2H3c-.552,0-1,.448-1,1v4Z"/>
</svg>
