<?xml version="1.0" encoding="UTF-8"?>
<svg xmlns="http://www.w3.org/2000/svg" id="Layer_1" data-name="Layer 1" viewBox="0 0 24 24">
  <path d="m21,0h-7.655l1.783,2h5.873c.552,0,1,.448,1,1v9.717c-.304.177-.643.283-1,.283-1.103,0-2-.897-2-2h-2c0,1.103-.897,2-2,2s-2-.897-2-2h-2c0,1.103-.897,2-2,2s-2-.897-2-2h-2c0,1.103-.897,2-2,2-.357,0-.696-.106-1-.283V3c0-.552.449-1,1-1h5.874l1.782-2H3C1.346,0,0,1.346,0,3v21h24V3c0-1.654-1.346-3-3-3ZM2,22v-7.135c.325.084.659.135,1,.135,1.2,0,2.266-.542,3-1.382.734.84,1.8,1.382,3,1.382s2.266-.542,3-1.382c.734.84,1.8,1.382,3,1.382s2.266-.542,3-1.382c.734.84,1.799,1.382,3,1.382.341,0,.675-.051,1-.135v7.135H2Zm7.878-13.879c.567.566,1.32.879,2.122.879s1.555-.312,2.121-.879c1.17-1.17,1.17-3.072.039-4.2l-2.16-2.424-2.122,2.382c-1.168,1.17-1.168,3.072,0,4.242Z"/>
</svg>
