<?xml version="1.0" encoding="UTF-8"?>
<svg xmlns="http://www.w3.org/2000/svg" id="Layer_1" data-name="Layer 1" viewBox="0 0 24 24" width="512" height="512"><path d="M16,4l2.67-1.33,1.33-2.67,1.33,2.67,2.67,1.33-2.67,1.33-1.33,2.67-1.33-2.67-2.67-1.33Zm-.5,2l-1.17,2.33-2.33,1.17,2.33,1.17,1.17,2.33,1.17-2.33,2.33-1.17-2.33-1.17-1.17-2.33Zm7.32,.82l1.18-.59V24H0V3C0,1.35,1.35,0,3,0h14.76l-.59,1.18-1.65,.82H3c-.55,0-1,.45-1,1V11.59l3-3,9,9,4-4,4,4V8.47l.82-1.65Zm-.82,15.18v-1.59l-4-4-4,4L5,11.41l-3,3v7.59H22ZM8,6.5c0,.83,.67,1.5,1.5,1.5s1.5-.67,1.5-1.5-.67-1.5-1.5-1.5-1.5,.67-1.5,1.5Z"/></svg>
