<?xml version="1.0" encoding="UTF-8"?>
<svg xmlns="http://www.w3.org/2000/svg" id="Layer_1" data-name="Layer 1" viewBox="0 0 24 24">
  <path d="m7.058,4.962c.839,0,1.595.346,2.139.901-1.325.9-2.198,2.419-2.198,4.138,0,.328.036.647.097.958-.013,0-.025.004-.038.004-1.657,0-3-1.343-3-3s1.343-3,3-3Zm9.942,5.038c0,.339-.035.67-.1.99.034.001.066.01.1.01,1.657,0,3-1.343,3-3s-1.343-3-3-3c-.841,0-1.599.349-2.144.906,1.293.905,2.144,2.399,2.144,4.094Zm-5,3c1.657,0,3-1.343,3-3s-1.343-3-3-3-3,1.343-3,3,1.343,3,3,3ZM2,21v-4H0v4c0,1.654,1.346,3,3,3h4v-2H3c-.551,0-1-.448-1-1Zm20,0c0,.552-.449,1-1,1h-4v2h4c1.654,0,3-1.346,3-3v-4h-2v4ZM21,0h-4v2h4c.551,0,1,.448,1,1v4h2V3c0-1.654-1.346-3-3-3ZM2,3c0-.552.449-1,1-1h4V0H3C1.346,0,0,1.346,0,3v4h2V3Zm11.5,12h-3c-1.378,0-2.5,1.121-2.5,2.5v1.5h2v-1.5c0-.275.224-.5.5-.5h3c.276,0,.5.225.5.5v1.5h2v-1.5c0-1.379-1.122-2.5-2.5-2.5Zm-5-2h-3c-1.378,0-2.5,1.121-2.5,2.5v1.5h2v-1.5c0-.275.224-.5.5-.5h1.262c.603-.899,1.528-1.555,2.602-1.837-.27-.1-.559-.163-.864-.163Zm10,2c.276,0,.5.225.5.5v1.5h2v-1.5c0-1.379-1.122-2.5-2.5-2.5h-3c-.305,0-.594.063-.864.163,1.075.282,1.999.938,2.602,1.837h1.262Z"/>
</svg>
