<?xml version="1.0" encoding="UTF-8"?>
<svg xmlns="http://www.w3.org/2000/svg" id="Layer_1" data-name="Layer 1" viewBox="0 0 24 24">
  <path d="m17.163,13c.434,1.441,1.757,2.5,3.337,2.5,1.93,0,3.5-1.57,3.5-3.5s-1.57-3.5-3.5-3.5c-1.58,0-2.903,1.059-3.337,2.5h-1.163v-6c0-.275.225-.5.5-.5h.663c.434,1.441,1.757,2.5,3.337,2.5,1.93,0,3.5-1.57,3.5-3.5s-1.57-3.5-3.5-3.5c-1.58,0-2.903,1.059-3.337,2.5h-.663c-1.379,0-2.5,1.121-2.5,2.5v6h-2v2h2v6c0,1.379,1.121,2.5,2.5,2.5h.663c.434,1.441,1.757,2.5,3.337,2.5,1.93,0,3.5-1.57,3.5-3.5s-1.57-3.5-3.5-3.5c-1.58,0-2.903,1.059-3.337,2.5h-.663c-.275,0-.5-.225-.5-.5v-6h1.163Zm3.337-2.5c.827,0,1.5.673,1.5,1.5s-.673,1.5-1.5,1.5-1.5-.673-1.5-1.5.673-1.5,1.5-1.5Zm0-8.5c.827,0,1.5.673,1.5,1.5s-.673,1.5-1.5,1.5-1.5-.673-1.5-1.5.673-1.5,1.5-1.5Zm0,17c.827,0,1.5.673,1.5,1.5s-.673,1.5-1.5,1.5-1.5-.673-1.5-1.5.673-1.5,1.5-1.5Zm-9.8-10.861l-1.411.813c-.605-.652-1.393-1.126-2.29-1.331v-1.621h-2v1.621c-.896.205-1.685.679-2.29,1.331l-1.411-.813-.998,1.732,1.416.816c-.129.418-.218.853-.218,1.313s.089.895.218,1.313l-1.416.816.998,1.732,1.411-.813c.605.652,1.393,1.126,2.29,1.331v1.621h2v-1.621c.896-.205,1.685-.679,2.29-1.331l1.411.813.998-1.732-1.416-.816c.129-.418.218-.853.218-1.313s-.089-.895-.218-1.313l1.416-.816-.998-1.732Zm-4.7,6.361c-1.379,0-2.5-1.121-2.5-2.5s1.121-2.5,2.5-2.5,2.5,1.121,2.5,2.5-1.121,2.5-2.5,2.5Z"/>
</svg>
