<?xml version="1.0" encoding="UTF-8"?>
<svg xmlns="http://www.w3.org/2000/svg" id="Layer_1" data-name="Layer 1" viewBox="0 0 24 24">
  <path d="m21.907,17.296c-.555-5.277-3.563-11.683-8.131-13.037.447-.452.724-1.073.724-1.759,0-1.381-1.119-2.5-2.5-2.5s-2.5,1.119-2.5,2.5c0,.686.276,1.307.724,1.759-4.568,1.354-7.576,7.76-8.131,13.037-1.231.543-2.093,1.775-2.093,3.204,0,1.93,1.57,3.5,3.5,3.5h17c1.93,0,3.5-1.57,3.5-3.5,0-1.429-.862-2.661-2.093-3.204ZM12,6c3.827,0,7.167,5.639,7.866,11H4.134c.087-.666.214-1.337.379-2h12.913c-.191-.69-.425-1.362-.692-2H5.127c1.415-3.839,4.008-7,6.873-7Zm8.5,16H3.5c-.827,0-1.5-.673-1.5-1.5s.673-1.5,1.5-1.5h17c.827,0,1.5.673,1.5,1.5s-.673,1.5-1.5,1.5Z"/>
</svg>
