<?xml version="1.0" encoding="UTF-8"?>
<svg xmlns="http://www.w3.org/2000/svg" id="Layer_1" data-name="Layer 1" viewBox="0 0 24 24">
  <path d="m23.967,22.553l-6.223-6.223c1.412-1.725,2.262-3.927,2.262-6.324C20.006,4.492,15.52.006,10.006.006S.006,4.492.006,10.006s4.486,10,10,10c2.398,0,4.6-.85,6.324-2.262l6.223,6.223,1.414-1.414Zm-13.961-4.547c-4.411,0-8-3.589-8-8S5.595,2.006,10.006,2.006s8,3.589,8,8-3.589,8-8,8Zm5.201-10.674l-.98.98.98.98-1.414,1.414-.98-.98-.98.98-1.414-1.414.98-.98-.98-.98,1.414-1.414.98.98.98-.98,1.414,1.414Zm-9,3.375l-1.414-1.414.98-.98-.98-.98,1.414-1.414.98.98.98-.98,1.414,1.414-.98.98.98.98-1.414,1.414-.98-.98-.98.98Zm7.646,2.43l-1.008,1.727c-1.961-1.145-3.727-1.145-5.688,0l-1.009-1.727c2.58-1.508,5.124-1.509,7.705,0Z"/>
</svg>
