<?xml version="1.0" encoding="UTF-8"?>
<svg xmlns="http://www.w3.org/2000/svg" id="Layer_1" data-name="Layer 1" viewBox="0 0 24 24">
  <path d="m24,10c0-2.757-2.243-5-5-5h-2v-1c0-1.654-1.346-3-3-3H3C1.346,1,0,2.346,0,4v2.308l2-2v-.308c0-.551.448-1,1-1h11c.552,0,1,.449,1,1v13H2v-1.309l-2-2v5.309h2.041c-.024.165-.041.331-.041.5,0,1.93,1.57,3.5,3.5,3.5s3.5-1.57,3.5-3.5c0-.169-.017-.335-.041-.5h6.082c-.024.165-.041.331-.041.5,0,1.93,1.57,3.5,3.5,3.5s3.5-1.57,3.5-3.5c0-.169-.017-.335-.041-.5h2.041v-9ZM7,19.5c0,.827-.673,1.5-1.5,1.5s-1.5-.673-1.5-1.5c0-.19.039-.356.093-.5h2.814c.054.144.093.31.093.5Zm12-12.5c1.654,0,3,1.346,3,3v1h-5v-4h2Zm1,12.5c0,.827-.673,1.5-1.5,1.5s-1.5-.673-1.5-1.5c0-.19.039-.356.093-.5h2.814c.054.144.093.31.093.5Zm-3-2.5v-4h5v4h-5ZM5.482,6.482l-2.518,2.518h8.035v2H2.965l2.518,2.518-1.414,1.414-3.518-3.518c-.78-.78-.78-2.048,0-2.828l3.518-3.518,1.414,1.414Z"/>
</svg>
