<?xml version="1.0" encoding="UTF-8"?>
<svg xmlns="http://www.w3.org/2000/svg" id="Layer_1" data-name="Layer 1" viewBox="0 0 24 24">
  <path d="m24.019,18.231c0,.742-.273,1.455-.772,2.01l-3.391,3.759h-2.693l4.599-5.098c.166-.185.258-.423.258-.671V6c0-.551-.448-1-1-1s-1.02.449-1.02,1v8c0,.684-.218,1.369-.683,1.922l-2.577,2.684-1.441-1.386,2.532-2.634c.13-.157.192-.369.189-.586h0v-.043c-.013-.221-.094-.447-.255-.625-.177-.198-.421-.315-.687-.33-.261-.014-.521.075-.719.252l-2.909,2.677c.365.507.57,1.121.57,1.755v6.314h-2v-6.314c0-.279-.118-.547-.323-.735l-4.027-3.705c-.399-.357-1.03-.322-1.396.086-.329.367-.338.928-.021,1.305l2.571,2.67-1.441,1.387-2.616-2.721c-.488-.58-.761-1.28-.766-1.973l.019-8c0-.551-.449-1-1-1s-1,.449-1,1h0v12.231c0,.248.092.486.258.671l4.599,5.098h-2.693l-3.391-3.759c-.499-.555-.772-1.268-.772-2.01V6c0-1.654,1.346-3,3-3s3,1.346,3,3v5.185c.999-.352,2.151-.177,2.996.579l3.005,2.764,2.995-2.756c.604-.543,1.361-.81,2.173-.769.29.016.566.086.832.18v-5.184c0-1.654,1.346-3,3-3s2.98,1.346,2.98,3l.019,12.231ZM11.502,7c.53,0,1.06-.201,1.46-.602l5.034-4.954L16.594.018l-5.04,4.959c-.03.029-.078.029-.108,0l-3.051-3.051-1.414,1.414,3.051,3.051c.405.406.938.608,1.47.608Z"/>
</svg>
