<?xml version="1.0" encoding="UTF-8"?>
<svg xmlns="http://www.w3.org/2000/svg" id="Layer_1" data-name="Layer 1" viewBox="0 0 24 24">
  <path d="m22,0h-4v2h2.586l-5.111,5.111c-.981-.699-2.181-1.111-3.475-1.111s-2.494.412-3.475,1.111l-1.52-1.52,1.465-1.465-1.414-1.414-1.465,1.465-2.177-2.177h2.586V0H2C.897,0,0,.897,0,2v4h2v-2.586l2.177,2.177-1.621,1.621,1.414,1.414,1.621-1.621,1.52,1.52c-.699.981-1.111,2.181-1.111,3.475,0,2.968,2.166,5.439,5,5.916v2.084h-2v2h2v2h2v-2h2v-2h-2v-2.084c2.834-.477,5-2.948,5-5.916,0-1.294-.412-2.494-1.111-3.475l5.111-5.111v2.586h2V2c0-1.103-.897-2-2-2Zm-10,16c-2.206,0-4-1.794-4-4s1.794-4,4-4,4,1.794,4,4-1.794,4-4,4Z"/>
</svg>
