<?xml version="1.0" encoding="UTF-8"?>
<svg xmlns="http://www.w3.org/2000/svg" id="Layer_1" data-name="Layer 1" viewBox="0 0 24 24" width="512" height="512"><path d="m0,21c0,1.654,1.346,3,3,3h18c1.654,0,3-1.346,3-3v-8H0v8Zm5-6h2v2c0,.552-.449,1-1,1s-1-.448-1-1v-2Zm4,0h2v2c0,.552-.449,1-1,1s-1-.448-1-1v-2Zm4,0h2v2c0,.552-.449,1-1,1s-1-.448-1-1v-2Zm4,0h2v2c0,.552-.449,1-1,1s-1-.448-1-1v-2Zm-15,0h1v2c0,1.654,1.346,3,3,3,.768,0,1.469-.29,2-.766.531.476,1.232.766,2,.766s1.469-.29,2-.766c.531.476,1.232.766,2,.766s1.469-.29,2-.766c.531.476,1.232.766,2,.766,1.654,0,3-1.346,3-3v-2h1v6c0,.552-.449,1-1,1H3c-.551,0-1-.448-1-1v-6ZM21,0H3C1.346,0,0,1.346,0,3v8h24V3c0-1.654-1.346-3-3-3Zm-10,9h-2v-3c0-.552.449-1,1-1s1,.448,1,1v3Zm-4,0h-2v-2c0-.552.449-1,1-1s1,.448,1,1v2Zm6,0v-3c0-.552.449-1,1-1s1,.448,1,1v3h-2Zm4,0v-2c0-.552.449-1,1-1s1,.448,1,1v2h-2Zm5,0h-1v-2c0-1.654-1.346-3-3-3-.535,0-1.037.141-1.472.388-.534-.833-1.467-1.388-2.528-1.388-.768,0-1.469.29-2,.766-.531-.476-1.232-.766-2-.766-1.061,0-1.994.554-2.528,1.388-.435-.246-.937-.388-1.472-.388-1.654,0-3,1.346-3,3v2h-1V3c0-.552.449-1,1-1h18c.551,0,1,.448,1,1v6Z"/></svg>
