<?xml version="1.0" encoding="UTF-8"?>
<svg xmlns="http://www.w3.org/2000/svg" id="Layer_1" data-name="Layer 1" viewBox="0 0 24 24">
  <path d="m10,12h2v2h-2v2h-2v-2h-2v-2h2v-2h2v2Zm14-3.5c0,4.159-3.046,7.714-7.122,8.381-.663,4.031-4.162,7.119-8.378,7.119C3.813,24,0,20.187,0,15.5c0-4.213,3.084-7.71,7.112-8.376C7.774,3.069,11.312,0,15.5,0c4.687,0,8.5,3.813,8.5,8.5Zm-9,7c0-3.584-2.916-6.5-6.5-6.5s-6.5,2.916-6.5,6.5,2.916,6.5,6.5,6.5,6.5-2.916,6.5-6.5Zm7-7c0-3.584-2.916-6.5-6.5-6.5-3.058,0-5.657,2.142-6.327,5.034,4.143.327,7.454,3.632,7.791,7.772,2.904-.675,5.035-3.269,5.035-6.306Zm-5-5.5h-2v2h-2v2h2v2h2v-2h2v-2h-2v-2Z"/>
</svg>
