<?xml version="1.0" encoding="UTF-8"?>
<svg xmlns="http://www.w3.org/2000/svg" id="Layer_1" data-name="Layer 1" viewBox="0 0 24 24" width="512" height="512"><path d="M14.541,5.471c1.197-1.02,2.459-2.548,2.459-4.471V0H7V1c0,1.924,1.263,3.451,2.459,4.471C4.754,7.149,1,13.123,1,18c0,3.309,2.691,6,6,6h10c3.309,0,6-2.691,6-6,0-4.877-3.754-10.851-8.459-12.529Zm-5.334-3.471h5.582c-.521,1.256-1.89,2.31-2.783,2.852-.752-.46-2.251-1.512-2.799-2.852Zm7.793,20H7c-2.206,0-4-1.794-4-4,0-5.161,4.603-10.983,8.998-10.983,4.476,0,9.002,5.823,9.002,10.983,0,2.206-1.794,4-4,4Z"/></svg>
