<?xml version="1.0" encoding="UTF-8"?>
<svg xmlns="http://www.w3.org/2000/svg" id="Layer_1" data-name="Layer 1" viewBox="0 0 24 24">
  <path d="m23.999.972l-.028-.972h-.972C22.597,0,13.082.075,6.579,6.579.077,13.083,0,22.597,0,22.999v.972s1.071.03,1.186.03c1.482,0,9.941-.287,16.234-6.58C24.194,10.647,24.01,1.364,23.999.972Zm-7.992,15.035c-4.901,4.901-11.448,5.798-13.949,5.959.212-2.546,1.215-9.251,5.936-13.973,4.723-4.723,11.43-5.724,13.975-5.936-.156,2.497-1.044,9.032-5.961,13.95Zm-8.007-2.007c0-1.105.895-2,2-2s2,.895,2,2-.895,2-2,2-2-.895-2-2Zm4-4c0-1.105.895-2,2-2s2,.895,2,2-.895,2-2,2-2-.895-2-2Zm-4,8c0,1.105-.895,2-2,2s-2-.895-2-2,.895-2,2-2,2,.895,2,2Zm8-12c0-1.105.895-2,2-2s2,.895,2,2-.895,2-2,2-2-.895-2-2Z"/>
</svg>
