<?xml version="1.0" encoding="UTF-8"?>
<svg xmlns="http://www.w3.org/2000/svg" id="Layer_1" data-name="Layer 1" viewBox="0 0 24 24">
  <path d="m22.746,3.337l-.245-.244c-2.727-2.722-7.119-2.801-9.793-.18-.186.182-.36.372-.522.57l-3.05-1.906c-1.558-.973-3.596-.625-4.741.808L.681,7.027c-.914,1.141-.939,2.755-.062,3.926l1.772,2.363c-2.025,2.731-1.773,6.684.705,9.158l.245.245c.818.818,1.894,1.227,2.97,1.227s2.15-.409,2.97-1.227l13.466-13.447c.793-.792,1.23-1.846,1.23-2.967s-.438-2.175-1.231-2.968ZM2.242,8.276l3.715-4.644c.512-.64,1.426-.795,2.118-.36l6.906,4.317-3.759,3.759c-2.592-.384-5.366-.678-7.373.579l-1.631-2.175c-.33-.44-.32-1.047.023-1.476Zm5.625,13.028c-.857.856-2.253.857-3.112,0l-.245-.245c-1.912-1.909-1.98-5.04-.153-6.981.76-.806,1.938-1.064,3.299-1.064,1.226,0,2.602.209,3.955.415,1.261.192,2.54.386,3.732.41l-7.476,7.465Zm5.827-9.599l3.028-3.028,2.331,1.457-1.035,1.033c-.837.792-2.499.761-4.325.538Zm7.639-3.848l-.827.826-6.604-4.128c.066-.072.135-.144.207-.214,1.895-1.857,5.024-1.784,6.979.168l.245.244c.416.415.645.966.645,1.552s-.229,1.137-.645,1.552Z"/>
</svg>
