<?xml version="1.0" encoding="UTF-8"?>
<svg xmlns="http://www.w3.org/2000/svg" id="Layer_1" data-name="Layer 1" viewBox="0 0 24 24" width="512" height="512"><path d="M7,16v-2c3.009,0,5.308,1.159,6.832,3.445l-1.664,1.109c-1.703-2.555-4.22-2.555-5.168-2.555Zm2-7.5c0-.828-.672-1.5-1.5-1.5s-1.5,.672-1.5,1.5,.672,1.5,1.5,1.5,1.5-.672,1.5-1.5Zm10.972,1.5h.028v14h-2V14.24c-.716,.48-1.576,.76-2.5,.76-2.481,0-4.5-2.019-4.5-4.5s2.019-4.5,4.5-4.5c2.312,0,4.223,1.753,4.472,4Zm-1.972,.5c0-1.379-1.122-2.5-2.5-2.5s-2.5,1.121-2.5,2.5,1.122,2.5,2.5,2.5,2.5-1.121,2.5-2.5Zm6,1.5C24,5.383,18.617,0,12,0S0,5.383,0,12s5.383,12,12,12c1.404,0,2.747-.255,4-.7v-2.141c-1.226,.538-2.578,.841-4,.841-5.514,0-10-4.486-10-10S6.486,2,12,2s10,4.486,10,10v6.619c1.261-1.899,2-4.173,2-6.619Z"/></svg>
