<?xml version="1.0" encoding="UTF-8"?>
<svg xmlns="http://www.w3.org/2000/svg" id="Layer_1" data-name="Layer 1" viewBox="0 0 24 24">
  <path d="m21,5v-2h-2c0-1.654-1.346-3-3-3h-8c-1.654,0-3,1.346-3,3v6.625c-1.273.76-2,1.926-2,2.875,0,2.727,2.326,6.634,7.285,7.375-.528,2.378-3.285,1.412-3.285,4.125h10c0-2.713-2.757-1.746-3.285-4.125,4.959-.742,7.285-4.648,7.285-7.375,0-.948-.727-2.115-2-2.875v-4.625h2Zm-13-3h8c.552,0,1,.448,1,1v6.032l-10-.031V3c0-.552.448-1,1-1Zm4,16c-2.761,0-4.621-1.116-5.725-2.436,1.648.379,3.717.436,5.725.436s4.077-.058,5.725-.436c-1.104,1.32-2.964,2.436-5.725,2.436Zm0-4c-4.643,0-6.999-.505-7-1.498h0c.008-.276.575-1.131,1.806-1.502h10.389c1.229.371,1.798,1.226,1.806,1.5,0,.995-2.355,1.5-7,1.5Z"/>
</svg>
