<?xml version="1.0" encoding="UTF-8"?>
<svg xmlns="http://www.w3.org/2000/svg" id="Layer_1" data-name="Layer 1" viewBox="0 0 24 24">
  <path d="m24,15.574c-.809-2.045-2.369-3.565-4.235-4.397C19.731,3.572,18.397.015,15.571.005h-.014C12.419.005,11.238,4.148,10.665,8.382c-.319-.107-.668-.199-1.098-.272-2.125-.359-4.273.132-6.035,1.383l.471,1.504c3.084-.715,4.64-.282,5.994,1.142-.573,1.642-1.864,4.014-4.723,5.446-2.89,1.245-4.087,3.26-4.137,3.345l-.015.026H0v2h1.068l.216.222c.296.305,1.173.817,3.714.817,0,0,.002,0,.002,0,4.73,0,7.924-1.364,10.086-3.127-.066-.981-.193-1.763-.381-2.371-2.213,2.313-5.456,3.497-9.705,3.497h0c-1.026,0-1.648-.093-2-.177v-.076c.337-.45,1.306-1.564,3.115-2.345,2.846-1.423,4.418-3.59,5.282-5.428,2.612.451,5.411,1.036,5.711,7.141l1.392.386c1.075-2.168,1.433-4.545.859-6.59,1.068.178,2.199.604,3.423,1.442l1.219-.775Zm-9-3.491c-.606-.038-2.267-.532-2.471-2.467.73-6.249,2.036-7.611,3.03-7.611h.004c.985.004,2.125,2.341,2.198,8.797-.207.386-.886,1.281-2.761,1.281Z"/>
</svg>
