<?xml version="1.0" encoding="UTF-8"?>
<svg xmlns="http://www.w3.org/2000/svg" id="Layer_1" data-name="Layer 1" viewBox="0 0 24 24">
  <path d="m22.922,1.67c-.684-.571-1.577-.807-2.458-.648l-6.18,1.124c-.913.166-1.707.634-2.284,1.289-.578-.655-1.371-1.123-2.285-1.289L3.537,1.021c-.877-.161-1.774.076-2.459.648-.685.572-1.078,1.411-1.078,2.303v16.834l12,2.182,12-2.182V3.973c0-.892-.393-1.732-1.078-2.303Zm-11.922,19.104l-9-1.636V3.973c0-.407.225-.656.359-.768.134-.112.415-.29.82-.216l6.179,1.124c.952.173,1.642,1,1.642,1.968v14.694Zm11-1.636l-9,1.636V6.081c0-.967.69-1.795,1.642-1.968l6.18-1.124c.407-.071.686.104.819.216.135.112.359.361.359.768v15.165Zm-13.276-10.142l1.398,1.43-3.113,3.221c-.459.474-1.22.471-1.675-.007l-2.037-2.152,1.387-1.441,1.496,1.581,2.543-2.631Zm12.084.812l-1.793,1.793,1.793,1.793-1.414,1.414-1.793-1.793-1.793,1.793-1.414-1.414,1.793-1.793-1.793-1.793,1.414-1.414,1.793,1.793,1.793-1.793,1.414,1.414Z"/>
</svg>
