<?xml version="1.0" encoding="UTF-8"?>
<svg xmlns="http://www.w3.org/2000/svg" id="Layer_1" data-name="Layer 1" viewBox="0 0 24 24">
  <path d="m10,10c0,.378.271.698.644.76l3.041.507c1.342.223,2.315,1.373,2.315,2.733,0,1.654-1.346,3-3,3v2h-2v-2c-1.654,0-3-1.346-3-3h2c0,.551.448,1,1,1h2c.552,0,1-.449,1-1,0-.378-.271-.698-.644-.76l-3.041-.507c-1.342-.223-2.315-1.373-2.315-2.733,0-1.654,1.346-3,3-3v-2h2v2c1.654,0,3,1.346,3,3h-2c0-.551-.448-1-1-1h-2c-.552,0-1,.449-1,1Zm6.307-3.721l1.115-1.115c-.269-.495-.422-1.062-.422-1.664,0-1.93,1.57-3.5,3.5-3.5s3.5,1.57,3.5,3.5-1.57,3.5-3.5,3.5c-.602,0-1.169-.153-1.664-.422l-1.317,1.317c-.291-.621-.706-1.165-1.212-1.616Zm2.693-2.779c0,.827.673,1.5,1.5,1.5s1.5-.673,1.5-1.5-.673-1.5-1.5-1.5-1.5.673-1.5,1.5Zm-12.422,1.664l1.115,1.115c-.506.451-.921.995-1.212,1.616l-1.317-1.317c-.495.269-1.062.422-1.664.422-1.93,0-3.5-1.57-3.5-3.5S1.57,0,3.5,0s3.5,1.57,3.5,3.5c0,.602-.153,1.169-.422,1.664Zm-3.078-.164c.827,0,1.5-.673,1.5-1.5s-.673-1.5-1.5-1.5-1.5.673-1.5,1.5.673,1.5,1.5,1.5Zm20.5,15.5c0,1.93-1.57,3.5-3.5,3.5s-3.5-1.57-3.5-3.5c0-.602.153-1.169.422-1.664l-1.115-1.115c.506-.451.921-.995,1.212-1.616l1.317,1.317c.495-.269,1.062-.422,1.664-.422,1.93,0,3.5,1.57,3.5,3.5Zm-2,0c0-.827-.673-1.5-1.5-1.5s-1.5.673-1.5,1.5.673,1.5,1.5,1.5,1.5-.673,1.5-1.5Zm-14.307-2.779l-1.115,1.115c.269.495.422,1.062.422,1.664,0,1.93-1.57,3.5-3.5,3.5s-3.5-1.57-3.5-3.5,1.57-3.5,3.5-3.5c.602,0,1.169.153,1.664.422l1.317-1.317c.291.621.706,1.165,1.212,1.616Zm-2.693,2.779c0-.827-.673-1.5-1.5-1.5s-1.5.673-1.5,1.5.673,1.5,1.5,1.5,1.5-.673,1.5-1.5Z"/>
</svg>
