<?xml version="1.0" encoding="UTF-8"?>
<svg xmlns="http://www.w3.org/2000/svg" id="Layer_1" data-name="Layer 1" viewBox="0 0 24 24" width="512" height="512"><path d="m12,23.957l-.54-.346c-.386-.248-9.46-6.15-9.46-13.611C2,4.486,6.486,0,12,0s10,4.486,10,10c0,7.461-9.074,13.363-9.46,13.611l-.54.346Zm0-21.957c-4.411,0-8,3.589-8,8,0,5.417,6.123,10.212,8,11.555,1.877-1.343,8-6.138,8-11.555,0-4.411-3.589-8-8-8Zm5.98,6.02s-2.728-.248-3.968.992-.992,3.968-.992,3.968c0,0,2.728.248,3.968-.992s.992-3.968.992-3.968Zm-10.968,3.968c1.24,1.24,3.968.992,3.968.992,0,0,.248-2.728-.992-3.968s-3.968-.992-3.968-.992c0,0-.248,2.728.992,3.968Z"/></svg>
