<?xml version="1.0" encoding="UTF-8"?>
<svg xmlns="http://www.w3.org/2000/svg" id="Layer_1" data-name="Layer 1" viewBox="0 0 24 24">
  <path d="m17,10c-3.86,0-7,3.141-7,7s3.14,7,7,7,7-3.141,7-7-3.14-7-7-7Zm0,12c-2.757,0-5-2.243-5-5s2.243-5,5-5,5,2.243,5,5-2.243,5-5,5Zm1-6h2v2h-2v2h-2v-2h-2v-2h2v-2h2v2Zm-9.944,2.001H2.436l1.607-10.352c.17-.955.999-1.648,1.969-1.648h9.977c.97,0,1.798.693,1.969,1.648l.073.41c.738.084,1.449.257,2.122.509l-.227-1.27c-.341-1.91-1.997-3.297-3.938-3.297h-.16c.111-.313.172-.649.172-1C16,1.347,14.654,0,13,0h-4C7.346,0,6,1.347,6,3.001c0,.351.061.687.172,1h-.16c-1.94,0-3.597,1.387-3.941,3.319L.102,20.001h6.898c0,2.206,1.794,4,4,4,.11,0,.22-.005.328-.013-1.787-1.452-3.005-3.576-3.272-5.987Zm-.056-15c0-.552.449-1,1-1h4c.551,0,1,.448,1,1s-.449,1-1,1h-4c-.551,0-1-.448-1-1Z"/>
</svg>
