<?xml version="1.0" encoding="UTF-8"?>
<svg xmlns="http://www.w3.org/2000/svg" id="Layer_1" data-name="Layer 1" viewBox="0 0 24 24">
  <path d="m21,13h2c0,6.065-4.935,11-11,11S1,19.065,1,13h2c0,4.963,4.038,9,9,9s9-4.037,9-9Zm-11.491-6.967l.795.55,1.696-1.185,1.695,1.181.81-.549-.638-1.937,1.607-1.123-.244-.974h-2.119l-.521-1.995h-1.173l-.522,1.995h-2.13l-.242.982,1.605,1.118-.62,1.938Zm14.491.936l-.244-.974h-2.119l-.521-1.995h-1.173l-.522,1.995h-2.13l-.242.982,1.605,1.118-.62,1.938.795.55,1.696-1.185,1.695,1.181.81-.549-.638-1.937,1.607-1.123ZM1.781,10.583l1.696-1.185,1.695,1.181.81-.549-.638-1.937,1.607-1.123-.244-.974h-2.119l-.521-1.995h-1.173l-.522,1.995H.242l-.242.982,1.605,1.118-.62,1.938.795.55Zm13.219,1.417c0,.535-.141,1.037-.386,1.472.833.534,1.386,1.468,1.386,2.528,0,1.654-1.346,3-3,3h-4v-10h3c1.654,0,3,1.346,3,3Zm-4,1h1c.551,0,1-.449,1-1s-.449-1-1-1h-1v2Zm3,3c0-.552-.449-1-1-1h-2v2h2c.551,0,1-.448,1-1Z"/>
</svg>
