<?xml version="1.0" encoding="UTF-8"?>
<svg xmlns="http://www.w3.org/2000/svg" id="Layer_1" data-name="Layer 1" viewBox="0 0 24 24">
  <path d="m21.5,4.5c-1.381,0-2.5,1.119-2.5,2.5,0,.142.019.279.042.415l-2.91,2.116c-.62-.807-1.369-1.507-2.222-2.065l1.369-2.489c.074.007.146.022.222.022,1.381,0,2.5-1.119,2.5-2.5s-1.119-2.5-2.5-2.5-2.5,1.119-2.5,2.5c0,.573.201,1.095.525,1.516l-1.404,2.553c-.974-.362-2.022-.569-3.121-.569C4.037,6,0,10.038,0,15s4.037,9,9,9,9-4.037,9-9c0-1.34-.302-2.608-.83-3.751l2.966-2.157c.393.256.86.408,1.364.408,1.381,0,2.5-1.119,2.5-2.5s-1.119-2.5-2.5-2.5Zm-5.5,10.5c0,.594-.082,1.167-.222,1.718-.776-.036-1.671-.134-2.557-.362,1.037-.676,1.955-1.488,2.698-2.366.048.331.082.667.082,1.011Zm-2.105,4.994l-.005-.043c-.292.032-.59.049-.891.049-4.411,0-8-3.589-8-8,0-1.099.229-2.153.657-3.148.614-.335,1.285-.579,1.992-.718-.413,1.073-.649,2.207-.649,3.366,0,4.087,2.95,6.715,7.951,7.167-.299.484-.651.931-1.055,1.327Zm-4.895-8.494c0-1.204.31-2.377.87-3.44.869.109,1.691.372,2.431.77-.833,1.228-1.967,2.225-3.287,2.896-.003-.077-.015-.147-.015-.226Zm1.933,3.854c-.595-.413-1.097-.948-1.441-1.634,1.78-.807,3.307-2.095,4.417-3.702.486.479.904,1.028,1.234,1.631-.845,1.442-2.419,2.828-4.21,3.706Zm-8.933-.354c0-1.337.384-2.583,1.037-3.647-.014.215-.037.429-.037.647,0,4.763,3.351,8.753,7.817,9.752-.58.156-1.187.248-1.817.248-3.859,0-7-3.141-7-7Z"/>
</svg>
