<?xml version="1.0" encoding="UTF-8"?>
<svg xmlns="http://www.w3.org/2000/svg" id="Layer_1" data-name="Layer 1" viewBox="0 0 24 24" width="512" height="512"><path d="M23.286,7.057c-.571-.672-1.404-1.057-2.286-1.057h-7.581L9.364,1.879c-1.134-1.134-3.11-1.134-4.243,0L0,7v15H13.82l2-10h5.073c1.516,0,2.834-1.076,3.066-2.503,.143-.879-.103-1.768-.674-2.439Zm-1.3,2.118c-.076,.462-.556,.825-1.093,.825h-6.713l-2,10H2V7.828L6.536,3.293c.377-.378,1.042-.372,1.408-.006l2.669,2.713h-3.613v2h14c.294,0,.572,.128,.762,.353,.193,.228,.272,.52,.224,.823Z"/></svg>
