<?xml version="1.0" encoding="UTF-8"?>
<svg xmlns="http://www.w3.org/2000/svg" id="Layer_1" data-name="Layer 1" viewBox="0 0 24 24" width="512" height="512"><path d="M24,6v12.231c0,.742-.273,1.455-.772,2.01l-3.391,3.759h-2.693l4.599-5.098c.166-.185,.258-.423,.258-.671V6c0-.551-.448-1-1-1s-1,.449-1,1V14h-.005c0,.684-.231,1.369-.696,1.922l-2.578,2.685-1.441-1.387,2.533-2.634c.131-.157,.195-.368,.192-.586h-.004v-.074c-.019-.211-.102-.424-.255-.594-.177-.198-.421-.315-.687-.33-.264-.02-.521,.075-.72,.253l-2.908,2.675c.366,.507,.569,1.123,.569,1.756v6.314h-2v-6.314c0-.279-.117-.547-.322-.736l-4.026-3.705c-.189-.169-.446-.262-.71-.244-.266,.015-.51,.132-.687,.33-.329,.367-.339,.928-.022,1.305l2.571,2.67-1.441,1.387-2.616-2.721c-.488-.58-.73-1.28-.735-1.973h-.011V6c0-.551-.448-1-1-1s-1,.449-1,1v12.231c0,.248,.092,.486,.258,.671l4.599,5.098h-2.693l-3.391-3.759c-.499-.555-.772-1.268-.772-2.01V6c0-1.654,1.346-3,3-3s3,1.346,3,3v5.17c.265-.093,.544-.149,.832-.165,.79-.042,1.566,.226,2.163,.76l3.005,2.765,2.995-2.756c.605-.543,1.381-.812,2.173-.769,.288,.016,.567,.072,.832,.165V6c0-1.654,1.346-3,3-3s3,1.346,3,3Zm-12,3.914L7.086,5,12,.086l4.914,4.914-4.914,4.914Zm-2.086-4.914l2.086,2.086,2.086-2.086-2.086-2.086-2.086,2.086Z"/></svg>
