<?xml version="1.0" encoding="UTF-8"?>
<svg xmlns="http://www.w3.org/2000/svg" id="Layer_1" data-name="Layer 1" viewBox="0 0 24 24" width="512" height="512"><path d="m17,21.251l-2-1.996v2.746h-2v-4.742l-2-1.996v6.739h-2v-8.735l-1.541-1.538c-.286.346-.459.79-.459,1.273v3h-2c-1.103,0-2,.897-2,2v6h16.754l-2.004-2-.751-.749Zm-10,.749h-2v-4h2v4Zm14-2.409V2c0-1.103-.897-2-2-2h-2c-1.103,0-2,.897-2,2v3h-2c-1.103,0-2,.897-2,2v2.609L1.416.042.003,1.458l22.588,22.548,1.413-1.416-3.004-2.999ZM17,2h2v15.594l-2-1.996V2Zm-4,5h2v6.602l-2-1.996v-4.605Z"/></svg>
