<?xml version="1.0" encoding="UTF-8"?>
<svg xmlns="http://www.w3.org/2000/svg" id="Layer_1" data-name="Layer 1" viewBox="0 0 24 24">
  <path d="m22.399,9.493l-.668-.689c-.54-.558-.731-.899-.731-1.304,0-.409.107-.741.655-1.234l.784-.705L17.758.879c-1.132-1.133-3.109-1.135-4.243,0L1.879,12.515c-1.17,1.169-1.17,3.073,0,4.243l6.364,6.364c.585.585,1.353.877,2.122.877s1.536-.292,2.121-.877l9.807-9.807-.787-.705c-.325-.292-.505-.686-.505-1.11,0-.409.173-.716.738-1.311l.661-.696Zm-2.702.007c-.382.516-.678,1.139-.692,1.945l-2.05-2.05,2.056-2.056c-.002.054-.011.105-.011.161,0,.814.303,1.461.697,2Zm-11.64-.335l2.92-2.92,3.15,3.15-2.92,2.92-3.15-3.15Zm7.484,1.644l3.214,3.214-2.92,2.92-3.214-3.214,2.92-2.92Zm-.612-8.516c.189-.189.44-.293.707-.293s.518.104.707.293l2.443,2.443-3.245,3.245-3.15-3.15,2.538-2.538Zm-3.857,19.414c-.389.389-1.024.39-1.415,0l-6.364-6.364c-.39-.39-.39-1.024,0-1.415l3.35-3.35,7.778,7.778-3.35,3.35Z"/>
</svg>
