<?xml version="1.0" encoding="UTF-8"?>
<svg xmlns="http://www.w3.org/2000/svg" id="Layer_1" data-name="Layer 1" viewBox="0 0 24 24">
  <path d="m12,0C5.383,0,0,5.383,0,12s5.383,12,12,12,12-5.383,12-12S18.617,0,12,0Zm0,22c-5.514,0-10-4.486-10-10S6.486,2,12,2s10,4.486,10,10-4.486,10-10,10Zm-3.5-11.75c-.532,0-1.032.129-1.484.342.082-1.028.935-1.842,1.984-1.842h2v-2h-2c-2.206,0-4,1.794-4,4v3.5h.051c.245,1.692,1.691,3,3.449,3,1.93,0,3.5-1.57,3.5-3.5s-1.57-3.5-3.5-3.5Zm0,5c-.827,0-1.5-.673-1.5-1.5s.673-1.5,1.5-1.5,1.5.673,1.5,1.5-.673,1.5-1.5,1.5Zm8.5-4.25h2v2h-2v2h-2v-2h-2v-2h2v-2h2v2Z"/>
</svg>
