<?xml version="1.0" encoding="UTF-8"?>
<svg xmlns="http://www.w3.org/2000/svg" id="Layer_1" data-name="Layer 1" viewBox="0 0 24 24">
  <path d="m19.231,8c.248,0,.486.092.671.258l4.098,3.697v-2.693l-2.759-2.489c-.555-.499-1.268-.772-2.01-.772h-4.231v-2h-7V0H3C1.346,0,0,1.346,0,3v18c0,1.654,1.346,3,3,3h5v-4h7v-2.575l1.478,1.606c.566.616,1.371.969,2.208.969h5.314v-2h-5.314c-.279,0-.547-.118-.736-.323l-3.696-4.016c-.366-.409-.332-1.04.077-1.406.368-.328.928-.337,1.255-.066l2.721,2.616,1.386-1.441-2.771-2.661c-.553-.464-1.238-.695-1.922-.695v-2.006h4.231ZM3,2h3v2H2v-1c0-.551.449-1,1-1Zm-1,8c1.103,0,2,.897,2,2s-.897,2-2,2v-4Zm4,12h-3c-.551,0-1-.449-1-1v-1h4v2Zm7-4H2v-2c2.206,0,4-1.794,4-4s-1.794-4-4-4v-2h11v4.762s-.002.002-.003.003c-1.23,1.102-1.334,3-.223,4.241l.227.246v2.748Zm-2-8.5c0,.828-.672,1.5-1.5,1.5s-1.5-.672-1.5-1.5.672-1.5,1.5-1.5,1.5.672,1.5,1.5Zm0,5c0,.828-.672,1.5-1.5,1.5s-1.5-.672-1.5-1.5.672-1.5,1.5-1.5,1.5.672,1.5,1.5Z"/>
</svg>
