<?xml version="1.0" encoding="UTF-8"?>
<svg xmlns="http://www.w3.org/2000/svg" id="Layer_1" data-name="Layer 1" viewBox="0 0 24 24" width="512" height="512"><path d="M2,15.824V3C2,1.346,3.346,0,5,0h14c1.654,0,3,1.346,3,3V15.824l-2-4V3c0-.551-.448-1-1-1H5c-.552,0-1,.449-1,1V11.824l-2,4Zm19.55,6.753c.55-.891,.6-1.982,.131-2.919l-3.829-7.658H6.148l-3.829,7.658c-.469,.937-.419,2.028,.131,2.919,.551,.891,1.505,1.423,2.553,1.423h13.994c1.048,0,2.002-.532,2.553-1.423Zm-4.935-8.577l3.276,6.553c.226,.45,.045,.831-.044,.973-.088,.143-.347,.474-.851,.474H5.003c-.504,0-.763-.332-.851-.474-.089-.143-.27-.523-.044-.973l3.276-6.553h9.23Z"/></svg>
