<?xml version="1.0" encoding="UTF-8"?>
<svg xmlns="http://www.w3.org/2000/svg" id="Layer_1" data-name="Layer 1" viewBox="0 0 24 24">
  <path d="m7.503,7.124h0c0-.01,0-.021,0,0Zm8.994.002h0c0-.01,0-.021,0,0Zm7.501,7.819c-.036,1.118-.505,2.156-1.322,2.921-.807.756-1.836,1.131-2.864,1.131-1.119,0-2.234-.444-3.058-1.322-.091-.097-.249-.266-.572-.752-.729,3.86-1.831,7.077-4.182,7.077s-3.453-3.218-4.183-7.079c-.145.222-.267.396-.367.52-.827,1.024-2.041,1.557-3.265,1.557-.924,0-1.854-.303-2.627-.927-1.798-1.451-2.08-4.094-.629-5.892.694-.86,3.308-3.514,6.573-5.054,0,.01,0,.021,0,0,0-1.191.654-2.425,1.652-3.172-.349-1.044-.108-2.243.723-3.074,1.172-1.172,3.071-1.172,4.243,0,.832.832,1.072,2.03.723,3.074.998.747,1.652,1.983,1.652,3.174,0,.021,0,.011,0,0,3.004,1.43,5.427,3.813,6.369,4.818.766.816,1.167,1.882,1.131,3.001Zm-14.588-5.064c-.395-.259-.78-.567-1.1-.926-2.695,1.285-5.056,3.528-5.824,4.48-.758.939-.61,2.32.329,3.079.94.758,2.32.61,3.079-.329.221-.274.998-1.435,3.516-6.304Zm3.926,10.118h-2.671c.652,1.86,1.19,2,1.336,2s.683-.14,1.336-2Zm.98-4h-4.632c.137.758.275,1.421.412,2h3.808c.137-.579.275-1.242.412-2Zm.162-2c-.463-.852-1.02-1.906-1.692-3.214-.242.091-.42.148-.495.171l-.292.089-.292-.089c-.077-.023-.261-.082-.512-.177-.64,1.238-1.207,2.313-1.698,3.221h4.979Zm.022-7c0-.925-1.092-2-2.5-2s-2.5,1.075-2.5,2c0,.709,1.369,1.536,2.5,1.945,1.131-.409,2.5-1.236,2.5-1.945Zm6.908,6.313c-.67-.714-2.961-3.026-5.719-4.356-.323.362-.713.673-1.113.934,2.663,5.186,3.453,6.221,3.637,6.416.828.881,2.215.926,3.095.1.427-.4.672-.942.691-1.527.019-.584-.191-1.141-.591-1.568Z"/>
</svg>
