<?xml version="1.0" encoding="UTF-8"?>
<svg xmlns="http://www.w3.org/2000/svg" id="Layer_1" data-name="Layer 1" viewBox="0 0 24 24">
  <path d="m24,20h-2v2h-2v-2h-6v-2h8v-3h-2v-2h2v-6h-2v-2h2v-2c0-.551-.449-1-1-1H3c-.551,0-1,.449-1,1v4.67c-.761.282-1.432.65-2,1.084V3c0-.017,0-.035.001-.052C.029,1.318,1.363,0,3,0h18c1.654,0,3,1.346,3,3v17Zm-12-7.5v8c0,1.995-2.58,3.5-6,3.5s-6-1.505-6-3.5v-8c0-1.995,2.58-3.5,6-3.5s6,1.505,6,3.5Zm-2,8v-1.348c-1.046.533-2.435.848-4,.848s-2.954-.315-4-.848v1.348c0,.529,1.519,1.5,4,1.5s4-.971,4-1.5Zm0-4v-1.348c-1.046.533-2.435.848-4,.848s-2.954-.315-4-.848v1.348c0,.529,1.519,1.5,4,1.5s4-.971,4-1.5Zm0-4c0-.529-1.519-1.5-4-1.5s-4,.971-4,1.5,1.519,1.5,4,1.5,4-.971,4-1.5Zm4,.118v2.571c1.79-1.039,3-2.973,3-5.188,0-3.309-2.691-6-6-6-2.218,0-4.153,1.212-5.192,3.006.065,0,.127-.006.192-.006.759,0,1.48.068,2.162.186.725-.731,1.729-1.186,2.838-1.186,2.206,0,4,1.794,4,4,0,1.005-.385,1.914-1,2.618Z"/>
</svg>
