<?xml version="1.0" encoding="UTF-8"?>
<svg xmlns="http://www.w3.org/2000/svg" id="Layer_1" data-name="Layer 1" viewBox="0 0 24 24" width="512" height="512"><path d="M22.61,10c.26-.62,.39-1.3,.39-1.99,0-2.55-1.83-4.66-4.18-4.96,.09-.07,.18-.14,.26-.23C20.13,1.77,20,0,20,0c0,0-1.76-.13-2.81,.92-.06,.06-.12,.13-.18,.2-.16-.44-.34-.8-.48-1.06l-1.76,.96c.17,.32,.53,1.05,.66,1.99h-.69c-1,0-1.95,.32-2.75,.92-.63-.47-1.37-.78-2.17-.89,.09-.07,.18-.14,.26-.23C11.13,1.77,11,0,11,0c0,0-1.76-.13-2.81,.92-.06,.06-.12,.13-.18,.2-.16-.44-.34-.8-.48-1.06l-1.76,.96c.17,.32,.53,1.05,.66,1.99h-.69C3.13,3.01,1,5.25,1,8.01c0,.69,.14,1.37,.4,1.99H0v11c0,1.65,1.35,3,3,3H21c1.65,0,3-1.35,3-3V10h-1.39Zm-4.36-4.99c1.52,0,2.75,1.35,2.75,3,0,.74-.25,1.44-.7,1.99h-6.7c.26-.62,.4-1.3,.4-1.99,0-.94-.25-1.82-.67-2.57,.43-.28,.92-.43,1.42-.43h3.5ZM3,8.01c0-1.65,1.23-3,2.75-3h3.5c1.52,0,2.75,1.35,2.75,3,0,.74-.25,1.45-.7,1.99H3.7c-.45-.55-.7-1.26-.7-1.99Zm19,12.99c0,.55-.45,1-1,1H3c-.55,0-1-.45-1-1v-1H20v-2H2v-2H20v-2H2v-2H22v9Z"/></svg>
