<?xml version="1.0" encoding="UTF-8"?>
<svg xmlns="http://www.w3.org/2000/svg" id="Layer_1" data-name="Layer 1" viewBox="0 0 24 24" width="512" height="512"><path d="M21,8V3.394c0-1.358-.905-2.549-2.202-2.896-1.847-.492-3.719-.498-3.798-.498h-6c-.079,0-1.951,.006-3.798,.498-1.297,.347-2.202,1.537-2.202,2.896v4.606c0,.933-1.319,2.832-2,3.632v12.368H23V11.631c-.574-.673-2-2.658-2-3.631Zm-10,14H3v-5h5v-2H3v-2.644c.595-.754,2-2.71,2-4.356V3.394c0-.454,.295-.85,.718-.963,.556-.148,1.123-.246,1.626-.309l3.656,10.055v9.824ZM9.427,2h5.145l-2.573,7.074-2.573-7.074Zm11.573,13h-5v2h5v5H13V12.176l3.656-10.055c.503,.064,1.071,.161,1.626,.309,.423,.113,.718,.509,.718,.963v4.606c0,1.646,1.405,3.602,2,4.356v2.644Z"/></svg>
