<?xml version="1.0" encoding="UTF-8"?>
<svg xmlns="http://www.w3.org/2000/svg" id="Layer_1" data-name="Layer 1" viewBox="0 0 24 24" width="512" height="512"><path d="M2,19V3c0-.55,.45-1,1-1h2v6h11V2.82l3,3v2.41c.7,.16,1.37,.4,2,.72v-3.96L16.01,0H3C1.35,0,0,1.35,0,3V21H8.95c-.31-.63-.56-1.3-.72-2H2ZM7,6V2h7V6H7Zm3.5,4c.26,0,.5,.03,.74,.08-1.74,1.45-2.92,3.55-3.19,5.92-.65-.64-1.06-1.52-1.06-2.5,0-1.93,1.57-3.5,3.5-3.5Zm6.5,0c-3.86,0-7,3.14-7,7s3.14,7,7,7,7-3.14,7-7-3.14-7-7-7Zm0,12c-2.76,0-5-2.24-5-5s2.24-5,5-5,5,2.24,5,5-2.24,5-5,5Zm3.05-6.64l-1.64,1.64,1.64,1.64-1.41,1.41-1.64-1.64-1.64,1.64-1.41-1.41,1.64-1.64-1.64-1.64,1.41-1.41,1.64,1.64,1.64-1.64,1.41,1.41Z"/></svg>
