<?xml version="1.0" encoding="UTF-8"?>
<svg xmlns="http://www.w3.org/2000/svg" id="Layer_1" data-name="Layer 1" viewBox="0 0 24 24">
  <path d="m16,9.114V3.107c0-1.516-1.076-2.834-2.504-3.066-.88-.143-1.767.103-2.439.674-.672.571-1.057,1.404-1.057,2.286v5.07l-.139-.024c-.966-.159-1.942.109-2.688.741-.683.578-1.099,1.401-1.164,2.286L1.879,15.136c-.566.567-.879,1.32-.879,2.122s.312,1.555.918,2.159l5.113,4.584h14.969v-13.841l-6-1.045Zm4,12.886H7.797l-4.504-4.036c-.189-.188-.293-.439-.293-.707s.104-.518.287-.701l2.713-2.669v3.113h2v-5.683c0-.388.17-.754.466-1.005.295-.25.685-.358,1.061-.295l2.474.43V3c0-.294.129-.572.353-.762.228-.194.52-.273.822-.224.463.076.825.556.825,1.093v7.689l6,1.045v10.159Z"/>
</svg>
