<?xml version="1.0" encoding="UTF-8"?>
<svg xmlns="http://www.w3.org/2000/svg" id="Layer_1" data-name="Layer 1" viewBox="0 0 24 24" width="512" height="512"><path d="M21,10H7v-3h5V3c0-1.654-1.346-3-3-3H3C1.346,0,0,1.346,0,3V7H5v3H3c-1.654,0-3,1.346-3,3v11H24V13c0-1.654-1.346-3-3-3ZM2,3c0-.551,.448-1,1-1h6c.552,0,1,.449,1,1v2H2V3Zm1,9H21c.552,0,1,.449,1,1v5H2v-5c0-.551,.448-1,1-1Zm-1,10v-2H22v2H2Zm7-7c0-.552,.448-1,1-1s1,.448,1,1-.448,1-1,1-1-.448-1-1Zm-4,0c0-.552,.448-1,1-1s1,.448,1,1-.448,1-1,1-1-.448-1-1Zm8,0c0-.552,.448-1,1-1s1,.448,1,1-.448,1-1,1-1-.448-1-1Zm4,0c0-.552,.448-1,1-1s1,.448,1,1-.448,1-1,1-1-.448-1-1Z"/></svg>
