<?xml version="1.0" encoding="UTF-8"?>
<svg xmlns="http://www.w3.org/2000/svg" id="Layer_1" data-name="Layer 1" viewBox="0 0 24 24">
  <path d="m21.145,13l1.292-11.629-.812-.232c-.163-.046-4.049-1.139-9.625-1.139S2.538,1.092,2.375,1.139l-.812.232,1.292,11.629h18.29ZM13,2.013c.894.022,1.737.073,2.517.141l-.465,8.846h-2.051V2.013Zm-2,8.987h-2.051l-.465-8.846c.779-.068,1.622-.119,2.517-.141v8.987Zm8.355,0h-2.301l.454-8.623c1.194.164,2.136.35,2.752.486l-.904,8.137ZM6.492,2.377l.454,8.623h-2.301l-.904-8.137c.616-.137,1.558-.322,2.752-.486Zm15.097,12.623l.848,7.629-.812.232c-.163.046-4.049,1.139-9.625,1.139s-9.462-1.092-9.625-1.139l-.812-.232.848-7.629h2.012l-.682,6.137c.613.136,1.565.32,2.752.483l.348-6.62h2.003l-.36,6.842c.78.068,1.621.118,2.517.14v-6.983h2v6.983c.896-.023,1.737-.072,2.517-.14l-.36-6.842h2.003l.348,6.62c1.187-.164,2.139-.347,2.752-.483l-.682-6.137h2.012Z"/>
</svg>
