<?xml version="1.0" encoding="UTF-8"?>
<svg xmlns="http://www.w3.org/2000/svg" id="Layer_1" data-name="Layer 1" viewBox="0 0 24 24">
  <path d="m21.432,13.081c1.273-.972,2.568-2.97,2.568-7.081h-2c0,5.82-2.895,5.996-3,6h-4.723L8.603,1.063l-2.329,10.937h-1.757l1.761-7.99-1.603-2.748-2.286,10.739H0v1c0,1.513.483,2.915,1.302,4.061L0,23h2.056l.964-4.244c.502.348,1.051.632,1.636.841l-.725,3.404h2.046l.641-3.01c.126.007.253.01.381.01h9.174l1.556,3h2.253l-1.556-3h5.573v-2c0-2.033-1.017-3.833-2.568-4.919Zm-19.331.919h3.748l-.77,3.616c-1.508-.63-2.644-1.979-2.978-3.616Zm4.942,4l.852-4h2.914l-1.037-2h-1.451l1.078-5.062,4.701,9.062h2.253l-.579-1.116-.459-.884h2.686c2.206,0,4,1.794,4,4H7.042Z"/>
</svg>
