<?xml version="1.0" encoding="UTF-8"?>
<svg xmlns="http://www.w3.org/2000/svg" id="Layer_1" data-name="Layer 1" viewBox="0 0 24 24">
  <path d="m24,0v9c0,1.654-1.346,3-3,3h-1v12h-2v-12h-1c-1.654,0-3-1.346-3-3V0h2v9c0,.551.449,1,1,1h1V0h2v10h1c.551,0,1-.449,1-1V0h2ZM2,12C2,6.486,6.486,2,12,2V0C5.383,0,0,5.383,0,12s5.383,12,12,12c1.404,0,2.747-.255,4-.7v-2.141c-1.226.538-2.578.841-4,.841-5.514,0-10-4.486-10-10Zm4,0c0-3.309,2.691-6,6-6v-2c-4.411,0-8,3.589-8,8s3.589,8,8,8c1.458,0,2.822-.398,4-1.082v-2.458c-1.063.954-2.462,1.54-4,1.54-3.309,0-6-2.691-6-6Z"/>
</svg>
