<?xml version="1.0" encoding="UTF-8"?>
<svg xmlns="http://www.w3.org/2000/svg" id="Layer_1" data-name="Layer 1" viewBox="0 0 24 24" width="512" height="512"><path d="M8.5,11c-.828,0-1.5-.672-1.5-1.5s.672-1.5,1.5-1.5,1.5,.672,1.5,1.5-.672,1.5-1.5,1.5Zm7-3c-.828,0-1.5,.672-1.5,1.5s.672,1.5,1.5,1.5,1.5-.672,1.5-1.5-.672-1.5-1.5-1.5ZM12,0C5.383,0,0,5.383,0,12s5.383,12,12,12c2.388,0,4.61-.709,6.482-1.917-.104-.085-.215-.16-.311-.256-.3-.3-.58-.698-.863-1.367-1.54,.97-3.357,1.54-5.308,1.54-5.514,0-10-4.486-10-10S6.486,2,12,2s10,4.486,10,10c0,.995-.151,1.955-.423,2.863,.817,.361,1.37,.624,1.799,.928,.399-1.193,.624-2.466,.624-3.792C24,5.383,18.617,0,12,0ZM6,18h2v-4h-2v4Zm5-4h-2v4h2v-4Zm1,4h2v-4h-2v4Zm3,0h2v-4h-2v4Zm3.75-2c-.414,0-.75,.336-.75,.75,0,.088,.609,2.674,1.587,3.665,.387,.392,.902,.585,1.414,.585s1.024-.195,1.414-.585c.78-.78,.78-2.048,0-2.828-.816-.711-3.088-1.587-3.665-1.587Z"/></svg>
