<?xml version="1.0" encoding="UTF-8"?>
<svg xmlns="http://www.w3.org/2000/svg" id="Layer_1" data-name="Layer 1" viewBox="0 0 24 24" width="512" height="512"><path d="M17,9c0-2.206-1.794-4-4-4h-3c-1.654,0-3,1.346-3,3v10h2v-5h2.699l2.998,5h2.303l-3.052-5.126c1.747-.429,3.052-1.996,3.052-3.874Zm-4,2h-4v-3c0-.552,.449-1,1-1h3c1.103,0,2,.897,2,2s-.897,2-2,2ZM12,0C5.383,0,0,5.383,0,12s5.383,12,12,12,12-5.383,12-12S18.617,0,12,0Zm0,22c-5.514,0-10-4.486-10-10S6.486,2,12,2s10,4.486,10,10-4.486,10-10,10Z"/></svg>
