<?xml version="1.0" encoding="UTF-8"?>
<svg xmlns="http://www.w3.org/2000/svg" id="Layer_1" data-name="Layer 1" viewBox="0 0 24 24">
  <path d="m11.936,6.801l1.414,1.414-4.198,4.199c-.39.39-.902.585-1.414.585s-1.024-.195-1.414-.585l-2.673-2.673,1.414-1.414,2.673,2.673,4.198-4.199Zm12.064,12.199h-2.041c.024.165.041.331.041.5,0,1.93-1.57,3.5-3.5,3.5s-3.5-1.57-3.5-3.5c0-.169.017-.335.041-.5h-6.082c.024.165.041.331.041.5,0,1.93-1.57,3.5-3.5,3.5s-3.5-1.57-3.5-3.5c0-.169.017-.335.041-.5H0V4C0,2.346,1.346,1,3,1h11c1.654,0,3,1.346,3,3v1h2c2.757,0,5,2.243,5,5v9Zm-7-12v4h5v-1c0-1.654-1.346-3-3-3h-2Zm-10.093,12h-2.814c-.054.144-.093.31-.093.5,0,.827.673,1.5,1.5,1.5s1.5-.673,1.5-1.5c0-.19-.039-.356-.093-.5ZM15,4c0-.551-.448-1-1-1H3c-.552,0-1,.449-1,1v13h13V4Zm4.907,15h-2.814c-.054.144-.093.31-.093.5,0,.827.673,1.5,1.5,1.5s1.5-.673,1.5-1.5c0-.19-.039-.356-.093-.5Zm2.093-2v-4h-5v4h5Z"/>
</svg>
