<?xml version="1.0" encoding="UTF-8"?>
<svg xmlns="http://www.w3.org/2000/svg" id="Layer_1" data-name="Layer 1" viewBox="0 0 24 24" width="512" height="512"><path d="M17.927,5.062c-.452-2.864-2.938-5.062-5.927-5.062S6.525,2.197,6.073,5.062c-3.423,.454-6.073,3.393-6.073,6.938,0,3.859,3.14,7,7,7h4v5h2v-5h4c3.86,0,7-3.141,7-7,0-3.546-2.65-6.484-6.073-6.938Zm-.927,11.938h-4v-1.586l3.707-3.707-1.414-1.414-2.293,2.293v-3.586h-2v3.586l-2.293-2.293-1.414,1.414,3.707,3.707v1.586H7c-2.757,0-5-2.243-5-5s2.243-5,5-5h1v-1c0-2.206,1.794-4,4-4s4,1.794,4,4v1h1c2.757,0,5,2.243,5,5s-2.243,5-5,5Z"/></svg>
