<?xml version="1.0" encoding="UTF-8"?>
<svg xmlns="http://www.w3.org/2000/svg" id="Layer_1" data-name="Layer 1" viewBox="0 0 24 24">
  <path d="m24,9.119c0-2.271-1.794-4.119-4-4.119-.375,0-.785.083-1.216.216.134-.43.216-.841.216-1.216,0-2.206-1.848-4-4.119-4-1.105,0-2.144.499-2.881,1.377-.737-.878-1.775-1.377-2.881-1.377-2.271,0-4.119,1.794-4.119,4,0,.375.083.785.216,1.216-.43-.133-.841-.216-1.216-.216C1.794,5,0,6.848,0,9.119c0,1.105.499,2.144,1.377,2.881-.878.737-1.377,1.775-1.377,2.881,0,2.271,1.794,4.119,4,4.119.375,0,.785-.083,1.216-.216-.134.43-.216.841-.216,1.216,0,2.206,1.848,4,4.119,4,1.105,0,2.144-.499,2.881-1.377.737.878,1.775,1.377,2.881,1.377,2.271,0,4.119-1.794,4.119-4,0-.375-.083-.785-.216-1.216.43.134.841.216,1.216.216,2.206,0,4-1.848,4-4.119,0-1.105-.499-2.144-1.377-2.881.878-.737,1.377-1.775,1.377-2.881Zm-2.756,4.339c.481.361.756.879.756,1.422,0,1.023-.804,2.119-2,2.119-.561,0-1.762-.568-2.663-.995l-2.516-1.171,1.196,2.527c.415.877.983,2.078.983,2.639,0,1.196-1.096,2-2.119,2-.543,0-1.062-.276-1.422-.756l-1.458-1.945-1.458,1.944c-.361.481-.879.757-1.423.757-1.023,0-2.119-.804-2.119-2,0-.561.568-1.762.995-2.663l1.171-2.516-2.527,1.196c-.877.415-2.078.983-2.639.983-1.196,0-2-1.096-2-2.119,0-.543.276-1.062.756-1.422l1.945-1.458-1.944-1.458c-.481-.361-.757-.879-.757-1.423,0-1.023.804-2.119,2-2.119.562,0,1.767.57,2.663.995l2.516,1.172-1.196-2.528c-.415-.877-.983-2.078-.983-2.639,0-1.196,1.096-2,2.119-2,.543,0,1.062.276,1.422.756l1.458,1.945,1.458-1.944c.361-.481.879-.757,1.423-.757,1.023,0,2.119.804,2.119,2,0,.561-.568,1.762-.995,2.663l-1.171,2.516,2.527-1.196c.877-.415,2.078-.983,2.639-.983,1.196,0,2,1.096,2,2.119,0,.543-.276,1.062-.756,1.422l-1.945,1.458,1.945,1.458Z"/>
</svg>
