<?xml version="1.0" encoding="UTF-8"?>
<svg xmlns="http://www.w3.org/2000/svg" id="Layer_1" data-name="Layer 1" viewBox="0 0 24 24" width="512" height="512"><path d="M12,0C5.383,0,0,5.383,0,12s5.383,12,12,12,12-5.383,12-12S18.617,0,12,0Zm0,22c-5.514,0-10-4.486-10-10S6.486,2,12,2s10,4.486,10,10-4.486,10-10,10ZM7,11.5c0-.828,.672-1.5,1.5-1.5s1.5,.672,1.5,1.5-.672,1.5-1.5,1.5-1.5-.672-1.5-1.5Zm10,0c0,.828-.672,1.5-1.5,1.5s-1.5-.672-1.5-1.5,.672-1.5,1.5-1.5,1.5,.672,1.5,1.5Zm-11.63-1.071l-.741-1.857c1.187-.474,2.266-1.372,3.039-2.531l1.664,1.109c-1.01,1.515-2.38,2.648-3.962,3.279Zm14.001-1.857l-.741,1.857c-1.582-.631-2.952-1.765-3.962-3.279l1.664-1.109c.773,1.159,1.852,2.058,3.039,2.531Zm-2.546,6.903c-.269,.272-.825,1.005-.825,1.525s.556,1.253,.825,1.525l-1.417,1.412c-.11-.111-.878-.904-1.231-1.938h-4.354c-.353,1.033-1.121,1.827-1.231,1.938l-1.414-1.414c.267-.271,.822-1.003,.822-1.523s-.556-1.253-.825-1.525l1.417-1.412c.11,.111,.878,.904,1.231,1.938h4.354c.353-1.033,1.121-1.827,1.231-1.938l.707,.707,.709,.705Z"/></svg>
