<?xml version="1.0" encoding="UTF-8"?>
<svg xmlns="http://www.w3.org/2000/svg" id="Layer_1" data-name="Layer 1" viewBox="0 0 24 24">
  <path d="m23.018,8.785c-.595-.542-1.356-.821-2.169-.782-.804.037-1.545.386-2.085.981l-3.217,3.534c-.427-.705-1.124-1.225-1.945-1.425.246-.477.398-1.009.398-1.582,0-2.662-1.971-5.811-4.526-6.736.759-.748,1.526-1.756,1.526-2.776h-6c0,1.02.767,2.028,1.526,2.776-2.555.925-4.526,4.074-4.526,6.736,0,.561.146,1.083.383,1.553-1.359.285-2.383,1.492-2.383,2.935v7c0,1.654,1.346,3,3,3h10.448l9.787-10.985c1.094-1.225.996-3.123-.218-4.23Zm-15.018-4.285c1.832,0,4,2.717,4,5.012,0,.821-.673,1.488-1.5,1.488h-5c-.827,0-1.5-.667-1.5-1.488,0-2.295,2.168-5.012,4-5.012Zm13.742,7.184l-9.19,10.316H3c-.552,0-1-.449-1-1v-7c0-.551.448-1,1-1h9.857c.63,0,1.143.512,1.143,1.142,0,.564-.422,1.051-.98,1.131l-5.161.737.283,1.979,5.161-.737c1.175-.168,2.129-.988,2.514-2.059l4.427-4.864c.181-.2.43-.316.699-.329.271-.007.528.082.728.262.407.372.44,1.009.072,1.421Z"/>
</svg>
