<?xml version="1.0" encoding="UTF-8"?>
<svg xmlns="http://www.w3.org/2000/svg" id="Layer_1" data-name="Layer 1" viewBox="0 0 24 24">
  <path d="m23.97,22.556l-5.375-5.375c1.502-1.817,2.405-4.145,2.405-6.681C21,4.71,16.29,0,10.5,0S0,4.71,0,10.5s4.71,10.5,10.5,10.5c2.536,0,4.864-.904,6.681-2.405l5.375,5.375,1.414-1.414Zm-13.47-3.556c-4.687,0-8.5-3.813-8.5-8.5S5.813,2,10.5,2s8.5,3.813,8.5,8.5-3.813,8.5-8.5,8.5Zm.5-9c0,1.105-.895,2-2,2s-2-.895-2-2,.895-2,2-2,2,.895,2,2Zm3.027-3.284c-1.017-1.71-2.677-2.716-4.527-2.716-3.033,0-5.5,2.467-5.5,5.5v.5c0,3.86,3.14,7,7,7,2.228,0,4.077-1.547,4.381-3.613.986-.722,1.619-1.918,1.619-3.137,0-1.688-1.245-3.128-2.973-3.534Zm-.056,5.199l-.542.33v.612c0,1.282-1.256,2.143-2.429,2.143-2.757,0-5-2.243-5-5v-.5c0-1.93,1.57-3.5,3.5-3.5,1.232,0,2.348.771,2.984,2.062l.245.496.55.056c.846.087,1.721.723,1.721,1.636,0,.661-.433,1.361-1.029,1.665Z"/>
</svg>
