<?xml version="1.0" encoding="UTF-8"?>
<svg xmlns="http://www.w3.org/2000/svg" id="Layer_1" data-name="Layer 1" viewBox="0 0 24 24" width="512" height="512"><path d="M18.07,15h1.93v-2.19l-.07-.18c-1.1-2.74-2.26-5.54-3.4-6.94C14.42,2.88,10.95,1.52,7.47,2.16c-.99,.18-1.93,.55-2.82,1.09L1.46,.04,.04,1.46,22.54,23.96l1.41-1.41-6.07-6.07,.19-1.47ZM7.83,4.12c2.73-.5,5.45,.56,7.12,2.79,1,1.24,2.19,4.14,2.97,6.08h-1.61l-.22,1.68L6.13,4.71c.55-.28,1.12-.48,1.7-.59Zm12.17,11.88c.55,0,1,.45,1,1s-.45,1-1,1-1-.45-1-1,.45-1,1-1Zm4,3c0,.55-.45,1-1,1s-1-.45-1-1,.45-1,1-1,1,.45,1,1Zm-2-4c0-.55,.45-1,1-1s1,.45,1,1-.45,1-1,1-1-.45-1-1Zm-8.3,3l1.88,1.88c-.25,.07-.52,.12-.79,.12h-1.79v2H3v-3.81c0-.47-.18-.94-.5-1.31C-.49,13.35-.75,9.38,1.7,6l1.43,1.43c-2.29,3.4-.5,6.5,.89,8.15,.63,.74,.97,1.66,.97,2.61v1.81h6v-2h2.7Z"/></svg>
