<?xml version="1.0" encoding="UTF-8"?>
<svg xmlns="http://www.w3.org/2000/svg" id="Layer_1" data-name="Layer 1" viewBox="0 0 24 24">
  <path d="m6.5,0C2.91,0,0,2.91,0,6.5s2.91,6.5,6.5,6.5,6.5-2.91,6.5-6.5S10.09,0,6.5,0Zm-1.479,5.24l3.286.548c1.271.211,2.193,1.3,2.193,2.588,0,1.447-1.177,2.624-2.624,2.624h-.376v1h-2v-1c-1.654,0-3-1.346-3-3h2c0,.551.449,1,1,1h2.376c.344,0,.624-.28.624-.624,0-.307-.22-.565-.521-.616l-3.286-.548c-1.27-.211-2.192-1.3-2.192-2.588,0-1.447,1.177-2.624,2.624-2.624h.376v-1h2v1c1.654,0,3,1.346,3,3h-2c0-.551-.448-1-1-1h-2.376c-.344,0-.624.28-.624.624,0,.307.219.565.521.616Zm3.398,13.354c.774.775.774,2.037,0,2.812l-2.507,2.507-1.414-1.414,1.498-1.498h-2.997c-1.654,0-3-1.346-3-3v-4h2v4c0,.552.449,1,1,1h3.006l-1.508-1.498,1.414-1.414,2.506,2.506Zm15.581-12.594v4h-2v-4c0-.552-.449-1-1-1h-3.006l1.508,1.498-1.414,1.414-2.506-2.506c-.774-.775-.774-2.037,0-2.812L18.087.088l1.414,1.414-1.498,1.498h2.997c1.654,0,3,1.346,3,3Zm-12.004,7.277v7.303l6,3.429,6-3.429v-7.303l-6-3.429-6,3.429Zm9.334.78l-3.33,1.873-3.334-1.875,3.33-1.903,3.334,1.906Zm-7.334,1.915l3.004,1.69v3.475l-3.004-1.717v-3.448Zm5.004,5.16v-3.47l2.996-1.686v3.444l-2.996,1.712Z"/>
</svg>
