<?xml version="1.0" encoding="UTF-8"?>
<svg xmlns="http://www.w3.org/2000/svg" id="Layer_1" data-name="Layer 1" viewBox="0 0 24 24">
  <path d="m0,13l1.412,3.584c1.556,2.493,4.347,2.46,6.794,2.432.338-.005,1.77-.01,2.794-.013v2.998h-4v2h10v-2h-4v-2.998c1.024.003,3.348-.002,3.627-.002,2.228,0,4.577-.197,5.961-2.416l1.412-3.584H0Zm20.844,2.6c-.871,1.32-2.284,1.448-5.021,1.416-.496-.007-7.15-.007-7.643,0-2.747.036-4.154-.099-5.024-1.416l-.232-.6h18.152l-.232.6ZM3,11H1C1,4.935,5.935,0,12,0s11,4.935,11,11h-2c0-4.963-4.037-9-9-9S3,6.037,3,11Z"/>
</svg>
