<?xml version="1.0" encoding="UTF-8"?>
<svg xmlns="http://www.w3.org/2000/svg" id="Layer_1" data-name="Layer 1" viewBox="0 0 24 24">
  <path d="m16.393,16.008h1.6v5.716c0,1.269-1.031,2.3-2.3,2.3s-2.3-1.031-2.3-2.3v-5.716h1.6v5.716c0,.386.314.7.7.7s.7-.314.7-.7v-5.716Zm6.008,4.063l-1.8-4.054v-.009h-1.6v8h1.6v-4.054l1.8,4.054h1.6v-8h-1.6v4.063Zm-11.387-.718c-.56-.227-1.084-.467-1.366-.595-.099-.045-.428-.173-.433-.615-.002-.131.103-.441.515-.577.73-.236,1.392.2,1.611.367l.86-1.113c-.401-.369-1.539-1.123-2.863-.686-.796.263-1.359.951-1.471,1.796-.106.818.23,1.565.921,2.049.003,0,.838.409,1.753.78.214.086.905.409.817.959-.065.391-.492.795-1.096.795-.572,0-1.124-.24-1.497-.646l-1.009,1.006c.633.723,1.541,1.136,2.506,1.136,1.221,0,2.245-.853,2.436-2.028.143-.882-.224-2.036-1.685-2.627Zm12.987-14.353v9h-2v-4H2v12h4v2H0V5c0-1.654,1.346-3,3-3h3V0h2v2h8V0h2v2h3c1.654,0,3,1.346,3,3Zm-2,3v-3c0-.552-.448-1-1-1H3c-.552,0-1,.448-1,1v3h20Z"/>
</svg>
