<?xml version="1.0" encoding="UTF-8"?>
<svg xmlns="http://www.w3.org/2000/svg" id="Layer_1" data-name="Layer 1" viewBox="0 0 24 24">
  <path d="m20.05,15.05c.061-.431.047-.86-.049-1.283-.064-.284.072-.591.34-.764.498-.321.902-.758,1.202-1.298.285-.515.434-1.106.431-1.7.003-.604-.146-1.195-.431-1.71h0c-.299-.54-.704-.977-1.202-1.298-.268-.173-.405-.479-.34-.765.134-.593.114-1.199-.059-1.804-.33-1.148-1.247-2.065-2.396-2.396-.606-.172-1.212-.191-1.803-.058-.287.059-.591-.073-.764-.341-.321-.498-.757-.902-1.297-1.202-1.044-.578-2.343-.579-3.388,0-.538.299-.974.703-1.295,1.201-.173.268-.476.405-.765.34-.59-.132-1.197-.113-1.804.06-1.148.329-2.066,1.247-2.394,2.394-.174.606-.194,1.214-.06,1.806.064.284-.072.591-.34.764-.499.322-.903.758-1.203,1.298-.285.515-.434,1.106-.431,1.7-.003.604.146,1.195.432,1.711.299.539.704.975,1.202,1.296.268.174.405.48.34.765-.098.429-.111.866-.047,1.304l-3.929,3.929h5v5l4.794-4.794c.16.127.316.259.501.362.522.289,1.108.434,1.693.434s1.172-.145,1.695-.435c.19-.105.35-.239.513-.37l4.804,4.804v-5h5l-3.95-3.95Zm-7.338,2.767c-.438.244-1.007.243-1.447,0-.248-.138-.445-.318-.586-.537-.518-.802-1.397-1.271-2.307-1.271-.193,0-.388.021-.581.064-.26.06-.533.048-.811-.03-.483-.139-.885-.541-1.024-1.024-.08-.278-.09-.55-.031-.81.25-1.101-.235-2.262-1.207-2.889-.219-.141-.399-.338-.537-.585-.12-.216-.183-.469-.181-.741-.001-.263.062-.516.181-.73.138-.248.318-.445.537-.587.972-.626,1.457-1.787,1.207-2.888-.059-.26-.048-.531.032-.811.138-.482.54-.885,1.022-1.022.279-.08.553-.089.811-.032,1.099.251,2.26-.233,2.888-1.206.142-.219.339-.399.586-.536.439-.244,1.008-.243,1.447,0,.249.138.446.319.587.537.627.972,1.79,1.457,2.887,1.207.261-.061.533-.048.81.03.483.139.886.541,1.024,1.024.08.277.09.55.031.81-.25,1.101.234,2.262,1.207,2.889.218.141.398.337.536.585.12.216.183.469.181.741.001.263-.062.516-.181.73-.138.248-.318.445-.537.586-.972.627-1.457,1.788-1.207,2.888.059.261.048.533-.032.812-.138.482-.541.885-1.023,1.022-.278.08-.55.092-.81.031-1.1-.244-2.26.235-2.888,1.207-.142.218-.339.399-.586.536Zm2.288-3.817c-1.5,0-3,1.5-3,1.5,0,0-1.5-1.5-3-1.5v-1.5c0-.828.672-1.5,1.5-1.5h3c.828,0,1.5.672,1.5,1.5v1.5Zm-5-6c0-1.105.895-2,2-2s2,.895,2,2-.895,2-2,2-2-.895-2-2Z"/>
</svg>
