<?xml version="1.0" encoding="UTF-8"?>
<svg xmlns="http://www.w3.org/2000/svg" id="Layer_1" data-name="Layer 1" viewBox="0 0 24 24">
  <path d="m7,15h-3v-2h3v2Zm-3,4h3v-2h-3v2Zm3-14h-3v2h3v-2Zm5,0h-3v2h3v-2Zm-5,4h-3v2h3v-2Zm17,8c0,3.859-3.14,7-7,7s-7-3.141-7-7,3.14-7,7-7,7,3.141,7,7Zm-2,0c0-2.757-2.243-5-5-5s-5,2.243-5,5,2.243,5,5,5,5-2.243,5-5Zm-5-3.454v2.454h-3v2h3v2.431l2.687-2.688c.417-.417.417-1.093,0-1.51l-2.687-2.687Zm-8-2.546h1.305c.502-.56,1.067-1.062,1.695-1.482v-.518h-3v2Zm.518,11H2V3c0-.551.449-1,1-1h10c.551,0,1,.449,1,1v5.523c.638-.226,1.305-.388,2-.464V3c0-1.654-1.346-3-3-3H3C1.346,0,0,1.346,0,3v21h11.349c-.706-.571-1.325-1.244-1.831-2Z"/>
</svg>
