<?xml version="1.0" encoding="UTF-8"?>
<svg xmlns="http://www.w3.org/2000/svg" id="Layer_1" data-name="Layer 1" viewBox="0 0 24 24">
  <path d="m14,14v10h10v-10h-10Zm8,4h-2v-2h2v2Zm-4-2v2h-2v-2h2Zm-2,4h2v2h-2v-2Zm4,2v-2h2v2h-2Zm1.547-10.159c-.456-.802-1.197-1.377-2.085-1.621-1.271-.35-2.769-.527-4.451-.527h-1.602l5.617-3.997v-2.122l1.781-2.226-1.562-1.25-2.219,2.774v1.792l-4.112,2.926c.36-.433.586-.983.586-1.591,0-1.009-.601-1.873-1.461-2.268l-1.039-3.732-1.039,3.732c-.86.395-1.461,1.259-1.461,2.268,0,.6.22,1.143.573,1.574l-4.073-2.909v-1.793L2.781.098l-1.562,1.25,1.781,2.226v2.121l5.598,3.998h-1.608c-1.682,0-3.18.178-4.452.527-.889.244-1.629.819-2.085,1.621C-.004,12.642-.121,13.573.124,14.462c.421,1.53,1.814,2.538,3.33,2.538.302,0,.608-.04.913-.124.857-.235,2.441-1.623,3.878-3.024l-4.244,4.951v1.717l-2.125,1.699,1.249,1.562,2.875-2.301v-1.938l4-4.667v5.124h2v-8h9.619c-.026-.052-.042-.108-.071-.159ZM3.837,14.948c-.775.21-1.573-.244-1.785-1.016-.212-.772.244-1.573,1.016-1.785h0c1.099-.302,2.418-.455,3.922-.455h.583c-1.634,1.642-3.238,3.089-3.736,3.256Z"/>
</svg>
