<?xml version="1.0" encoding="UTF-8"?>
<svg xmlns="http://www.w3.org/2000/svg" id="Layer_1" data-name="Layer 1" viewBox="0 0 24 24" width="512" height="512"><path d="M21.619,20.23c1.003-1.017,2.381-2.794,2.381-4.891,0-3.227-3.263-5.698-3.402-5.802l-.598-.446-.598,.446c-.139,.104-3.402,2.575-3.402,5.802,0,2.096,1.378,3.874,2.381,4.891-.536,.65-1.104,1.566-1.239,2.642l-.142,1.129,3-1,3,1-.142-1.129c-.135-1.075-.703-1.992-1.239-2.642Zm-1.621-8.566c.767,.733,2.002,2.152,2.002,3.676,0,1.534-1.233,2.947-2,3.678-.768-.731-2-2.144-2-3.678s1.231-2.945,1.998-3.676Zm-14.998,.337c-.591,0-1.142,.173-1.607,.469C4.417,7.997,7.915,2.335,19,2.015v5.985h2V0h-1C4.592,0,1.604,9.354,1.095,14.217c-.649,.331-1.095,1.006-1.095,1.783v6c0,1.103,.897,2,2,2s2-.897,2-2v-4.172c.313,.111,.649,.172,1,.172,1.654,0,3-1.346,3-3s-1.346-3-3-3Zm0,4c-.551,0-1-.448-1-1s.449-1,1-1,1,.448,1,1-.449,1-1,1Z"/></svg>
