<?xml version="1.0" encoding="UTF-8"?>
<svg xmlns="http://www.w3.org/2000/svg" id="Layer_1" data-name="Layer 1" viewBox="0 0 24 24" width="512" height="512"><path d="M23.27,11.13c-1.18-2.7-2.29-5.25-3.47-6.71C17.36,1.16,13.5-.45,9.45,.11,4.46,.79,.5,4.95,.05,9.98c-.27,2.93,.62,5.79,2.5,8.05,.29,.35,.46,.8,.46,1.26v4.71h13v-3h2.25c1.5,0,2.78-1.12,2.97-2.61l.45-3.39h2.33v-2.21s-.51-1.17-.73-1.66Zm-3.36,1.87l-.68,5.13c-.07,.5-.49,.87-.99,.87h-4.25v3H5v-2.71c0-.93-.33-1.83-.92-2.54-1.53-1.84-2.26-4.18-2.04-6.59,.37-4.12,3.6-7.51,7.69-8.08,3.31-.46,6.48,.87,8.5,3.56,1.03,1.28,2.14,3.82,3.22,6.28,.16,.36,.31,.71,.47,1.07h-1.99Zm-7.92-4h3v2h-3v3h-2v-3h-3v-2h3v-3h2v3Z"/></svg>
