<?xml version="1.0" encoding="UTF-8"?>
<svg xmlns="http://www.w3.org/2000/svg" id="Layer_1" data-name="Layer 1" viewBox="0 0 24 24">
  <path d="m10.763,12.359l-5.763,3.641,3,1.895v4.65s1.143,1.455,4,1.455,4-1.455,4-1.455v-4.65l1-.632v4.736h2v-6l-5.763-3.641c-.742-.47-1.733-.47-2.474,0Zm3.237,9.221c-.389.202-1.034.42-2,.42-.999,0-1.655-.234-2.04-.441l.008-2.42.794.502c.371.235.799.359,1.237.359s.866-.124,1.236-.358l.764-.482v2.421Zm-1.832-3.629c-.104.064-.232.065-.336,0l-3.087-1.95,3.088-1.951c.104-.064.232-.065.336,0l3.087,1.95-3.088,1.951Z"/>
  <path d="m21,0H3C1.346,0,0,1.346,0,3v19h6v-2H2v-11h20v11h-1v2h3V3c0-1.654-1.346-3-3-3Zm1,7H2V3c0-.551.449-1,1-1h18c.552,0,1,.449,1,1v4Z"/>
  <circle cx="4.5" cy="4.5" r="1.5"/>
  <circle cx="8.5" cy="4.5" r="1.5"/>
</svg>
