<?xml version="1.0" encoding="UTF-8"?>
<svg xmlns="http://www.w3.org/2000/svg" id="Layer_1" data-name="Layer 1" viewBox="0 0 24 24">
  <path d="m22.63,11.706l-4.13-1.37-4.13,1.37c-.819.272-1.37,1.034-1.37,1.896v3.912c0,3.568,3.714,5.703,4.853,6.272l.604.302.627-.252c1.154-.464,4.917-2.291,4.917-6.322v-3.912c0-.862-.551-1.624-1.37-1.896Zm-.63,5.807c0,2.582-2.424,3.925-3.455,4.378-.916-.491-3.545-2.099-3.545-4.378v-3.909s3.5-1.161,3.5-1.161l3.5,1.158v3.912Zm-8-8.513H4v-2h10v2Zm-3,4h-7v-2h7v2Zm-7,2h7v2h-7v-2Zm10.51,9H3c-1.654,0-3-1.346-3-3V2h5.171c.413-1.164,1.525-2,2.829-2h2c1.304,0,2.416.836,2.829,2h5.171v6.395l-2,.663v-5.058h-5v-1c0-.551-.449-1-1-1h-2c-.551,0-1,.449-1,1v1H2v17c0,.551.449,1,1,1h9.554c.591.794,1.283,1.46,1.956,2Z"/>
</svg>
