<?xml version="1.0" encoding="UTF-8"?>
<svg xmlns="http://www.w3.org/2000/svg" id="Layer_1" data-name="Layer 1" viewBox="0 0 24 24" width="512" height="512"><path d="M12,0C5.383,0,0,5.383,0,12s5.383,12,12,12,12-5.383,12-12S18.617,0,12,0Zm0,2c4.092,0,7.618,2.472,9.164,6h-1.421c-.619-1.746-2.287-3-4.243-3-1.412,0-2.674,.654-3.5,1.675-.826-1.021-2.088-1.675-3.5-1.675-1.956,0-3.624,1.254-4.243,3h-1.421c1.546-3.528,5.072-6,9.164-6Zm0,14c-1.094,0-3-.85-3-1.337,0-.284,.12-.551,.328-.74,1.072-.2,2.012-.782,2.672-1.598,.66,.817,1.6,1.398,2.672,1.598,.209,.19,.328,.456,.329,.733-.095,.478-2.029,1.344-3.001,1.344Zm-3.5-4c-1.379,0-2.5-1.121-2.5-2.5s1.121-2.5,2.5-2.5,2.5,1.121,2.5,2.5-1.121,2.5-2.5,2.5Zm7,0c-1.379,0-2.5-1.121-2.5-2.5s1.121-2.5,2.5-2.5,2.5,1.121,2.5,2.5-1.121,2.5-2.5,2.5Zm-3.5,10c-5.514,0-10-4.486-10-10,0-.685,.069-1.354,.201-2h1.827c.198,1.783,1.442,3.255,3.103,3.787-.086,.28-.131,.575-.131,.876,0,.189,.025,.369,.07,.542l-1.412,1.036,1.184,1.613,1.453-1.065c.313,.219,.66,.407,1.019,.565l-.634,1.851,1.893,.648,.66-1.926c.295,.049,.558,.073,.769,.073,.192,0,.457-.028,.764-.086l.664,1.938,1.893-.648-.647-1.888c.349-.156,.69-.34,.999-.552l1.485,1.089,1.184-1.613-1.416-1.039c.048-.171,.074-.351,.074-.539,0-.301-.045-.596-.13-.876,1.661-.532,2.904-2.004,3.102-3.787h1.827c.132,.646,.201,1.315,.201,2,0,5.514-4.486,10-10,10Zm-2.5-12.5c0,.552-.448,1-1,1s-1-.448-1-1,.448-1,1-1,1,.448,1,1Zm7,0c0,.552-.448,1-1,1s-1-.448-1-1,.448-1,1-1,1,.448,1,1Z"/></svg>
