<?xml version="1.0" encoding="UTF-8"?>
<svg xmlns="http://www.w3.org/2000/svg" id="Layer_1" data-name="Layer 1" viewBox="0 0 24 24">
  <path d="m14.524,3h-1.5v5h1.5c.828,0,1.5-.672,1.5-1.5,0-.402-.161-.764-.427-.976.257-.269.427-.622.427-1.024,0-.828-.672-1.5-1.5-1.5Zm0,4h-.5v-1h.5c.276,0,.5.224.5.5s-.224.5-.5.5Zm0-2h-.5v-1h.5c.276,0,.5.224.5.5s-.224.5-.5.5Zm4.436,1.532c.051-.286-.374-.466-.506-.515-.623-.23-1.185-.481-1.185-.481-.497-.316-.716-.803-.644-1.309.078-.538.471-.976,1.027-1.144,1.092-.329,1.948.481,1.986.512l-.618.728c-.021-.017-.524-.41-1.069-.248-.243.073-.291.234-.3.299-.006.049-.01.17.108.25.013,0,.509.218,1.055.42,1.013.374,1.267,1.107,1.167,1.669-.133.745-.844,1.286-1.691,1.286-.685,0-1.328-.276-1.765-.758l.767-.696c.237.261.61.418.998.418.371,0,.633-.22.671-.432Zm-4.96,10.275l8,3v4.231h-2v-2.846l-8-3v-6.047c0-.537-.362-1.017-.825-1.093-.305-.049-.595.03-.822.223-.225.191-.353.469-.353.763v11.712s-4.3-3.425-4.32-3.443c-.402-.373-1.034-.354-1.41.048-.377.403-.356,1.038.046,1.416l2.352,2.268h-2.881l-.849-.818c-1.196-1.12-1.26-3.022-.13-4.23,1.114-1.193,2.98-1.269,4.189-.185l1.001.797v-7.563c0-.881.385-1.715,1.058-2.286.671-.571,1.561-.819,2.439-.673,1.427.232,2.503,1.551,2.503,3.066v4.662ZM10,3v3.5c0,.276.224.5.5.5s.5-.224.5-.5v-3.5h1v3.5c0,.827-.673,1.5-1.5,1.5s-1.5-.673-1.5-1.5v-3.5h1Zm-3.04,3.532c.051-.286-.374-.466-.506-.515-.623-.23-1.185-.481-1.185-.481-.497-.316-.716-.803-.644-1.309.078-.538.471-.976,1.027-1.144,1.092-.329,1.948.481,1.986.512l-.618.728c-.021-.017-.524-.41-1.069-.248-.243.073-.291.234-.3.299-.006.049-.01.17.108.25.013,0,.509.218,1.055.42,1.013.374,1.267,1.107,1.167,1.669-.133.745-.844,1.286-1.691,1.286-.685,0-1.328-.276-1.765-.758l.767-.696c.237.261.61.418.998.418.371,0,.633-.22.671-.432Zm17.04-3.532v8h-8.101c-.151-.744-.481-1.416-.922-2h7.023V3c0-.551-.448-1-1-1H3c-.551,0-1,.449-1,1v6h5.023c-.441.584-.771,1.256-.922,2H0V3C0,1.346,1.346,0,3,0h18c1.654,0,3,1.346,3,3Z"/>
</svg>
