<?xml version="1.0" encoding="UTF-8"?>
<svg xmlns="http://www.w3.org/2000/svg" id="Layer_1" data-name="Layer 1" viewBox="0 0 24 24">
  <path d="m3.787,8.959c1.033,1.813,2.981,3.041,5.213,3.041,1.347,0,2.592-.446,3.594-1.198-.192-.814-.371-1.569-.529-2.234-.734.875-1.836,1.433-3.065,1.433-1.861,0-3.417-1.284-3.861-3.009.056.001.112.01.167.01,1.243,0,2.464-.347,3.545-1.021,1.227-.765,2.148-1.88,2.675-3.198.818.554,1.454,1.369,1.766,2.364.07.239.558,2.281,1.167,4.854h2.056c-.644-2.726-1.233-5.196-1.313-5.45-.855-2.722-3.348-4.55-6.202-4.55-.291,0-.576.028-.856.068C5.658.394,3.565,2.106,2.798,4.55c-.118.375-1.348,5.592-2.224,9.32.699-.613,1.509-1.095,2.388-1.417.29-1.233.573-2.432.825-3.495Zm5.213-6.959c.223,0,.441.021.657.052-.372.917-1.007,1.697-1.863,2.231-.806.503-1.722.744-2.651.713.448-1.718,2-2.996,3.857-2.996Zm-4,12h6.037l-.627,2h-5.41c-1.654,0-3,1.346-3,3v5H0v-5c0-2.757,2.243-5,5-5Zm19,4.664v.336c0,1.104-.895,2-2,2s-2-.896-2-2v-.336l.854-2.42-1.854-.348v6.105h3v2h-8v-2h3v-6.48l-1.752-.328.861,2.406v.575c-.114,1.027-.997,1.826-2.054,1.826-1.135,0-2.054-.92-2.054-2.054v-.333l1.5-4.782,3.5.649v-1.48h2v1.851l3.5.649,1.5,4.164Z"/>
</svg>
