<?xml version="1.0" encoding="UTF-8"?>
<svg xmlns="http://www.w3.org/2000/svg" id="Layer_1" data-name="Layer 1" viewBox="0 0 24 24" width="512" height="512"><path d="M22,20.59V11.62c.61-.7,1-1.61,1-2.62v-1.16l-2.28-6.84H3.25l-.18,.65L1.46,.04,.04,1.46,22.54,23.96l1.41-1.41-1.96-1.96Zm-7-8.97c.73,.84,1.8,1.38,3,1.38h1c.35,0,.68-.06,1-.14v5.73l-6.09-6.09c.42-.23,.78-.52,1.09-.88Zm6-3.46v.84c0,1.1-.9,2-2,2h-1c-1.1,0-2-.9-2-2h-2c0,.97-.7,1.79-1.62,1.96L7.41,6h1.59V3h5v3h2V3h3.28l1.72,5.16ZM4.75,3h2.25v2.59l-2.32-2.32,.08-.26Zm-.75,13v-3.14c.32,.08,.65,.14,1,.14h1c.78,0,1.51-.24,2.13-.63l-1.49-1.49c-.2,.07-.42,.12-.64,.12h-1c-1.1,0-2-.9-2-2v-.84l.23-.69-1.58-1.58-.65,1.95v1.16c0,1.01,.39,1.91,1,2.62v8.38c0,1.65,1.35,3,3,3h7c1.65,0,3-1.35,3-3v-.76l-3.24-3.24H4Zm9,4c0,.55-.45,1-1,1H5c-.55,0-1-.45-1-1v-2H13v2Z"/></svg>
