<?xml version="1.0" encoding="UTF-8"?>
<svg xmlns="http://www.w3.org/2000/svg" id="Layer_1" data-name="Layer 1" viewBox="0 0 24 24">
  <path d="m7.993,16.891l.055,1.109h8.003l-.059-1.159c0-2.224-1.314-3.851-2.451-4.841.7-.615,2.162-2.142,2.421-4.354.048-.411-.085-.827-.363-1.139-.287-.322-.699-.507-1.131-.507h-4.936c-.432,0-.844.185-1.131.507-.278.312-.411.728-.363,1.139.263,2.264,1.826,3.834,2.417,4.354-1.142.99-2.462,2.617-2.461,4.891Zm2.146-8.891h3.722c-.37,1.33-1.365,2.265-1.695,2.545l-.167.143-.172-.146c-.329-.278-1.32-1.208-1.688-2.542Zm1.688,5.458l.171-.146.167.142c.666.568,1.435,1.426,1.717,2.545h-3.786c.277-1.105,1.056-1.971,1.73-2.542Zm-2.643-11.049l-.565-1.926c1.093-.321,2.231-.483,3.381-.483v2c-.979,0-1.922.147-2.816.409Zm-4.736,3.049l-1.517-1.315c.75-.866,1.618-1.618,2.58-2.238l1.087,1.688c-.803.517-1.526,1.146-2.15,1.865Zm-1.537,10.694l-1.828.836c-.477-1.042-.8-2.146-.962-3.281l1.992-.284c.137.961.408,1.876.798,2.729Zm-.798-5.574l-1.992-.284c.161-1.134.485-2.238.961-3.28l1.828.836c-.39.852-.66,1.768-.797,2.728Zm21.887,1.422c0,6.617-5.383,12-12,12-3.593,0-6.967-1.59-9.257-4.363l1.542-1.273c1.909,2.311,4.721,3.637,7.715,3.637,5.514,0,10-4.486,10-10,0-2.688-1.107-5.255-3-7.123v3.123h-2v-4c0-1.103.897-2,2-2h4v2h-2.08c1.951,2.183,3.08,5.029,3.08,8Z"/>
</svg>
