<?xml version="1.0" encoding="UTF-8"?>
<svg xmlns="http://www.w3.org/2000/svg" id="Layer_1" data-name="Layer 1" viewBox="0 0 24 24" width="512" height="512"><path d="M0,21c0,1.65,1.35,3,3,3H21c1.65,0,3-1.35,3-3v-7H0v7Zm2.06,.35l5.35-5.35h3.17l-6,6h-1.59c-.43,0-.79-.27-.94-.65Zm11.35-5.35h3.17l-6,6h-3.17l6-6Zm7.59,6h-1.59l2.59-2.59v1.59c0,.55-.45,1-1,1Zm1-5.41l-5.41,5.41h-3.17l6-6h2.59v.59Zm-17.41-.59l-2.59,2.59v-2.59h2.59ZM14,5h4c.55,0,1,.45,1,1v2h-3l3.18,3.65c.44,.49,1.22,.49,1.66,0l3.16-3.65h-3v-2c0-1.65-1.35-3-3-3h-4c0-1.65-1.35-3-3-3H3C1.35,0,0,1.35,0,3v7H14V5Zm-2,3H2V3c0-.55,.45-1,1-1H11c.55,0,1,.45,1,1v5Z"/></svg>
