<?xml version="1.0" encoding="UTF-8"?>
<svg xmlns="http://www.w3.org/2000/svg" id="Layer_1" data-name="Layer 1" viewBox="0 0 24 24">
  <path d="m20.5,3.516l-.709-.711-.608.611c-.477-.813-1.007-1.513-1.581-2.091C16.752.471,15.62,0,14.417,0h0c-.957,0-1.868.297-2.653.876-1.433-.585-3.122-.27-4.251.863-.226.227-.42.48-.583.757-1.17.013-2.302.48-3.133,1.315-.833.835-1.297,1.971-1.31,3.144-.277.164-.529.36-.756.587-1.123,1.129-1.438,2.818-.859,4.253-1.291,1.766-1.143,4.268.446,5.864.576.578,1.276,1.11,2.09,1.591l-.524.526.703.706c2.258,2.268,5.262,3.516,8.457,3.516s6.198-1.248,8.457-3.516c4.658-4.679,4.658-12.29,0-16.968ZM2.735,16.249c-.963-.966-.979-2.528-.038-3.524l.651-.665-.443-.669c-.505-.763-.403-1.787.243-2.436.193-.195.436-.345.718-.445l.784-.279-.132-.822c-.131-.815.122-1.612.694-2.186.569-.573,1.36-.827,2.169-.695l.826.133.277-.789c.1-.284.249-.528.443-.723.644-.646,1.661-.749,2.416-.244l.695.464.646-.674c.469-.45,1.081-.697,1.73-.697.668,0,1.297.262,1.769.736.559.561,1.072,1.283,1.531,2.153l-1.44,1.446c-.914-.862-2.102-1.334-3.362-1.334-1.312,0-2.547.513-3.475,1.445-1.209,1.214-1.654,2.908-1.335,4.476-1.908-.011-3.389.564-3.472.597l-.809.321.206.845c.021.084.465,1.84,2.202,3.733l-1.358,1.364c-.864-.46-1.58-.974-2.137-1.533Zm4.908-1.25c-.639-.711-1.051-1.385-1.306-1.893.693-.148,1.685-.271,2.73-.111.084.105.172.208.265.308l-1.69,1.696Zm3.102-3.114c-1.027-1.149-.991-2.924.11-4.029,1.065-1.069,2.895-1.102,4.007-.104l-4.117,4.133Zm8.337,7.187c-1.881,1.889-4.381,2.928-7.04,2.928-2.325,0-4.529-.795-6.303-2.256l14.016-14.07c3.195,3.925,2.972,9.739-.673,13.398Zm-1.29-7.279l1.414,1.414-6,6-1.414-1.414,6-6Z"/>
</svg>
