<?xml version="1.0" encoding="UTF-8"?>
<svg xmlns="http://www.w3.org/2000/svg" id="Layer_1" data-name="Layer 1" viewBox="0 0 24 24" width="512" height="512"><path d="m18,9.043v-3l2-1v-3L13.698.252C12.583-.027,11.417-.027,10.302.252l-6.302,1.791v3l2,1v3c0,3.309,2.691,6,6,6s6-2.691,6-6Zm-7.985-6.524l1.985,1.191,1.985-1.191,1.029,1.715-3.015,1.809-3.015-1.809,1.029-1.715Zm1.985,10.524c-2.206,0-4-1.794-4-4v-1.385c.976.206,2.309.385,4,.385s3.024-.179,4-.385v1.385c0,2.206-1.794,4-4,4Zm-2.5,2.957l2,2.5-1.488,5.5-2.807-5.443c-1.039.144-2.205,1.122-2.205,2.943v2.5h-2v-2.5c0-3.032,2.468-5.5,5.5-5.5h1Zm11.5,5.5v2.5h-2v-2.5c0-1.821-1.166-2.799-2.07-3.175l-2.93,5.675-1.5-5.5,2-2.5h1c3.032,0,5.5,2.468,5.5,5.5Z"/></svg>
