<?xml version="1.0" encoding="UTF-8"?>
<svg xmlns="http://www.w3.org/2000/svg" id="Layer_1" data-name="Layer 1" viewBox="0 0 24 24" width="512" height="512"><path d="M24,12c0,6.617-5.383,12-12,12-.26,0-.514-.023-.77-.039l.362-1.982c.136,.006,.27,.021,.408,.021,5.514,0,10-4.486,10-10S17.514,2,12,2,2,6.486,2,12c0,.14,.015,.276,.021,.414L.039,12.778c-.017-.258-.039-.515-.039-.778C0,5.383,5.383,0,12,0s12,5.383,12,12Zm-7.625-5.781l-3.476,2.781,3.476,2.781,1.25-1.562-1.524-1.219,1.524-1.219-1.25-1.562ZM7.625,11.781l3.476-2.781-3.476-2.781-1.25,1.562,1.524,1.219-1.524,1.219,1.25,1.562Zm3.619,.974l-2.062,11.288-3.184-2.548-5.009,1.501,1.548-5.005L0,14.818l11.244-2.063Zm-2.488,2.49l-5.104,.937,1.11,1.388-.753,2.434,2.419-.725,1.389,1.11,.938-5.144Zm5.261,1.166l2.004,2.003,3.066-3.067-1.414-1.414-1.652,1.653-1.996-1.997-1.098,1.086-.628,3.435,1.717-1.7Z"/></svg>
