<?xml version="1.0" encoding="UTF-8"?>
<svg xmlns="http://www.w3.org/2000/svg" id="Layer_1" data-name="Layer 1" viewBox="0 0 24 24">
  <path d="m18,13h2v2h-2v-2Zm0-2h2v-2h-2v2Zm2,6h-2v1.074l.504.926h1.496v-2Zm0-12h-2v2h2v-2Zm-4,0h-2v2h2v-2ZM21,0h-8c-1.654,0-3,1.346-3,3v.361l2,3.678V3c0-.551.449-1,1-1h8c.552,0,1,.449,1,1v19h-2v2h4V3c0-1.654-1.346-3-3-3Zm-7,10.717l.154.283h1.846v-2h-2v1.717Zm-5-5.008l9,16.552v1.739H0v-1.739L9,5.709Zm0,4.187l-2.323,4.273.826,1.384,1.498-2.496,1.515,2.526.841-1.353-2.357-4.334Zm6.582,12.104l-3.127-5.75-1.97,3.168-1.485-2.474-1.502,2.504-1.931-3.237-3.148,5.789h13.164Z"/>
</svg>
