<?xml version="1.0" encoding="UTF-8"?>
<svg xmlns="http://www.w3.org/2000/svg" id="Layer_1" data-name="Layer 1" viewBox="0 0 24 24" width="512" height="512"><path d="M24,24H12C5.383,24,0,18.617,0,12S5.383,0,12,0s12,5.383,12,12v12ZM12,2C6.486,2,2,6.486,2,12s4.486,10,10,10h10V12c0-5.514-4.486-10-10-10Zm6.55,11.75c-.468,0-.918-.188-1.204-.504l-.42-.463-.926,.84,.42,.462c.527,.581,1.304,.914,2.13,.914,1.021,0,1.88-.653,2.04-1.552,.121-.678-.186-1.562-1.408-2.014-.658-.243-1.257-.506-1.272-.506-.143-.097-.138-.243-.13-.302,.012-.079,.069-.273,.362-.361,.657-.196,1.265,.279,1.29,.299l.476,.399,.805-.957-.479-.402c-.045-.038-1.135-.934-2.452-.537-.671,.202-1.146,.731-1.239,1.38-.087,.61,.178,1.197,.777,1.579,0,0,.678,.303,1.43,.58,.159,.059,.672,.276,.61,.621-.046,.256-.361,.521-.81,.521Zm-12.712,.034c-.468,0-.918-.188-1.204-.504l-.42-.463-.926,.84,.42,.462c.527,.581,1.304,.914,2.13,.914,1.021,0,1.88-.653,2.04-1.552,.121-.678-.186-1.562-1.408-2.014-.658-.243-1.257-.506-1.272-.506-.143-.097-.138-.243-.13-.302,.012-.079,.069-.273,.362-.361,.657-.196,1.265,.279,1.29,.299l.476,.399,.805-.957-.479-.402c-.045-.038-1.135-.934-2.452-.537-.671,.202-1.146,.731-1.239,1.38-.087,.61,.178,1.197,.777,1.579,0,0,.678,.303,1.43,.58,.159,.059,.672,.276,.61,.621-.046,.256-.361,.521-.81,.521Zm9.162-4.784h-1.253l-1.747,2-1.747-2h-1.253v6h1.25l.002-3.894,1.748,1.894,1.747-1.892v3.892h1.25l.003-6Z"/></svg>
