<?xml version="1.0" encoding="UTF-8"?>
<svg xmlns="http://www.w3.org/2000/svg" id="Layer_1" data-name="Layer 1" viewBox="0 0 24 24" width="512" height="512"><path d="m17.696,16.293l6.268,6.268-1.414,1.414-6.268-6.268,1.414-1.414Zm3.889-6.807l-5.5,5.5c-1.943,1.943-4.527,3.014-7.275,3.014h-1.396l-5.975,5.975L.025,22.561l5.975-5.975v-1.395c0-.655.061-1.3.18-1.929l-3.776-3.776-.965.965L.025,9.037,9.025.037l1.414,1.414-.965.965,2.52,2.519,2.519-2.52-.964-.964L14.964.037l9,9-1.414,1.414-.965-.965Zm-14.741,1.611c.509-1.173,1.239-2.251,2.17-3.182l1.567-1.567-2.52-2.519-4.243,4.243,3.026,3.025Zm1.966,4.903c1.877,0,3.659-.62,5.112-1.763l-4.159-4.158c-1.143,1.453-1.763,3.235-1.763,5.112v.809h.81Zm11.362-7.928l-4.243-4.243-4.793,4.794,4.243,4.243,4.793-4.793Z"/></svg>
