<?xml version="1.0" encoding="UTF-8"?>
<svg xmlns="http://www.w3.org/2000/svg" id="Layer_1" data-name="Layer 1" viewBox="0 0 24 24">
  <path d="m12.5,0C6.71,0,2,4.71,2,10.5c0,2.97,1.281,5.797,3.47,7.775l-4.257,4.257,1.414,1.414,6.592-6.593-.375-.662c-.552-.975-.844-2.079-.844-3.192,0-3.584,2.916-6.5,6.5-6.5,3.075,0,5.751,2.187,6.364,5.199l.188.801h1.669s.28-1.984.28-2.5C23,4.71,18.29,0,12.5,0Zm2,5c-4.687,0-8.5,3.813-8.5,8.5,0,1.056.2,2.104.584,3.087-1.636-1.589-2.584-3.787-2.584-6.087,0-4.687,3.813-8.5,8.5-8.5,3.599,0,6.682,2.248,7.92,5.413-1.546-1.502-3.65-2.413-5.92-2.413Z"/>
</svg>
