<?xml version="1.0" encoding="UTF-8"?>
<svg xmlns="http://www.w3.org/2000/svg" id="Layer_1" data-name="Layer 1" viewBox="0 0 24 24">
  <path d="m17,0c-3.86,0-7,3.14-7,7s3.14,7,7,7,7-3.14,7-7S20.86,0,17,0Zm0,12c-2.757,0-5-2.243-5-5s2.243-5,5-5,5,2.243,5,5-2.243,5-5,5Zm2.957-6.543l-1.543,1.543,1.543,1.543-1.414,1.414-1.543-1.543-1.543,1.543-1.414-1.414,1.543-1.543-1.543-1.543,1.414-1.414,1.543,1.543,1.543-1.543,1.414,1.414Zm-7.957,9.025c.616.412,1.289.743,2,.995v8.523l-6-4.5v-5.12L0,5.38v-2.38C0,1.346,1.346,0,3,0h8.349c-.706.571-1.325,1.244-1.831,2H3c-.551,0-1,.449-1,1v1.62l8,9v4.88l2,1.5v-5.518Z"/>
</svg>
