<?xml version="1.0" encoding="UTF-8"?>
<svg xmlns="http://www.w3.org/2000/svg" id="Layer_1" data-name="Layer 1" viewBox="0 0 24 24" width="512" height="512"><path d="M22.943,1.714c-.671-.571-1.561-.816-2.439-.674-1.428,.232-2.504,1.55-2.504,3.067v4.065c-.313-.111-.649-.172-1-.172-.768,0-1.469,.29-2,.766-.531-.476-1.232-.766-2-.766-.351,0-.687,.061-1,.172V3.107C12,1.591,10.924,.273,9.497,.041c-.879-.144-1.768,.103-2.439,.674-.672,.571-1.057,1.404-1.057,2.286V13.566l-.955-.758c-1.207-1.129-3.108-1.064-4.236,.143-1.129,1.208-1.066,3.11,.13,4.231l7.071,6.818h15.989V4c0-.881-.385-1.714-1.057-2.286Zm-5.943,8.286c.551,0,1,.449,1,1v2c0,.551-.449,1-1,1s-1-.449-1-1v-2c0-.551,.449-1,1-1Zm-4,0c.551,0,1,.449,1,1v2c0,.551-.449,1-1,1s-1-.449-1-1v-2c0-.551,.449-1,1-1Zm9,12H8.817L2.317,15.733c-.403-.378-.424-1.013-.047-1.417,.182-.194,.429-.306,.695-.315,.264-.001,.52,.086,.774,.32l4.26,3.392V3c0-.294,.128-.572,.353-.762,.227-.193,.517-.271,.823-.224,.462,.076,.825,.556,.825,1.093V13c0,1.654,1.346,3,3,3,.768,0,1.469-.29,2-.766,.531,.476,1.232,.766,2,.766,1.654,0,3-1.346,3-3V4.107c0-.538,.362-1.018,.825-1.093,.303-.046,.595,.031,.823,.224,.224,.19,.353,.468,.353,.762V22Z"/></svg>
