<?xml version="1.0" encoding="UTF-8"?>
<svg xmlns="http://www.w3.org/2000/svg" id="Layer_1" data-name="Layer 1" viewBox="0 0 24 24">
  <path d="m23.013,20.319c-.521-.792-1.013-1.539-1.013-3.043l.002-.26c.003-.428.008-.914-.076-1.431-.359-2.217-2.069-4.013-4.255-4.467-.758-.157-1.585-.157-2.341,0-2.187.455-3.896,2.25-4.256,4.467-.083.517-.079,1.001-.075,1.429v.263c.001,1.504-.49,2.251-1.011,3.043-.463.704-.987,1.5-.987,2.681v1h15v-1c0-1.181-.524-1.978-.987-2.681Zm-11.719,1.681c.098-.173.22-.361.365-.582.598-.909,1.342-2.04,1.342-4.143l-.002-.282c-.003-.381-.006-.741.05-1.09.225-1.383,1.33-2.546,2.689-2.829.484-.102,1.04-.102,1.526,0,1.358.283,2.464,1.446,2.688,2.829.057.35.054.711.051,1.094l-.002.278c0,2.103.744,3.234,1.342,4.143.146.22.267.408.364.582h-10.413Zm-7.95,0h3.75c-.056.313-.094.642-.094,1v1H1.988l-.379-.939c-.014-.034-1.609-4.007-1.609-7.061,0-1.461.362-2.915,1.046-4.204l.422-.796h1.654c.169-.391.428-.751.701-1.129.711-.986,1.517-2.104,1.25-4.264-.042-.343-.08-.8.002-1.302.254-1.573,1.515-2.897,3.065-3.219.27-.057.557-.085.85-.085h.016c.293,0,.58.029.852.085,1.548.322,2.809,1.646,3.064,3.22.082.501.044.958.002,1.301-.23,1.869.341,2.957.96,3.854-.636.235-1.224.563-1.765.955-.717-1.08-1.479-2.621-1.18-5.053.039-.312.041-.54.009-.737-.124-.763-.753-1.428-1.499-1.583-.138-.029-.262-.042-.449-.043h-.004s-.312.015-.447.043c-.747.155-1.376.82-1.5,1.582-.032.198-.03.426.009.738.357,2.902-.798,4.546-1.584,5.637h5.939c-.62.576-1.149,1.246-1.547,2H2.679c-.445.934-.679,1.964-.679,3,0,2.199.995,5.063,1.344,6Z"/>
</svg>
