<?xml version="1.0" encoding="UTF-8"?>
<svg xmlns="http://www.w3.org/2000/svg" id="Layer_1" data-name="Layer 1" viewBox="0 0 24 24">
  <path d="m22.4,15h1.6v8h-1.6v-2h-1.601c-.993,0-1.8-.807-1.8-1.8v-4.2h1.6v4.2c0,.11.09.2.2.2h1.601v-4.4Zm-12,4.4h-1.601c-.11,0-.2-.09-.2-.2v-4.2h-1.6v4.2c0,.993.807,1.8,1.8,1.8h1.601v2h1.6v-8h-1.6v4.4Zm7.6-1.9v3c0,1.378-1.122,2.5-2.5,2.5s-2.5-1.122-2.5-2.5v-3c0-1.378,1.122-2.5,2.5-2.5s2.5,1.122,2.5,2.5Zm-1.6,0c0-.496-.404-.9-.9-.9s-.9.404-.9.9v3c0,.496.404.9.9.9s.9-.404.9-.9v-3ZM4.5,4c-.828,0-1.5.672-1.5,1.5s.672,1.5,1.5,1.5,1.5-.672,1.5-1.5-.672-1.5-1.5-1.5Zm4,0c-.828,0-1.5.672-1.5,1.5s.672,1.5,1.5,1.5,1.5-.672,1.5-1.5-.672-1.5-1.5-1.5Zm15.5,0v9h-2v-3H2v11h4v2H0V4C0,2.346,1.346,1,3,1h18c1.654,0,3,1.346,3,3Zm-2,4v-4c0-.551-.449-1-1-1H3c-.551,0-1,.449-1,1v4h20Z"/>
</svg>
