<?xml version="1.0" encoding="UTF-8"?>
<svg xmlns="http://www.w3.org/2000/svg" id="Layer_1" data-name="Layer 1" viewBox="0 0 24 24">
  <path d="m21.5,11h-4c-.171,0-.338.018-.5.051v-5.551c0-1.379-1.121-2.5-2.5-2.5h-5c-1.379,0-2.5,1.121-2.5,2.5v3.551c-.162-.033-.329-.051-.5-.051H2.5c-1.379,0-2.5,1.121-2.5,2.5v9.5h24v-7.5c0-1.379-1.121-2.5-2.5-2.5Zm-19.5.5c0-.275.225-.5.5-.5h4c.275,0,.5.225.5.5v7.5H2v-7.5Zm7-6c0-.275.225-.5.5-.5h5c.275,0,.5.225.5.5v13.5h-6V5.5Zm13,13.5h-5v-5.5c0-.275.225-.5.5-.5h4c.275,0,.5.225.5.5v5.5Z"/>
</svg>
