<?xml version="1.0" encoding="UTF-8"?>
<svg xmlns="http://www.w3.org/2000/svg" id="Layer_1" data-name="Layer 1" viewBox="0 0 24 24">
  <path d="m9,18.5v1.5h-5v-1.5c0-.828.672-1.5,1.5-1.5h2c.828,0,1.5.672,1.5,1.5Zm-1-4c0-.828-.672-1.5-1.5-1.5s-1.5.672-1.5,1.5.672,1.5,1.5,1.5,1.5-.672,1.5-1.5Zm-.5-6.5h-2c-.828,0-1.5.672-1.5,1.5v1.5h5v-1.5c0-.828-.672-1.5-1.5-1.5Zm-1-1c.828,0,1.5-.672,1.5-1.5s-.672-1.5-1.5-1.5-1.5.672-1.5,1.5.672,1.5,1.5,1.5ZM24,3v21H0V3C0,1.346,1.346,0,3,0h18c1.654,0,3,1.346,3,3Zm-2,0c0-.551-.449-1-1-1H3c-.551,0-1,.449-1,1v19h20V3Zm-12,15h3v-2h-3v2Zm0-9h3v-2h-3v2Zm7.5,5c-1.381,0-2.5,1.119-2.5,2.5s1.119,2.5,2.5,2.5,2.5-1.119,2.5-2.5-1.119-2.5-2.5-2.5Z"/>
  <path d="m17.817,4.749l.617,1.899h1.997l.196.602-1.616,1.174.617,1.899-.512.372-1.616-1.174-1.616,1.174-.512-.372.617-1.899-1.616-1.174.196-.602h1.997l.617-1.899h.633Z"/>
</svg>
