<?xml version="1.0" encoding="UTF-8"?>
<svg xmlns="http://www.w3.org/2000/svg" id="Layer_1" data-name="Layer 1" viewBox="0 0 24 24">
  <path d="m7,17v-8h-3v-2h8v2h-3v8h-2Zm6,2H2V6c0-.552.449-1,1-1h10v-2H3c-1.654,0-3,1.346-3,3v15h13v-2ZM21,3h-2v2h2c.551,0,1,.448,1,1v13h-3v2h5V6c0-1.654-1.346-3-3-3Zm-4,18V3c0-.552.449-1,1-1h1.5V0h-1.5c-.768,0-1.469.29-2,.766-.531-.476-1.232-.766-2-.766h-1.5v2h1.5c.551,0,1,.448,1,1v18c0,.552-.449,1-1,1h-1.5v2h1.5c.768,0,1.469-.29,2-.766.531.476,1.232.766,2,.766h1.5v-2h-1.5c-.551,0-1-.448-1-1Z"/>
</svg>
