<?xml version="1.0" encoding="UTF-8"?>
<svg xmlns="http://www.w3.org/2000/svg" id="Layer_1" data-name="Layer 1" viewBox="0 0 24 24" width="512" height="512"><path d="m24,0H7s0,1.999,0,1.999h2v7.291l-4.253,1.492C1.188,11.895-.802,15.694.31,19.254c.887,2.839,3.479,4.746,6.451,4.746.685,0,1.364-.104,2.041-.317l8.441-2.856c2.846-.962,4.757-3.626,4.757-6.63V2.001h2S24,0,24,0Zm-4,14.195c0,2.146-1.365,4.049-3.397,4.736l-8.42,2.85c-.462.145-.94.218-1.422.218-2.092,0-3.918-1.343-4.543-3.342-.782-2.507.619-5.183,3.158-5.976l5.624-1.973V2h9v12.196Z"/></svg>
