<?xml version="1.0" encoding="UTF-8"?>
<svg xmlns="http://www.w3.org/2000/svg" id="Layer_1" data-name="Layer 1" viewBox="0 0 24 24" width="512" height="512"><path d="M23.999,18.972l-4.15,4.149c-.566,.566-1.32,.879-2.121,.879s-1.555-.312-2.122-.879l-3.464-3.507,1.423-1.406,3.459,3.503c.369,.369,1.033,.375,1.41-.004l2.747-2.747-2.667-2.71-1.977,1.936-1.399-1.43,3.403-3.33,5.458,5.546ZM4.388,11.86l1.405-1.424-3.498-3.455c-.39-.39-.39-1.024,0-1.414l2.747-2.747,2.71,2.668-1.936,1.978,1.43,1.398,3.33-3.403L5.03,.004,.88,4.153c-1.168,1.17-1.168,3.072,.005,4.247l3.503,3.46ZM22.925,6.269L5.193,24H0v-5.193L17.731,1.075c1.431-1.431,3.761-1.433,5.193,0,1.431,1.432,1.431,3.762,0,5.193Zm-5.199,2.371l-2.365-2.365L2,19.635v2.365h2.365l13.361-13.361Zm3.785-6.15c-.652-.652-1.712-.651-2.365,0l-2.371,2.371,2.365,2.365,2.371-2.371c.651-.652,.651-1.713,0-2.365Z"/></svg>
