<?xml version="1.0" encoding="UTF-8"?>
<svg xmlns="http://www.w3.org/2000/svg" id="Layer_1" data-name="Layer 1" viewBox="0 0 24 24">
  <path d="m23.773,8.366c-.202-.247-4.783-5.745-10.773-6.318V0h-2v2.048C5.01,2.621.429,8.119.227,8.366l-.227.276v3.358h24v-3.358l-.227-.276Zm-1.773,1.634H2v-.625c.998-1.108,5.156-5.375,10-5.375s8.999,4.268,10,5.375v.625Zm-2.601,10.586c.781.781.781,2.047,0,2.828-.391.391-.902.586-1.414.586-.512,0-1.024-.195-1.414-.586-.781-.781-.781-2.047,0-2.828l1.414-1.586,1.414,1.586Zm-5.985,0c.781.781.781,2.047,0,2.828-.391.391-.902.586-1.414.586-.512,0-1.024-.195-1.414-.586-.781-.781-.781-2.047,0-2.828l1.414-1.586,1.414,1.586Zm-6.015,0c.781.781.781,2.047,0,2.828-.391.391-.902.586-1.414.586-.512,0-1.024-.195-1.414-.586-.781-.781-.781-2.047,0-2.828l1.414-1.586,1.414,1.586Zm9.029-3.172c-.391.391-.902.586-1.414.586-.512,0-1.024-.195-1.414-.586-.781-.781-.781-2.047,0-2.828l1.414-1.586,1.414,1.586c.781.781.781,2.047,0,2.828Zm-6.015,0c-.391.391-.902.586-1.414.586-.512,0-1.024-.195-1.414-.586-.781-.781-.781-2.047,0-2.828l1.414-1.586,1.414,1.586c.781.781.781,2.047,0,2.828Z"/>
</svg>
