<?xml version="1.0" encoding="UTF-8"?>
<svg xmlns="http://www.w3.org/2000/svg" id="Layer_1" data-name="Layer 1" viewBox="0 0 24 24">
  <path d="m9.396,10.735c.057-.334.029-.519.007-.599-.188-.69-.75-1.136-1.432-1.136-.213,0-.428.044-.64.132-.254.105-.503.367-.682.719l-2.193,4.149h-2.456c-1.105,0-2,.895-2,2v6c0,1.105.895,2,2,2h12.5l1.5-8v-2h-7.184l.58-3.265Zm-7.396,5.265h2v6h-2v-6Zm11.965,0l-1.125,6h-6.84v-6h7.965Zm1.035-10c-1.93,0-3.5,1.57-3.5,3.5s1.57,3.5,3.5,3.5,3.5-1.57,3.5-3.5-1.57-3.5-3.5-3.5Zm0,5c-.827,0-1.5-.673-1.5-1.5s.673-1.5,1.5-1.5,1.5.673,1.5,1.5-.673,1.5-1.5,1.5Zm6.791,1.662l1.748,1.119-1.078,1.684-1.754-1.123c-.733.861-1.657,1.557-2.707,2.021v-2.282c1.5-.99,2.5-2.677,2.5-4.58,0-3.032-2.468-5.5-5.5-5.5-1.885,0-3.618.949-4.636,2.539l-.541.845-3.365-2.166,1.082-1.682,1.735,1.116c1.202-1.423,2.879-2.341,4.724-2.586V0h2v2.067c1.882.252,3.544,1.204,4.717,2.585l1.744-1.116,1.078,1.684-1.741,1.115c.45.963.702,2.036.702,3.167,0,1.125-.254,2.198-.709,3.162Z"/>
</svg>
