<?xml version="1.0" encoding="UTF-8"?>
<svg xmlns="http://www.w3.org/2000/svg" id="Layer_1" data-name="Layer 1" viewBox="0 0 24 24">
  <path d="m14,3c0-.552-.448-1-1-1H3c-.552,0-1,.448-1,1v19h10v2H0V3C0,1.346,1.346,0,3,0h10c1.654,0,3,1.346,3,3v8.525c-1.207.914-2,2.347-2,3.975V3Zm-7,10h-3v2h3v-2Zm2,2h3v-2h-3v2Zm-5,4h3v-2h-3v2Zm5,0h3v-2h-3v2Zm-2-14h-3v2h3v-2Zm2,2h3v-2h-3v2Zm-2,2h-3v2h3v-2Zm2,2h3v-2h-3v2Zm10,7c1.379,0,2.5-1.121,2.5-2.5s-1.121-2.5-2.5-2.5-2.5,1.121-2.5,2.5,1.121,2.5,2.5,2.5Zm2,1h-4c-1.654,0-3,1.346-3,3v2h2v-2c0-.552.448-1,1-1h4c.552,0,1,.448,1,1v2h2v-2c0-1.654-1.346-3-3-3Z"/>
</svg>
