<?xml version="1.0" encoding="UTF-8"?>
<svg xmlns="http://www.w3.org/2000/svg" id="Layer_1" data-name="Layer 1" viewBox="0 0 24 24" width="512" height="512"><path d="m24,11c0-2.757-2.243-5-5-5h-4v6h-1.516L3.984,0h-1.984v6.5c0,.276-.224.5-.5.5H0v2h1.5c1.378,0,2.5-1.122,2.5-2.5v-3.257l6.933,8.757H3c-1.654,0-3,1.346-3,3v5h2.037c-.024.165-.037.331-.037.5,0,1.93,1.57,3.5,3.5,3.5s3.5-1.57,3.5-3.5c0-.169-.013-.335-.037-.5h6.074c-.024.165-.037.331-.037.5,0,1.93,1.57,3.5,3.5,3.5s3.5-1.57,3.5-3.5c0-.169-.013-.335-.037-.5h2.037v-9ZM7,20.5c0,.827-.673,1.5-1.5,1.5s-1.5-.673-1.5-1.5c0-.189.037-.356.091-.5h2.819c.054.144.091.311.091.5Zm8-2.5H2v-3c0-.551.449-1,1-1h12v4Zm4-10c1.654,0,3,1.346,3,3v1h-5v-4h2Zm1,12.5c0,.827-.673,1.5-1.5,1.5s-1.5-.673-1.5-1.5c0-.189.037-.356.091-.5h2.819c.054.144.091.311.091.5Zm-3-2.5v-4h5v4h-5Z"/></svg>
