<?xml version="1.0" encoding="UTF-8"?>
<svg xmlns="http://www.w3.org/2000/svg" id="Layer_1" data-name="Layer 1" viewBox="0 0 24 24">
  <path d="m11,10.5v3c0,1.381,1.119,2.5,2.5,2.5s2.5-1.119,2.5-2.5v-3c0-1.381-1.119-2.5-2.5-2.5s-2.5,1.119-2.5,2.5Zm3.4,0v3c0,.496-.404.9-.9.9s-.9-.404-.9-.9v-3c0-.496.404-.9.9-.9s.9.404.9.9Zm9.6,4.231c0,.69-.56,1.25-1.25,1.25s-1.25-.56-1.25-1.25.56-1.25,1.25-1.25,1.25.56,1.25,1.25Zm-5.75-4.25c-.69,0-1.25-.56-1.25-1.25s.56-1.25,1.25-1.25,1.25.56,1.25,1.25-.56,1.25-1.25,1.25Zm-1.383,5.519l5.222-8h1.911l-5.222,8h-1.911Zm-8.466,0v-5.332l-.917.946-1.149-1.113,2.44-2.519h1.226v8.018h-1.6Zm11.566,2h2.398c-2.082,3.57-5.943,5.981-10.365,5.981C5.383,23.981,0,18.598,0,11.981S5.383-.019,12-.019C16.438-.019,20.312,2.409,22.388,6h-2.393c-1.826-2.434-4.725-4.019-7.995-4.019C6.486,1.981,2,6.467,2,11.981s4.486,10,10,10c3.253,0,6.139-1.568,7.967-3.981Z"/>
</svg>
