<?xml version="1.0" encoding="UTF-8"?>
<svg xmlns="http://www.w3.org/2000/svg" id="Layer_1" data-name="Layer 1" viewBox="0 0 24 24" width="512" height="512"><path d="M14.849,12.747l-5.448-4.264c-.824-.646-1.977-.646-2.801,0L1.151,12.746c-.731,.573-1.151,1.435-1.151,2.363v8.891H16V15.109c0-.929-.42-1.79-1.151-2.362Zm-.849,9.253H2v-6.891c0-.31,.14-.597,.384-.788l5.448-4.264c.099-.076,.237-.076,.336,0l5.448,4.265c.244,.19,.384,.478,.384,.787v6.891ZM6,15h4v4H6v-4Zm12,7h2.665l-3.711-7h2.043l-3.673-6h2.746l-3.625-6.821c-.127-.154-.292-.179-.383-.179h0c-.088,0-.247,.024-.372,.166l-2.466,5.204-.588-.46c-.344-.27-.722-.47-1.114-.621,0,0,2.506-5.243,2.512-5.251,.469-.651,1.224-1.038,2.028-1.038h0c.817,0,1.584,.4,2.051,1.071l5.285,9.929h-2.504l3.673,6h-2.288l3.71,7h-5.988v-2Z"/></svg>
