<?xml version="1.0" encoding="UTF-8"?>
<svg xmlns="http://www.w3.org/2000/svg" id="Layer_1" data-name="Layer 1" viewBox="0 0 24 24">
  <path d="m10.213,7.847l-2.212-1.231v-.615h2.899l.784-3h.648l.784,3h2.883v.611l-2.197,1.273.884,2.686-.504.349-2.173-1.68-2.183,1.687-.48-.362.869-2.717Zm7.13-.283l.48.362,2.183-1.687,2.173,1.68.505-.349-.884-2.686,2.197-1.273v-.611h-2.883l-.784-3h-.648l-.784,3h-2.899v.615l2.212,1.231-.869,2.717ZM1.343,13.564l.48.362,2.183-1.687,2.173,1.68.505-.349-.884-2.686,2.197-1.273v-.611h-2.883l-.784-3h-.648l-.784,3H0v.615l2.212,1.231-.869,2.717Zm22.657-.064v10.5H0v-4.5c0-1.378,1.121-2.5,2.5-2.5h4c.171,0,.338.017.5.05v-.55c0-1.378,1.121-2.5,2.5-2.5h4c.171,0,.338.017.5.05v-.55c0-1.378,1.121-2.5,2.5-2.5h5c1.379,0,2.5,1.122,2.5,2.5Zm-15,8.5h5v-5.5c0-.276-.225-.5-.5-.5h-4c-.275,0-.5.224-.5.5v5.5Zm-7,0h5v-2.5c0-.276-.225-.5-.5-.5H2.5c-.275,0-.5.224-.5.5v2.5Zm20-8.5c0-.276-.225-.5-.5-.5h-5c-.275,0-.5.224-.5.5v8.5h6v-8.5Z"/>
</svg>
