<?xml version="1.0" encoding="UTF-8"?>
<svg xmlns="http://www.w3.org/2000/svg" id="Layer_1" data-name="Layer 1" viewBox="0 0 24 24">
  <path d="m24,22v2h-2v-2c0-.552-.449-1-1-1h-3c-.551,0-1,.448-1,1v2h-2v-2c0-.552-.449-1-1-1h-4c-.551,0-1,.448-1,1v2h-2v-2c0-.552-.449-1-1-1h-3c-.551,0-1,.448-1,1v2H0v-2c0-1.654,1.346-3,3-3h3c.771,0,1.468.301,2,.78.532-.48,1.229-.78,2-.78h4c.771,0,1.468.301,2,.78.532-.48,1.229-.78,2-.78h3c1.654,0,3,1.346,3,3ZM7,15.5c0-1.381-1.119-2.5-2.5-2.5s-2.5,1.119-2.5,2.5,1.119,2.5,2.5,2.5,2.5-1.119,2.5-2.5ZM21,0H3C1.346,0,0,1.346,0,3v12.053c.153-1.374.933-2.642,2-3.407V3c0-.552.449-1,1-1h18c.551,0,1,.448,1,1v8.654c1.053.761,1.842,2.04,2,3.399V3c0-1.654-1.346-3-3-3Zm-9,18c1.381,0,2.5-1.119,2.5-2.5s-1.119-2.5-2.5-2.5-2.5,1.119-2.5,2.5,1.119,2.5,2.5,2.5Zm10-2.5c0-1.381-1.119-2.5-2.5-2.5s-2.5,1.119-2.5,2.5,1.119,2.5,2.5,2.5,2.5-1.119,2.5-2.5Z"/>
</svg>
