<?xml version="1.0" encoding="UTF-8"?>
<svg xmlns="http://www.w3.org/2000/svg" id="Layer_1" data-name="Layer 1" viewBox="0 0 24 24">
  <path d="m19,1H5C2.243,1,0,3.243,0,6c0,1.563.754,3.04,2,3.979v13.021h20v-13.021c1.246-.939,2-2.416,2-3.979,0-2.757-2.243-5-5-5Zm1.497,7.581l-.497.289v12.13H4v-12.13l-.497-.289c-.941-.548-1.503-1.513-1.503-2.581,0-1.654,1.346-3,3-3h14c1.654,0,3,1.346,3,3,0,1.068-.562,2.033-1.503,2.581Zm-7.34-.081c-.618-.619-1.695-.618-2.312,0l-3.346,3.345c-.309.309-.479.719-.479,1.156s.17.848.479,1.155l3.345,3.345c.309.31.719.479,1.156.479s.847-.17,1.155-.479l3.346-3.345c.309-.309.479-.719.479-1.156s-.17-.848-.479-1.155l-3.345-3.345Zm-1.156,7.328l-2.829-2.828,2.829-2.828,2.829,2.828-2.829,2.828Z"/>
</svg>
