<?xml version="1.0" encoding="UTF-8"?>
<svg xmlns="http://www.w3.org/2000/svg" id="Layer_1" data-name="Layer 1" viewBox="0 0 24 24">
  <path d="m6.757,11h-3.757c-.552,0-1,.448-1,1v3H0v-3c0-1.654,1.346-3,3-3h1.757l2,2Zm2.243,7c-1.654,0-3,1.346-3,3v3h2v-3c0-.551.449-1,1-1h6.757l-2-2h-4.757Zm7,6h2v-1.757l-2-2v3.757Zm5-15h-4.537c.518.577.924,1.254,1.188,2h3.349c.552,0,1,.448,1,1v3h2v-3c0-1.654-1.346-3-3-3Zm-5.233,5.353l8.19,8.19-1.414,1.414L.043,1.457,1.457.043l1.437,1.437c.746-.917,1.879-1.48,3.106-1.48,2.206,0,4,1.794,4,4,0,1.226-.563,2.36-1.48,3.106l2.148,2.148c1.412-.473,3.076-.167,4.16.918.756.755,1.172,1.76,1.172,2.828,0,.468-.08.924-.233,1.353ZM4.323,2.909l2.768,2.768c.557-.363.909-.991.909-1.677,0-1.103-.897-2-2-2-.686,0-1.313.352-1.677.909Zm9.677,1.091c0-2.206,1.794-4,4-4s4,1.794,4,4-1.794,4-4,4-4-1.794-4-4Zm2,0c0,1.103.897,2,2,2s2-.897,2-2-.897-2-2-2-2,.897-2,2Zm-4,13c.236,0,.463-.03.688-.07l-4.618-4.618c-.039.224-.07.452-.07.688,0,2.206,1.794,4,4,4Z"/>
</svg>
