<?xml version="1.0" encoding="UTF-8"?>
<svg xmlns="http://www.w3.org/2000/svg" id="Layer_1" data-name="Layer 1" viewBox="0 0 24 24" width="512" height="512"><path d="M12,0C5.383,0,0,5.383,0,12s5.383,12,12,12,12-5.383,12-12S18.617,0,12,0Zm0,22c-5.514,0-10-4.486-10-10S6.486,2,12,2s10,4.486,10,10-4.486,10-10,10Zm6-11.5c0,.828-.672,1.5-1.5,1.5-.653,0-1.208-.417-1.414-1h-2.086v-2h3.5c.828,0,1.5,.672,1.5,1.5Zm-10.914,.5h-2.086v-2h3.5c.828,0,1.5,.672,1.5,1.5s-.672,1.5-1.5,1.5c-.653,0-1.208-.417-1.414-1Zm4.914,5c1.965,0,3.531,1.149,3.597,1.198l-1.194,1.604c-.007-.005-1.114-.802-2.403-.802s-2.396,.797-2.407,.805l-1.19-1.607c.066-.049,1.632-1.198,3.597-1.198Z"/></svg>
