<?xml version="1.0" encoding="UTF-8"?>
<svg xmlns="http://www.w3.org/2000/svg" id="Layer_1" data-name="Layer 1" viewBox="0 0 24 24">
  <path d="m21.052,15h2.187c-.425,1.085-1.016,2.109-1.781,3.028-.295.354-.457.802-.457,1.263v4.709h-13v-3h-2.247c-1.499,0-2.777-1.121-2.974-2.606l-.449-3.394H0v-2.212s.514-1.167.728-1.658c1.178-2.701,2.291-5.253,3.495-6.741,1.342-1.793,3.197-3.131,5.342-3.839C11.002.076,12.5-.076,14.022.063c-.559.564-1.009,1.23-1.35,1.956-.844.03-1.676.164-2.481.429-1.754.579-3.272,1.675-4.391,3.168-1.056,1.307-2.166,3.851-3.239,6.312-.156.358-.312.715-.468,1.07h1.99l.678,5.131c.066.495.492.869.992.869h4.247v3h9v-2.709c0-.927.327-1.831.92-2.543.451-.542.824-1.131,1.132-1.748ZM14.135,3.826c.419-1.821,1.866-3.27,3.688-3.69,1.525-.35,3.087-.005,4.288.949,1.201.955,1.89,2.382,1.89,3.915,0,1.664-.829,3.211-2.218,4.14-.485.325-.785.935-.783,1.593l.002,2.268h-4.001v-2.272c0-.657-.299-1.265-.781-1.586-1.741-1.164-2.559-3.25-2.084-5.315Zm3.195,3.652c.563.376.988.909,1.275,1.522h.788c.287-.612.714-1.146,1.277-1.522.832-.557,1.329-1.483,1.329-2.478,0-.92-.413-1.776-1.135-2.35-.539-.429-1.182-.651-1.858-.651-.242,0-.487.028-.735.085-1.063.246-1.942,1.126-2.188,2.19-.292,1.268.186,2.495,1.246,3.204Z"/>
</svg>
