<?xml version="1.0" encoding="UTF-8"?>
<svg xmlns="http://www.w3.org/2000/svg" id="Layer_1" data-name="Layer 1" viewBox="0 0 24 24">
  <path d="m12,0C5.047,0,0,2.523,0,6v12c0,2.001,1.689,3.813,4.634,4.972l1.366.537v-14.149l-.634-.249c-2.108-.829-3.366-1.992-3.366-3.11,0-1.932,4.018-4,10-4s10,2.068,10,4c0,1.118-1.258,2.281-3.366,3.11l-.634.249v14.149l1.366-.537c2.945-1.158,4.634-2.971,4.634-4.972V6c0-3.477-5.047-6-12-6ZM4,10.703v9.758c-1.273-.735-2-1.611-2-2.461v-8.482c.56.438,1.229.836,2,1.186Zm18,7.297c0,.85-.727,1.726-2,2.461v-9.758c.771-.35,1.44-.748,2-1.186v8.482Zm-10-8c-1.381,0-2.5-1.119-2.5-2.5s1.119-2.5,2.5-2.5,2.5,1.119,2.5,2.5-1.119,2.5-2.5,2.5Zm1,1h-2c-1.654,0-3,1.346-3,3v6h1v4h2v-4h2v4h2v-4h1v-6c0-1.654-1.346-3-3-3Zm-3,3c0-.552.449-1,1-1h2c.551,0,1,.448,1,1v4h-4v-4Z"/>
</svg>
