<?xml version="1.0" encoding="UTF-8"?>
<svg xmlns="http://www.w3.org/2000/svg" id="Layer_1" data-name="Layer 1" viewBox="0 0 24 24" width="512" height="512"><path d="M12,23.994l-7.063-6.908c-3.906-3.907-3.906-10.251-.008-14.15C6.818,1.046,9.329,.006,12,.006s5.182,1.04,7.071,2.929h0c3.898,3.899,3.898,10.243,0,14.142l-7.071,6.916Zm0-21.987c-2.137,0-4.146,.832-5.657,2.343-3.119,3.119-3.119,8.194,0,11.314l5.657,5.532,5.665-5.54c3.111-3.111,3.11-8.187-.008-11.306-1.512-1.511-3.521-2.343-5.657-2.343Zm-.758,12.994H7v-4.243l4.879-4.878c1.17-1.17,3.072-1.17,4.242,0,.566,.566,.879,1.32,.879,2.121s-.313,1.555-.879,2.122l-4.879,4.878Zm-2.242-2h1.414l4.293-4.293c.189-.189,.293-.44,.293-.707s-.104-.518-.293-.707c-.391-.391-1.023-.39-1.414,0l-4.293,4.292v1.415Z"/></svg>
