<?xml version="1.0" encoding="UTF-8"?>
<svg xmlns="http://www.w3.org/2000/svg" id="Layer_1" data-name="Layer 1" viewBox="0 0 24 24" width="512" height="512"><path d="M23.12,5.12c.57-.57,.88-1.32,.88-2.12s-.31-1.55-.88-2.12c-1.17-1.17-3.07-1.17-4.24,0L8,11.76v4.24h4.24L23.12,5.12Zm-1.41-2.83c.19,.19,.29,.44,.29,.71s-.1,.52-.29,.71l-1.29,1.29-1.41-1.41,1.29-1.29c.39-.39,1.02-.39,1.41,0ZM10,14v-1.41l7.59-7.59,1.41,1.41-7.59,7.59h-1.41Zm14,8v2c-1.54,0-2.29-1.12-2.83-1.95-.5-.75-.75-1.05-1.17-1.05-.51,0-.9,.44-1.51,1.15-.7,.83-1.57,1.85-3.03,1.85s-2.32-1.03-3-1.87c-.58-.7-.96-1.13-1.46-1.13s-.97,.39-1.71,1.03c-1.01,.88-2.27,1.97-4.29,1.97-2.76,0-5-2.24-5-5s2.24-5,5-5h1v2h-1c-1.65,0-3,1.35-3,3s1.35,3,3,3c1.28,0,2.1-.72,2.98-1.48,.86-.75,1.75-1.52,3.02-1.52,1.47,0,2.32,1.03,3,1.87,.58,.7,.96,1.13,1.46,1.13s.9-.44,1.51-1.15c.7-.83,1.57-1.85,3.03-1.85s2.29,1.12,2.83,1.95c.5,.75,.75,1.05,1.17,1.05Z"/></svg>
