<?xml version="1.0" encoding="UTF-8"?>
<svg xmlns="http://www.w3.org/2000/svg" id="Layer_1" data-name="Layer 1" viewBox="0 0 24 24">
  <path d="m22.59,6.66c-1.29-.62-2.24-1.48-2.83-2.56l4.24-3.49c-.2-.34-.17-.28-.37-.61l-4.63,1.6V0c-1.43,0-2.62.99-2.92,2.33-2.85.93-3.87,3.66-4.05,5.56-3.16-.7-6.22-4.47-6.25-4.51l-1.43-1.78-.34,2.26c-.03.19-.44,3.18,1.08,6.39-2.14.72-5.1,3.07-5.1,8.76h2c0-2.8.67-4.75,2-5.83.04,1.6.65,3.33,1.14,4.74.15.42.28.81.4,1.17l-.68,4.92h6.03l.5-4h1.62v4h6v-5.4l.38-1.81c.42-1.46.62-2.42.62-3.9v-2.02l4-.5v-1.47c0-.96-.55-1.84-1.41-2.25Zm-4.59,2.45v3.78c0,1.25-.17,2.04-.55,3.41l-.42,1.98-.02,3.71h-2v-4h-5.38l-.5,4h-1.97l.43-3.08s-.36-1.15-.55-1.68c-.48-1.38-1.03-2.95-1.03-4.25,0-.31.07-.62.21-.89.87,1.19,2.07,2.34,3.71,3.32l1.03-1.71c-3.49-2.09-4.58-5.08-4.89-7.16,1.66,1.54,4.26,3.44,6.95,3.44h1v-1.5c0-.43.13-4.01,3.55-4.46.71,1.92,2.13,3.44,4.18,4.42.08.04.14.09.19.16l-3.91.49Z"/>
</svg>
