<?xml version="1.0" encoding="UTF-8"?>
<svg xmlns="http://www.w3.org/2000/svg" id="Layer_1" data-name="Layer 1" viewBox="0 0 24 24">
  <path d="m24,11.5c0-1.876-1.483-3.412-3.34-3.497.218-.456.34-.966.34-1.503,0-1.93-1.57-3.5-3.5-3.5h-1.74c-.897-1.572-2.528-3-4.26-3h-1v1c0,.772-.12,1.442-.357,2h-3.643c-1.93,0-3.5,1.57-3.5,3.5,0,.538.122,1.048.34,1.503-1.856.084-3.34,1.621-3.34,3.497,0,1.627,1.121,2.986,2.628,3.377l1.062,6.6c.235,1.462,1.481,2.523,2.962,2.523h10.695c1.48,0,2.727-1.061,2.962-2.523l1.062-6.6c1.507-.39,2.628-1.75,2.628-3.377Zm-5.665,9.659c-.078.487-.494.841-.987.841H6.652c-.493,0-.909-.354-.987-.841l-.991-6.159h14.652l-.991,6.159Zm2.165-8.159H3.5c-.827,0-1.5-.673-1.5-1.5s.673-1.5,1.5-1.5h9.5v-2h-6.5c-.827,0-1.5-.673-1.5-1.5s.673-1.5,1.5-1.5h4.8l.294-.469c.405-.647.677-1.399.81-2.244.707.41,1.429,1.216,1.829,2.118l.264.595h3.004c.827,0,1.5.673,1.5,1.5s-.673,1.5-1.5,1.5h-.5v2h3.5c.827,0,1.5.673,1.5,1.5s-.673,1.5-1.5,1.5Z"/>
</svg>
