<?xml version="1.0" encoding="UTF-8"?>
<svg xmlns="http://www.w3.org/2000/svg" id="Layer_1" data-name="Layer 1" viewBox="0 0 24 24" width="512" height="512"><path d="M24,16v8h-8c-2.955,0-5.535-1.615-6.92-4.004,.769-.006,1.518-.091,2.242-.248,1.101,1.371,2.787,2.252,4.678,2.252h6v-6c0-1.891-.881-3.577-2.252-4.678,.156-.724,.242-1.473,.248-2.242,2.389,1.385,4.004,3.965,4.004,6.92Zm-15,2H0V9C0,4.038,4.038,0,9,0s9,4.038,9,9-4.038,9-9,9Zm7-9c0-3.86-3.14-7-7-7S2,5.14,2,9v7h7c3.86,0,7-3.14,7-7Zm-8-3h2c.551,0,1,.449,1,1h2c0-1.654-1.346-3-3-3v-1h-2v1c-1.654,0-3,1.346-3,3,0,1.36,.974,2.51,2.315,2.733l3.042,.507c.373,.062,.644,.382,.644,.76,0,.551-.449,1-1,1h-2c-.551,0-1-.449-1-1h-2c0,1.654,1.346,3,3,3v1h2v-1c1.654,0,3-1.346,3-3,0-1.36-.974-2.51-2.315-2.733l-3.042-.507c-.373-.062-.644-.382-.644-.76,0-.551,.449-1,1-1Z"/></svg>
