<?xml version="1.0" encoding="UTF-8"?>
<svg xmlns="http://www.w3.org/2000/svg" id="Layer_1" data-name="Layer 1" viewBox="0 0 24 24">
  <path d="m24,19V4c0-.814-.335-1.603-.918-2.165-.562-.541-1.294-.819-1.998-.796l-6.077-.039-.014,2,6.121.038c.209-.012.413.076.58.237.194.188.306.451.306.725v9H2V4c0-.264.102-.507.286-.686.193-.187.446-.288.791-.275h5.923V1.039H3.109c-.832-.022-1.628.271-2.214.838-.578.559-.896,1.312-.896,2.123v15h11v2h-5v2h12v-2h-5v-2h11ZM2,15h20v2H2v-2Zm9-7V0h2v8l2.293-2.293,1.414,1.414-3.293,3.293c-.39.39-.902.585-1.414.585s-1.024-.195-1.414-.585l-3.293-3.293,1.414-1.414,2.293,2.293Z"/>
</svg>
