<?xml version="1.0" encoding="UTF-8"?>
<svg xmlns="http://www.w3.org/2000/svg" id="Layer_1" data-name="Layer 1" viewBox="0 0 24 24" width="512" height="512"><path d="M16.498,19.48c.418-1.797,1.219-6.166,.281-10.151-.173-.734-.357-1.418-.544-2.049,2.931,1.693,6.058,1.721,6.248,1.721h.004l1.322-.003-.363-1.271c-.043-.154-1.111-3.791-4.275-5.903C16.799,.238,14,0,12,0S7.238,.394,4.868,1.976C1.714,4.082,.606,7.557,.561,7.704l-.401,1.293,1.354,.003c.099-.011,2.453-.012,4.991-1.094,.07,1.983,.818,3.544,.859,3.629l.425,.871,.884-.397c.104-.047,1.891-.865,3.323-2.483,.003,.161,.005,.319,.005,.474,0,3.848-1.842,7.84-2.506,9.153C4.225,19.784,.216,22.162,.023,22.278l1.03,1.714c.05-.03,5.062-2.992,10.947-2.992s10.896,2.962,10.947,2.992l1.03-1.714c-.168-.101-3.221-1.912-7.479-2.798ZM7.254,5.244c-1.41,.941-2.975,1.378-4.113,1.581,.547-.985,1.458-2.265,2.837-3.186,1.412-.942,3.06-1.345,4.271-1.516-.624,.961-1.611,2.196-2.994,3.12Zm4.271,1.294c-.543,1.468-1.832,2.521-2.729,3.107-.209-.737-.4-1.79-.238-2.872,1.409-.986,2.449-2.216,3.16-3.253,.154,.911,.182,2.001-.194,3.018Zm6.534-3.052c1.417,.946,2.327,2.316,2.857,3.35-1.144-.198-2.737-.634-4.172-1.591-.703-.469-1.304-1.022-1.808-1.579l-.02-.047-.016,.007c-.492-.549-.89-1.1-1.196-1.578,1.216,.123,2.91,.474,4.354,1.438Zm-3.542,15.669c-.812-.098-1.655-.154-2.518-.154-.071,0-.142,0-.213,.002,.889-1.961,2.213-5.471,2.213-9.002,0-1.222-.094-2.645-.198-3.745,.343,.974,.708,2.161,1.031,3.532,.858,3.649,.047,7.832-.315,9.367Z"/></svg>
