<?xml version="1.0" encoding="UTF-8"?>
<svg xmlns="http://www.w3.org/2000/svg" id="Layer_1" data-name="Layer 1" viewBox="0 0 24 24">
  <path d="m17.414,14.228l2.086-2.728s-.659-.633-1.937-1.263c.279-.692.437-1.446.437-2.237h2v-2h-2c0-1.406-1.491-6-3.5-6-.978,0-1.857.578-2.5,1.128-.643-.55-1.522-1.128-2.5-1.128-2.009,0-3.5,4.594-3.5,6h-2v2h2c0,.791.158,1.545.437,2.237-1.278.629-1.937,1.263-1.937,1.263l2.086,2.728c-2.066.614-3.586,2.509-3.586,4.772v5h2v-5c0-1.636,1.317-2.965,2.945-2.995l3.055,3.995v4h2v-4l3.055-3.995c1.629.03,2.945,1.359,2.945,2.995v5h2v-5c0-2.263-1.521-4.157-3.586-4.772Zm-7.071,1.772l-.962-2.61c.793.387,1.68.61,2.62.61s1.827-.223,2.62-.61l-.962,2.61h-3.316Zm-.721-13.988c.579.103,1.363.888,1.672,1.195l.707.707.707-.707c.309-.308,1.093-1.093,1.672-1.195.562.48,1.621,2.906,1.621,3.988h-8c0-1.082,1.059-3.508,1.621-3.988Zm6.379,5.988c0,2.206-1.794,4-4,4s-4-1.794-4-4h8Z"/>
</svg>
