<?xml version="1.0" encoding="UTF-8"?>
<svg xmlns="http://www.w3.org/2000/svg" id="Layer_1" data-name="Layer 1" viewBox="0 0 24 24">
  <path d="m14.5,12.5c0,1.381-1.119,2.5-2.5,2.5s-2.5-1.119-2.5-2.5,1.119-2.5,2.5-2.5,2.5,1.119,2.5,2.5Zm3.979,3.5H5.521l-3.201-4.573-1.639,1.146,3.799,5.427h3.521v6h2v-6h4v6h2v-6h3.521l3.799-5.427-1.639-1.146-3.201,4.573Zm-7.479-8.154l2.755-2.755c.327-.327.327-.856,0-1.183l-2.755-2.755v2.347h-2v2h2v2.346Zm11.898-2.543l1,.576-.998,1.732-1.002-.577c-.391.371-.87.642-1.399.801v1.163h-2v-1.163c-.529-.159-1.007-.431-1.399-.801l-1.002.577-.998-1.732,1-.576c-.061-.259-.102-.526-.102-.803s.041-.544.102-.803l-1-.576.998-1.732,1.002.577c.391-.371.87-.642,1.399-.801V0h2v1.163c.529.159,1.007.431,1.399.801l1.002-.577.998,1.732-1,.576c.061.259.102.526.102.803s-.041.544-.102.803Zm-1.898-.803c0-.827-.673-1.5-1.5-1.5s-1.5.673-1.5,1.5.673,1.5,1.5,1.5,1.5-.673,1.5-1.5ZM.091,2.689C.375,1.427,1.412.385,2.669.095c1.092-.249,2.16-.011,3.01.666.839.67,1.32,1.668,1.32,2.739,0,1.04-.463,2.02-1.271,2.686-.463.382-.729.902-.729,1.43v1.385h-3v-1.386c0-.528-.264-1.047-.723-1.424C.233,5.332-.209,4.023.091,2.689Zm2.455,1.955c.393.322.715.703.955,1.122.24-.418.562-.8.955-1.124.346-.285.544-.701.544-1.143,0-.459-.207-.888-.567-1.175-.271-.216-.586-.326-.929-.326-.126,0-.256.016-.388.046-.514.118-.956.564-1.073,1.084-.133.591.051,1.143.504,1.516Z"/>
</svg>
