<?xml version="1.0" encoding="UTF-8"?>
<svg xmlns="http://www.w3.org/2000/svg" id="Layer_1" data-name="Layer 1" viewBox="0 0 24 24" width="512" height="512"><path d="M11,16.42l-.57-.4c-.74-.51-4.43-3.21-4.43-5.86,0-1.74,1.35-3.16,3-3.16,.78,0,1.48,.27,2,.73,.52-.46,1.22-.73,2-.73,1.65,0,3,1.42,3,3.16,0,2.65-3.69,5.35-4.43,5.86l-.57,.4Zm-2-7.42c-.55,0-1,.52-1,1.16,0,1.05,1.6,2.71,3,3.8,1.4-1.09,3-2.75,3-3.8,0-.64-.45-1.16-1-1.16-.5,0-1,.31-1,1h-2c0-.69-.5-1-1-1Zm7,15H3v-4.71c0-.46-.16-.91-.46-1.26C.67,15.78-.22,12.92,.05,9.98,.5,4.95,4.46,.79,9.45,.11c4.04-.56,7.91,1.06,10.35,4.31,1.18,1.46,2.3,4.02,3.48,6.72l.72,1.65v2.21h-2.33l-.45,3.39c-.2,1.49-1.47,2.61-2.97,2.61h-2.25v3Zm-11-2H14v-3h4.25c.5,0,.93-.37,.99-.87l.68-5.13h1.99l-.46-1.06c-1.08-2.46-2.19-5.01-3.22-6.29-2.02-2.69-5.19-4.01-8.5-3.56-4.08,.56-7.31,3.96-7.69,8.07-.22,2.4,.51,4.74,2.04,6.59,.59,.71,.92,1.62,.92,2.54v2.71Z"/></svg>
