<?xml version="1.0" encoding="UTF-8"?>
<svg xmlns="http://www.w3.org/2000/svg" id="Layer_1" data-name="Layer 1" viewBox="0 0 24 24">
  <path d="m24,10.737C24,4.717,18.729,0,12,0S0,4.717,0,10.737v.421l7.128,6.974c-.083.275-.128.566-.128.868v2c0,1.654,1.346,3,3,3h4c1.654,0,3-1.346,3-3v-2c0-.302-.045-.593-.128-.868l7.128-6.974v-.421Zm-9.225,5.365l2.202-5.654c.617-.553,1.862-1.448,3.023-1.448,1.063,0,1.702.911,1.954,1.362l-6.283,6.147c-.271-.182-.572-.321-.895-.407Zm-6.446.407l-6.283-6.147c.251-.451.89-1.362,1.954-1.362,1.161,0,2.407.897,3.023,1.448l2.202,5.654c-.323.086-.625.225-.895.407Zm3.002-.509l-2.211-5.676c.654-.553,1.803-1.324,2.879-1.324s2.227.772,2.88,1.323l-2.211,5.677h-1.338Zm-2.105-8.181c.544-2.6,1.944-4.477,2.774-5.402.83.926,2.23,2.803,2.774,5.402-.787-.446-1.75-.819-2.774-.819s-1.987.373-2.774.819Zm11.937-.641c-.35-.112-.738-.178-1.163-.178-1.193,0-2.304.506-3.149,1.045-.385-2.497-1.448-4.46-2.41-5.793,3.046.644,5.503,2.476,6.723,4.926ZM9.559,2.252c-.962,1.334-2.025,3.296-2.41,5.793-.845-.539-1.957-1.045-3.149-1.045-.426,0-.813.066-1.163.178,1.22-2.451,3.677-4.282,6.723-4.926Zm5.441,18.748c0,.552-.448,1-1,1h-4c-.552,0-1-.448-1-1v-2c0-.552.448-1,1-1h4c.552,0,1,.448,1,1v2Z"/>
</svg>
