<?xml version="1.0" encoding="UTF-8"?>
<svg xmlns="http://www.w3.org/2000/svg" id="Layer_1" data-name="Layer 1" viewBox="0 0 24 24">
  <path d="m24,12.935v-.07s-1.596-1.084-4-1.667v-5.336l-.579-.269c-.13-.061-1.313-.593-2.575-.593-2.802,0-4.114.992-5.384,1.951-.901.681-1.842,1.37-3.503,1.749v-.147c0-1.414-.987-2.629-2.368-2.932-1.783-.391-3.921-1.003-5.55-1.673v.069c1.18,2.942,2.97,5.015,2.97,5.015,0,0-1.485,2.034-2.97,2.981v.07s1.577,1.073,3.959,1.659v5.396l.579.269c.13.061,1.313.593,2.575.593,2.849,0,4.173-.929,5.453-1.828.905-.635,1.849-1.28,3.48-1.714.029,1.387,1.002,2.57,2.363,2.869,1.783.391,3.921,1.003,5.55,1.673v-.07c-1.18-2.942-2.97-5.015-2.97-5.015,0,0,1.485-2.034,2.97-2.981Zm-12.542,3.6c-1.212.851-2.087,1.465-4.304,1.465-.407,0-.829-.097-1.154-.195v-6.83c3.703-.188,5.335-1.422,6.668-2.428,1.144-.864,2.047-1.547,4.178-1.547.407,0,.829.097,1.154.195v6.888c-3.607.391-5.223,1.526-6.542,2.452Z"/>
</svg>
