<?xml version="1.0" encoding="UTF-8"?>
<svg xmlns="http://www.w3.org/2000/svg" id="Layer_1" data-name="Layer 1" viewBox="0 0 24 24">
  <path d="m24,10c0-2.757-2.243-5-5-5h-2v-1c0-1.654-1.346-3-3-3h-2v2h2c.552,0,1,.449,1,1v13H2v-4H0v6h2.037c-.024.165-.037.331-.037.5,0,1.93,1.57,3.5,3.5,3.5s3.5-1.57,3.5-3.5c0-.169-.013-.335-.037-.5h6.074c-.024.165-.037.331-.037.5,0,1.93,1.57,3.5,3.5,3.5s3.5-1.57,3.5-3.5c0-.169-.013-.335-.037-.5h2.037v-9ZM7,19.5c0,.827-.673,1.5-1.5,1.5s-1.5-.673-1.5-1.5c0-.189.037-.356.091-.5h2.819c.054.144.091.311.091.5Zm12-12.5c1.654,0,3,1.346,3,3v1h-5v-4h2Zm1,12.5c0,.827-.673,1.5-1.5,1.5s-1.5-.673-1.5-1.5c0-.189.037-.356.091-.5h2.819c.054.144.091.311.091.5Zm-3-2.5v-4h5v4h-5ZM10,3H0V1h10v2Zm-2,4H0v-2h8v2Zm-2,4H0v-2h6v2Z"/>
</svg>
