<?xml version="1.0" encoding="UTF-8"?>
<svg xmlns="http://www.w3.org/2000/svg" id="Layer_1" data-name="Layer 1" viewBox="0 0 24 24" width="512" height="512"><path d="m17.994,2.286C16.086.581,13.522-.231,10.956.059,6.904.517,3.59,3.782,3.075,7.822c-.374,2.931.644,5.76,2.793,7.761,1.375,1.279,2.132,2.9,2.132,4.566v3.851h8v-3.685c0-1.816.704-3.475,1.932-4.552,1.95-1.708,3.068-4.173,3.068-6.763,0-2.56-1.096-5.007-3.006-6.714Zm-3.994,19.714h-4s-.001-1.95-.002-2h4.008c-.004.105-.006,2-.006,2Zm2.613-7.741c-1.106.969-1.897,2.272-2.303,3.741h-4.622c-.42-1.431-1.258-2.765-2.458-3.881-1.671-1.556-2.463-3.759-2.171-6.043.399-3.138,2.974-5.673,6.121-6.029,2.027-.227,3.974.386,5.48,1.731,1.486,1.328,2.339,3.231,2.339,5.222,0,2.013-.87,3.93-2.387,5.259Zm-5.613-9.259h2v7h-2v-7Zm0,9h2v2h-2v-2Z"/></svg>
