<?xml version="1.0" encoding="UTF-8"?>
<svg xmlns="http://www.w3.org/2000/svg" id="Layer_1" data-name="Layer 1" viewBox="0 0 24 24">
  <path d="m11.992,17l.508,7h-1.604l-.319-4.402-1.577,3.469-1.577-3.468-.319,4.402h-1.604l.508-7c.043-.705.472-1,.988-1,.342,0,.66.242.841.64l1.164,2.56,1.164-2.56c.181-.398.499-.64.841-.64.516,0,.945.295.988,1Zm10.408,3.063l-1.8-4.054v-.009h-1.6v8h1.6v-4.054l1.8,4.054h1.6v-8h-1.6v4.063Zm-4.4-1.763v3.4c0,1.269-1.031,2.3-2.3,2.3s-2.3-1.031-2.3-2.3v-3.4c0-1.269,1.031-2.3,2.3-2.3s2.3,1.031,2.3,2.3Zm-1.6,0c0-.386-.314-.7-.7-.7s-.7.314-.7.7v3.4c0,.386.314.7.7.7s.7-.314.7-.7v-3.4Zm7.6-13.3v9h-2v-4H2v12h1.64l-.145,2H0V5c0-1.654,1.346-3,3-3h3V0h2v2h8V0h2v2h3c1.654,0,3,1.346,3,3Zm-2,3v-3c0-.551-.448-1-1-1H3c-.551,0-1,.449-1,1v3h20Z"/>
</svg>
