<?xml version="1.0" encoding="UTF-8"?>
<svg xmlns="http://www.w3.org/2000/svg" id="Layer_1" data-name="Layer 1" viewBox="0 0 24 24">
  <path d="m24,12C24,5.383,18.617,0,12,0S0,5.383,0,12v1h7.933c-.579,2.594-.933,5.983-.933,7,0,2.43,1.962,4,5,4s5-1.57,5-4c0-1.017-.354-4.406-.933-7h7.933v-1ZM11,2.5c0,1.379-1.122,2.5-2.5,2.5-.905,0-1.703-.484-2.141-1.241,1.336-.917,2.899-1.523,4.592-1.701.026.145.049.291.049.442Zm4,17.5c0,1.855-2.296,2-3,2s-3-.145-3-2c0-.872.382-4.527.987-7h4.026c.605,2.473.987,6.128.987,7Zm-2.286-9c.175-.295.286-.632.286-1,0-1.105-.895-2-2-2s-2,.895-2,2c0,.368.111.705.286,1H2.05c.229-2.296,1.244-4.36,2.763-5.934.819,1.193,2.174,1.934,3.687,1.934,2.481,0,4.5-2.019,4.5-4.5,0-.155-.035-.303-.05-.455,4.74.449,8.528,4.221,9,8.955h-9.236Zm5.286-3.5c0,.828-.672,1.5-1.5,1.5s-1.5-.672-1.5-1.5.672-1.5,1.5-1.5,1.5.672,1.5,1.5Z"/>
</svg>
