<?xml version="1.0" encoding="UTF-8"?>
<svg xmlns="http://www.w3.org/2000/svg" id="Layer_1" data-name="Layer 1" viewBox="0 0 24 24" width="512" height="512"><path d="M23.27,11.13c-1.18-2.7-2.29-5.25-3.47-6.71C17.36,1.16,13.5-.45,9.45,.11,4.46,.79,.5,4.95,.05,9.98c-.27,2.94,.62,5.79,2.5,8.04,.29,.35,.46,.8,.46,1.26v4.71H12.17l-.67-2H5v-2.71c0-.93-.33-1.83-.92-2.54-1.53-1.84-2.26-4.18-2.04-6.59,.08-.84,.27-1.64,.56-2.4l8.54,6.84,3.13,9.4h4.72c2.76,0,5-2.24,5-5v-6.21s-.51-1.17-.73-1.66ZM9.72,2.09c3.31-.46,6.48,.87,8.5,3.56,.85,1.05,1.75,2.95,2.64,4.96-2.06,1.54-4.62,2.39-7.19,2.39h-1.32L3.55,5.96c1.4-2.06,3.62-3.52,6.18-3.87Zm12.28,16.91c0,1.65-1.35,3-3,3h-3.28l-2.33-7h.28c2.85,0,5.68-.89,8.01-2.52,.11,.25,.21,.49,.32,.73v5.79Z"/></svg>
