<?xml version="1.0" encoding="UTF-8"?>
<svg xmlns="http://www.w3.org/2000/svg" id="Layer_1" data-name="Layer 1" viewBox="0 0 24 24">
  <path d="m22.431,10.623c-1.022-1.022-2.162-1.567-3.387-1.621-1.154-.049-2.691.743-4.163,1.607-.773.454-1.336.515-1.669.181h0c-.339-.339-.282-.901.17-1.671.865-1.471,1.658-2.994,1.607-4.164-.053-1.226-.598-2.365-1.621-3.387-1.012-1.012-2.357-1.569-3.789-1.569s-2.776.558-3.788,1.569l-1.333,1.333C2.229,5.13.617,8.518.143,11.964c-.528,3.841.381,7.156,2.559,9.333,1.771,1.772,4.295,2.703,7.243,2.703.676,0,1.375-.049,2.091-.148,3.445-.476,6.833-2.09,9.061-4.319l1.333-1.333c1.012-1.012,1.569-2.357,1.569-3.788s-.558-2.777-1.569-3.789Zm-1.414,6.163l-1.333,1.333c-1.932,1.931-4.893,3.334-7.921,3.752-3.208.444-5.922-.263-7.646-1.987-1.725-1.725-2.433-4.441-1.992-7.647.416-3.029,1.817-5.989,3.748-7.92l1.333-1.333c.655-.654,1.515-.982,2.375-.982s1.719.328,2.374.982c.667.667,1.005,1.34,1.037,2.06.021.491-.427,1.521-1.333,3.063-.931,1.585-.88,3.079.14,4.098h0c1.015,1.015,2.507,1.062,4.097.129,1.542-.907,2.558-1.359,3.063-1.334.72.031,1.394.37,2.06,1.037,1.309,1.309,1.309,3.439,0,4.749Z"/>
</svg>
