<?xml version="1.0" encoding="UTF-8"?>
<svg xmlns="http://www.w3.org/2000/svg" id="Layer_1" data-name="Layer 1" viewBox="0 0 24 24" width="512" height="512"><path d="M24,12c0,6.617-5.383,12-12,12S0,18.617,0,12c0-1.406,.255-2.75,.702-4.004,.522,.419,1.129,.732,1.803,.885-.324,.983-.505,2.03-.505,3.119,0,5.514,4.486,10,10,10s10-4.486,10-10S17.514,2,12,2c-1.523,0-2.961,.352-4.255,.964-.201-.64-.5-1.256-.835-1.815,1.547-.729,3.268-1.148,5.089-1.148,6.617,0,12,5.383,12,12ZM3.5,7c1.381,0,2.5-1.119,2.5-2.5C6,2.513,3.5,0,3.5,0,3.5,0,1,2.462,1,4.5c0,1.381,1.119,2.5,2.5,2.5Zm4.903,10.198l1.19,1.606c.011-.008,1.118-.805,2.407-.805s2.396,.797,2.403,.802l1.194-1.604c-.066-.049-1.632-1.198-3.597-1.198s-3.531,1.149-3.597,1.198Zm-2.403-4.198h4v-2H6v2Zm12-2h-4v2h4v-2Z"/></svg>
