<?xml version="1.0" encoding="UTF-8"?>
<svg xmlns="http://www.w3.org/2000/svg" id="Layer_1" data-name="Layer 1" viewBox="0 0 24 24">
  <path d="m16.165,15.992c-1.242,0-1.626,1.002-1.742,1.581l-1.365,6.418h1.584l.309-1.4h2.379l.295,1.4h1.632l-1.339-6.373c-.135-.668-.511-1.627-1.753-1.627Zm-.86,5l.686-3.104c.03-.149.105-.253.176-.296l.017.006c.024.016.121.118.168.349l.641,3.044h-1.688Zm3.695-5h5v1.6h-1.75v6.4h-1.6v-6.4h-1.65v-1.6Zm-6.393,5.98c-.191,1.175-1.215,2.028-2.436,2.028-.965,0-1.873-.413-2.506-1.136l1.009-1.006c.373.406.925.646,1.497.646.604,0,1.031-.404,1.096-.795.089-.55-.602-.873-.817-.959-.915-.371-1.751-.78-1.753-.78-.692-.484-1.027-1.231-.921-2.049.111-.845.674-1.534,1.471-1.796,1.324-.437,2.462.317,2.863.686l-.86,1.113c-.219-.166-.881-.602-1.611-.367-.412.136-.517.447-.515.577.005.442.335.57.433.615.282.128.806.368,1.366.595,1.461.591,1.828,1.745,1.685,2.627ZM21,2h-3V0h-2v2h-8V0h-2v2h-3c-1.654,0-3,1.346-3,3v19h6v-2H2v-12h20v4h2V5c0-1.654-1.346-3-3-3ZM2,8v-3c0-.552.449-1,1-1h18c.552,0,1,.448,1,1v3H2Z"/>
</svg>
