<?xml version="1.0" encoding="UTF-8"?>
<svg xmlns="http://www.w3.org/2000/svg" id="Layer_1" data-name="Layer 1" viewBox="0 0 24 24" width="512" height="512"><path d="m3.059,14.414L14.414,3.059l-.707-.707C10.576-.778,5.482-.78,2.352,2.352.835,3.868,0,5.885,0,8.029s.835,4.161,2.352,5.678l.707.707Zm.707-10.648c1.175-1.176,2.719-1.763,4.263-1.763,1.228,0,2.456.371,3.498,1.114L3.117,11.528c-.726-1.015-1.117-2.227-1.117-3.499,0-1.61.627-3.125,1.766-4.264Zm.234,15.734c0,.828-.672,1.5-1.5,1.5s-1.5-.672-1.5-1.5.672-1.5,1.5-1.5,1.5.672,1.5,1.5Zm10-7c0,.828-.672,1.5-1.5,1.5s-1.5-.672-1.5-1.5.672-1.5,1.5-1.5,1.5.672,1.5,1.5Zm5-9c0-.828.672-1.5,1.5-1.5s1.5.672,1.5,1.5-.672,1.5-1.5,1.5-1.5-.672-1.5-1.5Zm4.707,4.066c-1.622,1.622-3.364,2.434-5.105,2.434s-3.483-.812-5.105-2.434l1.414-1.414c2.449,2.449,4.933,2.449,7.383,0l1.414,1.414Zm-13.863,9.626c.361,1.528.259,3.883-2.277,6.419l-1.414-1.414c1.513-1.513,2.1-3.042,1.745-4.545-.224-.949-.812-1.904-1.745-2.838l1.414-1.414c1.2,1.199,1.966,2.476,2.277,3.792Zm8.152,2.106c.064,1.551-.6,3.034-1.974,4.408l-1.414-1.414c.962-.963,1.43-1.942,1.39-2.911-.062-1.507-1.316-2.607-1.329-2.618l1.292-1.527c.079.067,1.935,1.664,2.035,4.062Zm6.004-4.799c0,.828-.672,1.5-1.5,1.5s-1.5-.672-1.5-1.5.672-1.5,1.5-1.5,1.5.672,1.5,1.5Zm0,8c0,.828-.672,1.5-1.5,1.5s-1.5-.672-1.5-1.5.672-1.5,1.5-1.5,1.5.672,1.5,1.5Z"/></svg>
