<?xml version="1.0" encoding="UTF-8"?>
<svg xmlns="http://www.w3.org/2000/svg" id="Layer_1" data-name="Layer 1" viewBox="0 0 24 24">
  <path d="m13,5c0-1.654-1.346-3-3-3h-5c-1.654,0-3,1.346-3,3v8h11V5Zm-2,6h-7v-6c0-.551.448-1,1-1h5c.552,0,1,.449,1,1v6Zm11-3c0-1.103-.897-2-2-2h-3c-1.103,0-2,.897-2,2v5h7v-5Zm-2,3h-3v-3h3v3Zm-.5,4H4.5c-2.481,0-4.5,2.019-4.5,4.5s2.019,4.5,4.5,4.5h15c2.481,0,4.5-2.019,4.5-4.5s-2.019-4.5-4.5-4.5Zm0,7H4.5c-1.379,0-2.5-1.122-2.5-2.5s1.121-2.5,2.5-2.5h15c1.379,0,2.5,1.122,2.5,2.5s-1.121,2.5-2.5,2.5Zm-13.5-2.5c0,.828-.672,1.5-1.5,1.5s-1.5-.672-1.5-1.5.672-1.5,1.5-1.5,1.5.672,1.5,1.5Zm15,0c0,.828-.672,1.5-1.5,1.5s-1.5-.672-1.5-1.5.672-1.5,1.5-1.5,1.5.672,1.5,1.5Zm-7.5,0c0,.828-.672,1.5-1.5,1.5s-1.5-.672-1.5-1.5.672-1.5,1.5-1.5,1.5.672,1.5,1.5Z"/>
</svg>
