<?xml version="1.0" encoding="UTF-8"?>
<svg xmlns="http://www.w3.org/2000/svg" id="Layer_1" data-name="Layer 1" viewBox="0 0 24 24">
  <path d="m10.873,13.001h-1.261l.624-3.295.638,3.295Zm7.127-3.402v4.802s.314,0,.7,0,.7-.314.7-.7v-3.4c0-.386-.314-.7-.7-.7s-.7,0-.7,0Zm-12,.901c0-.496-.404-.9-.9-.9h-.5v1.8h.5c.496,0,.9-.404.9-.9Zm18,7.5h-1.611c-2.128,3.673-6.105,6-10.389,6s-8.261-2.327-10.389-6H0V6h1.611C3.739,2.327,7.716,0,12,0s8.261,2.327,10.389,6h1.611v12Zm-5.3-10h-2.3v8h2.3c1.269,0,2.3-1.031,2.3-2.3v-3.4c0-1.269-1.031-2.3-2.3-2.3Zm-14.665-2h15.929c-1.823-2.42-4.701-4-7.965-4s-6.142,1.58-7.965,4Zm9.765,2v8h1.6v-8h-1.6Zm-9.201,8v-3h.5c1.381,0,2.5-1.119,2.5-2.5s-1.119-2.5-2.5-2.5h-2.1v8h1.6Zm2.9,0h1.469l.275-1.474h2.006l.262,1.474h1.488l-1.397-6.807c-.12-.668-.589-1.192-1.346-1.192s-1.281.587-1.385,1.167l-1.372,6.833Zm12.465,2H4.035c1.823,2.42,4.701,4,7.965,4s6.142-1.58,7.965-4Z"/>
</svg>
