<?xml version="1.0" encoding="UTF-8"?>
<svg xmlns="http://www.w3.org/2000/svg" id="Layer_1" data-name="Layer 1" viewBox="0 0 24 24">
  <path d="m24,8v-2h-1v-1c0-1.302-.839-2.402-2-2.816V0h-2v2.184c-1.161.414-2,1.514-2,2.816v1h-1v2h1v14h-4v-4.069c1.25-1.133,2-2.541,2-3.875,0-3.265-2.88-4.719-4.786-5.681-.61-.308-1.511-.764-1.687-.981-.076-.384-.17-.905-.226-1.394h-1.601c-.053.464-.141.961-.215,1.339-.183.269-1.087.727-1.698,1.036-1.906.962-4.786,2.416-4.786,5.681,0,1.334.75,2.742,2,3.875v4.069H0v2h24v-2h-1v-14h1Zm-5-3c0-.551.448-1,1-1s1,.449,1,1v1h-2v-1Zm-13.313,5.16c.662-.334,1.308-.66,1.813-1.047.505.387,1.15.712,1.812,1.047,2.159,1.09,3.688,2.007,3.688,3.896,0,.616-.326,1.308-.885,1.944H2.885c-.559-.636-.885-1.328-.885-1.944,0-1.889,1.528-2.806,3.687-3.896Zm-1.687,7.84h7v4h-7v-4Zm17,4h-2v-14h2v14Z"/>
</svg>
