<?xml version="1.0" encoding="UTF-8"?>
<svg xmlns="http://www.w3.org/2000/svg" id="Layer_1" data-name="Layer 1" viewBox="0 0 24 24">
  <path d="m7.95,13.962l2.802,2.786-1.414,1.414-2.802-2.802c-.775-.776-.774-2.038,0-2.812l2.756-2.756,1.414,1.414-2.756,2.756Zm6.758-4.17l-1.414,1.414,2.756,2.74-2.802,2.802,1.414,1.414,2.803-2.803c.774-.775.773-2.037,0-2.812l-2.756-2.756Zm9.292,4.708c0,4.136-3.364,7.5-7.5,7.5H5c-2.757,0-5-2.468-5-5.5,0-1.722.811-3.335,2.157-4.367-.104-.536-.157-1.082-.157-1.633C2,5.813,5.813,2,10.5,2c3.453,0,6.538,2.079,7.848,5.23,3.308.833,5.652,3.803,5.652,7.27Zm-2,0c0-2.687-1.919-4.966-4.563-5.42l-.587-.101-.191-.564c-.894-2.641-3.369-4.415-6.159-4.415-3.584,0-6.5,2.916-6.5,6.5,0,.613.085,1.219.253,1.801l.219.76-.688.389c-1.1.621-1.784,1.79-1.784,3.051,0,1.93,1.346,3.5,3,3.5h11.5c3.033,0,5.5-2.468,5.5-5.5Z"/>
</svg>
