<?xml version="1.0" encoding="UTF-8"?>
<svg xmlns="http://www.w3.org/2000/svg" id="Layer_1" data-name="Layer 1" viewBox="0 0 24 24" width="512" height="512"><path d="M24,16v8h-8c-2.955,0-5.535-1.615-6.92-4.004,.769-.006,1.518-.091,2.242-.248,1.101,1.371,2.787,2.252,4.678,2.252h6v-6c0-1.891-.881-3.577-2.252-4.678,.156-.724,.242-1.473,.248-2.242,2.389,1.385,4.004,3.965,4.004,6.92Zm-6-7C18,4.037,13.963,0,9,0S0,4.037,0,9v9H9c4.963,0,9-4.037,9-9Zm-16,0c0-3.859,3.14-7,7-7s7,3.141,7,7-3.14,7-7,7H2v-7Zm8,1.505c0-.312,.26-.773,.447-.876,1.124-.621,1.729-1.892,1.506-3.164-.213-1.212-1.208-2.206-2.417-2.417-.886-.161-1.783,.081-2.463,.653-.682,.572-1.072,1.41-1.072,2.299h2c0-.297,.13-.576,.358-.767,.23-.193,.526-.271,.832-.216,.391,.068,.725,.401,.793,.793,.093,.531-.212,.907-.502,1.066-.845,.465-1.481,1.595-1.481,2.628v.495h2v-.495Zm0,1.495h-2v2h2v-2Z"/></svg>
