<?xml version="1.0" encoding="UTF-8"?>
<svg xmlns="http://www.w3.org/2000/svg" id="Layer_1" data-name="Layer 1" viewBox="0 0 24 24">
  <path d="m20.943,1.714c-.671-.572-1.56-.817-2.439-.674-.349.057-.677.179-.973.352-.533-.836-1.468-1.392-2.531-1.392-.768,0-1.469.29-2,.766-.531-.476-1.232-.766-2-.766-1.061,0-1.994.554-2.528,1.388-.435-.246-.937-.388-1.472-.388-1.654,0-3,1.346-3,3v3.521l-2.121,2.115c-.567.567-.879,1.32-.879,2.122s.312,1.555.884,2.127l5.116,5.034v5.081h2v-5.919l-5.707-5.616c-.189-.189-.293-.44-.293-.708s.104-.518.292-.706l2.996-2.987c.389-.39,1.024-.39,1.415,0,.39.39.39,1.024,0,1.414l-2.256,2.251,1.413,1.416,2.256-2.251c.846-.846,1.08-2.076.702-3.135.363.156.762.243,1.182.243.768,0,1.469-.29,2-.766.531.476,1.232.766,2,.766s1.469-.29,2-.766c.531.476,1.232.766,2,.766.351,0,.687-.061,1-.171v5.156c0,1.146-.3,2.275-.868,3.27l-1.132,1.98v5.766h2v-5.234l.868-1.52c.74-1.295,1.132-2.77,1.132-4.262V4c0-.881-.385-1.714-1.057-2.286Zm-12.943,4.23c-.646-.228-1.354-.229-2-.004v-1.941c0-.551.449-1,1-1s1,.449,1,1v1.945Zm4-.945c0,.551-.449,1-1,1s-1-.449-1-1v-2c0-.551.449-1,1-1s1,.449,1,1v2Zm4,0c0,.551-.449,1-1,1s-1-.449-1-1v-2c0-.551.449-1,1-1s1,.449,1,1v2Zm4,0c0,.551-.449,1-1,1s-1-.449-1-1l.01-1.019c.005-.548.452-.988,1-.986.548.003.99.447.99.995v1.01Z"/>
</svg>
