<?xml version="1.0" encoding="UTF-8"?>
<svg xmlns="http://www.w3.org/2000/svg" id="Layer_1" data-name="Layer 1" viewBox="0 0 24 24">
  <path d="m24,12.423l-7.978-3.497,5.978-2.79V0h-2v4.863l-4.533,2.115c.021-.156.033-.316.033-.479,0-1.93-1.57-3.5-3.5-3.5s-3.5,1.57-3.5,3.5c0,.162.011.322.033.479l-4.533-2.115V0h-2v6.137l5.978,2.79L0,12.423v2.231l5.159-2.365L0,19.167v4.833h2v-4.167l3.043-4.057c.387,3.496,3.36,6.224,6.957,6.224s6.57-2.729,6.957-6.224l3.043,4.057v4.167h2v-4.833l-5.159-6.878,5.159,2.365v-2.231Zm-12-7.423c.827,0,1.5.673,1.5,1.5s-.673,1.5-1.5,1.5-1.5-.673-1.5-1.5.673-1.5,1.5-1.5Zm0,15c-2.757,0-5-2.243-5-5s2.243-5,5-5,5,2.243,5,5-2.243,5-5,5Zm3-8l-2.4,3,2.4,3h-6l2.4-3-2.4-3h6Z"/>
</svg>
