<?xml version="1.0" encoding="UTF-8"?>
<svg xmlns="http://www.w3.org/2000/svg" id="Layer_1" data-name="Layer 1" viewBox="0 0 24 24">
  <path d="m15.414,17l1.5-1.5-3.5-3.5h-4l1.5-1.5-3.5-3.5H0v17h19.414l3.5-3.5-3.5-3.5h-4ZM2,9h4.586l1.5,1.5-1.5,1.5H2v-3Zm0,5h10.586l1.5,1.5-1.5,1.5H2v-3Zm16.586,8H2v-3h16.586l1.5,1.5-1.5,1.5Zm3.914-16c0-.46-.089-.895-.218-1.312l1.417-.816-.999-1.732-1.41.813c-.605-.652-1.393-1.126-2.289-1.331V0h-2v1.621c-.896.205-1.685.678-2.289,1.331l-1.41-.813-.999,1.732,1.417.816c-.129.418-.218.853-.218,1.312s.089.895.218,1.312l-1.417.816.999,1.732,1.41-.813c.605.652,1.393,1.126,2.289,1.331v1.621h2v-1.621c.896-.205,1.685-.678,2.289-1.331l1.41.813.999-1.732-1.417-.816c.129-.418.218-.853.218-1.312Zm-4.5,2.5c-1.378,0-2.5-1.121-2.5-2.5s1.122-2.5,2.5-2.5,2.5,1.121,2.5,2.5-1.122,2.5-2.5,2.5Z"/>
</svg>
