<?xml version="1.0" encoding="UTF-8"?>
<svg xmlns="http://www.w3.org/2000/svg" id="Layer_1" data-name="Layer 1" viewBox="0 0 24 24" width="512" height="512"><path d="m11,21h2v2h-2v-2Zm6.797-13.797c-.824-3.584-4.054-6.203-7.797-6.203C5.589,1,2,4.589,2,9c0,1.29.303,2.535.884,3.66-1.746.943-2.884,2.786-2.884,4.84,0,3.032,2.467,5.5,5.5,5.5h3.5v-2h-3.5c-1.93,0-3.5-1.57-3.5-3.5,0-1.593,1.074-2.985,2.613-3.387l1.427-.373-.875-1.188c-.762-1.035-1.165-2.264-1.165-3.553,0-3.309,2.691-6,6-6,2.994,0,5.55,2.233,5.946,5.195l.102.757.757.102c2.962.396,5.195,2.952,5.195,5.946,0,3.309-2.691,6-6,6h-1v2h1c4.411,0,8-3.589,8-8,0-3.743-2.62-6.973-6.203-7.797Zm-1.932,5.748c-.351-1.358-1.456-2.464-2.815-2.815-1.233-.32-2.509-.064-3.498.7-.987.764-1.553,1.917-1.553,3.164h2c0-.623.283-1.2.777-1.583.501-.389,1.13-.511,1.771-.346.656.17,1.211.725,1.38,1.38.295,1.142-.358,2.026-1.09,2.365-1.117.517-1.839,1.701-1.839,3.018v.166h2v-.166c0-.531.273-1.015.679-1.203,1.757-.812,2.677-2.781,2.187-4.68Z"/></svg>
