<?xml version="1.0" encoding="UTF-8"?>
<svg xmlns="http://www.w3.org/2000/svg" id="Layer_1" data-name="Layer 1" viewBox="0 0 24 24">
  <path d="m23.121,11.879c-1.17-1.17-3.072-1.17-4.242,0l-7.879,7.878v4.243h4.242l7.879-7.878c.566-.567.879-1.32.879-2.122s-.313-1.555-.879-2.121Zm-1.414,2.828l-7.293,7.293h-1.414v-1.415l7.293-7.292c.391-.39,1.023-.39,1.414,0,.189.188.293.439.293.707s-.104.518-.293.707ZM2,19V3c0-.551.448-1,1-1h2v6h11V2.817l3,3v3.613c.637-.278,1.317-.428,2-.428v-4.013L16.011,0H3C1.346,0,0,1.346,0,3v18h8.947s.213-1.298.053-2H2ZM7,6V2h7v4h-7Zm7,7.5c0-1.93-1.57-3.5-3.5-3.5s-3.5,1.57-3.5,3.5,1.57,3.5,3.5,3.5c.164,0,.32-.026.477-.048l2.974-2.974c.022-.158.048-.314.048-.477Zm-3.5,1.5c-.827,0-1.5-.673-1.5-1.5s.673-1.5,1.5-1.5,1.5.673,1.5,1.5-.673,1.5-1.5,1.5Z"/>
</svg>
