<?xml version="1.0" encoding="UTF-8"?>
<svg xmlns="http://www.w3.org/2000/svg" id="Layer_1" data-name="Layer 1" viewBox="0 0 24 24" width="512" height="512"><path d="M20.94,8.71c-.67-.57-1.56-.82-2.44-.67-.57,.09-1.08,.36-1.49,.74-.53-.48-1.24-.78-2.01-.78-.02,0-.04,0-.06,0l.98-4.33c.2-.86,0-1.76-.52-2.47C14.88,.5,14.07,.06,13.18,0c-1.43-.09-2.79,.95-3.13,2.43l-.55,2.39-.55-2.39C8.61,.95,7.26-.08,5.82,0c-.89,.06-1.7,.5-2.22,1.2-.53,.71-.71,1.61-.52,2.46l1.82,7.95s-3.02,3.01-3.02,3.01c-.57,.57-.88,1.32-.88,2.12s.31,1.55,.88,2.12l5.12,5.12h15V11c0-.88-.38-1.71-1.06-2.29Zm-4.94,2.29v2c0,.55-.45,1-1,1s-1-.45-1-1v-2c0-.55,.45-1,1-1s1,.45,1,1ZM5.03,3.23c-.07-.29,0-.59,.17-.82,.18-.24,.44-.38,.75-.4,.46-.03,.93,.36,1.05,.88l2.01,8.66c-.63-.57-1.45-.82-2.24-.76l-1.73-7.56Zm2.8,18.77l-4.54-4.54c-.19-.19-.29-.44-.29-.71s.1-.52,.29-.71l3-2.99c.39-.39,1.02-.39,1.41,0,.39,.39,.39,1.03,0,1.41l-2.26,2.25,1.41,1.42,2.26-2.25c.89-.89,1.1-2.21,.63-3.3L12,2.88c.12-.52,.61-.91,1.05-.88,.31,.02,.57,.16,.75,.4,.18,.24,.24,.54,.17,.83l-1.35,5.94c-.39,.51-.63,1.14-.63,1.83v2c0,1.65,1.35,3,3,3,.77,0,1.47-.29,2-.77,.53,.48,1.23,.77,2,.77,.35,0,.69-.06,1-.17v6.17H7.83Zm11.17-8c-.55,0-1-.45-1-1v-1.89c0-.54,.36-1.02,.82-1.09,.3-.05,.6,.03,.82,.22,.22,.19,.35,.47,.35,.76v2c0,.55-.45,1-1,1Z"/></svg>
