<?xml version="1.0" encoding="UTF-8"?>
<svg xmlns="http://www.w3.org/2000/svg" id="Layer_1" data-name="Layer 1" viewBox="0 0 24 24">
  <path d="m1.28,8.061l9.72,3.92v-4.981h2.278c.347.595.985,1,1.722,1h5c1.103,0,2-.897,2-2s-.897-2-2-2h-5c-.737,0-1.375.405-1.722,1h-2.278V.019L1.28,3.939c-.79.4-1.28,1.189-1.28,2.061s.49,1.661,1.28,2.061Zm.825-2.301l6.895-2.778v6.038l-6.844-2.758c-.128-.076-.156-.183-.156-.261,0-.083.032-.2.105-.241Zm10.895,4.241v6H0v8h24v-14h-11Zm3,8v4h-8v-4h8Zm-14,0h4v4H2v-4Zm20,4h-4v-4h4v4Zm-7-6v-4h7v4h-7Z"/>
</svg>
