<?xml version="1.0" encoding="UTF-8"?>
<svg xmlns="http://www.w3.org/2000/svg" id="Layer_1" data-name="Layer 1" viewBox="0 0 24 24">
  <path d="m17.412,13.167l3.65-3.806-.073-.486c-.324-2.158-.985-4.963-3.236-7.534-.161-.124-1.829-1.341-5.752-1.341s-5.592,1.218-5.752,1.341c-2.255,2.575-2.915,5.366-3.236,7.51l-.073.485,3.723,3.888-5.186,5.371,5.548,5.401,4.98-5.192,4.972,5.193,5.538-5.392-5.103-5.438Zm1.522-4.476l-2.893,3.015-2.53-2.696,4.152-4.3c.594,1.132,1,2.417,1.27,3.981ZM7.66,2.766c.297-.167,1.563-.766,4.34-.766,2.806,0,4.387.736,4.654.885l-3.106,3.208c-.902-.109-1.864-.12-2.806-.033l-3.086-3.289s.003-.003.004-.005Zm-.686,18.392l-2.677-2.606,1.158-1.199,2.673,2.602-1.154,1.203Zm2.539-2.647l-2.668-2.597,1.2-1.243,2.574,2.688-1.106,1.152Zm-4.447-9.843c.291-1.677.74-3.034,1.415-4.227l10.736,11.441-2.713,2.641L5.066,8.668Zm10.821,11.3l2.698-2.627,1.127,1.201-2.687,2.615-1.139-1.189Z"/>
</svg>
