<?xml version="1.0" encoding="UTF-8"?>
<svg xmlns="http://www.w3.org/2000/svg" id="Layer_1" data-name="Layer 1" viewBox="0 0 24 24" width="512" height="512"><path d="M7.5,24c-2,0-3.74-1.33-4.31-3.19-1.86-.57-3.19-2.31-3.19-4.31,0-2.48,2.02-4.5,4.5-4.5,.89,0,1.76,.27,2.5,.76l5.76-5.76c-.49-.73-.76-1.61-.76-2.5,0-2.48,2.02-4.5,4.5-4.5,2,0,3.74,1.33,4.31,3.19,1.86,.57,3.19,2.31,3.19,4.31,0,2.48-2.02,4.5-4.5,4.5-.89,0-1.76-.27-2.5-.76l-5.76,5.76c.49,.73,.76,1.61,.76,2.5,0,2.48-2.02,4.5-4.5,4.5Zm-3-10c-1.38,0-2.5,1.12-2.5,2.5,0,1.25,.93,2.31,2.16,2.48l.76,.1,.1,.76c.17,1.23,1.23,2.16,2.48,2.16,1.38,0,2.5-1.12,2.5-2.5,0-.7-.28-1.35-.8-1.83l-.76-.71,8.52-8.52,.71,.76c.48,.51,1.13,.79,1.83,.79,1.38,0,2.5-1.12,2.5-2.5,0-1.25-.93-2.31-2.16-2.48l-.76-.1-.1-.76c-.17-1.23-1.23-2.16-2.48-2.16-1.38,0-2.5,1.12-2.5,2.5,0,.7,.28,1.35,.8,1.83l.76,.71L7.03,15.55l-.71-.76c-.48-.51-1.13-.79-1.83-.79Z"/></svg>
