<?xml version="1.0" encoding="UTF-8"?>
<svg xmlns="http://www.w3.org/2000/svg" id="Layer_1" data-name="Layer 1" viewBox="0 0 24 24">
  <path d="m9,12c3.309,0,6-2.691,6-6S12.309,0,9,0,3,2.691,3,6s2.691,6,6,6Zm0-10c2.206,0,4,1.794,4,4s-1.794,4-4,4-4-1.794-4-4,1.794-4,4-4Zm11.268,10.732c.586.586.586,1.536,0,2.121-.586.586-1.536.586-2.121,0s-.586-1.536,0-2.121,1.536-.586,2.121,0Zm2.121-2.121c-1.038-1.039-2.42-1.611-3.889-1.611s-2.851.572-3.889,1.611c-1.445,1.445-1.956,3.537-1.354,5.497v.393h-2.25l-.015,2h-1.997l.024,5.486h4.944s4.012-4.013,4.012-4.013c1.619.149,3.244-.415,4.413-1.585,1.039-1.039,1.611-2.42,1.611-3.889s-.572-2.851-1.611-3.889Zm-1.414,6.364c-.627.627-1.456,1.021-2.323,1.021-1.036,0-1.357-.169-1.357-.169l-4.158,4.158h-2.125s-.007-1.485-.007-1.485h1.974l.015-2h2.265v-2.716c-.527-1.457-.175-2.816.768-3.759,1.322-1.322,3.627-1.322,4.949,0,.661.661,1.025,1.541,1.025,2.475s-.364,1.813-1.025,2.475Zm-11.975-.975h-4c-1.654,0-3,1.346-3,3v5H0v-5c0-2.757,2.243-5,5-5h4v2Z"/>
</svg>
