<?xml version="1.0" encoding="UTF-8"?>
<svg xmlns="http://www.w3.org/2000/svg" id="Layer_1" data-name="Layer 1" viewBox="0 0 24 24">
  <path d="m13,21v1h4v2H7v-2h4v-1H0v-13c0-1.654,1.346-3,3-3h2v2h-2c-.552,0-1,.449-1,1v11h20v-11c0-.551-.448-1-1-1h-2v-2h2c1.654,0,3,1.346,3,3v13h-11Zm-6.697-12.871l1.416-.816c-.129-.418-.218-.853-.218-1.313s.09-.895.218-1.313l-1.416-.816.998-1.732,1.41.812c.605-.652,1.393-1.125,2.289-1.33V0h2v1.621c.896.205,1.685.679,2.29,1.331l1.411-.813.998,1.732-1.416.816c.129.418.218.853.218,1.313s-.089.895-.218,1.313l1.416.816-.998,1.732-1.411-.813c-.605.652-1.393,1.126-2.29,1.331v1.621h-2v-1.621c-.896-.205-1.685-.678-2.289-1.33l-1.41.812-.998-1.732Zm3.197-2.129c0,1.378,1.121,2.5,2.5,2.5s2.5-1.122,2.5-2.5-1.121-2.5-2.5-2.5-2.5,1.122-2.5,2.5Z"/>
</svg>
