<?xml version="1.0" encoding="UTF-8"?>
<svg xmlns="http://www.w3.org/2000/svg" id="Layer_1" data-name="Layer 1" viewBox="0 0 24 24" width="512" height="512"><path d="m24.057,16.121l-1.392-.848c-.062-.037-1.202-.725-2.958-1.312,2.382-2.603,3.491-5.438,3.545-5.577l.538-1.4-1.499.042c-.146.004-3.284.108-6.748,1.606-.866-4.011-2.586-7.178-2.666-7.324l-.877-1.599-.877,1.599c-.078.143-1.764,3.245-2.64,7.197-3.488-1.45-6.632-1.508-6.778-1.51l-1.451-.019.499,1.362c.051.138,1.101,2.953,3.449,5.527-1.724.582-2.842,1.254-2.901,1.291l-1.393.848,1.386.857c.106.065,2.32,1.416,5.396,1.944-.425,1.151-.547,2.022-.554,2.071l-.185,1.368,1.357-.25c.098-.018,1.918-.368,3.69-1.612v3.617h2v-3.599c1.763,1.229,3.567,1.575,3.664,1.593l1.357.251-.185-1.368c-.007-.046-.121-.867-.515-1.965,3.052-.533,5.243-1.87,5.348-1.935l1.387-.856Zm-8.25.971l-1.477.118.662,1.325c.161.324.295.64.404.935-.766-.351-1.668-.896-2.396-1.718v-3.752h-2v3.722c-.005.006-.01.012-.015.017-.729.829-1.638,1.378-2.408,1.731.121-.325.271-.675.454-1.034l.691-1.342-1.505-.113c-1.595-.12-3.024-.552-4.074-.966.621-.243,1.374-.493,2.212-.681l1.935-.434-1.499-1.298c-1.661-1.438-2.795-3.211-3.454-4.446,1.37.203,3.411.659,5.436,1.679l1.215.612.222-1.342c.389-2.35,1.173-4.516,1.791-5.972.63,1.484,1.432,3.705,1.812,6.116l.218,1.377,1.235-.647c1.985-1.042,3.999-1.531,5.369-1.759-.686,1.248-1.847,3.026-3.521,4.486l-1.495,1.304,1.938.427c.862.19,1.636.446,2.271.695-1.034.408-2.439.833-4.02.96Z"/></svg>
