<?xml version="1.0" encoding="UTF-8"?>
<svg xmlns="http://www.w3.org/2000/svg" id="Layer_1" data-name="Layer 1" viewBox="0 0 24 24">
  <path d="m15.705,9.298c-.43-.801-1.261-1.298-2.169-1.298h-3.801L11.758,0h-3.321L.36,12.177c-.498.75-.542,1.712-.113,2.51.435.811,1.274,1.313,2.191,1.313h3.774l-2.023,8h3.321l8.077-12.177c.502-.757.547-1.725.117-2.525Zm-1.784,1.42l-6.964,10.5,1.825-7.218H2.438c-.262,0-.387-.182-.429-.259-.048-.09-.109-.268.018-.459L8.991,2.782l-1.825,7.218h6.37c.24,0,.358.152.407.243.04.074.116.267-.022.475Zm8.08,13.282h2l-2.822-9.745c-.371-.75-1.155-1.242-2.042-1.255-.843.013-1.626.505-1.998,1.255l-2.816,9.745h2.138l.565-2h4.381l.592,2Zm-4.408-4l1.392-4.925c.043-.039.101-.066.158-.073.104.01.181.055.222.107l.014.036,1.438,4.856h-3.224Z"/>
</svg>
