<?xml version="1.0" encoding="UTF-8"?>
<svg xmlns="http://www.w3.org/2000/svg" id="Layer_1" data-name="Layer 1" viewBox="0 0 24 24">
  <path d="m.419,15.095c-.265-.989-.419-2.023-.419-3.095C0,5.383,5.383,0,12,0c1.072,0,2.106.155,3.095.419l-1.691,1.691c-.46-.065-.926-.11-1.404-.11C6.477,2,2,6.477,2,12c0,.478.045.944.11,1.405l-1.691,1.691Zm23.161-6.191l-1.691,1.691c.065.46.11.927.11,1.405,0,5.523-4.477,10-10,10-.478,0-.945-.045-1.405-.11l-1.69,1.69c.989.265,2.023.419,3.095.419,6.617,0,12-5.383,12-12,0-1.072-.155-2.106-.419-3.096Zm-7.296,4.416l-2.118-2.118,1.341-1.341-1.129-1.129-1.341,1.341-1.271-1.271,1.341-1.341-1.129-1.129-2.471,2.471,5.647,5.647,1.129-1.129Zm2.047-2.047l2.471-2.471-1.129-1.129-1.341,1.341-.989-.989,1.341-1.341-1.129-1.129-1.341,1.341-1.271-1.271,1.341-1.341-1.129-1.129-2.471,2.471,5.647,5.647Zm5.647-5.647l-1.129-1.129-1.341,1.341-.989-.988,1.341-1.341-1.129-1.129-1.341,1.341-1.271-1.271,1.341-1.341L18.332-.021l-2.471,2.471,5.647,5.647,2.471-2.471Zm-14.471,6.706l2.118,2.118c.973.973.973,2.556,0,3.529s-2.556.973-3.529,0l-2.118-2.118c-.973-.973-.973-2.556,0-3.529.973-.973,2.556-.973,3.529,0Zm.988,3.247l-2.118-2.118c-.35-.35-.92-.35-1.271,0s-.35.92,0,1.271l2.118,2.118c.35.35.92.35,1.271,0,.35-.35.35-.92,0-1.271Zm-1.341,4.871l-5.647-5.647-1.129,1.129,2.868,2.868-4.132-1.591-.006-.006L-.021,18.332l5.647,5.647,1.129-1.129-2.862-2.862,4.132,1.591,1.129-1.129Z"/>
</svg>
