<?xml version="1.0" encoding="UTF-8"?>
<svg xmlns="http://www.w3.org/2000/svg" id="Layer_1" data-name="Layer 1" viewBox="0 0 24 24">
  <path d="m24,10h-1.217c-.305-1.372-.925-2.616-1.819-3.616-1.051-1.176-2.426-1.947-3.965-2.245V1c-1.867-.106-3.434,1.246-3.876,3h-5.124c-2.175,0-4.15.873-5.594,2.287-.27-.612-.406-1.376-.406-2.287H0c0,1.637.362,2.974,1.079,3.992-.686,1.179-1.079,2.549-1.079,4.008,0,2.85,1.551,5.5,4,6.92v3.08h6v-2h2v2h6v-2.586c2.02-.82,3.599-2.44,4.407-4.414h1.593v-5Zm-3,2c0,2.633-1.763,4.997-4.285,5.748l-.715.213v2.039h-2v-2h-6v2h-2v-2.314l-.57-.271c-2.083-.992-3.43-3.117-3.43-5.415,0-3.309,2.691-6,6-6h7.538c1.571,0,2.932.594,3.936,1.717.984,1.102,1.526,2.623,1.526,4.283h0Zm-3-1.5c0,.828-.672,1.5-1.5,1.5s-1.5-.672-1.5-1.5.672-1.5,1.5-1.5,1.5.672,1.5,1.5Z"/>
</svg>
