<?xml version="1.0" encoding="UTF-8"?>
<svg xmlns="http://www.w3.org/2000/svg" id="Layer_1" data-name="Layer 1" viewBox="0 0 24 24" width="512" height="512"><path d="M23.946,11.504c-.232-1.428-1.55-2.504-3.069-2.504l-5.142,.013-.886-4.013h1.151v2h2V1h-2V3h-1.592l-.139-.631C13.963,.982,12.758,.015,11.35,.015l-2.35-.025V3h-1v2h1v4h-3.463l-1.097-1.656c-.557-.842-1.492-1.344-2.501-1.344H0v12H1.952c1.014,0,1.952-.506,2.508-1.354l1.081-1.646h3.46v4h-1v2h1v2.989l2.339,.025c1.396,0,2.628-.989,2.929-2.353l.146-.662h1.585v2h2v-6h-2v2h-1.144l.88-3.987,5.25-.013c.881,0,1.714-.386,2.286-1.058,.571-.671,.816-1.561,.674-2.438Zm-2.197,1.144c-.191,.224-.469,.353-.765,.353l-6.855,.017-1.813,8.214c-.102,.462-.503,.784-.965,.784l-.35-.004V13H4.46l-1.672,2.549c-.177,.27-.468,.435-.788,.45v-7.997c.313,.019,.598,.183,.772,.445l1.69,2.553h6.537V2.011l.339,.004c.473,0,.874,.322,.976,.785l1.814,8.217,6.75-.017c.538,0,1.018,.362,1.093,.825,.049,.303-.03,.595-.223,.822Z"/></svg>
