<?xml version="1.0" encoding="UTF-8"?>
<svg xmlns="http://www.w3.org/2000/svg" id="Layer_1" data-name="Layer 1" viewBox="0 0 24 24">
  <path d="m22.785,13.064l-4.334-3.391c-1.148-.899-2.754-.899-3.902,0l-4.333,3.391c-.772.604-1.215,1.513-1.215,2.494v8.442h15v-8.442c0-.98-.442-1.889-1.215-2.494Zm-.785,8.936h-11v-6.442c0-.361.163-.696.448-.918l4.333-3.391c.424-.331,1.014-.331,1.438,0l4.334,3.391c.284.223.447.558.447.919v6.442Zm-7-6h3v3h-3v-3Zm-7.573-2.507c-.271.624-.419,1.303-.426,2.007-.477-.2-.926-.454-1.338-.757l-2.167,2.167-1.414-1.414,2.168-2.168c-.6-.82-1.012-1.785-1.174-2.832H0v-2h3.078c.163-1.046.576-2.01,1.176-2.829l-2.179-2.179,1.414-1.414,2.179,2.179c.819-.6,1.783-1.013,2.829-1.176V0h2v3.076c1.047.162,2.012.574,2.832,1.174l2.176-2.176,1.414,1.414-2.175,2.175c.32.437.588.914.792,1.424-.649.124-1.28.373-1.854.749-.663-1.66-2.287-2.836-4.181-2.836-2.314,0-4.225,1.756-4.473,4.005v.991c.168,1.523,1.098,2.819,2.4,3.498Z"/>
</svg>
