<?xml version="1.0" encoding="UTF-8"?>
<svg xmlns="http://www.w3.org/2000/svg" id="Layer_1" data-name="Layer 1" viewBox="0 0 24 24">
  <path d="m12,12c0,1.654-1.346,3-3,3s-3-1.346-3-3v-3.981c-1.014.095-1.875.807-2.133,1.808l-1.121,4.34-1.271,1.271L.061,14.023l.886-.886.984-3.811c.488-1.887,2.148-3.212,4.077-3.308.036-1.941,1.355-3.626,3.241-4.113l3.687-.952.853-.853,1.414,1.414-1.238,1.238-4.215,1.089c-1.029.266-1.748,1.194-1.748,2.256v5.902c0,.551.449,1,1,1s1-.449,1-1v-5h2v2h6.604l1.615-1.518,1.369,1.458-2.192,2.06h-7.396v1Zm12,6c0,3.309-2.691,6-6,6s-6-2.691-6-6,2.691-6,6-6,6,2.691,6,6Zm-2,0c0-2.206-1.794-4-4-4s-4,1.794-4,4,1.794,4,4,4,4-1.794,4-4Zm-4.562.323l-1.242-1.203-1.392,1.436,1.535,1.486c.293.296.684.458,1.1.458h0c.416,0,.807-.162,1.094-.449l2.661-2.612-1.401-1.428-2.355,2.312Zm-9.861-.283l-2.042,2.088,1.43,1.398,1.458-1.49,1.846-.009c-.167-.64-.265-1.307-.268-1.999l-2.424.012Z"/>
</svg>
