<?xml version="1.0" encoding="UTF-8"?>
<svg xmlns="http://www.w3.org/2000/svg" id="Layer_1" data-name="Layer 1" viewBox="0 0 24 24">
  <path d="m14.705,15.39l-1.025,1.025,1.414,1.414,7.889-7.89-1.414-1.414-.994.994-7.082-7.082.994-.994L13.074.029l-7.89,7.89,1.414,1.414,1.024-1.024,2.827,2.827L.023,21.562l1.414,1.414,10.427-10.427,2.841,2.841Zm-2.927-5.755l3.043-3.043,1.672,1.672-3.043,3.043-1.672-1.672Zm4.341,4.34l-1.254-1.254,3.043-3.043,1.254,1.254-3.042,3.043ZM12.08,3.852l1.327,1.327-3.043,3.043-1.327-1.327,3.043-3.043Zm11.92,18.148v2h-15v-2h1.051c.232-1.14,1.242-2,2.449-2h8c1.208,0,2.217.86,2.449,2h1.051Z"/>
</svg>
