<?xml version="1.0" encoding="UTF-8"?>
<svg xmlns="http://www.w3.org/2000/svg" id="Layer_1" data-name="Layer 1" viewBox="0 0 24 24">
  <path d="m22.005,0c-1.328,0-2.514.891-2.882,2.166,0,0-.21.728-.217.752-.262-.077-1.557-.448-1.841-.545l-.645,1.894c.307.104,1.669.496,1.93.573-.226.781-.471,1.629-.726,2.507-.338-.1-1.749-.505-2.033-.602l-.645,1.894c.308.104,1.783.529,2.119.628-.139.475-.278.952-.417,1.425-1.009,3.036-2.654,6.307-4.15,6.307-1.327,0-1.491-1.055-1.5-1.5v-2.493c.008-.471.174-2.007,2-2.007v-2H-.031v2c1.826,0,1.992,1.537,2,2.009l.031,3.331c0,3.708,1.971,7.669,7.5,7.669,2.854,0,5.771-2.247,6.785-5.227.422-1.24,1.291-4.144,2.202-7.247.32-.961,2.558-8.815,2.558-8.815.122-.424.518-.721.96-.721h1.995V0h-1.995Zm-12.505,22.009c-4.785,0-5.5-3.552-5.5-5.678l-.031-3.331c0-.612-.154-1.336-.507-2h6.045c-.352.664-.507,1.388-.507,2v2.5c0,1.407.932,3.5,3.5,3.5.637,0,1.228-.201,1.773-.546-.831,2.017-2.867,3.555-4.773,3.555Z"/>
</svg>
