<?xml version="1.0" encoding="UTF-8"?>
<svg xmlns="http://www.w3.org/2000/svg" id="Layer_1" data-name="Layer 1" viewBox="0 0 24 24">
  <path d="m6,8h-2V0h16v2H6v6Zm12,13c0,.551-.448,1-1,1H7c-.552,0-1-.449-1-1v-3h-2v3c0,1.654,1.346,3,3,3h10c1.654,0,3-1.346,3-3v-9h-2v9Zm5.451-15.326l-2.659-2.659-1.414,1.414,1.57,1.571h-3.948v2h3.948l-1.57,1.571,1.414,1.414,2.66-2.66c.729-.73.729-1.919,0-2.65ZM3.052,14h3.948v-2h-3.948l1.57-1.571-1.414-1.414-2.66,2.66c-.729.73-.729,1.919,0,2.65l2.659,2.659,1.414-1.414-1.57-1.571Zm6.948,6h4v-2h-4v2Zm5.3-7.374c0-1.033-.734-1.929-1.747-2.131l-2.792-.559c-.267-.054-.461-.291-.461-.562,0-.316.257-.574.573-.574h2.127c.316,0,.585.211.671.5h1.62c-.102-1.175-1.09-2.1-2.291-2.1h-.2v-1.2h-1.6v1.2h-.327c-1.198,0-2.173.975-2.173,2.173,0,1.033.734,1.929,1.747,2.131l2.791.559c.268.054.462.291.462.563,0,.316-.258.574-.574.574h-2.126c-.316,0-.585-.211-.671-.5h-1.62c.102,1.175,1.09,2.1,2.291,2.1h.2v1.2h1.6v-1.2h.326c1.199,0,2.174-.975,2.174-2.173Z"/>
</svg>
