<?xml version="1.0" encoding="UTF-8"?>
<svg xmlns="http://www.w3.org/2000/svg" id="Layer_1" data-name="Layer 1" viewBox="0 0 24 24">
  <path d="m24,5.917l-3.3,1.909,1.326,4.029-.75.523-3.261-2.521-3.275,2.532-.721-.543,1.304-4.076-3.323-1.848v-.922h4.35l1.178-4.5h.97l1.176,4.5h4.326v.917Zm-19-.917v2h5v-2h-5Zm7,4h-7v2h7v-2Zm-7,6h7v-2h-7v2Zm14,3h3v3c0,1.654-1.346,3-3,3H3.5c-1.93,0-3.5-1.57-3.5-3.5V3C0,1.346,1.346,0,3,0h11.13c-.915.507-1.716,1.189-2.366,2H3c-.551,0-1,.448-1,1v17.5c0,.827.673,1.5,1.5,1.5s1.5-.673,1.5-1.5v-2.5h12v-3.067c.327.043.661.067,1,.067s.672-.028,1-.069v3.069Zm1,2H7v.5c0,.536-.122,1.045-.338,1.5h12.338c.551,0,1-.448,1-1v-1Z"/>
</svg>
