<?xml version="1.0" encoding="UTF-8"?>
<svg xmlns="http://www.w3.org/2000/svg" id="Layer_1" data-name="Layer 1" viewBox="0 0 24 24" width="512" height="512"><path d="M15,6c0-3.309-2.691-6-6-6S3,2.691,3,6s2.691,6,6,6,6-2.691,6-6Zm-6,4c-2.206,0-4-1.794-4-4s1.794-4,4-4,4,1.794,4,4-1.794,4-4,4Zm13,7c0-.552-.09-1.082-.256-1.579l1.82-1.049-.998-1.733-1.823,1.05c-.706-.797-1.662-1.368-2.743-1.589v-2.101h-2v2.101c-1.082,.221-2.037,.792-2.743,1.589l-1.823-1.05-.998,1.733,1.82,1.049c-.166,.497-.256,1.027-.256,1.579s.09,1.082,.256,1.579l-1.82,1.049,.998,1.733,1.823-1.05c.706,.797,1.662,1.368,2.743,1.589v2.101h2v-2.101c1.082-.221,2.037-.792,2.743-1.589l1.823,1.05,.998-1.733-1.82-1.049c.166-.497,.256-1.027,.256-1.579Zm-5,3c-1.654,0-3-1.346-3-3s1.346-3,3-3,3,1.346,3,3-1.346,3-3,3ZM5,14h3v2h-3c-1.654,0-3,1.346-3,3v5H0v-5c0-2.757,2.243-5,5-5Z"/></svg>
