<?xml version="1.0" encoding="UTF-8"?>
<svg xmlns="http://www.w3.org/2000/svg" id="Layer_1" data-name="Layer 1" viewBox="0 0 24 24">
  <path d="m12,3c1.381,0,2.5,1.119,2.5,2.5s-1.119,2.5-2.5,2.5-2.5-1.119-2.5-2.5,1.119-2.5,2.5-2.5Zm-3.943,1.867c.116-.7.415-1.337.843-1.867,0,0,.599-1,3.099-1s3.099,1,3.099,1c.428.53.727,1.167.843,1.867.657-.507,1.057-1.145,1.057-1.867,0-1.71-2.149-3-5-3s-5,1.29-5,3c0,.722.4,1.36,1.057,1.867Zm15.943,11.133v1h-2v2h-2v2.615l1.009,2.385H2.991l1.009-2.385v-2.615h-2v-2H0v-1c0-3.007.341-10,3.5-10,3.434,0,6.139,2.872,6.865,3.722,1.061.368,2.21.368,3.271,0,.726-.851,3.431-3.722,6.865-3.722,3.159,0,3.5,6.993,3.5,10Zm-18.047,1l2.646-6.251c-.805-.868-2.812-2.749-5.099-2.749-.624.171-1.368,3.237-1.484,7h1.984v2h1.953Zm12.037,5l-4.318-10.204c-1.095.271-2.251.271-3.346,0l-4.318,10.204h11.981Zm3.994-7c-.117-3.763-.86-6.829-1.484-7-2.287,0-4.295,1.881-5.099,2.749l2.646,6.251h1.953v-2h1.984Z"/>
</svg>
