<?xml version="1.0" encoding="UTF-8"?>
<svg xmlns="http://www.w3.org/2000/svg" id="Layer_1" data-name="Layer 1" viewBox="0 0 24 24">
  <path d="m16.5,0c-1.93,0-3.5,1.57-3.5,3.5s1.57,3.5,3.5,3.5,3.5-1.57,3.5-3.5-1.57-3.5-3.5-3.5Zm0,5c-.827,0-1.5-.673-1.5-1.5s.673-1.5,1.5-1.5,1.5.673,1.5,1.5-.673,1.5-1.5,1.5Zm-.5,11h1.6v8h-1.6v-8Zm-6.7,0h5.5v1.6h-2v6.4h-1.6v-6.4h-1.9v-1.6Zm12.2,0h-2.5v8h1.6v-3h.9c1.381,0,2.5-1.119,2.5-2.5s-1.119-2.5-2.5-2.5Zm0,3.4h-.9v-1.801h.9c.497,0,.9.403.9.9s-.403.9-.9.9Zm-8.5-8.381v-5.02h-1.041c.024-.165.041-.331.041-.5,0-1.93-1.57-3.5-3.5-3.5s-3.5,1.57-3.5,3.5c0,.169.017.335.041.5h-3.041v5.026c-1.207.914-2,2.348-2,3.974v6c0,1.654,1.346,3,3,3h6v-2H3c-.551,0-1-.448-1-1v-6c0-1.654,1.346-3,3-3h5c1.302,0,2.402.839,2.816,2h2.083c-.247-1.214-.944-2.259-1.899-2.98Zm-4.5-7.02c.827,0,1.5.673,1.5,1.5,0,.188-.037.356-.09.5h-2.819c-.054-.144-.09-.312-.09-.5,0-.827.673-1.5,1.5-1.5Zm2.5,6h-7v-2h7v2Z"/>
</svg>
