<?xml version="1.0" encoding="UTF-8"?>
<svg xmlns="http://www.w3.org/2000/svg" id="Layer_1" data-name="Layer 1" viewBox="0 0 24 24" width="512" height="512"><path d="m7.736,17h1.25v.015c0,1.094-.902,1.985-2.012,1.985-1.086,0-1.967-.881-1.967-1.967l-.008-2.066c0-1.086.881-1.967,1.967-1.967,1.109,0,2.012.891,2.012,1.985v.015h-1.25v-.015c0-.394-.342-.726-.75-.733-.402.007-.725.333-.724.736,0,.095.008,1.886.008,2.024-.001.403.322.729.724.736.408-.007.75-.338.75-.733v-.015Zm3.689-3.932c-.671.202-1.146.731-1.239,1.38-.087.61.178,1.197.777,1.579,0,0,.678.303,1.43.58.159.059.672.276.61.621-.046.256-.361.521-.81.521-.468,0-.918-.188-1.204-.504l-.42-.463-.926.84.42.462c.527.581,1.304.914,2.13.914,1.021,0,1.88-.653,2.04-1.552.121-.678-.186-1.562-1.408-2.014-.658-.243-1.257-.506-1.272-.506-.143-.097-.138-.243-.13-.302.012-.079.069-.273.362-.361.657-.196,1.265.279,1.29.299l.476.399.805-.957-.479-.402c-.045-.038-1.135-.934-2.452-.537Zm6.336,5.932l1.252-6h-1.252l-.684,3.282-.826-3.282h-1.252l1.511,6h1.25Zm4.239-11.414v16.414H2V3c0-1.654,1.346-3,3-3h9.414l7.586,7.586Zm-7-.586h3.586l-3.586-3.586v3.586Zm5,2h-7V2H5c-.552,0-1,.448-1,1v19h16v-13Z"/></svg>
