<?xml version="1.0" encoding="UTF-8"?>
<svg xmlns="http://www.w3.org/2000/svg" id="Layer_1" data-name="Layer 1" viewBox="0 0 24 24">
  <path d="m10.5,5.506c0-.828.672-1.5,1.5-1.5s1.5.672,1.5,1.5-.672,1.5-1.5,1.5-1.5-.672-1.5-1.5Zm-2.351,3.92c-1.073-1.071-1.649-2.456-1.649-3.926s.572-2.851,1.612-3.889c1.038-1.039,2.419-1.611,3.888-1.611s2.85.572,3.888,1.611c1.04,1.038,1.612,2.419,1.612,3.889s-.572,2.851-1.612,3.889l-3.888,3.609-3.851-3.572Zm.351-3.926c0,.936.368,1.817,1.036,2.485l2.464,2.284,2.501-2.321c.634-.635.999-1.513.999-2.448s-.364-1.813-1.025-2.475h0c-.661-.661-1.539-1.025-2.474-1.025s-1.813.364-2.474,1.025c-.662.661-1.026,1.539-1.026,2.475Zm15.5,17v1.5H0l.013-1.659,2.229-13.818c.199-1.232,1.118-2.171,2.287-2.438.053.674.198,1.329.429,1.959-.378.096-.677.395-.742.797l-.268,1.664,6.437,5.722,9.867-4.485-.468-2.901c-.064-.4-.36-.697-.734-.796.226-.627.37-1.284.422-1.961,1.169.267,2.088,1.206,2.287,2.438l2.242,13.978Zm-21.906-.5h11.776L3.57,12.845l-1.477,9.155Zm19.812,0l-1.325-8.212-8.562,3.892,4.86,4.32h5.026Z"/>
</svg>
