<?xml version="1.0" encoding="UTF-8"?>
<svg xmlns="http://www.w3.org/2000/svg" id="Layer_1" data-name="Layer 1" viewBox="0 0 24 24" width="512" height="512"><path d="m17.994,2.287C16.086.582,13.517-.227,10.956.059,6.904.517,3.59,3.781,3.075,7.821c-.374,2.933.644,5.761,2.793,7.762,1.375,1.278,2.132,2.9,2.132,4.566v3.851h8v-3.685c0-1.817.704-3.476,1.932-4.552,1.95-1.71,3.068-4.175,3.068-6.764,0-2.56-1.096-5.007-3.006-6.713Zm-3.994,19.713h-4s-.001-1.95-.002-2h4.008c-.004.105-.006,2-.006,2Zm2.613-7.74c-1.106.969-1.897,2.271-2.303,3.74h-4.622c-.42-1.431-1.258-2.765-2.458-3.881-1.671-1.557-2.463-3.76-2.171-6.045.399-3.137,2.974-5.672,6.121-6.027,2.028-.234,3.976.387,5.481,1.731,1.485,1.327,2.338,3.23,2.338,5.222,0,2.013-.87,3.93-2.387,5.26Zm-1.66-6.794c.224,1.271-.381,2.542-1.506,3.163-.188.103-.447.563-.447.876v.495h-2v-.495c0-1.033.637-2.163,1.481-2.628.289-.16.595-.535.502-1.065-.069-.393-.402-.726-.793-.794-.31-.058-.603.021-.832.216-.228.19-.358.47-.358.767h-2c0-.889.391-1.727,1.072-2.299.681-.572,1.578-.814,2.464-.653,1.21.211,2.205,1.206,2.417,2.418Zm-3.953,6.534h2v2h-2v-2Z"/></svg>
