<?xml version="1.0" encoding="UTF-8"?>
<svg xmlns="http://www.w3.org/2000/svg" id="Layer_1" data-name="Layer 1" viewBox="0 0 24 24">
  <path d="m23,21.586v-13.586c0-1.654-1.346-3-3-3h-2.017l-2.727-4h-6.512l-2.566,3.764L1.457.043.043,1.457l22.5,22.5,1.414-1.414-.957-.957Zm-2-13.586v11.586l-4.196-4.196c.13-.45.196-.915.196-1.39,0-2.757-2.243-5-5-5-.474,0-.94.066-1.39.196l-2.196-2.196h11.586c.552,0,1,.448,1,1ZM9.801,3h4.398l1.363,2h-7.125l1.363-2Zm-.724,10.319c-.051.22-.077.448-.077.681,0,1.654,1.346,3,3,3,.233,0,.461-.027.681-.077l1.554,1.554c-.678.337-1.439.523-2.235.523-2.757,0-5-2.243-5-5,0-.796.186-1.556.523-2.235l1.554,1.554Zm7.681,7.681l2,2H1v-15c0-.766.289-1.465.762-1.995l1.42,1.42c-.115.163-.183.361-.183.575v13h13.758Z"/>
</svg>
