<?xml version="1.0" encoding="UTF-8"?>
<svg xmlns="http://www.w3.org/2000/svg" id="Layer_1" data-name="Layer 1" viewBox="0 0 24 24">
  <path d="m8,0H0v8h8V0Zm-2,6H2V2h4v4Zm2,4H0v8h8v-8Zm-2,6H2v-4h4v4ZM18,0h-8v8h8V0Zm-2,6h-4V2h4v4Zm-1-1h-2v-2h2v2Zm9,14.769v4.231h-2v-2.845l-7-2.616v-6.432c0-.538-.362-1.018-.825-1.093-.304-.052-.595.029-.822.223-.224.19-.353.469-.353.763v11.712s-4.301-3.425-4.32-3.443c-.402-.373-1.034-.354-1.41.048-.377.403-.356,1.038.046,1.416l2.352,2.268h-2.881l-.849-.818c-1.196-1.12-1.26-3.022-.13-4.23,1.115-1.194,2.983-1.269,4.193-.182l.998.794v-7.563c0-.882.386-1.715,1.058-2.286.672-.572,1.56-.815,2.439-.674,1.427.232,2.503,1.552,2.503,3.067v5.045l7,2.616Z"/>
</svg>
