<?xml version="1.0" encoding="UTF-8"?>
<svg xmlns="http://www.w3.org/2000/svg" id="Layer_1" data-name="Layer 1" viewBox="0 0 24 24">
  <path d="m16,3c0-1.654-1.346-3-3-3H3C1.346,0,0,1.346,0,3v17.5c0,1.93,1.57,3.5,3.5,3.5h12.5c1.654,0,3-1.346,3-3v-3h-3V3Zm1,17v1c0,.552-.448,1-1,1H6.662c.217-.455.338-.964.338-1.5v-.5h10Zm-12-2v2.5c0,.827-.673,1.5-1.5,1.5s-1.5-.673-1.5-1.5V3c0-.552.448-1,1-1h10c.552,0,1,.448,1,1v15H5ZM21,0c-1.654,0-3,1.346-3,3v12.414l3,3,3-3V3c0-1.654-1.346-3-3-3Zm1,14.586l-1,1-1-1V3c0-.552.448-1,1-1s1,.448,1,1v11.586ZM8.602,4.293l1.414,1.414-2.827,2.827c-.31.31-.717.465-1.124.465s-.814-.155-1.124-.465l-1.647-1.647,1.414-1.414,1.357,1.357,2.537-2.537Zm0,6l1.414,1.414-2.827,2.827c-.31.31-.717.465-1.124.465s-.814-.155-1.124-.465l-1.647-1.647,1.414-1.414,1.357,1.357,2.537-2.537Z"/>
</svg>
