<?xml version="1.0" encoding="UTF-8"?>
<svg xmlns="http://www.w3.org/2000/svg" id="Layer_1" data-name="Layer 1" viewBox="0 0 24 24" width="512" height="512"><path d="M23.93,9.59l-1.38-1.45-1.96,1.86h-7.6v-2h-2v5c0,.55-.45,1-1,1s-1-.45-1-1V7.1c0-1.37,.93-2.56,2.25-2.9l5.01-1.29,1.45-1.45L16.29,.04l-1.06,1.06-4.48,1.16c-2.18,.56-3.71,2.5-3.75,4.74-2.24,.04-4.18,1.57-4.74,3.75l-1.16,4.48L.04,16.29l1.41,1.41,1.45-1.45,1.29-5.01c.33-1.29,1.48-2.2,2.81-2.25v4c0,1.65,1.35,3,3,3s3-1.35,3-3v-1h6.42l-1.64,5.83c-.36,1.28-1.54,2.18-2.87,2.19l-5.33,.03-2.51,2.55,1.43,1.4,1.93-1.96,4.5-.02c2.22-.01,4.19-1.51,4.79-3.65l1.83-6.5,2.4-2.27Z"/></svg>
