<?xml version="1.0" encoding="UTF-8"?>
<svg xmlns="http://www.w3.org/2000/svg" id="Layer_1" data-name="Layer 1" viewBox="0 0 24 24">
  <path d="m23.896,13.749l-1.654-11.188c-.217-1.459-1.492-2.561-2.968-2.561h-3.274v2h3.274c.492,0,.917.367.989.854l1.5,10.146h-4.764c-1.478,0-2.771.805-3.463,2h-3.074c-.693-1.195-1.985-2-3.463-2H2.236L3.736,2.854c.072-.487.497-.854.989-.854h3.274V0h-3.274C3.25,0,1.975,1.101,1.758,2.561L.104,13.744c-.069.453-.104.913-.104,1.368v4.888c0,2.206,1.794,4,4,4h3c2.206,0,4-1.794,4-4v-3h2v3c0,2.206,1.794,4,4,4h3c2.206,0,4-1.794,4-4v-4.888c0-.455-.035-.915-.104-1.363Zm-14.896,6.251c0,1.103-.897,2-2,2h-3c-1.103,0-2-.897-2-2,0,0,0-4.963,0-5h4.999c1.103,0,2,.897,2,2v3Zm13,0c0,1.103-.897,2-2,2h-3c-1.103,0-2-.897-2-2v-3c0-1.103.897-2,2-2h4.999c0,.037,0,5,0,5Z"/>
</svg>
