<?xml version="1.0" encoding="UTF-8"?>
<svg xmlns="http://www.w3.org/2000/svg" id="Layer_1" data-name="Layer 1" viewBox="0 0 24 24">
  <path d="m15,8h-6v-1.5c0-.828.672-1.5,1.5-1.5h3c.828,0,1.5.672,1.5,1.5v1.5Zm-3-4c1.105,0,2-.895,2-2s-.895-2-2-2-2,.895-2,2,.895,2,2,2Zm10.5,7h-3c-.828,0-1.5.672-1.5,1.5v1.5h6v-1.5c0-.828-.672-1.5-1.5-1.5Zm-1.5-1c1.105,0,2-.895,2-2s-.895-2-2-2-2,.895-2,2,.895,2,2,2Zm-15,.5c0-.828-.672-1.5-1.5-1.5H1.5c-.828,0-1.5.672-1.5,1.5v1.5h6v-1.5Zm-3-2.5c1.105,0,2-.895,2-2s-.895-2-2-2-2,.895-2,2,.895,2,2,2Zm21,11.5v4.5H0v-7.5c0-1.378,1.122-2.5,2.5-2.5h4c.171,0,.338.017.5.05v-1.55c0-1.378,1.122-2.5,2.5-2.5h5c1.379,0,2.5,1.122,2.5,2.5v4.55c.162-.033.329-.05.5-.05h4c1.379,0,2.5,1.122,2.5,2.5Zm-15,2.5h6v-9.5c0-.276-.225-.5-.5-.5h-5c-.276,0-.5.224-.5.5v9.5Zm-7,0h5v-5.5c0-.276-.224-.5-.5-.5H2.5c-.276,0-.5.224-.5.5v5.5Zm20-2.5c0-.276-.225-.5-.5-.5h-4c-.275,0-.5.224-.5.5v2.5h5v-2.5Z"/>
</svg>
