<?xml version="1.0" encoding="UTF-8"?>
<svg xmlns="http://www.w3.org/2000/svg" id="Layer_1" data-name="Layer 1" viewBox="0 0 24 24">
  <path d="m11.349,24h-7.349c-1.654,0-3-1.346-3-3v-10.382c-.615-.703-1-1.612-1-2.618l.039-.275L2.246,0h19.509l2.246,8c0,.922-.326,1.762-.853,2.439-.484-.454-1.017-.853-1.593-1.192.251-.312.415-.697.442-1.121l-1.75-6.126h-3.246v3h-2v-3h-6v3h-2v-3h-3.246l-1.75,6.126c.065,1.044.936,1.874,1.996,1.874h1c1.103,0,2-.897,2-2h2c0,1.103.897,2,2,2h.349c-.63.509-1.185,1.103-1.658,1.762-.66-.231-1.236-.634-1.689-1.147-.734.842-1.801,1.385-3.002,1.385h-1c-.347,0-.678-.058-1-.142v9.142c0,.552.449,1,1,1h5.518c.506.756,1.125,1.429,1.831,2Zm12.651-7c0,3.859-3.14,7-7,7s-7-3.141-7-7,3.14-7,7-7,7,3.141,7,7Zm-2,0c0-2.757-2.243-5-5-5s-5,2.243-5,5,2.243,5,5,5,5-2.243,5-5Zm-5.639.867l-1.63-1.58-1.393,1.436,1.846,1.789c.315.315.733.488,1.179.488s.864-.174,1.172-.482l3.457-3.399-1.402-1.426-3.229,3.175Z"/>
</svg>
