<?xml version="1.0" encoding="UTF-8"?>
<svg xmlns="http://www.w3.org/2000/svg" id="Layer_1" data-name="Layer 1" viewBox="0 0 24 24" width="512" height="512"><path d="M17.07,17.35l1.42-2.82c-1.52,.92-3.42,1.47-5.49,1.47-1.35,0-2.69-.24-3.9-.69-.35-.79-1.24-2.68-2-3.43-.71-.71-1.74-.97-2.69-.79-.27-.67-.41-1.37-.41-2.08,0-3.86,4.04-7,9-7s9,3.14,9,7c0,1.37-.52,2.65-1.4,3.73l.96,1.91c1.52-1.54,2.44-3.51,2.44-5.64C24,4.04,19.07,0,13,0S2,4.04,2,9c0,1.06,.23,2.12,.67,3.1-.43,.53-.67,1.19-.67,1.89,0,.42,.09,.82,.25,1.19-1,.99-2.25,2.67-2.25,4.82,0,2.93,2.39,4,4,4v-2c-.46,0-2-.17-2-2,0-1.47,.94-2.69,1.68-3.42,.92,.34,2.27,.43,3.43,.43,.29,0,.56,0,.82-.01,1.55,.66,3.3,1.01,5.07,1.01,1.44,0,2.81-.23,4.07-.65Zm-12.78-2.66c-.19-.19-.29-.44-.29-.7s.1-.51,.29-.7h0c.19-.19,.44-.29,.7-.29s.51,.1,.7,.29c.27,.27,.67,.97,1.05,1.71-1.19-.03-2.2-.15-2.45-.31Zm17.04,3.98l2.67,1.33-2.67,1.33-1.33,2.67-1.33-2.67-2.67-1.33,2.67-1.33,1.33-2.67,1.33,2.67ZM14.5,6l1.17,2.33,2.33,1.17-2.33,1.17-1.17,2.33-1.17-2.33-2.33-1.17,2.33-1.17,1.17-2.33Z"/></svg>
