<?xml version="1.0" encoding="UTF-8"?>
<svg xmlns="http://www.w3.org/2000/svg" id="Layer_1" data-name="Layer 1" viewBox="0 0 24 24" width="512" height="512"><path d="M11.26,7.82c-.69-.69-1.94-1.29-4.05-.29-1.46,.69-2.87,1.95-3.8,2.88C.08,13.72-.86,16.59,.82,18.26c3.48,3.48,8.77,5.02,12.6,5.69,.18,.03,.35,.05,.53,.05,.8,0,1.58-.32,2.16-.89,.7-.7,1.02-1.71,.84-2.69-.67-3.83-2.21-9.12-5.69-12.6Zm2.15,7.23c-1.15,.71-2.21,1.66-2.96,2.41s-1.71,1.81-2.41,2.96c-.88-.34-1.77-.75-2.63-1.22,.51-1.11,1.53-2.45,2.93-3.85s2.74-2.42,3.85-2.93c.47,.85,.88,1.74,1.22,2.63Zm-8.6-3.23c1.77-1.77,3.44-2.81,4.41-2.81,.26,0,.47,.07,.62,.22,.46,.46,.88,.96,1.27,1.49-1.57,.79-3.1,2.12-4.18,3.21-1.09,1.09-2.43,2.61-3.21,4.18-.53-.39-1.03-.81-1.49-1.27-.72-.72,.34-2.79,2.59-5.03Zm9.88,9.88c-.25,.25-.59,.34-.93,.29-1.02-.18-2.34-.46-3.77-.9,.48-.7,1.12-1.45,1.88-2.21s1.52-1.4,2.21-1.88c.43,1.43,.72,2.75,.9,3.77,.06,.34-.04,.68-.29,.93ZM24,3.78c0,5.01-2.7,9.92-4.97,13.15-.18,.25-.39,.48-.63,.66-.19-.75-.4-1.53-.66-2.32,.56-.83,1.19-1.85,1.8-3.01-.86-.17-1.91-.26-3.05-.26,0,0-.02,0-.02,0-.31-.67-.65-1.33-1.03-1.98,.38-.02,.73-.02,1.06-.02,1.1,0,2.59,.08,3.94,.41,.38-.87,.72-1.79,.98-2.73-1.17-.44-2.88-.68-4.92-.68-1.14,0-2.17,.07-3.07,.22-.24-.28-.5-.55-.76-.81-.26-.26-.63-.57-1.1-.83,1.61-.46,3.47-.58,4.92-.58,1.58,0,3.65,.14,5.35,.71,.1-.64,.15-1.29,.15-1.93,0-1.05-2.26-1.78-5.5-1.78s-5.5,.73-5.5,1.78c0,.52,.04,1.05,.1,1.57-.56-.23-1.25-.38-2.05-.35-.03-.41-.05-.81-.05-1.22,0-2.4,2.73-3.78,7.5-3.78s7.5,1.38,7.5,3.78Z"/></svg>
