<?xml version="1.0" encoding="UTF-8"?>
<svg xmlns="http://www.w3.org/2000/svg" id="Layer_1" data-name="Layer 1" viewBox="0 0 24 24" width="512" height="512"><path d="M12.01,23.67c-.48,0-.96-.17-1.34-.51l-3.75-3.16H0V3C0,1.35,1.35,0,3,0H21c1.65,0,3,1.35,3,3V20h-6.85l-3.85,3.18c-.36,.32-.83,.49-1.29,.49ZM2,18H7.65l4.33,3.64,4.45-3.64h5.57V3c0-.55-.45-1-1-1H3c-.55,0-1,.45-1,1v15Zm10.02-5.14l3.26,2.52,.75-.52-1.33-4.03,3.3-1.91v-.92h-4.33l-1.18-4.5h-.97l-1.18,4.5H6v.92l3.32,1.85-1.3,4.08,.72,.54,3.27-2.53Z"/></svg>
