<?xml version="1.0" encoding="UTF-8"?>
<svg xmlns="http://www.w3.org/2000/svg" id="Layer_1" data-name="Layer 1" viewBox="0 0 24 24">
  <path d="m16.857,7.557l-.943.943.943.943-1.414,1.414-.943-.943-.943.943-1.414-1.414.943-.943-.943-.943,1.414-1.414.943.943.943-.943,1.414,1.414Zm-6.414-1.414l-.943.943-.943-.943-1.414,1.414.943.943-.943.943,1.414,1.414.943-.943.943.943,1.414-1.414-.943-.943.943-.943-1.414-1.414Zm6.557,10.857H7c-2.206,0-4,1.794-4,4v3h2v-3c0-1.103.897-2,2-2h10c1.103,0,2,.897,2,2v3h2v-3c0-2.206-1.794-4-4-4Zm5-11v5h-2v4H4v-4h-2v-5h2v-1c0-1.654,1.346-3,3-3h4V0h2v2h4c1.654,0,3,1.346,3,3v1h2Zm-4-1c0-.551-.448-1-1-1H7c-.552,0-1,.449-1,1v8h12V5Z"/>
</svg>
