<?xml version="1.0" encoding="UTF-8"?>
<svg xmlns="http://www.w3.org/2000/svg" id="Layer_1" data-name="Layer 1" viewBox="0 0 24 24">
  <path d="m19.259,2.412L12,.005l-7.259,2.407c-1.639.544-2.741,2.07-2.741,3.797v5.755c0,6.566,7.005,10.577,9.151,11.648l.806.404.836-.336c2.16-.87,9.207-4.284,9.207-11.717v-5.755c0-1.727-1.102-3.253-2.741-3.797Zm.741,9.552c0,6.178-6.085,9.109-7.952,9.861h-.001c-1.888-.944-8.046-4.442-8.046-9.861v-5.755c0-.863.551-1.627,1.371-1.898l6.629-2.198,6.629,2.198c.82.271,1.371,1.035,1.371,1.898v5.755Zm-12-.964h8v2h-8v-2Z"/>
</svg>
