<?xml version="1.0" encoding="UTF-8"?>
<svg xmlns="http://www.w3.org/2000/svg" id="Layer_1" data-name="Layer 1" viewBox="0 0 24 24">
  <path d="m11,16h4v1.6h-2.4v1.801h2.4v1.6h-2.4v3h-1.6v-8Zm11,8h1.6v-8h-1.6v8Zm-2.167-3.456c.024-.014.036-.023.055-.035-.018.012-.018.012-.042.029l1.054,3.462h-1.744l-.872-3h-.784v3h-1.6v-8h2.5c1.381,0,2.5,1.119,2.5,2.5,0,.846-.423,1.592-1.067,2.044Zm-.533-2.044c0-.496-.404-.9-.9-.9h-.9v1.8h.9c.496,0,.9-.404.9-.9Zm4.7-13.5v9h-2v-4H2v12h7v2H0V5c0-1.654,1.346-3,3-3h3V0h2v2h8V0h2v2h3c1.654,0,3,1.346,3,3Zm-2,3v-3c0-.552-.449-1-1-1H3c-.551,0-1,.448-1,1v3h20Z"/>
</svg>
