<?xml version="1.0" encoding="UTF-8"?>
<svg xmlns="http://www.w3.org/2000/svg" id="Layer_1" data-name="Layer 1" viewBox="0 0 24 24">
  <path d="m14.019,12.404l-1.134,1.045,5.104,4.55h6.011v2h-5.531l-5.125,4h-2.688l-5.125-4H0v-2h6.219l5.125,4h1.312l3.634-2.836-4.026-3.589-1.604,1.494c-.274.275-.672.438-1.088.438-.043,0-.086-.002-.13-.006-.461-.037-.882-.275-1.153-.653-.445-.615-.364-1.499.188-2.053l2.069-1.908-.546-.498c-.274-.25-.629-.388-1-.388-.529,0-1.832.534-2.553.895l-.211.105H0v-2h5.769c.634-.303,2.203-1,3.208-1,.894,0,1.728.323,2.372.909l.675.615.632-.583c.642-.604,1.491-.941,2.382-.941.993,0,2.56.697,3.193,1h5.769v2h-6.236l-.211-.105c-.862-.431-2.069-.895-2.516-.895-.38,0-.742.144-1.019.404Zm-1.017-5.193l-.002-5.008C13,.99,13.986.003,15.199.003l4.6-.003h.003c.586,0,1.138.229,1.553.643.416.416.646.97.646,1.558v4.799l-4.138.005-2.106,1.714c-.293.188-.628.281-.964.281-.295,0-.591-.072-.859-.22-.574-.313-.931-.915-.931-1.568Zm1.998-5.008l.002,4.557,2.146-1.754,2.853-.005v-2.801c0-.068-.032-.115-.059-.142-.026-.027-.072-.059-.14-.059h0l-4.601.003c-.11,0-.2.09-.2.2ZM6.138,7.004l-4.138-.005V2.2c0-.589.229-1.142.646-1.558.416-.414.967-.643,1.553-.643h.003l4.599.003C10.014.003,11,.99,11,2.203l-.002,5.007c0,.654-.356,1.255-.93,1.569-.269.147-.564.22-.86.22-.336,0-.671-.094-.964-.281l-.094-.068-2.012-1.646Zm-2.138-2.003l2.853.005,2.146,1.754.002-4.557c0-.11-.089-.2-.199-.2l-4.601-.003h0c-.068,0-.114.031-.141.058-.027.027-.059.073-.059.143v2.801Z"/>
</svg>
