<?xml version="1.0" encoding="UTF-8"?>
<svg xmlns="http://www.w3.org/2000/svg" id="Layer_1" data-name="Layer 1" viewBox="0 0 24 24">
  <path d="m24,16.5c0-.647-.21-1.268-.592-1.778.061-.235.092-.477.092-.722,0-1.403-.968-2.584-2.321-2.907-.264-.555-.674-1.015-1.179-1.336v-1.783C20,3.563,16.411-.026,12-.026S4,3.563,4,7.974v1.783c-.499.318-.906.771-1.17,1.318-1.333.305-2.33,1.501-2.33,2.925,0,.245.031.486.092.722-.382.511-.592,1.131-.592,1.778,0,.675.23,1.323.639,1.846-.092.29-.139.595-.139.904,0,1.424.998,2.619,2.33,2.925.532,1.103,1.647,1.825,2.92,1.825,1.792,0,3.25-1.458,3.25-3.25v-8.25c0-1.708-1.324-3.112-3-3.24v-1.285c0-3.309,2.691-6,6-6s6,2.691,6,6v1.285c-1.676.128-3,1.533-3,3.24v8.25c0,1.792,1.458,3.25,3.25,3.25,1.272,0,2.388-.723,2.92-1.825,1.333-.306,2.33-1.501,2.33-2.925,0-.31-.047-.614-.139-.904.409-.522.639-1.171.639-1.846ZM7,12.5v8.25c0,.689-.561,1.25-1.25,1.25-.578,0-1.089-.41-1.216-.976l-.184-.82-.892.045c-.532-.021-.958-.462-.958-.999,0-.2.06-.395.172-.561l.549-.81-.798-.567c-.269-.191-.424-.487-.424-.812,0-.296.138-.577.378-.771l.649-.523-.399-.733c-.085-.156-.129-.315-.129-.472,0-.535.423-.974.952-.999l.903.024.18-.8c.129-.574.629-.975,1.216-.975.689,0,1.25.561,1.25,1.25Zm14.576,4.812l-.798.567.549.81c.113.166.172.36.172.561,0,.536-.423.975-.953.999l-.896-.046-.185.821c-.129.574-.629.976-1.216.976-.689,0-1.25-.561-1.25-1.25v-8.25c0-.689.561-1.25,1.25-1.25.587,0,1.087.401,1.216.975l.18.8.903-.024c.529.025.952.464.952.999,0,.156-.043.315-.129.472l-.399.733.649.523c.241.194.378.476.378.771,0,.325-.155.621-.424.812Z"/>
</svg>
