<?xml version="1.0" encoding="UTF-8"?>
<svg xmlns="http://www.w3.org/2000/svg" id="Layer_1" data-name="Layer 1" viewBox="0 0 24 24">
  <path d="m9.518,22H3c-.551,0-1-.449-1-1v-11h9.349c1.545-1.249,3.51-2,5.651-2v-1c0-3.86-3.14-7-7-7S3,3.14,3,7v1H0v13c0,1.654,1.346,3,3,3h8.349c-.706-.571-1.325-1.244-1.831-2ZM5,7c0-2.757,2.243-5,5-5s5,2.243,5,5v1H5v-1Zm15.992,9.118l-3.457,3.399c-.308.309-.727.482-1.172.482s-.864-.173-1.179-.488l-1.846-1.789,1.393-1.436,1.63,1.58,3.229-3.175,1.402,1.426Zm-3.992-6.118c-2.785,0-5.189,1.639-6.315,4h-1.685v4h1.08c.488,3.386,3.401,6,6.92,6,3.86,0,7-3.141,7-7s-3.14-7-7-7Zm0,12c-2.757,0-5-2.243-5-5s2.243-5,5-5,5,2.243,5,5-2.243,5-5,5Z"/>
</svg>
