<?xml version="1.0" encoding="UTF-8"?>
<svg xmlns="http://www.w3.org/2000/svg" id="Layer_1" data-name="Layer 1" viewBox="0 0 24 24" width="512" height="512"><path d="m23.494,11.642c.396-.947.456-1.966.175-2.947-.351-1.227-1.215-2.249-2.371-2.804-.194-.093-.333-.265-.353-.438-.144-1.244-.773-2.337-1.771-3.079-.984-.732-2.196-1.022-3.417-.815-.181.032-.415-.061-.597-.242C14.314.47,13.193.004,12.003.004s-2.311.466-3.158,1.312c-.181.18-.408.27-.597.242-1.219-.206-2.431.084-3.415.815-.999.742-1.628,1.835-1.772,3.079-.02.172-.158.344-.352.438-1.156.555-2.021,1.578-2.372,2.804-.281.981-.22,2,.175,2.948.1.239.1.492,0,.73-.396.948-.456,1.967-.175,2.946.351,1.228,1.215,2.25,2.372,2.806.191.092.332.268.352.438.144,1.243.773,2.337,1.771,3.079.984.731,2.197,1.021,3.414.815.188-.031.417.062.598.243.847.845,1.968,1.311,3.158,1.311s2.311-.466,3.158-1.311c.183-.182.412-.282.597-.243,1.217.204,2.43-.083,3.416-.815.999-.742,1.628-1.836,1.772-3.08.02-.169.161-.345.352-.437,1.157-.556,2.021-1.578,2.372-2.805.281-.98.22-1.999-.175-2.947-.1-.239-.1-.492,0-.731Zm-1.846,1.501c.219.524.253,1.087.098,1.627-.197.688-.664,1.239-1.314,1.552-.811.389-1.375,1.159-1.473,2.01-.08.69-.427,1.295-.978,1.704-.544.404-1.214.564-1.89.448-.827-.138-1.703.16-2.344.8-.938.938-2.551.937-3.489,0-.537-.537-1.239-.834-1.94-.834-.135,0-.271.011-.404.033-.674.116-1.345-.044-1.889-.448-.55-.409-.897-1.014-.977-1.703-.099-.852-.663-1.622-1.473-2.011-.651-.312-1.118-.864-1.315-1.553-.155-.539-.121-1.102.098-1.626.306-.732.306-1.539,0-2.271-.219-.525-.253-1.087-.098-1.627.197-.688.664-1.239,1.315-1.552.811-.39,1.375-1.16,1.473-2.011.08-.689.427-1.294.978-1.703.542-.404,1.213-.562,1.888-.449.831.142,1.705-.159,2.344-.799.938-.937,2.551-.937,3.489,0,.642.641,1.519.938,2.344.799.676-.114,1.346.045,1.89.449.55.409.897,1.014.977,1.703.098.851.663,1.621,1.473,2.011.651.312,1.118.864,1.315,1.552h0c.155.54.121,1.103-.098,1.627-.306.732-.306,1.539,0,2.271Zm-13.646-.639c0,.828-.672,1.5-1.5,1.5s-1.5-.672-1.5-1.5.672-1.5,1.5-1.5,1.5.672,1.5,1.5Zm4,5c0,.828-.672,1.5-1.5,1.5s-1.5-.672-1.5-1.5.672-1.5,1.5-1.5,1.5.672,1.5,1.5Zm-3-11c0-.828.672-1.5,1.5-1.5s1.5.672,1.5,1.5-.672,1.5-1.5,1.5-1.5-.672-1.5-1.5Zm5,5c0,.828-.672,1.5-1.5,1.5s-1.5-.672-1.5-1.5.672-1.5,1.5-1.5,1.5.672,1.5,1.5Zm5,2c0,.828-.672,1.5-1.5,1.5s-1.5-.672-1.5-1.5.672-1.5,1.5-1.5,1.5.672,1.5,1.5Z"/></svg>
