<?xml version="1.0" encoding="UTF-8"?>
<svg xmlns="http://www.w3.org/2000/svg" id="Layer_1" data-name="Layer 1" viewBox="0 0 24 24">
  <path d="m20.316,3.271c-.402.375-.421,1.008-.048,1.41.019.02,3.443,4.32,3.443,4.32h-11.712c-.294,0-.572.128-.762.353-.193.228-.272.52-.224.823.076.462.556.825,1.093.825h6.433l2.615,7h2.845v2h-4.232l-2.615-7h-5.045c-1.516,0-2.834-1.076-3.066-2.503-.143-.879.103-1.768.674-2.439.571-.672,1.404-1.057,2.286-1.057h7.563l-.804-1.017c-1.072-1.21-.997-3.064.191-4.174,1.208-1.13,3.11-1.066,4.23.13l.818.849v2.881l-2.268-2.352c-.378-.403-1.013-.424-1.416-.046ZM2,16h14v5c0,1.654-1.346,3-3,3H3c-1.654,0-3-1.346-3-3V0h16v5h-2v-3H2v14Zm0,2v3c0,.551.449,1,1,1h10c.551,0,1-.449,1-1v-3H2Zm8,1h-4v2h4v-2Z"/>
</svg>
