<?xml version="1.0" encoding="UTF-8"?>
<svg xmlns="http://www.w3.org/2000/svg" id="Layer_1" data-name="Layer 1" viewBox="0 0 24 24" width="512" height="512"><path d="M12,6c-2.206,0-4,1.794-4,4s1.794,4,4,4c.713,0,1.372-.203,1.953-.53-.227,1.43-1.459,2.53-2.953,2.53h-2v2h2c2.757,0,5-2.243,5-5v-3c0-2.206-1.794-4-4-4Zm0,6c-1.103,0-2-.897-2-2s.897-2,2-2,2,.897,2,2-.897,2-2,2ZM12,0C5.383,0,0,5.383,0,12s5.383,12,12,12,12-5.383,12-12S18.617,0,12,0Zm0,22c-5.514,0-10-4.486-10-10S6.486,2,12,2s10,4.486,10,10-4.486,10-10,10Z"/></svg>
