<?xml version="1.0" encoding="UTF-8"?>
<svg xmlns="http://www.w3.org/2000/svg" id="Layer_1" data-name="Layer 1" viewBox="0 0 24 24">
  <path d="m13,4h-2V0h2v4ZM17,0h-2v4h2V0ZM9,0h-2v4h2V0Zm8.852,17.466l3.267,6.533h-2.236l-1-2h-7.932c.019-.166.05-.329.05-.5,0-.529-.108-1.029-.276-1.5h7.157l-1-2h-7.764l-.861,1.722c.459.453.743,1.082.743,1.778,0,1.381-1.119,2.5-2.5,2.5s-2.5-1.119-2.5-2.5c0-1.341,1.055-2.435,2.38-2.497l.768-1.536C2.384,15.358,0,11.35,0,7v-1h24v1c0,4.35-2.384,8.358-6.148,10.466Zm4.097-9.466H2.051c.348,3.428,2.467,6.481,5.61,8h8.679c3.143-1.519,5.262-4.571,5.609-8Z"/>
</svg>
