<?xml version="1.0" encoding="UTF-8"?>
<svg xmlns="http://www.w3.org/2000/svg" id="Layer_1" data-name="Layer 1" viewBox="0 0 24 24">
  <path d="m18,.004C14.692.004,12,2.695,12,6.004s2.691,6,6,6,6-2.691,6-6S21.309.004,18,.004Zm3,8.618v-.119c0-.828-.672-1.5-1.5-1.5h-3c-.828,0-1.5.672-1.5,1.5v.118c-.614-.703-1-1.612-1-2.618,0-2.206,1.794-4,4-4s4,1.794,4,4c0,1.006-.385,1.915-1,2.618Zm-1.5-4.118c0,.828-.672,1.5-1.5,1.5s-1.5-.672-1.5-1.5.672-1.5,1.5-1.5,1.5.672,1.5,1.5Zm-10.665,13.014c-.649.647-1.702.646-2.349,0-.647-.647-.647-1.701,0-2.349l5.046-5.047-4.212-4.212-5.089,5.09c-1.439,1.439-2.231,3.353-2.231,5.387s.792,3.947,2.231,5.386c1.485,1.485,3.436,2.228,5.386,2.228s3.9-.742,5.386-2.228l5.09-5.09-4.212-4.212-5.046,5.047Zm-.131-7.396l-1.086,1.086-1.384-1.384,1.086-1.086,1.384,1.384Zm-5.059,10.236c-1.061-1.061-1.646-2.472-1.646-3.972s.584-2.911,1.646-3.973l1.176-1.176,1.384,1.384-1.132,1.133c-1.427,1.427-1.427,3.75,0,5.177,1.427,1.428,3.749,1.428,5.177,0l1.132-1.132,1.383,1.383-1.176,1.176c-2.189,2.189-5.753,2.189-7.944,0Zm10.534-2.59l-1.384-1.384,1.086-1.086,1.384,1.384-1.086,1.086Z"/>
</svg>
