<?xml version="1.0" encoding="UTF-8"?>
<svg xmlns="http://www.w3.org/2000/svg" id="Layer_1" data-name="Layer 1" viewBox="0 0 24 24" width="512" height="512"><path d="M24,12h-3v-1c0-1.1-.9-2-2-2h-2c-1.1,0-2,.9-2,2v1h-3v2h1v7c0,1.65,1.35,3,3,3h4c1.65,0,3-1.35,3-3v-7h1v-2Zm-7-1h2v1h-2v-1Zm4,10c0,.55-.45,1-1,1h-4c-.55,0-1-.45-1-1v-7h6v7Zm-5-13.86v-1.14h-3.59l-2.41,2.41v5.59h-2V7.59l3.59-3.59h6.41v3h-1c-.35,0-.68,.06-1,.14Zm-5,13.86c0,.34,.04,.68,.1,1H0V3C0,1.35,1.35,0,3,0H19c1.65,0,3,1.35,3,3v5.38c-.52-.6-1.21-1.04-2-1.24V3c0-.55-.45-1-1-1H3c-.55,0-1,.45-1,1V20H11v1ZM6,7.09v8.91h5v2H4V4h5.23l-3.23,3.09Z"/></svg>
