<?xml version="1.0" encoding="UTF-8"?>
<svg xmlns="http://www.w3.org/2000/svg" id="Layer_1" data-name="Layer 1" viewBox="0 0 24 24">
  <path d="m9,23v1h-2v-1c0-.551-.448-1-1-1h-3c-.552,0-1,.449-1,1v1H0v-1c0-1.654,1.346-3,3-3h3c1.654,0,3,1.346,3,3Zm12-3h-3c-1.654,0-3,1.346-3,3v1h2v-1c0-.551.448-1,1-1h3c.552,0,1,.449,1,1v1h2v-1c0-1.654-1.346-3-3-3Zm-16.5-1c-1.93,0-3.5-1.57-3.5-3.5s1.57-3.5,3.5-3.5,3.5,1.57,3.5,3.5-1.57,3.5-3.5,3.5Zm0-2c.827,0,1.5-.673,1.5-1.5s-.673-1.5-1.5-1.5-1.5.673-1.5,1.5.673,1.5,1.5,1.5Zm15,2c-1.93,0-3.5-1.57-3.5-3.5s1.57-3.5,3.5-3.5,3.5,1.57,3.5,3.5-1.57,3.5-3.5,3.5Zm0-2c.827,0,1.5-.673,1.5-1.5s-.673-1.5-1.5-1.5-1.5.673-1.5,1.5.673,1.5,1.5,1.5Zm4.5-12v7.344c-.513-.731-1.2-1.329-2-1.739v-.605H2v.605c-.8.41-1.487,1.008-2,1.739v-7.344c0-1.654,1.346-3,3-3h3V0h2v2h8V0h2v2h3c1.654,0,3,1.346,3,3ZM2,8h20v-3c0-.551-.448-1-1-1H3c-.552,0-1,.449-1,1v3Zm9,16h2v-2h-2v2Z"/>
</svg>
