<?xml version="1.0" encoding="UTF-8"?>
<svg xmlns="http://www.w3.org/2000/svg" id="Layer_1" data-name="Layer 1" viewBox="0 0 24 24">
  <path d="m3,22h7v2H3c-1.654,0-3-1.346-3-3V2h5.171c.413-1.164,1.525-2,2.829-2h2c1.304,0,2.416.836,2.829,2h5.171v9h-2v-7h-5v-1c0-.551-.449-1-1-1h-2c-.551,0-1,.449-1,1v1H2v17c0,.552.449,1,1,1Zm3.165-13.131l-1.241-1.192-1.386,1.442,1.45,1.393c.326.326.754.488,1.181.488.425,0,.848-.161,1.168-.481l2.759-2.702-1.399-1.429-2.533,2.48Zm0,6l-1.241-1.192-1.386,1.441,1.449,1.393c.315.315.734.489,1.179.489s.865-.174,1.171-.48l2.759-2.702-1.399-1.429-2.533,2.481Zm17.835,1.131v8h-12v-8c0-1.654,1.346-3,3-3h6c1.654,0,3,1.346,3,3Zm-2,0c0-.552-.448-1-1-1h-6c-.552,0-1,.448-1,1v6h8v-6Zm-6,3h4v-2h-4v2Zm-2-10h-2.447l-2.042,2h4.489v-2Z"/>
</svg>
