<?xml version="1.0" encoding="UTF-8"?>
<svg xmlns="http://www.w3.org/2000/svg" id="Layer_1" data-name="Layer 1" viewBox="0 0 24 24">
  <polygon points="13 4 11 4 11 8 6 8 6 10 11 10 11 19.456 13 19.456 13 10 18 10 18 8 13 8 13 4"/>
  <path d="m19.939,2.578L12,0l-7.945,2.579c-1.229.407-2.055,1.549-2.055,2.842v6.525c0,6.563,7.005,10.577,9.153,11.651l.805.402.835-.336c2.16-.869,9.207-4.281,9.207-11.717v-6.525c0-1.293-.826-2.435-2.061-2.844Zm.061,9.369c0,6.183-6.087,9.111-7.953,9.862-1.888-.944-8.047-4.446-8.047-9.862v-6.525c0-.429.274-.808.678-.941l7.322-2.377,7.317,2.375c.409.135.683.515.683.943v6.525Z"/>
</svg>
