<?xml version="1.0" encoding="UTF-8"?>
<svg xmlns="http://www.w3.org/2000/svg" id="Layer_1" data-name="Layer 1" viewBox="0 0 24 24" width="512" height="512"><path d="m12,5.5c-1.93,0-3.5,1.57-3.5,3.5,0,1.58,1.059,2.903,2.5,3.337v11.663h2v-11.663c1.441-.434,2.5-1.757,2.5-3.337,0-1.93-1.57-3.5-3.5-3.5Zm0,5c-.827,0-1.5-.673-1.5-1.5s.673-1.5,1.5-1.5,1.5.673,1.5,1.5-.673,1.5-1.5,1.5Zm-4.243-5.667c-2.339,2.339-2.339,6.146,0,8.485l-1.414,1.414c-3.119-3.12-3.119-8.195,0-11.313l1.414,1.414Zm12.243,4.243c0,2.137-.832,4.146-2.343,5.657l-1.414-1.414c1.133-1.133,1.757-2.64,1.757-4.243s-.624-3.109-1.757-4.243l1.414-1.414c1.511,1.511,2.343,3.52,2.343,5.657Zm-15.071,7.071l-1.414,1.414C-1.164,12.882-1.164,5.269,3.515.59l1.414,1.414c-3.898,3.899-3.898,10.243,0,14.142Zm19.071-7.071c0,3.205-1.248,6.219-3.515,8.485l-1.414-1.414c1.889-1.889,2.929-4.4,2.929-7.071s-1.04-5.183-2.929-7.071l1.414-1.414c2.267,2.267,3.515,5.28,3.515,8.485Z"/></svg>
