<?xml version="1.0" encoding="UTF-8"?>
<svg xmlns="http://www.w3.org/2000/svg" id="Layer_1" data-name="Layer 1" viewBox="0 0 24 24">
  <path d="m24,6.636c0-2.301-1.221-4.386-3.186-5.44-1.477-.793-3.032-1.195-4.624-1.195H7.81c-1.592,0-3.148.402-4.625,1.195C1.221,2.25,0,4.335,0,6.636v14.364h4v3h16v-3.024h4V6.636ZM14.901,2c-.455,1.196-1.594,2-2.901,2s-2.446-.804-2.901-2h5.802Zm7.099,16.976h-2V7h-2v15H6V7h-2v12h-2V6.636c0-1.563.817-2.973,2.131-3.679.939-.504,1.913-.81,2.905-.915l-.01.002c.542,2.329,2.587,3.956,4.974,3.956s4.432-1.627,4.974-3.956l-.01-.002c.991.105,1.966.411,2.906.915,1.314.706,2.131,2.116,2.131,3.679v12.34Z"/>
</svg>
