<?xml version="1.0" encoding="UTF-8"?>
<svg xmlns="http://www.w3.org/2000/svg" id="Layer_1" data-name="Layer 1" viewBox="0 0 24 24" width="512" height="512"><path d="M22.28,3.29L19.11,.12l-6.26,6.27,3.41,3.41c-1.37,3.06-3.49,5.19-6.45,6.47l-3.41-3.41L.12,19.11l3.17,3.17c1.11,1.11,2.6,1.72,4.21,1.72,7.25,0,16.5-9.25,16.5-16.5,0-1.61-.61-3.1-1.72-4.21ZM7.5,22c-1.07,0-2.07-.4-2.79-1.13l-1.76-1.76,3.44-3.44,2.93,2.93,.61-.23c3.96-1.51,6.81-4.35,8.45-8.44l.25-.61-2.93-2.94,3.44-3.44,1.76,1.76c.73,.73,1.13,1.72,1.13,2.79,0,6.23-8.27,14.5-14.5,14.5Z"/></svg>
