<?xml version="1.0" encoding="UTF-8"?>
<svg xmlns="http://www.w3.org/2000/svg" id="Layer_1" data-name="Layer 1" viewBox="0 0 24 24" width="512" height="512"><path d="m8,7.077l-1.154,2.769-1.846-.769,1.615-2.577,1.385.577Zm16,4.923c0,6.617-5.383,12-12,12S0,18.617,0,12,5.383,0,12,0s12,5.383,12,12Zm-12,10v-2.5l-2-.5-2-2v-2l2.5-2h2.5l3,2h1.5l1.5,1.5,1.819.21c.234-.437.437-.893.605-1.366l-3.424-1.844,1-1v-1l-3-1v-1.5h3v-2h-2l-1,2-1.5.5.5,1.5-1,.5-1.5-1.5-1.5,2h-1l-1-1.5,1.5-3.5,3.5-1.5v-1l-3,.5-.5-1,.994-1.987C6.214,2.277,2,6.656,2,12c0,5.514,4.486,10,10,10Z"/></svg>
