<?xml version="1.0" encoding="UTF-8"?>
<svg xmlns="http://www.w3.org/2000/svg" id="Layer_1" data-name="Layer 1" viewBox="0 0 24 24">
  <path d="m23.121,5.122c.566-.567.879-1.32.879-2.122s-.313-1.555-.879-2.121c-1.169-1.169-3.072-1.17-4.243,0l-8.279,8.305L1.457.043.043,1.457l22.5,22.5,1.414-1.414-9.116-9.116,8.28-8.306Zm-2.828-2.829c.391-.39,1.023-.39,1.414,0,.189.188.293.439.293.707s-.104.518-.294.708l-8.279,8.305-1.414-1.414L20.293,2.293Zm-9.557,12.685l1.655,1.655-1.155,4.736L.033,23.996l2.627-11.206,4.747-1.14,1.658,1.658-4.74,1.139-1.176,5.017,3.277-3.277,1.414,1.414-3.277,3.278,5.02-1.177,1.152-4.724Z"/>
</svg>
