<?xml version="1.0" encoding="UTF-8"?>
<svg xmlns="http://www.w3.org/2000/svg" id="Layer_1" data-name="Layer 1" viewBox="0 0 24 24" width="512" height="512"><path d="M17.795,9.652l.924-1.774c.635-1.223,.156-2.735-1.08-3.379L10.825,1.092C6.037-1.396,2.349,.967,1.067,2.562l-.77,.959,6.789,3.459L.016,21.205l5.325,2.768,7.083-14.273,2.001,1.019c.361,.188,.754,.282,1.149,.282,.254,0,.509-.039,.757-.117,.637-.201,1.157-.639,1.464-1.231ZM4.455,21.258l-1.774-.922L8.868,7.888l1.774,.904-6.187,12.466ZM16.944,6.956l-.924,1.774c-.083,.16-.219,.223-.292,.246-.075,.024-.225,.048-.389-.036L3.605,2.962c1.17-.791,3.341-1.631,6.312-.088l6.813,3.406c.245,.128,.341,.431,.215,.676Zm7.056-1.956v2h-3v-2h3Zm-5.28,6.682l1.85,2.362-1.574,1.232-1.85-2.362,1.574-1.232Zm2.116-3.053l2.613,1.473-.982,1.742-2.613-1.473,.982-1.742Z"/></svg>
