<?xml version="1.0" encoding="UTF-8"?>
<svg xmlns="http://www.w3.org/2000/svg" id="Layer_1" data-name="Layer 1" viewBox="0 0 24 24" width="512" height="512"><path d="m13,11.586l2.707,2.707-1.414,1.414-3.293-3.293v-5.414h2v4.586Zm5,8.409v4.005h-2v-2.836c-1.226.537-2.578.836-4,.836s-2.774-.299-4-.836v2.836h-2v-4.005c-2.427-1.826-4-4.73-4-7.995s1.573-6.169,4-7.995V0h2v2.836c1.226-.537,2.578-.836,4-.836s2.774.299,4,.836V0h2v4.005c2.427,1.826,4,4.73,4,7.995s-1.573,6.169-4,7.995Zm-6,.005c4.411,0,8-3.589,8-8s-3.589-8-8-8S4,7.589,4,12s3.589,8,8,8Z"/></svg>
