<?xml version="1.0" encoding="UTF-8"?>
<svg xmlns="http://www.w3.org/2000/svg" id="Layer_1" data-name="Layer 1" viewBox="0 0 24 24">
  <path d="m23.018,8.785c-.595-.542-1.356-.821-2.169-.782-.804.037-1.545.386-2.085.981l-3.217,3.534c-.551-.91-1.551-1.519-2.689-1.519h-3.857v-1h.376c1.447,0,2.624-1.177,2.624-2.624,0-1.288-.923-2.377-2.193-2.588l-3.285-.548c-.302-.05-.521-.309-.521-.616,0-.344.28-.624.624-.624h2.376c.552,0,1,.449,1,1h2c0-1.654-1.346-3-3-3V0h-2v1h-.376c-1.447,0-2.624,1.177-2.624,2.624,0,1.288.923,2.377,2.193,2.588l3.285.548c.302.05.521.309.521.616,0,.344-.28.624-.624.624h-2.376c-.552,0-1-.449-1-1h-2c0,1.654,1.346,3,3,3v1H3c-1.654,0-3,1.346-3,3v7c0,1.654,1.346,3,3,3h10.448l9.787-10.985c1.094-1.225.996-3.123-.218-4.23Zm-1.275,2.899l-9.19,10.316H3c-.552,0-1-.449-1-1v-7c0-.551.448-1,1-1h9.857c.63,0,1.143.512,1.143,1.142,0,.564-.422,1.051-.98,1.131l-5.161.737.283,1.979,5.161-.737c1.175-.168,2.129-.988,2.514-2.059l4.427-4.864c.181-.2.43-.316.699-.329.271-.007.528.082.728.262.407.372.44,1.009.072,1.421Zm-3.716-6.668h-4.026v-2h4.058l-1.537-1.538,1.414-1.414,2.448,2.449c.397.396.616.924.616,1.486s-.219,1.09-.616,1.487l-2.49,2.49-1.414-1.414,1.546-1.546Z"/>
</svg>
