<?xml version="1.0" encoding="UTF-8"?>
<svg xmlns="http://www.w3.org/2000/svg" id="Layer_1" data-name="Layer 1" viewBox="0 0 24 24" width="512" height="512"><path d="M24,17.032c0-2.792-.484-5.539-1.438-8.163l-2.144-5.895c-.429-1.181-1.562-1.975-2.819-1.975H6.401c-1.257,0-2.39,.793-2.819,1.975L1.438,8.869c-.954,2.624-1.438,5.371-1.438,8.163v1.968H2v4h6v-4h8v4h6v-4h2v-1.968Zm-18,3.968h-2v-2h2v2Zm14,0h-2v-2h2v2ZM2,17c.002-1.349,.127-2.685,.374-4h1.626v2h2v-2h1v-2H2.848c.14-.486,.296-.969,.47-1.447L5.461,3.658c.143-.394,.521-.658,.939-.658h11.198c.419,0,.796,.265,.939,.658l2.144,5.895c.174,.478,.331,.961,.47,1.447h-4.152v2h1v2h2v-2h1.626c.247,1.315,.372,2.651,.374,4H2Zm12.809-7.154c.268,.499,.252,1.098-.037,1.58l-1.764,3.534-1.789-.894,1.53-3.066h-2.134c-.509,0-.994-.244-1.297-.653s-.396-.943-.249-1.43l2.224-4.161,1.76,.95-1.778,3.294h2.121c.592,0,1.133,.324,1.413,.846Z"/></svg>
