<?xml version="1.0" encoding="UTF-8"?>
<svg xmlns="http://www.w3.org/2000/svg" id="Layer_1" data-name="Layer 1" viewBox="0 0 24 24">
  <path d="m17.576,16.162c.694-.461,1.199-.839,1.23-.862l1.063-.8-1.063-.799s-.006-.005-.008-.006c1.537-.596,3.365-1.912,4.008-2.396l1.062-.799-1.062-.799c-.365-.275-1.12-.819-1.979-1.348.256-.131.492-.282.68-.47,1.229-1.229,1.979-5.224,2.179-6.419l.232-1.384-1.384.232c-1.195.2-5.189.95-6.418,2.18-.188.188-.343.419-.474.675-.528-.857-1.07-1.609-1.344-1.974l-.799-1.063-.799,1.063c-.484.643-1.799,2.471-2.396,4.008-.002-.002-.004-.006-.006-.008l-.799-1.063-.799,1.063c-.023.03-.401.536-.862,1.23L1.457.043.043,1.457l22.5,22.5,1.414-1.414-6.381-6.381Zm-.076-4.162c-.507,0-1.725-.549-2.886-1.2l1.217-1.217c.591-.384,1.153-.583,1.669-.583.474,0,1.741.685,2.97,1.5-1.229.815-2.496,1.5-2.97,1.5Zm.031-8.093c.422-.422,2.146-.958,3.906-1.344-.386,1.76-.921,3.483-1.343,3.906-.373.373-1.738.546-3.071.508-.033-1.324.135-2.697.508-3.07Zm-4.031-.378c.815,1.229,1.5,2.497,1.5,2.971,0,.517-.199,1.078-.583,1.668l-1.217,1.218c-.651-1.162-1.2-2.378-1.2-2.886,0-.474.685-1.741,1.5-2.971Zm-8.799,5.665c-.633.842-2.701,3.715-2.701,5.306,0,1.24,1.083,3.249,1.736,4.35L.043,22.543l1.414,1.414,3.693-3.693c1.1.653,3.11,1.736,4.35,1.736,1.591,0,4.464-2.067,5.306-2.701l.143-.107L4.808,9.051l-.108.143Zm4.799,7.806c.474,0,1.741.685,2.97,1.5-1.229.815-2.496,1.5-2.97,1.5-.507,0-1.724-.549-2.886-1.2l1.218-1.218c.591-.384,1.152-.582,1.668-.582Zm-2.5-2.5c0,.517-.199,1.079-.583,1.669l-1.217,1.217c-.651-1.162-1.2-2.379-1.2-2.886,0-.474.685-1.741,1.5-2.971.815,1.229,1.5,2.497,1.5,2.971Z"/>
</svg>
