<?xml version="1.0" encoding="UTF-8"?>
<svg xmlns="http://www.w3.org/2000/svg" id="Layer_1" data-name="Layer 1" viewBox="0 0 24 24">
  <path d="m11,15.242v3.758h-2v-5.758l2,2Zm6,6.758H7c-.551,0-1-.448-1-1v-10.758l-2-2v12.757c0,1.654,1.346,3,3,3h10c.765,0,1.457-.297,1.988-.77l-1.426-1.425c-.162.114-.349.196-.562.196Zm-4-3h1.758l-1.758-1.758v1.758ZM2.586,4L.043,1.457,1.457.043l3.957,3.957h1.586v-2c0-1.103.897-2,2-2h6c1.103,0,2,.897,2,2v2h5v2h-2v12.5h-.086l4.043,4.043-1.414,1.414L4.586,6l-2-2Zm6.414,0h6v-2h-6v2Zm9,2H7.414l5.586,5.586v-2.586h2v4.586l3,3V6Z"/>
</svg>
