<?xml version="1.0" encoding="UTF-8"?>
<svg xmlns="http://www.w3.org/2000/svg" id="Layer_1" data-name="Layer 1" viewBox="0 0 24 24">
  <path d="m12,3C5.582,3,.457,5.597,0,9v5.5c0,3.645,5.271,6.5,12,6.5s12-2.855,12-6.5v-5c0-3.645-5.271-6.5-12-6.5Zm0,2c5.894,0,10,2.372,10,4.5,0,.358-.117.723-.338,1.082-2.227-1.625-5.777-2.582-9.662-2.582s-7.445.972-9.662,2.582c-.221-.359-.338-.724-.338-1.082,0-2.128,4.106-4.5,10-4.5Zm8.19,6.994c-1.747,1.147-4.645,2.006-8.19,2.006s-6.444-.858-8.191-2.006c1.886-1.232,4.942-1.994,8.191-1.994s6.294.752,8.19,1.994Zm-8.19,7.006c-5.894,0-10-2.372-10-4.5v-1.36c2.133,1.737,5.779,2.86,10,2.86s7.867-1.123,10-2.86v1.36c0,2.128-4.106,4.5-10,4.5Z"/>
</svg>
