<?xml version="1.0" encoding="UTF-8"?>
<svg xmlns="http://www.w3.org/2000/svg" id="Layer_1" data-name="Layer 1" viewBox="0 0 24 24">
  <path d="m24,0v2h-7V0h7Zm-7,6h7v-2h-7v2Zm0,15h7v-2h-7v2Zm0-8h7v-2h-7v2Zm0-3h7v-3h-7v3Zm0,8h7v-3h-7v3Zm0,6h7v-2h-7v2ZM5,3h10v10h-5.281l-.672,2h.953v2h-1.625l-1.523,4.532c-.461,1.48-1.846,2.44-3.337,2.44-.344,0-.693-.051-1.038-.158-1.842-.573-2.876-2.539-2.304-4.381l2.377-7.076c-1.521-.858-2.551-2.49-2.551-4.358C0,5.243,2.243,3,5,3Zm2.609,10h-2.609c-.184,0-.365-.01-.544-.03l-2.379,7.078c-.238.768.205,1.61.994,1.856.787.246,1.633-.197,1.878-.987l2.66-7.917Zm5.391-8H5c-1.654,0-3,1.346-3,3s1.346,3,3,3h8v-6Z"/>
</svg>
