<?xml version="1.0" encoding="UTF-8"?>
<svg xmlns="http://www.w3.org/2000/svg" id="Layer_1" data-name="Layer 1" viewBox="0 0 24 24">
  <path d="m13,10v10h-2v-6.614l-.78.809-1.439-1.389,2.708-2.806h1.512Zm6.217-.372c1.12,1.5,1.783,3.36,1.783,5.372,0,4.963-4.038,9-9,9S3,19.963,3,15c0-2.011.663-3.87,1.782-5.37L.031,0h9.102l2.874,5.826L14.89,0h9.09l-4.764,9.628Zm-5.179-3.396c1.387.322,2.653.967,3.713,1.849l3.009-6.082h-4.627l-2.095,4.233ZM3.248,2l3.001,6.083c1.064-.886,2.334-1.532,3.727-1.853l-2.086-4.23H3.248Zm15.752,13c0-3.859-3.14-7-7-7s-7,3.141-7,7,3.14,7,7,7,7-3.141,7-7Z"/>
</svg>
