<?xml version="1.0" encoding="UTF-8"?>
<svg xmlns="http://www.w3.org/2000/svg" id="Layer_1" data-name="Layer 1" viewBox="0 0 24 24">
  <path d="m15,19.243l2,2v2.757h-2v-4.757ZM5,10c-.551,0-1-.449-1-1v-.757l-2-2v2.757c0,1.654,1.346,3,3,3h1v12h2v-11.757l-2.243-2.243h-.757Zm18.957,12.543l-1.414,1.414L.043,1.457,1.457.043l.543.543v-.586h2v2.586l2,2V0h2v6.586l2,2V0h2v9c0,.45-.112.885-.302,1.284l3.302,3.302V2.001c0-.877.537-1.622,1.368-1.897.834-.273,1.715.001,2.241.708,1.547,2.078,3.391,5.23,3.391,8.455,0,3.038-1.617,5.999-3.171,8.149l5.128,5.128Zm-6.564-6.564c1.186-1.699,2.607-4.24,2.607-6.713,0-2.676-1.628-5.425-2.995-7.26l-.005,13.58.393.393Z"/>
</svg>
