<?xml version="1.0" encoding="UTF-8"?>
<svg xmlns="http://www.w3.org/2000/svg" id="Layer_1" data-name="Layer 1" viewBox="0 0 24 24">
  <path d="m13.196,23.901c.012.012.026.023.039.035-.406.042-.818.064-1.235.064C5.383,24,0,18.617,0,12S5.383,0,12,0s12,5.383,12,12c0,.48-.036.951-.091,1.416-.044-.047-.084-.097-.129-.142l-1.804-1.765c-.259-5.285-4.627-9.509-9.975-9.509C6.486,2,2,6.486,2,12c0,5.451,4.386,9.889,9.813,9.991.354.697.815,1.343,1.383,1.911Zm-6.196-12.901v-4h-2v4h2Zm4,0v-4h-2v4h2Zm4,0v-4h-2v4h2Zm7.381,3.703c1.047,1.046,1.619,2.427,1.619,3.896s-.572,2.851-1.611,3.889c-1.039,1.039-2.42,1.611-3.889,1.611s-2.851-.572-3.889-1.611c-1.039-1.038-1.611-2.419-1.611-3.889s.572-2.851,1.611-3.889l3.889-3.804,3.881,3.796Zm-.381,3.896c0-.935-.364-1.813-1.025-2.475l-2.475-2.421-2.482,2.429c-.653.653-1.018,1.532-1.018,2.467s.364,1.813,1.025,2.475c1.322,1.322,3.627,1.323,4.949,0,.661-.661,1.025-1.54,1.025-2.475Z"/>
</svg>
