<?xml version="1.0" encoding="UTF-8"?>
<svg xmlns="http://www.w3.org/2000/svg" id="Layer_1" data-name="Layer 1" viewBox="0 0 24 24" width="512" height="512"><path d="M14.019,3.82c.891-.838,2.282-1.041,3.374-.496l3.371,1.686h3.236V3.01h-2.764l-2.949-1.475c-1.827-.914-4.154-.571-5.64,.829l-.618,.582-.7-.637c-.919-.837-2.11-1.298-3.391-1.298-.769,0-1.539,.182-2.227,.525l-1.842,.921L1.457,.043,.043,1.457,22.543,23.957l1.414-1.414-4.861-4.861,2.237-1.672h2.667v-2h-2.585l-6.027-6.036,.843-.807-1.383-1.444-3.94,3.771-1.414-1.414L14.019,3.82Zm-7.411-.496c1.026-.514,2.457-.374,3.375,.462l.586,.534-2.489,2.344-2.718-2.718,1.246-.623Zm7.335,6.033l5.535,5.543-1.809,1.353-5.346-5.346,1.62-1.551Zm.49,9.317l1.429,1.429-3.86,2.887L2.667,16.01H0v-2H3.333l8.667,6.482,2.432-1.819Z"/></svg>
