<?xml version="1.0" encoding="UTF-8"?>
<svg xmlns="http://www.w3.org/2000/svg" id="Layer_1" data-name="Layer 1" viewBox="0 0 24 24" width="512" height="512"><path d="M22.41,21h1.59V6c0-1.65-1.35-3-3-3H4.41L1.41,0,0,1.41,6.37,7.78c-.2,.24-.35,.53-.43,.86l-1.94,8.36h2.05l.23-1h3.43l.23,1h2.05l-1.94-8.36c-.19-.8-.81-1.4-1.59-1.58l-2.06-2.06h14.59c.55,0,1,.45,1,1v13h-1.59l-2.51-2.51c1.24-.68,2.09-1.98,2.09-3.49v-2c0-2.21-1.79-4-4-4h-3v10h2.59l7.01,7.01,1.41-1.41-1.59-1.59ZM6.75,14l1.14-4.91c.01-.05,.06-.09,.11-.09s.1,.04,.11,.09l1.14,4.91h-2.5Zm8.25-5h1c1.1,0,2,.9,2,2v2c0,1.1-.9,2-2,2h-1v-6Zm-.24,10l2,2H0V6c0-.51,.14-.98,.36-1.4l1.64,1.64v12.76H14.76Z"/></svg>
