<?xml version="1.0" encoding="UTF-8"?>
<svg xmlns="http://www.w3.org/2000/svg" id="Layer_1" data-name="Layer 1" viewBox="0 0 24 24">
  <path d="m21.5,9.5c-1.025,0-1.903.618-2.289,1.5h-3.352c-.176-.677-.515-1.286-.987-1.774l1.747-2.854c.954.131,1.939-.295,2.474-1.169.721-1.177.351-2.716-.827-3.438-1.177-.721-2.716-.351-3.438.827-.535.874-.467,1.945.084,2.735l-1.754,2.864c-.369-.113-.753-.191-1.159-.191s-.79.079-1.16.192l-1.754-2.864c.551-.79.619-1.862.084-2.736-.721-1.177-2.26-1.548-3.438-.827-1.177.721-1.548,2.26-.827,3.438.535.874,1.52,1.3,2.474,1.169l1.747,2.854c-.471.488-.811,1.097-.986,1.773h-3.353c-.386-.882-1.264-1.5-2.289-1.5C1.119,9.5,0,10.619,0,12s1.119,2.5,2.5,2.5c1.024,0,1.903-.618,2.289-1.5h3.354c.176.676.515,1.286.986,1.774l-1.747,2.854c-.954-.131-1.939.295-2.474,1.169-.721,1.177-.351,2.717.827,3.438,1.177.721,2.717.351,3.438-.826.535-.874.467-1.946-.084-2.736l1.753-2.863c.37.113.754.192,1.16.192s.79-.079,1.159-.192l1.753,2.863c-.551.79-.619,1.862-.084,2.736.721,1.177,2.26,1.548,3.438.826,1.178-.721,1.548-2.26.827-3.438-.535-.874-1.521-1.3-2.474-1.169l-1.747-2.853c.472-.488.811-1.098.987-1.774h3.353c.386.882,1.264,1.5,2.289,1.5,1.381,0,2.5-1.119,2.5-2.5s-1.119-2.5-2.5-2.5Zm-11.5,2.5c0-1.103.897-2,2-2s2,.897,2,2-.897,2-2,2-2-.897-2-2Z"/>
</svg>
