<?xml version="1.0" encoding="UTF-8"?>
<svg xmlns="http://www.w3.org/2000/svg" id="Layer_1" data-name="Layer 1" viewBox="0 0 24 24">
  <path d="m14,2.5c0-1.381,1.119-2.5,2.5-2.5s2.5,1.119,2.5,2.5-1.119,2.5-2.5,2.5-2.5-1.119-2.5-2.5Zm10,7.472v5.028h-2v-3.972l-2-1.38v3.759c0,.978-.479,1.897-1.28,2.458l-4.743,3.168.023,4.962-2,.01-.028-6.038,2.028-1.354v-3.839l-2.813,1.834-1.092-1.676,3.166-2.063.776-2.773c.367-1.178,1.623-2.078,2.867-2.078,1.444,0,2.247.574,2.548.848l4.548,3.107Zm-6,3.435v-5.142c-.154-.094-.496-.248-1.096-.248-.33,0-.746.259-.904.542v6.718l1.591-1.062c.25-.175.409-.481.409-.807Zm-.339,5.418l2.074,5.174h2.162l-2.559-6.356c-.054.038-1.677,1.182-1.677,1.182Zm-10.661-6.826v-3h-3v3h3ZM2,7.46c0-.354.16-.682.438-.9l5.819-4.56c.059-.011.256-.128.484.05l4.415,3.461c-.719-.798-1.157-1.854-1.157-3.012,0-.114.004-.226.013-.338l-2.056-1.535c-.966-.755-2.111-.838-2.913-.21L1.206,4.985c-.767.6-1.206,1.502-1.206,2.475v9.54h9v-2H2v-7.54Z"/>
</svg>
