<?xml version="1.0" encoding="UTF-8"?>
<svg xmlns="http://www.w3.org/2000/svg" id="Layer_1" data-name="Layer 1" viewBox="0 0 24 24">
  <path d="m6,16h12l-6-10.286-6,10.286Zm7-1h-2v-2h2v2Zm0-3h-2v-3h2v3Zm7.827-.02c0-.482-.039-.963-.115-1.438l3.218-1.811-2.941-5.229-3.162,1.777c-.83-.741-1.789-1.321-2.827-1.711V0h-6v3.461c-1.106.369-2.128.951-3.015,1.715l-2.975-1.672L.07,8.733l2.938,1.651c-.094.525-.142,1.06-.142,1.596,0,.549.05,1.095.148,1.631L.07,15.267l2.941,5.229,3.001-1.688c.88.753,1.894,1.327,2.988,1.691v3.5h6v-3.608c1.027-.386,1.978-.958,2.801-1.688l3.188,1.794,2.941-5.23-3.224-1.812c.08-.485.121-.979.121-1.474Zm.379,4.05l-.98,1.742-2.774-1.56-.536.566c-.871.92-1.972,1.585-3.186,1.925l-.73.204v3.092h-2v-3.045l-.77-.183c-1.272-.3-2.434-.956-3.359-1.895l-.536-.545-2.562,1.44-.98-1.743,2.534-1.425-.209-.755c-.168-.607-.253-1.236-.253-1.87,0-.623.083-1.242.246-1.84l.205-.752-2.522-1.419.98-1.743,2.541,1.429.537-.55c.927-.95,2.096-1.613,3.38-1.918l.77-.182v-3.006h2v3.053l.73.204c1.223.343,2.332,1.016,3.207,1.947l.536.571,2.754-1.549.98,1.743-2.777,1.562.187.741c.14.556.211,1.13.211,1.707,0,.588-.073,1.173-.218,1.738l-.19.743,2.788,1.568Z"/>
</svg>
