<?xml version="1.0" encoding="UTF-8"?>
<svg xmlns="http://www.w3.org/2000/svg" id="Layer_1" data-name="Layer 1" viewBox="0 0 24 24">
  <path d="m24,3c0-1.654-1.346-3-3-3H3C1.346,0,0,1.346,0,3v16h1v3h2v2h5v-2h8v2h5v-2h2v-3h1V3ZM3,2h18c.552,0,1,.448,1,1v10.802c-.084-.193-.173-.384-.267-.572l-2.286-4.572c-.512-1.022-1.54-1.658-2.684-1.658H7.236c-1.144,0-2.172.636-2.684,1.658l-2.286,4.572c-.094.188-.183.379-.267.572V3c0-.552.448-1,1-1Zm1.118,12l2.224-4.447c.17-.341.513-.553.895-.553h9.527c.382,0,.725.212.895.553l2.224,4.447H4.118Zm16.882,6H3v-1.403c0-.875.117-1.751.345-2.597h1.655v1c0,.553.447,1,1,1s1-.447,1-1v-1h10v1c0,.553.447,1,1,1s1-.447,1-1v-1h1.655c.227.846.345,1.722.345,2.597v1.403Z"/>
</svg>
