<?xml version="1.0" encoding="UTF-8"?>
<svg xmlns="http://www.w3.org/2000/svg" id="Layer_1" data-name="Layer 1" viewBox="0 0 24 24">
  <path d="m24,11.536l-2.958-4.536h-4.042c0-2.414-1.721-4.435-4-4.899V0h-2v2.101c-2.279.465-4,2.485-4,4.899H2.958L0,11.536v1.464h1v11h7v-3c0-2.206,1.794-4,4-4s4,1.794,4,4v3h7v-11h1v-1.464Zm-19.958-2.536h4.958v-2c0-1.654,1.346-3,3-3s3,1.346,3,3v2h4.958l1.305,2H2.737l1.305-2Zm16.958,13h-3v-1c0-3.309-2.691-6-6-6s-6,2.691-6,6v1h-3v-9h18v9Zm-7.5-15c0,.828-.672,1.5-1.5,1.5s-1.5-.672-1.5-1.5.672-1.5,1.5-1.5,1.5.672,1.5,1.5Z"/>
</svg>
