<?xml version="1.0" encoding="UTF-8"?>
<svg xmlns="http://www.w3.org/2000/svg" id="Layer_1" data-name="Layer 1" viewBox="0 0 24 24">
  <path d="m8.172,4l4,4H4v-4h4.172Zm4.586,1.757l1.414,1.414c1.56-1.56,4.098-1.56,5.657,0l1.414-1.414c-2.339-2.34-6.146-2.34-8.485,0ZM17,0c-2.671,0-5.182,1.04-7.071,2.929l1.414,1.414c1.511-1.511,3.52-2.343,5.657-2.343s4.146.832,5.657,2.343l1.414-1.414c-1.889-1.889-4.4-2.929-7.071-2.929Zm1.414,8.586c-.78-.78-2.048-.78-2.828,0l1.414,1.414,1.414-1.414Zm-12.414,1.414h-2v2h2v-2Zm8,0h-2v2h2v-2Zm-8,4h-2v2h2v-2Zm8,0h-2v2h2v-2Zm-4-4h-2v2h2v-2Zm0,4h-2v2h2v-2Zm-6,6h2v-2h-2v2Zm8,0h2v-2h-2v2Zm-4,0h2v-2h-2v2Zm8,2H2V3c0-.551.449-1,1-1h5.03l.485-.485c.571-.571,1.19-1.077,1.847-1.515H3C1.346,0,0,1.346,0,3v21h18v-4h1v-8h-3v10Z"/>
</svg>
