<?xml version="1.0" encoding="UTF-8"?>
<svg xmlns="http://www.w3.org/2000/svg" id="Layer_1" data-name="Layer 1" viewBox="0 0 24 24">
  <path d="m24,10c0-1.654-1.346-3-3-3s-3,1.346-3,3,1.346,3,3,3c.214,0,.422-.024.623-.067-.456,1.795-1.319,3.422-2.483,4.793l-1.417-1.417c.455-.548.855-1.143,1.182-1.784-.627-.291-1.175-.71-1.629-1.221-.26.57-.591,1.099-.974,1.585l-4.378-4.378c.176-.666.011-1.403-.511-1.925s-1.259-.687-1.925-.511L5.108,3.693c1.353-1.056,3.047-1.693,4.892-1.693,3.232,0,6.016,1.93,7.277,4.695.454-.511,1.003-.929,1.629-1.221C17.251,2.231,13.885,0,10,0c-2.398,0-4.595.855-6.319,2.267L1.457.043.043,1.457l22.5,22.5,1.414-1.414-3.401-3.401c2.133-2.455,3.444-5.642,3.444-9.142Zm-3,1c-.552,0-1-.449-1-1s.448-1,1-1,1,.449,1,1-.448,1-1,1Zm-4.908,9.326l1.45,1.45c-2.179,1.401-4.764,2.224-7.542,2.224h-1v-4.051C3.954,19.446,0,15.177,0,10c0-1.668.416-3.239,1.142-4.624l1.496,1.496c-.41.961-.638,2.018-.638,3.128,0,4.411,3.589,8,8,8,1.108,0,2.156-.241,3.115-.65l1.5,1.5c-1.101.574-2.322.949-3.615,1.079v2.03c1.848-.153,3.575-.734,5.092-1.632Z"/>
</svg>
