<?xml version="1.0" encoding="UTF-8"?>
<svg xmlns="http://www.w3.org/2000/svg" id="Layer_1" data-name="Layer 1" viewBox="0 0 24 24" width="512" height="512"><path d="m17.5,10c0-2.206-1.794-4-4-4h-3.5c-1.379,0-2.5,1.121-2.5,2.5v9.5h2v-4h2.804l2.393,4h2.303l-2.456-4.138c1.701-.46,2.956-2.017,2.956-3.862Zm-4,2h-4v-3.5c0-.275.225-.5.5-.5h3.5c1.103,0,2,.897,2,2s-.897,2-2,2ZM12,0C5.383,0,0,5.383,0,12s5.383,12,12,12,12-5.383,12-12S18.617,0,12,0Zm0,22c-5.514,0-10-4.486-10-10S6.486,2,12,2s10,4.486,10,10-4.486,10-10,10Z"/></svg>
