<?xml version="1.0" encoding="UTF-8"?>
<svg xmlns="http://www.w3.org/2000/svg" id="Layer_1" data-name="Layer 1" viewBox="0 0 24 24">
  <path d="m23.548,11.84c-.456-.801-1.197-1.377-2.086-1.621-.803-.22-3.266-.527-5.457-.527h-1.595s5.615-3.997,5.615-3.997v-2.123l1.781-2.226-1.562-1.249-2.219,2.774v1.792l-4.11,2.925c.36-.433.585-.982.585-1.589,0-1.009-.601-1.873-1.461-2.268l-1.039-3.732-1.039,3.732c-.86.395-1.461,1.259-1.461,2.268,0,.6.22,1.143.572,1.574l-4.072-2.909v-1.793L3.781.098l-1.562,1.249,1.781,2.226v2.122l5.597,3.998h-1.597s-.005,0-.005,0c-2.191,0-4.654.307-5.457.527-.889.244-1.63.82-2.086,1.621s-.572,1.732-.328,2.621c.243.889.819,1.63,1.621,2.086.527.3,1.111.454,1.702.454.307,0,.615-.041.919-.125,1.146-.315,4.274-2.895,6.14-4.497l-5.506,6.424v1.717l-2.125,1.7,1.25,1.562,2.875-2.3v-1.938l4-4.667v5.124h2v-5.124l4,4.667v1.938l2.875,2.3,1.25-1.562-2.125-1.7v-1.717l-5.506-6.424c1.866,1.602,4.995,4.182,6.14,4.497.304.083.612.125.919.125.591,0,1.175-.153,1.702-.454.802-.456,1.378-1.197,1.621-2.086.244-.889.128-1.82-.328-2.621ZM3.837,14.948c-.374.102-.766.053-1.103-.138-.337-.192-.579-.503-.683-.877-.103-.374-.053-.766.139-1.103s.503-.579.877-.682c.564-.155,2.814-.456,4.928-.456h.226c-1.976,1.65-3.861,3.095-4.384,3.255Zm18.111-1.016c-.104.374-.346.686-.683.877-.335.191-.729.242-1.1.139-.524-.16-2.41-1.606-4.387-3.256h.226c2.113,0,4.363.301,4.928.456.374.103.686.345.877.682s.241.729.139,1.103Z"/>
</svg>
