<?xml version="1.0" encoding="UTF-8"?>
<svg xmlns="http://www.w3.org/2000/svg" id="Layer_1" data-name="Layer 1" viewBox="0 0 24 24">
  <path d="m23.959,22.545l-2.792-2.792c.524-.791.833-1.736.833-2.753,0-2.757-2.243-5-5-5s-5,2.243-5,5,2.243,5,5,5c1.017,0,1.962-.309,2.753-.833l2.792,2.792,1.414-1.414Zm-6.959-2.545c-1.654,0-3-1.346-3-3s1.346-3,3-3,3,1.346,3,3-1.346,3-3,3Zm-8-8h2v2h-2v-2Zm0-7h2v5h-2v-5Zm1.08,11c-.047.327-.08.66-.08,1s.033.673.08,1H3.079c-1.112,0-2.108-.576-2.664-1.541-.556-.965-.553-2.116.007-3.078L7.302,1.53c.558-.958,1.552-1.53,2.66-1.53,1.108,0,2.102.573,2.657,1.531l4.917,8.496c-.178-.013-.355-.027-.536-.027-.577,0-1.135.078-1.672.209l-4.44-7.675c-.393-.68-1.461-.68-1.857,0L2.151,14.386c-.199.342-.2.733-.003,1.076.196.342.536.538.931.538h7.001Z"/>
</svg>
