<?xml version="1.0" encoding="UTF-8"?>
<svg xmlns="http://www.w3.org/2000/svg" id="Layer_1" data-name="Layer 1" viewBox="0 0 24 24">
  <path d="m2.5,2.5c0-1.381,1.119-2.5,2.5-2.5s2.5,1.119,2.5,2.5-1.119,2.5-2.5,2.5-2.5-1.119-2.5-2.5Zm21.5,14.5c0,3.859-3.141,7-7,7s-7-3.141-7-7,3.141-7,7-7,7,3.141,7,7Zm-2,0c0-2.757-2.243-5-5-5s-5,2.243-5,5,2.243,5,5,5,5-2.243,5-5Zm-12-5.651c-1.249,1.545-2,3.51-2,5.651v7h-2v-7h-2v7h-2v-7H0v-8c0-1.654,1.346-3,3-3h4c1.637,0,2.971,1.318,2.999,2.948,0,.017.001,2.401.001,2.401Zm-2-2.349c0-.552-.448-1-1-1H3c-.552,0-1,.448-1,1v6h6v-6Zm11.589,5.692l-3.228,3.175-1.63-1.58-1.393,1.436,1.845,1.788c.314.315.733.489,1.179.489s.865-.174,1.173-.482l3.456-3.399-1.402-1.426Z"/>
</svg>
