<?xml version="1.0" encoding="UTF-8"?>
<svg xmlns="http://www.w3.org/2000/svg" id="Layer_1" data-name="Layer 1" viewBox="0 0 24 24" width="512" height="512"><path d="M16,24H3v-4.71c0-.46-.16-.91-.46-1.26C.67,15.78-.22,12.92,.05,9.98,.5,4.95,4.46,.79,9.45,.11c4.04-.55,7.91,1.06,10.35,4.31,1.18,1.46,2.3,4.02,3.48,6.72l.72,1.65v2.21h-2.33l-.45,3.39c-.2,1.49-1.47,2.61-2.97,2.61h-2.25v3Zm-11-2H14v-3h4.25c.5,0,.93-.37,.99-.87l.68-5.13h1.99l-.46-1.06c-1.08-2.46-2.19-5.01-3.22-6.29-2.02-2.69-5.19-4.01-8.5-3.56-4.08,.56-7.31,3.96-7.69,8.07-.22,2.4,.51,4.74,2.04,6.59,.59,.71,.92,1.62,.92,2.54v2.71Z"/></svg>
