<?xml version="1.0" encoding="UTF-8"?>
<svg xmlns="http://www.w3.org/2000/svg" id="Layer_1" data-name="Layer 1" viewBox="0 0 24 24" width="512" height="512"><path d="M18.5,9.85V3.56L12.99,.41c-.61-.35-1.37-.35-1.98,0L5.5,3.56v6.29L0,12.99v7.45l5.51,3.15c.31,.17,.65,.26,.99,.26s.69-.09,.99-.26l4.51-2.58,4.51,2.58c.31,.17,.65,.26,.99,.26s.69-.09,.99-.26l5.51-3.15v-7.45l-5.5-3.14Zm-1,5.71l-3.48-1.99,3.48-1.99,3.48,1.99-3.48,1.99ZM7.5,5.86l3.5,2v3.98l-3.5-2v-3.98Zm5.5,5.98v-3.98l3.5-2v3.98l-3.5,2Zm-3.02,1.73l-3.48,1.99-3.48-1.99,3.48-1.99,3.48,1.99Zm-2.48,3.72l3.5-2v3.98l-3.5,2v-3.98ZM12,2.15l3.48,1.99-3.48,1.99-3.48-1.99,3.48-1.99ZM2,15.3l3.5,2v3.98l-3.5-2v-3.98Zm11,0l3.5,2v3.98l-3.5-2v-3.98Zm5.5,5.98v-3.98l3.5-2v3.98l-3.5,2Z"/></svg>
