<?xml version="1.0" encoding="UTF-8"?>
<svg xmlns="http://www.w3.org/2000/svg" id="Layer_1" data-name="Layer 1" viewBox="0 0 24 24" width="512" height="512"><path d="M23.52,14.31c-.22-.305-.497-.555-.811-.742l.29-.29c.948-.947,1.098-2.447,.348-3.487-.333-.462-.796-.799-1.321-.975,.112-.679-.028-1.387-.438-1.957-.461-.64-1.172-1.042-1.951-1.105-.666-.053-1.325,.146-1.848,.553-.041-.071-.085-.14-.134-.207-.46-.64-1.171-1.043-1.95-1.105-.78-.061-1.542,.217-2.095,.77l-2.678,2.678c-.256-1.229-1.218-2.218-2.437-2.416-.878-.144-1.769,.103-2.439,.674-.672,.571-1.057,1.404-1.057,2.286v6.015c0,1.869,.728,3.627,2.05,4.95l1.979,1.979c1.38,1.38,3.193,2.07,5.005,2.07s3.625-.69,5.005-2.07l4.132-4.132c.948-.948,1.098-2.447,.348-3.487Zm-1.762,2.073l-4.132,4.132c-1.98,1.98-5.202,1.98-7.183,0l-1.979-1.979c-.944-.945-1.464-2.201-1.464-3.536v-6.015c0-.294,.128-.572,.353-.762,.228-.193,.519-.273,.823-.223,.462,.075,.824,.555,.824,1.092v4.111l6.025-6.025c.137-.137,.329-.209,.52-.191,.114,.009,.328,.058,.488,.281,.18,.25,.119,.646-.139,.903h0s-3.215,3.216-3.215,3.216l1.414,1.414,4.864-4.864c.137-.137,.326-.208,.52-.19,.113,.009,.328,.058,.488,.281,.18,.25,.119,.646-.139,.904l-4.801,4.802,1.414,1.414,4.278-4.278c.137-.137,.324-.208,.52-.19,.113,.009,.328,.058,.488,.281,.18,.25,.119,.646-.139,.904l-4.215,4.215,1.414,1.414,2.105-2.105c.137-.137,.328-.208,.52-.19,.113,.009,.328,.058,.488,.281,.18,.25,.119,.646-.139,.904Zm-14.143,6.96c.219,.219,.447,.424,.683,.618-1.56-.162-3.076-.839-4.268-2.032l-1.979-1.979c-1.322-1.322-2.05-3.08-2.05-4.949v-6.015c0-.881,.385-1.714,1.057-2.286,.671-.572,1.559-.817,2.439-.674,.138,.022,.273,.055,.404,.097-.392,.56-.664,1.196-.8,1.868-.276-.024-.539,.056-.747,.232-.224,.19-.353,.468-.353,.762v6.015c0,1.316,.534,2.604,1.464,3.535l.473,.473c.429,.86,.999,1.655,1.699,2.355l1.979,1.979ZM16,2.5c0-.828,.672-1.5,1.5-1.5s1.5,.672,1.5,1.5-.672,1.5-1.5,1.5-1.5-.672-1.5-1.5ZM5.148,4.883c-.087-.281-.148-.573-.148-.883,0-1.654,1.346-3,3-3,.774,0,1.48,.295,2.013,.777,.111-.999,.96-1.777,1.987-1.777,1.103,0,2,.897,2,2s-.897,2-2,2c-.37,0-.716-.101-1.013-.277,.008,.091,.013,.183,.013,.277,0,.321-.064,.624-.157,.914-.596-.427-1.275-.74-2.024-.861-1.297-.211-2.608,.091-3.671,.83Z"/></svg>
