<?xml version="1.0" encoding="UTF-8"?>
<svg xmlns="http://www.w3.org/2000/svg" id="Layer_1" data-name="Layer 1" viewBox="0 0 24 24">
  <path d="m21.68,3.926c.868-.893,1.82-2.251,1.82-3.926h-2c0,.997-.615,1.87-1.208,2.486-.86-.671-1.872-1.153-2.979-1.36-2.832-.533-5.668.667-7.233,3.049-.41.624-.997,1.011-1.609,1.061-2.248.184-4.363,1.163-5.958,2.758C.728,9.78-.156,12.095.023,14.513c.17,2.282,1.269,4.545,3.094,6.37,2.066,2.067,4.556,3.112,6.969,3.112,2.151,0,4.242-.83,5.919-2.508,1.595-1.595,2.574-3.711,2.758-5.957.05-.612.437-1.199,1.061-1.609,2.382-1.565,3.579-4.404,3.049-7.233-.19-1.014-.609-1.95-1.193-2.761Zm-2.955,8.323c-1.142.751-1.854,1.888-1.955,3.117-.146,1.775-.919,3.447-2.179,4.707-2.785,2.781-6.92,2.535-10.06-.604-1.487-1.487-2.379-3.3-2.514-5.104-.138-1.856.522-3.57,1.909-4.957,1.26-1.26,2.931-2.033,4.707-2.179,1.23-.101,2.366-.813,3.117-1.956.945-1.437,2.54-2.271,4.235-2.271.317,0,.639.029.959.089,1.965.367,3.595,1.997,3.963,3.963.381,2.034-.476,4.072-2.183,5.194Zm-3.725,1.25c0,.828-.672,1.5-1.5,1.5s-1.5-.672-1.5-1.5.672-1.5,1.5-1.5,1.5.672,1.5,1.5Zm-3,4c0,.828-.672,1.5-1.5,1.5s-1.5-.672-1.5-1.5.672-1.5,1.5-1.5,1.5.672,1.5,1.5Z"/>
</svg>
