<?xml version="1.0" encoding="UTF-8"?>
<svg xmlns="http://www.w3.org/2000/svg" id="Layer_1" data-name="Layer 1" viewBox="0 0 24 24" width="512" height="512"><path d="M2.999,2.5c0-1.381,1.119-2.5,2.5-2.5s2.5,1.119,2.5,2.5-1.119,2.5-2.5,2.5-2.5-1.119-2.5-2.5ZM22.628,15.789l-3.603,2.278v5.933h-2v-7.034l1.565-.99-1.216-6.398-1.348,2.275v5.147H8.025v-5.103l-1.379-2.326-1.236,6.389,1.589,1.005v7.034h-2v-5.933l-3.604-2.279C.347,15.126-.19,13.863,.061,12.646l.878-4.253c.287-1.387,1.522-2.394,2.938-2.394h1.267c1.054,0,2.042,.563,2.58,1.47l.907,1.53h6.759l.907-1.53c.538-.906,1.527-1.47,2.581-1.47h1.267c1.417,0,2.652,1.007,2.938,2.394l.878,4.253c.251,1.217-.285,2.479-1.335,3.143Zm-19.022-.969l1.308-6.82h-1.036c-.472,0-.884,.336-.979,.798l-.878,4.253c-.084,.406,.094,.826,.444,1.047l1.142,.722Zm10.419-3.82h-4v4h4v-4Zm7.979,2.051l-.878-4.253c-.095-.462-.507-.798-.979-.798h-1.038l1.287,6.835,1.165-.737c.35-.222,.529-.643,.445-1.048Zm-3.479-8.051c1.381,0,2.5-1.119,2.5-2.5s-1.119-2.5-2.5-2.5-2.5,1.119-2.5,2.5,1.119,2.5,2.5,2.5ZM.025,24H2.078l1.04-4.756-1.8-1.138L.025,24Zm20.881-4.756l1.04,4.756h2.053l-1.293-5.895-1.8,1.138Z"/></svg>
