<?xml version="1.0" encoding="UTF-8"?>
<svg xmlns="http://www.w3.org/2000/svg" id="Layer_1" data-name="Layer 1" viewBox="0 0 24 24">
  <path d="m23.121,6.846c1.17-1.169,1.17-3.073,0-4.243l-1.725-1.725c-1.134-1.135-3.112-1.132-4.242,0l-3.931,3.931L8.5.086,2.274,6.311l4.724,4.724-.056.056c-.359-.055-.722-.091-1.092-.091-1.91,0-3.706.744-5.057,2.094l-.707.707,4.349,4.349-1.642,1.642,1.414,1.414,1.642-1.642,4.349,4.349.707-.707c1.351-1.351,2.095-3.146,2.095-5.056,0-.37-.036-.733-.091-1.092l.057-.057,4.723,4.723,6.226-6.225-4.723-4.723,3.93-3.931Zm-4.552-4.554c.377-.376,1.034-.378,1.413,0l1.725,1.725c.39.39.39,1.024,0,1.415l-9.483,9.484c-.338-.664-.777-1.28-1.319-1.821s-1.157-.981-1.82-1.318L18.569,2.292ZM5.103,6.311l3.397-3.397,3.309,3.309-3.397,3.397-3.31-3.31Zm5.027,14.707l-7.147-7.148c.841-.566,1.831-.87,2.867-.87,1.376,0,2.669.536,3.642,1.508.973.973,1.509,2.267,1.509,3.643,0,1.036-.304,2.026-.87,2.867Zm10.956-5.518l-3.397,3.397-3.309-3.309,3.397-3.397,3.309,3.309Z"/>
</svg>
