<?xml version="1.0" encoding="UTF-8"?>
<svg xmlns="http://www.w3.org/2000/svg" id="Layer_1" data-name="Layer 1" viewBox="0 0 24 24">
  <path d="m21,13c1.654,0,3-1.346,3-3v-5.553h-.004c-.035-.717-.327-1.424-.875-1.972-1.172-1.172-4.596-2.475-4.596-2.475,0,0,.825,1.532,1.114,3.235-1.703-.289-3.235-1.114-3.235-1.114,0,0,1.303,3.425,2.475,4.596.844.844,2.066,1.08,3.122.708v2.575c0,.552-.449,1-1,1h-1.256c-.585-1.977-2.172-3.227-4.744-3.737v-1.263h-2v1.025c-.322-.017-.656-.025-1-.025s-.678.009-1,.025v-1.025h-2v1.263c-2.573.51-4.16,1.76-4.744,3.737h-1.256c-.551,0-1-.448-1-1v-2.575c1.055.372,2.277.136,3.121-.708,1.172-1.172,2.475-4.596,2.475-4.596,0,0-1.532.825-3.235,1.114.289-1.703,1.114-3.235,1.114-3.235,0,0-3.425,1.303-4.596,2.475C.331,3.023.039,3.73.004,4.447h-.004v5.553c0,1.654,1.346,3,3,3h1.002c.026.841.412,1.918.927,3h-1.843l-2.293,2.293,1.414,1.414,1.707-1.707h2.093c.535.902,1.058,1.687,1.398,2.18l-2.372,2.372,1.414,1.414,2.967-2.967h5.172l2.966,2.967,1.414-1.414-2.354-2.355c.357-.472.926-1.261,1.498-2.198h1.976l1.707,1.707,1.414-1.414-2.293-2.293h-1.732c.462-1.016.796-2.066.817-3h1.002Zm-9-4c5.287,0,6,1.977,6,3.909,0,1.745-1.908,4.65-2.959,6.05l-.041.041h-5.979c-1.276-1.86-3.021-4.836-3.021-6.091,0-1.933.713-3.909,6-3.909Z"/>
</svg>
