<?xml version="1.0" encoding="UTF-8"?>
<svg xmlns="http://www.w3.org/2000/svg" id="Layer_1" data-name="Layer 1" viewBox="0 0 24 24">
  <path d="m20.571,19.156c2.337-3.879,1.773-8.954-1.508-12.236L12,.014l-5.345,5.227L1.457.043.043,1.457l22.5,22.5,1.414-1.414-3.386-3.386ZM12,2.811l5.657,5.532c2.498,2.499,3.024,6.306,1.445,9.345L8.069,6.655l3.93-3.844Zm4.426,17.857l1.436,1.436c-1.695,1.231-3.727,1.896-5.861,1.896-2.671,0-5.182-1.04-7.071-2.929-3.518-3.518-3.862-9.025-1.032-12.932l1.436,1.436c-2.062,3.101-1.727,7.345,1.01,10.082,1.511,1.511,3.521,2.343,5.657,2.343,1.598,0,3.125-.466,4.425-1.332Z"/>
</svg>
