<?xml version="1.0" encoding="UTF-8"?>
<svg xmlns="http://www.w3.org/2000/svg" id="Layer_1" data-name="Layer 1" viewBox="0 0 24 24">
  <path d="m21.232,14.107c-.048.747-.56,1.389-1.298,1.578l-.937.24s.253,1.205.253,1.324c0,.965-.785,1.75-1.75,1.75,0,0,0,0,0,0-.298,0-.592-.083-.873-.247l-.867-.505-.501.869c-.32.553-.883.883-1.507.883-.519,0-1.011-.238-1.349-.655l-.775-.954-.776.954c-.339.416-.831.655-1.349.655-.624,0-1.188-.33-1.507-.884l-.502-.867-.867.504c-.282.164-.576.247-.874.247-.965,0-1.75-.785-1.75-1.75,0-.119.015-.243.045-.38l.208-.944-.937-.24c-.775-.199-1.317-.892-1.317-1.686s.542-1.487,1.317-1.687l.937-.24-.209-.945c-.03-.136-.045-.26-.045-.379,0-.965.785-1.75,1.75-1.75.299,0,.592.083.874.247l.867.506.502-.869c.32-.553.883-.883,1.507-.883.519,0,1.01.239,1.349.655l.776.955.775-.955c.167-.206.372-.367.599-.479v1.093c0,2.301,1.724,3.73,4.5,3.73s4.5-1.429,4.5-3.73v-3.77c0-.124-.027-.24-.036-.361.974-.3,1.775-1.078,2.036-2.14,0,0-1.414-.403-3.341-.697-.813-.803-1.928-1.302-3.159-1.302s-2.346.498-3.159,1.301c-1.927.294-3.341.697-3.341.697.262,1.062,1.062,1.84,2.037,2.14-.01.121-.036.237-.036.361v.586c-.493.102-.961.295-1.375.585-.62-.434-1.357-.671-2.125-.671-1.023,0-1.996.429-2.695,1.158-.345-.104-.7-.158-1.055-.158-2.048,0-3.719,1.651-3.75,3.692-1.21.637-2,1.898-2,3.309s.791,2.671,2,3.308c.027,1.785,1.308,3.272,3,3.617v3.076h4v-2.052c.166.023.33.052.5.052.768,0,1.505-.237,2.125-.671.62.434,1.356.671,2.125.671.433,0,.852-.092,1.25-.236v2.236h4v-3.32c1.305-.573,2.227-1.864,2.249-3.373,1.21-.636,2-1.897,2-3.308,0-.496-.103-.972-.282-1.41-.45.614-1.036,1.125-1.736,1.518Zm-6.232-8.607c0-1.378,1.122-2.5,2.5-2.5s2.5,1.122,2.5,2.5v3.769c0,1.148-.841,1.731-2.5,1.731s-2.5-.583-2.5-1.731v-3.769Z"/>
</svg>
