<?xml version="1.0" encoding="UTF-8"?>
<svg xmlns="http://www.w3.org/2000/svg" id="Layer_1" data-name="Layer 1" viewBox="0 0 24 24" width="512" height="512"><path d="M12,23.994l-7.063-6.908c-1.897-1.896-2.937-4.408-2.937-7.079s1.04-5.182,2.929-7.071C6.818,1.046,9.329,.006,12,.006s5.182,1.041,7.07,2.929h0c1.889,1.889,2.929,4.4,2.929,7.071s-1.04,5.183-2.929,7.071l-7.071,6.916Zm0-21.987c-2.137,0-4.146,.832-5.657,2.343s-2.343,3.52-2.343,5.657,.832,4.146,2.343,5.657l5.657,5.532,5.665-5.54c1.503-1.503,2.335-3.513,2.335-5.649s-.832-4.146-2.343-5.657h0c-1.511-1.511-3.52-2.343-5.656-2.343Zm4.706,10.044l-1.414-1.414c-.879,.879-2.049,1.364-3.292,1.364s-2.414-.484-3.293-1.364l-1.414,1.414c1.258,1.257,2.93,1.95,4.708,1.95s3.449-.692,4.707-1.95Zm-7.207-6.05c-.828,0-1.5,.672-1.5,1.5s.672,1.5,1.5,1.5,1.5-.672,1.5-1.5-.672-1.5-1.5-1.5Zm5,0c-.828,0-1.5,.672-1.5,1.5s.672,1.5,1.5,1.5,1.5-.672,1.5-1.5-.672-1.5-1.5-1.5Z"/></svg>
