<?xml version="1.0" encoding="UTF-8"?>
<svg xmlns="http://www.w3.org/2000/svg" id="Layer_1" data-name="Layer 1" viewBox="0 0 24 24" width="512" height="512"><path d="M24,5.424c0-1.301-.621-2.514-1.662-3.246-1.414-.993-3.662-2.178-6.338-2.178H8C5.324,0,3.076,1.185,1.662,2.178c-1.041,.732-1.662,1.945-1.662,3.246v15.576H4v3H20v-3h4V5.424ZM14.29,2l-2.265,4.028-2.302-4.028h4.567ZM2,19V5.424c0-.65,.304-1.252,.812-1.609,1.073-.754,2.709-1.64,4.62-1.792l3.45,6.037-3.904,6.941h-.978V6h-2v13H2Zm4,3v-5h3.968c-.509,.834-.968,1.892-.968,3h2c0-.829,.51-1.756,1-2.439,.49,.683,1,1.609,1,2.439h2c0-1.108-.459-2.166-.968-3h3.968v5H6Zm16-3h-2V6h-2V15H9.272L16.572,2.023c1.909,.152,3.543,1.037,4.615,1.791,.509,.357,.813,.959,.813,1.609v13.576Z"/></svg>
