<?xml version="1.0" encoding="UTF-8"?>
<svg xmlns="http://www.w3.org/2000/svg" id="Layer_1" data-name="Layer 1" viewBox="0 0 24 24">
  <path d="m18.5,10.5c0,.496-.404.9-.9.9h-.5v-1.8h.5c.496,0,.9.404.9.9Zm4.456,4.021l-8.436,8.435c-.683.683-1.602,1.024-2.521,1.024s-1.837-.341-2.52-1.022L1.044,14.521c-1.39-1.39-1.39-3.651,0-5.041L9.479,1.044c1.345-1.343,3.696-1.343,5.04-.001l8.437,8.437c1.39,1.39,1.39,3.651,0,5.041ZM7.352,6h9.297l-3.542-3.542c-.588-.587-1.625-.588-2.213,0l-3.542,3.542Zm5.148,2v8h1.6v-8h-1.6Zm-5.894,7.36l1.164-2.56,1.164,2.56c.181.398.499.64.841.64.516,0,.945-.295.988-1l.508-7h-1.604l-.319,4.402-1.577-3.469-1.577,3.468-.319-4.402h-1.604l.508,7c.043.705.472,1,.988,1,.342,0,.66-.242.841-.64Zm10.043,2.64H7.351l3.542,3.542c.578.577,1.633.579,2.213,0l3.542-3.542Zm3.451-7.5c0-1.381-1.119-2.5-2.5-2.5h-2.1v8h1.6v-3h.5c1.381,0,2.5-1.119,2.5-2.5Z"/>
</svg>
