<?xml version="1.0" encoding="UTF-8"?>
<svg xmlns="http://www.w3.org/2000/svg" id="Layer_1" data-name="Layer 1" viewBox="0 0 24 24" width="512" height="512"><path d="M12,14c3.108,0,5.563,2.162,5.667,2.254l-1.333,1.492c-.018-.016-2.002-1.746-4.333-1.746s-4.316,1.73-4.336,1.747l-1.33-1.493c.103-.092,2.559-2.254,5.666-2.254Zm2.724-4.784c-.434,.263-.724,.739-.724,1.284,0,.828,.672,1.5,1.5,1.5s1.5-.672,1.5-1.5c0-.154-.023-.304-.067-.444l1.669-1.257-1.204-1.598-2.674,2.015Zm8.026-2.546c.8,1.607,1.25,3.416,1.25,5.329,0,6.617-5.383,12-12,12S0,18.617,0,12c0-1.914,.451-3.723,1.251-5.33L0,0,4.989,2.267C6.962,.842,9.385,0,12,0s5.038,.842,7.012,2.268L24,0l-1.251,6.671Zm-.75,5.329c0-5.514-4.486-10-10-10S2,6.486,2,12s4.486,10,10,10,10-4.486,10-10Zm-15-1.5c0,.828,.672,1.5,1.5,1.5s1.5-.672,1.5-1.5c0-.545-.291-1.022-.726-1.285l-2.673-2.014-1.203,1.598,1.669,1.257c-.043,.14-.067,.289-.067,.444Z"/></svg>
