<?xml version="1.0" encoding="UTF-8"?>
<svg xmlns="http://www.w3.org/2000/svg" id="Layer_1" data-name="Layer 1" viewBox="0 0 24 24">
  <path d="m6,15v-4.972c-1.421.134-3,.594-3,1.972,0,.306.218.726.429,1.132.281.542.571,1.102.571,1.743,0,.849-.513,1.476-1.009,2.083-.51.624-.991,1.212-.991,2.042,0,1.491,1.717,3,5,3,.397,0,.772-.022,1.123-.064.165.724.489,1.353.929,1.887-.622.115-1.305.177-2.052.177-4.81,0-7-2.592-7-5,0-1.544.834-2.564,1.443-3.309.208-.253.555-.678.557-.816,0-.153-.201-.54-.347-.822-.291-.561-.653-1.26-.653-2.053,0-1.123.514-3.628,5-3.979v-3.092l-1-1.4V0h4v3.5l-1,1.414v3.097c.37.026.713.066,1.031.118.042.763.124,1.456.226,2.083-.363-.095-.782-.161-1.257-.198v4.985h-2Zm9,5h4v-2h-4v2Zm9,.818c0,2.517-2.795,3.182-4.273,3.182h-5.454c-1.478,0-4.273-.665-4.273-3.182,0-1.724.738-2.918,1.332-3.878.475-.769.85-1.376.85-2.122,0-.816-.203-1.625-.438-2.561-.326-1.296-.73-3.02-.743-5.257h2c0-.008,0-.017,0,0,.009.333.105,1.889,1.094,2.899.481.491,1.119.819,1.906.981v-4.88c-.919-.065-2-1-2-1.5,0-1.5,2-4.5,2-4.5h2v10.95c2.963-.416,3-3.317,3-3.45h2c0,2.312-.416,3.793-.75,4.983-.241.857-.431,1.534-.431,2.335,0,.746.375,1.353.85,2.122.593.959,1.332,2.154,1.332,3.878Zm-2,0c0-1.156-.501-1.967-1.033-2.827-.539-.872-1.149-1.859-1.149-3.173,0-.935.185-1.718.404-2.514-.79.43-1.769.695-2.965.695-1.358,0-2.521-.28-3.477-.834.217.877.4,1.728.4,2.652,0,1.314-.61,2.302-1.149,3.173-.531.859-1.033,1.671-1.033,2.827,0,1.131,2.25,1.182,2.273,1.182h5.454c.02,0,2.273-.045,2.273-1.182Z"/>
</svg>
