<?xml version="1.0" encoding="UTF-8"?>
<svg xmlns="http://www.w3.org/2000/svg" id="Layer_1" data-name="Layer 1" viewBox="0 0 24 24" width="512" height="512"><path d="m24.004,5.007v2H3.002v-2h21.001Zm-.017-2.501l-.096-1.998L2.955,1.508l.096,1.998,20.937-1Zm-.69,8.572c.568.672.81,1.553.664,2.415-.778,4.601-3.866,8.689-7.733,10.515H7.778C3.911,22.182.823,18.094.045,13.493c-.146-.862.096-1.743.664-2.415.575-.681,1.415-1.07,2.304-1.07h17.981c.889,0,1.729.391,2.304,1.07Zm-1.528,1.291c-.194-.229-.477-.361-.776-.361H3.012c-.299,0-.582.132-.776.361-.11.13-.285.405-.22.79.647,3.826,3.076,7.273,6.216,8.849h7.541c3.14-1.574,5.568-5.021,6.216-8.849.065-.384-.11-.66-.22-.79Z"/></svg>
