<?xml version="1.0" encoding="UTF-8"?>
<svg xmlns="http://www.w3.org/2000/svg" id="Layer_1" data-name="Layer 1" viewBox="0 0 24 24">
  <path d="m23.992,12s0,0,0,0h0c0,12-13.412,12-19.857,12C1.85,24-.008,22.142-.008,19.857c0-.819.239-1.611.69-2.291.122-.184.343-.437,1.691-1.511,1.183-.942,1.809-2.345,1.809-4.056,0-5.016,3.751-9.162,8.593-9.807.217.419.519,1.086.774,1.93-4.108.279-7.366,3.7-7.366,7.877,0,2.342-.886,4.285-2.562,5.621-1.071.853-1.28,1.072-1.312,1.107-.193.297-.316.706-.316,1.13,0,1.182.961,2.143,2.143,2.143,9.274,0,17.857-1.211,17.857-10h0s0,0,0,0c0-1.009-.197-1.97-.543-2.858.592-.27,1.174-.625,1.721-1.081.526,1.208.822,2.539.822,3.939Zm-7.992-4.96c0-2.816-1.095-5.127-1.565-5.99l1.756-.958c.303.556.695,1.386,1.039,2.406.169-.244.358-.48.577-.698C19.775-.171,22.933.04,23.066.051l.859.063.063.859c.01.133.221,3.291-1.749,5.259-1.666,1.667-4.224,1.807-5.038,1.807-.144,0-1.148-.055-1.148-.055l-.055-.945Zm2.057-1.055c.827-.102,1.989-.386,2.77-1.166.78-.78,1.046-1.928,1.133-2.739-.811.087-1.959.354-2.739,1.133s-1.062,1.942-1.164,2.771Zm.435,5.024c-.828,0-1.5.672-1.5,1.5s.672,1.5,1.5,1.5,1.5-.672,1.5-1.5-.672-1.5-1.5-1.5Zm-3,4c-.828,0-1.5.672-1.5,1.5s.672,1.5,1.5,1.5,1.5-.672,1.5-1.5-.672-1.5-1.5-1.5Z"/>
</svg>
