<?xml version="1.0" encoding="UTF-8"?>
<svg xmlns="http://www.w3.org/2000/svg" id="Layer_1" data-name="Layer 1" viewBox="0 0 24 24">
  <path d="m20,22.5c0,.828-.672,1.5-1.5,1.5s-1.5-.672-1.5-1.5.672-1.5,1.5-1.5,1.5.672,1.5,1.5Zm-15.5-1.5c-.828,0-1.5.672-1.5,1.5s.672,1.5,1.5,1.5,1.5-.672,1.5-1.5-.672-1.5-1.5-1.5Zm10.428-2.931c.299-.566.231-1.275-.246-1.751-.477-.477-1.185-.545-1.751-.246-.185-.619-.752-1.073-1.431-1.073s-1.246.454-1.431,1.073c-.566-.299-1.274-.231-1.751.246-.477.476-.545,1.185-.246,1.751-.619.185-1.072.752-1.072,1.431s.454,1.246,1.072,1.431c-.299.566-.231,1.275.246,1.751.293.293.677.439,1.061.439.241,0,.472-.078.69-.194.185.619.752,1.073,1.431,1.073s1.246-.454,1.431-1.073c.218.115.45.194.69.194.384,0,.768-.146,1.061-.439.477-.476.545-1.185.246-1.751.619-.185,1.072-.752,1.072-1.431s-.454-1.246-1.072-1.431Zm2.513-13.011c-1.194-3.011-4.16-5.059-7.441-5.059C5.589,0,2,3.589,2,8c0,.697.089,1.384.265,2.05-1.415,1.025-2.265,2.664-2.265,4.45,0,2.513,1.694,4.638,4,5.292v-2.13c-1.181-.563-2-1.769-2-3.162,0-1.322.732-2.518,1.911-3.12l.799-.408-.319-.838c-.259-.681-.391-1.398-.391-2.134,0-3.309,2.691-6,6-6,2.637,0,5.002,1.764,5.752,4.289l.206.692.721.023c2.983.095,5.321,2.509,5.321,5.497,0,2.13-1.224,3.972-3,4.885v2.18c2.909-1.033,5-3.806,5-7.065,0-3.837-2.829-6.982-6.559-7.441Z"/>
</svg>
