<?xml version="1.0" encoding="UTF-8"?>
<svg xmlns="http://www.w3.org/2000/svg" id="Layer_1" data-name="Layer 1" viewBox="0 0 24 24">
  <path d="m6.5,0C2.916,0,0,2.916,0,6.5s2.916,6.5,6.5,6.5,6.5-2.916,6.5-6.5S10.084,0,6.5,0Zm0,11c-2.481,0-4.5-2.019-4.5-4.5S4.019,2,6.5,2s4.5,2.019,4.5,4.5-2.019,4.5-4.5,4.5Zm5.5,13h12v-12h-12v12Zm2-10h8v8h-8v-8Zm-5.581,4.594c.774.775.774,2.037,0,2.812l-2.508,2.507-1.414-1.414,1.499-1.498h-2.997c-1.654,0-3-1.346-3-3v-4h2v4c0,.552.448,1,1,1h3.006l-1.508-1.498,1.414-1.414,2.507,2.506Zm15.581-12.594v4h-2v-4c0-.552-.448-1-1-1h-3.006l1.508,1.498-1.414,1.414-2.507-2.506c-.774-.775-.774-2.037,0-2.812L18.088.088l1.414,1.414-1.499,1.498h2.997c1.654,0,3,1.346,3,3Z"/>
</svg>
