<?xml version="1.0" encoding="UTF-8"?>
<svg xmlns="http://www.w3.org/2000/svg" id="Layer_1" data-name="Layer 1" viewBox="0 0 24 24" width="512" height="512"><path d="m21,0H3C1.346,0,0,1.346,0,3v21h24V3c0-1.654-1.346-3-3-3Zm1,22H2V3c0-.551.449-1,1-1h18c.551,0,1,.449,1,1v19Zm-6.669-10.787c.422-.634.669-1.395.669-2.212,0-2.206-1.794-4-4-4h-4c-1.103,0-2,.897-2,2v10c0,1.103.897,2,2,2h6.044c2.181,0,3.956-1.773,3.956-4.029,0-1.062-.41-2.06-1.155-2.808-.433-.435-.95-.756-1.514-.95Zm-7.331-4.213h4c1.103,0,2,.897,2,2s-.897,2-2,2h-4v-4.001Zm6.044,10.001h-6.044v-4h6.048c.521,0,1.011.203,1.379.573.369.371.573.867.573,1.472,0,1.078-.877,1.955-1.956,1.955Z"/></svg>
