<?xml version="1.0" encoding="UTF-8"?>
<svg xmlns="http://www.w3.org/2000/svg" id="Layer_1" data-name="Layer 1" viewBox="0 0 24 24" width="512" height="512"><path d="m15,13.5c0,.828-.672,1.5-1.5,1.5s-1.5-.672-1.5-1.5.672-1.5,1.5-1.5,1.5.672,1.5,1.5Zm-7.5-.5c-.828,0-1.5.672-1.5,1.5s.672,1.5,1.5,1.5,1.5-.672,1.5-1.5-.672-1.5-1.5-1.5Zm14.425-3c-.086.585-.245,1.152-.473,1.69l1.856,1.13-1.04,1.708-1.854-1.129c-.143.173-.295.341-.456.502l-.779.779,1.488,1.488-1.414,1.414-1.488-1.488-1.672,1.672,1.488,1.488-1.414,1.414-1.488-1.488-.779.779c-.161.161-.329.313-.502.455l1.129,1.854-1.708,1.04-1.132-1.859c-.544.229-1.112.387-1.688.472v2.079h-2v-2.071c-.573-.08-1.138-.231-1.681-.453l-1.053,1.774-1.72-1.021,1.051-1.771c-.192-.155-.378-.321-.556-.5-.237-.237-.453-.487-.649-.748l-1.807.989-.961-1.754,1.811-.992c-.175-.473-.296-.96-.365-1.454H0v-2h2.08c.084-.57.239-1.131.464-1.669l-1.792-1.091,1.04-1.708,1.782,1.085c.146-.178.302-.351.468-.517l.779-.779-1.422-1.422,1.414-1.414,1.422,1.422,1.672-1.672-1.422-1.422,1.414-1.414,1.422,1.422.779-.779c.166-.166.339-.322.517-.468l-1.085-1.782,1.708-1.04,1.091,1.792c.538-.225,1.099-.38,1.669-.464V0h2v2.072c.494.069.982.191,1.454.365l.992-1.811,1.754.961-.99,1.807c.261.196.511.411.748.648h0c.178.178.344.364.5.556l1.772-1.051,1.021,1.72-1.771,1.051c.221.536.373,1.101.454,1.682h2.067v2h-2.075Zm-1.925-1.028c0-1.328-.517-2.576-1.456-3.515-.969-.969-2.242-1.454-3.515-1.454s-2.546.484-3.515,1.453l-6.058,6.058c-1.938,1.938-1.938,5.092,0,7.03,1.939,1.938,5.093,1.938,7.031,0l6.057-6.058c.939-.939,1.456-2.188,1.456-3.515Zm-5.5-2.971c-.828,0-1.5.672-1.5,1.5s.672,1.5,1.5,1.5,1.5-.672,1.5-1.5-.672-1.5-1.5-1.5Z"/></svg>
