<?xml version="1.0" encoding="UTF-8"?>
<svg xmlns="http://www.w3.org/2000/svg" id="Layer_1" data-name="Layer 1" viewBox="0 0 24 24">
  <path d="m11,10.5v3c0,1.381,1.119,2.5,2.5,2.5s2.5-1.119,2.5-2.5v-3c0-1.381-1.119-2.5-2.5-2.5s-2.5,1.119-2.5,2.5Zm3.4,0v3c0,.496-.404.9-.9.9s-.9-.404-.9-.9v-3c0-.496.404-.9.9-.9s.9.404.9.9Zm9.6,4.231c0,.69-.56,1.25-1.25,1.25s-1.25-.56-1.25-1.25.56-1.25,1.25-1.25,1.25.56,1.25,1.25Zm-5.75-4.25c-.69,0-1.25-.56-1.25-1.25s.56-1.25,1.25-1.25,1.25.56,1.25,1.25-.56,1.25-1.25,1.25Zm-1.383,5.5l5.222-8h1.911l-5.222,8h-1.911Zm-8.467-2.481c0-.496-.404-.9-.901-.9h-.262c-.014,0-.026.004-.04.004h-1.198v-1.604h1.217c.378-.011.683-.318.683-.698,0-.387-.315-.702-.702-.702h-2.198v-1.6h2.198c1.27,0,2.302,1.033,2.302,2.302,0,.479-.148.924-.4,1.293.545.459.9,1.137.9,1.904,0,1.379-1.122,2.5-2.501,2.5h-2.499v-1.6h2.499c.497,0,.901-.404.901-.9Zm11.567,4.519h2.398c-2.082,3.57-5.943,5.981-10.365,5.981,0,0,0,0-.001,0-6.617,0-11.999-5.384-11.999-12S5.383,0,12,0h0c4.438,0,8.312,2.428,10.388,6.019h-2.393c-1.826-2.434-4.725-4.019-7.995-4.019,0,0,0,0,0,0-5.513,0-9.999,4.486-9.999,10s4.486,10,10,10h0c3.253,0,6.139-1.568,7.967-3.981Z"/>
</svg>
