<?xml version="1.0" encoding="UTF-8"?>
<svg xmlns="http://www.w3.org/2000/svg" id="Layer_1" data-name="Layer 1" viewBox="0 0 24 24" width="512" height="512"><path d="M12,0C5.383,0,0,5.383,0,12s5.383,12,12,12h12V12C24,5.383,18.617,0,12,0Zm10,22H12c-5.514,0-10-4.486-10-10S6.486,2,12,2s10,4.486,10,10v10Zm-3.582-11.406c.775,.775,.775,2.037,0,2.812l-3.298,3.298-1.414-1.414,3.298-3.298-3.298-3.283,1.414-1.414,3.298,3.298Zm-8.124-1.884l-3.298,3.298,3.298,3.283-1.414,1.414-3.298-3.298c-.775-.775-.775-2.037,0-2.812l3.298-3.298,1.414,1.414Z"/></svg>
