<?xml version="1.0" encoding="UTF-8"?>
<svg xmlns="http://www.w3.org/2000/svg" id="Layer_1" data-name="Layer 1" viewBox="0 0 24 24">
  <path d="m24,7.5V0l-3.287,2.465c-.678-.299-1.426-.465-2.213-.465s-1.535.167-2.213.465l-3.287-2.465v7.5c0,.884.21,1.72.582,2.461-8.153,2.585-8.577,10.402-8.585,11.818-1.53-.428-2.997-1.488-2.997-3.279,0-1.565.718-2.724,1.479-3.949.748-1.207,1.521-2.454,1.521-4.051,0-1.681-.649-4.5-5-4.5v2c2.637,0,3,1.202,3,2.5,0,1.027-.566,1.94-1.221,2.996-.834,1.345-1.779,2.869-1.779,5.004,0,3.442,3.334,5.5,6.558,5.5h17.442v-2h-2v-10.26c1.221-1.01,2-2.535,2-4.24Zm-5.5-3.5c1.93,0,3.5,1.57,3.5,3.5s-1.57,3.5-3.5,3.5-3.5-1.57-3.5-3.5,1.57-3.5,3.5-3.5Zm1.5,18h-2c0-3.309-2.691-6-6-6v2c2.206,0,4,1.794,4,4H6.999v-.05c-.016-.343-.29-8.175,7.908-10.289.965.834,2.221,1.339,3.593,1.339.52,0,1.023-.073,1.5-.208v9.208Z"/>
</svg>
