<?xml version="1.0" encoding="UTF-8"?>
<svg xmlns="http://www.w3.org/2000/svg" id="Layer_1" data-name="Layer 1" viewBox="0 0 24 24">
  <path d="m24,19c0,1.336-.521,2.591-1.465,3.535s-2.2,1.465-3.535,1.465-2.592-.521-3.536-1.465-1.464-2.199-1.464-3.535.521-2.592,1.465-3.535l3.535-3.458,3.527,3.45c.952.951,1.473,2.207,1.473,3.543Zm-2,0c0-.802-.313-1.555-.879-2.121l-2.121-2.075-2.129,2.083c-.559.559-.871,1.312-.871,2.113s.312,1.555.879,2.121c1.132,1.134,3.108,1.134,4.242,0,.566-.566.879-1.319.879-2.121Zm-10-7v10H0V3C0,1.346,1.346,0,3,0h16c1.654,0,3,1.346,3,3v9.144l-2-1.956V3c0-.552-.448-1-1-1h-2v9.165l-.853.835h-4.147Zm0-10v8h3V2h-3Zm-2,0h-3v8h3V2ZM2,3v7h3V2h-2c-.552,0-1,.448-1,1Zm0,17h3v-8h-3v8Zm8-8h-3v8h3v-8Z"/>
</svg>
