<?xml version="1.0" encoding="UTF-8"?>
<svg xmlns="http://www.w3.org/2000/svg" id="Layer_1" data-name="Layer 1" viewBox="0 0 24 24" width="512" height="512"><path d="M11,4H3c-1.654,0-3,1.346-3,3V24H20V13H11V4ZM2,7c0-.552,.449-1,1-1h6v7h-2.285c.178-.587,.285-1.172,.285-1.5,0-.828-.672-1.5-1.5-1.5s-1.5,.672-1.5,1.5c0,.328,.106,.913,.285,1.5H2V7Zm7,15H2v-7h7v2.285c-.587-.178-1.172-.285-1.5-.285-.828,0-1.5,.672-1.5,1.5s.672,1.5,1.5,1.5c.328,0,.913-.106,1.5-.285v2.285Zm4.285-7c-.178,.587-.285,1.172-.285,1.5,0,.828,.672,1.5,1.5,1.5s1.5-.672,1.5-1.5c0-.328-.106-.913-.285-1.5h2.285v7h-7v-7h2.285Zm10.715-6h-3.285c.178,.587,.285,1.172,.285,1.5,0,.828-.672,1.5-1.5,1.5s-1.5-.672-1.5-1.5c0-.328,.106-.913,.285-1.5h-3.285v-3.285c.587,.178,1.172,.285,1.5,.285,.828,0,1.5-.672,1.5-1.5s-.672-1.5-1.5-1.5c-.328,0-.913,.106-1.5,.285V0h6c1.657,0,3,1.343,3,3v6Z"/></svg>
