<?xml version="1.0" encoding="UTF-8"?>
<svg xmlns="http://www.w3.org/2000/svg" id="Layer_1" data-name="Layer 1" viewBox="0 0 24 24">
  <path d="m12,13c-2.67,0-3.963,2.224-4.334,3,.369.775,1.662,3,4.334,3s3.963-2.223,4.334-3c-.371-.777-1.664-3-4.334-3Zm0,4.5c-.828,0-1.5-.672-1.5-1.5s.672-1.5,1.5-1.5,1.5.672,1.5,1.5-.672,1.5-1.5,1.5Zm7-8.431v-3.955c0-1.525-1.081-2.847-2.514-3.075-.546-.088-1.095-.007-1.598.194-.341-1.282-1.501-2.234-2.888-2.234s-2.548.952-2.889,2.234c-.255-.107-.522-.191-.806-.219-.848-.081-1.691.193-2.318.76-.627.568-.987,1.379-.987,2.225v4.069c-2.408.335-4.296,2.05-5,3.458v1.473h1c2.823,0,2.994,2.504,3,3,0,4.448,2.369,7,6.5,7h3c4.131,0,6.5-2.552,6.5-6.994.006-.502.177-3.006,3-3.006h1v-1.473c-.704-1.408-2.592-3.123-5-3.458Zm-1,7.931c0,3.364-1.472,5-4.5,5h-3c-3.028,0-4.5-1.636-4.5-5,0-1.453-.738-3.994-3.32-4.77.728-.65,1.861-1.23,3.32-1.23h1v-6c0-.286.117-.55.329-.742.212-.191.478-.284.777-.253.492.049.894.547.894,1.108v5.886h2V3c0-.551.448-1,1-1s1,.449,1,1v8h2v-6c0-.293.128-.571.352-.761.227-.193.519-.273.82-.225.465.074.828.557.828,1.1v5.886h1c1.459,0,2.593.581,3.32,1.23-2.582.775-3.32,3.316-3.32,4.77Z"/>
</svg>
