<?xml version="1.0" encoding="UTF-8"?>
<svg xmlns="http://www.w3.org/2000/svg" id="Layer_1" data-name="Layer 1" viewBox="0 0 24 24">
  <path d="m21.25,8h-1.25v-1.25c0-1.517-1.233-2.75-2.75-2.75h-1.25v-1c0-1.654-1.346-3-3-3H3C1.346,0,0,1.346,0,3v13h4v4h4v4h16v-13.25c0-1.517-1.233-2.75-2.75-2.75Zm-19.25,1.289l4.25-4.25,1.648,1.648-5.898,5.898v-3.297Zm12-2.578l-4.469,4.469-1.648-1.648,6.117-6.117v3.297Zm-4.688-1.438l-1.648-1.648,1.625-1.625h3.297l-3.273,3.273Zm-2.844,5.672l1.648,1.648-1.406,1.406h-3.297l3.055-3.055Zm7.531-1.406v4.461h-4.461l4.461-4.461ZM3,2h3.461L2,6.461v-3.461c0-.551.448-1,1-1Zm3,14h10V6h1.25c.413,0,.75.336.75.75v11.25H6v-2Zm16,6h-12v-2h10v-10h1.25c.413,0,.75.336.75.75v11.25Z"/>
</svg>
