<?xml version="1.0" encoding="UTF-8"?>
<svg xmlns="http://www.w3.org/2000/svg" id="Layer_1" data-name="Layer 1" viewBox="0 0 24 24" width="512" height="512"><path d="m2.876,7.118l13.189,13.189c-.715.254-1.489.441-2.314.559L1.602,8.718c.361-.517.781-1.06,1.274-1.6ZM.179,11.181c-.237.521-.237,1.118,0,1.64.041.091.094.199.147.308l6.911,6.911c1.107.476,2.361.8,3.766.908L.529,10.473c-.143.272-.261.514-.35.708Zm19.51,7.065l4.292,4.292-1.414,1.414L.019,1.403,1.433-.011l4.58,4.58c1.809-1.042,3.819-1.57,5.988-1.57,7.498,0,10.944,6.261,11.821,8.18.238.521.238,1.119,0,1.639-.478,1.046-1.77,3.485-4.134,5.427ZM7.489,6.046l1.771,1.771c1.939-1.27,4.573-1.054,6.275.648,1.702,1.702,1.918,4.336.648,6.275l2.084,2.084c2.139-1.693,3.31-3.904,3.737-4.836-.753-1.621-3.697-6.987-10.003-6.987-1.621,0-3.133.351-4.512,1.046Zm6.632,3.833c-.917-.916-2.283-1.114-3.395-.595l3.99,3.99c.519-1.112.321-2.478-.595-3.395Z"/></svg>
