<?xml version="1.0" encoding="UTF-8"?>
<svg xmlns="http://www.w3.org/2000/svg" id="Layer_1" data-name="Layer 1" viewBox="0 0 24 24" width="512" height="512"><path d="M24,9V3.5c0-1.379-1.122-2.5-2.5-2.5h-3c-1.378,0-2.5,1.121-2.5,2.5v.5H8v-.5c0-1.379-1.122-2.5-2.5-2.5H2.5C1.122,1,0,2.121,0,3.5v5.5H5.928l4.339,7.377c-.171,.338-.268,.719-.268,1.123v5.5h8v-5.5c0-1.379-1.122-2.5-2.5-2.5h-3c-.232,0-.456,.032-.669,.091l-3.831-6.513v-2.578h8v3h8ZM2,3.5c0-.275,.224-.5,.5-.5h3c.276,0,.5,.225,.5,.5v3.5H2V3.5Zm13.5,13.5c.276,0,.5,.225,.5,.5v3.5h-4v-3.5c0-.275,.224-.5,.5-.5h3Zm2.5-13.5c0-.275,.224-.5,.5-.5h3c.276,0,.5,.225,.5,.5v3.5h-4V3.5Z"/></svg>
