<?xml version="1.0" encoding="UTF-8"?>
<svg xmlns="http://www.w3.org/2000/svg" id="Layer_1" data-name="Layer 1" viewBox="0 0 24 24" width="512" height="512"><path d="M16.336,15.252l1.33,1.493c-.103,.092-2.559,2.254-5.666,2.254s-5.563-2.162-5.666-2.254l1.33-1.493c.02,.018,2.005,1.748,4.336,1.748s4.316-1.73,4.336-1.748Zm-1.612-5.037c-.434,.263-.724,.74-.724,1.284,0,.828,.672,1.5,1.5,1.5s1.5-.672,1.5-1.5c0-.155-.023-.304-.067-.444l1.668-1.257-1.203-1.598-2.674,2.015Zm8.025-3.546c.8,1.607,1.251,3.416,1.251,5.33,0,6.617-5.383,12-12,12S0,18.617,0,12c0-1.913,.451-3.723,1.251-5.33L0,0,4.989,2.268C6.962,.842,9.384,0,12,0s5.038,.842,7.011,2.268L24,0l-1.251,6.67Zm-.749,5.33c0-5.514-4.486-10-10-10S2,6.486,2,12s4.486,10,10,10,10-4.486,10-10Zm-15-.5c0,.828,.672,1.5,1.5,1.5s1.5-.672,1.5-1.5c0-.545-.29-1.021-.724-1.284l-2.674-2.015-1.203,1.598,1.668,1.257c-.043,.14-.067,.289-.067,.444Z"/></svg>
