<?xml version="1.0" encoding="UTF-8"?>
<svg xmlns="http://www.w3.org/2000/svg" id="Layer_1" data-name="Layer 1" viewBox="0 0 24 24">
  <path d="m24,17h-1.838l-2.24-12.695c-.338-1.915-1.994-3.305-3.938-3.305h-7.966c-1.945,0-3.602,1.39-3.939,3.305l-2.24,12.695H0v2h1v1c0,1.654,1.346,3,3,3h16c1.654,0,3-1.346,3-3v-1h1v-2ZM8.017,3h7.966c.973,0,1.801.695,1.97,1.652l.238,1.348h-2.191c-.768,0-1.469.29-2,.766-.531-.476-1.232-.766-2-.766h-1c-.768,0-1.469.29-2,.766-.531-.476-1.232-.766-2-.766h-1.19l.238-1.348c.169-.957.997-1.652,1.97-1.652Zm-2.56,5h1.543c.551,0,1,.448,1,1v5h2v-5c0-.552.449-1,1-1h1c.551,0,1,.448,1,1v3h2v-3c0-.552.448-1,1-1h2.544l1.588,9H3.868l1.588-9Zm15.543,12c0,.552-.448,1-1,1H4c-.551,0-1-.448-1-1v-1h18v1Z"/>
</svg>
