<?xml version="1.0" encoding="UTF-8"?>
<svg xmlns="http://www.w3.org/2000/svg" id="Layer_1" data-name="Layer 1" viewBox="0 0 24 24" width="512" height="512"><path d="M23.976,12.76c-.11-.784-.57-1.454-1.261-1.838l-3.745-2.081-.635-3.175-3.177-.636-2.08-3.744c-.384-.692-1.055-1.152-1.839-1.262-.785-.109-1.555,.148-2.114,.708L4.716,5.143c-.56,.56-.818,1.33-.708,2.114s.57,1.454,1.261,1.838l4.504,2.503,.608,.608-6.088,6.088c-.392-.188-.83-.293-1.293-.293-1.654,0-3,1.346-3,3s1.346,3,3,3,3-1.346,3-3c0-.463-.105-.901-.293-1.292l6.088-6.088,.608,.608,2.501,4.503c.384,.692,1.055,1.152,1.839,1.262,.119,.017,.237,.025,.354,.025,.658,0,1.286-.258,1.76-.733l4.41-4.41c.56-.56,.818-1.33,.708-2.114ZM3,22c-.551,0-1-.448-1-1s.449-1,1-1,1,.448,1,1-.449,1-1,1Zm13.871-13.457l-3.662,3.662-1.414-1.414,3.662-3.661,1.178,.235,.236,1.178Zm-10.882-1.563c-.013-.092-.012-.27,.142-.423L10.54,2.146c.153-.154,.331-.156,.422-.142,.092,.013,.263,.062,.368,.252l2.203,3.967-3.327,3.327-3.967-2.204c-.189-.105-.239-.275-.252-.367Zm15.865,6.48l-4.41,4.41c-.153,.154-.331,.155-.422,.142-.092-.013-.263-.062-.368-.252l-2.204-3.967,3.327-3.327,3.967,2.204c.189,.105,.239,.275,.252,.367,.013,.092,.012,.27-.142,.423Z"/></svg>
