<?xml version="1.0" encoding="UTF-8"?>
<svg xmlns="http://www.w3.org/2000/svg" id="Layer_1" data-name="Layer 1" viewBox="0 0 24 24">
  <path d="m1,2.5C1,1.119,2.119,0,3.5,0s2.5,1.119,2.5,2.5-1.119,2.5-2.5,2.5S1,3.881,1,2.5Zm23.001,16.561l-.451-1.949-8.577,1.988-3.049-13.15-1.948.451,1.066,4.6h-2.425l-1.671-3.342c-.512-1.022-1.54-1.658-2.683-1.658h-1.764c-1.378,0-2.5,1.121-2.5,2.5v5.661c0,.875.445,1.671,1.202,2.137l3.798,2.27v5.433h2v-6.567l-4.761-2.845c-.15-.093-.239-.252-.239-.427v-5.661c0-.275.224-.5.5-.5h1.5v5.31l2,1.195v-4.269l1.382,2.764h4.124l1.407,6.07c-1.098.264-1.913,1.251-1.913,2.43,0,1.381,1.119,2.5,2.5,2.5s2.5-1.119,2.5-2.5c0-.196-.023-.387-.066-.57l8.067-1.87Zm-8.935-7.312c-.316-1.351.523-2.709,1.872-3.028l2.775-.66c.658-.156,1.335-.047,1.909.309.574.354.975.912,1.129,1.568l.668,2.852c.316,1.351-.523,2.709-1.872,3.028l-2.775.66c-.195.047-.392.069-.587.069-.463,0-.918-.128-1.321-.378-.574-.354-.975-.912-1.129-1.569l-.668-2.851Zm1.947-.457l.668,2.851c.032.137.115.252.234.325.118.073.258.094.395.064l2.775-.66c.279-.066.453-.348.387-.626l-.668-2.852c-.032-.136-.115-.251-.233-.324-.119-.073-.261-.094-.396-.064l-2.775.66c-.279.066-.453.348-.387.626ZM1,24h2v-4.298l-2-1.195v5.493Z"/>
</svg>
