<?xml version="1.0" encoding="UTF-8"?>
<svg xmlns="http://www.w3.org/2000/svg" id="Layer_1" data-name="Layer 1" viewBox="0 0 24 24">
  <path d="m13.396,10.735c.057-.334.029-.519.007-.599-.188-.69-.75-1.136-1.432-1.136-.213,0-.428.044-.64.132-.254.105-.503.367-.682.719l-2.193,4.149h-2.456c-1.105,0-2,.895-2,2v6c0,1.105.895,2,2,2h12.5l1.5-8v-2h-7.184l.58-3.265Zm-7.396,5.265h2v6h-2v-6Zm11.965,0l-1.125,6h-6.84v-6h7.965Zm-7.749-11.153l-2.212-1.231v-.615h2.899l.784-3h.648l.784,3h2.883v.611l-2.197,1.273.884,2.686-.504.349-2.173-1.68-2.183,1.687-.48-.362.869-2.717Zm-6.207,4.392l-2.183,1.687-.48-.362.869-2.717L.003,6.615v-.615h2.899l.784-3h.648l.784,3h2.883v.611l-2.197,1.273.884,2.686-.504.349-2.173-1.68Zm19.99-2.627l-2.197,1.273.884,2.686-.504.349-2.173-1.68-2.183,1.687-.48-.362.869-2.717-2.212-1.231v-.615h2.899l.784-3h.648l.784,3h2.883v.611Z"/>
</svg>
