<?xml version="1.0" encoding="UTF-8"?>
<svg xmlns="http://www.w3.org/2000/svg" id="Layer_1" data-name="Layer 1" viewBox="0 0 24 24">
  <path d="m24,10.038v6.109c-.46-.787-1.161-1.406-2-1.772v-4.337c0-.31-.14-.596-.384-.787L12.616,2.208c-.363-.284-.869-.284-1.232,0L2.384,9.251c-.244.191-.384.478-.384.787v4.183s-.01.002-.015.004c-.81.266-1.488.764-1.985,1.409v-5.596c0-.929.42-1.79,1.151-2.362L10.151.633c1.088-.852,2.609-.852,3.697,0l9,7.043c.731.572,1.151,1.434,1.151,2.362ZM4.286,19.345c-.56-.228-1.084-.467-1.366-.595-.099-.045-.428-.173-.433-.615-.002-.131.103-.441.515-.577.73-.236,1.392.2,1.611.367l.859-1.113c-.401-.369-1.539-1.123-2.863-.686-.796.263-1.359.951-1.471,1.796-.106.818.23,1.565.921,2.049.003,0,.838.409,1.753.78.214.086.905.409.817.959-.065.391-.492.795-1.096.795-.572,0-1.124-.24-1.497-.646l-1.009,1.006c.633.723,1.541,1.136,2.506,1.136,1.221,0,2.245-.853,2.436-2.028.143-.882-.224-2.036-1.685-2.627Zm7.513-1.045v3.4c0,1.269-1.031,2.3-2.3,2.3s-2.3-1.031-2.3-2.3v-3.4c0-1.269,1.031-2.3,2.3-2.3s2.3,1.031,2.3,2.3Zm-1.6,0c0-.386-.314-.7-.7-.7s-.7.314-.7.7v3.4c0,.386.314.7.7.7s.7-.314.7-.7v-3.4Zm12.399,0v3.4c0,1.269-1.031,2.3-2.3,2.3h-2.3v-8h2.3c1.269,0,2.3,1.031,2.3,2.3Zm-1.6,0c0-.386-.314-.7-.7-.7s-.7,0-.7,0v4.802s.314,0,.7,0,.7-.314.7-.7v-3.4Zm-6.4-2.3h-1.6v8h4v-1.599c-1.105,0-2.4,0-2.4,0v-6.401Z"/>
</svg>
