<?xml version="1.0" encoding="UTF-8"?>
<svg xmlns="http://www.w3.org/2000/svg" id="Layer_1" data-name="Layer 1" viewBox="0 0 24 24">
  <path d="m21.735,7.576c-.21-1.469-1.486-2.576-2.97-2.576h-3.617c.219-.456.351-.961.351-1.5,0-1.93-1.57-3.5-3.5-3.5s-3.5,1.57-3.5,3.5c0,.539.133,1.044.351,1.5h-3.616c-1.483,0-2.76,1.107-2.969,2.567L.011,22.35l-.011,1.65h24v-1.5l-2.265-14.924ZM10.5,3.5c0-.827.673-1.5,1.5-1.5s1.5.673,1.5,1.5-.673,1.5-1.5,1.5-1.5-.673-1.5-1.5ZM2.088,22l2.157-14.141c.07-.49.496-.859.99-.859h13.531c.494,0,.92.369.991.868l2.155,14.132H2.088Zm7.912-9c0,.379.271.698.645.761l3.04.507c1.342.224,2.315,1.373,2.315,2.732,0,1.654-1.346,3-3,3v1h-2v-1c-1.654,0-3-1.346-3-3h2c0,.552.449,1,1,1h2c.552,0,1-.448,1-1,0-.378-.271-.697-.645-.76l-3.04-.507c-1.342-.224-2.315-1.373-2.315-2.733,0-1.654,1.346-3,3-3v-1h2v1c1.654,0,3,1.346,3,3h-2c0-.552-.448-1-1-1h-2c-.551,0-1,.448-1,1Z"/>
</svg>
