<?xml version="1.0" encoding="UTF-8"?>
<svg xmlns="http://www.w3.org/2000/svg" id="Layer_1" data-name="Layer 1" viewBox="0 0 24 24" width="512" height="512"><path d="M18.879,1.879c-1.134-1.134-3.104-1.14-4.249,.006l-4.049,4.115H3c-.881,0-1.714,.385-2.286,1.057C.143,7.729-.103,8.618,.041,9.497c.232,1.427,1.551,2.503,3.066,2.503h5.073l2,10h13.82V7L18.879,1.879Zm3.121,18.121H11.82l-2-10H3.107c-.537,0-1.017-.362-1.093-.825-.049-.303,.03-.595,.224-.823,.19-.224,.468-.353,.762-.353h14v-2h-3.613l2.664-2.707c.377-.378,1.036-.378,1.414,0l4.536,4.535v12.172Z"/></svg>
