<?xml version="1.0" encoding="UTF-8"?>
<svg xmlns="http://www.w3.org/2000/svg" id="Layer_1" data-name="Layer 1" viewBox="0 0 24 24" width="512" height="512"><path d="M20,0H5c-1.654,0-3,1.346-3,3V21c0,1.654,1.346,3,3,3H22V2c0-1.103-.897-2-2-2ZM5,2h15V18H5c-.351,0-.687,.061-1,.172V3c0-.552,.448-1,1-1Zm0,20c-.552,0-1-.448-1-1s.448-1,1-1h15v2H5ZM14.975,9c-.052-1.153-.215-3.018-.7-4.537,1.88,.778,3.287,2.475,3.635,4.537h-2.935Zm-1.998,0h-1.954c.107-2.564,.607-4.23,.977-4.829,.37,.599,.87,2.265,.977,4.829Zm1.298,6.537c.485-1.519,.648-3.384,.7-4.537h2.935c-.348,2.062-1.755,3.759-3.635,4.537ZM6.09,11h2.935c.052,1.153,.215,3.018,.7,4.537-1.88-.778-3.287-2.475-3.635-4.537Zm2.935-2h-2.935c.348-2.062,1.755-3.759,3.635-4.537-.485,1.519-.648,3.384-.7,4.537Zm2.975,6.829c-.37-.599-.87-2.265-.977-4.829h1.954c-.107,2.564-.607,4.23-.977,4.829Z"/></svg>
