<?xml version="1.0" encoding="UTF-8"?>
<svg xmlns="http://www.w3.org/2000/svg" id="Layer_1" data-name="Layer 1" viewBox="0 0 24 24">
  <path d="m24,12c0,4.307-3.503,7.81-7.81,7.81s-7.81-3.503-7.81-7.81h2c0,3.203,2.606,5.81,5.81,5.81s5.81-2.606,5.81-5.81c0-.893-.129-1.755-.35-2.58l1.588-1.588c.484,1.3.762,2.701.762,4.168Zm-22,0C2,6.486,6.486,2,12,2c.893,0,1.755.129,2.58.35l1.588-1.588c-1.301-.484-2.701-.762-4.168-.762C5.383,0,0,5.383,0,12c0,4.96,2.669,9.288,7.324,11.874l.972-1.748c-4.001-2.223-6.295-5.913-6.295-10.126Zm10-4.242L18.879.879c1.133-1.133,3.109-1.133,4.243,0,1.169,1.17,1.169,3.072,0,4.242l-6.878,6.879h-4.243v-4.242Zm2,2.242h1.415l6.292-6.293c.39-.39.39-1.024,0-1.414-.378-.379-1.037-.379-1.414,0l-6.293,6.293v1.414Z"/>
</svg>
