<?xml version="1.0" encoding="UTF-8"?>
<svg xmlns="http://www.w3.org/2000/svg" id="Layer_1" data-name="Layer 1" viewBox="0 0 24 24">
  <path d="m20,13.184v-1.184c0-2.206-1.794-4-4-4h-8c-2.206,0-4,1.794-4,4v1.184c-.314-.112-.648-.184-1-.184H0v9h2v2h2v-2h16v2h2v-2h2v-9h-3c-.352,0-.686.072-1,.184Zm-14-1.184c0-1.103.897-2,2-2h8c1.103,0,2,.897,2,2v4H6v-4Zm16,8H2v-5h1c.551,0,1,.449,1,1v2h16v-2c0-.551.449-1,1-1h1v5ZM.525,5.255C.215,4.982,0,4.502,0,4s.214-.982.588-1.318L3.009.078l1.464,1.363-1.452,1.559h17.963l-1.458-1.562,1.463-1.363,2.488,2.67c.31.272.524.753.524,1.255s-.214.982-.588,1.318l-2.5,2.684-1.462-1.365,1.528-1.636H3.019l1.502,1.606-1.463,1.364L.525,5.255Z"/>
</svg>
