<?xml version="1.0" encoding="UTF-8"?>
<svg xmlns="http://www.w3.org/2000/svg" id="Layer_1" data-name="Layer 1" viewBox="0 0 24 24" width="512" height="512"><path d="M21,2H3C1.35,2,0,3.35,0,5v14c0,1.65,1.35,3,3,3H21c1.65,0,3-1.35,3-3V5c0-1.65-1.35-3-3-3Zm-5,18H8v-1c0-.55,.45-1,1-1h6c.55,0,1,.45,1,1v1Zm6-1c0,.55-.45,1-1,1h-3v-1c0-1.65-1.35-3-3-3h-6c-1.65,0-3,1.35-3,3v1H3c-.55,0-1-.45-1-1V5c0-.55,.45-1,1-1H21c.55,0,1,.45,1,1v14ZM12,6c-2.21,0-4,1.79-4,4s1.79,4,4,4,4-1.79,4-4-1.79-4-4-4Zm0,6c-1.1,0-2-.9-2-2s.9-2,2-2,2,.9,2,2-.9,2-2,2Z"/></svg>
