<?xml version="1.0" encoding="UTF-8"?>
<svg xmlns="http://www.w3.org/2000/svg" id="Layer_1" data-name="Layer 1" viewBox="0 0 24 24" width="512" height="512"><path d="m6,16h-2.023c-.768,0-1.456-.323-1.96-.827C.709,13.865.011,11.44,0,9c-.011-2.39.637-4.793,2.017-6.173.504-.504,1.192-.828,1.96-.827h2.023v4h-2.593c-.456,1.068-.68,2.047-.686,3-.006,1.003.228,1.978.686,3h2.593v4Zm18,5v3H5v-3c0-1.86,1.276-3.428,3-3.873V0h16.007l-2.855,17.169c1.646.496,2.848,2.025,2.848,3.831ZM10,2v3h3v2h-3v2h3v2h-3v2h3v2h-3v2h9.152l2.495-15h-11.647Zm12,19c0-1.103-.897-2-2-2h-11c-1.103,0-2,.897-2,2v1h15v-1Z"/></svg>
