<?xml version="1.0" encoding="UTF-8"?>
<svg xmlns="http://www.w3.org/2000/svg" id="Layer_1" data-name="Layer 1" viewBox="0 0 24 24" width="512" height="512"><path d="m21,6H3c-1.654,0-3,1.346-3,3v15h24v-15c0-1.654-1.346-3-3-3Zm-12,16h-3v-3c0-.551.448-1,1-1h1c.552,0,1,.449,1,1v3Zm9,0h-3v-3c0-.551.448-1,1-1h1c.552,0,1,.449,1,1v3Zm4,0h-2v-3c0-1.654-1.346-3-3-3h-1c-1.654,0-3,1.346-3,3v3h-2v-3c0-1.654-1.346-3-3-3h-1c-1.654,0-3,1.346-3,3v3h-2v-13c0-.551.448-1,1-1h18c.552,0,1,.449,1,1v13ZM11,4h-7L7.5,0l3.5,4Zm5.5,0L13,0h7l-3.5,4Zm-6.5,8.5c0,1.381-1.119,2.5-2.5,2.5s-2.5-1.119-2.5-2.5,1.119-2.5,2.5-2.5,2.5,1.119,2.5,2.5Zm9,0c0,1.381-1.119,2.5-2.5,2.5s-2.5-1.119-2.5-2.5,1.119-2.5,2.5-2.5,2.5,1.119,2.5,2.5Z"/></svg>
