<?xml version="1.0" encoding="UTF-8"?>
<svg xmlns="http://www.w3.org/2000/svg" id="Layer_1" data-name="Layer 1" viewBox="0 0 24 24">
  <path d="m16.957,8.457l2.043,2.043v-4.583c0-.506-.41-.917-.917-.917h-4.583l2.043,2.043-1.789,1.789c-1.448-1.143-3.271-1.832-5.254-1.832C3.813,7,0,10.813,0,15.5s3.813,8.5,8.5,8.5,8.5-3.813,8.5-8.5c0-1.984-.688-3.806-1.832-5.254l1.789-1.789Zm-8.457,13.543c-3.584,0-6.5-2.916-6.5-6.5s2.916-6.5,6.5-6.5,6.5,2.916,6.5,6.5-2.916,6.5-6.5,6.5Zm15.5-13.5c0,3.453-2.074,6.427-5.038,7.755.018-.25.038-.5.038-.755,0-.496-.047-.981-.117-1.457,1.867-1.142,3.117-3.194,3.117-5.543,0-3.59-2.91-6.5-6.5-6.5-2.349,0-4.4,1.25-5.543,3.117-.477-.07-.961-.117-1.457-.117-.255,0-.505.02-.755.038C9.073,2.074,12.046,0,15.5,0c4.687,0,8.5,3.813,8.5,8.5Z"/>
</svg>
