<?xml version="1.0" encoding="UTF-8"?>
<svg xmlns="http://www.w3.org/2000/svg" id="Layer_1" data-name="Layer 1" viewBox="0 0 24 24" width="512" height="512"><path d="m10.841,13.21c-1.331.489-2.191,1.69-2.191,3.062,0,1.325.543,2.921,1.614,4.745.361.616,1.01.983,1.736.984h0c.725,0,1.374-.368,1.734-.982,1.052-1.792,1.595-3.363,1.615-4.671.013-.867-.353-1.731-1.003-2.37-.929-.913-2.277-1.218-3.505-.767Zm1.148,6.794c-.864-1.47-1.339-2.796-1.339-3.732,0-.539.329-.981.881-1.184.159-.058.317-.088.47-.088.343,0,.678.144.944.404.262.257.41.589.404.912-.014.945-.478,2.221-1.36,3.688Zm11.732-6.622c-.263-.841-.891-1.566-1.724-1.99-.821-.417-1.738-.506-2.585-.25-.381.116-.741.301-1.07.55-1.154.876-1.616,2.308-1.176,3.646.424,1.289,1.469,2.683,3.104,4.142.379.338.871.518,1.371.518.213,0,.429-.033.638-.1.693-.223,1.199-.772,1.354-1.468.459-2.065.489-3.764.088-5.048Zm-2.119,4.606c-1.351-1.205-2.228-2.337-2.536-3.274-.174-.531.007-1.064.486-1.428.139-.105.287-.183.44-.229.126-.038.258-.057.392-.057.236,0,.478.059.708.175.355.181.618.474.721.803.291.933.246,2.323-.21,4.01Zm-15.944-6.295c-.329-.25-.689-.435-1.071-.55-.846-.257-1.764-.168-2.585.25-.833.423-1.461,1.148-1.724,1.989-.401,1.284-.371,2.982.088,5.048.155.696.661,1.245,1.354,1.468.209.067.424.1.638.1.5,0,.991-.18,1.37-.518,1.636-1.459,2.681-2.853,3.105-4.142.439-1.338-.022-2.769-1.176-3.645Zm-.725,3.021c-.308.937-1.185,2.069-2.615,3.283-.376-1.696-.422-3.085-.131-4.019.103-.329.366-.622.72-.802.359-.183.749-.225,1.1-.119.153.046.302.124.44.229.479.363.66.897.485,1.428Zm.751-9.04C2.562,4.391.481,2.625.347,2.509L1.652.994c.047.04,4.732,4.008,10.348,4.008S22.301,1.034,22.348.994l1.306,1.515c-.134.116-2.216,1.882-5.338,3.165l1.282,3.402c-.256.038-.512.077-.762.153-.395.119-.767.3-1.126.508l-1.281-3.398c-1.069.313-2.221.538-3.429.622v4.156c-.655-.139-1.33-.138-2,.004v-4.16c-1.207-.084-2.36-.309-3.429-.622l-1.281,3.398c-.359-.208-.731-.389-1.126-.508-.25-.076-.506-.114-.762-.153l1.282-3.402Z"/></svg>
