<?xml version="1.0" encoding="UTF-8"?>
<svg xmlns="http://www.w3.org/2000/svg" id="Layer_1" data-name="Layer 1" viewBox="0 0 24 24">
  <path d="m23.492,16l.508,7h-1.604l-.319-4.402-1.577,3.469-1.577-3.468-.319,4.402h-1.604l.508-7c.043-.705.472-1,.988-1,.342,0,.66.242.841.64l1.164,2.56,1.164-2.56c.181-.398.499-.64.841-.64.516,0,.945.295.988,1Zm-8.559,3.544c.024-.014,1.067,3.456,1.067,3.456h-1.744l-.872-3h-.784v3h-1.6v-8h2.5c1.381,0,2.5,1.119,2.5,2.5,0,.846-.423,1.592-1.067,2.044Zm-.533-2.044c0-.496-.404-.9-.9-.9h-.9v1.8h.9c.496,0,.9-.404.9-.9Zm-6.9-.9c.496,0,.9.404.9.9h1.6c0-1.381-1.119-2.5-2.5-2.5s-2.5,1.119-2.5,2.5v3c0,1.381,1.119,2.5,2.5,2.5s2.5-1.119,2.5-2.5h-1.6c0,.496-.404.9-.9.9s-.9-.404-.9-.9v-3c0-.496.404-.9.9-.9Zm-3-12.6c-.828,0-1.5.672-1.5,1.5s.672,1.5,1.5,1.5,1.5-.672,1.5-1.5-.672-1.5-1.5-1.5Zm4,0c-.828,0-1.5.672-1.5,1.5s.672,1.5,1.5,1.5,1.5-.672,1.5-1.5-.672-1.5-1.5-1.5Zm15.5,0v9h-2v-3H2v11h1v2H0V4C0,2.346,1.346,1,3,1h18c1.654,0,3,1.346,3,3Zm-2,4v-4c0-.551-.448-1-1-1H3c-.552,0-1,.449-1,1v4h20Z"/>
</svg>
