<?xml version="1.0" encoding="UTF-8"?>
<svg xmlns="http://www.w3.org/2000/svg" id="Layer_1" data-name="Layer 1" viewBox="0 0 24 24" width="512" height="512"><path d="M8.786,10.786c-1.184,1.184-2.719,1.568-3.429,.857-.71-.71-.326-2.246,.857-3.429,1.184-1.184,2.719-1.568,3.429-.857,.71,.71,.326,2.246-.857,3.429Zm9.857,.857c.71-.71,.326-2.246-.857-3.43-1.184-1.184-2.719-1.568-3.429-.857s-.326,2.246,.857,3.429c1.184,1.184,2.719,1.568,3.429,.857Zm-6.643,8.357c1.657,0,3-1.343,3-3v-1c0-1.657-1.343-3-3-3s-3,1.343-3,3v1c0,1.657,1.343,3,3,3ZM.901,15.335c-.919,.606-1.172,1.845-.57,2.767,.017,.025,1.669,2.594,1.669,5.898H7c0-4.553-3.233-7.972-3.336-8.109-.664-.891-1.843-1.163-2.763-.556Zm22.202,0c-.92-.607-2.099-.335-2.763,.556-.102,.137-3.336,3.557-3.336,8.109h5c0-3.305,1.652-5.873,1.669-5.898,.603-.922,.349-2.16-.57-2.767ZM2.051,13.012c-.034-.333-.051-.67-.051-1.012C2,6.486,6.486,2,12,2s10,4.486,10,10c0,.342-.018,.679-.051,1.012,.664-.012,1.329,.155,1.947,.492,.062-.494,.105-.993,.105-1.504C24,5.383,18.617,0,12,0S0,5.383,0,12c0,.51,.043,1.01,.105,1.504,.618-.337,1.283-.503,1.947-.492Zm6.666,8.423c.149,.688,.242,1.413,.268,2.166,.965,.251,1.972,.398,3.014,.398s2.052-.148,3.018-.4c.026-.753,.119-1.478,.268-2.167-1.031,.36-2.134,.566-3.286,.566s-2.252-.205-3.282-.565Z"/></svg>
