<?xml version="1.0" encoding="UTF-8"?>
<svg xmlns="http://www.w3.org/2000/svg" id="Layer_1" data-name="Layer 1" viewBox="0 0 24 24">
  <path d="m11,6h2v6.437l-4.887,2.989-1.043-1.707,3.93-2.403v-5.315ZM2,12C2,6.486,6.486,2,12,2c3.559,0,6.878,1.916,8.663,5.001.707,1.224,1.13,2.591,1.271,3.999h2c-.147-1.759-.657-3.473-1.541-5.001C20.253,2.299,16.271,0,12,0,5.383,0,0,5.383,0,12c0,3.076,1.162,6.002,3.273,8.236.449.475.937.896,1.444,1.286l1.423-1.423c-.501-.365-.977-.773-1.414-1.236-1.758-1.862-2.727-4.3-2.727-6.863Zm20,1h-4v2h2.568l-4.693,4.692-3.25-3.25-6.063,6.062,1.414,1.414,4.648-4.648,3.25,3.25,6.125-6.124v2.604h2v-4c0-1.103-.897-2-2-2Z"/>
</svg>
