<?xml version="1.0" encoding="UTF-8"?>
<svg xmlns="http://www.w3.org/2000/svg" id="Layer_1" data-name="Layer 1" viewBox="0 0 24 24">
  <path d="m10.409,3c-.473-1.724-2.139-3-4.116-3C4.132,0,0,1.558,0,4s4.132,4,6.293,4c1.977,0,3.643-1.276,4.116-3h13.634v-2h-13.634Zm-4.116,3c-1.727,0-4.293-1.312-4.293-2s2.566-2,4.293-2c1.241,0,2.25.897,2.25,2s-1.009,2-2.25,2Zm14.697,5.023H3.009c-.867,0-1.692.386-2.265,1.058-.594.698-.851,1.62-.704,2.531.808,5.004,4.743,7.914,7.726,9.388h8.468c2.982-1.474,6.917-4.384,7.725-9.388.147-.91-.109-1.833-.704-2.53-.573-.673-1.398-1.059-2.265-1.059Zm.994,3.271c-.654,4.052-3.698,6.416-6.221,7.706h-7.527c-2.524-1.29-5.567-3.654-6.222-7.706-.053-.331.039-.665.252-.916.113-.132.36-.354.743-.354h17.981c.383,0,.629.223.742.355.214.25.306.584.252.915Z"/>
</svg>
