<?xml version="1.0" encoding="UTF-8"?>
<svg xmlns="http://www.w3.org/2000/svg" id="Layer_1" data-name="Layer 1" viewBox="0 0 24 24">
  <path d="m21.7,16h-2.3v8h2.3c1.269,0,2.3-1.031,2.3-2.3v-3.4c0-1.269-1.031-2.3-2.3-2.3Zm.7,5.7c0,.386-.314.7-.7.7s-.7,0-.7,0v-4.802s.314,0,.7,0,.7.314.7.7v3.4Zm-7.4-5.7h3.5v1.6h-1.9v1.65h1.9v1.6h-1.9v1.551h1.9v1.6h-3.5v-8Zm-2.604,0h1.604l-.508,7c-.043.705-.472,1-.988,1-.342,0-.66-.242-.841-.64l-1.164-2.56-1.164,2.56c-.181.398-.499.64-.841.64-.516,0-.945-.295-.988-1l-.508-7h1.604l.319,4.402,1.577-3.468,1.577,3.469.319-4.402ZM21,2h-3V0h-2v2h-8V0h-2v2h-3c-1.654,0-3,1.346-3,3v19h5.678c-.091-.273-.148-.567-.167-.878l-.081-1.122h-3.43v-12h20v4h2V5c0-1.654-1.346-3-3-3ZM2,8v-3c0-.551.448-1,1-1h18c.552,0,1,.449,1,1v3H2Z"/>
</svg>
