<?xml version="1.0" encoding="UTF-8"?>
<svg xmlns="http://www.w3.org/2000/svg" id="Layer_1" data-name="Layer 1" viewBox="0 0 24 24" width="512" height="512"><path d="M9.804,6.02l.393,1.961c-1.161,.232-2.356,.859-3.553,1.865l-1.287-1.531c1.457-1.225,2.953-1.996,4.447-2.295Zm4,1.961c1.161,.232,2.356,.859,3.553,1.865l1.287-1.531c-1.457-1.225-2.953-1.996-4.447-2.295l-.393,1.961Zm8.196,10.638v-6.619c0-.434-.028-.862-.082-1.282l-1.918,2.61v5.753c0,.937-.423,1.801-1.16,2.371-1.227,.951-3.749,2.549-6.84,2.549s-5.613-1.598-6.841-2.55c-.736-.569-1.159-1.434-1.159-2.37v-5.754l-1.915-2.626c-.056,.426-.085,.86-.085,1.3v6.619c-1.261-1.899-2-4.173-2-6.619C0,5.383,5.383,0,12,0s12,5.383,12,12c0,2.446-.739,4.72-2,6.619Zm-4-4.619H6v5.08c0,.312,.14,.601,.384,.789,1.027,.796,3.121,2.131,5.616,2.131s4.589-1.335,5.615-2.13c.245-.189,.385-.478,.385-.79v-5.08Zm3.263-5.767c-1.491-3.652-5.081-6.233-9.263-6.233S4.242,4.571,2.746,8.212l2.763,3.788h12.986l2.768-3.767Z"/></svg>
