<?xml version="1.0" encoding="UTF-8"?>
<svg xmlns="http://www.w3.org/2000/svg" id="Layer_1" data-name="Layer 1" viewBox="0 0 24 24">
  <path d="m13.5,13c-.828,0-1.5-.672-1.5-1.5s.672-1.5,1.5-1.5,1.5.672,1.5,1.5-.672,1.5-1.5,1.5Zm10.483,4.183c-.102-1.131-.683-2.19-1.594-2.906-2.75-2.162-3.855-4.382-4.925-6.532-.709-1.425-1.382-2.777-2.464-3.971V0c-1.905,0-3.5,1.332-3.902,3.116C4.198,3.921,0,8.894,0,16.5v7.5h2v-7.5c0-7.309,4.058-11.5,11.133-11.5h.277c.956,1.009,1.537,2.177,2.265,3.639,1.113,2.236,2.375,4.771,5.479,7.211.48.376.785.928.837,1.512.052.58-.139,1.161-.525,1.597-.427.481-.759.857-1.002,1.133l-10.173-5.058.761,2.283c.035.105.744,2.214,2.015,4.684l.978,2h2.452l-.879-1.504c-.709-1.213-1.294-2.435-1.733-3.442l7.071,3.516.507-.582s.478-.548,1.5-1.702c.75-.845,1.122-1.976,1.021-3.102Z"/>
</svg>
