<?xml version="1.0" encoding="UTF-8"?>
<svg xmlns="http://www.w3.org/2000/svg" id="Layer_1" data-name="Layer 1" viewBox="0 0 24 24" width="512" height="512"><path d="m21.806,17.121c-.392-2.743-1.037-5.113-1.86-7.128.018,0,.036.004.054.004,2.206,0,4-1.794,4-4s-1.794-4-4-4c-.211,0-.417.019-.619.051l-.159-.107C17.802.986,16.333-.003,14-.003,10.662-.003,3.968,3.612,2.106,17.151c-1.216.383-2.106,1.508-2.106,2.849v4l24-.003v-4c0-1.373-.933-2.521-2.194-2.876Zm.194-11.124c0,1.103-.897,2-2,2s-2-.897-2-2,.897-2,2-2,2,.897,2,2ZM14,1.997c1.364,0,2.308.447,3.302,1.076-.355.332-.657.722-.875,1.162-.386-.138-.807-.238-1.284-.238-.291,0-.772.106-1.361.356,2.503,2.22,5.002,6.185,5.997,12.644l-15.634.002C5.952,4.73,11.826,1.997,14,1.997Zm8,20l-20,.003v-2c0-.551.448-1,1-1l18-.002c.552,0,1,.449,1,1v2Z"/></svg>
