<?xml version="1.0" encoding="UTF-8"?>
<svg xmlns="http://www.w3.org/2000/svg" id="Layer_1" data-name="Layer 1" viewBox="0 0 24 24" width="512" height="512"><path d="M12,24C5.383,24,0,18.617,0,12S5.383,0,12,0s12,5.383,12,12-5.383,12-12,12Zm0-22C6.486,2,2,6.486,2,12s4.486,10,10,10,10-4.486,10-10S17.514,2,12,2ZM6,15.827l1.378,1.378c.539,.54,1.249,.795,1.957,.795,3.634,0,8.666-4.752,8.666-8.666,0-.708-.256-1.418-.795-1.957l-1.378-1.378-2.712,2.712,1.775,1.775c-.882,2.195-2.376,3.629-4.403,4.403l-1.775-1.775-2.712,2.712Z"/></svg>
