<?xml version="1.0" encoding="UTF-8"?>
<svg xmlns="http://www.w3.org/2000/svg" id="Layer_1" data-name="Layer 1" viewBox="0 0 24 24">
  <path d="m13.7,13.626c0-.272-.194-.509-.462-.563l-2.791-.559c-1.013-.203-1.747-1.099-1.747-2.131,0-1.199.975-2.173,2.173-2.173h.327v-1.2h1.6v1.2h.2c1.201,0,2.189.925,2.291,2.1h-1.62c-.086-.289-.354-.5-.671-.5h-2.127c-.316,0-.573.257-.573.574,0,.272.194.509.461.562l2.792.559c1.013.202,1.747,1.099,1.747,2.131,0,1.199-.975,2.173-2.174,2.173h-.326v1.2h-1.6v-1.2h-.2c-1.201,0-2.189-.925-2.291-2.1h1.62c.086.289.354.5.671.5h2.126c.316,0,.574-.257.574-.574Zm-1.7-11.626c2.742,0,5.275,1.098,7.131,3h-2.131v2h4c1.103,0,2-.897,2-2V1h-2v3.091C18.743,1.509,15.517,0,12,0,5.383,0,0,5.383,0,12h2C2,6.486,6.486,2,12,2Zm10,10c0,5.514-4.486,10-10,10-2.742,0-5.275-1.098-7.131-3h2.131v-2H3c-1.103,0-2,.897-2,2v4h2v-3.091c2.257,2.582,5.483,4.091,9,4.091,6.617,0,12-5.383,12-12h-2Zm-2,0c0-1.061-.212-2.073-.589-3h-2.223c.513.884.812,1.907.812,3,0,3.309-2.691,6-6,6-1.093,0-2.116-.299-3-.812v2.223c.927.377,1.939.589,3,.589,4.411,0,8-3.589,8-8Zm-8-6c1.093,0,2.116.299,3,.812v-2.223c-.927-.377-1.939-.589-3-.589-4.411,0-8,3.589-8,8,0,1.061.212,2.073.589,3h2.223c-.513-.884-.812-1.907-.812-3,0-3.309,2.691-6,6-6Z"/>
</svg>
