<?xml version="1.0" encoding="UTF-8"?>
<svg xmlns="http://www.w3.org/2000/svg" id="Layer_1" data-name="Layer 1" viewBox="0 0 24 24" width="512" height="512"><path d="m23.004,10.999C22.989,4.832,18.157,0,12.004,0,5.938,0,1.004,4.936,1.004,11.001v1h22.002l-.002-1.002Zm-19.945-.998C3.558,5.507,7.379,2.001,12.004,2.001c4.696,0,8.452,3.44,8.945,8H3.059Zm19.945,4v2h-4.001l-3.5,3.5-3.5-3.5H1.004v-2h22Zm-3.263,4h3.263v2c0,2.206-1.794,4-4,4H5.004c-2.206,0-4-1.794-4-4h-.001v-2h10.256l2,2H3.004c0,1.103.897,2,2,2h14c1.103,0,2-.897,2-2h-3.262l2-2Z"/></svg>
