<?xml version="1.0" encoding="UTF-8"?>
<svg xmlns="http://www.w3.org/2000/svg" id="Layer_1" data-name="Layer 1" viewBox="0 0 24 24" width="512" height="512"><path d="M22.849,7.681L13.849,.637c-1.089-.85-2.608-.851-3.697,0L1.151,7.68c-.731,.573-1.151,1.435-1.151,2.363v13.957H10.287l2.304-6h-4.509l3.972-6.043-1.231,4.043,5.155-.031-2.774,8.031h10.796V10.043c0-.929-.42-1.79-1.151-2.362Zm-.849,14.319h-5.989l1.906-5.521c.178-.588,.07-1.209-.296-1.702-.367-.494-.93-.777-1.544-.777h-2.554l1.827-6h-3.089l-5.942,9.042c-.388,.586-.423,1.335-.091,1.954s.976,1.004,1.679,1.004h1.774l-.768,2H2V10.043c0-.31,.14-.597,.384-.788L11.384,2.213c.362-.285,.87-.284,1.232,0l9,7.044c.244,.19,.384,.478,.384,.787v11.957Z"/></svg>
