<?xml version="1.0" encoding="UTF-8"?>
<svg xmlns="http://www.w3.org/2000/svg" id="Layer_1" data-name="Layer 1" viewBox="0 0 24 24">
  <path d="m21.5,9.5C21.5,4.262,17.238,0,12,0S2.5,4.262,2.5,9.5c0,4.9,3.73,8.945,8.5,9.446v3.054h-5v2h12v-2h-5v-3.054c4.77-.502,8.5-4.546,8.5-9.446Zm-9.5,7.5c-1.375,0-2.66-.378-3.769-1.026,1.24-1.28,2.776-3.277,3.769-4.68.993,1.402,2.529,3.399,3.769,4.68-1.109.648-2.394,1.026-3.769,1.026Zm5.358-2.261c-.927-.929-2.234-2.565-3.23-3.914,1.64.348,3.692.909,4.87,1.352-.37.965-.93,1.836-1.64,2.563Zm2.142-5.239c0,.244-.014.484-.037.722-1.642-.588-4.198-1.251-5.976-1.554.677-1.608,1.562-4.081,1.96-5.822,2.405,1.251,4.053,3.761,4.053,6.654Zm-5.947-7.336c-.252,1.206-.932,3.258-1.553,4.859-.621-1.602-1.302-3.654-1.553-4.86.502-.106,1.021-.164,1.553-.164s1.052.058,1.553.164Zm-5,.682c.397,1.74,1.282,4.214,1.96,5.822-1.778.303-4.335.967-5.977,1.554-.023-.238-.037-.479-.037-.722,0-2.893,1.649-5.403,4.053-6.654Zm-3.551,9.33c1.179-.442,3.23-1.003,4.87-1.352-.996,1.349-2.303,2.985-3.23,3.914-.71-.726-1.27-1.597-1.64-2.563Z"/>
</svg>
