<?xml version="1.0" encoding="UTF-8"?>
<svg xmlns="http://www.w3.org/2000/svg" id="Layer_1" data-name="Layer 1" viewBox="0 0 24 24" width="512" height="512"><path d="m13.5,12c0,.828-.672,1.5-1.5,1.5s-1.5-.672-1.5-1.5.672-1.5,1.5-1.5,1.5.672,1.5,1.5Zm10.501,6.715l-1.75-1.983c-.971-1.1-2.183-1.956-3.537-2.504.107,1.016.035,2.041-.216,3.058-.976,3.952-4.607,6.713-8.831,6.714h-4.383s1.983-1.749,1.983-1.749c1.1-.971,1.956-2.183,2.504-3.537-1.016.106-2.042.035-3.058-.216C2.762,17.522.001,13.891,0,9.667v-4.383s1.749,1.983,1.749,1.983c.971,1.1,2.183,1.956,3.537,2.504-.107-1.016-.035-2.041.216-3.058C6.478,2.762,10.109.001,14.333,0h4.383s-1.983,1.749-1.983,1.749c-1.1.971-1.956,2.183-2.504,3.537,1.017-.106,2.042-.036,3.058.216,3.952.976,6.713,4.607,6.714,8.831v4.383Zm-2.021-4.931c-.23-3.022-2.334-5.64-5.172-6.341-1.002-.246-2.014-.271-3.005-.07-.528.108-1.058-.067-1.418-.468-.363-.402-.486-.975-.323-1.495.383-1.223.968-2.368,1.724-3.389-3.022.23-5.64,2.334-6.341,5.172-.247,1.002-.271,2.014-.07,3.005.107.528-.068,1.058-.468,1.418-.402.362-.975.485-1.495.323-1.223-.383-2.368-.968-3.389-1.724.23,3.022,2.334,5.64,5.172,6.341,1.003.247,2.015.272,3.005.07.102-.021.204-.031.305-.031.421,0,.822.176,1.113.499.363.402.486.975.323,1.495-.383,1.223-.968,2.368-1.724,3.389,3.022-.23,5.64-2.334,6.341-5.172.247-1.002.271-2.014.07-3.005-.107-.528.068-1.058.468-1.418.402-.362.975-.485,1.495-.323,1.223.383,2.368.968,3.389,1.724Z"/></svg>
