<?xml version="1.0" encoding="UTF-8"?>
<svg xmlns="http://www.w3.org/2000/svg" id="Layer_1" data-name="Layer 1" viewBox="0 0 24 24">
  <path d="m3.787,8.959c1.033,1.813,2.981,3.041,5.213,3.041,1.347,0,2.592-.446,3.594-1.198-.192-.814-.371-1.569-.529-2.234-.734.875-1.836,1.433-3.065,1.433-1.861,0-3.417-1.284-3.861-3.009.056.001.112.01.167.01,1.243,0,2.465-.347,3.546-1.021,1.227-.765,2.147-1.88,2.674-3.198.817.554,1.453,1.369,1.766,2.364.076.256.63,2.581,1.3,5.421.549-.358,1.204-.566,1.907-.566h.015c-.644-2.726-1.233-5.196-1.313-5.45-.855-2.722-3.348-4.55-6.202-4.55-.291,0-.576.028-.856.068C5.658.394,3.565,2.106,2.798,4.55c-.118.375-1.348,5.592-2.224,9.32.699-.613,1.509-1.095,2.388-1.417.29-1.233.573-2.432.825-3.495Zm5.87-6.906c-.371.917-1.007,1.697-1.863,2.231-.806.503-1.722.746-2.651.714.448-1.719,2-2.997,3.857-2.997.223,0,.441.021.657.052Zm13.887,18.744l-3.544-4.246v-2.55h1v-2h-5v2h1v2.55l-3.544,4.245c-.49.587-.594,1.421-.265,2.125.312.666.945,1.08,1.653,1.08h7.311c.708,0,1.342-.414,1.653-1.08.329-.704.226-1.538-.265-2.124Zm-8.488,1.204l3.444-4.126,3.437,4.126h-6.881Zm-1.056-6.629l-4.98,5.719-4.445-5.06c-1.453.207-2.574,1.46-2.574,2.97v5H0v-5c0-2.757,2.243-5,5-5h.452l3.562,4.053,3.531-4.053h1.455v1.371Z"/>
</svg>
