<?xml version="1.0" encoding="UTF-8"?>
<svg xmlns="http://www.w3.org/2000/svg" id="Layer_1" data-name="Layer 1" viewBox="0 0 24 24">
  <path d="m15.25,13.982h4.5c2.343,0,4.25-1.907,4.25-4.25,0-1.258-.552-2.431-1.5-3.233v-.498c0-1.13-.391-2.162-1.026-3h.026c.828,0,1.5-.672,1.5-1.5s-.672-1.5-1.5-1.5-1.5.672-1.5,1.5v.196c-.738-.431-1.585-.696-2.5-.696s-1.761.265-2.5.695v-.196c0-.828-.672-1.5-1.5-1.5s-1.5.672-1.5,1.5.672,1.5,1.5,1.5h.025c-.442.584-.773,1.257-.925,2h-3.601C4.589,5,1,8.589,1,13c0,.87.148,1.721.418,2.527L.001,18.034l1.741.983.77-1.364c.421.586.913,1.126,1.487,1.586v4.761h6v-3h3v3h6v-3.999s0,0,0-.001v-.08c1.782-1.034,3.08-2.722,3.659-4.661-.745.394-1.58.638-2.464.7-.599,1.046-1.499,1.92-2.625,2.456l-.57.271v1.314s0,0,0,0h0v2h-2v-3h-7v3h-2v-3.782l-.427-.298c-1.611-1.125-2.573-2.964-2.573-4.92,0-3.309,2.691-6,6-6h3.023c-.644.756-1.023,1.71-1.023,2.731,0,2.343,1.907,4.25,4.25,4.25Zm2.25-10.981c1.654,0,3,1.346,3,3v1.546l.46.295c.651.417,1.04,1.124,1.04,1.89,0,.778-.398,1.465-1,1.869v-.601c0-.552-.448-1-1-1s-1,.448-1,1v.982h-3v-.982c0-.552-.448-1-1-1s-1,.448-1,1v.601c-.603-.404-1-1.091-1-1.869,0-.765.389-1.472,1.04-1.89l.46-.295v-1.546c0-1.654,1.346-3,3-3Z"/>
</svg>
