<?xml version="1.0" encoding="UTF-8"?>
<svg xmlns="http://www.w3.org/2000/svg" id="Layer_1" data-name="Layer 1" viewBox="0 0 24 24" width="512" height="512"><path d="M24,12c0,2.896-1.031,5.555-2.745,7.63l-1.427-1.427c1.355-1.707,2.171-3.86,2.171-6.203,0-5.514-4.486-10-10-10S2,6.486,2,12c0,2.79,1.151,5.314,3,7.129v.522c0,.838,.163,1.651,.471,2.403C2.183,19.912,0,16.209,0,12,0,5.383,5.383,0,12,0s12,5.383,12,12Zm-16-3c.321,0,1,.946,1,2h2c0-1.892-1.232-4-3-4s-3,2.108-3,4h2c0-1.054,.679-2,1-2Zm8-2c-1.768,0-3,2.108-3,4h2c0-1.054,.679-2,1-2s1,.946,1,2h2c0-1.892-1.232-4-3-4Zm1.758,11.192c.294,.294,.307,.747,.066,1.071-.003,.029-3.426,3.47-3.426,3.47-.845,.845-1.954,1.267-3.064,1.267-1.43,0-2.858-.701-3.722-2.102-.425-.69-.612-1.505-.612-2.316v-3.58c0-.552,.448-1,1-1s1,.448,1,1v1.119l4.377-4.377c.162-.162,.374-.242,.585-.242s.424,.081,.585,.242c.323,.323,.323,.847,0,1.171l-2.961,2.961,1.002,1.002,3.634-3.634c.162-.162,.373-.242,.585-.242s.424,.081,.585,.242c.323,.323,.323,.847,0,1.171l-3.631,3.631,.985,.985,1.84-1.84c.162-.162,.374-.242,.585-.242s.424,.081,.585,.242Z"/></svg>
