<?xml version="1.0" encoding="UTF-8"?>
<svg xmlns="http://www.w3.org/2000/svg" id="Layer_1" data-name="Layer 1" viewBox="0 0 24 24">
  <path d="m21,3H3c-1.654,0-3,1.346-3,3v15h9.074l2.059-3.527c.262-.45.693-.499.867-.499s.605.048.868.499l2.058,3.527h9.074V6c0-1.654-1.346-3-3-3Zm1,16h-5.926l-1.479-2.535c-.545-.934-1.515-1.491-2.596-1.491s-2.051.557-2.595,1.491l-1.479,2.535H2V6c0-.551.448-1,1-1h18c.552,0,1,.449,1,1v13Zm-5.5-12c-1.93,0-3.5,1.57-3.5,3.5s1.57,3.5,3.5,3.5,3.5-1.57,3.5-3.5-1.57-3.5-3.5-3.5Zm0,5c-.827,0-1.5-.673-1.5-1.5s.673-1.5,1.5-1.5,1.5.673,1.5,1.5-.673,1.5-1.5,1.5ZM7.5,7c-1.93,0-3.5,1.57-3.5,3.5s1.57,3.5,3.5,3.5,3.5-1.57,3.5-3.5-1.57-3.5-3.5-3.5Zm0,5c-.827,0-1.5-.673-1.5-1.5s.673-1.5,1.5-1.5,1.5.673,1.5,1.5-.673,1.5-1.5,1.5Z"/>
</svg>
