<?xml version="1.0" encoding="UTF-8"?>
<svg xmlns="http://www.w3.org/2000/svg" id="Layer_1" data-name="Layer 1" viewBox="0 0 24 24">
  <path d="m21,12c0-.538-.052-1.082-.153-1.626l3.052-1.755-2.991-5.201-3.051,1.754c-.841-.721-1.81-1.279-2.856-1.649V0h-6v3.522c-1.047.37-2.016.929-2.857,1.649l-3.05-1.754L.102,8.619l3.052,1.756c-.102.544-.153,1.088-.153,1.625s.051,1.081.153,1.625L.102,15.381l2.991,5.201,3.05-1.754c.841.721,1.81,1.279,2.857,1.649v3.522h6v-3.522c1.047-.37,2.016-.929,2.856-1.649l3.051,1.754,2.991-5.201-3.052-1.755c.102-.544.153-1.088.153-1.626Zm.168,4.117l-.997,1.734-2.629-1.512-.542.554c-.889.908-2.013,1.557-3.25,1.877l-.75.193v3.036h-2v-3.036l-.75-.193c-1.238-.32-2.361-.969-3.25-1.877l-.542-.554-2.629,1.512-.997-1.734,2.631-1.513-.205-.746c-.171-.624-.258-1.249-.258-1.858s.087-1.234.258-1.858l.205-.746-2.631-1.513.997-1.734,2.629,1.512.542-.554c.889-.908,2.012-1.557,3.25-1.877l.75-.193v-3.036h2v3.036l.75.193c1.237.32,2.361.969,3.25,1.877l.542.554,2.629-1.512.997,1.734-2.632,1.514.206.746c.171.621.258,1.246.258,1.857s-.087,1.236-.258,1.857l-.206.746,2.632,1.514Zm-7.805-8.583l3.051,3.052-1.414,1.414-2-2v7h-2v-7l-2,2-1.414-1.414,3.052-3.052c.727-.729,1.997-.729,2.726,0Z"/>
</svg>
