<?xml version="1.0" encoding="UTF-8"?>
<svg xmlns="http://www.w3.org/2000/svg" id="Layer_1" data-name="Layer 1" viewBox="0 0 24 24" width="512" height="512"><path d="m17.934,14.122c1.165-1.907,2.066-4.044,2.066-6.122C20,3.589,16.411,0,12,0S4,3.589,4,8c0,2.078.9,4.215,2.066,6.122-1.755.423-3.066,1.996-3.066,3.878v6h2v-6c0-1.103.897-2,2-2h.341c1.863,2.493,3.839,4.276,3.995,4.414l.664.591.664-.591c.156-.138,2.133-1.921,3.995-4.414h.341c1.103,0,2,.897,2,2v6h2v-6c0-1.883-1.311-3.455-3.066-3.878Zm-5.934,4.167c-1.688-1.66-6-6.296-6-10.288,0-3.309,2.691-6,6-6s6,2.691,6,6c0,3.984-4.313,8.626-6,10.288Zm3.792-8.997c-.868.868-2.777.694-2.777.694,0,0-.174-1.909.694-2.777.868-.868,2.777-.694,2.777-.694,0,0,.174,1.909-.694,2.777Zm-5.486-2.069c.868.868.694,2.777.694,2.777,0,0-1.909.174-2.777-.694s-.694-2.777-.694-2.777c0,0,1.909-.174,2.777.694Z"/></svg>
