<?xml version="1.0" encoding="UTF-8"?>
<svg xmlns="http://www.w3.org/2000/svg" id="Layer_1" data-name="Layer 1" viewBox="0 0 24 24">
  <path d="m17.977,19.998h.113l-1.925,3.241c-1.3.484-2.699.761-4.166.761C5.383,24,0,18.617,0,12S5.383,0,12,0c5.99,0,10.954,4.416,11.844,10.161l-2.403-1.428c-1.358-3.912-5.072-6.733-9.441-6.733C6.486,2,2,6.486,2,12s4.486,10,10,10c2.242,0,4.307-.751,5.977-2.002Zm5.791-3.314c-.273-.43-.74-.686-1.249-.686h-4.124l2.964-4.987-1.719-1.021-3.484,5.866c-.23.463-.206,1.002.066,1.441.272.438.743.701,1.259.701h4.122l-2.963,4.991,1.72,1.021,3.501-5.906c.215-.461.18-.992-.093-1.421ZM7,11v-4h-2v4h2Zm4,0v-4h-2v4h2Zm4,0v-4h-2v4h2Z"/>
</svg>
