<?xml version="1.0" encoding="UTF-8"?>
<svg xmlns="http://www.w3.org/2000/svg" id="Layer_1" data-name="Layer 1" viewBox="0 0 24 24" width="512" height="512"><path d="M14.345,9.145l-1.689-1.07c.912-1.439,2.279-2.577,3.953-3.29l.783,1.84c-1.299,.554-2.353,1.426-3.047,2.521ZM6.963,4.784l-.785,1.84c1.26,.537,2.293,1.376,2.988,2.428l1.668-1.104c-.912-1.379-2.251-2.474-3.871-3.164Zm-.963,7.216h4v-2H6v2Zm12-2h-4v2h4v-2ZM2.078,13.118c-.043-.368-.078-.739-.078-1.118C2,6.486,6.486,2,12,2s10,4.486,10,10c0,.379-.035,.75-.078,1.118,.718,.171,1.364,.529,1.874,1.03,.127-.698,.203-1.414,.203-2.148C24,5.383,18.617,0,12,0S0,5.383,0,12c0,.734,.076,1.45,.203,2.148,.511-.501,1.156-.859,1.874-1.03Zm4.922,4.882c-.051,0-.099,.011-.149,.015,1.234-1.506,3.149-4.015,3.149-4.015,0,0-3.373,1.435-5.101,2.403-.255-.811-1.004-1.403-1.899-1.403-1.105,0-2,.895-2,2,0,.415,.126,.8,.343,1.12-.78,.273-1.343,1.007-1.343,1.88,0,1.105,.895,2,2,2,.017,0,.033-.005,.05-.005,.23,1.143,1.239,2.005,2.45,2.005s2.22-.862,2.45-2.005c.017,0,.033,.005,.05,.005,1.105,0,2-.895,2-2s-.895-2-2-2Zm15.657,.12c.216-.32,.343-.705,.343-1.12,0-1.105-.895-2-2-2-.895,0-1.644,.592-1.899,1.403-1.728-.968-5.101-2.403-5.101-2.403,0,0,1.915,2.509,3.149,4.015-.05-.004-.098-.015-.149-.015-1.105,0-2,.895-2,2s.895,2,2,2c.017,0,.033-.005,.05-.005,.23,1.143,1.239,2.005,2.45,2.005s2.22-.862,2.45-2.005c.017,0,.033,.005,.05,.005,1.105,0,2-.895,2-2,0-.873-.563-1.608-1.343-1.88Zm-9.17,3.754c-.486,.075-.98,.127-1.487,.127s-1.001-.052-1.487-.127c-.387,.723-.983,1.309-1.715,1.68,1.021,.284,2.092,.446,3.203,.446s2.182-.162,3.203-.446c-.732-.372-1.328-.958-1.715-1.68Z"/></svg>
