<?xml version="1.0" encoding="UTF-8"?>
<svg xmlns="http://www.w3.org/2000/svg" id="Layer_1" data-name="Layer 1" viewBox="0 0 24 24">
  <path d="m21.5,19c-.46,0-.886.133-1.256.35l-3.12-2.269,1.876-1.072V7.991l-1.876-1.072,3.12-2.269c.37.217.796.35,1.256.35,1.381,0,2.5-1.119,2.5-2.5s-1.119-2.5-2.5-2.5-2.5,1.119-2.5,2.5c0,.185.023.364.061.537l-3.841,2.794-3.22-1.84-3.22,1.84-3.841-2.794c.038-.173.061-.352.061-.537,0-1.381-1.119-2.5-2.5-2.5S0,1.119,0,2.5s1.119,2.5,2.5,2.5c.46,0,.886-.133,1.256-.35l3.12,2.269-1.876,1.072v8.018l1.876,1.072-3.12,2.269c-.37-.217-.796-.35-1.256-.35-1.381,0-2.5,1.119-2.5,2.5s1.119,2.5,2.5,2.5,2.5-1.119,2.5-2.5c0-.185-.023-.364-.061-.537l3.841-2.794,3.22,1.84,3.22-1.84,3.841,2.794c-.038.173-.061.352-.061.537,0,1.381,1.119,2.5,2.5,2.5s2.5-1.119,2.5-2.5-1.119-2.5-2.5-2.5ZM7,10.134l4,2.285v4.716l-4-2.286v-4.715Zm6,2.285l4-2.285v4.715l-4,2.286v-4.716Zm2.845-3.928l-3.845,2.196-3.845-2.196,3.845-2.197,3.845,2.197Z"/>
</svg>
