<?xml version="1.0" encoding="UTF-8"?>
<svg xmlns="http://www.w3.org/2000/svg" id="Layer_1" data-name="Layer 1" viewBox="0 0 24 24">
  <path d="m11.822,9.642c.244.382.275.855.085,1.267l-3.049,5.105-1.717-1.027,2.367-3.954h-3.006c-.461,0-.881-.234-1.124-.627-.242-.392-.264-.872-.058-1.284l2.803-5.103,1.753.963-2.226,4.051h3.059c.453,0,.868.228,1.112.609Zm12.178,9.358h-2.041c.024.165.041.331.041.5,0,1.93-1.57,3.5-3.5,3.5s-3.5-1.57-3.5-3.5c0-.169.017-.335.041-.5h-6.082c.024.165.041.331.041.5,0,1.93-1.57,3.5-3.5,3.5s-3.5-1.57-3.5-3.5c0-.169.017-.335.041-.5H0V4C0,2.346,1.346,1,3,1h11c1.654,0,3,1.346,3,3v1h2c2.757,0,5,2.243,5,5v9Zm-7-12v4h5v-1c0-1.654-1.346-3-3-3h-2Zm-2-3c0-.552-.448-1-1-1H3c-.552,0-1,.448-1,1v13h13V4Zm7,13v-4h-5v4h5Z"/>
</svg>
