<?xml version="1.0" encoding="UTF-8"?>
<svg xmlns="http://www.w3.org/2000/svg" id="Layer_1" data-name="Layer 1" viewBox="0 0 24 24">
  <path d="m24,9v2h-6.27c.431-.615.768-1.285.98-2h5.29Zm-18.71,0H0v2h6.27c-.431-.615-.768-1.285-.98-2Zm13.937,4.589c-.707.537-1.749.536-2.454,0-1.027-.783-2.519-.782-3.546,0-.707.537-1.749.536-2.454,0-1.027-.783-2.519-.782-3.546,0-.707.537-1.749.536-2.454,0-1.027-.783-2.519-.782-3.546,0-.354.269-.778.411-1.228.411v2c.891,0,1.734-.283,2.439-.82.314-.238.808-.239,1.122,0,1.408,1.072,3.468,1.073,4.878,0,.314-.238.808-.239,1.122,0,1.408,1.072,3.468,1.073,4.878,0,.314-.238.808-.239,1.122,0,1.408,1.072,3.468,1.073,4.878,0,.314-.238.808-.239,1.122,0,.704.536,1.548.819,2.438.819v-2c-.449,0-.874-.143-1.227-.41-1.027-.783-2.519-.782-3.546,0ZM1.5,18c-.828,0-1.5.672-1.5,1.5s.672,1.5,1.5,1.5,1.5-.672,1.5-1.5-.672-1.5-1.5-1.5Zm5,3c-.828,0-1.5.672-1.5,1.5s.672,1.5,1.5,1.5,1.5-.672,1.5-1.5-.672-1.5-1.5-1.5Zm11,0c-.828,0-1.5.672-1.5,1.5s.672,1.5,1.5,1.5,1.5-.672,1.5-1.5-.672-1.5-1.5-1.5Zm-5.5-3c-.828,0-1.5.672-1.5,1.5s.672,1.5,1.5,1.5,1.5-.672,1.5-1.5-.672-1.5-1.5-1.5Zm10.5,0c-.828,0-1.5.672-1.5,1.5s.672,1.5,1.5,1.5,1.5-.672,1.5-1.5-.672-1.5-1.5-1.5Zm-14.035-7.465c-.944-.944-1.465-2.199-1.465-3.535s.521-2.592,1.465-3.535L12,.007l3.527,3.45c.952.951,1.473,2.207,1.473,3.543s-.521,2.592-1.465,3.535c-.943.944-2.199,1.465-3.535,1.465s-2.591-.521-3.535-1.465Zm.535-3.535c0,.802.312,1.555.879,2.121,1.133,1.134,3.11,1.134,4.241,0,.567-.566.88-1.319.88-2.121s-.313-1.555-.879-2.121l-2.121-2.075-2.129,2.083c-.559.559-.871,1.312-.871,2.113Z"/>
</svg>
