<?xml version="1.0" encoding="UTF-8"?>
<svg xmlns="http://www.w3.org/2000/svg" id="Layer_1" data-name="Layer 1" viewBox="0 0 24 24" width="512" height="512"><path d="M12,24c-5.514,0-10-4.486-10-10h0c0-3.358,1.505-5.459,3.765-7.58l2.448-2.299-.792,3.263c-.275,1.136-.347,4.606,1.112,6.461,.611,.777,1.418,1.155,2.467,1.155,1.107,0,1.986-.884,2-2.013,.014-1.117-.458-2.042-.958-3.02-.512-1.002-1.042-2.037-1.042-3.295,0-2.711,1.412-5.168,1.472-5.271L13.3-.021l.881,1.391c.849,1.339,1.994,2.587,3.103,3.794,2.319,2.524,4.717,5.136,4.717,8.837,0,5.514-4.486,10-10,10ZM4,14c0,4.411,3.589,8,8,8s8-3.589,8-8c0-2.922-2.035-5.139-4.19-7.484-.77-.839-1.558-1.696-2.276-2.611-.276,.773-.534,1.763-.534,2.769,0,.776,.381,1.521,.822,2.385,.562,1.098,1.198,2.342,1.178,3.955-.027,2.198-1.822,3.987-4,3.987-1.655,0-3.052-.664-4.04-1.919-1.146-1.457-1.569-3.477-1.664-5.186-.837,1.167-1.296,2.425-1.296,4.104h0Z"/></svg>
