<?xml version="1.0" encoding="UTF-8"?>
<svg xmlns="http://www.w3.org/2000/svg" id="Layer_1" data-name="Layer 1" viewBox="0 0 24 24">
  <path d="m15,13.246l5-.909v2.033l-5,.909v-2.033Zm-11,1.124l5,.909v-2.033l-5-.909v2.033Zm0-4l5,.909v-2.033l-5-.909v2.033Zm11,.909l5-.909v-2.033l-5,.909v2.033ZM4,6.369l5,.909v-2.033l-5-.909v2.033Zm11,.909l5-.909v-2.033l-5,.909v2.033Zm-11,11.091l3,.545v-2.033l-3-.545v2.033Zm11,.909l3-.545v-2.033l-3,.545v2.033ZM24,2.995v18.821l-12,2.182L0,21.816V2.995c0-.892.393-1.731,1.078-2.303S2.659-.117,3.537.043l6.179,1.124c.914.166,1.707.634,2.285,1.289.578-.655,1.371-1.123,2.285-1.289L20.463.043c.877-.161,1.773.077,2.459.648.685.572,1.078,1.411,1.078,2.303Zm-13,2.107c0-.967-.69-1.795-1.642-1.968l-6.179-1.124c-.402-.073-.686.104-.82.216-.134.112-.359.36-.359.768v17.152l9,1.636V5.102Zm11-2.107c0-.407-.225-.656-.359-.768s-.421-.289-.82-.216l-6.179,1.124c-.952.173-1.642,1-1.642,1.968v16.681l9-1.636V2.995Z"/>
</svg>
