<?xml version="1.0" encoding="UTF-8"?>
<svg xmlns="http://www.w3.org/2000/svg" id="Layer_1" data-name="Layer 1" viewBox="0 0 24 24">
  <path d="m19.5,15H4.5c-2.481,0-4.5,2.019-4.5,4.5s2.019,4.5,4.5,4.5h15c2.481,0,4.5-2.019,4.5-4.5s-2.019-4.5-4.5-4.5Zm0,7H4.5c-1.379,0-2.5-1.122-2.5-2.5s1.121-2.5,2.5-2.5h15c1.379,0,2.5,1.122,2.5,2.5s-1.121,2.5-2.5,2.5Zm.5-19c0-1.654-1.346-3-3-3H7c-1.654,0-3,1.346-3,3v10h16V3Zm-9-1h2v3h-2v-3Zm7,9H6V3c0-.551.448-1,1-1h2v5h6V2h2c.552,0,1,.449,1,1v8Zm-12,8.5c0,.828-.672,1.5-1.5,1.5s-1.5-.672-1.5-1.5.672-1.5,1.5-1.5,1.5.672,1.5,1.5Zm15,0c0,.828-.672,1.5-1.5,1.5s-1.5-.672-1.5-1.5.672-1.5,1.5-1.5,1.5.672,1.5,1.5Zm-7.5,0c0,.828-.672,1.5-1.5,1.5s-1.5-.672-1.5-1.5.672-1.5,1.5-1.5,1.5.672,1.5,1.5Z"/>
</svg>
