<?xml version="1.0" encoding="UTF-8"?>
<svg xmlns="http://www.w3.org/2000/svg" id="Layer_1" data-name="Layer 1" viewBox="0 0 24 24" width="512" height="512"><path d="M11,15h-2v-2h2v2Zm4-2h-2v2h2v-2Zm-4,4h-2v2h2v-2Zm4,0h-2v2h2v-2ZM11,5h-2v2h2v-2Zm4,0h-2v2h2v-2Zm-4,4h-2v2h2v-2Zm4,0h-2v2h2v-2Zm9-1c0-1.654-1.346-3-3-3h-2V3c0-1.654-1.346-3-3-3H8c-1.654,0-3,1.346-3,3v6H3c-1.654,0-3,1.346-3,3v12H24V8ZM2,12c0-.552,.449-1,1-1H7V3c0-.552,.449-1,1-1h8c.551,0,1,.448,1,1V7h4c.551,0,1,.448,1,1v14H2V12Zm18,1h-2v2h2v-2Zm0,4h-2v2h2v-2ZM6,13h-2v2h2v-2Zm0,4h-2v2h2v-2Zm14-8h-2v2h2v-2Z"/></svg>
