<?xml version="1.0" encoding="UTF-8"?>
<svg xmlns="http://www.w3.org/2000/svg" id="Layer_1" data-name="Layer 1" viewBox="0 0 24 24">
  <path d="m20.036,13.891s-.001-.007-.002-.011c0,0,.001.006.003.011h0Zm3.514,6.15c-.351.437-.849.711-1.404.771l-1.199.133-.132,1.192c-.047.469-.261.921-.603,1.26-.216.218-.489.39-.787.493-.226.081-.46.121-.693.121-.549,0-1.09-.218-1.485-.623l-3.724-3.723c-.477.231-1,.346-1.522.346-.519,0-1.038-.114-1.512-.342l-3.727,3.726c-.389.398-.925.614-1.474.614-.237,0-.477-.04-.707-.124-.285-.099-.559-.271-.78-.492-.339-.338-.553-.789-.601-1.268l-.131-1.182-1.2-.133c-.554-.061-1.052-.335-1.402-.771-.35-.436-.509-.982-.448-1.537.053-.473.265-.916.598-1.249l3.344-3.344c-.002.011-.004.021,0,0,0-.005.002-.008.002-.01.06-.284-.05-.715-.315-.887-.5-.323-.904-.76-1.202-1.297-.286-.515-.435-1.106-.431-1.711-.003-.592.146-1.184.431-1.699.3-.54.704-.976,1.203-1.298.268-.173.405-.479.34-.764-.135-.593-.115-1.2.06-1.806.329-1.147,1.247-2.064,2.395-2.394.605-.175,1.212-.196,1.806-.059.282.065.59-.073.763-.341.321-.499.758-.904,1.298-1.202,1.044-.578,2.342-.577,3.386,0,.538.298.974.702,1.297,1.201.173.269.479.408.765.341.591-.135,1.197-.115,1.805.06,1.147.329,2.064,1.246,2.394,2.395.175.605.194,1.214.059,1.806-.063.282.073.59.342.763.499.322.902.759,1.201,1.297h0c.284.516.434,1.106.431,1.711.003.596-.146,1.187-.432,1.7-.298.537-.701.974-1.199,1.296-.267.173-.38.584-.321.868,0,0,0,.002.002.011.004.018.003.01,0,0l3.364,3.364c.334.336.545.778.598,1.248.061.557-.099,1.103-.448,1.538Zm-14.57-1.707c-.176-.24-.468-.361-.737-.299-.591.135-1.198.114-1.804-.06-.882-.252-1.629-.854-2.077-1.641l-2.335,2.335c-.029.097.014.15.057.155l2.793.311.314,2.784.064.087,3.723-3.672Zm7.215-2.25c.264.061.535.05.811-.03.484-.139.886-.54,1.024-1.023.08-.277.09-.551.031-.81-.25-1.103.235-2.262,1.207-2.889.218-.141.399-.339.537-.587.118-.214.181-.467.18-.729,0-.272-.062-.525-.181-.741-.138-.247-.318-.444-.536-.586-.972-.626-1.457-1.786-1.208-2.887.06-.261.05-.533-.03-.811-.139-.483-.541-.886-1.023-1.024-.278-.079-.55-.089-.81-.031-1.1.249-2.263-.235-2.889-1.206-.141-.219-.338-.399-.585-.536-.44-.244-1.009-.244-1.448,0-.248.137-.445.316-.585.535-.627.972-1.787,1.453-2.888,1.208-.261-.06-.532-.05-.809.03-.484.139-.887.541-1.025,1.023-.08.278-.091.551-.032.811.25,1.101-.234,2.261-1.207,2.888-.219.142-.4.339-.537.587-.119.215-.182.468-.18.729-.001.273.061.525.18.74.137.248.319.446.539.589.971.626,1.456,1.786,1.205,2.886-.059.26-.048.532.031.811.139.483.541.885,1.023,1.022.278.082.55.093.809.032.193-.044.388-.065.581-.065.911,0,1.791.471,2.309,1.271.142.221.338.4.585.537.441.244,1.009.245,1.448,0,.248-.138.445-.318.587-.538.627-.971,1.79-1.451,2.886-1.206Zm5.814,2.638l-2.372-2.391c-.448.79-1.196,1.393-2.081,1.646-.604.173-1.211.193-1.805.058-.264-.057-.556.06-.733.3l3.649,3.649.005-.002.096.021v-.006l.058-.079.31-2.782,2.791-.311c.045-.005.088-.059.083-.103Zm-7.499-9.086c.308-.471.488-1.033.488-1.637,0-1.654-1.346-3-3-3h-2.5v2h2.5c.551,0,1,.448,1,1s-.449,1-1,1h-1v2h1.667c.551,0,1,.448,1,1s-.449,1-1,1h-3.167v2h3.167c1.655,0,3-1.346,3-3,0-.959-.453-1.813-1.155-2.363ZM3.962,13.901c.001-.007,0,.003-.003.011h0s.001-.008.002-.011Z"/>
</svg>
