<?xml version="1.0" encoding="UTF-8"?>
<svg xmlns="http://www.w3.org/2000/svg" id="Layer_1" data-name="Layer 1" viewBox="0 0 24 24">
  <path d="m15.667,17c0,1.654-1.346,3-3,3h-3.167v-2h3.167c.552,0,1-.448,1-1s-.448-1-1-1h-1.667v-2h1c.552,0,1-.448,1-1s-.448-1-1-1h-2.5v-2h2.5c1.654,0,3,1.346,3,3,0,.604-.18,1.166-.488,1.637.702.55,1.155,1.404,1.155,2.363Zm3.55-7.372c1.12,1.5,1.783,3.36,1.783,5.372,0,4.963-4.037,9-9,9S3,19.963,3,15c0-2.011.663-3.871,1.782-5.371L.031,0h9.102l2.875,5.826L14.89,0h9.091l-4.764,9.628Zm-5.179-3.395c1.387.322,2.652.966,3.712,1.849l3.01-6.082h-4.628l-2.094,4.233ZM3.248,2l3.001,6.083c1.064-.886,2.334-1.532,3.727-1.853l-2.088-4.229H3.248Zm15.752,13c0-3.859-3.141-7-7-7s-7,3.141-7,7,3.141,7,7,7,7-3.141,7-7Z"/>
</svg>
