<?xml version="1.0" encoding="UTF-8"?>
<svg xmlns="http://www.w3.org/2000/svg" id="Layer_1" data-name="Layer 1" viewBox="0 0 24 24">
  <path d="m21,21v3h-2v-3c0-1.229-.729-2.301-1.823-2.762l-5.177,5.176-5.177-5.176c-1.095.461-1.823,1.533-1.823,2.762v3h-2v-3c0-2.346,1.595-4.35,3.878-4.873l.539-.124,4.583,4.583,4.583-4.583.539.124c2.283.523,3.878,2.527,3.878,4.873ZM6,6l-2-1v-3L10.302.209c1.115-.279,2.281-.279,3.396,0l6.302,1.791v3l-2,1v3c0,3.309-2.691,6-6,6s-6-2.691-6-6v-3Zm10,1.615c-.976.206-2.309.385-4,.385s-3.024-.179-4-.385v1.385c0,2.206,1.794,4,4,4s4-1.794,4-4v-1.385Zm-6-3.55c0,1.331,1.552,2.211,2.001,2.435.447-.18,1.999-.922,1.999-2.435v-1.45c0-.191-.122-.36-.304-.421l-1.696-.562-1.696.562c-.182.06-.304.229-.304.421v1.45Z"/>
</svg>
