<?xml version="1.0" encoding="UTF-8"?>
<svg xmlns="http://www.w3.org/2000/svg" id="Layer_1" data-name="Layer 1" viewBox="0 0 24 24" width="512" height="512"><path d="M22,9h-3V3c0-1.654-1.346-3-3-3H8c-1.654,0-3,1.346-3,3v6H2v2h1.939c-.612,1.236-.939,2.608-.939,4,0,4.963,4.038,9,9,9s9-4.037,9-9c0-1.392-.327-2.764-.939-4h1.939v-2ZM7,3c0-.552,.449-1,1-1h8c.551,0,1,.448,1,1v6H7V3Zm12,12c0,3.859-3.14,7-7,7s-7-3.141-7-7c0-1.452,.432-2.826,1.255-4h11.49c.822,1.174,1.255,2.548,1.255,4Zm-12-.5c0-.828,.672-1.5,1.5-1.5s1.5,.672,1.5,1.5-.672,1.5-1.5,1.5-1.5-.672-1.5-1.5Zm7,0c0-.828,.672-1.5,1.5-1.5s1.5,.672,1.5,1.5-.672,1.5-1.5,1.5-1.5-.672-1.5-1.5Zm-2,6.5s-1.5-2.672-1.5-3.5,.672-1.5,1.5-1.5,1.5,.672,1.5,1.5-1.5,3.5-1.5,3.5Z"/></svg>
