<?xml version="1.0" encoding="UTF-8"?>
<svg xmlns="http://www.w3.org/2000/svg" id="Layer_1" data-name="Layer 1" viewBox="0 0 24 24">
  <path d="m18.966,23.208l.133.792H4.901l.196-1.166c.263-1.564,1.041-2.969,2.193-4.015-3.146-1.687-5.291-5.007-5.291-8.82,0-1.116.18-2.201.529-3.228l1.629,1.629c-.105.521-.159,1.055-.159,1.599,0,4.411,3.589,8,8,8,.544,0,1.079-.054,1.599-.158l1.623,1.623c-1.032.351-2.121.535-3.222.535-.869,0-1.712-.112-2.517-.321-.931.544-1.649,1.358-2.068,2.321h10.342l1.208,1.208Zm4.991-.665l-1.414,1.414L.043,1.457,1.457.043l3.184,3.184C6.533,1.166,9.17,0,12,0c5.514,0,10,4.486,10,10,0,2.819-1.169,5.465-3.228,7.358l5.185,5.185ZM6.058,4.644l2.126,2.126c.94-1.11,2.331-1.77,3.816-1.77,2.757,0,5,2.243,5,5,0,1.485-.66,2.876-1.77,3.816l2.126,2.126c1.685-1.518,2.644-3.66,2.644-5.942,0-4.411-3.589-8-8-8-2.292,0-4.425.957-5.942,2.644Zm8.942,5.356c0-1.654-1.346-3-3-3-.948,0-1.831.448-2.394,1.192l4.202,4.202c.744-.563,1.192-1.446,1.192-2.394Z"/>
</svg>
