<?xml version="1.0" encoding="UTF-8"?>
<svg xmlns="http://www.w3.org/2000/svg" id="Layer_1" data-name="Layer 1" viewBox="0 0 24 24">
  <path d="m21,2h-3V0h-2v2h-8V0h-2v2h-3c-1.654,0-3,1.346-3,3v19h12.715c-.649-.572-1.204-1.247-1.641-2H2v-12h20v1.074c.753.436,1.428.992,2,1.641v-7.715c0-1.654-1.346-3-3-3ZM2,8v-3c0-.551.449-1,1-1h18c.551,0,1,.449,1,1v3H2Zm16,4c-3.309,0-6,2.691-6,6s2.691,6,6,6,6-2.691,6-6-2.691-6-6-6Zm3,8.643v-.143c0-.828-.672-1.5-1.5-1.5h-3c-.828,0-1.5.672-1.5,1.5v.143c-.622-.705-1-1.631-1-2.643,0-2.206,1.794-4,4-4s4,1.794,4,4c0,1.012-.378,1.937-1,2.643Zm-1.5-4.143c0,.828-.672,1.5-1.5,1.5s-1.5-.672-1.5-1.5.672-1.5,1.5-1.5,1.5.672,1.5,1.5Z"/>
</svg>
