<?xml version="1.0" encoding="UTF-8"?>
<svg xmlns="http://www.w3.org/2000/svg" id="Layer_1" data-name="Layer 1" viewBox="0 0 24 24">
  <path d="m4.5,4.5l-2-1,2-1,1-2,1,2,2,1-2,1-1,2-1-2Zm17.5,17.5h2v2H6.558c-3.224,0-6.558-2.058-6.558-5.5,0-2.135.945-3.659,1.778-5.004.655-1.057,1.222-1.969,1.222-2.996,0-1.299-.363-2.5-3-2.5v-2c4.351,0,5,2.819,5,4.5,0,1.597-.773,2.844-1.521,4.051-.761,1.226-1.479,2.384-1.479,3.949,0,1.791,1.467,2.851,2.997,3.279.007-1.265.344-7.635,6.23-10.825-.774-1.126-1.227-2.488-1.227-3.954,0-3.859,3.141-7,7-7s7,3.141,7,7c0,1.903-.764,3.63-2,4.893v10.107ZM13,7c0,2.205,1.795,4,4,4s4-1.795,4-4V3l-2.028,1.521c-.582-.331-1.255-.521-1.972-.521s-1.39.19-1.972.521l-2.028-1.521v4Zm5,15h2v-8.676c-.91.433-1.927.676-3,.676-1.645,0-3.16-.571-4.357-1.525-5.887,2.824-5.658,9.189-5.644,9.476v.05h9.001c0-2.206-1.794-4-4-4v-2c3.309,0,6,2.691,6,6Z"/>
</svg>
