<?xml version="1.0" encoding="UTF-8"?>
<svg xmlns="http://www.w3.org/2000/svg" id="Layer_1" data-name="Layer 1" viewBox="0 0 24 24">
  <path d="m23.251,15.381c-4.921-1.276-8.272.885-10.251,3.451v-3.265c.534-.492,1.441-1.473,1.822-2.737,1.644.278,3.256-.333,3.477-.421l.71-.285-.089-.76c-.025-.216-.243-1.837-1.21-3.135.967-1.298,1.185-2.919,1.21-3.135l.089-.759-.71-.285c-.221-.088-1.83-.7-3.469-.422-.513-1.73-2.017-2.937-2.22-3.093l-.61-.471-.61.471c-.203.156-1.707,1.362-2.219,3.093-1.644-.274-3.249.334-3.47.422l-.71.285.089.76c.025.214.243,1.828,1.204,3.124-.961,1.296-1.178,2.91-1.204,3.124l-.089.76.71.285c.221.089,1.825.7,3.471.422.378,1.273,1.292,2.261,1.829,2.756v3.265c-1.978-2.566-5.327-4.728-10.251-3.451l-.797.207.05.822c.143,2.336,1.039,4.183,2.661,5.488,2.758,2.219,6.843,2.189,8.619,2.052h1.437c1.775.137,5.862.167,8.619-2.052,1.623-1.306,2.518-3.152,2.661-5.488l.051-.822-.798-.207Zm-13.73-4.769c-.661.361-1.581.294-2.271.15.184-.603.51-1.339,1.033-1.774l.925-.769-.925-.769c-.523-.435-.85-1.172-1.033-1.774.694-.145,1.612-.209,2.271.15l1.479.807v-1.861c0-.766.521-1.538,1-2.07.476.53,1,1.306,1,2.07v1.861l1.479-.807c.661-.361,1.58-.295,2.271-.15-.184.606-.513,1.347-1.041,1.782l-.938.772.938.772c.528.434.857,1.175,1.041,1.78-.688.143-1.613.209-2.271-.149l-1.479-.806v1.835c0,.766-.521,1.538-1,2.07-.479-.532-1-1.305-1-2.07v-1.857l-1.479.807Zm-5.609,9.724c-.983-.793-1.582-1.846-1.816-3.202,5.056-.863,7.531,2.859,8.476,4.852-1.691.071-4.702-.068-6.66-1.649Zm16.176,0c-1.96,1.583-4.973,1.722-6.665,1.649.938-1.993,3.408-5.719,8.481-4.852-.234,1.356-.833,2.409-1.816,3.202Zm-8.088-10.586c-.828,0-1.5-.672-1.5-1.5s.672-1.5,1.5-1.5,1.5.672,1.5,1.5-.672,1.5-1.5,1.5Z"/>
</svg>
