<?xml version="1.0" encoding="UTF-8"?>
<svg xmlns="http://www.w3.org/2000/svg" id="Layer_1" data-name="Layer 1" viewBox="0 0 24 24" width="512" height="512"><path d="M23.994,10.185c-.044-.667-.346-1.275-.836-1.703l-6.882-6.229C12.217-1.299,8.074,.12,6.448,1.367l-.958,.735,5.76,5.137L.074,20.018l4.518,3.949L15.727,11.233l2.811,2.507c.459,.401,1.037,.618,1.642,.618,.057,0,.113-.002,.171-.006,.666-.045,1.275-.346,1.715-.849l1.316-1.506c.439-.503,.657-1.146,.612-1.812ZM14.947,3.746l4.286,3.88-1.992,2.277L8.781,2.357c1.308-.509,3.617-.84,6.166,1.389ZM4.402,21.145l-1.506-1.316L12.743,8.571l1.492,1.331L4.402,21.145ZM21.876,10.681l-1.316,1.506c-.118,.135-.266,.164-.343,.169-.076,.008-.228-.005-.354-.115l-1.128-1.006,1.982-2.266,1.112,1.007c.136,.118,.165,.266,.17,.343,.005,.076-.004,.227-.123,.362Z"/></svg>
