<?xml version="1.0" encoding="UTF-8"?>
<svg xmlns="http://www.w3.org/2000/svg" id="Layer_1" data-name="Layer 1" viewBox="0 0 24 24">
  <path d="m14.73,8.651l-1.316,1.317,1.316,1.317-1.414,1.414-1.316-1.317-1.316,1.317-1.414-1.414,1.316-1.317-1.316-1.317,1.414-1.414,1.316,1.317,1.316-1.317,1.414,1.414Zm5.062-1.414l-1.317,1.317-1.317-1.317-1.414,1.414,1.317,1.317-1.317,1.317,1.414,1.414,1.317-1.317,1.317,1.317,1.414-1.414-1.317-1.317,1.317-1.317-1.414-1.414Zm-12.952,0l-1.317,1.317-1.317-1.317-1.414,1.414,1.317,1.317-1.317,1.317,1.414,1.414,1.317-1.317,1.317,1.317,1.414-1.414-1.317-1.317,1.317-1.317-1.414-1.414Zm6.159,11.763v2h5v2H6v-2h5v-2H0V4C0,2.346,1.346,1,3,1h18c1.654,0,3,1.346,3,3v15h-11Zm-11-2h20V4c0-.551-.448-1-1-1H3c-.552,0-1,.449-1,1v13Z"/>
</svg>
