<?xml version="1.0" encoding="UTF-8"?>
<svg xmlns="http://www.w3.org/2000/svg" id="Layer_1" data-name="Layer 1" viewBox="0 0 24 24" width="512" height="512"><path d="M1.011,15.372l5.079,3.611L23.966,10.452l-1.256-2.713c-.695-1.5-2.482-2.157-3.982-1.461l-2.818,1.356L9.359,3.591c-.882-.656-2.048-.775-3.053-.311l-3.532,1.659,6.599,5.84-3.101,1.492-3.041-1.115c-.603-.223-1.255-.195-1.838,.075C.607,11.596,.09,12.329,.01,13.192s.294,1.678,1,2.18ZM6.377,5.457l.775-.364c.333-.154,.722-.113,1.085,.151l5.533,3.419-2.443,1.175L6.377,5.457ZM2.002,13.376c.008-.087,.079-.367,.402-.367,.047,0,.094,.009,.138,.024l3.834,1.408,13.196-6.351c.5-.229,1.091-.009,1.322,.489l.425,.919-15.03,7.172-4.121-2.93c-.165-.116-.176-.279-.167-.365Zm21.998,8.624v2H0v-2H24Z"/></svg>
