<?xml version="1.0" encoding="UTF-8"?>
<svg xmlns="http://www.w3.org/2000/svg" id="Layer_1" data-name="Layer 1" viewBox="0 0 24 24">
  <path d="m20.741,5.991c.21-.595.299-1.234.243-1.88-.114-1.326-.812-2.532-1.913-3.309-1.422-1.002-3.378-1.072-4.87-.174-.307.185-.59.403-.841.647-.807.786-2.119,1.723-3.788,1.723h-.794C4.18,2.998.334,6.462.022,10.884c-.174,2.468.725,4.883,2.468,6.625.844.844,1.848,1.484,2.938,1.906l.573,4.583h2.191l-.499-4.04c.271.026.544.04.818.04.201,0,.403-.007.604-.021.447-.032.881-.108,1.305-.209l.529,4.231h2.168l-.706-4.987c2.729-1.469,4.589-4.425,4.589-7.791l.021-2.262c.615-.069,1.187-.271,1.708-.568,3.845,3.229,4.272,8.608,4.272,8.608h1c0-5.446-2.104-9.299-3.259-11.007Zm-3.943.98c-1.025.115-1.798.952-1.798,1.947v2.302c0,3.553-2.647,6.523-6.026,6.761-1.891.131-3.737-.555-5.07-1.887-1.333-1.333-2.021-3.181-1.887-5.071.238-3.379,3.208-6.026,6.761-6.026h.794c1.852,0,3.645-.792,5.183-2.29.141-.137.301-.261.477-.366.823-.495,1.901-.458,2.686.095.627.442,1.008,1.098,1.073,1.846.063.737-.2,1.46-.723,1.983-.398.398-.907.642-1.47.705Zm1.202-2.473c0,.828-.672,1.5-1.5,1.5s-1.5-.672-1.5-1.5.672-1.5,1.5-1.5,1.5.672,1.5,1.5Z"/>
</svg>
