<?xml version="1.0" encoding="UTF-8"?>
<svg xmlns="http://www.w3.org/2000/svg" id="Layer_1" data-name="Layer 1" viewBox="0 0 24 24" width="512" height="512"><path d="m21,21.317v2.667h-2v-2.667c0-1.483-1.01-2.756-2.416-3.133l-4.559,4.949-4.589-4.954c-1.417.369-2.436,1.645-2.436,3.138v2.667h-2v-2.667c0-2.676,2.015-4.917,4.687-5.213l.501-.056,3.832,4.138,3.812-4.138.506.059c2.658.308,4.662,2.548,4.662,5.21ZM6,6l-2-1v-3L10.302.209c1.115-.279,2.281-.279,3.396,0l6.302,1.791v3l-2,1v3c0,3.309-2.691,6-6,6s-6-2.691-6-6v-3Zm10,1.615c-.976.206-2.309.385-4,.385s-3.024-.179-4-.385v1.385c0,2.206,1.794,4,4,4s4-1.794,4-4v-1.385Zm-7.015-3.424l3.015,1.809,3.015-1.809-1.029-1.715-1.985,1.191-1.985-1.191-1.029,1.715Z"/></svg>
