<?xml version="1.0" encoding="UTF-8"?>
<svg xmlns="http://www.w3.org/2000/svg" id="Layer_1" data-name="Layer 1" viewBox="0 0 24 24">
  <path d="m16,8.5c0-.828.448-1.5,1-1.5s1,.672,1,1.5-.448,1.5-1,1.5-1-.672-1-1.5Zm7.952,14.038l-1.414,1.414L.018,1.432,1.432.018l1.069,1.069c.745-.708,1.607-1.087,2.499-1.087h12c2.604,0,4.684,3.221,4.967,7.5l.033,13.086,1.952,1.952Zm-3.952-7.193c-.531.667-1.146,1.158-1.817,1.425l1.817,1.817v-3.241Zm-3-13.345c-1.419,0-3,2.669-3,6.5,0,2.618.738,4.693,1.659,5.745,0,0,.726.755,1.341.755,1.419,0,3-2.669,3-6.5s-1.581-6.5-3-6.5Zm-13.084.502l8.256,8.256c-.112-.717-.172-1.473-.172-2.258,0-2.634.671-4.953,1.745-6.5H5c-.416,0-.789.23-1.084.502Zm8.084,19.498c-1.103,0-2-.897-2-2v-3h2.757l-2-2h-5.757c-1.419,0-3-2.669-3-6.5,0-.717.064-1.417.175-2.082l-1.677-1.677c-.323,1.149-.498,2.428-.498,3.759,0,4.767,2.196,8.5,5,8.5h3v3c0,2.206,1.794,4,4,4h7.757l-2-2h-5.757Z"/>
</svg>
