<?xml version="1.0" encoding="UTF-8"?>
<svg xmlns="http://www.w3.org/2000/svg" id="Layer_1" data-name="Layer 1" viewBox="0 0 24 24" width="512" height="512"><path d="M12,0C5.383,0,0,5.383,0,12s5.383,12,12,12,12-5.383,12-12S18.617,0,12,0Zm0,22c-5.514,0-10-4.486-10-10S6.486,2,12,2s10,4.486,10,10-4.486,10-10,10Zm-3.108-15.376c-1.282,.546-2.364,1.441-3.048,2.521l-1.689-1.07c.912-1.438,2.279-2.576,3.953-3.29l.784,1.84Zm10.872,1.324l-1.668,1.104c-.695-1.052-1.729-1.892-2.988-2.428l.784-1.84c1.621,.69,2.959,1.785,3.872,3.164Zm-11.264,4.052c-.828,0-1.5-.672-1.5-1.5s.672-1.5,1.5-1.5,1.5,.672,1.5,1.5-.672,1.5-1.5,1.5Zm8.5-1.5c0,.828-.672,1.5-1.5,1.5s-1.5-.672-1.5-1.5,.672-1.5,1.5-1.5,1.5,.672,1.5,1.5Zm-2,5.5v1c0,1.657-1.343,3-3,3s-3-1.343-3-3v-1c0-1.657,1.343-3,3-3s3,1.343,3,3Z"/></svg>
