<?xml version="1.0" encoding="UTF-8"?>
<svg xmlns="http://www.w3.org/2000/svg" id="Layer_1" data-name="Layer 1" viewBox="0 0 24 24" width="512" height="512"><path d="M21,9c0-2.206-1.794-4-4-4h-4V2.023c3.2,.144,5.668,.921,5.694,.929l.611-1.904c-.133-.043-3.307-1.048-7.306-1.048S4.827,1.005,4.694,1.048l.611,1.904c.027-.009,2.482-.786,5.694-.93v2.977H7c-2.206,0-4,1.794-4,4v13H7.225l-1.225,2h2.345l1.225-2h4.86l1.225,2h2.345l-1.225-2h4.225V9ZM7,7h10c1.103,0,2,.897,2,2H5c0-1.103,.897-2,2-2Zm6,7v-3h6v3h-6Zm-8,0v-3h6v3H5Zm0,6v-4h2v1c0,.553,.447,1,1,1s1-.447,1-1v-1h6v1c0,.553,.447,1,1,1s1-.447,1-1v-1h2v4H5Z"/></svg>
