<?xml version="1.0" encoding="UTF-8"?>
<svg xmlns="http://www.w3.org/2000/svg" id="Layer_1" data-name="Layer 1" viewBox="0 0 24 24">
  <path d="m22-.003s-.009,3.069-.009,4.603c0,1.473-.13,2.86-.392,4.166C17.049,5.172,10.155.412,7.966,2.601c-.979.979-.979,2.305-.978,3.274,0,.346,0,.925-.069,1.044-.136.086-.702.082-1.041.081-.96-.004-2.276-.015-3.258.967-2.189,2.188,2.561,9.083,6.148,13.633-1.306.262-2.694.392-4.168.392-1.534,0-4.603.009-4.603.009l.006,2s3.065-.009,4.597-.009c5.635,0,10.326-1.833,13.942-5.449s5.449-8.307,5.449-13.942c0-1.532.009-4.597.009-4.597l-2-.006Zm-4.872,17.131c-1.816,1.816-3.887,3.114-6.251,3.909-.467-.584-.922-1.169-1.36-1.75,2.338-.69,4.387-1.908,6.124-3.645,1.236-1.235,2.208-2.628,2.915-4.171-.562-.432-1.109-.839-1.638-1.223-.617,1.479-1.512,2.8-2.692,3.979-1.686,1.686-3.659,2.789-5.973,3.333-2.807-3.958-4.631-7.397-4.22-8.182.364-.363.966-.386,1.831-.381.837.006,1.789.012,2.458-.657.667-.667.666-1.624.666-2.469,0-.753,0-1.465.375-1.845,1.022-.531,6.428,2.638,11.675,6.849-.796,2.364-2.094,4.435-3.909,6.25Z"/>
</svg>
