<?xml version="1.0" encoding="UTF-8"?>
<svg xmlns="http://www.w3.org/2000/svg" id="Layer_1" data-name="Layer 1" viewBox="0 0 24 24">
  <path d="m24,7.251c0-1.415-.564-2.76-1.593-3.789C17.835-1.11,6.163-1.109,1.593,3.462.564,4.491,0,5.836,0,7.25v3.75h3.333l-1.803,3.382c-1.001,1.875-1.53,3.991-1.53,6.118v3.5h24v-3.5c0-2.127-.529-4.243-1.529-6.118l-1.804-3.382h3.333v-3.749Zm-2,13.249v1.5H2v-1.5c0-1.8.447-3.59,1.295-5.176l2.579-4.836,1.351-2.252c.585-.32,2.46-1.236,4.775-1.236s4.193.917,4.775,1.236l1.351,2.252,2.58,4.837c.847,1.586,1.294,3.375,1.294,5.176Zm0-11.5h-2.434l-1.33-2.217s-2.842-1.783-6.236-1.783-6.236,1.783-6.236,1.783l-1.33,2.217h-2.434v-1.751c0-.88.356-1.723,1.007-2.373,3.867-3.865,14.121-3.865,17.986,0,.65.65,1.008,1.493,1.007,2.374v1.75Zm-10,1c-2.757,0-5,2.243-5,5s2.243,5,5,5,5-2.243,5-5-2.243-5-5-5Zm0,8c-1.654,0-3-1.346-3-3s1.346-3,3-3,3,1.346,3,3-1.346,3-3,3Z"/>
</svg>
