<?xml version="1.0" encoding="UTF-8"?>
<svg xmlns="http://www.w3.org/2000/svg" id="Layer_1" data-name="Layer 1" viewBox="0 0 24 24" width="512" height="512"><path d="M20,11.99h-2.57l1.96-7.18-4.18-1.17,.45-2.65L9.5-.02,4.05,.99l.45,2.64L.27,4.8l1.96,7.2H.04l1.92,9.59c.28,1.4,1.51,2.41,2.94,2.41h15.1c2.21-.01,4-1.8,4-4.01v-4c0-2.21-1.79-4-4-4Zm2,4v1H10v-1c0-1.03,.78-1.88,1.78-1.99h8.22c1.1-.01,2,.88,2,1.99Zm-5.06-9.79l-1.58,5.79h-1.58l1.09-6.37,2.07,.58Zm-3.58-3.57l-1.6,9.37s-2.18,0-2.18,0l1.8-9.72,1.99,.34Zm-5.02-.34l.48,2.8-1.06,5.72L6.36,2.62l1.97-.34ZM2.73,6.2l2.11-.59,1.09,6.39h-1.62l-1.58-5.8Zm-.25,7.8h6.05c-.34,.59-.53,1.26-.53,1.99v4c0,.74,.2,1.44,.56,2.04h-3.66c-.48,0-.89-.34-.98-.8l-1.44-7.22Zm17.52,7.99H12c-1.1,0-2-.9-2-2v-1h4l3,2,3-2h2v1c0,1.1-.9,2-2,2Z"/></svg>
