<?xml version="1.0" encoding="UTF-8"?>
<svg xmlns="http://www.w3.org/2000/svg" id="Layer_1" data-name="Layer 1" viewBox="0 0 24 24">
  <path d="m24,6v2H0v-2h24Zm-4.773,4.589c-.705.538-1.747.539-2.454,0-1.027-.781-2.519-.782-3.546,0-.705.538-1.747.539-2.454,0-1.027-.781-2.519-.782-3.546,0-.705.538-1.747.539-2.454,0-1.027-.781-2.519-.782-3.546,0-.353.269-.776.411-1.227.411v2c.892,0,1.734-.284,2.438-.82.314-.24.808-.24,1.122,0,1.41,1.073,3.47,1.073,4.878,0,.314-.24.808-.24,1.122,0,1.41,1.073,3.47,1.073,4.878,0,.314-.24.808-.24,1.122,0,1.41,1.073,3.47,1.073,4.878,0,.314-.24.808-.24,1.122,0,.705.537,1.548.82,2.439.82v-2c-.45,0-.874-.142-1.228-.412-1.027-.781-2.519-.782-3.546,0ZM1.5,15c-.828,0-1.5.672-1.5,1.5s.672,1.5,1.5,1.5,1.5-.672,1.5-1.5-.672-1.5-1.5-1.5Zm5,3c-.828,0-1.5.672-1.5,1.5s.672,1.5,1.5,1.5,1.5-.672,1.5-1.5-.672-1.5-1.5-1.5Zm11,0c-.828,0-1.5.672-1.5,1.5s.672,1.5,1.5,1.5,1.5-.672,1.5-1.5-.672-1.5-1.5-1.5Zm-5.5-3c-.828,0-1.5.672-1.5,1.5s.672,1.5,1.5,1.5,1.5-.672,1.5-1.5-.672-1.5-1.5-1.5Zm10.5,0c-.828,0-1.5.672-1.5,1.5s.672,1.5,1.5,1.5,1.5-.672,1.5-1.5-.672-1.5-1.5-1.5ZM1.5,21c-.828,0-1.5.672-1.5,1.5s.672,1.5,1.5,1.5,1.5-.672,1.5-1.5-.672-1.5-1.5-1.5Zm10.5,0c-.828,0-1.5.672-1.5,1.5s.672,1.5,1.5,1.5,1.5-.672,1.5-1.5-.672-1.5-1.5-1.5Zm10.5,0c-.828,0-1.5.672-1.5,1.5s.672,1.5,1.5,1.5,1.5-.672,1.5-1.5-.672-1.5-1.5-1.5Z"/>
</svg>
