<?xml version="1.0" encoding="UTF-8"?>
<svg xmlns="http://www.w3.org/2000/svg" id="Layer_1" data-name="Layer 1" viewBox="0 0 24 24" width="512" height="512"><path d="M12,0C5.383,0,0,5.383,0,12s5.383,12,12,12,12-5.383,12-12S18.617,0,12,0Zm0,22c-5.514,0-10-4.486-10-10S6.486,2,12,2s10,4.486,10,10-4.486,10-10,10ZM5.369,9.334l-.74-1.857c1.188-.474,2.267-1.373,3.039-2.531l1.664,1.109c-1.01,1.514-2.38,2.648-3.963,3.279Zm9.299-3.279l1.664-1.109c.772,1.158,1.852,2.058,3.039,2.531l-.74,1.857c-1.583-.631-2.953-1.766-3.963-3.279Zm-5.668,10.945h6v2h-6v-2Zm1.966-3.276c-.898,.907-1.975,1.297-3.019,1.297-1.16,0-2.281-.48-3.073-1.265l1.406-1.422c.659,.652,2.073,1.186,3.264-.017l1.422,1.406Zm6.831-1.407l1.406,1.422c-.742,.733-1.762,1.192-2.798,1.262-.09,.006-.181,.009-.271,.009-1.116,0-2.179-.458-3.017-1.306l1.424-1.406c.504,.511,1.081,.744,1.731,.707,.556-.037,1.125-.294,1.523-.688Z"/></svg>
