<?xml version="1.0" encoding="UTF-8"?>
<svg xmlns="http://www.w3.org/2000/svg" id="Layer_1" data-name="Layer 1" viewBox="0 0 24 24">
  <path d="m4,17h7v2h-7v-2Zm7-4h-7v2h7v-2Zm13,.625v3.911c0,4.03-3.764,5.858-4.917,6.322l-.629.253-.604-.306c-1.135-.566-4.85-2.699-4.85-6.27v-3.911c0-.862.551-1.625,1.37-1.896l4.13-1.369,4.13,1.369c.819.271,1.37,1.034,1.37,1.896Zm-2,0l-3.5-1.158-3.501,1.16v3.909c0,2.281,2.633,3.889,3.547,4.379,1.031-.455,3.454-1.798,3.454-4.379v-3.911Zm-7.521,10.375H0V3C0,1.346,1.346,0,3,0h9.414l7.586,7.586v1.414h-9V2H3c-.552,0-1,.448-1,1v19h10.535c.586.793,1.274,1.459,1.944,2Zm-1.479-17h3.586l-3.586-3.586v3.586Z"/>
</svg>
