<?xml version="1.0" encoding="UTF-8"?>
<svg xmlns="http://www.w3.org/2000/svg" id="Layer_1" data-name="Layer 1" viewBox="0 0 24 24">
  <path d="m4,14h7v2h2v-2h7v2h2v-4h-9v-1.612c.898-.205,1.695-.679,2.3-1.332l1.4.806.998-1.733-1.397-.805c.129-.419.199-.863.199-1.324s-.07-.905-.199-1.324l1.397-.805-.998-1.733-1.4.806c-.606-.654-1.402-1.128-2.3-1.332V0h-2v1.612c-.898.205-1.695.679-2.3,1.332l-1.4-.806-.998,1.733,1.397.805c-.129.419-.199.863-.199,1.324s.07.905.199,1.324l-1.397.805.998,1.733,1.4-.806c.606.654,1.402,1.128,2.3,1.332v1.612H2v4h2v-2Zm5.5-8c0-1.378,1.121-2.5,2.5-2.5s2.5,1.122,2.5,2.5-1.121,2.5-2.5,2.5-2.5-1.122-2.5-2.5Zm-.5,18h6v-6h-6v6Zm2-4h2v2h-2v-2Zm7-2v6h6v-6h-6Zm4,4h-2v-2h2v2ZM0,24h6v-6H0v6Zm2-4h2v2h-2v-2Z"/>
</svg>
