<?xml version="1.0" encoding="UTF-8"?>
<svg xmlns="http://www.w3.org/2000/svg" id="Layer_1" data-name="Layer 1" viewBox="0 0 24 24">
  <path d="m13,18h10.961l-2.038-15.395c-.197-1.485-1.476-2.605-2.974-2.605H5.05c-1.499,0-2.777,1.12-2.974,2.606L.039,18h10.961v4h-5v2h12v-2h-5v-4Zm1.216-10h-4.432l.2-6h4.032l.2,6Zm.067,2l.2,6h-4.965l.2-6h4.565Zm2.201,6l-.2-6h4.601l.794,6h-5.195Zm3.457-13.132l.679,5.132h-4.403l-.2-6h2.932c.5,0,.926.373.992.868Zm-14.891-.868h2.932l-.2,6H3.38l.679-5.131c.066-.496.492-.869.992-.869Zm-1.935,8h4.601l-.2,6H2.321l.794-6Z"/>
</svg>
