<?xml version="1.0" encoding="UTF-8"?>
<svg xmlns="http://www.w3.org/2000/svg" id="Layer_1" data-name="Layer 1" viewBox="0 0 24 24">
  <path d="m5,0c-1.654,0-3,1.346-3,3,0,.874.382,1.654.98,2.203l-1.147.532c-.738.311-1.312.892-1.615,1.635-.301.742-.295,1.558.016,2.294.311.738.891,1.312,1.637,1.616.356.144.741.204,1.122.206l-1.674,3.177c-.358.718-.415,1.531-.16,2.291s.791,1.375,1.505,1.729c.418.21.868.316,1.339.316.758,0,1.461-.282,1.999-.766v2.766c0,1.654,1.346,3,3,3,1.118,0,2.095-.614,2.61-1.523.647.945,1.736,1.523,2.891,1.523.633,0,1.253-.172,1.792-.495.402-.24,2.47-1.544,3.723-3.637.214-.357,3.984-7.624,3.984-7.624V0H5Zm0,2h4.887l-4.313,2h-.574c-.552,0-1-.448-1-1s.448-1,1-1Zm7,16.05v-2.05c0-.552.448-1,1-1s1,.448,1,1c0,.45-.477.998-1.305,1.5-.26.156-.492.342-.695.55Zm10-6.294c-1.437,2.77-3.532,6.795-3.701,7.086-1.027,1.717-2.829,2.825-3.033,2.947-.676.405-1.646.163-2.055-.521-.422-.708-.191-1.629.52-2.057,1.484-.902,2.27-2.013,2.27-3.212,0-1.654-1.346-3-3-3s-3,1.346-3,3v5c0,.552-.448,1-1,1s-1-.448-1-1v-5c0-2.414,1.721-4.434,4-4.899v-2.021c-2.183.315-4.04,1.64-5.087,3.483l-2.017,3.885c-.238.481-.853.691-1.34.447-.239-.118-.417-.323-.502-.577-.085-.252-.066-.522.054-.763l2.639-4.979,6.254-3.267v-2.309L3.371,9.426c-.232.099-.508.099-.749,0-.247-.101-.442-.293-.546-.54-.106-.248-.107-.512-.005-.763.101-.248.293-.442.516-.537L12,3.141v-1.141h10v9.756Z"/>
</svg>
