<?xml version="1.0" encoding="UTF-8"?>
<svg xmlns="http://www.w3.org/2000/svg" id="Layer_1" data-name="Layer 1" viewBox="0 0 24 24">
  <path d="m11.862,13c-.331.628-.572,1.3-.713,2h-2.149v-2h2.862Zm-2.862,4v2h2.444c-.231-.643-.372-1.313-.419-2h-2.025Zm-7,5V3c0-.551.449-1,1-1h10c.551,0,1,.449,1,1v7.503c.613-.462,1.285-.823,2-1.075V3c0-1.654-1.346-3-3-3H3C1.346,0,0,1.346,0,3v21h15.568l-2.155-2H2Zm5-9h-3v2h3v-2Zm-3,6h3v-2h-3v2Zm3-14h-3v2h3v-2Zm5,0h-3v2h3v-2Zm0,4h-3v2h3v-2Zm-5,0h-3v2h3v-2Zm11.5,6c-.828,0-1.5.672-1.5,1.5s.672,1.5,1.5,1.5,1.5-.672,1.5-1.5-.672-1.5-1.5-1.5Zm5.5,1.494c0,1.47-.572,2.851-1.611,3.89l-3.889,3.609-3.851-3.574c-1.073-1.07-1.649-2.455-1.649-3.925s.572-2.851,1.611-3.89c1.039-1.038,2.42-1.61,3.889-1.61s2.85.572,3.889,1.611c1.039,1.039,1.611,2.419,1.611,3.889Zm-2,0c0-.935-.364-1.814-1.025-2.475h0c-.661-.662-1.54-1.025-2.475-1.025s-1.813.364-2.475,1.025-1.025,1.54-1.025,2.475.368,1.817,1.036,2.484l2.464,2.286,2.501-2.321c.634-.635.999-1.514.999-2.449Z"/>
</svg>
