<?xml version="1.0" encoding="UTF-8"?>
<svg xmlns="http://www.w3.org/2000/svg" id="Layer_1" data-name="Layer 1" viewBox="0 0 24 24">
  <path d="m8,12c3.309,0,6-2.691,6-6S11.309,0,8,0,2,2.691,2,6s2.691,6,6,6Zm0-10c2.206,0,4,1.794,4,4s-1.794,4-4,4-4-1.794-4-4,1.794-4,4-4Zm8,17v5h-2v-5c0-1.654-1.346-3-3-3h-6c-1.654,0-3,1.346-3,3v5H0v-5c0-2.757,2.243-5,5-5h6c2.757,0,5,2.243,5,5Zm7.957-9.52l-4.926,4.926c-.396.395-.915.593-1.434.593s-1.038-.198-1.433-.592l-2.871-2.871,1.414-1.414,2.87,2.871,4.965-4.926,1.414,1.414Z"/>
</svg>
