<?xml version="1.0" encoding="UTF-8"?>
<svg xmlns="http://www.w3.org/2000/svg" id="Layer_1" data-name="Layer 1" viewBox="0 0 24 24" width="512" height="512"><path d="M12,0C5.38,0,0,5.38,0,12s5.38,12,12,12,12-5.38,12-12S18.62,0,12,0Zm10,12c0,2.4-.85,4.6-2.26,6.32l-.74-.74v-1.59c0-1.1-.9-2-2-2,0-.3-.02-.64-.07-1h2.07v-2h-2.41c-.07-.34-.15-.68-.23-1h.64c1.1,0,2-.9,2-2v-2h-2v2h-1.2c-.11-.36-.2-.62-.23-.69-.61-1.4-2-2.31-3.52-2.31s-2.82,.85-3.46,2.18l-2.92-2.92c1.72-1.41,3.93-2.26,6.32-2.26,5.51,0,10,4.49,10,10Zm-11.8-3.21c.07-.35,.13-.61,.15-.68,.29-.67,.96-1.11,1.69-1.11s1.4,.43,1.69,1.1c.13,.33,1.1,3.54,1.25,5.47l-4.78-4.78ZM2,12c0-2.4,.85-4.6,2.26-6.32l14.06,14.06c-1.72,1.41-3.93,2.26-6.32,2.26-5.51,0-10-4.49-10-10Zm12.22,6.46c-.68,.34-1.44,.54-2.22,.54-2.05,0-3.8-1.24-4.58-3h-.42v2h-2v-2c0-1.1,.9-2,2-2,0-.26,.03-.6,.07-1h-2.07v-2h1.76l2.29,2.29h0c-.03,.29-.05,.54-.05,.71,0,1.65,1.35,3,3,3,.23,0,.45-.04,.67-.09l1.55,1.55Z"/></svg>
