<?xml version="1.0" encoding="UTF-8"?>
<svg xmlns="http://www.w3.org/2000/svg" id="Layer_1" data-name="Layer 1" viewBox="0 0 24 24" width="512" height="512"><path d="m11.05,13c.232,1.141,1.24,2,2.45,2,1.381,0,2.5-1.119,2.5-2.5,0-1.209-.859-2.218-2-2.45v-5.101c1.141-.232,2-1.24,2-2.45,0-1.381-1.119-2.5-2.5-2.5-1.209,0-2.218.859-2.45,2h-6.101c-.232-1.141-1.24-2-2.45-2C1.119,0,0,1.119,0,2.5c0,1.21.859,2.218,2,2.45v5.101c-1.141.232-2,1.24-2,2.45,0,1.381,1.119,2.5,2.5,2.5,1.21,0,2.218-.859,2.45-2h6.101Zm-7.05-2.488v-6.023c.185-.14.349-.304.489-.489h7.022c.143.19.312.358.502.5h-.013v6.012c-.185.14-.349.304-.489.488h-7.023c-.14-.185-.303-.348-.488-.488Zm20,10.989c0,1.381-1.119,2.5-2.5,2.5-1.21,0-2.218-.859-2.45-2h-6.101c-.232,1.141-1.24,2-2.45,2-1.381,0-2.5-1.119-2.5-2.5,0-1.209.859-2.218,2-2.45v-2.05h2v2.511c.185.14.349.303.488.488h7.023c.14-.185.304-.349.489-.488v-6.022c-.604-.456-1-1.174-1-1.989,0-1.381,1.119-2.5,2.5-2.5s2.5,1.119,2.5,2.5c0,1.209-.859,2.218-2,2.45v5.101c1.141.232,2,1.24,2,2.45Z"/></svg>
