<?xml version="1.0" encoding="UTF-8"?>
<svg xmlns="http://www.w3.org/2000/svg" id="Layer_1" data-name="Layer 1" viewBox="0 0 24 24" width="512" height="512"><path d="m24,15.143c0-3.012-1.558-5.615-2.724-7.142h1.725s0-2.001,0-2.001l-22,.009v2s1.719,0,1.719,0c-1.166,1.528-2.718,4.128-2.718,7.135,0,2.107,1.003,4.044,2.673,5.566l-1.745,1.95,1.49,1.334,1.859-2.077c2.089,1.299,4.784,2.084,7.723,2.084s5.634-.784,7.723-2.084l1.867,2.086,1.49-1.334-1.753-1.959c1.671-1.522,2.673-3.459,2.673-5.566Zm-22,0c0-3.831,3.296-7.075,3.359-7.136l13.286-.006-.004.005c.034.032,3.36,3.289,3.36,7.137,0,3.781-4.486,6.857-10,6.857s-10-3.076-10-6.857ZM7,1.5c0-.828.672-1.5,1.5-1.5s1.5.672,1.5,1.5-.672,1.5-1.5,1.5-1.5-.672-1.5-1.5Zm7,1c0-.828.672-1.5,1.5-1.5s1.5.672,1.5,1.5-.672,1.5-1.5,1.5-1.5-.672-1.5-1.5Z"/></svg>
