<?xml version="1.0" encoding="UTF-8"?>
<svg xmlns="http://www.w3.org/2000/svg" id="Layer_1" data-name="Layer 1" viewBox="0 0 24 24">
  <path d="m20.485,3.515C18.219,1.249,15.205,0,12,0S5.781,1.249,3.515,3.515,0,8.795,0,12s1.248,6.219,3.515,8.485c2.267,2.267,5.28,3.515,8.485,3.515s6.219-1.248,8.485-3.515c2.267-2.266,3.515-5.28,3.515-8.485s-1.249-6.219-3.515-8.485Zm-1.414,15.556c-1.889,1.889-4.4,2.929-7.071,2.929s-5.183-1.04-7.071-2.929-2.929-4.4-2.929-7.071,1.04-5.183,2.929-7.071,4.4-2.929,7.071-2.929,5.182,1.041,7.071,2.929,2.929,4.4,2.929,7.071-1.041,5.182-2.929,7.071Zm-3.071-14.071h-2v3h-4v-3h-2v3h-3v2h3v4h-3v2h3v3h2v-3h4v3h2v-3h3v-2h-3v-4h3v-2h-3v-3Zm-2,9h-4v-4h4v4Z"/>
</svg>
