<?xml version="1.0" encoding="UTF-8"?>
<svg xmlns="http://www.w3.org/2000/svg" id="Layer_1" data-name="Layer 1" viewBox="0 0 24 24" width="512" height="512"><path d="m16.883,21.125l1.483,1.483c-1.62.908-3.453,1.392-5.366,1.392h-2C4.935,24,0,19.065,0,13h2c0,4.962,4.038,9,9,9h2c1.368,0,2.687-.302,3.883-.875ZM4,8.243v3.757c0,4.411,3.589,8,8,8,1.093,0,2.151-.217,3.126-.631l-1.571-1.571c-.501.133-1.022.202-1.555.202-2.968,0-5.439-2.166-5.916-5h2.674l-2-2h-.757v-.757l-2-2Zm17.453,11.796l2.504,2.504-1.414,1.414L.043,1.457,1.457.043l3.74,3.74c1.44-2.335,3.984-3.783,6.803-3.783,4.411,0,8,3.589,8,8v4c0,1.797-.591,3.508-1.68,4.906l1.712,1.712c1.275-1.59,1.968-3.554,1.968-5.618h2c0,2.598-.899,5.066-2.547,7.039Zm-3.536-7.039h-3.503l2.477,2.477c.527-.739.877-1.583,1.026-2.477ZM6.665,5.25l7.335,7.335v-1.586h4v-2h-4v-2h3.916c-.477-2.834-2.948-5-5.916-5-2.275,0-4.313,1.259-5.335,3.25Z"/></svg>
