<?xml version="1.0" encoding="UTF-8"?>
<svg xmlns="http://www.w3.org/2000/svg" id="Layer_1" data-name="Layer 1" viewBox="0 0 24 24">
  <path d="m24,8.183v9.817h-9.939c-.267-.695-.585-1.363-.955-2h8.894v-7.817c0-.619-.279-1.193-.768-1.574l-5.616-4.396c-.363-.283-.869-.283-1.232,0l-5.616,4.396c-.488.382-.768.956-.768,1.575v2.712c-.637-.37-1.305-.688-2-.955v-1.756c0-1.238.56-2.387,1.535-3.15L13.151.638c1.088-.854,2.609-.854,3.697,0l5.616,4.396c.976.763,1.535,1.911,1.535,3.149ZM1.5,21c-.828,0-1.5.672-1.5,1.5s.672,1.5,1.5,1.5,1.5-.672,1.5-1.5-.672-1.5-1.5-1.5Zm-.5-5v2c2.757,0,5,2.243,5,5h2c0-3.859-3.141-7-7-7Zm0-5v2c5.514,0,10,4.486,10,10h2c0-6.617-5.383-12-12-12Zm16-2h-4v4h4v-4Z"/>
</svg>
