<?xml version="1.0" encoding="UTF-8"?>
<svg xmlns="http://www.w3.org/2000/svg" id="Layer_1" data-name="Layer 1" viewBox="0 0 24 24">
  <path d="m17.207,12.553l-.98.98.98.98-1.414,1.414-.98-.98-.98.98-1.414-1.414.98-.98-.98-.98,1.414-1.414.98.98.98-.98,1.414,1.414Zm-9,3.375l.98-.98.98.98,1.414-1.414-.98-.98.98-.98-1.414-1.414-.98.98-.98-.98-1.414,1.414.98.98-.98.98,1.414,1.414Zm-.06,2.208l1.009,1.727c1.961-1.146,3.727-1.146,5.688,0l1.009-1.727c-2.58-1.509-5.125-1.509-7.705,0Zm-3.647-11.137c.828,0,1.5-.672,1.5-1.5s-.672-1.5-1.5-1.5-1.5.672-1.5,1.5.672,1.5,1.5,1.5Zm4,0c.828,0,1.5-.672,1.5-1.5s-.672-1.5-1.5-1.5-1.5.672-1.5,1.5.672,1.5,1.5,1.5Zm15.5-3v19H0V4C0,2.346,1.346,1,3,1h18c1.654,0,3,1.346,3,3Zm-22,0v4h20v-4c0-.551-.449-1-1-1H3c-.551,0-1,.449-1,1Zm20,17v-11H2v11h20Z"/>
</svg>
