<?xml version="1.0" encoding="UTF-8"?>
<svg xmlns="http://www.w3.org/2000/svg" id="Layer_1" data-name="Layer 1" viewBox="0 0 24 24">
  <path d="m15.5,10c-.828,0-1.5-.672-1.5-1.5s.672-1.5,1.5-1.5,1.5.672,1.5,1.5-.672,1.5-1.5,1.5Zm6.374-.224c-.092.463-.234.907-.419,1.329l2.545,4.895-4.531-2.356c-.778.601-1.694,1.031-2.693,1.23l-1.276,2.126-1.276-2.126c-.941-.188-1.809-.58-2.557-1.128L1.452,23.962.038,22.548l10.215-10.215c-.548-.748-.94-1.616-1.128-2.557l-2.126-1.276,2.126-1.276c.2-.999.629-1.916,1.23-2.693L8,0l4.895,2.545c.422-.185.867-.327,1.329-.419l1.276-2.126,1.276,2.126c.655.131,1.274.36,1.843.672l5.382-2.798-2.798,5.382c.312.568.542,1.188.672,1.843l2.126,1.276-2.126,1.276Zm-6.374,3.224c2.481,0,4.5-2.019,4.5-4.5s-2.019-4.5-4.5-4.5-4.5,2.019-4.5,4.5,2.019,4.5,4.5,4.5Z"/>
</svg>
