<?xml version="1.0" encoding="UTF-8"?>
<svg xmlns="http://www.w3.org/2000/svg" id="Layer_1" data-name="Layer 1" viewBox="0 0 24 24">
  <path d="m24,11c0-2.757-2.243-5-5-5h-2v-1c0-1.654-1.346-3-3-3h-1v2h1c.551,0,1,.448,1,1v13H2v-6H0v8h2.041c-.024.165-.041.331-.041.5,0,1.93,1.57,3.5,3.5,3.5s3.5-1.57,3.5-3.5c0-.169-.017-.335-.041-.5h6.082c-.024.165-.041.331-.041.5,0,1.93,1.57,3.5,3.5,3.5s3.5-1.57,3.5-3.5c0-.169-.017-.335-.041-.5h2.041v-9ZM7,20.5c0,.827-.673,1.5-1.5,1.5s-1.5-.673-1.5-1.5c0-.189.039-.355.093-.5h2.815c.054.145.093.311.093.5Zm12-12.5c1.654,0,3,1.346,3,3v1h-5v-4h2Zm1,12.5c0,.827-.673,1.5-1.5,1.5s-1.5-.673-1.5-1.5c0-.189.039-.355.093-.5h2.815c.054.145.093.311.093.5Zm-3-2.5v-4h5v4h-5ZM11,2.5c0-1.379-1.122-2.5-2.5-2.5H2.5C1.122,0,0,1.121,0,2.5v7.5h11V2.5Zm-2,5.5H2V2.5c0-.275.224-.5.5-.5h6c.276,0,.5.225.5.5v5.5ZM4,3h3v2h-3v-2Z"/>
</svg>
