<?xml version="1.0" encoding="UTF-8"?>
<svg xmlns="http://www.w3.org/2000/svg" id="Layer_1" data-name="Layer 1" viewBox="0 0 24 24">
  <path d="m19.945,2.635L12,0l-7.945,2.635c-1.229.407-2.055,1.549-2.055,2.842v6.471c0,6.563,7.005,10.577,9.152,11.65l.805.402.836-.336c2.16-.869,9.207-4.281,9.207-11.717v-6.471c0-1.292-.825-2.435-2.055-2.842ZM4,11.947v-6.471c0-.429.274-.808.684-.943l6.316-2.094v18.804c-2.482-1.424-7-4.653-7-9.296Zm16,0c0,5.356-4.566,8.267-7,9.438V2.439l6.316,2.094c.409.136.684.515.684.943v6.471Z"/>
</svg>
