<?xml version="1.0" encoding="UTF-8"?>
<svg xmlns="http://www.w3.org/2000/svg" id="Layer_1" data-name="Layer 1" viewBox="0 0 24 24" width="512" height="512"><path d="M24,4c0-2.206-1.794-4-4-4s-4,1.794-4,4c0,1.86,1.276,3.428,3,3.873v2.127c0,.551-.448,1-1,1h-4c-.768,0-1.469,.29-2,.766-.531-.476-1.232-.766-2-.766H6c-.551,0-1-.449-1-1v-2.127c1.723-.445,3-2.013,3-3.873C8,1.794,6.206,0,4,0S0,1.794,0,4c0,1.86,1.277,3.428,3,3.873v2.127c0,1.654,1.346,3,3,3h4c.551,0,1,.449,1,1v2.127c-1.723,.445-3,2.013-3,3.873,0,2.206,1.794,4,4,4s4-1.794,4-4c0-1.86-1.276-3.428-3-3.873v-2.127c0-.551,.448-1,1-1h4c1.654,0,3-1.346,3-3v-2.127c1.724-.445,3-2.013,3-3.873ZM2,4c0-1.103,.897-2,2-2s2,.897,2,2-.897,2-2,2-2-.897-2-2ZM14,20c0,1.103-.897,2-2,2s-2-.897-2-2,.897-2,2-2,2,.897,2,2Zm6-14c-1.103,0-2-.897-2-2s.897-2,2-2,2,.897,2,2-.897,2-2,2Z"/></svg>
