<?xml version="1.0" encoding="UTF-8"?>
<svg xmlns="http://www.w3.org/2000/svg" id="Layer_1" data-name="Layer 1" viewBox="0 0 24 24" width="512" height="512"><path d="M8,5c0-2.206-1.794-4-4-4S0,2.794,0,5c0,1.86,1.276,3.428,3,3.873v7.253c-1.724,.445-3,2.013-3,3.873,0,2.206,1.794,4,4,4s4-1.794,4-4c0-1.86-1.276-3.428-3-3.873v-7.253c1.724-.445,3-2.013,3-3.873Zm-6,0c0-1.103,.897-2,2-2s2,.897,2,2-.897,2-2,2-2-.897-2-2Zm4,15c0,1.103-.897,2-2,2s-2-.897-2-2,.897-2,2-2,2,.897,2,2Zm15-3.873V7c0-1.654-1.346-3-3-3h-5.086l2.293-2.293-1.414-1.414-3.256,3.256c-.774,.775-.775,2.036,0,2.812l3.256,3.256,1.414-1.414-2.214-2.203h5.007c.552,0,1,.449,1,1v9.127c-1.724,.445-3,2.013-3,3.873,0,2.206,1.794,4,4,4s4-1.794,4-4c0-1.86-1.276-3.428-3-3.873Zm-1,5.873c-1.103,0-2-.897-2-2s.897-2,2-2,2,.897,2,2-.897,2-2,2Z"/></svg>
