<?xml version="1.0" encoding="UTF-8"?>
<svg xmlns="http://www.w3.org/2000/svg" id="Layer_1" data-name="Layer 1" viewBox="0 0 24 24">
  <path d="m18,11c1.911,0,3.512-1.346,3.907-3.14,1.214-.384,2.093-1.519,2.093-2.86,0-1.657-1.5-5-1.5-5,0,0-.502,1.661-1.5,3.069-.998-1.408-1.5-3.069-1.5-3.069,0,0-1.5,3.343-1.5,5,0,1.248.762,2.317,1.846,2.77-.302.722-1.016,1.23-1.846,1.23h-2v-2.346c0-2.674-2.975-5.561-3.313-5.881l-.687-.649-.687.649c-.339.32-3.313,3.207-3.313,5.881v2.346h-2c-.83,0-1.544-.509-1.846-1.23,1.084-.452,1.846-1.522,1.846-2.77,0-1.657-1.5-5-1.5-5,0,0-.502,1.661-1.5,3.069C2.002,1.661,1.5,0,1.5,0,1.5,0,0,3.343,0,5c0,1.341.88,2.476,2.093,2.86.394,1.794,1.996,3.14,3.907,3.14h2v2h-2.414l-2.588,2.588,1.414,1.414,2.002-2.002h1.586v3.516l-1.397,1.397c-.498.497-.603,1.021-.603,1.372,0,.537.235,1.057.681,1.502,1.079,1.08,3.377,1.863,5.319.581.716.473,1.479.665,2.213.665,1.257,0,2.425-.563,3.106-1.246.445-.445.681-.965.681-1.502,0-.352-.104-.875-.602-1.371l-1.398-1.398v-3.516h1.586l2.002,2.002,1.414-1.414-2.588-2.588h-2.414v-2h2Zm-8-4.346c0-1.092,1.047-2.63,1.998-3.708.856.974,2.002,2.538,2.002,3.708v2.346h-4v-2.346Zm5.905,14.719c-.338.337-1.869,1.328-3.198,0l-.707-.707-.707.707c-1.327,1.329-2.86.338-3.198,0-.025-.025-.044-.047-.059-.065l2.308-2.308h3.312l2.307,2.311c-.015.018-.033.039-.057.062Zm-1.905-4.373h-4v-2h4v2Zm0-4h-4v-2h4v2Z"/>
</svg>
