<?xml version="1.0" encoding="UTF-8"?>
<svg xmlns="http://www.w3.org/2000/svg" id="Layer_1" data-name="Layer 1" viewBox="0 0 24 24" width="512" height="512"><path d="M22,19h2v3H0v-3H2v1H22v-1Zm-1-17H3C1.35,2,0,3.35,0,5v1H2v-1c0-.55,.45-1,1-1H21c.55,0,1,.45,1,1v1h2v-1c0-1.65-1.35-3-3-3ZM2,17H0v-7c0-1.1,.9-2,2-2h1.88c1.45,0,2.78,.98,3.06,2.4,.37,1.92-1.09,3.6-2.94,3.6H2v3Zm0-5h2c.55,0,1-.45,1-1s-.45-1-1-1H2v2Zm11.89,1.31l2.11,3.69h-2.19l-1.72-3.01s-.06,0-.08,0h-2v3h-2v-7c0-1.1,.9-2,2-2h1.85c1.53,0,2.91,1.08,3.12,2.59,.15,1.1-.32,2.09-1.08,2.72Zm-3.89-1.31h2c.55,0,1-.45,1-1s-.45-1-1-1h-2v2Zm14-.5v2c0,1.93-1.57,3.5-3.5,3.5s-3.5-1.57-3.5-3.5v-2c0-1.93,1.57-3.5,3.5-3.5s3.5,1.57,3.5,3.5Zm-2,0c0-.83-.67-1.5-1.5-1.5s-1.5,.67-1.5,1.5v2c0,.83,.67,1.5,1.5,1.5s1.5-.67,1.5-1.5v-2Z"/></svg>
