<?xml version="1.0" encoding="UTF-8"?>
<svg xmlns="http://www.w3.org/2000/svg" id="Layer_1" data-name="Layer 1" viewBox="0 0 24 24" width="512" height="512"><path d="M24,6v12.231c0,.742-.273,1.455-.772,2.01l-3.391,3.759h-2.693l4.599-5.098c.166-.185,.258-.423,.258-.671V6c0-.551-.449-1-1-1s-1,.449-1,1V14h-.005c0,.684-.232,1.369-.696,1.922l-2.578,2.684-1.441-1.386,2.533-2.634c.13-.157,.195-.369,.192-.586h-.004v-.073c-.018-.212-.101-.425-.254-.596-.366-.409-.999-.443-1.406-.077l-2.908,2.676c.366,.507,.569,1.122,.569,1.756v6.314h-2v-6.314c0-.279-.118-.547-.323-.735l-4.026-3.705c-.398-.357-1.03-.323-1.397,.086-.328,.367-.337,.928-.021,1.305l2.57,2.671-1.441,1.386-2.616-2.721c-.488-.579-.73-1.279-.735-1.972h-.011V6c0-.551-.449-1-1-1s-1,.449-1,1v12.231c0,.248,.092,.486,.258,.671l4.599,5.098h-2.693l-3.391-3.759c-.499-.555-.772-1.268-.772-2.01V6c0-1.654,1.346-3,3-3s3,1.346,3,3v5.171c.998-.35,2.153-.161,2.996,.593l3.004,2.764,2.995-2.755c.85-.761,2.006-.951,3.005-.602V6c0-1.654,1.346-3,3-3s3,1.346,3,3Z"/></svg>
