<?xml version="1.0" encoding="UTF-8"?>
<svg xmlns="http://www.w3.org/2000/svg" id="Layer_1" data-name="Layer 1" viewBox="0 0 24 24">
  <path d="m9,16h10v2h-10v-2Zm15-8.414v16.414H4v-4.682l2,2v.682h16v-13h-7V2H7c-.551,0-1,.448-1,1v2.189c-.479-.123-.982-.189-1.5-.189-.168,0-.335.007-.5.021v-2.021c0-1.654,1.346-3,3-3h9.414l7.586,7.586Zm-7-.586h3.586l-3.586-3.586v3.586Zm2,5h-8.583c-.12.718-.368,1.393-.719,2h9.303v-2ZM2,19.49v-5.37c-.914-.734-1.5-1.859-1.5-3.12,0-2.206,1.794-4,4-4s4,1.794,4,4c0,1.261-.586,2.386-1.5,3.12v5.37l-2.5-2.5-2.5,2.5Zm.5-8.49c0,1.103.897,2,2,2s2-.897,2-2-.897-2-2-2-2,.897-2,2Z"/>
</svg>
