<?xml version="1.0" encoding="UTF-8"?>
<svg xmlns="http://www.w3.org/2000/svg" id="Layer_1" data-name="Layer 1" viewBox="0 0 24 24">
  <path d="m24,8c0-2.446-2.337-6-6-6-.102,0-.203.003-.303.009-.935-.325-6.06-2.009-11.697-2.009v2c2.963,0,5.825.511,7.908,1.009-.115.053-.23.107-.346.161-1.835.857-3.914,1.83-7.562,1.83v2c3.296,0,5.489-.726,7.223-1.478-.145.467-.223.964-.223,1.478,0,.711.149,1.387.418,2h-5.918c-1.369,0-2.64.426-3.689,1.151-.319-.68-1.01-1.151-1.811-1.151-1.105,0-2,.895-2,2,0,.941.65,1.729,1.525,1.943-.337.785-.525,1.65-.525,2.557,0,3.584,2.916,6.5,6.5,6.5,1.103,0,2,.897,2,2h10.5v-2h-4.215l4.167-10.185c2.22-.437,4.048-1.663,4.048-3.815Zm-10,13.08c0-3.813-2.187-6.08-6-6.08v2c2.729,0,4,1.271,4,4v1h-1.037c-.693-1.195-1.986-2-3.463-2-2.481,0-4.5-2.019-4.5-4.5s2.019-4.5,4.5-4.5h7.5v-.003c.766.576,1.702.938,2.718.995l-3.718,9.088Zm1-14.08c0-1.654,1.346-3,3-3,2.481,0,4,2.59,4,4,0,1.468-2.392,2-4,2-1.654,0-3-1.346-3-3Z"/>
</svg>
