<?xml version="1.0" encoding="UTF-8"?>
<svg xmlns="http://www.w3.org/2000/svg" id="Layer_1" data-name="Layer 1" viewBox="0 0 24 24" width="512" height="512"><path d="M23.27,11.13c-1.18-2.7-2.29-5.25-3.47-6.71C17.36,1.16,13.5-.45,9.45,.11,4.46,.79,.5,4.95,.05,9.98c-.27,2.94,.62,5.79,2.5,8.05,.29,.35,.46,.8,.46,1.26v4.71h13v-3h2.25c1.5,0,2.78-1.12,2.97-2.61l.45-3.39h2.33v-2.21s-.51-1.17-.73-1.66Zm-3.35,1.87l-.68,5.13c-.07,.5-.49,.87-.99,.87h-4.25v3H5v-2.71c0-.93-.33-1.83-.92-2.54-1.53-1.84-2.26-4.18-2.04-6.59,.37-4.12,3.6-7.51,7.69-8.07,3.31-.45,6.48,.87,8.5,3.56,1.03,1.28,2.14,3.82,3.22,6.28,.16,.36,.31,.72,.47,1.07h-1.99Zm-4.74-6.75c-.72-.85-1.79-1.33-2.94-1.24-.56-.64-1.37-1.01-2.24-1.01s-1.75,.42-2.32,1.11c-1.56,.37-2.68,1.75-2.68,3.39,0,.09,0,.17,.01,.26-.64,.56-1.01,1.37-1.01,2.24,0,1.65,1.35,3,3,3,.35,0,.68-.06,1-.17v6.17h2v-7.03c.74-.1,1.41-.44,1.94-.97h2.06c1.65,0,3-1.35,3-3,0-1.22-.72-2.28-1.82-2.75Zm-1.18,3.75h-3.01l-.3,.4c-.29,.38-.72,.6-1.19,.6-.12,0-.26-.02-.43-.07l-.81-.24-.38,.76c-.17,.35-.51,.56-.89,.56-.55,0-1-.45-1-1,0-.38,.21-.72,.56-.89l.76-.38-.24-.81c-.05-.17-.07-.3-.07-.43,0-.77,.58-1.41,1.36-1.48l.52-.05,.26-.46c.18-.32,.5-.51,.86-.51,.38,0,.72,.21,.89,.56l.38,.76,.81-.24c.17-.05,.3-.07,.43-.07,.49,0,.96,.25,1.24,.66l.2,.29,.34,.1c.43,.13,.72,.51,.72,.95,0,.55-.45,1-1,1Z"/></svg>
