<?xml version="1.0" encoding="UTF-8"?>
<svg xmlns="http://www.w3.org/2000/svg" id="Layer_1" data-name="Layer 1" viewBox="0 0 24 24">
  <path d="m6,14.5l3.5,3.5h-3.5v-3.5Zm5-1.5h3.5l-3.5-3.5v3.5Zm-5,0h3.5l-3.5-3.5v3.5Zm5,5h3.5l-3.5-3.5v3.5Zm11.905-8.826l.726,1.18-1.348.317c-1.206.284-2.8.488-4.015.615,1.847,3.767-.229,6.759-2.726,9.256-1.833,1.832-3.93,3.447-6.405,3.447-1.798,0-3.794-.852-6.035-3.092-5.324-5.323-2.808-9.276.355-12.439,2.497-2.497,5.489-4.574,9.256-2.726.129-1.221.332-2.818.615-4.015l.317-1.347,1.179.725c.417.256.802.525,1.125.764.216-.337.484-.707.793-1.038l.743-.797.73.809c.37.409.652.808.86,1.15.661-.302,1.599-.656,2.609-.799l1.316-.186-.186,1.316c-.143,1.01-.497,1.948-.799,2.609.342.208.741.49,1.15.86l.809.73-.797.743c-.332.31-.701.577-1.038.793.239.323.508.708.764,1.125Zm-8.422.343c-1.761-1.761-3.235-2.517-4.622-2.517-1.675,0-3.221,1.104-4.99,2.873-3.231,3.232-4.246,5.722-.355,9.611,3.888,3.888,6.377,2.876,9.611-.355,3.232-3.232,4.246-5.721.355-9.611Zm4.493-2.124s1.492-.672,1.823-.865c-.28-.156-1.616-.644-1.616-.644l.631-1.047c.005-.008.313-.518.598-1.249-.728.284-1.239.592-1.248.597l-1.059.652s-.478-1.356-.633-1.636c-.193.33-.862,1.827-.862,1.827,0,0-1.254-1.105-1.615-1.383-.167,1.061-.299,2.257-.391,3.31.423.338.851.706,1.292,1.147s.81.869,1.147,1.292c1.043-.092,2.244-.224,3.31-.391-.278-.36-1.378-1.61-1.378-1.61Z"/>
</svg>
