<?xml version="1.0" encoding="UTF-8"?>
<svg xmlns="http://www.w3.org/2000/svg" id="Layer_1" data-name="Layer 1" viewBox="0 0 24 24" width="512" height="512"><path d="m11,13h-2v-6h2v6Zm-2,4h2v-2h-2v2Zm5.456-6.718l-1.393,1.436,2.782,2.696c.391.391.903.586,1.416.586s1.021-.194,1.406-.58l5.293-5.207-1.402-1.426-5.31,5.202-2.793-2.707Zm1.87,6.596c-1.464,1.894-3.752,3.122-6.326,3.122-4.411,0-8-3.589-8-8S5.589,4,10,4c3.636,0,6.708,2.441,7.677,5.769l1.577-1.545c-1.493-3.647-5.077-6.224-9.254-6.224C4.486,2,0,6.486,0,12s4.486,10,10,10c3.824,0,7.151-2.16,8.832-5.323-.489.208-1.02.323-1.571.323-.321,0-.632-.049-.936-.122Z"/></svg>
