<?xml version="1.0" encoding="UTF-8"?>
<svg xmlns="http://www.w3.org/2000/svg" id="Layer_1" data-name="Layer 1" viewBox="0 0 24 24">
  <path d="m12,0C5.383,0,0,5.383,0,12s5.383,12,12,12,12-5.383,12-12S18.617,0,12,0Zm7,9c0,3.859-3.14,7-7,7s-7-3.141-7-7,3.14-7,7-7,7,3.141,7,7Zm-7,13c-5.514,0-10-4.486-10-10,0-1.681.418-3.266,1.154-4.659-.101.538-.154,1.092-.154,1.659,0,4.963,4.038,9,9,9s9-4.037,9-9c0-.567-.053-1.121-.154-1.659.736,1.392,1.154,2.977,1.154,4.659,0,5.514-4.486,10-10,10Zm-3.5-11.5c0,1.93,1.57,3.5,3.5,3.5s3.5-1.57,3.5-3.5c0-1.037-.453-1.969-1.172-2.611.42-.516.672-1.174.672-1.889,0-1.654-1.346-3-3-3s-3,1.346-3,3c0,.716.252,1.373.672,1.889-.719.641-1.172,1.574-1.172,2.611Zm3.5,1.5c-.827,0-1.5-.673-1.5-1.5s.673-1.5,1.5-1.5,1.5.673,1.5,1.5-.673,1.5-1.5,1.5Zm-1-6c0-.552.449-1,1-1s1,.448,1,1-.449,1-1,1-1-.448-1-1Z"/>
</svg>
