<?xml version="1.0" encoding="UTF-8"?>
<svg xmlns="http://www.w3.org/2000/svg" id="Layer_1" data-name="Layer 1" viewBox="0 0 24 24" width="512" height="512"><path d="m7.581,14.404c-.775-.776-.775-2.037,0-2.812l3.299-3.299,1.414,1.414-2.291,2.291h2.997c1.654,0,3,1.346,3,3v4h-2v-4c0-.551-.448-1-1-1h-3.008l2.302,2.291-1.414,1.414-3.299-3.298Zm14.419-8.404h-2v15c0,1.654-1.346,3-3,3H7c-1.654,0-3-1.346-3-3V6h-2v-2h5v-2c0-1.103.897-2,2-2h6c1.103,0,2,.897,2,2v2h5v2Zm-13-2h6v-2h-6v2Zm9,2H6v15c0,.551.448,1,1,1h10c.552,0,1-.449,1-1V6Z"/></svg>
