<?xml version="1.0" encoding="UTF-8"?>
<svg xmlns="http://www.w3.org/2000/svg" id="Layer_1" data-name="Layer 1" viewBox="0 0 24 24" width="512" height="512"><path d="M24,20h-4v4h-2v-4h-4v-2h4v-4h2v4h4v2Zm-12,2h3.44c-.69,1.19-1.97,2-3.44,2-2.21,0-4-1.79-4-4H.81L3.07,7.3c.34-1.91,2-3.3,3.94-3.3h.16c-.11-.31-.17-.65-.17-1,0-1.65,1.35-3,3-3h4c1.65,0,3,1.35,3,3,0,.35-.06,.69-.17,1h.16c1.94,0,3.6,1.39,3.94,3.3l.84,4.7h-2.03l-.78-4.35c-.17-.96-1-1.65-1.97-1.65H7.01c-.97,0-1.8,.69-1.97,1.65l-1.85,10.35H12.08c-.05,.33-.08,.66-.08,1s.03,.67,.07,1h-2.07c0,1.1,1,2,2,2ZM10,4h4c.55,0,1-.45,1-1s-.45-1-1-1h-4c-.55,0-1,.45-1,1s.45,1,1,1Z"/></svg>
