<?xml version="1.0" encoding="UTF-8"?>
<svg xmlns="http://www.w3.org/2000/svg" id="Layer_1" data-name="Layer 1" viewBox="0 0 24 24">
  <path d="m7.377,19.01s0,0,0,0c-.01-.011-.019-.022,0,0Zm9.225,0s0,0,0,0c.01-.011.019-.022,0,0Zm-1.601-5.01h-3.397c.252-.265.556-.542.855-.814,1.133-1.031,2.542-2.314,2.542-4.186,0-1.654-1.346-3-3-3s-3,1.346-3,3h2c0-.552.449-1,1-1s1,.448,1,1c0,.987-.917,1.822-1.888,2.707-1.039.945-2.112,1.923-2.112,3.293v1h6v-2Zm6.058,3.607c.655.569.963,1.025.988,1.063l.434.655-.534.576c-.067.073-1.419,1.506-3.551,2.034.123.283.184.46.193.486l.355,1.044-1.074.252c-.091.021-1.228.28-2.658.28-1.015,0-2.179-.131-3.222-.57-1.043.439-2.207.57-3.222.57-1.431,0-2.567-.259-2.659-.28l-1.074-.252.355-1.044c.009-.025.07-.203.193-.486-2.132-.528-3.483-1.961-3.55-2.034l-.534-.576.434-.655c.025-.038.331-.49.979-1.055C.883,16.309.253,14.488.222,14.394l-.264-.791.731-.402c.023-.012.195-.105.485-.235-.304-.316-.554-.681-.711-1.092-.954-2.481-.137-5.633-.102-5.767l.28-1.054,1.026.37c.024.009.134.049.307.129-.003-.49.09-.989.323-1.476C3.396,1.779,6.146.524,6.262.473l.963-.433.379.985c.064.166,1.423,3.814-.797,7.434-.136.908-.197,1.786-.187,2.625.002.007.004.013.006.02l-.006.002c.035,2.618.772,4.86,2.157,6.468,1.081,1.258,2.312,1.836,3.212,1.993.9-.156,2.13-.735,3.212-1.993,1.384-1.608,2.121-3.85,2.156-6.468l-.006-.002c.002-.007.004-.013.006-.02.01-.839-.051-1.717-.187-2.625-2.22-3.62-.861-7.268-.797-7.434l.379-.985.963.433c.116.052,2.866,1.308,3.965,3.604.233.487.326.986.323,1.476.173-.08.283-.12.307-.129l1.026-.37.28,1.054c.036.133.854,3.285-.101,5.768-.159.413-.411.78-.718,1.098.281.126.447.216.469.229l.731.402-.264.791c-.032.095-.659,1.908-2.677,3.213ZM4.875,7.762c1.263-1.81,1.296-3.678,1.136-4.844-.674.457-1.493,1.149-1.91,2.021-.403.844.23,2.056.774,2.822Zm-2.545,3.394c.164.427.705.822,1.227,1.035.347-.074.716-.135,1.101-.177-.014-.199-.023-.399-.03-.601-.599-1.819-1.719-2.907-2.559-3.502-.108.934-.139,2.208.261,3.245Zm2.47,5.207c.233-.116.481-.228.746-.334-.258-.641-.464-1.321-.615-2.033-.944.096-1.782.344-2.374.565.392.563,1.088,1.302,2.243,1.802Zm2.578,2.648c-.288-.334-.668-.82-.909-1.194-1.068.397-1.8.91-2.258,1.313.545.382,1.373.832,2.374.962.227-.347.491-.713.793-1.081.01.011.019.022,0,0Zm4.032,2.486c-.862-.183-1.73-.577-2.54-1.149-.464.576-.816,1.142-1.069,1.608,1.096.096,2.548.065,3.609-.459Zm7.695-13.734c.543-.767,1.178-1.979.774-2.823-.417-.871-1.236-1.564-1.91-2.021-.16,1.165-.127,3.033,1.136,4.845Zm-2.925,14.192c-.253-.466-.605-1.033-1.069-1.608-.81.572-1.678.967-2.54,1.149,1.06.523,2.512.554,3.609.459Zm3.591-2.827c-.458-.401-1.191-.914-2.259-1.312-.242.374-.622.86-.909,1.194-.019.022-.009.011,0,0,.302.368.565.733.793,1.081,1.001-.13,1.829-.58,2.375-.963Zm1.63-4.567c-.588-.22-1.417-.466-2.353-.563-.151.712-.356,1.39-.614,2.031.261.104.506.214.736.329,1.147-.5,1.84-1.235,2.231-1.797Zm.509-6.652c-.84.594-1.959,1.681-2.559,3.504-.006.203-.016.404-.03.604.383.042.749.104,1.094.177.525-.212,1.07-.609,1.235-1.038.399-1.038.368-2.313.26-3.247Z"/>
</svg>
