<?xml version="1.0" encoding="UTF-8"?>
<svg xmlns="http://www.w3.org/2000/svg" id="Layer_1" data-name="Layer 1" viewBox="0 0 24 24" width="512" height="512"><path d="m17.5,11c-3.584,0-6.5,2.916-6.5,6.5s2.916,6.5,6.5,6.5,6.5-2.916,6.5-6.5-2.916-6.5-6.5-6.5Zm0,2c.879,0,1.701.254,2.394.692l-6.203,6.203c-.438-.694-.692-1.515-.692-2.394,0-2.481,2.019-4.5,4.5-4.5Zm0,9c-.879,0-1.701-.254-2.394-.692l6.203-6.203c.438.694.692,1.515.692,2.394,0,2.481-2.019,4.5-4.5,4.5Zm-11,0c-2.481,0-4.5-2.019-4.5-4.5v-4.5h8.298c.685-1.093,1.609-2.017,2.702-2.702v-3.798c0-3.584-2.916-6.5-6.5-6.5S0,2.916,0,6.5v11c0,3.584,2.916,6.5,6.5,6.5,1.572,0,3.016-.562,4.141-1.494-.403-.551-.744-1.148-1.006-1.787-.811.79-1.915,1.282-3.135,1.282ZM2,6.5c0-2.481,2.019-4.5,4.5-4.5s4.5,2.019,4.5,4.5v4.5H2v-4.5Z"/></svg>
