<?xml version="1.0" encoding="UTF-8"?>
<svg xmlns="http://www.w3.org/2000/svg" id="Layer_1" data-name="Layer 1" viewBox="0 0 24 24" width="512" height="512"><path d="m12,9c1.105,0,2,.895,2,2s-.895,2-2,2-2-.895-2-2,.895-2,2-2Zm12,1.999v1.001l-7.999-.004v-.998c-.002-1.522-.862-2.892-2.248-3.573l-.998-.491L17.078.092l.829.47c3.758,2.131,6.093,6.13,6.093,10.438Zm-2.051-1c-.292-2.886-1.839-5.52-4.224-7.189l-2.145,3.396c1.246.921,2.079,2.272,2.335,3.792l4.033.002Zm-13.95,1.997l-7.999.004v-1.001C0,6.691,2.335,2.692,6.093.562l.829-.47,4.323,6.842-.998.491c-1.386.682-2.246,2.051-2.247,3.573v.998Zm.419-5.791l-2.145-3.396c-2.385,1.67-3.932,4.304-4.224,7.189l4.033-.002c.256-1.52,1.089-2.871,2.335-3.792Zm6.768,7.422l3.962,7.042-.81.506c-1.908,1.194-4.1,1.825-6.339,1.825s-4.429-.632-6.339-1.826l-.81-.506,3.958-7.035.904.633c1.366.958,3.194.964,4.568-.003l.904-.636Zm1.261,6.319l-1.967-3.496c-1.562.724-3.404.722-4.963.002l-1.965,3.493c2.767,1.386,6.134,1.384,8.895,0Z"/></svg>
