<?xml version="1.0" encoding="UTF-8"?>
<svg xmlns="http://www.w3.org/2000/svg" id="Layer_1" data-name="Layer 1" viewBox="0 0 24 24" width="512" height="512"><path d="M8.5,16c-.828,0-1.5-.672-1.5-1.5s.672-1.5,1.5-1.5,1.5,.672,1.5,1.5-.672,1.5-1.5,1.5Zm7-3c-.828,0-1.5,.672-1.5,1.5s.672,1.5,1.5,1.5,1.5-.672,1.5-1.5-.672-1.5-1.5-1.5Zm-3.5,4c-1.657,0-3,1.343-3,3h6c0-1.657-1.343-3-3-3Zm12-9v3.635c0,6.698-5.283,12.245-11.776,12.363-.076,0-.152,.002-.227,.002-3.165,0-6.141-1.215-8.403-3.437C1.276,18.288,0,15.247,0,12v-4H2c0,1.826,1.537,1.992,2.007,2h4.493c.276,0,.5-.225,.5-.5v-1.5c0-.336-.064-.588-.177-.692-.034-.03-.076-.053-.121-.067-.813,.622-1.63,.76-2.202,.76-1.064,0-2.059-.476-2.727-1.306-.668-.829-.919-1.912-.689-2.97,.247-1.132,1.088-2.091,2.197-2.502,.658-.245,1.332-.287,1.987-.135C8.515-.08,10.517-.322,12,.546c1.485-.869,3.486-.627,4.732,.543,1.321-.312,2.711,.203,3.538,1.271,.669,.865,.892,1.981,.611,3.062-.295,1.132-1.171,2.055-2.287,2.406-1.162,.365-2.348,.144-3.264-.593-.056,.018-.109,.043-.15,.08-.114,.105-.18,.354-.18,.685v1.5c0,.275,.224,.5,.5,.5h4.5c.463-.008,2-.174,2-2h2Zm-2,3.493c-.664,.353-1.389,.507-2,.507h-4.5c-1.378,0-2.5-1.121-2.5-2.5v-1.5c0-1.167,.458-1.825,.843-2.172,.753-.679,1.683-.64,1.948-.612l.366,.038,.256,.267c.198,.209,.751,.666,1.579,.4,.458-.145,.832-.538,.953-1.003,.125-.483,.034-.957-.257-1.334-.418-.539-1.149-.754-1.831-.431l-.752,.357-.488-.675c-.384-.531-.973-.836-1.617-.836-.621,0-1.066,.283-1.331,.521l-.669,.603-.669-.603c-.265-.238-.71-.521-1.331-.521-.644,0-1.233,.305-1.617,.836l-.489,.676-.753-.359c-.385-.183-.767-.202-1.166-.054-.467,.173-.835,.586-.937,1.052-.103,.471,.001,.929,.292,1.289,.287,.356,.713,.561,1.169,.561,.629,0,1.012-.357,1.138-.476l.366-.27,.23-.03c.111-.016,1.105-.123,1.902,.575,.394,.345,.864,1.008,.864,2.2v1.5c0,1.379-1.122,2.5-2.5,2.5H4c-.611,0-1.336-.154-2-.507v.507c0,2.706,1.063,5.24,2.995,7.137,1.93,1.895,4.487,2.903,7.193,2.861,5.411-.099,9.812-4.747,9.812-10.363v-.142Z"/></svg>
