<?xml version="1.0" encoding="UTF-8"?>
<svg xmlns="http://www.w3.org/2000/svg" id="Layer_1" data-name="Layer 1" viewBox="0 0 24 24" width="512" height="512"><path d="M21.776,14.115c.088-.221,.159-.449,.194-.69,.113-.794-.089-1.584-.57-2.226-.992-1.321-2.877-1.591-4.2-.599-.508,.38-.898,.851-1.2,1.34-.302-.489-.692-.959-1.2-1.34-.641-.48-1.431-.683-2.224-.57-.793,.113-1.495,.528-1.977,1.17-.48,.641-.683,1.431-.569,2.225,.034,.241,.106,.469,.194,.69-1.277,.345-2.224,1.501-2.224,2.885v5H2V7c0-.552,.449-1,1-1H13c.551,0,1,.448,1,1v1.117c.715,.146,1.399,.433,2,.883h0v-2c0-1.654-1.346-3-3-3h-2.586l2.043-2.043-1.414-1.414-2.043,2.043V0h-2V2.586L4.957,.543l-1.414,1.414,2.043,2.043H3c-1.654,0-3,1.346-3,3V24H24v-7c0-1.384-.947-2.541-2.224-2.885Zm-3.376-1.914c.213-.16,.475-.229,.742-.19,.264,.038,.498,.177,.658,.39,.161,.214,.228,.478,.19,.742-.038,.264-.176,.498-.391,.659-.107,.08-.238,.14-.369,.199h-1.992c.198-.611,.548-1.339,1.162-1.8Zm-6.2,.2c.161-.214,.395-.353,.659-.391s.527,.03,.742,.19c.614,.461,.964,1.189,1.162,1.8h-1.992c-.131-.06-.263-.12-.371-.201-.213-.159-.352-.394-.39-.657-.038-.265,.029-.528,.189-.741Zm-2.2,4.6c0-.552,.449-1,1-1h4v6h-5v-5Zm12,5h-5l-.003-6h4.003c.551,0,1,.448,1,1v5Z"/></svg>
