<?xml version="1.0" encoding="UTF-8"?>
<svg xmlns="http://www.w3.org/2000/svg" id="Layer_1" data-name="Layer 1" viewBox="0 0 24 24" width="512" height="512"><path d="m10.5,2.551C10.5,1.171,11.619.051,13,.051s2.5,1.119,2.5,2.5-1.119,2.5-2.5,2.5-2.5-1.119-2.5-2.5Zm-5.675,14.301l-.494,1.199H0v2h5.669l.8-1.942-.665-.421c-.374-.236-.691-.526-.98-.837ZM21,0c-2.481,0-2.934,7.045-2.993,11h-1.446l-2.132-3.496c-.54-.896-1.524-1.452-2.57-1.452H3.382l-2.276,4.553,1.789.895,1.724-3.447h2.836l-1.753,4.272c-.553,1.35-.061,2.895,1.172,3.674l4.117,2.604v5.449h2v-6.551l-5.048-3.193c-.411-.26-.575-.774-.391-1.224l2.064-5.032h1.88l-2.006,4.868,1.716,1.085,1.954-4.742,2.278,3.737h4.562v-1c0-4.85.541-8.022,1-9.395.459,1.372,1,4.545,1,9.395s-.54,8.021-1,9.394c-.357-1.066-.762-3.217-.925-6.394h-2.005c.184,3.95.829,9,2.93,9,2.708,0,3-8.392,3-12s-.292-12-3-12Z"/></svg>
