<?xml version="1.0" encoding="UTF-8"?>
<svg xmlns="http://www.w3.org/2000/svg" id="Layer_1" data-name="Layer 1" viewBox="0 0 24 24" width="512" height="512"><path d="m21,18v-5c0-4.963-4.037-9-9-9S3,8.037,3,13v5c-1.654,0-3,1.346-3,3v3h24v-3c0-1.654-1.346-3-3-3ZM5,13c0-3.859,3.141-7,7-7s7,3.141,7,7v5H5v-5Zm17,9H2v-1c0-.552.448-1,1-1h18c.552,0,1,.448,1,1v1ZM2.335,6.646L.018,4.426l1.383-1.443,2.317,2.22-1.383,1.443Zm3.419-3.122l-1.212-2.717L6.368-.008l1.212,2.717-1.826.814Zm15.912,3.122l-1.383-1.443,2.317-2.22,1.383,1.443-2.317,2.22Zm-3.42-3.122l-1.826-.814L17.633-.008l1.826.814-1.213,2.717Zm-6.246,5.477v2c-1.103,0-2,.897-2,2h-2c0-2.206,1.794-4,4-4Z"/></svg>
