<?xml version="1.0" encoding="UTF-8"?>
<svg xmlns="http://www.w3.org/2000/svg" id="Layer_1" data-name="Layer 1" viewBox="0 0 24 24" width="512" height="512"><path d="M17.88,10.3l.62,.49,.62-.49c.5-.39,4.88-3.93,4.88-6.87,0-1.89-1.46-3.43-3.25-3.43-.86,0-1.67,.35-2.26,.89-.6-.54-1.4-.89-2.24-.89-1.79,0-3.25,1.54-3.25,3.43,0,2.95,4.38,6.48,4.88,6.87Zm-1.63-8.3c.73,0,1.25,.65,1.25,1h2c0-.39,.54-1,1.25-1s1.25,.64,1.25,1.43c0,1.25-1.88,3.38-3.5,4.79-1.62-1.41-3.5-3.54-3.5-4.79,0-.79,.56-1.43,1.25-1.43ZM8,0H3C1.35,0,0,1.35,0,3V11H11V3c0-1.65-1.35-3-3-3Zm1,9H2V3c0-.55,.45-1,1-1h5c.55,0,1,.45,1,1v6Zm12,4h-5c-1.65,0-3,1.35-3,3v8h11v-8c0-1.65-1.35-3-3-3Zm1,9h-7v-6c0-.55,.45-1,1-1h5c.55,0,1,.45,1,1v6ZM8,13H3c-1.65,0-3,1.35-3,3v8H11v-8c0-1.65-1.35-3-3-3Zm1,9H2v-6c0-.55,.45-1,1-1h5c.55,0,1,.45,1,1v6Z"/></svg>
