<?xml version="1.0" encoding="UTF-8"?>
<svg xmlns="http://www.w3.org/2000/svg" id="Layer_1" data-name="Layer 1" viewBox="0 0 24 24">
  <path d="m24,6v12.264l-.843-.421-1.157-2.314V6c0-.294-.129-.572-.353-.762-.228-.193-.521-.271-.823-.224-.462.075-.824.555-.824,1.093v4.893h-2v-7c0-.551-.448-1-1-1s-1,.449-1,1v7h-2V3c0-.551-.448-1-1-1s-1,.449-1,1v8h-2v-5.893c0-.537-.362-1.017-.825-1.093-.305-.049-.596.03-.823.224-.224.19-.353.468-.353.762v12.712l-4.26-3.392c-.254-.233-.507-.324-.774-.32-.266.009-.513.121-.695.315-.377.404-.356,1.039.047,1.417l6.5,6.267h6.711l2.315,1.157.421.843h-10.253L.939,17.182c-1.196-1.121-1.259-3.024-.13-4.231,1.128-1.208,3.029-1.272,4.236-.143l.955.758V5c0-.881.385-1.714,1.057-2.286.671-.571,1.561-.816,2.439-.674.212.034.415.093.609.173.347-1.274,1.513-2.213,2.895-2.213,1.061,0,1.994.554,2.528,1.388.435-.246.937-.388,1.472-.388,1.382,0,2.548.939,2.894,2.213.194-.079.398-.138.609-.172.878-.143,1.767.103,2.439.674.672.571,1.057,1.404,1.057,2.286Zm-9.5,7.5l-1,2-2,1,2,1,1,2,1-2,2-1-2-1-1-2ZM2.5,9l.833-1.667,1.667-.833-1.667-.833-.833-1.667-.833,1.667-1.667.833,1.667.833.833,1.667Zm18,8l-1.167,2.333-2.333,1.167,2.333,1.167,1.167,2.333,1.167-2.333,2.333-1.167-2.333-1.167-1.167-2.333Z"/>
</svg>
