<?xml version="1.0" encoding="UTF-8"?>
<svg xmlns="http://www.w3.org/2000/svg" id="Layer_1" data-name="Layer 1" viewBox="0 0 24 24">
  <path d="m20,0H5c-1.654,0-3,1.346-3,3v18c0,1.654,1.346,3,3,3h17V2c0-1.103-.897-2-2-2Zm0,18h-12V2h12v16ZM5,2h1v16h-1c-.352,0-.686.072-1,.184V3c0-.551.448-1,1-1Zm0,20c-.552,0-1-.449-1-1s.448-1,1-1h15v2H5Zm8.141-13.74l-2.037-2.152,1.387-1.441,1.496,1.582,2.543-2.631,1.398,1.43-3.113,3.221c-.459.474-1.22.471-1.674-.007Zm-.555,4.74l-1.793-1.793,1.414-1.414,1.793,1.793,1.793-1.793,1.414,1.414-1.793,1.793,1.793,1.793-1.414,1.414-1.793-1.793-1.793,1.793-1.414-1.414,1.793-1.793Z"/>
</svg>
