<?xml version="1.0" encoding="UTF-8"?>
<svg xmlns="http://www.w3.org/2000/svg" id="Layer_1" data-name="Layer 1" viewBox="0 0 24 24" width="512" height="512"><path d="M14,4.5c0,.828-.672,1.5-1.5,1.5s-1.5-.671-1.5-1.5,.671-1.5,1.5-1.5,1.5,.671,1.5,1.5Zm10,10.5c0-1.654-1.346-3-3-3h-3c-1.654,0-3,1.346-3,3v4.05c-.161-.033-.328-.05-.5-.05-1.381,0-2.5,1.119-2.5,2.5s1.119,2.5,2.5,2.5,2.5-1.119,2.5-2.5v-6.5c0-.551,.448-1,1-1h3c.552,0,1,.449,1,1v4.05c-.161-.033-.328-.05-.5-.05-1.381,0-2.5,1.119-2.5,2.5s1.119,2.5,2.5,2.5,2.5-1.119,2.5-2.5v-6.5Zm-13.242,9H4v-2H2v2H0V10H2v2H4v-2h2v12h4.028c.081,.734,.339,1.415,.73,2ZM2,14v2H4v-2H2Zm2,6v-2H2v2H4ZM24,3V11.025c-.584-.442-1.257-.773-2-.924v-3.687l-4,4-2.053-2.052-4.244,3.638h2.323c-.442,.584-.773,1.257-.924,2h-5.101V3C8,1.345,9.346,0,11,0h10C22.654,0,24,1.345,24,3Zm-2,.586v-.586c0-.551-.448-1-1-1H11c-.552,0-1,.449-1,1v7.826l6.052-5.188,1.947,1.948,4-4Z"/></svg>
