<?xml version="1.0" encoding="UTF-8"?>
<svg xmlns="http://www.w3.org/2000/svg" id="Layer_1" data-name="Layer 1" viewBox="0 0 24 24" width="512" height="512"><path d="M21.93,20.52c.03-.17,.07-.34,.07-.52v-6.38c.61-.7,1-1.61,1-2.62v-1L20.78,1H3.25l-.18,.65L1.46,.04,.04,1.46,22.54,23.96l1.41-1.41-2.03-2.03Zm-6.37-6.37c.68,.52,1.51,.85,2.44,.85h1c.35,0,.68-.06,1-.14v3.73l-4.44-4.44Zm5.44-4.03v.88c0,1.1-.9,2-2,2h-1c-1.1,0-2-.9-2-2h-2c0,.06,.01,.11,.02,.17h-.02c0,.4-.13,.77-.33,1.08L7.41,6h1.59V3h5v3h2V3h3.22l1.78,7.12ZM4.75,3h2.25v2.59l-2.32-2.32,.08-.26Z"/><path d="M5,21c-.55,0-1-.45-1-1v-5.14c.32,.08,.65,.14,1,.14h1c1.3,0,2.44-.63,3.17-1.59l-1.44-1.44c-.34,.61-.99,1.02-1.73,1.02h-1c-1.1,0-2-.9-2-2v-.88l.58-2.3-1.65-1.65-.9,3.59-.03,1.24c0,1.01,.39,1.91,1,2.62v6.38c0,1.65,1.35,3,3,3h13.76l-2-2H5Z"/></svg>
