<?xml version="1.0" encoding="UTF-8"?>
<svg xmlns="http://www.w3.org/2000/svg" id="Layer_1" data-name="Layer 1" viewBox="0 0 24 24" width="512" height="512"><path d="m21.295,14.584c.437-.584.705-1.301.705-2.084,0-1.496-.949-2.766-2.273-3.266.172-.377.273-.793.273-1.234,0-1.654-1.346-3-3-3h-.115c-.49-2.271-2.492-5-4.885-5h-1v1c0,2.792-1.712,3.778-2.194,4h-1.806c-1.654,0-3,1.346-3,3,0,.441.101.857.273,1.234-1.324.5-2.273,1.77-2.273,3.266,0,.784.268,1.5.705,2.084-1.599.835-2.705,2.49-2.705,4.416,0,2.757,2.243,5,5,5h14c2.757,0,5-2.243,5-5,0-1.925-1.106-3.581-2.705-4.416Zm-2.295,7.416H5c-1.654,0-3-1.346-3-3s1.346-3,3-3h9v-2H5.5c-.827,0-1.5-.673-1.5-1.5s.673-1.5,1.5-1.5h8.5v-2h-7c-.551,0-1-.448-1-1s.449-1,1-1h2.162l.154-.052c.135-.045,3.006-1.045,3.583-4.64,1.092.707,2.101,2.48,2.101,3.691v1h2c.551,0,1,.448,1,1s-.449,1-1,1v2h1.5c.827,0,1.5.673,1.5,1.5s-.673,1.5-1.5,1.5h-1.5v2h2c1.654,0,3,1.346,3,3s-1.346,3-3,3Z"/></svg>
