<?xml version="1.0" encoding="UTF-8"?>
<svg xmlns="http://www.w3.org/2000/svg" id="Layer_1" data-name="Layer 1" viewBox="0 0 24 24" width="512" height="512"><path d="M12,0C5.383,0,0,5.383,0,12s5.383,12,12,12,12-5.383,12-12S18.617,0,12,0Zm10,12c0,2.398-.849,4.601-2.261,6.325l-4.625-4.625c1.686-.65,2.886-2.288,2.886-4.2,0-2.481-2.019-4.5-4.5-4.5h-3.5c-.976,0-1.845,.469-2.393,1.193l-1.932-1.932c1.725-1.412,3.928-2.261,6.325-2.261,5.514,0,10,4.486,10,10Zm-8.586,0l-4.351-4.351c.142-.379,.508-.649,.936-.649h3.5c1.379,0,2.5,1.122,2.5,2.5s-1.121,2.5-2.5,2.5h-.086Zm-11.414,0c0-2.398,.849-4.601,2.261-6.325l14.065,14.065c-1.725,1.412-3.928,2.261-6.325,2.261-5.514,0-10-4.486-10-10Zm5-.758l2.758,2.758h-.758v5h-2v-7.758Z"/></svg>
