<?xml version="1.0" encoding="UTF-8"?>
<svg xmlns="http://www.w3.org/2000/svg" id="Layer_1" data-name="Layer 1" viewBox="0 0 24 24">
  <path d="m14.613,9.472c.246-.435.387-.937.387-1.472,0-1.654-1.346-3-3-3h-3v10h4c1.654,0,3-1.346,3-3,0-1.061-.554-1.995-1.387-2.528Zm-3.613-2.472h1c.552,0,1,.449,1,1s-.448,1-1,1h-1v-2Zm2,6h-2v-2h2c.552,0,1,.449,1,1s-.448,1-1,1Zm7.402,2.402c1.006-1.56,1.598-3.412,1.598-5.402C22,4.486,17.514,0,12,0S2,4.486,2,10c0,1.99.591,3.842,1.598,5.402l-3.598,3.598h5v5l4.364-4.364c.841.231,1.722.364,2.636.364s1.794-.134,2.636-.364l4.364,4.364v-5h5l-3.598-3.598ZM4,10c0-4.411,3.589-8,8-8s8,3.589,8,8-3.589,8-8,8-8-3.589-8-8Z"/>
</svg>
