<?xml version="1.0" encoding="UTF-8"?>
<svg xmlns="http://www.w3.org/2000/svg" id="Layer_1" data-name="Layer 1" viewBox="0 0 24 24" width="512" height="512"><path d="M24,12c0,1.701-.361,3.317-1.001,4.784-.419-.611-.943-1.141-1.53-1.593,.339-1.004,.531-2.074,.531-3.191,0-5.514-4.486-10-10-10S2,6.486,2,12s4.486,10,10,10c1.488,0,2.896-.336,4.167-.921,.187,.662,.525,1.262,.997,1.737-1.567,.751-3.313,1.184-5.163,1.184C5.383,24,0,18.617,0,12S5.383,0,12,0s12,5.383,12,12Zm-12,6c1.289,0,2.396,.797,2.402,.802l1.195-1.604c-.066-.049-1.632-1.198-3.598-1.198s-3.531,1.149-3.598,1.198l1.191,1.607c.011-.008,1.117-.805,2.406-.805Zm-5.72-7.694l-1.406,1.422c.792,.784,1.912,1.265,3.073,1.265,1.044,0,2.12-.389,3.019-1.296l-1.422-1.407c-1.191,1.204-2.604,.668-3.264,.017Zm10.125,2.666c1.036-.068,2.056-.527,2.798-1.26l-1.406-1.423c-.398,.394-.968,.651-1.522,.688-.646,.045-1.228-.195-1.733-.707l-1.422,1.405c.837,.848,1.899,1.306,3.016,1.306,.09,0,.181-.003,.271-.009Zm-.405,2.028s2,1.5,2,5c0,1.105,.895,2,2,2s2-.895,2-2c0-4-6-5-6-5Z"/></svg>
