<?xml version="1.0" encoding="UTF-8"?>
<svg xmlns="http://www.w3.org/2000/svg" id="Layer_1" data-name="Layer 1" viewBox="0 0 24 24">
  <path d="m14,16.769l8,3v4.231h-2v-2.846l-8-3v-6.047c0-.537-.362-1.017-.825-1.093-.303-.048-.595.03-.822.224-.224.19-.353.468-.353.762v11.712s-4.301-3.425-4.32-3.443c-.402-.373-1.034-.354-1.41.048-.377.403-.356,1.038.046,1.416l2.352,2.268h-2.881l-.849-.818c-1.196-1.12-1.26-3.022-.13-4.23,1.115-1.194,2.983-1.269,4.193-.182l.998.794v-7.563c0-.881.385-1.714,1.057-2.286s1.56-.818,2.439-.674c1.428.232,2.504,1.551,2.504,3.066v4.662ZM21,0H3C1.346,0,0,1.346,0,3v8h6.101c.151-.744.481-1.416.922-2H2V3c0-.551.448-1,1-1h18c.552,0,1,.449,1,1v6h-7.023c.441.584.771,1.256.922,2h8.101V3c0-1.654-1.346-3-3-3Z"/>
</svg>
