<?xml version="1.0" encoding="UTF-8"?>
<svg xmlns="http://www.w3.org/2000/svg" id="Layer_1" data-name="Layer 1" viewBox="0 0 24 24" width="512" height="512"><path d="m12,0C5.383,0,0,5.383,0,12s5.383,12,12,12,12-5.383,12-12S18.617,0,12,0Zm0,22c-5.514,0-10-4.486-10-10S6.486,2,12,2s10,4.486,10,10-4.486,10-10,10Zm6.686-14.397c-.602-.914-1.37-1.684-2.286-2.285l-.836-.55-2.842,4.321c-.231-.057-.473-.088-.721-.088s-.49.031-.721.088l-2.842-4.321-.836.55c-.916.602-1.685,1.371-2.286,2.285-.861,1.309-1.315,2.829-1.314,4.398v.998s.999,0,.999,0c0,0,2.764.004,4.175.007.104.29.25.559.433.8-.772,1.181-2.289,3.492-2.289,3.492l-.548.835.833.549c1.31.863,2.83,1.319,4.396,1.319s3.087-.456,4.396-1.319l.834-.55-2.842-4.321c.184-.242.333-.513.437-.805,1.411-.003,4.175-.007,4.175-.007h.998s0-.999,0-.999c0-1.569-.453-3.09-1.314-4.398Zm-5.686,4.397c0,.552-.448,1-1,1s-1-.448-1-1,.448-1,1-1,1,.448,1,1Zm-6.016-3.298c.267-.404.576-.771.926-1.096l1.7,2.583c-.194.255-.347.542-.452.851-.713-.029-1.703-.036-3.076-.039.137-.818.442-1.6.902-2.3Zm2.599,8.79c.752-1.149,1.29-1.979,1.657-2.59.243.064.497.098.76.098.247,0,.487-.031.718-.087l1.698,2.581c-1.516.67-3.318.668-4.832,0Zm5.259-6.452c-.105-.309-.258-.596-.452-.851l1.7-2.583c.35.325.659.691.926,1.096.46.7.766,1.481.902,2.3-1.374.003-2.363.01-3.076.039Z"/></svg>
