<?xml version="1.0" encoding="UTF-8"?>
<svg xmlns="http://www.w3.org/2000/svg" id="Layer_1" data-name="Layer 1" viewBox="0 0 24 24">
  <path d="m16.608,10.963c1.407.269,2.623-.948,2.354-2.354-.149-.782-.789-1.421-1.571-1.571-1.407-.269-2.623.948-2.354,2.354.149.782.789,1.421,1.571,1.571ZM24,.073l-1.387.582c-.056.023-5.645,2.345-10.613,2.345S1.443.679,1.387.655L0,.073v23.951s1.354-.512,1.354-.512c.056-.021,5.659-2.117,10.646-2.117s10.59,2.096,10.646,2.117l1.354.512V.073Zm-12,4.927c3.863,0,7.927-1.238,10-1.973v17.85l-10.954-10.954c-1.209-1.209-3.169-1.209-4.377,0l-4.668,4.668V3.027c2.073.734,6.137,1.973,10,1.973ZM2,21.178v-3.758l6.083-6.082c.428-.428,1.121-.428,1.549,0l8.884,8.884c-1.951-.447-4.268-.826-6.516-.826-3.869,0-7.942,1.123-10,1.782Z"/>
</svg>
