<?xml version="1.0" encoding="UTF-8"?>
<svg xmlns="http://www.w3.org/2000/svg" id="Layer_1" data-name="Layer 1" viewBox="0 0 24 24">
  <path d="m11,3.732c-.598-.346-1-.992-1-1.732,0-1.105.895-2,2-2s2,.895,2,2c0,.74-.402,1.386-1,1.732v5.208l1.748-1.749,1.414,1.414-2.851,2.852c-.362.361-.837.541-1.312.541s-.949-.18-1.311-.54l-2.852-2.853,1.414-1.414,1.748,1.749V3.732Zm12,9.268c0,6.065-4.935,11-11,11S1,19.065,1,13c0-4.68,2.938-8.686,7.066-10.272.125.682.424,1.304.848,1.817-3.447,1.262-5.914,4.576-5.914,8.455,0,.687.078,1.357.224,2h3.932c-.099-.647-.156-1.315-.156-2,0-.76.07-1.5.191-2.212l1.817,1.818c-.005.131-.008.262-.008.394,0,.685.068,1.354.185,2h5.629c.118-.646.185-1.315.185-2,0-.132-.003-.263-.008-.394l1.817-1.818c.121.712.191,1.452.191,2.212,0,.685-.057,1.353-.156,2h3.932c.147-.643.224-1.313.224-2,0-3.879-2.467-7.193-5.914-8.455.424-.514.722-1.135.848-1.817,4.128,1.586,7.066,5.592,7.066,10.272Zm-13.283,4c.655,1.885,1.619,3.434,2.283,4.368.664-.934,1.629-2.483,2.283-4.368h-4.567Zm.108,4.734c-.754-1.171-1.639-2.808-2.214-4.734h-3.671c1.161,2.331,3.305,4.091,5.885,4.734Zm10.236-4.734h-3.671c-.576,1.925-1.46,3.563-2.214,4.734,2.58-.643,4.724-2.402,5.885-4.734Z"/>
</svg>
