<?xml version="1.0" encoding="UTF-8"?>
<svg xmlns="http://www.w3.org/2000/svg" id="Layer_1" data-name="Layer 1" viewBox="0 0 24 24" width="512" height="512"><path d="m21.389,11h2.611v-2H7.549L1.844.045.156,1.119l6.295,9.881h2.16l4.909,4.5-4.039,3.702c-.302-.129-.633-.202-.982-.202-1.379,0-2.5,1.121-2.5,2.5s1.121,2.5,2.5,2.5,2.5-1.121,2.5-2.5c0-.294-.06-.573-.154-.835l4.154-3.808,4.154,3.808c-.094.263-.154.541-.154.836,0,1.379,1.121,2.5,2.5,2.5s2.5-1.121,2.5-2.5-1.121-2.5-2.5-2.5c-.348,0-.68.072-.981.202l-4.038-3.702,4.909-4.5Zm-9.818,0h6.858l-3.429,3.143-3.429-3.143Z"/></svg>
