<?xml version="1.0" encoding="UTF-8"?>
<svg xmlns="http://www.w3.org/2000/svg" id="Layer_1" data-name="Layer 1" viewBox="0 0 24 24" width="512" height="512"><path d="m3,12.5c0,.828-.672,1.5-1.5,1.5s-1.5-.672-1.5-1.5.672-1.5,1.5-1.5,1.5.672,1.5,1.5Zm-1.5,3.5c-.828,0-1.5.672-1.5,1.5s.672,1.5,1.5,1.5,1.5-.672,1.5-1.5-.672-1.5-1.5-1.5Zm0,5c-.828,0-1.5.672-1.5,1.5s.672,1.5,1.5,1.5,1.5-.672,1.5-1.5-.672-1.5-1.5-1.5Zm4-7.5c-.828,0-1.5.672-1.5,1.5s.672,1.5,1.5,1.5,1.5-.672,1.5-1.5-.672-1.5-1.5-1.5Zm0,5c-.828,0-1.5.672-1.5,1.5s.672,1.5,1.5,1.5,1.5-.672,1.5-1.5-.672-1.5-1.5-1.5ZM23.956,2.967l-3.151,16.593c-.269,1.414-1.508,2.44-2.947,2.44h-8.857v-9h3.97l2.087-10.581c.277-1.402,1.515-2.419,2.943-2.419h3.5c.748,0,1.449.33,1.926.906.477.576.67,1.327.53,2.061Zm-6.937-.16l-.827,4.193h4.962l.837-4.407c.038-.201-.05-.344-.106-.412-.056-.067-.181-.181-.385-.181h-3.5c-.477,0-.889.339-.981.807Zm3.756,6.193h-4.977l-1.183,6h-3.614v5h6.857c.48,0,.893-.342.982-.813l1.934-10.187Z"/></svg>
