<?xml version="1.0" encoding="UTF-8"?>
<svg xmlns="http://www.w3.org/2000/svg" id="Layer_1" data-name="Layer 1" viewBox="0 0 24 24" width="512" height="512"><path d="m20.124,11h1.876v-5h-1.876C19.053,2.53,15.817,0,12,0S4.947,2.53,3.876,6h-1.876v5h1.876c.487,1.579,1.424,2.96,2.658,4h-.534c-2.206,0-4,1.794-4,4v5h2v-5c0-1.103.897-2,2-2h12c1.103,0,2,.897,2,2v5h2v-5c0-2.206-1.794-4-4-4h-.534c1.234-1.04,2.171-2.421,2.658-4Zm-14.624-2.5c0-3.584,2.916-6.5,6.5-6.5s6.5,2.916,6.5,6.5-2.916,6.5-6.5,6.5-6.5-2.916-6.5-6.5Zm12.5,13.5v2h-2v-2h-8v2h-2v-2c0-1.103.897-2,2-2h8c1.103,0,2,.897,2,2Zm-1-14c0,2.761-2.239,5-5,5s-5-2.239-5-5c0-.343.357-1,1.101-1h7.899c.716,0,1,.657,1,1Z"/></svg>
