<?xml version="1.0" encoding="UTF-8"?>
<svg xmlns="http://www.w3.org/2000/svg" id="Layer_1" data-name="Layer 1" viewBox="0 0 24 24" width="512" height="512"><path d="m24,22.586l-1.134-1.134c.351-.898.168-1.958-.556-2.682-.724-.724-1.784-.907-2.682-.556l-1.3-1.3c.463-.596.836-1.247,1.109-1.939l2.989.75.486-1.939-2.984-.749c.04-.325.067-.652.067-.985s-.027-.656-.066-.976l2.983-.748-.486-1.939-2.99.75c-.28-.708-.657-1.365-1.117-1.957l1.315-1.315c.283.111.588.177.909.177,1.379,0,2.5-1.121,2.5-2.5s-1.121-2.5-2.5-2.5-2.5,1.121-2.5,2.5c0,.321.066.626.177.909l-1.315,1.315c-.629-.489-1.333-.884-2.091-1.168l.767-3.055-1.939-.486-.772,3.075c-.276-.029-.556-.045-.84-.045-.36,0-.715.033-1.066.08l-.78-3.109-1.939.486.785,3.129c-.663.27-1.287.636-1.861,1.082l-1.299-1.299c.351-.897.168-1.958-.556-2.682-.724-.724-1.784-.908-2.682-.556L1.5.086.086,1.5l22.5,22.5,1.414-1.414ZM12.03,6.086c3.29,0,5.966,2.676,5.966,5.966,0,1.248-.387,2.435-1.095,3.434L8.596,7.182c1-.709,2.186-1.096,3.434-1.096Zm2.631,12.817l.92,3.667-1.939.486-.767-3.058c-.274.029-.552.044-.831.044-.368,0-.728-.034-1.083-.082l-.777,3.096-1.939-.486.784-3.122c-.68-.278-1.31-.649-1.882-1.094l-1.276,1.276c.111.282.177.587.177.908,0,1.379-1.122,2.5-2.502,2.5s-2.502-1.121-2.502-2.5,1.122-2.5,2.502-2.5c.322,0,.628.066.911.177l1.276-1.276c-.473-.609-.859-1.286-1.143-2.016l-3.19.8-.486-1.939,3.192-.8c-.037-.31-.061-.623-.061-.942,0-.308.022-.613.057-.915l-3.189-.8.487-1.939,3.667.92,1.185,1.185c-.133.5-.208,1.019-.208,1.55,0,3.309,2.691,6,6,6,.531,0,1.05-.074,1.55-.208l1.068,1.068Zm-5.118-2.86c-.828,0-1.5-.672-1.5-1.5s.672-1.5,1.5-1.5,1.5.672,1.5,1.5-.672,1.5-1.5,1.5Zm6.5-6.5c0,.828-.672,1.5-1.5,1.5s-1.5-.672-1.5-1.5.672-1.5,1.5-1.5,1.5.672,1.5,1.5Z"/></svg>
