<?xml version="1.0" encoding="UTF-8"?>
<svg xmlns="http://www.w3.org/2000/svg" id="Layer_1" data-name="Layer 1" viewBox="0 0 24 24" width="512" height="512"><path d="m7.486,22.999c-.193.088-.383.181-.588.249,0,0,0,0-.001,0l-1.633.544c-.41.137-.836.207-1.263.208h-.006c-1.049,0-2.078-.428-2.826-1.176-.755-.753-1.17-1.757-1.17-2.827,0-1.402.16-2.805.475-4.169l1.835-7.952c.527-2.282,2.53-3.876,4.872-3.876h1.818v2h-1.818c-1.405,0-2.607.956-2.923,2.326l-1.835,7.952c-.281,1.217-.424,2.469-.424,3.72,0,.535.207,1.037.583,1.412.376.375.891.591,1.412.591h.003c.213,0,.426-.036.634-.105l.257-.086c.638.721,1.56,1.185,2.598,1.189Zm9.014-1.999c-.828,0-1.5-.672-1.5-1.5,0-.028,0-.056.002-.083l-.608-.608c-.423.267-.893.465-1.394.579v1.612h-2v-1.612c-.502-.114-.972-.313-1.394-.579l-.608.608c.002.028.002.055.002.083,0,.828-.672,1.5-1.5,1.5s-1.5-.672-1.5-1.5.672-1.5,1.5-1.5c.028,0,.056,0,.083.002l.608-.608c-.267-.423-.465-.893-.579-1.394h-1.612v-2h1.612c.114-.502.313-.972.579-1.394l-.608-.608c-.028.002-.055.002-.083.002-.828,0-1.5-.672-1.5-1.5s.672-1.5,1.5-1.5,1.5.672,1.5,1.5c0,.028,0,.056-.002.083l.608.608c.423-.267.893-.465,1.394-.579v-1.612h2v1.612c.502.114.972.313,1.394.579l.608-.608c-.002-.028-.002-.055-.002-.083,0-.828.672-1.5,1.5-1.5s1.5.672,1.5,1.5-.672,1.5-1.5,1.5c-.028,0-.056,0-.083-.002l-.608.608c.267.423.465.893.579,1.394h1.612v2h-1.612c-.114.502-.313.972-.579,1.394l.608.608c.028-.002.055-.002.083-.002.828,0,1.5.672,1.5,1.5s-.672,1.5-1.5,1.5Zm-4.5-3.5c1.379,0,2.5-1.122,2.5-2.5s-1.121-2.5-2.5-2.5-2.5,1.122-2.5,2.5,1.121,2.5,2.5,2.5ZM13,0h-2v7h2V0Zm10.525,15.829l-1.835-7.953c-.527-2.282-2.53-3.875-4.872-3.875h-1.818v2h1.818c1.405,0,2.607.956,2.923,2.325l1.835,7.953c.281,1.217.424,2.468.424,3.719,0,.535-.207,1.037-.583,1.412-.376.375-.891.591-1.412.591h-.003c-.213,0-.426-.036-.634-.105l-.257-.086c-.638.721-1.56,1.185-2.598,1.189.193.088.383.181.588.249,0,0,0,0,.001,0l1.633.544c.41.137.836.207,1.263.208h.006c1.049,0,2.078-.428,2.826-1.176.755-.753,1.17-1.757,1.17-2.827,0-1.402-.16-2.805-.475-4.169Z"/></svg>
