<?xml version="1.0" encoding="UTF-8"?>
<svg xmlns="http://www.w3.org/2000/svg" id="Layer_1" data-name="Layer 1" viewBox="0 0 24 24">
  <path d="m22.196,13.948c-.159-.131-3.756-3.087-6.674-4.978-.392-3.456-1.433-7.995-1.479-8.195l-.179-.775h-3.729l-.179.775c-.046.2-1.087,4.739-1.479,8.195-2.918,1.891-6.516,4.847-6.674,4.978l-.614.506,1.663,3.336.773-.186c.193-.046,4.196-1.013,7.387-2.116v6.512h-4.022v2h10.045v-2h-4.023v-6.503c3.187,1.1,7.167,2.061,7.36,2.107l.773.186,1.663-3.336-.614-.506Zm-2.126,1.52c-1.589-.403-5.282-1.379-7.702-2.337l-.368-.146-.368.146c-2.419.958-6.113,1.934-7.702,2.337l-.237-.476c1.232-.989,4.067-3.217,6.26-4.59l.417-.261.047-.489c.251-2.576.981-6.107,1.316-7.651h.532c.335,1.544,1.065,5.076,1.316,7.651l.047.489.417.261c2.193,1.373,5.028,3.602,6.26,4.59l-.237.476Z"/>
</svg>
