<?xml version="1.0" encoding="UTF-8"?>
<svg xmlns="http://www.w3.org/2000/svg" id="Layer_1" data-name="Layer 1" viewBox="0 0 24 24">
  <path d="m10,9.025c.417.234,1.287,1.353,1.904,2.461l.286.514h1.81c3.309,0,6-2.691,6-6S17.309,0,14,0H6C2.691,0,0,2.691,0,6s2.691,6,6,6h1.81l.286-.514c.617-1.108,1.487-2.227,1.904-2.461Zm-3.354.975h-.646c-2.206,0-4-1.794-4-4S3.794,2,6,2h8c2.206,0,4,1.794,4,4s-1.794,4-4,4h-.646c-.784-1.303-2.056-3-3.354-3s-2.57,1.697-3.354,3ZM24,0v16.5c0,4.136-3.364,7.5-7.5,7.5s-7.5-3.364-7.5-7.5v-2.5h2v2.5c0,3.032,2.468,5.5,5.5,5.5s5.5-2.468,5.5-5.5V0h2Z"/>
</svg>
