<?xml version="1.0" encoding="UTF-8"?>
<svg xmlns="http://www.w3.org/2000/svg" id="Layer_1" data-name="Layer 1" viewBox="0 0 24 24" width="512" height="512"><path d="M20.93,7.3c-.34-1.91-2-3.3-3.94-3.3h-.16c.11-.31,.17-.65,.17-1,0-1.65-1.35-3-3-3h-4c-1.65,0-3,1.35-3,3,0,.35,.06,.69,.17,1h-.16c-1.94,0-3.6,1.39-3.94,3.3L.81,20h7.19c0,2.21,1.79,4,4,4s4-1.79,4-4h7.19l-2.27-12.7ZM9,3c0-.55,.45-1,1-1h4c.55,0,1,.45,1,1s-.45,1-1,1h-4c-.55,0-1-.45-1-1Zm3,19c-1.1,0-2-.9-2-2h4c0,1.1-.9,2-2,2ZM3.19,18l1.85-10.35c.17-.96,1-1.65,1.97-1.65h9.98c.97,0,1.8,.69,1.97,1.65l1.85,10.35H3.19Z"/></svg>
