<?xml version="1.0" encoding="UTF-8"?>
<svg xmlns="http://www.w3.org/2000/svg" id="Layer_1" data-name="Layer 1" viewBox="0 0 24 24" width="512" height="512"><path d="m18.988,9.755c-.131-3.745-3.211-6.755-6.988-6.755s-6.857,3.009-6.988,6.755C.897,11.074,0,12.921,0,14.272c0,3.266,5.159,5.728,12,5.728s12-2.462,12-5.728c0-1.352-.897-3.199-5.012-4.518Zm-11.988.245c0-2.757,2.243-5,5-5s5,2.243,5,5v.134c-.586.308-2.055.866-5,.866-2.962,0-4.431-.564-5-.861v-.139Zm5,8c-5.724,0-10-1.968-10-3.728,0-.928,1.359-1.887,3.651-2.618.705.472,2.524,1.346,6.349,1.346s5.643-.873,6.349-1.346c2.292.731,3.651,1.69,3.651,2.618,0,1.76-4.276,3.728-10,3.728Zm1.5-2.5c0,.828-.672,1.5-1.5,1.5s-1.5-.672-1.5-1.5.672-1.5,1.5-1.5,1.5.672,1.5,1.5Zm-5.5-1c0,.828-.672,1.5-1.5,1.5s-1.5-.672-1.5-1.5.672-1.5,1.5-1.5,1.5.672,1.5,1.5Zm11,0c0,.828-.672,1.5-1.5,1.5s-1.5-.672-1.5-1.5.672-1.5,1.5-1.5,1.5.672,1.5,1.5Z"/></svg>
