<?xml version="1.0" encoding="UTF-8"?>
<svg xmlns="http://www.w3.org/2000/svg" id="Layer_1" data-name="Layer 1" viewBox="0 0 24 24">
  <path d="m24,8v2c-1.103,0-2,.897-2,2s.897,2,2,2v2c-2.206,0-4-1.794-4-4s1.794-4,4-4Zm-8.5,0c-.828,0-1.5.672-1.5,1.5s.672,1.5,1.5,1.5,1.5-.672,1.5-1.5-.672-1.5-1.5-1.5Zm0,5c-.828,0-1.5.672-1.5,1.5s.672,1.5,1.5,1.5,1.5-.672,1.5-1.5-.672-1.5-1.5-1.5Zm-5.5-9v2h-4.231c-.742,0-1.455.273-2.01.772l-3.759,3.265v2.693l5.098-4.473c.185-.166.423-.258.671-.258h4.231v2.015c-.693.005-1.393.244-1.972.731l-2.721,2.616,1.386,1.441,2.671-2.57c.377-.316.939-.307,1.305.021.409.367.444.998.086,1.397l-3.705,4.026c-.188.205-.457.323-.735.323H0v2h6.314c.837,0,1.642-.353,2.208-.969l1.478-1.606v2.575h14v-2h-12v-2.749l.235-.256c1.103-1.23.999-3.129-.232-4.231,0,0-.002-.001-.003-.002v-4.762h12v-2h-14Z"/>
</svg>
