<?xml version="1.0" encoding="UTF-8"?>
<svg xmlns="http://www.w3.org/2000/svg" id="Layer_1" data-name="Layer 1" viewBox="0 0 24 24">
  <path d="m21.956,19.408l-1.956-11.492v-1.915C20,0,14.394,0,12,0S4,0,4,6v1.915l-1.959,11.519c-.165,1.148.177,2.31.938,3.187s1.862,1.379,3.022,1.379h12c1.16,0,2.262-.503,3.022-1.379s1.102-2.038.934-3.213ZM9,2.249v1.751h2v-1.98c.316-.014.649-.02,1-.02s.684.007,1,.02v1.98h2v-1.751c2.166.46,3,1.6,3,3.751v1H6v-1c0-2.152.834-3.291,3-3.751Zm10.511,19.062c-.38.438-.931.689-1.511.689H6c-.58,0-1.131-.251-1.511-.689-.38-.438-.551-1.019-.473-1.567l1.828-10.744h12.312l1.824,10.717c.082.574-.089,1.155-.469,1.593Zm-5.511-2.811c0,.828-.672,1.5-1.5,1.5s-1.5-.672-1.5-1.5.672-1.5,1.5-1.5,1.5.672,1.5,1.5Zm3-4c0,.828-.672,1.5-1.5,1.5s-1.5-.672-1.5-1.5.672-1.5,1.5-1.5,1.5.672,1.5,1.5Z"/>
</svg>
