<?xml version="1.0" encoding="UTF-8"?>
<svg xmlns="http://www.w3.org/2000/svg" id="Layer_1" data-name="Layer 1" viewBox="0 0 24 24">
  <path d="m15,2.5c0-1.381,1.119-2.5,2.5-2.5s2.5,1.119,2.5,2.5-1.119,2.5-2.5,2.5-2.5-1.119-2.5-2.5Zm5,10.273v3.84l2.028,1.354-.028,6.038-2-.01.023-4.962-4.726-3.156c-.82-.574-1.298-1.492-1.298-2.47v-3.746l-2,1.367v3.972h-2v-5.028l4.548-3.107c.302-.275,1.104-.848,2.548-.848,1.244,0,2.5.9,2.859,2.049l.785,2.802,3.165,2.063-1.092,1.676-2.813-1.834Zm-2,2.504v-6.729c-.146-.266-.57-.532-.904-.532-.599,0-.941.154-1.096.249v5.142c0,.326.16.632.427.82l1.573,1.05Zm-3.339,2.367l-2.559,6.356h2.162l2.074-5.174s-1.624-1.144-1.677-1.182Zm-7.661-5.644v-3h-3v3h3Zm6.758-7c-.39-.583-.648-1.262-.729-1.994l-3.072-2.375c-.966-.756-2.11-.838-2.913-.21L1.207,4.988c-.767.599-1.207,1.501-1.207,2.475v9.537h8v-2H2v-7.537c0-.354.16-.682.438-.9l5.819-4.56c.06-.009.257-.156.486.022l4.272,3.465s.667-.447.742-.491Z"/>
</svg>
