<?xml version="1.0" encoding="UTF-8"?>
<svg xmlns="http://www.w3.org/2000/svg" id="Layer_1" data-name="Layer 1" viewBox="0 0 24 24" width="512" height="512"><path d="M21,6h-3.23c1.414-1.38,1.634-3.195,.55-4.64-.545-.728-1.34-1.198-2.239-1.326-.902-.131-1.795,.102-2.521,.646-.68,.509-1.178,1.158-1.547,1.818-.369-.66-.867-1.308-1.547-1.818C9.739,.135,8.844-.097,7.945,.034c-.899,.128-1.694,.599-2.239,1.326-1.079,1.437-.864,3.239,.554,4.64H3c-1.654,0-3,1.346-3,3v15H24V9c0-1.654-1.346-3-3-3Zm-6.24-3.72c.299-.225,.67-.315,1.038-.267,.37,.053,.698,.247,.922,.546,.641,.854,.043,1.644-.343,2.013-1.586,1.407-3.27,1.428-3.364,1.428l.008-.298c.084-.575,.446-2.452,1.739-3.422Zm-7.454,.279c.225-.299,.552-.493,.922-.546,.373-.048,.739,.043,1.038,.267,1.274,.956,1.644,2.791,1.734,3.392v.328c-.141,0-1.789-.042-3.324-1.403-.414-.395-1.011-1.182-.37-2.037ZM3,8h7.772c-.969,1.961-4.73,2-4.774,2v2c1.72,0,4.518-.533,6.001-2.252,1.484,1.719,4.282,2.252,6,2.252v-2c-.042,0-3.803-.039-4.772-2h7.772c.551,0,1,.448,1,1v8H2V9c0-.552,.449-1,1-1Zm-1,14v-3H22v3H2Z"/></svg>
