<?xml version="1.0" encoding="UTF-8"?>
<svg xmlns="http://www.w3.org/2000/svg" id="Layer_1" data-name="Layer 1" viewBox="0 0 24 24">
  <path d="m7.578,16.671c-.039-.045.043.041,0,0h0ZM23.521.731c.043.041-.039-.045,0,0h0ZM.602,8.602c.041-.043-.042.042,0,0h0Zm15.18,14.796c.011-.01.021-.021,0,0h0Zm-.262-16.152c-.039.045.043-.041,0,0h0Zm8,8.023c-1.008.947-2.115.935-2.896.184-.033-.032-.677-.912-1.026-1.394l-5.406,5.365c.274.188,1.224.834,1.515,1.079.818.709.97,2.034.074,2.896-.75.781-1.992.805-2.773.055-.041-.04-1.042-1.412-1.22-1.664l-1.327,1.307c-.579.58-1.356.901-2.183.901s-1.604-.322-2.188-.907L.907,17.907c-1.207-1.207-1.207-3.17,0-4.376l1.099-1.082c-.463-.335-1.426-1.039-1.459-1.073-.75-.781-.726-2.022.055-2.773.906-.906,2.186-.744,2.896.074.209.247.707.972.967,1.352L13.7.836c1.169-1.168,3.072-1.17,4.243,0l1.43,1.43c.389-.542,1.218-1.686,1.252-1.719.781-.751,2.091-.757,2.896.184.709.818.621,2.057-.197,2.766-.233.197-1.095.79-1.59,1.129l1.527,1.528c1.17,1.169,1.17,3.073,0,4.243l-1.199,1.199c.395.271,1.033.712,1.262.906.818.709.907,1.948.197,2.766Zm-8.82.849l-2.199-2.199c-.247.361-.784,1.145-1.004,1.405-.709.818-2.013.848-2.831.139-.781-.75-.87-2.056-.119-2.837.035-.036,1.11-.821,1.534-1.127l-2.112-2.112-5.653,5.564c-.421.421-.421,1.116.006,1.542l1.414,1.414c.354-.489.969-1.329,1.001-1.36.781-.751,2.091-.657,2.841.124.709.818.676,2.117-.143,2.826-.222.188-.83.609-1.227.882l1.297,1.297c.414.414,1.135.414,1.548,0l5.646-5.559Zm1.42-1.409l5.726-5.726c.39-.39.39-1.024,0-1.415l-5.317-5.318c-.392-.391-1.025-.389-1.415,0l-1.213,1.213c.352.241,1.158.793,1.422,1.015.818.709.907,1.948.197,2.766-.991,1.011-2.115.935-2.896.184-.037-.036-.843-1.139-1.139-1.551l-2.098,2.098,6.732,6.732Z"/>
</svg>
