<?xml version="1.0" encoding="UTF-8"?>
<svg xmlns="http://www.w3.org/2000/svg" id="Layer_1" data-name="Layer 1" viewBox="0 0 24 24">
  <path d="m23.159,4.058l-.629-1.213-4.823,4.822h0c-.377.379-1.035.38-1.414,0-.188-.188-.292-.438-.292-.706s.104-.518.293-.707l4.818-4.818-1.23-.623c-1.062-.539-2.2-.812-3.381-.812-4.136,0-7.5,3.364-7.5,7.5,0,.959.178,1.886.531,2.767L.918,18.879c-1.168,1.17-1.168,3.072,0,4.242.585.585,1.353.877,2.121.877s1.537-.292,2.122-.877l8.631-8.631c.865.339,1.773.51,2.708.51,4.136,0,7.5-3.364,7.5-7.5,0-1.208-.283-2.366-.841-3.442Zm-6.659,8.942c-.864,0-1.697-.2-2.477-.595l-.647-.328L3.747,21.707c-.39.391-1.024.391-1.414,0-.39-.39-.39-1.024,0-1.414l9.621-9.621-.337-.649c-.409-.789-.617-1.638-.617-2.522,0-3.032,2.467-5.5,5.5-5.5.375,0,.744.038,1.105.112l-2.726,2.727c-.567.566-.879,1.32-.879,2.121s.312,1.556.878,2.121c1.134,1.133,3.11,1.133,4.243,0l2.753-2.753c.084.382.126.773.126,1.172,0,3.032-2.467,5.5-5.5,5.5Z"/>
</svg>
