<?xml version="1.0" encoding="UTF-8"?>
<svg xmlns="http://www.w3.org/2000/svg" id="Layer_1" data-name="Layer 1" viewBox="0 0 24 24" width="512" height="512"><path d="M15.937,8.266c.298,1.699-.509,3.395-2.009,4.222-.468,.258-.928,1.126-.928,1.752v.742h-2v-.742c0-1.19,.734-2.826,1.963-3.504,.763-.42,1.157-1.254,1.004-2.125-.138-.787-.81-1.458-1.596-1.596-.606-.107-1.195,.047-1.656,.435-.455,.381-.715,.94-.715,1.533h-2c0-1.185,.521-2.302,1.429-3.064,.908-.762,2.109-1.077,3.287-.873,1.613,.282,2.938,1.606,3.221,3.22Zm-4.937,10.716h2v-2h-2v2ZM24,3V24H0V3C0,1.346,1.346,0,3,0H21c1.654,0,3,1.346,3,3Zm-2,0c0-.551-.449-1-1-1H3c-.551,0-1,.449-1,1V22H22V3Z"/></svg>
