<?xml version="1.0" encoding="UTF-8"?>
<svg xmlns="http://www.w3.org/2000/svg" id="Layer_1" data-name="Layer 1" viewBox="0 0 24 24">
  <path d="m9.5,2.5c0-1.381,1.119-2.5,2.5-2.5s2.5,1.119,2.5,2.5c0,1.025-.617,1.906-1.5,2.291v2.327c-.322-.073-.655-.118-1-.118s-.678.045-1,.118v-2.327c-.883-.386-1.5-1.266-1.5-2.291Zm-3.729,6.153l1.706,1.257c.132-.303.294-.597.498-.875.205-.278.438-.519.688-.735l-1.72-1.267c.037-.172.057-.349.057-.532,0-1.381-1.119-2.5-2.5-2.5s-2.5,1.119-2.5,2.5,1.119,2.5,2.5,2.5c.464,0,.898-.127,1.271-.347Zm10.268.347c.206.277.369.57.504.872l1.657-1.237c.379.232.825.365,1.301.365,1.381,0,2.5-1.119,2.5-2.5s-1.119-2.5-2.5-2.5-2.5,1.119-2.5,2.5c0,.17.017.336.05.497l-1.704,1.271c.252.215.486.454.693.731Zm-1.038,3.108c0-1.516-1.076-2.835-2.503-3.067-.88-.142-1.768.102-2.439.674-.672.571-1.058,1.404-1.058,2.286v7.563l-.998-.794c-1.21-1.087-3.078-1.012-4.193.182-1.13,1.208-1.066,3.11.13,4.23l.849.818h2.881l-2.352-2.268c-.403-.378-.424-1.013-.046-1.416.375-.402,1.008-.421,1.41-.048.019.018,4.32,3.443,4.32,3.443v-11.712c0-.294.129-.572.353-.763.228-.193.519-.274.822-.223.463.075.825.555.825,1.093v6.432l7,2.616v2.845h2v-4.231l-7-2.616v-5.045Z"/>
</svg>
