<?xml version="1.0" encoding="UTF-8"?>
<svg xmlns="http://www.w3.org/2000/svg" id="Layer_1" data-name="Layer 1" viewBox="0 0 24 24">
  <path d="m2.5,2.5c0-1.381,1.119-2.5,2.5-2.5s2.5,1.119,2.5,2.5-1.119,2.5-2.5,2.5-2.5-1.119-2.5-2.5Zm21.5,14.5c0,3.859-3.14,7-7,7s-7-3.141-7-7,3.14-7,7-7,7,3.141,7,7Zm-2,0c0-2.757-2.243-5-5-5s-5,2.243-5,5c0,2.414,1.721,4.435,4,4.899v-1.899h2v1.899c2.279-.465,4-2.485,4-4.899Zm-12-5.651c-1.249,1.545-2,3.51-2,5.651v7h-2v-7h-2v7h-2v-7H0v-8c0-1.654,1.346-3,3-3h4c1.637,0,2.971,1.318,2.999,2.948,0,.017.001,2.401.001,2.401Zm-2-2.349c0-.552-.449-1-1-1H3c-.551,0-1,.448-1,1v6h6v-6Zm9.536,4.048c-.885-.161-1.783.081-2.463.653-.682.572-1.072,1.41-1.072,2.299h2c0-.297.13-.576.358-.767.23-.193.526-.271.832-.216.391.068.725.401.793.793.093.531-.212.907-.502,1.066-.443.244-1.481.815-1.481,2.123h2c0-.053,0-.125.447-.371,1.124-.621,1.729-1.892,1.506-3.164-.213-1.212-1.208-2.206-2.417-2.417Z"/>
</svg>
