<?xml version="1.0" encoding="UTF-8"?>
<svg xmlns="http://www.w3.org/2000/svg" id="Layer_1" data-name="Layer 1" viewBox="0 0 24 24" width="512" height="512"><path d="m20.414,19h1.723l-.137-14c0-1.654-1.346-3-3-3H5c-.451,0-.892.102-1.293.293L1.457.043.043,1.457l22.5,22.5,1.414-1.414-3.543-3.543Zm-1.414-15c.552,0,1,.448,1,1.01l.117,11.99h-1.617v.086L5.414,4h13.586Zm-4.972,14.27l1.42,1.42-2.267,1.874c-.327.292-.747.439-1.172.439-.433,0-.869-.153-1.218-.463l-3.016-2.54H2V6.242l2,2v8.758h4.506l3.495,2.945,2.027-1.676Z"/></svg>
