<?xml version="1.0" encoding="UTF-8"?>
<svg xmlns="http://www.w3.org/2000/svg" id="Layer_1" data-name="Layer 1" viewBox="0 0 24 24">
  <path d="m5.76,17h12.479c-.651.811-1.454,1.493-2.37,2h-7.74c-.915-.507-1.719-1.189-2.37-2Zm13.653-8H4.587c-.256.631-.431,1.301-.518,2h15.862c-.087-.699-.262-1.369-.518-2Zm-3.543-4h-7.74c-.915.507-1.719,1.189-2.37,2h12.479c-.651-.811-1.454-1.493-2.37-2ZM4.587,15h14.826c.256-.631.431-1.301.518-2H4.069c.087.699.262,1.369.518,2Zm19.413-3c0,6.617-5.383,12-12,12S0,18.617,0,12,5.383,0,12,0s12,5.383,12,12Zm-2,0c0-4.832-3.446-8.876-8.01-9.801-.1,1.009-.954,1.801-1.99,1.801s-1.89-.791-1.99-1.801C5.446,3.124,2,7.168,2,12s3.446,8.876,8.01,9.801c.1-1.009.954-1.801,1.99-1.801s1.89.791,1.99,1.801c4.564-.925,8.01-4.968,8.01-9.801Z"/>
</svg>
