<?xml version="1.0" encoding="UTF-8"?>
<svg xmlns="http://www.w3.org/2000/svg" id="Layer_1" data-name="Layer 1" viewBox="0 0 24 24" width="512" height="512"><path d="M24,12c0,6.617-5.383,12-12,12-4.253,0-7.987-2.231-10.119-5.577,.204,.029,.407,.063,.619,.063,.581,0,1.132-.119,1.643-.321,1.832,2.33,4.67,3.835,7.857,3.835,5.514,0,10-4.486,10-10S17.514,2,12,2c-2.961,0-5.618,1.301-7.451,3.353l-3.453,2.707c-.12,.118-.352,.356-.635,.679C1.887,3.704,6.514,0,12,0c6.617,0,12,5.383,12,12Zm-15.5-3c-.828,0-1.5,.672-1.5,1.5s.672,1.5,1.5,1.5,1.5-.672,1.5-1.5-.672-1.5-1.5-1.5Zm5.5,1.5c0,.828,.672,1.5,1.5,1.5s1.5-.672,1.5-1.5-.672-1.5-1.5-1.5-1.5,.672-1.5,1.5Zm-9,3.486c0-1.987-2.5-4.5-2.5-4.5,0,0-2.5,2.462-2.5,4.5,0,1.381,1.119,2.5,2.5,2.5s2.5-1.119,2.5-2.5Zm-.371-6.509l.741,1.857c1.582-.631,2.952-1.765,3.962-3.279l-1.664-1.11c-.773,1.159-1.853,2.058-3.039,2.532Zm14.001,1.857l.741-1.857c-1.187-.474-2.266-1.373-3.039-2.532l-1.664,1.11c1.01,1.514,2.38,2.647,3.962,3.279Zm-6.63,3.666c2.761,0,5,2.239,5,5h-2.023c-.168,1.51-1.275,3-2.977,3s-2.809-1.49-2.977-3h-2.023c0-2.761,2.239-5,5-5Zm1,4.6v-1.404c-.282-.121-.613-.196-1-.196s-.718,.075-1,.196v1.404c0,.662,.411,1.4,1,1.4s1-.738,1-1.4Z"/></svg>
