<?xml version="1.0" encoding="UTF-8"?>
<svg xmlns="http://www.w3.org/2000/svg" id="Layer_1" data-name="Layer 1" viewBox="0 0 24 24" width="512" height="512"><path d="m23.36.639c-1.601-1.602-5.027.126-7.798,2.017-1.107-.424-2.308-.656-3.562-.656C6.486,2,2,6.486,2,12c0,1.254.233,2.455.656,3.562-1.891,2.772-3.618,6.197-2.017,7.798.424.425.993.637,1.703.637,1.153,0,2.679-.559,4.562-1.675.496-.294,1.009-.622,1.533-.979,1.107.423,2.308.656,3.562.656,5.514,0,10-4.486,10-10,0-1.261-.235-2.469-.664-3.581,2.168-3.166,3.514-6.289,2.024-7.78Zm-1.414,1.414c.096.096.246,1.146-1.345,3.833-.101.171-.207.344-.317.519-.717-1.059-1.632-1.974-2.692-2.691,3.011-1.895,4.228-1.785,4.353-1.661Zm-9.946,1.947c3.045,0,5.698,1.71,7.049,4.221-1.36,1.862-3.084,3.855-5.029,5.8-1.944,1.944-3.937,3.669-5.799,5.029-2.511-1.351-4.221-4.004-4.221-7.049,0-4.411,3.589-8,8-8Zm-6.114,16.602c-2.686,1.591-3.735,1.439-3.832,1.345-.124-.124-.233-1.344,1.661-4.353.717,1.059,1.632,1.974,2.691,2.691-.175.11-.349.216-.52.317Zm14.114-8.602c0,4.411-3.589,8-8,8-.522,0-1.033-.051-1.527-.147,1.627-1.271,3.315-2.771,4.962-4.418,1.312-1.312,2.935-3.095,4.413-4.989.099.503.152,1.022.152,1.554Z"/></svg>
