<?xml version="1.0" encoding="UTF-8"?>
<svg xmlns="http://www.w3.org/2000/svg" id="Layer_1" data-name="Layer 1" viewBox="0 0 24 24" width="512" height="512"><path d="M24,16v8h-8c-2.955,0-5.535-1.615-6.92-4.004,.769-.006,1.518-.091,2.242-.248,1.101,1.371,2.787,2.252,4.678,2.252h6v-6c0-1.891-.881-3.577-2.252-4.678,.156-.724,.242-1.473,.248-2.242,2.389,1.385,4.004,3.965,4.004,6.92Zm-11.938,1.452c-.957,.348-1.985,.548-3.062,.548H0V9C0,4.037,4.037,0,9,0s9,4.037,9,9c0,3.132-1.61,5.892-4.043,7.504l1.532,1.485,3.812-3.704,1.398,1.43-3.793,3.707c-.385,.385-.894,.578-1.403,.578-.513,0-1.026-.195-1.417-.586l-2.024-1.962Zm-3.062-1.452c3.859,0,7-3.141,7-7s-3.141-7-7-7S2,5.141,2,9v7h7Zm.536-11.952c-.886-.161-1.783,.081-2.464,.653-.682,.572-1.072,1.41-1.072,2.299h2c0-.297,.131-.576,.358-.767,.229-.194,.522-.273,.832-.216,.391,.068,.724,.401,.793,.794,.093,.53-.213,.905-.502,1.065-.845,.465-1.481,1.595-1.481,2.628v.495h2v-.495c0-.312,.26-.773,.447-.876,1.125-.621,1.729-1.893,1.506-3.163-.212-1.212-1.207-2.207-2.417-2.418Zm-1.536,9.952h2v-2h-2v2Z"/></svg>
