<?xml version="1.0" encoding="UTF-8"?>
<svg xmlns="http://www.w3.org/2000/svg" id="Layer_1" data-name="Layer 1" viewBox="0 0 24 24">
  <path d="m12,0C5.383,0,0,5.383,0,12s5.383,12,12,12,12-5.383,12-12S18.617,0,12,0Zm0,2c3.712,0,6.951,2.038,8.677,5.049-.145-.026-.291-.049-.441-.049h-6.149l-1,1h-2.172l-1-1H3.765c-.15,0-.296.022-.441.049,1.725-3.011,4.964-5.049,8.677-5.049Zm8.673,7.534l-.337,1.685c-.09.453-.491.781-.953.781h-3.338c-.45,0-.841-.305-.95-.741l-.488-1.952.307-.307h5.321c.184,0,.295.103.345.163.05.062.129.19.093.371Zm-11.281-.228l-.488,1.952c-.109.437-.5.741-.95.741h-3.338c-.461,0-.862-.328-.953-.781l-.337-1.685c-.036-.181.042-.31.093-.371.05-.061.161-.163.345-.163h5.321l.307.307Zm2.607,12.693c-5.358,0-9.732-4.239-9.977-9.538.513.924,1.493,1.538,2.593,1.538h3.338c1.37,0,2.559-.928,2.891-2.257l.436-1.743h1.438l.436,1.743c.332,1.329,1.521,2.257,2.891,2.257h3.338c1.1,0,2.08-.614,2.593-1.537-.244,5.298-4.619,9.537-9.977,9.537Zm4.168-6.555l1.664,1.109c-1.524,2.286-3.823,3.445-6.832,3.445v-2c.948,0,3.465,0,5.168-2.555Z"/>
</svg>
