<?xml version="1.0" encoding="UTF-8"?>
<svg xmlns="http://www.w3.org/2000/svg" id="Layer_1" data-name="Layer 1" viewBox="0 0 24 24" width="512" height="512"><path d="M16,9v-3h-3.59l-2.41,2.41v4.03c-.29,.49-.54,1-.71,1.56h-1.29V7.59l3.59-3.59h6.41v5.29c-.63-.19-1.3-.29-2-.29Zm-5.74,11H2V3c0-.55,.45-1,1-1H19c.55,0,1,.45,1,1v7.26c.81,.57,1.49,1.3,2,2.15V3c0-1.65-1.35-3-3-3H3C1.35,0,0,1.35,0,3V22H12.41c-.85-.51-1.58-1.19-2.15-2Zm-1.03-16H4v14h5.29c-.19-.63-.29-1.3-.29-2h-3V7.09l3.23-3.09Zm13.31,19.96l-3.79-3.79c-.79,.52-1.74,.83-2.75,.83-2.76,0-5-2.24-5-5s2.24-5,5-5,5,2.24,5,5c0,1.02-.31,1.96-.83,2.75l3.79,3.79-1.41,1.41Zm-3.54-7.96c0-1.65-1.35-3-3-3s-3,1.35-3,3,1.35,3,3,3,3-1.35,3-3Z"/></svg>
