<?xml version="1.0" encoding="UTF-8"?>
<svg xmlns="http://www.w3.org/2000/svg" id="Layer_1" data-name="Layer 1" viewBox="0 0 24 24">
  <path d="m24,10.007v13.993h-2v-13.993c0-.31-.14-.597-.384-.788L12.616,2.177c-.363-.284-.869-.284-1.232,0L2.384,9.22c-.244.191-.384.478-.384.788v13.993H0v-13.993c0-.929.42-1.791,1.151-2.363L10.151.602c1.088-.852,2.609-.852,3.697,0l9,7.043c.731.572,1.151,1.434,1.151,2.363Zm-12-.007c1.381,0,2.5-1.119,2.5-2.5s-1.119-2.5-2.5-2.5-2.5,1.119-2.5,2.5,1.119,2.5,2.5,2.5Zm5,4v6h-2v4h-2v-4h-2v4h-2v-4h-2v-6c0-1.654,1.346-3,3-3h4c1.654,0,3,1.346,3,3Zm-2,0c0-.552-.448-1-1-1h-4c-.552,0-1,.448-1,1v4h6v-4Z"/>
</svg>
