<?xml version="1.0" encoding="UTF-8"?>
<svg xmlns="http://www.w3.org/2000/svg" id="Layer_1" data-name="Layer 1" viewBox="0 0 24 24">
  <path d="m17.431,21.576l1.424,1.424c-.551.612-1.341,1-2.222,1H7.329c-1.531,0-2.813-1.147-2.982-2.669l-1.604-14.444,2.263,2.263,1.329,11.96c.057.507.484.89.994.89h9.304c.332,0,.616-.172.799-.424Zm6.526.967l-1.414,1.414L.043,1.457,1.457.043l3.957,3.957h1.586v-2c0-1.103.897-2,2-2h6c1.103,0,2,.897,2,2v2h6v2h-1.682l-1.39,12.513,4.03,4.03ZM9,4h6v-2h-6v2Zm-1.586,2l10.702,10.702,1.189-10.702H7.414Z"/>
</svg>
