<?xml version="1.0" encoding="UTF-8"?>
<svg xmlns="http://www.w3.org/2000/svg" id="Layer_1" data-name="Layer 1" viewBox="0 0 24 24">
  <path d="m3,19h2v5h-2v-5Zm1-10c0-2.206,1.794-4,4-4s4,1.794,4,4-1.794,4-4,4-4-1.794-4-4Zm2,0c0,1.103.897,2,2,2s2-.897,2-2-.897-2-2-2-2,.897-2,2Zm5,6H2V5H0v12h11c1.103,0,2,.897,2,2v5h2v-5c0-2.206-1.794-4-4-4ZM24,2.5v6.499l-5.572.006-1.673,1.712c-.293.188-.628.281-.964.281-.295,0-.591-.072-.859-.22-.574-.313-.931-.915-.931-1.568V2.503C13.999,1.126,15.12.004,16.498.002l5.001-.002h.003c.666,0,1.293.26,1.765.73.473.473.733,1.101.733,1.77Zm-2,0c0-.181-.092-.3-.146-.354s-.173-.146-.352-.146h0l-5.001.002c-.275,0-.5.225-.5.5v6.149s1.572-1.646,1.572-1.646l4.428-.004V2.5Z"/>
</svg>
