<?xml version="1.0" encoding="UTF-8"?>
<svg xmlns="http://www.w3.org/2000/svg" id="Layer_1" data-name="Layer 1" viewBox="0 0 24 24" width="512" height="512"><path d="m19.946,2.607L12-.027l-7.946,2.635c-1.229.407-2.054,1.55-2.054,2.843v6.524c0,6.562,7.005,10.575,9.153,11.649l.805.402.835-.336c2.16-.868,9.207-4.28,9.207-11.716v-6.524c0-1.293-.826-2.436-2.054-2.843Zm.054,9.367c0,6.182-6.087,9.11-7.953,9.86-1.888-.944-8.047-4.445-8.047-9.86v-6.524c0-.43.275-.809.684-.944l7.316-2.426,7.316,2.426c.409.136.684.515.684.944v6.524Zm-3.583-3.977c.028.002.055.002.083.002.828,0,1.5-.672,1.5-1.5s-.672-1.5-1.5-1.5-1.5.672-1.5,1.5c0,.028,0,.056.002.083l-.608.608c-.423-.267-.893-.465-1.394-.579v-1.612h-2v1.612c-.502.114-.972.313-1.394.579l-.608-.608c.002-.028.002-.055.002-.083,0-.828-.672-1.5-1.5-1.5s-1.5.672-1.5,1.5.672,1.5,1.5,1.5c.028,0,.056,0,.083-.002l.608.608c-.267.423-.465.893-.579,1.394h-1.612v2h1.612c.114.502.313.972.579,1.394l-.608.608c-.028-.002-.055-.002-.083-.002-.828,0-1.5.672-1.5,1.5s.672,1.5,1.5,1.5,1.5-.672,1.5-1.5c0-.028,0-.056-.002-.083l.608-.608c.423.267.893.465,1.394.579v1.612h2v-1.612c.502-.114.972-.313,1.394-.579l.608.608c-.002.028-.002.055-.002.083,0,.828.672,1.5,1.5,1.5s1.5-.672,1.5-1.5-.672-1.5-1.5-1.5c-.028,0-.056,0-.083.002l-.608-.608c.267-.423.465-.893.579-1.394h1.612v-2h-1.612c-.114-.502-.313-.972-.579-1.394l.608-.608Zm-4.417,5.502c-1.378,0-2.5-1.121-2.5-2.5s1.122-2.5,2.5-2.5,2.5,1.121,2.5,2.5-1.122,2.5-2.5,2.5Z"/></svg>
