<?xml version="1.0" encoding="UTF-8"?>
<svg xmlns="http://www.w3.org/2000/svg" id="Layer_1" data-name="Layer 1" viewBox="0 0 24 24">
  <path d="m23.017,8.785c-.595-.542-1.361-.816-2.168-.782-.804.038-1.544.387-2.086.981l-3.216,3.534c-.551-.909-1.55-1.519-2.689-1.519H3c-1.654,0-3,1.346-3,3v7c0,1.654,1.346,3,3,3h10.448l9.788-10.985c1.093-1.227.994-3.124-.219-4.229Zm-1.274,2.899l-9.191,10.315H3c-.551,0-1-.448-1-1v-7c0-.552.449-1,1-1h9.858c.63,0,1.142.513,1.142,1.143,0,.564-.421,1.051-.981,1.13l-5.161.737.283,1.98,5.16-.737c1.175-.168,2.13-.987,2.515-2.059l4.426-4.864c.182-.199.43-.316.7-.329.27-.016.528.081.728.263.407.371.44,1.009.073,1.421Zm-7.743-2.685H2V0h2v7h8V0h2v9ZM4.962,0h6c0,1.657-1.343,3-3,3s-3-1.343-3-3Z"/>
</svg>
