<?xml version="1.0" encoding="UTF-8"?>
<svg xmlns="http://www.w3.org/2000/svg" id="Layer_1" data-name="Layer 1" viewBox="0 0 24 24" width="512" height="512"><path d="m21,0H3C1.346,0,0,1.346,0,3v21h24V3c0-1.654-1.346-3-3-3Zm1,22H2V3c0-.552.449-1,1-1h18c.551,0,1,.448,1,1v19ZM13.879,6.379l-7.879,7.879v4.242h4.243l7.878-7.879c1.17-1.17,1.17-3.072,0-4.242-1.134-1.133-3.11-1.133-4.243,0Zm-4.464,10.121h-1.415v-1.414l4.836-4.836,1.414,1.414-4.836,4.836Zm7.292-7.293l-1.043,1.043-1.414-1.414,1.043-1.043c.377-.379,1.036-.379,1.414,0,.39.39.39,1.024,0,1.414Z"/></svg>
