<?xml version="1.0" encoding="UTF-8"?>
<svg xmlns="http://www.w3.org/2000/svg" id="Layer_1" data-name="Layer 1" viewBox="0 0 24 24">
  <path d="m23.637,10.55l-4.252-7.962c-.522-.979-1.536-1.587-2.646-1.587H7.282c-1.108,0-2.122.606-2.644,1.582L.366,10.549c-.489.911-.489,2,0,2.911l4.271,7.958c.523.975,1.536,1.581,2.644,1.581h9.457c1.11,0,2.124-.608,2.646-1.587l4.252-7.962c.485-.908.485-1.993,0-2.901Zm-1.764,1.958l-4.252,7.963h0c-.175.327-.513.529-.883.529H7.281c-.369,0-.707-.202-.882-.527l-4.271-7.958c-.171-.319-.171-.701,0-1.02L6.401,3.527c.174-.325.512-.527.881-.527h9.456c.37,0,.708.203.883.529l4.252,7.963c.17.317.17.697,0,1.015Zm-14.873-1.508h10v2H7v-2Zm3.5-3.5c0-.828.672-1.5,1.5-1.5s1.5.672,1.5,1.5-.672,1.5-1.5,1.5-1.5-.672-1.5-1.5Zm3,9c0,.828-.672,1.5-1.5,1.5s-1.5-.672-1.5-1.5.672-1.5,1.5-1.5,1.5.672,1.5,1.5Z"/>
</svg>
