<?xml version="1.0" encoding="UTF-8"?>
<svg xmlns="http://www.w3.org/2000/svg" id="Layer_1" data-name="Layer 1" viewBox="0 0 24 24">
  <path d="m24.047,24l-4.957-11.015-3.474,4.962-9.106-6.231,1.096-3.054c.096-.269.304-.483.569-.59.116-.05.405-.121.816.032l.47.177c.687.342,1.211.929,1.474,1.652l1.424,4.143,1.881-.684-1.425-4.143c-.438-1.207-1.312-2.187-2.461-2.759l-.47-.177c-.767-.382-1.661-.418-2.456-.098-.795.319-1.416.965-1.705,1.771l-.919,2.561-2.739-1.874-1.129,1.65,13.534,9.26-3.091,4.415h12.668Zm-3.094-2h-5.732l3.49-4.985,2.242,4.985ZM9,2.5c0-1.381,1.119-2.5,2.5-2.5s2.5,1.119,2.5,2.5-1.119,2.5-2.5,2.5-2.5-1.119-2.5-2.5ZM3.251,14.939l1.729,1.183-2.827,7.878H0l3.251-9.061Zm4.749,3.249l2,1.368v4.443h-2v-5.812Z"/>
</svg>
