<?xml version="1.0" encoding="UTF-8"?>
<svg xmlns="http://www.w3.org/2000/svg" id="Layer_1" data-name="Layer 1" viewBox="0 0 24 24" width="512" height="512"><path d="M24,12v9c0,.552-.448,1-1,1s-1-.448-1-1V12c0-5.514-4.486-10-10-10S2,6.486,2,12v7c0,.552-.448,1-1,1s-1-.448-1-1v-7C0,5.383,5.383,0,12,0s12,5.383,12,12Zm-14-2.5c0-.828-.672-1.5-1.5-1.5s-1.5,.672-1.5,1.5,.672,1.5,1.5,1.5,1.5-.672,1.5-1.5Zm7,0c0-.828-.672-1.5-1.5-1.5s-1.5,.672-1.5,1.5,.672,1.5,1.5,1.5,1.5-.672,1.5-1.5Zm2,6.5v7c0,.552-.448,1-1,1s-1-.448-1-1v-4.184c-.314,.112-.648,.184-1,.184h-1v2c0,.552-.448,1-1,1s-1-.448-1-1v-2h-5c-1.654,0-3-1.346-3-3s1.346-3,3-3h8c1.654,0,3,1.346,3,3Zm-11,1h1v-2h-1c-.551,0-1,.448-1,1s.449,1,1,1Zm5,0v-2h-2v2h2Zm4-1c0-.552-.449-1-1-1h-1v2h1c.551,0,1-.448,1-1Zm-13,1.974v2.945c1.892,1.699,4.32,2.809,7,3.033v-2.013c-2.859-.287-5.363-1.78-7-3.965Z"/></svg>
