<?xml version="1.0" encoding="UTF-8"?>
<svg xmlns="http://www.w3.org/2000/svg" id="Layer_1" data-name="Layer 1" viewBox="0 0 24 24">
  <path d="m8,15.97h5v1.6h-1.75v6.4h-1.6v-6.4h-1.65v-1.6Zm8.9,3.25h-1.413v-3.25h-1.6v8h1.6v-3.15h1.413v3.15h1.6v-8h-1.6v3.25Zm5.5,2.48c0,.386-.314.7-.7.7s-.7-.314-.7-.7v-5.73h-1.6v5.73c0,1.269,1.031,2.3,2.3,2.3s2.3-1.031,2.3-2.3v-5.73h-1.6v5.73Zm1.6-16.7v9h-2v-4H2v12h5v2H0V5c0-1.654,1.346-3,3-3h3V0h2v2h8V0h2v2h3c1.654,0,3,1.346,3,3Zm-2,3v-3c0-.552-.449-1-1-1H3c-.551,0-1,.448-1,1v3h20Z"/>
</svg>
