<?xml version="1.0" encoding="UTF-8"?>
<svg xmlns="http://www.w3.org/2000/svg" id="Layer_1" data-name="Layer 1" viewBox="0 0 24 24">
  <path d="m5.39,15H0v2h3v3H0v2h2v.5c0,.828.672,1.5,1.5,1.5s1.5-.672,1.5-1.5c0,.828.672,1.5,1.5,1.5s1.5-.672,1.5-1.5v-.5h2v-2.188l-.884-2.266c-.604-1.547-2.066-2.546-3.727-2.546Zm-.39,2h.39c.83,0,1.562.5,1.863,1.273l.674,1.727h-2.927v-3Zm14-5.006l3.535-3.458c1.949-1.95,1.949-5.122,0-7.071h0c-.945-.944-2.2-1.464-3.535-1.464s-2.592.52-3.535,1.464c-1.949,1.95-1.949,5.122.008,7.079l3.527,3.45Zm-2.121-9.115c.566-.566,1.319-.878,2.121-.878s1.554.312,2.121.878c1.17,1.17,1.17,3.073.008,4.235l-2.129,2.082-2.121-2.074c-1.17-1.17-1.17-3.073,0-4.243Zm7.121,15.122c0,2.206-1.794,4-4,4h-8v-2h8c1.103,0,2-.897,2-2s-.897-2-2-2h-8c-2.206,0-4-1.794-4-4s1.794-4,4-4h.683c.337.713.801,1.382,1.391,1.973l.027.027h-2.102c-1.103,0-2,.897-2,2s.897,2,2,2h8c2.206,0,4,1.794,4,4Z"/>
  <circle cx="19.001" cy="4.787" r="1"/>
</svg>
