<?xml version="1.0" encoding="UTF-8"?>
<svg xmlns="http://www.w3.org/2000/svg" id="Layer_1" data-name="Layer 1" viewBox="0 0 24 24">
  <path d="m8,12c3.309,0,6-2.691,6-6S11.309,0,8,0,2,2.691,2,6s2.691,6,6,6Zm0-10c2.206,0,4,1.794,4,4s-1.794,4-4,4-4-1.794-4-4,1.794-4,4-4Zm15.169,14.111l-4.745-4.764-6.442.852-.5,6.266,4.683,4.701c.535.532,1.244.825,1.998.825.004,0,.008,0,.012,0,.759-.003,1.47-.302,2.003-.842l3.005-3.044c1.092-1.105,1.084-2.898-.014-3.993Zm-1.409,2.589l-3.005,3.043c-.157.159-.366.247-.588.248h-.003c-.222,0-.43-.087-.584-.24l-4.029-4.046.298-3.734,3.858-.51,4.049,4.064c.324.322.326.85.005,1.175ZM4.5,14h5.332l-.16,2h-5.173c-1.378,0-2.5,1.121-2.5,2.5v5.5H0v-5.5c0-2.481,2.019-4.5,4.5-4.5Zm13.5,2.5c0,.828-.672,1.5-1.5,1.5s-1.5-.672-1.5-1.5.672-1.5,1.5-1.5,1.5.672,1.5,1.5Z"/>
</svg>
