<?xml version="1.0" encoding="UTF-8"?>
<svg xmlns="http://www.w3.org/2000/svg" id="Layer_1" data-name="Layer 1" viewBox="0 0 24 24" width="512" height="512"><path d="M8,5c1.768,0,3,2.108,3,4h-2c0-1.054-.679-2-1-2s-1,.946-1,2h-2c0-1.892,1.232-4,3-4Z"/><path d="M16,5c-1.768,0-3,2.108-3,4h2c0-1.054,.679-2,1-2s1,.946,1,2h2c0-1.892-1.232-4-3-4Z"/><path d="M16.336,10.252c-.02,.018-2.005,1.748-4.336,1.748s-4.316-1.73-4.336-1.748l-1.33,1.493c.103,.092,2.559,2.254,5.666,2.254s5.563-2.162,5.666-2.254l-1.33-1.493Z"/><path d="M23.761,18.192c.294,.294,.307,.747,.066,1.071-.003,.029-.024,.068-.092,.136l-3.334,3.334c-.845,.845-1.954,1.267-3.064,1.267-1.43,0-2.858-.701-3.722-2.102-.425-.69-.612-1.505-.612-2.316v-3.58c0-.552,.448-1,1-1s1,.448,1,1v1.119l4.377-4.377c.162-.162,.374-.242,.585-.242s.424,.081,.585,.242c.323,.323,.323,.847,0,1.171l-2.961,2.961,1.002,1.002,3.634-3.634c.162-.162,.373-.242,.585-.242s.424,.081,.585,.242c.323,.323,.323,.847,0,1.171l-3.631,3.631,.985,.985,1.84-1.84c.162-.162,.374-.242,.585-.242s.424,.081,.585,.242Z"/><path d="M10.996,16.002v3.58c0,.811-.186,1.625-.612,2.316-.863,1.401-2.292,2.102-3.722,2.102-1.11,0-2.219-.422-3.064-1.267L.265,19.399c-.069-.069-.09-.107-.092-.136-.24-.324-.228-.777,.066-1.071,.162-.162,.373-.242,.585-.242s.424,.081,.585,.242l1.84,1.84,.985-.985L.602,15.416c-.323-.323-.323-.847,0-1.171,.162-.162,.374-.242,.585-.242s.424,.081,.585,.242l3.634,3.634,1.002-1.002-2.961-2.961c-.323-.323-.323-.847,0-1.171,.162-.162,.373-.242,.585-.242s.424,.081,.585,.242l4.377,4.377v-1.119c0-.552,.448-1,1-1s1,.448,1,1Z"/><path d="M21.977,11.344c.023,0,.044-.007,.067-.007,.778,0,1.465,.363,1.924,.921,.006,.003,.013,.004,.019,.007,.002-.089,.013-.175,.013-.265C24,5.383,18.617,0,12,0S0,5.383,0,12c0,.089,.011,.176,.013,.264,.007-.003,.015-.004,.022-.007,.458-.557,1.145-.92,1.923-.92,.022,0,.043,.006,.066,.007,.004-.004,.007-.009,.011-.012C2.38,6.129,6.711,2,12,2s9.62,4.129,9.966,9.331c.004,.004,.007,.009,.011,.013Z"/></svg>
