<?xml version="1.0" encoding="UTF-8"?>
<svg xmlns="http://www.w3.org/2000/svg" id="Layer_1" data-name="Layer 1" viewBox="0 0 24 24">
  <path d="m19.5,15.121v-5.207l4.414-4.414L18.5.086l-3.914,3.914h-5.636C8.697,1.756,6.81,0,4.5,0,2.019,0,0,2.019,0,4.5c0,1.953,1.258,3.602,3,4.224v7.276H0v8h8v-8h-3v-7.051c1.731-.195,3.157-1.36,3.724-2.949h4.862l3.914,3.914v5.207c-2,.457-3.5,2.242-3.5,4.379,0,2.481,2.019,4.5,4.5,4.5s4.5-2.019,4.5-4.5c0-2.137-1.5-3.922-3.5-4.379Zm-13.5,6.879H2v-4h4v4ZM21.086,5.5l-2.586,2.586-2.5-2.5v-.172l2.5-2.5,2.586,2.586Zm-16.586,1.5c-1.379,0-2.5-1.122-2.5-2.5s1.121-2.5,2.5-2.5,2.5,1.122,2.5,2.5-1.121,2.5-2.5,2.5Zm14,15c-1.379,0-2.5-1.121-2.5-2.5s1.121-2.5,2.5-2.5,2.5,1.121,2.5,2.5-1.121,2.5-2.5,2.5Z"/>
</svg>
