<?xml version="1.0" encoding="UTF-8"?>
<svg xmlns="http://www.w3.org/2000/svg" id="Layer_1" data-name="Layer 1" viewBox="0 0 24 24" width="512" height="512"><path d="M24,12c0,6.617-5.383,12-12,12S0,18.617,0,12c0-2.026,.509-3.935,1.4-5.61,.539,.275,1.164,.516,1.887,.72-.816,1.448-1.287,3.114-1.287,4.891,0,5.514,4.486,10,10,10s10-4.486,10-10c0-1.777-.471-3.443-1.287-4.891,.723-.204,1.348-.445,1.887-.72,.891,1.676,1.4,3.584,1.4,5.61Zm-16-2c.32,0,1,.946,1,2h2c0-1.892-1.232-4-3-4s-3,2.108-3,4h2c0-1.054,.68-2,1-2Zm8-2c-1.768,0-3,2.108-3,4h2c0-1.054,.68-2,1-2s1,.946,1,2h2c0-1.892-1.232-4-3-4Zm1.666,8.746l-1.33-1.493c-.02,.018-2.005,1.748-4.336,1.748s-4.316-1.73-4.336-1.748l-1.33,1.493c.103,.092,2.559,2.254,5.666,2.254s5.563-2.162,5.666-2.254ZM1,3C1,.216,9.42,0,12,0s11,.216,11,3-8.42,3-11,3S1,5.784,1,3Zm2.502,0c1.222,.449,4.139,1,8.498,1s7.276-.551,8.498-1c-1.222-.449-4.139-1-8.498-1s-7.276,.551-8.498,1Z"/></svg>
