<?xml version="1.0" encoding="UTF-8"?>
<svg xmlns="http://www.w3.org/2000/svg" id="Layer_1" data-name="Layer 1" viewBox="0 0 24 24" width="512" height="512"><path d="M12,6c-3.31,0-6,2.69-6,6s2.69,6,6,6,6-2.69,6-6c0-.54-.08-1.05-.21-1.55l1.57-1.57c.41,.96,.64,2.01,.64,3.12,0,4.41-3.59,8-8,8s-8-3.59-8-8S7.59,4,12,4c1.11,0,2.16,.23,3.12,.64l-1.57,1.57c-.49-.13-1.01-.21-1.55-.21Zm9.6,3.23c.26,.88,.4,1.81,.4,2.77,0,5.51-4.49,10-10,10S2,17.51,2,12,6.49,2,12,2c.96,0,1.89,.14,2.77,.4l1.57-1.57c-1.35-.53-2.81-.83-4.34-.83C5.38,0,0,5.38,0,12s5.38,12,12,12,12-5.38,12-12c0-1.53-.3-3-.83-4.34l-1.57,1.57Zm-9.87-1.2c-2.08,.14-3.73,1.86-3.73,3.97s1.79,4,4,4,3.83-1.65,3.97-3.73l-1.14,1.14c-1.17,1.17-3.07,1.17-4.24,0s-1.17-3.07,0-4.24l1.14-1.14Zm-.44,3.27l1.41,1.41,5.71-5.71h2.59l3-3h-4V0l-3,3v2.59l-5.71,5.71Z"/></svg>
