<?xml version="1.0" encoding="UTF-8"?>
<svg xmlns="http://www.w3.org/2000/svg" id="Layer_1" data-name="Layer 1" viewBox="0 0 24 24">
  <path d="m12,4c1.87,0,3.627.728,4.949,2.05l-1.414,1.414c-.944-.944-2.2-1.464-3.535-1.464s-2.591.52-3.535,1.464l-1.414-1.414c1.322-1.322,3.079-2.05,4.949-2.05Zm6.364.636l1.414-1.414C15.489-1.067,8.511-1.067,4.222,3.222l1.414,1.414c3.51-3.509,9.219-3.509,12.729,0Zm5.636,8.364v11H0v-11c0-1.654,1.346-3,3-3h18c1.654,0,3,1.346,3,3Zm-2,0c0-.551-.448-1-1-1H3c-.552,0-1,.449-1,1v9h20v-9Zm-17,0h-2v8h3v-2h-1v-6Zm12,8h4v-2h-2v-1h2v-2h-2v-1h2v-2h-4v8Zm-10,0h2v-8h-2v8Zm7-7.64l-1,3.5-1-3.5v-.36h-2v.5l2.115,7.5h1.783l2.065-7.225.038-.775h-2v.36Z"/>
</svg>
