<?xml version="1.0" encoding="UTF-8"?>
<svg xmlns="http://www.w3.org/2000/svg" id="Layer_1" data-name="Layer 1" viewBox="0 0 24 24" width="512" height="512"><path d="M12,0C5.383,0,0,5.383,0,12s5.383,12,12,12,12-5.383,12-12S18.617,0,12,0Zm0,22c-5.514,0-10-4.486-10-10S6.486,2,12,2s10,4.486,10,10-4.486,10-10,10ZM5.37,9.334l-.742-1.857c1.188-.474,2.268-1.373,3.04-2.531l1.664,1.109c-1.01,1.514-2.38,2.647-3.962,3.279Zm8.63,.666c0-1.657,.672-3,1.5-3s1.5,1.343,1.5,3-.672,3-1.5,3-1.5-1.343-1.5-3Zm-7.447,1.105l4-2,.895,1.789-4,2-.895-1.789Zm10.582,3.394l1.731,1c-.337,.584-2.129,3.5-4.289,3.5-.903,0-1.609-.68-2.232-1.28-.263-.252-.702-.676-.884-.724-.149,.003-.338,.124-.656,.335-.423,.282-1.002,.668-1.805,.668-1.276,0-3.018-1.604-3.707-2.293l1.414-1.415c.85,.849,1.951,1.663,2.311,1.708,.171,0,.359-.121,.678-.333,.423-.282,1.002-.668,1.805-.668,.903,0,1.609,.68,2.232,1.28,.263,.252,.702,.676,.884,.724,.684-.003,1.91-1.456,2.519-2.504Z"/></svg>
