<?xml version="1.0" encoding="UTF-8"?>
<svg xmlns="http://www.w3.org/2000/svg" id="Layer_1" data-name="Layer 1" viewBox="0 0 24 24">
  <path d="m23.677,1.737l-1.414-1.414-5.03,5.03c-2.346-1.742-5.568-1.819-8.002-.081l-1.58,1.09.343.765c.113.251.594,1.554-1.009,2.515-1.723,1.032-2.819.005-2.932-.105l-.685-.728-.728.685C.972,11.063.033,13.192-.002,15.488c-.035,2.287.837,4.438,2.455,6.056,1.588,1.588,3.687,2.457,5.925,2.457.044,0,.089,0,.133,0,2.296-.035,4.424-.974,5.993-2.643l.655-.718-.688-.686c-.121-.12-1.147-1.221-.115-2.941.961-1.602,2.265-1.121,2.505-1.014l.774.371,1.078-1.584c1.751-2.452,1.674-5.675-.066-8.019l5.03-5.03Zm-6.604,11.905l-.191.282c-1.231-.24-3.012.013-4.24,2.06-1.124,1.874-.782,3.527-.196,4.569-1.113.917-2.493,1.425-3.964,1.448-1.438.029-2.747-.408-3.847-1.22l1.574-1.574-1.414-1.414-1.572,1.572c-.811-1.111-1.245-2.443-1.223-3.846.022-1.471.531-2.852,1.448-3.964,1.043.587,2.695.928,4.568-.197,2.048-1.229,2.299-3.013,2.06-4.24l.301-.204c1.652-1.18,3.795-1.188,5.426-.128l-5.508,5.508,1.414,1.414,5.508-5.508c1.058,1.631,1.047,3.776-.143,5.443Zm-.103-12.112c0-.828.672-1.5,1.5-1.5s1.5.672,1.5,1.5-.672,1.5-1.5,1.5-1.5-.672-1.5-1.5Zm7,4c0,.828-.672,1.5-1.5,1.5s-1.5-.672-1.5-1.5.672-1.5,1.5-1.5,1.5.672,1.5,1.5ZM7.207,13.793l3,3-1.414,1.414-3-3,1.414-1.414Z"/>
</svg>
