<?xml version="1.0" encoding="UTF-8"?>
<svg xmlns="http://www.w3.org/2000/svg" id="Layer_1" data-name="Layer 1" viewBox="0 0 24 24" width="512" height="512"><path d="m15.937,7.283c.298,1.697-.509,3.395-2.008,4.222-.47.259-.93,1.126-.93,1.752v.743h-2v-.743c0-1.19.734-2.826,1.963-3.504.764-.42,1.157-1.254,1.004-2.124-.138-.786-.81-1.458-1.596-1.596-.609-.109-1.195.046-1.656.435-.454.381-.715.939-.715,1.532h-2c0-1.185.521-2.302,1.429-3.064.907-.762,2.103-1.078,3.288-.873,1.612.284,2.937,1.608,3.221,3.221Zm-4.937,10.717h2v-2h-2v2ZM24,3v17h-6.853l-3.847,3.18c-.361.322-.824.484-1.292.484-.476,0-.955-.168-1.337-.508l-3.749-3.156H0V3C0,1.346,1.346,0,3,0h18c1.654,0,3,1.346,3,3Zm-2,0c0-.552-.448-1-1-1H3c-.552,0-1,.448-1,1v15h5.653l4.327,3.645,4.448-3.645h5.571V3Z"/></svg>
