<?xml version="1.0" encoding="UTF-8"?>
<svg xmlns="http://www.w3.org/2000/svg" id="Layer_1" data-name="Layer 1" viewBox="0 0 24 24" width="512" height="512"><path d="M15,8h-6v3h-3v6h3v3h6v-3h3v-6h-3v-3Zm1,5v2h-3v3h-2v-3h-3v-2h3v-3h2v3h3Zm6.849-5.319l-.849-.664V2h-2v3.451L13.849,.638c-1.088-.854-2.609-.854-3.697,0L1.151,7.68c-.731,.573-1.151,1.435-1.151,2.363v13.957H24V10.043c0-.929-.42-1.79-1.151-2.362Zm-.849,14.319H2V10.043c0-.31,.14-.597,.384-.788L11.384,2.212c.363-.283,.869-.283,1.232,0l9,7.044c.244,.19,.384,.478,.384,.787v11.957Z"/></svg>
