<?xml version="1.0" encoding="UTF-8"?>
<svg xmlns="http://www.w3.org/2000/svg" id="Layer_1" data-name="Layer 1" viewBox="0 0 24 24">
  <path d="m24.008,19.906l-3.603,3.517c-.384.384-.893.577-1.402.577-.513,0-1.026-.195-1.417-.586l-3.567-3.567,1.414-1.414,2.567,2.567V0h2v21.024l2.611-2.549,1.396,1.432ZM13,4.5v16c0,2.298-3.27,3.5-6.5,3.5s-6.5-1.202-6.5-3.5V4.5C0,2.202,3.27,1,6.5,1s6.5,1.202,6.5,3.5Zm-2,16v-1.409c-1.226.601-2.867.909-4.5.909s-3.274-.308-4.5-.909v1.409c0,.436,1.577,1.5,4.5,1.5s4.5-1.064,4.5-1.5Zm0-4v-1.409c-1.226.601-2.867.909-4.5.909s-3.274-.308-4.5-.909v1.409c0,.436,1.577,1.5,4.5,1.5s4.5-1.064,4.5-1.5Zm0-4v-1.409c-1.226.601-2.867.909-4.5.909s-3.274-.308-4.5-.909v1.409c0,.436,1.577,1.5,4.5,1.5s4.5-1.064,4.5-1.5Zm0-4v-1.409c-1.226.601-2.867.909-4.5.909s-3.274-.308-4.5-.909v1.409c0,.436,1.577,1.5,4.5,1.5s4.5-1.064,4.5-1.5Zm0-4c0-.436-1.577-1.5-4.5-1.5s-4.5,1.064-4.5,1.5,1.577,1.5,4.5,1.5,4.5-1.064,4.5-1.5Z"/>
</svg>
