<?xml version="1.0" encoding="UTF-8"?>
<svg xmlns="http://www.w3.org/2000/svg" id="Layer_1" data-name="Layer 1" viewBox="0 0 24 24" width="512" height="512"><path d="M22,17v2.001c0,.551-.448,.999-.999,.999-.267,0-.518-.104-.707-.293-.188-.189-.292-.439-.292-.707l.012-10.994c.001-1.604-.622-3.111-1.755-4.246s-2.641-1.76-4.245-1.76H6C2.691,2,0,4.691,0,8v14H5.997l.01-3h4.02l-.009,3h6.003v-3h1.983c0,.801,.311,1.554,.877,2.12,.566,.567,1.32,.88,2.122,.88,1.654,0,2.999-1.346,2.999-2.999v-2.001h-2ZM6,4H14.014c1.069,0,2.075,.417,2.83,1.173,.755,.757,1.171,1.762,1.17,2.831l-.004,3.996H2v-4c0-2.206,1.794-4,4-4Zm8.02,13v3h-1.997l.009-3H4.013l-.01,3H2v-6H18.008l-.003,3h-3.985Zm-5.02-9c0-.552,.448-1,1-1s1,.448,1,1-.448,1-1,1-1-.448-1-1Zm-4,0c0-.552,.448-1,1-1s1,.448,1,1-.448,1-1,1-1-.448-1-1Zm8,0c0-.552,.448-1,1-1s1,.448,1,1-.448,1-1,1-1-.448-1-1Z"/></svg>
