<?xml version="1.0" encoding="UTF-8"?>
<svg xmlns="http://www.w3.org/2000/svg" id="Layer_1" data-name="Layer 1" viewBox="0 0 24 24">
  <path d="m22.857,0H1.083l1.747,21.246c.126,1.544,1.44,2.754,2.99,2.754h12.18c1.566,0,2.851-1.177,2.988-2.737L22.857,0Zm-2.184,2l-1.171,13.319c-.376.427-.924.681-1.503.681-1.103,0-2-.897-2-2h-2c0,1.103-.897,2-2,2s-2-.897-2-2h-2c0,1.103-.897,2-2,2-.671,0-1.295-.335-1.667-.896h0S3.254,2,3.254,2h17.419Zm-2.674,20H5.82c-.517,0-.955-.403-.997-.918l-.276-3.354c.456.177.947.272,1.452.272,1.193,0,2.267-.525,3-1.357.733.832,1.807,1.357,3,1.357s2.267-.525,3-1.357c.733.832,1.807,1.357,3,1.357.443,0,.877-.074,1.286-.214l-.29,3.301c-.046.521-.474.913-.996.913Zm-6-10c1.93,0,3.5-1.57,3.5-3.5,0-2-2.347-4.292-2.818-4.731l-.682-.637-.682.637c-.471.439-2.818,2.731-2.818,4.731,0,1.93,1.57,3.5,3.5,3.5Zm0-6.062c.748.845,1.5,1.927,1.5,2.562,0,.827-.673,1.5-1.5,1.5s-1.5-.673-1.5-1.5c0-.635.752-1.717,1.5-2.562Z"/>
</svg>
