<?xml version="1.0" encoding="UTF-8"?>
<svg xmlns="http://www.w3.org/2000/svg" id="Layer_1" data-name="Layer 1" viewBox="0 0 24 24" width="512" height="512"><path d="M22.448,7.577l-1.472,2.944c.008,.159,.024,.317,.024,.478,0,2.242-.82,4.347-2.305,6H5.306c-1.484-1.653-2.306-3.765-2.306-6C3,6.037,7.037,2,12,2c.94,0,1.846,.146,2.698,.414l2.352-1.176c-1.514-.787-3.229-1.239-5.05-1.239C5.935,0,1,4.935,1,11c0,2.644,.94,5.148,2.646,7.139l-2.646,3.528v2.333H23v-2.333l-2.642-3.523c1.707-1.99,2.642-4.489,2.642-7.144,0-1.195-.198-2.344-.552-3.423ZM3.25,22l2.25-3h13l2.25,3H3.25ZM16,4l2.667-1.333,1.333-2.667,1.333,2.667,2.667,1.333-2.667,1.333-1.333,2.667-1.333-2.667-2.667-1.333Zm-1.333,5.333l2.333,1.167-2.333,1.167-1.167,2.333-1.167-2.333-2.333-1.167,2.333-1.167,1.167-2.333,1.167,2.333Z"/></svg>
