<?xml version="1.0" encoding="UTF-8"?>
<svg xmlns="http://www.w3.org/2000/svg" id="Layer_1" data-name="Layer 1" viewBox="0 0 24 24">
  <path d="m22,14.5c0-2.481-2.019-4.5-4.5-4.5s-4.5,2.019-4.5,4.5v.5h-1.882l.945,6.436c.214,1.462,1.49,2.564,2.968,2.564h4.944c1.478,0,2.753-1.103,2.968-2.564l.946-6.436h-1.889v-.5Zm-7,0c0-1.378,1.122-2.5,2.5-2.5s2.5,1.122,2.5,2.5v.5h-5v-.5Zm5.964,6.646c-.072.487-.497.854-.989.854h-4.944c-.492,0-.917-.367-.989-.855l-.608-4.145h8.14l-.609,4.146ZM6,4.5c0,.828-.672,1.5-1.5,1.5s-1.5-.672-1.5-1.5.672-1.5,1.5-1.5,1.5.672,1.5,1.5Zm4,0c0,.828-.672,1.5-1.5,1.5s-1.5-.672-1.5-1.5.672-1.5,1.5-1.5,1.5.672,1.5,1.5ZM21,0H3C1.346,0,0,1.346,0,3v19h10.151c-.019-.093-.32-2-.32-2H2v-11h22V3c0-1.654-1.346-3-3-3Zm1,7H2V3c0-.551.449-1,1-1h18c.551,0,1,.449,1,1v4Z"/>
</svg>
