<?xml version="1.0" encoding="UTF-8"?>
<svg xmlns="http://www.w3.org/2000/svg" id="Layer_1" data-name="Layer 1" viewBox="0 0 24 24">
  <path d="m16.164,4.25L12,.086l-4.164,4.164,3.164,3.164v1.982c-1.444.431-2.5,1.772-2.5,3.354s1.056,2.923,2.5,3.354v1.896h-2v6h6v-6h-2v-1.896c1.444-.431,2.5-1.772,2.5-3.354s-1.056-2.923-2.5-3.354v-1.982l3.164-3.164Zm-3.164,17.75h-2v-2h2v2Zm-1-19.086l1.336,1.336-1.336,1.336-1.336-1.336,1.336-1.336Zm1.5,9.836c0,.827-.673,1.5-1.5,1.5s-1.5-.673-1.5-1.5.673-1.5,1.5-1.5,1.5.673,1.5,1.5Zm-6.72,6.7c.293.304.293.796,0,1.1l-2.78,2.95v-2.5h-1c-1.654,0-3-1.346-3-3v-4c0-1.654,1.346-3,3-3h3v2h-3c-.551,0-1,.448-1,1v4c0,.552.449,1,1,1h1v-2.5l2.78,2.95ZM24,6v4.5c0,1.654-1.346,3-3,3h-1v2.5l-2.78-2.95c-.293-.304-.293-.796,0-1.1l2.78-2.95v2.5h1c.551,0,1-.449,1-1v-4.5c0-.551-.449-1-1-1h-3v-2h3c1.654,0,3,1.346,3,3Z"/>
</svg>
