<?xml version="1.0" encoding="UTF-8"?>
<svg xmlns="http://www.w3.org/2000/svg" id="Layer_1" data-name="Layer 1" viewBox="0 0 24 24">
  <path d="m22,6l2.001-2.819L20.819-.001l-2.819,2.001-.323,2.909-2.091,2.091h-7.086C3.813,7,0,10.813,0,15.5c0,2.271.884,4.405,2.49,6.011,1.606,1.605,3.741,2.489,6.01,2.489,4.687,0,8.5-3.813,8.5-8.5v-7.086l2.091-2.091,2.909-.323Zm-7,9.5c0,3.584-2.916,6.5-6.5,6.5-1.735,0-3.368-.676-4.596-1.903-1.228-1.228-1.904-2.86-1.904-4.597,0-3.584,2.916-6.5,6.5-6.5h5.086l-3.422,3.422c-.495-.269-1.062-.422-1.664-.422-1.93,0-3.5,1.57-3.5,3.5s1.57,3.5,3.5,3.5,3.5-1.57,3.5-3.5c0-.602-.153-1.169-.422-1.664l3.422-3.422v5.086Zm-5,0c0,.827-.673,1.5-1.5,1.5s-1.5-.673-1.5-1.5.673-1.5,1.5-1.5,1.5.673,1.5,1.5Z"/>
</svg>
