<?xml version="1.0" encoding="UTF-8"?>
<svg xmlns="http://www.w3.org/2000/svg" id="Layer_1" data-name="Layer 1" viewBox="0 0 24 24" width="512" height="512"><path d="m22.819,15.831c.121.38.181.771.181,1.169,0,2.206-1.794,4-4,4s-4-1.794-4-4c0-.036,0-.072.001-.108l-3.001-.862-3.001.862c0,.036.001.072.001.108,0,2.206-1.794,4-4,4s-4-1.794-4-4c0-.398.061-.789.181-1.169-.751-.742-1.181-1.752-1.181-2.831,0-2.206,1.794-4,4-4,1.461,0,2.775.798,3.471,2.03l2.829-.854.578,1.914-4.691,1.418-.261-1.007c-.229-.883-1.021-1.5-1.926-1.5-1.103,0-2,.897-2,2,0,.684.35,1.314.935,1.685l.804.51-.469.828c-.179.316-.27.645-.27.977,0,1.103.897,2,2,2s2-.897,2-2c0-.173-.027-.353-.084-.548l-.279-.962,5.363-1.541,5.363,1.541-.279.962c-.057.196-.084.375-.084.548,0,1.103.897,2,2,2s2-.897,2-2c0-.333-.091-.661-.27-.977l-.469-.828.804-.51c.585-.371.935-1.001.935-1.685,0-1.103-.897-2-2-2-.92,0-1.715.628-1.935,1.527l-.247,1.012-4.98-1.43.552-1.922,3.107.892c.687-1.261,2.013-2.079,3.502-2.079,2.206,0,4,1.794,4,4,0,1.079-.43,2.089-1.181,2.831ZM13,2h-2v4h2V2Zm5.866,2.036l-1.732-1-2,3.464,1.732,1,2-3.464Zm-10,2.464l-2-3.464-1.732,1,2,3.464,1.732-1Z"/></svg>
