<?xml version="1.0" encoding="UTF-8"?>
<svg xmlns="http://www.w3.org/2000/svg" id="Layer_1" data-name="Layer 1" viewBox="0 0 24 24">
  <path d="m22.769,9.344l-.769-.736v-4.608H2v4.61l-.767.734C.451,10.094.002,11.146.002,12.231l-.002,11.769h24v-11.769c0-1.087-.449-2.14-1.231-2.888Zm-2.769-3.344v5.242l-5.879,5.879c-1.133,1.133-3.109,1.133-4.242,0l-5.879-5.879v-5.242h16Zm2,16H2s.013-9.865.017-9.913l6.448,6.448c.943.944,2.199,1.465,3.535,1.465s2.592-.521,3.535-1.465l6.45-6.45c.004.049.015,9.915.015,9.915Zm-2-20H4V0h16v2Zm-4,6.5c0-.83.67-1.5,1.5-1.5s1.5.67,1.5,1.5-.67,1.5-1.5,1.5-1.5-.67-1.5-1.5Zm-4,7.5c1.93,0,3.5-1.57,3.5-3.5s-1.57-3.5-3.5-3.5-3.5,1.57-3.5,3.5,1.57,3.5,3.5,3.5Zm0-5c.827,0,1.5.673,1.5,1.5s-.673,1.5-1.5,1.5-1.5-.673-1.5-1.5.673-1.5,1.5-1.5Zm-7-2.5c0-.83.67-1.5,1.5-1.5s1.5.67,1.5,1.5-.67,1.5-1.5,1.5-1.5-.67-1.5-1.5Z"/>
</svg>
