<?xml version="1.0" encoding="UTF-8"?>
<svg xmlns="http://www.w3.org/2000/svg" id="Layer_1" data-name="Layer 1" viewBox="0 0 24 24">
  <path d="m2,2.5c0-1.381,1.119-2.5,2.5-2.5s2.5,1.119,2.5,2.5-1.119,2.5-2.5,2.5-2.5-1.119-2.5-2.5Zm13,5.5v-2H3c-1.654,0-3,1.346-3,3v5h2v-5c0-.552.449-1,1-1h3v6h2v-6h7ZM21,0h-12.76c.391.584.64,1.267.722,2h12.038c.551,0,1,.448,1,1v9h-3v-2h-4v2h-5v2h14V3c0-1.654-1.346-3-3-3ZM3.5,20c1.105,0,2-.895,2-2s-.895-2-2-2-2,.895-2,2,.895,2,2,2Zm8.5,0c1.105,0,2-.895,2-2s-.895-2-2-2-2,.895-2,2,.895,2,2,2Zm8.5,0c1.105,0,2-.895,2-2s-.895-2-2-2-2,.895-2,2,.895,2,2,2Zm-15.5,1h-3c-1.103,0-2,.897-2,2v1h2v-1h3v1h2v-1c0-1.103-.897-2-2-2Zm17,0h-3c-1.103,0-2,.897-2,2v1h2v-1h3v1h2v-1c0-1.103-.897-2-2-2Zm-8.5,0h-3c-1.103,0-2,.897-2,2v1h2v-1h3v1h2v-1c0-1.103-.897-2-2-2Z"/>
</svg>
