<?xml version="1.0" encoding="UTF-8"?>
<svg xmlns="http://www.w3.org/2000/svg" id="Layer_1" data-name="Layer 1" viewBox="0 0 24 24">
  <path d="m21.929,11.162c-.315-4.307-2.99-4.662-3.846-4.662-1.974,0-4.083,1.451-4.083,5.522v1.103c-.642-.433-1.371-.626-2.083-.626-.781,0-3.07.303-3.707,3.619-1.27.349-2.21,1.502-2.21,2.881,0,2.022,2.059,4.14,2.293,4.374l.707.707.707-.707c.234-.234,2.293-2.352,2.293-4.374,0-1.222-.736-2.271-1.787-2.739.226-.981.715-1.761,1.704-1.761,1.343,0,2.083,1.251,2.083,3.522v5.978h2v-11.978c0-2.271.74-3.522,2.083-3.522,1.294,0,1.731,1.333,1.842,2.708-1.123.434-1.925,1.518-1.925,2.792,0,2.022,2.059,4.14,2.293,4.374l.707.707.707-.707c.234-.234,2.293-2.352,2.293-4.374,0-1.328-.873-2.444-2.071-2.838Zm-12.929,9.975c-.517-.683-1-1.521-1-2.137,0-.512.392-.92.889-.978h.222c.497.058.889.465.889.978,0,.615-.483,1.454-1,2.137Zm12-5c-.517-.683-1-1.521-1-2.137,0-.552.448-1,1-1s1,.448,1,1c0,.615-.483,1.454-1,2.137Zm-16.17-3.568l-3.122,1.817-1.006-1.729,3.127-1.82c-.097-.27-.174-.549-.227-.837H-.027v-2h3.623c.054-.291.132-.573.23-.846l-3.129-1.821,1.006-1.729,3.127,1.82c.18-.21.375-.405.584-.585l-1.813-3.117,1.729-1.006,1.811,3.115c.269-.097.545-.176.831-.231V0h2v3.597c.292.052.574.13.848.226l1.807-3.107,1.729,1.006-1.801,3.096c.518.441.958.971,1.285,1.574-.569.635-1.038,1.437-1.36,2.412-.104-1.837-1.618-3.303-3.48-3.303-1.93,0-3.5,1.57-3.5,3.5,0,1.53.993,2.819,2.363,3.294-.424.47-.795,1.044-1.091,1.73-.753-.335-1.412-.838-1.942-1.455Z"/>
</svg>
