<?xml version="1.0" encoding="UTF-8"?>
<svg xmlns="http://www.w3.org/2000/svg" id="Layer_1" data-name="Layer 1" viewBox="0 0 24 24" width="512" height="512"><path d="M23.288,19.874L4.126,.712C3.432,.018,2.398-.187,1.492,.188,.585,.563,0,1.439,0,2.421V24H21.579c.981,0,1.857-.586,2.233-1.492s.17-1.94-.524-2.634Zm-1.324,1.869c-.04,.096-.143,.257-.385,.257H2V2.421c0-.242,.161-.346,.257-.386,.096-.037,.283-.081,.455,.091l3.191,3.191-1.871,1.871,1.414,1.414,1.871-1.871,1.414,1.414-1.872,1.871,.052,.052h0l1.414,1.414,1.871-1.872,1.414,1.414-1.871,1.871,1.414,1.414,1.871-1.871,1.414,1.414-1.872,1.871,1.414,1.414,1.872-1.871,1.414,1.414-1.871,1.872,1.414,1.414,1.871-1.872,3.191,3.191c.171,.172,.13,.358,.09,.455ZM6,12.586l5.414,5.414H6v-5.414Z"/></svg>
