<?xml version="1.0" encoding="UTF-8"?>
<svg xmlns="http://www.w3.org/2000/svg" id="Layer_1" data-name="Layer 1" viewBox="0 0 24 24">
  <path d="m24,14.052c0-1.635-1.316-2.964-2.945-2.994l-1.651-4.955c-.409-1.227-1.553-2.051-2.846-2.051h-4.559v13H0v2h2.041c-.024.165-.041.331-.041.5,0,1.93,1.57,3.5,3.5,3.5s3.5-1.57,3.5-3.5c0-.169-.017-.335-.041-.5h6.082c-.024.165-.041.331-.041.5,0,1.93,1.57,3.5,3.5,3.5s3.5-1.57,3.5-3.5c0-.169-.017-.335-.041-.5h2.041v-5Zm-7.441-8c.431,0,.812.274.949.684l1.438,4.316h-4.946v-5h2.559Zm-9.559,13.5c0,.827-.673,1.5-1.5,1.5s-1.5-.673-1.5-1.5c0-.19.039-.356.093-.5h2.815c.054.144.093.31.093.5Zm13,0c0,.827-.673,1.5-1.5,1.5s-1.5-.673-1.5-1.5c0-.19.039-.356.093-.5h2.815c.054.144.093.31.093.5Zm2-2.5h-8v-4h7c.552,0,1,.448,1,1v3Z"/>
</svg>
