<?xml version="1.0" encoding="UTF-8"?>
<svg xmlns="http://www.w3.org/2000/svg" id="Layer_1" data-name="Layer 1" viewBox="0 0 24 24">
  <path d="m24,10c0-2.757-2.243-5-5-5h-2v-1c0-1.654-1.346-3-3-3H3C1.346,1,0,2.346,0,4v3h2v-3c0-.551.449-1,1-1h11c.552,0,1,.449,1,1v13H2v-4H0v6h2.041c-.024.165-.041.331-.041.5,0,1.93,1.57,3.5,3.5,3.5s3.5-1.57,3.5-3.5c0-.169-.017-.335-.041-.5h6.082c-.024.165-.041.331-.041.5,0,1.93,1.57,3.5,3.5,3.5s3.5-1.57,3.5-3.5c0-.169-.017-.335-.041-.5h2.041v-9ZM7,19.5c0,.827-.673,1.5-1.5,1.5s-1.5-.673-1.5-1.5c0-.189.039-.355.093-.5h2.815c.054.145.093.311.093.5Zm12-12.5c1.654,0,3,1.346,3,3v1h-5v-4h2Zm1,12.5c0,.827-.673,1.5-1.5,1.5s-1.5-.673-1.5-1.5c0-.19.039-.356.093-.5h2.814c.054.144.093.31.093.5Zm-3-2.5v-4h5v4h-5Zm-8.964-6H0v-2h8.036l-2.518-2.518,1.414-1.414,3.518,3.518c.78.78.78,2.048,0,2.828l-3.518,3.518-1.414-1.414,2.518-2.518Z"/>
</svg>
