<?xml version="1.0" encoding="UTF-8"?>
<svg xmlns="http://www.w3.org/2000/svg" id="Layer_1" data-name="Layer 1" viewBox="0 0 24 24">
  <path d="m14,4c-1.654,0-3,1.346-3,3s1.346,3,3,3,3-1.346,3-3-1.346-3-3-3Zm0,4c-.551,0-1-.449-1-1s.449-1,1-1,1,.449,1,1-.449,1-1,1ZM2,18h8v2H0v-11c0-1.302.839-2.402,2-2.816v11.816Zm10,0h3v2h-3v-2ZM21,0H7c-1.654,0-3,1.346-3,3v11h20V3c0-1.654-1.346-3-3-3Zm1,12H6V3c0-.551.449-1,1-1h14c.551,0,1,.449,1,1v9Zm1.451,5.674c.731.731.731,1.92,0,2.651l-2.659,2.659-1.414-1.414,1.571-1.571h-3.948v-2h3.948l-1.571-1.571,1.414-1.414,2.659,2.659Zm-13.451-8.174c0,.828-.672,1.5-1.5,1.5s-1.5-.672-1.5-1.5.672-1.5,1.5-1.5,1.5.672,1.5,1.5Zm0-5c0,.828-.672,1.5-1.5,1.5s-1.5-.672-1.5-1.5.672-1.5,1.5-1.5,1.5.672,1.5,1.5Zm11,5c0,.828-.672,1.5-1.5,1.5s-1.5-.672-1.5-1.5.672-1.5,1.5-1.5,1.5.672,1.5,1.5Zm0-5c0,.828-.672,1.5-1.5,1.5s-1.5-.672-1.5-1.5.672-1.5,1.5-1.5,1.5.672,1.5,1.5Z"/>
</svg>
