<?xml version="1.0" encoding="UTF-8"?>
<svg xmlns="http://www.w3.org/2000/svg" id="Layer_1" data-name="Layer 1" viewBox="0 0 24 24">
  <path d="m10,12c0-.178.031-.347.074-.512l-4.281-4.281,1.414-1.414,4.281,4.281c.164-.044.334-.074.512-.074,1.105,0,2,.895,2,2s-.895,2-2,2-2-.895-2-2Zm-4.353,7.713c-2.296-1.894-3.647-4.724-3.647-7.713C2,6.486,6.486,2,12,2s10,4.486,10,10c0,1.209-.231,2.388-.646,3.494l1.238,2.122c.909-1.709,1.409-3.631,1.409-5.616C24,5.383,18.617,0,12,0S0,5.383,0,12c0,3.898,1.911,7.568,5.112,9.818l.639.448,2.903-2.51-1.309-1.514-1.699,1.47Zm11.353-7.713l7,12h-14l7-12Zm1,9h-2v2h2v-2Zm0-5h-2v4h2v-4Z"/>
</svg>
