<?xml version="1.0" encoding="UTF-8"?>
<svg xmlns="http://www.w3.org/2000/svg" id="Layer_1" data-name="Layer 1" viewBox="0 0 24 24">
  <path d="m9,12c3.309,0,6-2.691,6-6S12.309,0,9,0,3,2.691,3,6s2.691,6,6,6Zm0-10c2.206,0,4,1.794,4,4s-1.794,4-4,4-4-1.794-4-4,1.794-4,4-4Zm12.5,12h-6c-1.378,0-2.5,1.121-2.5,2.5v7.5h11v-7.5c0-1.379-1.122-2.5-2.5-2.5Zm.5,8h-7v-5.5c0-.275.224-.5.5-.5h6c.276,0,.5.225.5.5v5.5Zm-5-5h3v2h-3v-2Zm-8,.995l2-2.25v3.01l-2,2.25-4.423-4.976c-1.455.206-2.577,1.46-2.577,2.971v5H0v-5c0-2.757,2.243-5,5-5h.449l3.551,3.995Z"/>
</svg>
