<?xml version="1.0" encoding="UTF-8"?>
<svg xmlns="http://www.w3.org/2000/svg" id="Layer_1" data-name="Layer 1" viewBox="0 0 24 24">
  <path d="m18,5.5c0,.828-.672,1.5-1.5,1.5s-1.5-.672-1.5-1.5.672-1.5,1.5-1.5,1.5.672,1.5,1.5Zm6,1v1.5l-2,.857v2.143c0,5.026-3.388,9.275-8,10.584v2.416h-2v-2.046c-.329.03-.663.046-1,.046s-.671-.016-1-.046v2.046h-2v-2.416C3.388,20.275,0,16.026,0,11v-4h2v.5c0,1.93,1.57,3.5,3.5,3.5s3.5-1.57,3.5-3.5v-1c0-3.584,2.916-6.5,6.5-6.5,3.285,0,6.008,2.449,6.44,5.617l2.06.883ZM4.3,17h.2c2.481,0,4.5-2.019,4.5-4.5v-.761c-.952.787-2.172,1.261-3.5,1.261-1.313,0-2.52-.463-3.467-1.234.17,2.002.998,3.819,2.267,5.234Zm15.7-10.5c0-2.481-2.019-4.5-4.5-4.5s-4.5,2.019-4.5,4.5v6c0,2.927-1.946,5.407-4.611,6.218,1.35.81,2.925,1.282,4.611,1.282,4.963,0,9-4.037,9-9v-4.5Z"/>
</svg>
