<?xml version="1.0" encoding="UTF-8"?>
<svg xmlns="http://www.w3.org/2000/svg" id="Layer_1" data-name="Layer 1" viewBox="0 0 24 24">
  <path d="m10.22,10.194l-1.439-1.389,2.708-2.806h1.425l.087,1v9h-2v-6.614l-.78.809Zm-2.821,8.816s0,0,0,0c-.019-.022-.01-.011,0,0Zm9.225,0s0,0,0,0c.01-.011.019-.022,0,0Zm4.457-1.404c.654.569.963,1.025.988,1.063l.434.655-.534.576c-.067.073-1.418,1.506-3.55,2.034.123.283.184.46.193.486l.355,1.044-1.074.252c-.091.021-1.228.28-2.659.28-1.015,0-2.179-.131-3.222-.569-1.044.438-2.207.569-3.222.569-1.431,0-2.567-.259-2.658-.28l-1.074-.252.355-1.044c.009-.025.07-.203.193-.486-2.132-.528-3.483-1.961-3.551-2.034l-.534-.576.434-.655c.025-.038.331-.49.979-1.055C.905,16.309.275,14.488.244,14.394l-.264-.791.731-.401c.023-.013.194-.106.485-.236-.304-.316-.554-.681-.711-1.091-.955-2.482-.137-5.635-.101-5.768l.28-1.054,1.026.37c.024.009.134.049.307.129-.003-.49.09-.989.323-1.476C3.418,1.78,6.167.524,6.284.473l.963-.433.379.985c.064.166,1.423,3.814-.797,7.434-.136.908-.187,2.647-.187,2.647.035,2.618.772,4.86,2.156,6.468,1.082,1.258,2.312,1.836,3.212,1.993.9-.156,2.13-.735,3.212-1.993,1.384-1.608,2.121-3.85,2.157-6.468,0,0-.051-1.739-.187-2.647-2.22-3.62-.861-7.268-.797-7.434l.379-.985.963.433c.116.052,2.866,1.307,3.965,3.604.233.487.326.986.323,1.476.173-.08.283-.12.307-.129l1.026-.37.28,1.054c.035.134.853,3.285-.102,5.768-.159.413-.411.78-.718,1.098.281.127.447.217.469.229l.731.401-.264.791c-.032.095-.659,1.908-2.676,3.213ZM4.896,7.763c1.263-1.811,1.296-3.678,1.136-4.845-.674.457-1.492,1.149-1.91,2.021-.403.845.23,2.056.774,2.823Zm-2.545,3.393c.164.427.705.822,1.227,1.035.347-.074.716-.135,1.101-.177-.014-.199-.023-.399-.03-.601-.599-1.819-1.719-2.907-2.559-3.502-.108.934-.139,2.208.261,3.245Zm2.47,5.207c.233-.116.481-.228.746-.334-.258-.641-.464-1.321-.615-2.033-.944.096-1.782.344-2.375.565.392.562,1.088,1.302,2.243,1.802Zm2.578,2.648c-.288-.334-.668-.82-.909-1.194-1.068.397-1.801.91-2.259,1.313.545.382,1.373.832,2.375.962.227-.347.491-.713.793-1.081.01.011.019.022,0,0Zm4.031,2.486c-.862-.183-1.73-.577-2.54-1.149-.464.576-.816,1.142-1.069,1.608,1.096.095,2.549.064,3.609-.459Zm7.695-13.733c.543-.767,1.178-1.979.774-2.823-.417-.871-1.236-1.564-1.911-2.021-.16,1.165-.127,3.033,1.137,4.845Zm-2.925,14.192c-.253-.466-.605-1.033-1.069-1.608-.81.572-1.678.967-2.54,1.149,1.06.523,2.513.555,3.609.459Zm3.59-2.827c-.458-.401-1.191-.914-2.259-1.312-.242.374-.622.86-.909,1.194-.019.022-.009.011,0,0,.302.368.565.733.793,1.081,1.001-.13,1.829-.58,2.375-.963Zm1.631-4.567c-.588-.22-1.417-.466-2.353-.563-.151.712-.356,1.39-.614,2.031.261.104.506.214.736.329,1.147-.5,1.84-1.235,2.231-1.797Zm.509-6.652c-.84.594-1.959,1.681-2.559,3.504-.006.203-.016.404-.03.604.383.042.749.104,1.094.177.525-.212,1.07-.609,1.234-1.037.399-1.039.369-2.313.261-3.248Z"/>
</svg>
