<?xml version="1.0" encoding="UTF-8"?>
<svg xmlns="http://www.w3.org/2000/svg" id="Layer_1" data-name="Layer 1" viewBox="0 0 24 24">
  <path d="m21,0H3C1.346,0,0,1.346,0,3v21h13v-14.806c2.004,3.472,5.091,5.217,7.281,6.06-1.884,1.61-4.281,4.327-4.281,7.746v1h8V3c0-1.654-1.346-3-3-3ZM3,2h8v10H2V3c0-.551.449-1,1-1Zm-1,20v-8h9v8H2ZM13.027,2h1.933c.302,5.11,2.904,7.643,5.041,8.877v-2.377c-1.407-1.14-2.788-3.124-3.023-6.5h4.023c.552,0,1,.449,1,1v10.759c-2.557-.711-8.536-3.274-8.973-11.759Zm8.973,20h-3.905c.456-2.425,2.469-4.419,3.905-5.568v5.568Zm-18-6h5v2h-5v-2Z"/>
</svg>
