<?xml version="1.0" encoding="UTF-8"?>
<svg xmlns="http://www.w3.org/2000/svg" id="Layer_1" data-name="Layer 1" viewBox="0 0 24 24" width="512" height="512"><path d="M14,7.38c0-.31-.22-.57-.52-.62l-3.28-.55c-1.27-.21-2.19-1.3-2.19-2.59,0-1.45,1.18-2.62,2.62-2.62h.38V0h2V1c1.65,0,3,1.35,3,3h-2c0-.55-.45-1-1-1h-2.38c-.34,0-.62,.28-.62,.62,0,.31,.22,.57,.52,.62l3.28,.55c1.27,.21,2.19,1.3,2.19,2.59,0,1.45-1.18,2.62-2.62,2.62h-.38v1h-2v-1c-1.65,0-3-1.35-3-3h2c0,.55,.45,1,1,1h2.38c.34,0,.62-.28,.62-.62Zm7-4.38c-1.65,0-3,1.35-3,3v5.18c-.27-.09-.54-.16-.83-.18-.79-.04-1.57,.23-2.17,.77l-3,2.76-3-2.76c-.6-.54-1.38-.81-2.16-.76-.29,.02-.57,.09-.83,.18V6c0-1.65-1.35-3-3-3S0,4.35,0,6v12.23c0,.74,.27,1.46,.77,2.01l3.39,3.76h2.69l-4.6-5.1c-.17-.18-.26-.42-.26-.67V6c0-.55,.45-1,1-1s1,.45,1,1V14h.01c0,.69,.24,1.39,.73,1.97l2.62,2.72,1.44-1.39-2.57-2.67c-.32-.38-.31-.94,.02-1.31,.18-.2,.42-.32,.69-.33,.27-.01,.52,.08,.71,.25l4.03,3.7c.21,.19,.32,.46,.32,.74v6.31h2v-6.31c0-.63-.2-1.25-.57-1.75l2.91-2.68c.2-.18,.46-.27,.72-.25,.27,.01,.51,.13,.69,.33,.16,.18,.24,.4,.25,.62v.05h0c0,.22-.06,.43-.19,.59l-2.53,2.63,1.44,1.39,2.58-2.68c.46-.55,.69-1.24,.69-1.92h0V6c0-.55,.45-1,1-1s1,.45,1,1v12.23c0,.25-.09,.49-.26,.67l-4.6,5.1h2.69l3.39-3.76c.5-.55,.77-1.27,.77-2.01V6c0-1.65-1.35-3-3-3Z"/></svg>
