<?xml version="1.0" encoding="UTF-8"?>
<svg xmlns="http://www.w3.org/2000/svg" id="Layer_1" data-name="Layer 1" viewBox="0 0 24 24">
  <path d="m23.993,11.098l-1.035-1.711-12.601,7.629c-1.315.018-4.485.129-5.639.764-.775.427-1.339,1.13-1.586,1.98-.247.851-.147,1.746.279,2.522s1.13,1.339,1.979,1.586c.307.089.619.133.93.133.551,0,1.096-.139,1.592-.412,1.198-.658,2.84-3.629,3.488-4.868l12.593-7.624ZM6.948,21.837c-.308.169-.663.208-.999.11-.338-.098-.616-.321-.786-.629-.169-.308-.208-.663-.11-1s.321-.617.63-.786c.397-.219,1.774-.384,3.244-.465-.821,1.415-1.636,2.576-1.979,2.771Zm6.052-12.337c0-3.063-2.272-5.245-4.099-6.998-.535-.513-1.039-.997-1.422-1.443l-.853-.992-.734,1.083c-.762,1.124-1.032,2.358-1.249,3.35-.199.909-.316,1.272-.439,1.414-.132-.289-.277-.798-.343-1.239l-.299-2.003-1.408,1.454c-1.041,1.074-2.154,3.49-2.154,5.375,0,3.584,2.916,6.5,6.5,6.5s6.5-2.916,6.5-6.5Zm-11,0c0-.712.249-1.595.594-2.376.32.502.772.876,1.406.876,1.925,0,2.313-1.775,2.597-3.072.105-.479.218-.994.39-1.494.172.168.35.338.529.511,1.634,1.568,3.484,3.344,3.484,5.555,0,2.463-1.989,4.47-4.445,4.499.502-.007,1.002-.202,1.385-.585.781-.781.781-2.048,0-2.829l-1.414-1.415-1.415,1.415c-.781.781-.781,2.048,0,2.829.388.388.896.583,1.405.586-.005,0-.011,0-.016,0-2.481,0-4.5-2.019-4.5-4.5Z"/>
</svg>
