<?xml version="1.0" encoding="UTF-8"?>
<svg xmlns="http://www.w3.org/2000/svg" id="Layer_1" data-name="Layer 1" viewBox="0 0 24 24">
  <path d="m24,9v2H0v-2h24Zm-4.772,4.589c-.707.537-1.749.537-2.455,0-1.027-.781-2.519-.781-3.545,0-.707.537-1.749.537-2.455,0-1.027-.781-2.519-.781-3.545,0-.707.537-1.749.537-2.455,0-1.027-.781-2.519-.781-3.545,0-.354.269-.778.411-1.228.411v2c.891,0,1.734-.283,2.439-.819.314-.24.807-.24,1.123,0,1.408,1.072,3.468,1.072,4.877,0,.314-.24.807-.24,1.123,0,1.408,1.072,3.468,1.072,4.877,0,.314-.24.807-.24,1.123,0,1.408,1.072,3.468,1.072,4.877,0,.314-.24.807-.24,1.123,0,.704.536,1.547.819,2.438.819v-2c-.45,0-.874-.143-1.227-.411-1.027-.781-2.519-.781-3.545,0ZM1.5,18c-.828,0-1.5.672-1.5,1.5s.672,1.5,1.5,1.5,1.5-.672,1.5-1.5-.672-1.5-1.5-1.5Zm5,3c-.828,0-1.5.672-1.5,1.5s.672,1.5,1.5,1.5,1.5-.672,1.5-1.5-.672-1.5-1.5-1.5Zm11,0c-.828,0-1.5.672-1.5,1.5s.672,1.5,1.5,1.5,1.5-.672,1.5-1.5-.672-1.5-1.5-1.5Zm-5.5-3c-.828,0-1.5.672-1.5,1.5s.672,1.5,1.5,1.5,1.5-.672,1.5-1.5-.672-1.5-1.5-1.5Zm10.5,0c-.828,0-1.5.672-1.5,1.5s.672,1.5,1.5,1.5,1.5-.672,1.5-1.5-.672-1.5-1.5-1.5ZM6.004,8.002c.506,0,1.01-.191,1.391-.571l2.801-2.712-1.392-1.438-1.804,1.743V0h-2v5.028l-1.804-1.747-1.392,1.438,2.79,2.701c.389.388.9.582,1.41.582Zm12,0c.506,0,1.01-.191,1.391-.571l2.801-2.712-1.392-1.438-1.804,1.743V0h-2v5.028l-1.804-1.747-1.392,1.438,2.79,2.701c.389.388.9.582,1.41.582Z"/>
</svg>
