<?xml version="1.0" encoding="UTF-8"?>
<svg xmlns="http://www.w3.org/2000/svg" id="Layer_1" data-name="Layer 1" viewBox="0 0 24 24">
  <path d="m19,16.5c0,.828-.672,1.5-1.5,1.5s-1.5-.672-1.5-1.5.672-1.5,1.5-1.5,1.5.672,1.5,1.5Zm5-.499c0,4.411-3.588,7.999-7.999,7.999H6c-3.309,0-6-2.691-6-6v-2.727c0-3.367.987-6.628,2.855-9.431l.502-.754C1.384,4.246,0,2.278,0,0c4.122,0,5.5,2.776,5.5,2.776,0,0,1.327-2.776,5.5-2.776,0,2.565-1.755,4.738-4.13,5.352l-.466,2.765c-.183,1.081-.304,2.179-.362,3.279,2.332-1.741,5.363-3.396,8.459-3.396.627,0,1.864,0,1.864,0v.009c.634.028,1.249.132,1.837.3L23.096,0l.904.53-2.615,9.562c1.606,1.464,2.615,3.572,2.615,5.91Zm-2,0c0-3.305-2.688-5.996-5.993-5.999v-.002h-1.507c-4.307,0-8.774,4.093-10.5,5.857v-2.916c0-1.725.146-3.459.432-5.156l.159-.941c-1.648,2.473-2.591,5.458-2.591,8.429v2.727c0,2.206,1.794,4,4,4h10.001c3.308,0,5.999-2.691,5.999-5.999Z"/>
</svg>
