<?xml version="1.0" encoding="UTF-8"?>
<svg xmlns="http://www.w3.org/2000/svg" id="Layer_1" data-name="Layer 1" viewBox="0 0 24 24" width="512" height="512"><path d="m23.161,9.873L14.122.834c-1.134-1.133-3.11-1.133-4.243,0L.839,9.873c-1.17,1.17-1.17,3.073,0,4.243l9.039,9.039c.567.566,1.32.879,2.122.879s1.555-.312,2.121-.879l9.04-9.039c1.17-1.17,1.17-3.073,0-4.243Zm-1.414,2.829l-9.04,9.039c-.377.379-1.036.379-1.414,0L2.253,12.702c-.39-.391-.39-1.024,0-1.415L11.293,2.248c.377-.379,1.036-.379,1.414,0l9.04,9.039c.39.391.39,1.024,0,1.415Zm-10.747,3.298h2v2h-2v-2Zm0-10h2v8h-2V6Z"/></svg>
