<?xml version="1.0" encoding="UTF-8"?>
<svg xmlns="http://www.w3.org/2000/svg" id="Layer_1" data-name="Layer 1" viewBox="0 0 24 24">
  <path d="m18,8.5c0-1.381.448-2.5,1-2.5s1,1.119,1,2.5-.448,2.5-1,2.5-1-1.119-1-2.5Zm.414,8.5l5.543,5.543-1.414,1.414L.043,1.457,1.457.043l2.049,2.049c.918-1.342,2.152-2.092,3.494-2.092h12c2.804,0,5,3.733,5,8.5s-2.196,8.5-5,8.5h-.586Zm.586-15c-1.419,0-3,2.67-3,6.5s1.581,6.5,3,6.5,3-2.67,3-6.5-1.581-6.5-3-6.5Zm-14.044,1.542l9.044,9.044v-4.086c0-2.634.671-4.953,1.745-6.5H7c-.734,0-1.478.569-2.044,1.542Zm9.044,16.458c0,1.103-.897,2-2,2H3.463c.342-.589.537-1.272.537-2v-11.758l-1.939-1.939c-.041.392-.061.792-.061,1.197v12.5c0,1.103-.897,2-2,2v2h12c2.127,0,3.871-1.668,3.993-3.765l-1.993-1.993v1.758Z"/>
</svg>
