<?xml version="1.0" encoding="UTF-8"?>
<svg xmlns="http://www.w3.org/2000/svg" id="Layer_1" data-name="Layer 1" viewBox="0 0 24 24" width="512" height="512"><path d="m2.245,23c-.634,0-2.246-.031-2.246-.031v-.981c0-1.319.513-2.56,1.444-3.494L17.821,2.064c1.366-1.372,3.753-1.373,5.121,0,1.409,1.414,1.409,3.716,0,5.13l-4.036,4.108c-.675.688-1.035,1.597-1.012,2.561.02.84.328,1.625.875,2.247l.333.334-1.385,1.442c-.118-.108-1.797-1.803-1.797-1.803l-2.752,2.789c-2.521,2.532-5.989,3.953-10.034,4.114-.241.01-.566.013-.89.013Zm-.077-2c.323-.001.647-.002.887-.011,2.462-.098,5.969-.789,8.692-3.523l2.761-2.798-3.211-3.225L2.86,19.906c-.313.314-.547.687-.691,1.094Zm10.541-10.975l3.208,3.222c.119-1.259.661-2.428,1.562-3.345l4.041-4.113c.639-.642.639-1.677.005-2.313-.611-.614-1.676-.614-2.287,0l-6.528,6.549Z"/></svg>
