<?xml version="1.0" encoding="UTF-8"?>
<svg xmlns="http://www.w3.org/2000/svg" id="Layer_1" data-name="Layer 1" viewBox="0 0 24 24" width="512" height="512"><path d="M12,0C5.383,0,0,5.383,0,12s5.383,12,12,12,12-5.383,12-12S18.617,0,12,0Zm0,22c-5.514,0-10-4.486-10-10S6.486,2,12,2s10,4.486,10,10-4.486,10-10,10Z"/><path d="M7,14v2h2v.6c0,1.636,1.147,3.4,3,3.4s3-1.765,3-3.4v-.6h2v-2H7Zm6,2.6c0,.662-.411,1.4-1,1.4s-1-.738-1-1.4v-.6h2v.6Z"/><path d="M4,9.594c.898-.907,1.975-1.297,3.019-1.297,1.16,0,2.281,.48,3.073,1.265l-1.406,1.422c-.659-.652-2.073-1.186-3.264,.017l-1.422-1.406Z"/><path d="M15.5,13c-1.93,0-3.5-1.57-3.5-3.5s1.57-3.5,3.5-3.5,3.5,1.57,3.5,3.5-1.57,3.5-3.5,3.5Zm0-5c-.827,0-1.5,.673-1.5,1.5s.673,1.5,1.5,1.5,1.5-.673,1.5-1.5-.673-1.5-1.5-1.5Z"/></svg>
