<?xml version="1.0" encoding="UTF-8"?>
<svg xmlns="http://www.w3.org/2000/svg" id="Layer_1" data-name="Layer 1" viewBox="0 0 24 24" width="512" height="512"><path d="M9.5,2.5c0-1.381,1.119-2.5,2.5-2.5s2.5,1.119,2.5,2.5-1.119,2.5-2.5,2.5-2.5-1.119-2.5-2.5Zm9.761,12.174l-3.238-3.548,1.109,8.874h-2.133v4h-2v-4h-2v4h-2v-4h-2.133l1.109-8.874-3.238,3.548-1.478-1.349s5.807-6.366,5.85-6.41l.023-.025h.001c.547-.552,1.304-.891,2.131-.891h1.469c.827,0,1.584,.339,2.131,.892h.001s.023,.024,.023,.024c.043,.044,5.85,6.41,5.85,6.41l-1.478,1.349Zm-6.527-6.674h-1.469c-.473,0-.9,.288-.992,.876l-1.141,9.124h5.734l-1.141-9.124c-.074-.581-.487-.876-.992-.876Z"/></svg>
