<?xml version="1.0" encoding="UTF-8"?>
<svg xmlns="http://www.w3.org/2000/svg" id="Layer_1" data-name="Layer 1" viewBox="0 0 24 24">
  <path d="m12,8c1.381,0,2.5,1.119,2.5,2.5s-1.119,2.5-2.5,2.5-2.5-1.119-2.5-2.5,1.119-2.5,2.5-2.5Zm10,5.5c0-1.381-1.119-2.5-2.5-2.5s-2.5,1.119-2.5,2.5,1.119,2.5,2.5,2.5,2.5-1.119,2.5-2.5ZM11.343,2.227c.387-.303.928-.303,1.314,0l10.088,7.895,1.232-1.575L13.89.651c-1.113-.871-2.666-.87-3.779,0L.022,8.546l1.232,1.575L11.343,2.227Zm9.657,15.773h-2v2h2c.552,0,1,.448,1,1v3h2v-3c0-1.654-1.346-3-3-3Zm-4,0c0-1.654-1.346-3-3-3h-4c-1.654,0-3,1.346-3,3v6h2v-6c0-.552.448-1,1-1h4c.552,0,1,.448,1,1v6h2v-6Zm-12.5-7c-1.381,0-2.5,1.119-2.5,2.5s1.119,2.5,2.5,2.5,2.5-1.119,2.5-2.5-1.119-2.5-2.5-2.5Zm.5,7h-2c-1.654,0-3,1.346-3,3v3h2v-3c0-.552.448-1,1-1h2v-2Z"/>
</svg>
