<?xml version="1.0" encoding="UTF-8"?>
<svg xmlns="http://www.w3.org/2000/svg" id="Layer_1" data-name="Layer 1" viewBox="0 0 24 24">
  <path d="m17,2.5c0-1.381,1.119-2.5,2.5-2.5s2.5,1.119,2.5,2.5-1.119,2.5-2.5,2.5-2.5-1.119-2.5-2.5Zm-7.5,2.5c.403,0,.778-.104,1.115-.273-.381-.659-.615-1.412-.615-2.227s.234-1.568.614-2.227c-.337-.169-.711-.273-1.114-.273-1.381,0-2.5,1.119-2.5,2.5s1.119,2.5,2.5,2.5Zm5,0c.403,0,.778-.104,1.115-.273-.381-.659-.615-1.412-.615-2.227s.234-1.568.614-2.227c-.337-.169-.711-.273-1.114-.273-1.381,0-2.5,1.119-2.5,2.5s1.119,2.5,2.5,2.5ZM3,12h-1v-3c0-.551.449-1,1-1h.101c.152-.743.482-1.416.924-2h-1.026c-1.654,0-3,1.346-3,3v5h1v5h2v-7Zm1.5-7c.403,0,.778-.104,1.115-.273-.381-.659-.615-1.412-.615-2.227s.234-1.568.614-2.227c-.337-.169-.711-.273-1.114-.273-1.381,0-2.5,1.119-2.5,2.5s1.119,2.5,2.5,2.5Zm3.5,8h-1v-4c0-.551.449-1,1-1h.101c.152-.743.482-1.416.924-2h-1.026c-1.654,0-3,1.346-3,3v6h1v6h2v-8Zm5,1h-1v-5c0-.551.449-1,1-1h.101c.152-.743.482-1.416.924-2h-1.026c-1.654,0-3,1.346-3,3v7h1v7h2v-9Zm11-5v8h-2v7h-2v-7h-1v7h-2v-7h-2v-8c0-1.654,1.346-3,3-3h3c1.654,0,3,1.346,3,3Zm-2,0c0-.551-.449-1-1-1h-3c-.551,0-1,.449-1,1v6h5v-6Z"/>
</svg>
