<?xml version="1.0" encoding="UTF-8"?>
<svg xmlns="http://www.w3.org/2000/svg" id="Layer_1" data-name="Layer 1" viewBox="0 0 24 24" width="512" height="512"><path d="M9,8.376c0-.307-.219-.565-.521-.616l-3.287-.548c-1.27-.211-2.192-1.3-2.192-2.588,0-1.447,1.177-2.624,2.624-2.624h.376V1h2v1c1.654,0,3,1.346,3,3h-2c0-.551-.449-1-1-1h-2.376c-.344,0-.624,.28-.624,.624,0,.307,.219,.565,.521,.616l3.287,.548c1.27,.211,2.192,1.3,2.192,2.588,0,1.447-1.177,2.624-2.624,2.624h-.376v1h-2v-1c-1.654,0-3-1.346-3-3h2c0,.551,.449,1,1,1h2.376c.344,0,.624-.28,.624-.624Zm4-3.752c0,1.288,.922,2.377,2.192,2.588l3.287,.548c.302,.05,.521,.309,.521,.616,0,.344-.28,.624-.624,.624h-2.376c-.551,0-1-.449-1-1h-2c0,1.654,1.346,3,3,3v1h2v-1h.376c1.447,0,2.624-1.177,2.624-2.624,0-1.288-.922-2.377-2.192-2.588l-3.287-.548c-.302-.05-.521-.309-.521-.616,0-.344,.28-.624,.624-.624h2.376c.551,0,1,.449,1,1h2c0-1.654-1.346-3-3-3V1h-2v1h-.376c-1.447,0-2.624,1.177-2.624,2.624Zm-1.025-2.623c.008,0,.016-.001,.025-.001s.016,.001,.025,.001c.514-.68,1.186-1.231,1.975-1.577V.181c-.652-.11-1.317-.181-2-.181s-1.348,.071-2,.181v.243c.789,.346,1.461,.898,1.975,1.577Zm11.025,5.217v1.157c0,1.095-.399,2.089-1.038,2.883,.018,.246,.038,.491,.038,.741,0,5.514-4.486,10-10,10S2,17.514,2,12c0-.328,.018-.651,.049-.971-.648-.843-1.049-1.885-1.049-3.029v-.781c-.64,1.466-1,3.082-1,4.781,0,6.617,5.383,12,12,12s12-5.383,12-12c0-1.7-.36-3.315-1-4.781Zm-14,9.382v-.6h-2v-2h10v2h-2v.6c0,1.635-1.147,3.4-3,3.4s-3-1.765-3-3.4Zm4-.6h-2v.6c0,.662,.411,1.4,1,1.4s1-.738,1-1.4v-.6Z"/></svg>
