<?xml version="1.0" encoding="UTF-8"?>
<svg xmlns="http://www.w3.org/2000/svg" id="Layer_1" data-name="Layer 1" viewBox="0 0 24 24">
  <path d="m21,9H5c-1.654,0-3,1.346-3,3v10h7.896l1.775,1.495c.382.339.861.507,1.337.507.468,0,.931-.162,1.292-.484l1.837-1.519h7.862v-10c0-1.654-1.346-3-3-3Zm1,11h-6.581l-2.438,1.983-2.354-1.983h-6.627v-4.538l1.66.924-.652,2.039.36.272,1.638-1.266,1.63,1.261.378-.262-.663-2.015,1.648-.955v.003l1.66.924-.652,2.039.36.272,1.638-1.266,1.63,1.261.378-.262-.663-2.015,1.648-.955v.003l1.66.924-.652,2.039.36.272,1.638-1.266,1.63,1.261.378-.262-.663-2.015,1.648-.955v4.542Zm0-5h-2.163l-.588-2.251h-.486l-.588,2.251h-4.338l-.588-2.251h-.486l-.588,2.251h-4.338l-.588-2.251h-.486l-.588,2.251h-2.175v-3c0-.551.448-1,1-1h16c.552,0,1,.449,1,1v3ZM4,7v-2h8v2H4Zm10,0v-2h4v2h-4Zm-12,1.026c-1.207.914-2,2.348-2,3.974V3C0,1.346,1.346,0,3,0h16c1.654,0,3,1.346,3,3v4h-2V3c0-.551-.448-1-1-1H3c-.552,0-1,.449-1,1v5.026Z"/>
</svg>
