<?xml version="1.0" encoding="UTF-8"?>
<svg xmlns="http://www.w3.org/2000/svg" id="Layer_1" data-name="Layer 1" viewBox="0 0 24 24">
  <path d="m2,2c0-1.105.895-2,2-2s2,.895,2,2-.895,2-2,2-2-.895-2-2Zm4,7h6v-1.5c0-.828-.672-1.5-1.5-1.5h-3c-.828,0-1.5.672-1.5,1.5v1.5Zm3-4c1.105,0,2-.895,2-2s-.895-2-2-2-2,.895-2,2,.895,2,2,2Zm5-1c1.105,0,2-.895,2-2s-.895-2-2-2-2,.895-2,2,.895,2,2,2Zm-10,3.5c0-.98.407-1.864,1.058-2.5h-2.558c-.828,0-1.5.672-1.5,1.5v1.5h3v-.5Zm8.942-2.5c.651.636,1.058,1.52,1.058,2.5v.5h3v-1.5c0-.828-.672-1.5-1.5-1.5h-2.558Zm10.294,8.015l-9.787,10.985H3c-1.654,0-3-1.346-3-3v-7c0-1.654,1.346-3,3-3h9.857c1.139,0,2.139.609,2.689,1.519l3.217-3.534c.54-.595,1.281-.944,2.085-.981.812-.039,1.574.24,2.169.782,1.214,1.107,1.312,3.005.218,4.23Zm-1.565-2.752c-.199-.181-.456-.269-.728-.262-.27.013-.519.129-.699.329l-4.427,4.864c-.385,1.071-1.339,1.891-2.514,2.059l-5.161.737-.283-1.979,5.161-.737c.559-.08.98-.566.98-1.131,0-.63-.513-1.142-1.143-1.142H3c-.552,0-1,.449-1,1v7c0,.551.448,1,1,1h9.552l9.19-10.316c.368-.412.335-1.049-.072-1.421Z"/>
</svg>
