<?xml version="1.0" encoding="UTF-8"?>
<svg xmlns="http://www.w3.org/2000/svg" id="Layer_1" data-name="Layer 1" viewBox="0 0 24 24">
  <path d="m24,7v-2h-2c0-1.654-1.346-3-3-3V0h-2v2h-2V0h-2v2h-2V0h-2v2h-2V0h-2v2c-1.654,0-3,1.346-3,3H0v2h2v2H0v2h2v2H0v2h2v2H0v2h2v3h3v2h2v-2h2v2h2v-2h2v2h2v-2h2v2h2v-2h3v-3h2v-2h-2v-2h2v-2h-2v-2h2v-2h-2v-2h2Zm-4,13H4V5c0-.552.449-1,1-1h14c.551,0,1,.448,1,1v15ZM10.876,7.18c-1.313-.55-2.651.221-2.937,1.458l-1.939,8.362h2.053l.232-1h3.43l.232,1h2.053l-1.922-8.291c-.154-.662-.575-1.266-1.202-1.528Zm-2.127,6.82l1.138-4.91c.012-.053.059-.09.113-.09s.101.037.113.09l1.138,4.91h-2.503Zm6.251-7h2v10h-2V7Z"/>
</svg>
