<?xml version="1.0" encoding="UTF-8"?>
<svg xmlns="http://www.w3.org/2000/svg" id="Layer_1" data-name="Layer 1" viewBox="0 0 24 24">
  <path d="m21.983,10.539c-.067-1.231-.402-2.468-1.001-3.613.614-.131,1.178-.436,1.632-.89,1.192-1.191,2.069-3.922.671-5.321-1.401-1.399-4.131-.521-5.321.671-.454.454-.759,1.018-.89,1.632-1.145-.599-2.382-.934-3.613-1.001-.669-.68-2.323-2.017-4.961-2.017h-2.531v2h2.531c.798,0,1.465.166,2.004.391-1.13.364-2.181.985-3.062,1.866-1.352,1.352-2.755,3.738-3.616,6.294-1.735.261-3.827,1.537-3.827,4.448h2c0-1.263.605-1.889,1.228-2.199-.379,1.972-.341,3.898.376,5.394-.989,1.652-1.604,3.805-1.604,3.805,0,0,2.153-.615,3.805-1.604.892.428,1.937.614,3.053.614.756,0,1.544-.085,2.34-.238-.31.624-.935,1.229-2.199,1.229v2c2.911,0,4.187-2.092,4.448-3.827,2.557-.861,4.942-2.263,6.294-3.616.882-.881,1.503-1.932,1.866-3.062.225.539.391,1.207.391,2.004v2.531h2v-2.531c0-2.638-1.338-4.291-2.017-4.961Zm-6.156-1.539l-.827-.827v-3.859c1.052.331,2.058.924,2.91,1.776s1.446,1.858,1.777,2.91h-3.86Zm-7.702,3h-2.639c.383-1.374.963-2.763,1.641-3.959l1.624,1.624-.626,2.335Zm5.028-2.846l1.731,1.731-.634,2.365-2.365.634-1.731-1.731.634-2.365,2.365-.634Zm-1.153,6.77l2.374-.636,1.584,1.584c-1.196.677-2.585,1.257-3.959,1.64v-2.588Zm7.378-13.125c.316-.316.904-.612,1.464-.737.198-.044.374-.062.522-.062.257,0,.433.056.507.129.116.117.187.489.066,1.029-.125.56-.421,1.147-.737,1.464-.488.488-1.334.488-1.822,0-.244-.244-.378-.567-.378-.911s.134-.667.378-.911Zm-6.379,1.202h0v3.123l-3.124.837-1.617-1.617c.197-.246.397-.472.598-.673,1.118-1.118,2.607-1.67,4.143-1.67Zm-7.073,14.072c-.855-.855-1.063-2.365-.85-4.074h4.097l.827.827v4.096c-1.709.213-3.22.005-4.074-.849Zm12.402-2.931c-.201.201-.427.401-.673.597l-1.578-1.578.848-3.163h3.073c0,1.536-.551,3.025-1.67,4.144Z"/>
</svg>
