<?xml version="1.0" encoding="UTF-8"?>
<svg xmlns="http://www.w3.org/2000/svg" id="Layer_1" data-name="Layer 1" viewBox="0 0 24 24" width="512" height="512"><path d="m12,10c-2.206,0-4,1.794-4,4v3h2v2h4v-2h2v-3c0-2.206-1.794-4-4-4Zm-1,5h-2v-2h2v2Zm4,0h-2v-2h2v2Zm2-8.667V2h2V0H5v2h2v4.291C2.725,8.158,0,12.179,0,16.714c0,2.506.841,4.894,2.431,6.906l.3.38h18.539l.3-.38c1.59-2.012,2.431-4.399,2.431-6.906,0-4.401-2.785-8.492-7-10.382Zm3.286,15.667H3.714c-1.123-1.571-1.714-3.389-1.714-5.286,0-3.917,2.492-7.376,6.349-8.812l.651-.242V2h6v5.688l.643.246c3.803,1.454,6.357,4.982,6.357,8.78,0,1.896-.591,3.714-1.714,5.286Z"/></svg>
