<?xml version="1.0" encoding="UTF-8"?>
<svg xmlns="http://www.w3.org/2000/svg" id="Layer_1" data-name="Layer 1" viewBox="0 0 24 24">
  <path d="m13.5,12.5c0,.828-.672,1.5-1.5,1.5s-1.5-.672-1.5-1.5.672-1.5,1.5-1.5,1.5.672,1.5,1.5Zm9.348,6.098l-.882.285c-.793.257-4.093,1.262-6.663,1.099-.606,1.438-2.09,2.897-2.623,3.392l-.68.631-.68-.631c-.533-.495-2.017-1.954-2.623-3.392-.191.012-.385.018-.582.018-2.463,0-5.346-.879-6.081-1.117l-.882-.285.219-.901c.187-.771.984-3.83,2.339-5.94-.977-1.235-1.519-3.311-1.685-4.033l-.208-.904.886-.274c.719-.222,2.845-.814,4.413-.558,1.116-2.319,3.593-4.7,4.203-5.266l.68-.631.68.631c.609.566,3.087,2.948,4.203,5.266,1.567-.256,3.694.335,4.412.558l.886.274-.207.904c-.165.722-.707,2.798-1.684,4.034,1.355,2.109,2.152,5.168,2.339,5.939l.219.901Zm-5.416-10.673c0,.031.002.063.002.094,0,.482-.068.966-.2,1.438.476.115.931.292,1.351.527.12.067.238.145.354.232.293-.495.598-1.247.835-2.008-.864-.197-1.762-.318-2.341-.282Zm-13.203.281c.237.761.542,1.513.834,2.008.115-.086.233-.164.354-.232.42-.235.875-.412,1.351-.526-.132-.472-.2-.955-.2-1.438,0-.031.001-.062.002-.094-.579-.036-1.477.084-2.341.281Zm9.097,11.291c-.015-.008-.03-.016-.045-.024-.475-.266-.905-.601-1.28-.994-.375.394-.805.729-1.28.994-.015.008-.031.016-.046.024.283.5.784,1.141,1.325,1.727.542-.586,1.043-1.226,1.325-1.727Zm7.114-2.246c-.639-2.194-1.777-4.933-2.832-5.523-.533-.297-1.137-.445-1.791-.428l-1.791.038.907-1.545c.332-.565.501-1.162.501-1.774,0-1.209-1.832-3.54-3.434-5.169-1.602,1.629-3.433,3.96-3.433,5.169,0,.611.168,1.209.5,1.775l.906,1.544-1.79-.038c-.676-.026-1.259.13-1.791.428-1.055.591-2.194,3.329-2.833,5.523,2.202.604,5.129,1.064,6.184.476.577-.322,1.052-.811,1.375-1.412l.881-1.641.881,1.641c.323.602.799,1.09,1.376,1.412,1.053.589,3.979.128,6.183-.476Z"/>
</svg>
