<?xml version="1.0" encoding="UTF-8"?>
<svg xmlns="http://www.w3.org/2000/svg" id="Layer_1" data-name="Layer 1" viewBox="0 0 24 24">
  <path d="m2.5,2.5c0-1.381,1.119-2.5,2.5-2.5s2.5,1.119,2.5,2.5-1.119,2.5-2.5,2.5-2.5-1.119-2.5-2.5Zm9.5,7.5c1.381,0,2.5-1.119,2.5-2.5s-1.119-2.5-2.5-2.5-2.5,1.119-2.5,2.5,1.119,2.5,2.5,2.5Zm4,4v6h-1v4h-2v-4h-2v4h-2v-4h-1v-6c0-1.654,1.346-3,3-3h2c1.654,0,3,1.346,3,3Zm-6,4h4v-4c0-.552-.448-1-1-1h-2c-.552,0-1,.448-1,1v4Zm-3-12H3c-1.654,0-3,1.346-3,3v8h2v7h2v-7h2v-2H2v-6c0-.552.448-1,1-1h4.528c-.018-.164-.028-.331-.028-.5,0-.493.08-.967.226-1.411-.233-.058-.476-.089-.726-.089Zm17,3c0-1.654-1.346-3-3-3h-4c-.25,0-.493.031-.726.089.146.444.226.918.226,1.411,0,.169-.009.336-.028.5h4.528c.552,0,1,.448,1,1v6h-4v2h2v7h2v-7h2v-8Zm-5-4c1.381,0,2.5-1.119,2.5-2.5s-1.119-2.5-2.5-2.5-2.5,1.119-2.5,2.5,1.119,2.5,2.5,2.5Z"/>
</svg>
