<?xml version="1.0" encoding="UTF-8"?>
<svg xmlns="http://www.w3.org/2000/svg" id="Layer_1" data-name="Layer 1" viewBox="0 0 24 24" width="512" height="512"><path d="m21,4h-3v-1c0-1.654-1.346-3-3-3H3C1.346,0,0,1.346,0,3v14.854c0,.794.435,1.52,1.134,1.894.318.171.667.255,1.015.255.416,0,.831-.121,1.19-.36l2.661-1.774v3.131h10.697l3.964,2.644c.359.239.774.36,1.19.36.348,0,.696-.085,1.015-.256.699-.375,1.134-1.101,1.134-1.894V7c0-1.654-1.346-3-3-3ZM2.23,17.979c-.019.012-.074.048-.152.007-.079-.042-.079-.109-.079-.131V3c0-.552.449-1,1-1h12c.552,0,1,.448,1,1v12H6.697l-4.467,2.979Zm19.77,3.876c0,.021,0,.089-.078.131-.08.043-.134.006-.152-.007l-4.467-2.979h-9.303v-2h10V6h3c.552,0,1,.448,1,1v14.854ZM8,7h-2c0-.889.391-1.727,1.072-2.299.681-.572,1.577-.814,2.463-.653,1.209.211,2.204,1.205,2.417,2.417.223,1.272-.382,2.543-1.506,3.164-.447.246-.447.318-.447.371h-2c0-1.308,1.038-1.879,1.481-2.123.29-.159.595-.535.502-1.066-.069-.392-.402-.725-.793-.793-.306-.056-.602.022-.832.216-.228.19-.358.47-.358.767Zm0,4h2v2h-2v-2Z"/></svg>
