<?xml version="1.0" encoding="UTF-8"?>
<svg xmlns="http://www.w3.org/2000/svg" id="Layer_1" data-name="Layer 1" viewBox="0 0 24 24" width="512" height="512"><path d="m19.718,10.147l1.423-1.739,1.058.866,1.268-1.548-3.666-3-1.268,1.548,1.059.867-1.425,1.742c-.669-.45-1.394-.831-2.167-1.132V2h1V0H7v2h1v5.75c-4.217,1.639-7,5.668-7,10.25,0,1.129.173,2.244.514,3.313.512,1.607,2.031,2.687,3.779,2.687h13.414c1.748,0,3.268-1.08,3.779-2.687.341-1.069.514-2.184.514-3.313,0-3.04-1.226-5.836-3.282-7.853Zm.862,10.559c-.242.762-1.013,1.294-1.873,1.294H5.293c-.86,0-1.631-.532-1.873-1.294-.278-.873-.42-1.783-.42-2.706,0-.685.076-1.354.221-2h15.477c-.213-.72-.536-1.393-.958-2H3.928c1.06-2.148,2.963-3.83,5.371-4.587l.7-.22V2h4v7.193l.7.22c3.769,1.184,6.3,4.635,6.3,8.587,0,.923-.142,1.833-.42,2.706Z"/></svg>
