<?xml version="1.0" encoding="UTF-8"?>
<svg xmlns="http://www.w3.org/2000/svg" id="Layer_1" data-name="Layer 1" viewBox="0 0 24 24" width="512" height="512"><path d="M20,0H5c-1.65,0-3,1.35-3,3V21c0,1.65,1.35,3,3,3H22V2c0-1.1-.9-2-2-2Zm0,18H8V2h12V18ZM5,2h1V18h-1c-.35,0-.69,.07-1,.18V3c0-.55,.45-1,1-1Zm0,20c-.55,0-1-.45-1-1s.45-1,1-1h15v2H5Zm5-12c0,1.65,1.35,3,3,3h1c.55,0,1,.45,1,1s-.45,1-1,1h-2v2h2c1.65,0,3-1.35,3-3,0-.54-.15-1.03-.4-1.47,.84-.53,1.4-1.46,1.4-2.53,0-1.65-1.35-3-3-3h-1c-.55,0-1-.45-1-1s.45-1,1-1h2V3h-2c-1.65,0-3,1.35-3,3,0,.54,.15,1.03,.4,1.47-.84,.53-1.4,1.46-1.4,2.53Zm5-1c.55,0,1,.45,1,1s-.45,1-1,1h-2c-.55,0-1-.45-1-1s.45-1,1-1h2Z"/></svg>
