<?xml version="1.0" encoding="UTF-8"?>
<svg xmlns="http://www.w3.org/2000/svg" id="Layer_1" data-name="Layer 1" viewBox="0 0 24 24" width="512" height="512"><path d="m24,6.499c0-3.584-2.916-6.499-6.5-6.499-3.067,0-5.638,2.138-6.318,5H-.011l2.238,16.406c.202,1.479,1.479,2.594,2.972,2.594h10.076c1.491,0,2.769-1.114,2.972-2.592l2.254-16.408h-7.226c.621-1.742,2.271-3,4.224-3,2.481,0,4.5,2.019,4.5,4.5h0c0,.214.046,1.868-.082,2.495l-.342,2.561c1.476-1.193,2.424-3.015,2.424-5.056,0,0,0,0,0,0Zm-7.734,14.637c-.068.493-.494.864-.991.864H5.2c-.498,0-.923-.372-.991-.865l-1.11-8.135h8.935c-.677-.57-1.259-1.247-1.732-2H2.826l-.546-4h8.745c.254,3.312,2.997,5.935,6.359,5.994l-1.118,8.142Zm1.392-10.136h-.159c-2.31,0-4.197-1.756-4.449-4h5.157l-.549,4Z"/></svg>
