<?xml version="1.0" encoding="UTF-8"?>
<svg xmlns="http://www.w3.org/2000/svg" id="Layer_1" data-name="Layer 1" viewBox="0 0 24 24">
  <path d="m16,14v1h2v5h-2v4H2v-4H0v-5h2v-1c0-1.654,1.346-3,3-3h3v-2h2v4s-5,0-5,0c-.551,0-1,.449-1,1v8h10v-8h2Zm-6,3.5c0,.828.672,1.5,1.5,1.5s1.5-.672,1.5-1.5-.672-1.5-1.5-1.5-1.5.672-1.5,1.5ZM24,2.498v7.502h-6.854l-2.435,1.696c-.301.202-.643.302-.983.302-.279,0-.558-.068-.812-.204-.565-.302-.916-.888-.916-1.529V2.498C12,1.119,13.121-.002,14.5-.002h7c1.379,0,2.5,1.122,2.5,2.5Zm-2,0c0-.276-.225-.5-.5-.5h-7c-.275,0-.5.224-.5.5v7.257l2.519-1.755h5.481V2.498ZM5,17.5c0,.828.672,1.5,1.5,1.5s1.5-.672,1.5-1.5-.672-1.5-1.5-1.5-1.5.672-1.5,1.5Z"/>
</svg>
