<?xml version="1.0" encoding="UTF-8"?>
<svg xmlns="http://www.w3.org/2000/svg" id="Layer_1" data-name="Layer 1" viewBox="0 0 24 24" width="512" height="512"><path d="M16,24h-2v-4.193l.7-.22c3.769-1.184,6.3-4.635,6.3-8.587,0-3.479-1.961-6.568-5-8.066V11H8V2.934c-3.039,1.498-5,4.588-5,8.066,0,3.952,2.531,7.403,6.3,8.587l.7,.22v4.193h-2v-2.751C3.783,19.611,1,15.581,1,11,1,6.17,4.095,1.952,8.7,.505l1.3-.408V9h4V.097l1.3,.408c4.605,1.447,7.7,5.665,7.7,10.495,0,4.581-2.783,8.611-7,10.249v2.751Z"/></svg>
