<?xml version="1.0" encoding="UTF-8"?>
<svg xmlns="http://www.w3.org/2000/svg" id="Layer_1" data-name="Layer 1" viewBox="0 0 24 24">
  <path d="m13,7.028V3c0-1.654-1.346-3-3-3h-2c-1.654,0-3,1.346-3,3v4.028c-2.247.25-4,2.16-4,4.472v12.5h16v-12.5c0-2.312-1.753-4.223-4-4.472ZM7,3c0-.551.448-1,1-1h2c.552,0,1,.449,1,1v4h-4V3Zm8,19H3v-10.5c0-1.378,1.121-2.5,2.5-2.5h7c1.379,0,2.5,1.122,2.5,2.5v10.5Zm4-17.5c0,.828-.672,1.5-1.5,1.5s-1.5-.672-1.5-1.5.672-1.5,1.5-1.5,1.5.672,1.5,1.5Zm1-3c0-.828.672-1.5,1.5-1.5s1.5.672,1.5,1.5-.672,1.5-1.5,1.5-1.5-.672-1.5-1.5Zm3,6c0,.828-.672,1.5-1.5,1.5s-1.5-.672-1.5-1.5.672-1.5,1.5-1.5,1.5.672,1.5,1.5Zm-14,4.5c-2.206,0-4,1.794-4,4s1.794,4,4,4,4-1.794,4-4-1.794-4-4-4Zm0,6c-1.103,0-2-.897-2-2s.897-2,2-2,2,.897,2,2-.897,2-2,2Z"/>
</svg>
