<?xml version="1.0" encoding="UTF-8"?>
<svg xmlns="http://www.w3.org/2000/svg" id="Layer_1" data-name="Layer 1" viewBox="0 0 24 24" width="512" height="512"><path d="m21.247,2.733C17.042-1.471,9.465-.745,4.362,4.361-.743,9.465-1.473,17.039,2.733,21.246c1.838,1.838,4.318,2.733,6.954,2.733,3.398,0,7.057-1.488,9.931-4.362,5.104-5.104,5.835-12.678,1.629-16.884Zm-15.471,3.042c2.489-2.489,5.635-3.787,8.51-3.787,1.933,0,3.738.593,5.145,1.798-.264,1.272-1.577,5.323-7.738,7.249-5.622,1.757-7.817,5.14-8.669,7.327-2.05-3.561-1.01-8.823,2.753-12.586Zm12.428,12.428c-4.161,4.159-10.154,4.992-13.656,1.996.261-1.264,1.566-5.326,7.74-7.256,5.621-1.756,7.817-5.139,8.669-7.326,2.051,3.56,1.01,8.823-2.753,12.586Z"/></svg>
