<?xml version="1.0" encoding="UTF-8"?>
<svg xmlns="http://www.w3.org/2000/svg" id="Layer_1" data-name="Layer 1" viewBox="0 0 24 24">
  <path d="m0,13l1.413,3.584c1.376,2.208,3.698,2.416,5.908,2.416.298,0,2.655.005,3.68.002v2.998h-4v2h10v-2h-4v-2.998c1.024.003,2.457.009,2.797.013,2.464.029,5.234.064,6.791-2.432l1.412-3.584H0Zm20.844,2.6c-.87,1.32-2.28,1.45-5.021,1.416-.496-.007-7.151-.007-7.646,0-2.84.035-4.186-.149-5.02-1.416l-.233-.6h18.152l-.232.6ZM6.5,7c2.31,0,4.197,1.756,4.449,4h2.101c.252-2.244,2.139-4,4.449-4s4.197,1.756,4.449,4h2.025c-.236-3.072-2.611-5.554-5.637-5.946-.659-2.89-3.25-5.054-6.338-5.054s-5.679,2.164-6.338,5.054C2.637,5.446.261,7.928.025,11h2.025c.252-2.244,2.139-4,4.449-4Zm5.5-5c1.999,0,3.697,1.31,4.282,3.116-1.8.344-3.338,1.436-4.282,2.936-.944-1.501-2.481-2.592-4.282-2.936.585-1.806,2.283-3.116,4.282-3.116Z"/>
</svg>
