<?xml version="1.0" encoding="UTF-8"?>
<svg xmlns="http://www.w3.org/2000/svg" id="Layer_1" data-name="Layer 1" viewBox="0 0 24 24">
  <path d="m10,7v-2h5v2h-5Zm-2,3h-3v2h3v-2Zm-6,12V3.001c0-.552.448-1,1-1h14c.551,0,1,.447,1,.999v3s0,0,0,0v2.214c.708.201,1.382.499,2,.857v-2.071h0V3c0-1.654-1.346-3-3-3H3C1.345,0,0,1.347,0,3.001v20.999h8v-.004l7.921.003c-1.993-.019-3.804-.776-5.195-1.999H2Zm21.553.139l-1.414,1.414-2.666-2.666c-.981.698-2.177,1.113-3.473,1.113-3.314,0-6-2.686-6-6s2.686-6,6-6,6,2.686,6,6c0,1.296-.415,2.492-1.113,3.473l2.666,2.666Zm-3.194-7.395l-1.398-1.43-3.614,3.703-2.216-2.301-1.387,1.441,2.182,2.268c.766.765,2.079.763,2.823.019l.004-.004,3.607-3.696Zm-15.359,2.256h3v-2h-3v2Zm3-12h-3v2h3v-2Z"/>
</svg>
