<?xml version="1.0" encoding="UTF-8"?>
<svg xmlns="http://www.w3.org/2000/svg" id="Layer_1" data-name="Layer 1" viewBox="0 0 24 24" width="512" height="512"><path d="m23,9.026h1v-2h-1c-2.098,0-3.898,1.299-4.639,3.135-.793-.565-1.765-1.123-2.897-1.528l1.071-1.607c1.913-.019,3.465-1.582,3.465-3.5C20,1.596,18.43.026,16.5.026s-3.5,1.57-3.5,3.5c0,1.202.609,2.264,1.535,2.895l-1.135,1.703c-.449-.063-.916-.098-1.4-.098s-.948.035-1.396.097l-1.122-1.714c.916-.632,1.518-1.688,1.518-2.883C11,1.596,9.43.026,7.5.026s-3.5,1.57-3.5,3.5,1.568,3.497,3.495,3.5l1.05,1.604c-1.136.404-2.112.965-2.906,1.531-.741-1.835-2.541-3.134-4.639-3.134H0v2h1c1.501,0,2.747,1.107,2.966,2.548-.462.462-.722.795-.759.842l-.469.61.469.61c.058.076.684.875,1.793,1.771v2.119c0,.827-.673,1.5-1.5,1.5s-1.5-.673-1.5-1.5v-.5H0v.5C0,19.456,1.57,21.026,3.5,21.026s3.5-1.57,3.5-3.5v-.789c.603.322,1.271.613,2,.836v1.452c0,1.654-1.346,3-3,3v2c2.757,0,5-2.243,5-5v-1.05c.325.032.658.05,1,.05s.675-.017,1-.05v1.05c0,2.757,2.243,5,5,5v-2c-1.654,0-3-1.346-3-3v-1.453c.729-.223,1.397-.514,2-.837v.789c0,1.93,1.57,3.5,3.5,3.5s3.5-1.57,3.5-3.5v-.5h-2v.5c0,.827-.673,1.5-1.5,1.5s-1.5-.673-1.5-1.5v-2.12c1.108-.896,1.734-1.695,1.793-1.771l.469-.61-.469-.61c-.037-.048-.297-.38-.759-.842.218-1.441,1.465-2.548,2.966-2.548Zm-6.5-7c.827,0,1.5.673,1.5,1.5s-.673,1.5-1.5,1.5-1.5-.673-1.5-1.5.673-1.5,1.5-1.5Zm-10.5,1.5c0-.827.673-1.5,1.5-1.5s1.5.673,1.5,1.5-.673,1.5-1.5,1.5-1.5-.673-1.5-1.5Zm-.653,9.498c1.023-1.03,3.402-2.998,6.653-2.998,3.229,0,5.622,1.971,6.65,3-1.029,1.03-3.421,3-6.65,3s-5.625-1.973-6.653-3.002Z"/></svg>
