<?xml version="1.0" encoding="UTF-8"?>
<svg xmlns="http://www.w3.org/2000/svg" id="Layer_1" data-name="Layer 1" viewBox="0 0 24 24">
  <path d="m12,11c1.381,0,2.5,1.119,2.5,2.5s-1.119,2.5-2.5,2.5-2.5-1.119-2.5-2.5,1.119-2.5,2.5-2.5Zm10.179,1.735l-1.357-1.47-6.212,5.735h-5.219l-6.212-5.735-1.357,1.47,6.179,5.703v5.562h2v-5h4v5h2v-5.562l6.179-5.703ZM7,3.186C7,1.443,8.346.026,10,.026c.782,0,1.477.27,2,.727C12.523.296,13.218.026,14,.026c1.654,0,3,1.417,3,3.16,0,2.729-4.002,5.387-4.458,5.681l-.542.35-.542-.35c-.456-.294-4.458-2.952-4.458-5.681Zm2,0c0,1.04,1.61,2.617,3,3.627,1.39-1.01,3-2.587,3-3.627,0-.64-.448-1.16-1-1.16-.498,0-1,.309-1,1h-2c0-.691-.502-1-1-1-.552,0-1,.52-1,1.16Z"/>
</svg>
