<?xml version="1.0" encoding="UTF-8"?>
<svg xmlns="http://www.w3.org/2000/svg" id="Layer_1" data-name="Layer 1" viewBox="0 0 24 24" width="512" height="512"><path d="M24,12.003h0c0,2.643-.869,5.081-2.323,7.066l-1.427-1.427c1.102-1.607,1.75-3.549,1.75-5.64,0-5.514-4.486-10-10-10S2,6.489,2,12.003c0,3.268,1.584,6.167,4.016,7.992,.051,1.008,.336,1.971,.831,2.828C2.805,20.89,0,16.773,0,12.003H0s0,0,0,0C0,5.385,5.383,.003,12,.003s12,5.383,12,11.999c0,0,0,0,0,0h0ZM4.293,8.295l1.414,1.414c1.518-1.517,3.027-2.434,4.489-2.727l-.393-1.961c-1.855,.372-3.709,1.473-5.511,3.273Zm9.511-1.312c1.462,.293,2.972,1.21,4.489,2.727l1.414-1.414c-1.802-1.801-3.655-2.901-5.511-3.273l-.393,1.961Zm4.954,11.212c.294,.294,.307,.747,.066,1.071-.003,.029-3.426,3.47-3.426,3.47-.845,.845-1.954,1.267-3.064,1.267-1.43,0-2.858-.701-3.722-2.102-.425-.69-.612-1.505-.612-2.316v-3.58c0-.552,.448-1,1-1s1,.448,1,1v1.119l4.377-4.377c.162-.162,.374-.242,.585-.242s.424,.081,.585,.242c.323,.323,.323,.847,0,1.171l-2.961,2.961,1.002,1.002,3.634-3.634c.162-.162,.373-.242,.585-.242s.424,.081,.585,.242c.323,.323,.323,.847,0,1.171l-3.631,3.631,.985,.985,1.84-1.84c.162-.162,.374-.242,.585-.242s.424,.081,.585,.242Zm-10.74-5.013c.309-.108,.636-.179,.982-.179,.646,0,1.246,.205,1.736,.555l2.227-2.227c.576-.576,1.382-.831,2.171-.786-.732-.932-1.857-1.542-3.134-1.542-2.209,0-4,1.791-4,4,0,.061,.015,.118,.018,.179Z"/></svg>
