<?xml version="1.0" encoding="UTF-8"?>
<svg xmlns="http://www.w3.org/2000/svg" id="Layer_1" data-name="Layer 1" viewBox="0 0 24 24">
  <path d="m19.259,2.412L12,.005l-7.259,2.407c-1.64.544-2.741,2.069-2.741,3.797v5.755c0,6.567,7.006,10.577,9.15,11.648l.806.404.838-.336c2.159-.87,9.206-4.285,9.206-11.717v-5.755c0-1.728-1.102-3.253-2.741-3.797Zm.741,9.552c0,6.178-6.086,9.109-7.952,9.861h0c-1.888-.944-8.047-4.441-8.047-9.861v-5.755c0-.863.551-1.627,1.37-1.898l6.63-2.198,6.63,2.198c.819.271,1.37,1.035,1.37,1.898v5.755Zm-5.5-2.464c0,1.025-.617,1.906-1.5,2.291v4.209h-2v-4.209c-.883-.386-1.5-1.266-1.5-2.291,0-1.381,1.119-2.5,2.5-2.5s2.5,1.119,2.5,2.5Z"/>
</svg>
