<?xml version="1.0" encoding="UTF-8"?>
<svg xmlns="http://www.w3.org/2000/svg" id="Layer_1" data-name="Layer 1" viewBox="0 0 24 24">
  <path d="m8,12c0,2.206,1.794,4,4,4s4-1.794,4-4-1.794-4-4-4-4,1.794-4,4Zm6,0c0,1.103-.897,2-2,2s-2-.897-2-2,.897-2,2-2,2,.897,2,2Zm-8.5-4c.828,0,1.5.672,1.5,1.5s-.672,1.5-1.5,1.5-1.5-.672-1.5-1.5.672-1.5,1.5-1.5Zm13,5c.828,0,1.5.672,1.5,1.5s-.672,1.5-1.5,1.5-1.5-.672-1.5-1.5.672-1.5,1.5-1.5Zm-16.5.395l-2,2V7c0-1.654,1.346-3,3-3h17.948l-1.571-1.571,1.414-1.414,2.659,2.659c.731.731.731,1.92,0,2.651l-2.659,2.659-1.414-1.414,1.571-1.571H3c-.551,0-1,.449-1,1v6.395Zm22-4.791v11.395H3.052l1.571,1.571-1.414,1.414-2.659-2.659c-.731-.731-.731-1.92,0-2.651l2.659-2.659,1.414,1.414-1.571,1.571h18.948v-7.395l2-2Z"/>
</svg>
