<?xml version="1.0" encoding="UTF-8"?>
<svg xmlns="http://www.w3.org/2000/svg" id="Layer_1" data-name="Layer 1" viewBox="0 0 24 24">
  <path d="m24,16.257v-2.757c0-2.886-1.892-5.336-4.5-6.182v-2.318c0-2.757-2.243-5-5-5h-2.509c-2.487,0-4.617,1.859-4.954,4.325l-2.41,17.679-4.631.019.008,2,6.369-.026,2.646-19.401c.201-1.479,1.479-2.595,2.972-2.595h2.509c1.654,0,3,1.346,3,3v2h-4.5v17h7.5c1.93,0,3.5-1.57,3.5-3.5s-1.57-3.5-3.5-3.5-3.5,1.57-3.5,3.5c0,.539.133,1.044.351,1.5h-2.351v-13h2.5c2.485,0,4.5,2.015,4.5,4.5v1.712c.742.21,1.421.567,2,1.045Zm-5,4.243c0-.827.673-1.5,1.5-1.5s1.5.673,1.5,1.5-.673,1.5-1.5,1.5-1.5-.673-1.5-1.5Z"/>
</svg>
