<?xml version="1.0" encoding="UTF-8"?>
<svg xmlns="http://www.w3.org/2000/svg" id="Layer_1" data-name="Layer 1" viewBox="0 0 24 24">
  <path d="m.5,9h6v2H.5v-2Zm0,6h6v-2H.5v2Zm8.5-4h6v-2h-6v2Zm0,4h6v-2h-6v2Zm8.5-4h6v-2h-6v2Zm0,4h6v-2h-6v2ZM.5,19h6v-2H.5v2Zm8.5,0h6v-2h-6v2Zm8.5,0h6v-2h-6v2ZM.5,23h6v-2H.5v2Zm8.5,0h6v-2h-6v2Zm8.5,0h6v-2h-6v2ZM15.5,3.5c0,1.93-1.57,3.5-3.5,3.5s-3.5-1.57-3.5-3.5,1.57-3.5,3.5-3.5,3.5,1.57,3.5,3.5Zm-2,0c0-.827-.673-1.5-1.5-1.5s-1.5.673-1.5,1.5.673,1.5,1.5,1.5,1.5-.673,1.5-1.5Zm-6.5,0c0,1.93-1.57,3.5-3.5,3.5S0,5.43,0,3.5,1.57,0,3.5,0s3.5,1.57,3.5,3.5Zm-2,0c0-.827-.673-1.5-1.5-1.5s-1.5.673-1.5,1.5.673,1.5,1.5,1.5,1.5-.673,1.5-1.5Zm12,0c0-1.93,1.57-3.5,3.5-3.5s3.5,1.57,3.5,3.5-1.57,3.5-3.5,3.5-3.5-1.57-3.5-3.5Zm2,0c0,.827.673,1.5,1.5,1.5s1.5-.673,1.5-1.5-.673-1.5-1.5-1.5-1.5.673-1.5,1.5Z"/>
</svg>
