<?xml version="1.0" encoding="UTF-8"?>
<svg xmlns="http://www.w3.org/2000/svg" id="Layer_1" data-name="Layer 1" viewBox="0 0 24 24">
  <path d="m24,12C24,5.383,18.617,0,12,0c-2.857,0-5.584,1.003-7.749,2.837L1.457.043.043,1.457l22.5,22.5,1.414-1.414-2.794-2.794c1.834-2.165,2.837-4.891,2.837-7.749Zm-10.549.037l-1.297-1.297,2.271-1.068-.974,2.365Zm1.532,1.532l3.252-7.901-7.584,3.569-4.98-4.98c1.783-1.46,4.004-2.257,6.329-2.257,5.514,0,10,4.486,10,10,0,2.325-.797,4.546-2.257,6.329l-4.76-4.76Zm1.639,7.296l1.47,1.47c-1.823,1.08-3.904,1.665-6.092,1.665C5.383,24,0,18.617,0,12c0-2.188.585-4.269,1.666-6.092l1.47,1.47c-.737,1.408-1.135,2.978-1.135,4.622,0,5.514,4.486,10,10,10,1.644,0,3.215-.399,4.622-1.135Zm-8.367-8.367l3.31,3.31-5.804,2.389,2.493-5.7Z"/>
</svg>
