<?xml version="1.0" encoding="UTF-8"?>
<svg xmlns="http://www.w3.org/2000/svg" id="Layer_1" data-name="Layer 1" viewBox="0 0 24 24" width="512" height="512"><path d="M21,12h-1V5c0-1.65-1.35-3-3-3H7c-1.65,0-3,1.35-3,3v7h-1c-1.65,0-3,1.35-3,3v7H24v-7c0-1.65-1.35-3-3-3ZM6,5c0-.55,.45-1,1-1h10c.55,0,1,.45,1,1v11H6V5Zm16,15H2v-5c0-.55,.45-1,1-1h1v4H20v-4h1c.55,0,1,.45,1,1v5ZM15.71,7.71l-2.29,2.29,2.29,2.29-1.41,1.41-2.29-2.29-2.29,2.29-1.41-1.41,2.29-2.29-2.29-2.29,1.41-1.41,2.29,2.29,2.29-2.29,1.41,1.41Z"/></svg>
