<?xml version="1.0" encoding="UTF-8"?>
<svg xmlns="http://www.w3.org/2000/svg" id="Layer_1" data-name="Layer 1" viewBox="0 0 24 24">
  <path d="m12-.009L1.5,5.991v12.018l10.5,6,10.5-6V5.991L12-.009Zm7.485,6.58l-2.483,1.419-5.002-2.871-5.002,2.871-2.483-1.419,7.485-4.277,7.485,4.277Zm-11.485,4.294l3,1.714v3.425l-3-1.715v-3.424Zm5,1.714l3-1.714v3.424l-3,1.715v-3.425Zm-1-1.731l-2.988-1.708,2.988-1.715,2.988,1.715-2.988,1.708Zm-8.5-2.554l2.5,1.428v5.727l5,2.857v2.827l-7.5-4.286v-8.554Zm9.5,12.84v-2.827l5-2.857v-5.727l2.5-1.428v8.554l-7.5,4.286Z"/>
</svg>
