<?xml version="1.0" encoding="UTF-8"?>
<svg xmlns="http://www.w3.org/2000/svg" id="Layer_1" data-name="Layer 1" viewBox="0 0 24 24">
  <path d="m17.994,2.286C16.086.581,13.523-.229,10.956.059,6.904.517,3.59,3.782,3.075,7.822c-.374,2.931.644,5.76,2.793,7.761,1.375,1.279,2.132,2.9,2.132,4.566v3.851h8v-3.685c0-1.816.704-3.475,1.932-4.552,1.95-1.708,3.068-4.173,3.068-6.763,0-2.56-1.096-5.007-3.006-6.714Zm-3.994,19.714h-4v-1.851c0-.05-.007-.099-.008-.149h4.024c-.004.105-.016.209-.016.315v1.685Zm2.613-7.741c-1.105.969-1.888,2.274-2.293,3.741h-4.641c-.421-1.43-1.248-2.765-2.448-3.881-1.671-1.556-2.463-3.759-2.171-6.043.399-3.138,2.974-5.673,6.121-6.029,2.026-.227,3.974.386,5.48,1.731,1.486,1.328,2.339,3.231,2.339,5.222,0,2.013-.87,3.93-2.387,5.259Zm-2.733-8.259h2.12v2.371c-.598-.137-1.368-.271-1.6-.271-.773,0-1.4.627-1.4,1.4,0,.773.627,1.4,1.4,1.4.232,0,1.002-.134,1.6-.271v2.371h-7v-2.151c-.401.095-.767.151-1,.151-.828,0-1.5-.672-1.5-1.5,0-.828.672-1.5,1.5-1.5.233,0,.599.056,1,.151v-2.151h2.171c-.091-.391-.145-.746-.145-.974,0-.828.672-1.5,1.5-1.5.828,0,1.5.672,1.5,1.5,0,.228-.054.583-.146.974Z"/>
</svg>
