<?xml version="1.0" encoding="UTF-8"?>
<svg xmlns="http://www.w3.org/2000/svg" id="Layer_1" data-name="Layer 1" viewBox="0 0 24 24">
  <path d="m23.985,3.651c-.104-1.181-.726-2.253-1.708-2.943-1.342-.939-3.215-.939-4.555,0-1.505,1.056-2.108,2.987-1.469,4.697.158.422.101.826-.155,1.082l-2.381,2.381-.96-.961c-1.21-1.208-3.18-1.208-4.388,0l-.743.744c-.573.573-.875,1.316-.905,2.069-.752.03-1.495.332-2.068.905l-.743.743c-1.21,1.209-1.21,3.178,0,4.388l.96.96L.062,22.523l1.414,1.414,4.807-4.807.96.96c.586.586,1.365.909,2.193.909s1.608-.323,2.194-.909l.743-.743c.557-.556.875-1.286.906-2.068.781-.031,1.512-.35,2.067-.906l.743-.743c.586-.586.909-1.365.909-2.194s-.323-1.608-.909-2.194l-.96-.96,2.382-2.381c.813-.813,1.049-2.039.614-3.197-.271-.724-.146-1.734.744-2.358.654-.459,1.604-.458,2.258,0,.505.354.812.879.863,1.479.052.591-.159,1.17-.578,1.589l1.414,1.414c.838-.838,1.26-1.996,1.157-3.177Zm-13.025,14.282l-.743.744c-.416.416-1.144.417-1.56,0l-3.334-3.334c-.43-.43-.43-1.129,0-1.56l.743-.743c.208-.208.485-.323.779-.323s.572.115.78.323l3.334,3.334c.208.208.323.485.323.78s-.115.571-.323.78Zm3.717-3.717l-.743.743c-.416.418-1.144.417-1.56,0l-3.334-3.334c-.43-.43-.43-1.129,0-1.56l.743-.743c.43-.43,1.13-.431,1.56,0l3.334,3.334c.43.43.43,1.129,0,1.56Z"/>
</svg>
