<?xml version="1.0" encoding="UTF-8"?>
<svg xmlns="http://www.w3.org/2000/svg" id="Layer_1" data-name="Layer 1" viewBox="0 0 24 24" width="512" height="512"><path d="M20.895,12.553c-.46-.92-.895-1.789-.895-2.553,0-1.657,.926-2.756,1.477-3.264l.448-.413-1.459-5.33-1.045,.428c-.924,.378-2.106,.578-3.403,.578-1.562-.028-2.086-.403-3.375-1.483L12-.022l-.643,.539c-1.294,1.085-1.82,1.461-3.375,1.489-1.222,.019-2.43-.186-3.403-.584l-1.045-.428-1.459,5.33,.448,.413c.551,.508,1.477,1.607,1.477,3.264,0,.764-.435,1.633-.895,2.553-.543,1.087-1.105,2.211-1.105,3.447,0,4.662,4.685,6.142,7.483,7.026,.701,.222,1.308,.413,1.67,.594l.847,.422,.848-.423c.361-.181,.968-.372,1.669-.594,2.799-.884,7.483-2.364,7.483-7.026,0-1.236-.563-2.36-1.105-3.447ZM4.886,3.63c.976,.264,2.072,.394,3.132,.375,1.89-.034,2.849-.536,3.982-1.431,1.131,.891,2.092,1.391,4,1.425,1.121,0,2.178-.128,3.113-.374l.569,2.081c-.619,.681-1.078,1.46-1.358,2.298l-12.65-.004c-.281-.836-.739-1.614-1.357-2.294l.568-2.076ZM13.914,21.119c-.759,.24-1.417,.448-1.914,.689-.498-.242-1.156-.449-1.914-.689-3.207-1.013-6.086-2.167-6.086-5.119,0-.764,.435-1.633,.895-2.553,.543-1.087,1.105-2.211,1.105-3.447l12,.004c.001,1.234,.563,2.357,1.105,3.443,.46,.92,.895,1.789,.895,2.553,0,2.952-2.879,4.105-6.086,5.119Z"/></svg>
