<?xml version="1.0" encoding="UTF-8"?>
<svg xmlns="http://www.w3.org/2000/svg" id="Layer_1" data-name="Layer 1" viewBox="0 0 24 24">
  <path d="m23.914,10.5L13.5.086l-3.5,3.5v4.92L.879,17.627c-1.17,1.17-1.17,3.072,0,4.242l1.251,1.252c.567.566,1.32.879,2.122.879s1.555-.312,2.121-.879l9.121-9.121h4.92l3.5-3.5ZM4.958,21.707c-.377.379-1.036.379-1.414,0l-1.252-1.252c-.39-.39-.39-1.024,0-1.414l8.667-8.667,2.666,2.666-8.667,8.667Zm10.456-9.707l-3.414-3.414v-4.172l1.5-1.5,7.586,7.586-1.5,1.5h-4.172Zm-3.707,1.707l-2,2-1.414-1.414,2-2,1.414,1.414Z"/>
</svg>
