<?xml version="1.0" encoding="UTF-8"?>
<svg xmlns="http://www.w3.org/2000/svg" id="Layer_1" data-name="Layer 1" viewBox="0 0 24 24">
  <path d="m22,7v-2h-2v2.546l-2.197,1.923c-.231-.879-.659-1.694-1.258-2.386.292-.634.455-1.34.455-2.082,0-2.757-2.243-5-5-5s-5,2.243-5,5c0,.743.163,1.448.455,2.082-.596.689-1.023,1.5-1.255,2.375l-2.2-1.913v-2.545h-2v2H0v2h2.626l3.459,3.008c.053.312.13.616.229.909-.852,1.183-1.314,2.603-1.314,4.083,0,3.86,3.14,7,7,7s7-3.14,7-7c0-1.466-.464-2.899-1.314-4.083.097-.286.172-.582.225-.885l3.465-3.032h2.624v-2h-2ZM12,2c1.654,0,3,1.346,3,3s-1.346,3-3,3-3-1.346-3-3,1.346-3,3-3Zm-3.306,6.747c.882.779,2.04,1.253,3.306,1.253s2.424-.474,3.306-1.253c.448.656.694,1.436.694,2.253,0,2.206-1.794,4-4,4s-4-1.794-4-4c0-.816.246-1.597.694-2.253Zm3.306,13.253c-2.757,0-5-2.243-5-5,0-.73.157-1.44.455-2.087,1.101,1.277,2.73,2.087,4.545,2.087s3.443-.809,4.544-2.086c.298.65.456,1.362.456,2.086,0,2.757-2.243,5-5,5Z"/>
</svg>
