<?xml version="1.0" encoding="UTF-8"?>
<svg xmlns="http://www.w3.org/2000/svg" id="Layer_1" data-name="Layer 1" viewBox="0 0 24 24" width="512" height="512"><path d="M12,0C5.383,0,0,5.383,0,12s5.383,12,12,12,12-5.383,12-12S18.617,0,12,0Zm0,22c-5.514,0-10-4.486-10-10S6.486,2,12,2s10,4.486,10,10-4.486,10-10,10Zm5.625-10.219l-1.524,1.219,1.524,1.219-1.25,1.562-3.476-2.781,3.476-2.781,1.25,1.562Zm-6.524,1.219l-3.476,2.781-1.25-1.562,1.524-1.219-1.524-1.219,1.25-1.562,3.476,2.781Zm.899,3c1.966,0,3.531,1.149,3.598,1.198l-1.195,1.604c-.007-.005-1.113-.802-2.402-.802s-2.396,.797-2.406,.805l-1.191-1.606c.066-.049,1.632-1.198,3.598-1.198Zm-6.631-6.666l-.74-1.857c1.188-.474,2.267-1.373,3.039-2.531l1.664,1.109c-1.01,1.514-2.38,2.648-3.963,3.279Zm14.002-1.857l-.74,1.857c-1.583-.631-2.953-1.766-3.963-3.279l1.664-1.109c.772,1.158,1.852,2.058,3.039,2.531Z"/></svg>
