<?xml version="1.0" encoding="UTF-8"?>
<svg xmlns="http://www.w3.org/2000/svg" id="Layer_1" data-name="Layer 1" viewBox="0 0 24 24">
  <path d="m14.848,10.566L23.996,1.418,22.582.004l-.009.009c.004-.008.007-.013.007-.013,0,0-5.58,1.739-5.58,2.844,0,.212.169,1.411.853,1.889l-4.368,4.368c-.993-1.718-.756-3.958.712-5.426l-.013-.013c.205-.199.43-.419.679-.669l-1.414-1.414c-.578.578-1.021.997-1.385,1.343-.917.869-1.422,1.348-2.294,2.666-1.091,1.648-2.072,2.282-4.373,2.827-.279.066-.549.125-.806.182-1.222.268-2.277.5-2.958,1.18-3.517,3.516-.567,6.55,2.036,9.227l1.216,1.265c1.892,1.989,3.525,3.708,5.561,3.733.015,0,.031,0,.046,0,1.135,0,2.219-.532,3.312-1.625.709-.708,1.069-1.9,1.501-3.506.574-2.138,1.161-2.91,3.138-4.13,1.021-.631,1.399-1.042,2.084-1.789.339-.37.774-.844,1.438-1.508l-1.414-1.414c-1.549,1.548-3.954,1.727-5.702.539Zm-1.476,7.784c-.238.886-.598,2.226-.983,2.611-.699.699-1.321,1.039-1.899,1.039-.006,0-.013,0-.019,0-1.192-.015-2.557-1.45-4.136-3.111l-1.232-1.281c-3.094-3.183-4.003-4.47-2.055-6.418.266-.266,1.133-.456,1.972-.64.268-.059.548-.12.838-.189,2.15-.509,3.658-1.16,5.053-2.936.129,1.467.753,2.897,1.873,4.017,1.155,1.155,2.64,1.783,4.154,1.884-2.073,1.361-2.904,2.563-3.565,5.025Zm-3.544-7.177l3,3-1.414,1.414-3-3,1.414-1.414Zm-2.76,2.76l3,3-1.414,1.414-3-3,1.414-1.414Z"/>
</svg>
